<?xml version="1.0" encoding="UTF-8"?>
<svg id="Layer_2" data-name="Layer 2" xmlns="http://www.w3.org/2000/svg" viewBox="0 0 180.97 70">
  <defs>
    <style>
      .cls-1 {
        fill: #fff;
      }

      .cls-2 {
        fill: #eb5f00;
      }
    </style>
  </defs>
  <g id="Layer_1-2" data-name="Layer 1">
    <g>
      <path class="cls-2" d="M177.6,29.76c0-1.86,1.5-3.36,3.36-3.36v-3.92c-1.86,0-3.36-1.5-3.36-3.36s1.5-3.36,3.36-3.36v-5.56c-5.63,0-10.2-4.57-10.2-10.2h-17.59v4.37c0,.56-.46,1.02-1.02,1.02s-1.02-.46-1.02-1.02V0H10.2c0,5.63-4.57,10.2-10.2,10.2v5.56c1.86,0,3.36,1.5,3.36,3.36s-1.5,3.36-3.36,3.36v3.92c1.86,0,3.36,1.5,3.36,3.36s-1.5,3.36-3.36,3.36v3.92c1.86,0,3.36,1.5,3.36,3.36s-1.5,3.36-3.36,3.36v3.92c1.86,0,3.36,1.5,3.36,3.36s-1.5,3.36-3.36,3.36v5.39c5.63,0,10.2,4.57,10.2,10.2h140.93v-4.37c0-.56.46-1.02,1.02-1.02s1.02.46,1.02,1.02v4.37h17.59c0-5.63,4.57-10.2,10.2-10.2v-5.39c-1.86,0-3.36-1.5-3.36-3.36s1.5-3.36,3.36-3.36v-3.92c-1.86,0-3.36-1.5-3.36-3.36s1.5-3.36,3.36-3.36v-3.92c-1.86,0-3.36-1.5-3.36-3.36ZM153.17,59.35c0,.56-.46,1.02-1.02,1.02s-1.02-.46-1.02-1.02v-4.71c0-.56.46-1.02,1.02-1.02s1.02.46,1.02,1.02v4.71ZM153.17,48.35c0,.56-.46,1.02-1.02,1.02s-1.02-.46-1.02-1.02v-4.71c0-.56.46-1.02,1.02-1.02s1.02.46,1.02,1.02v4.71ZM153.17,37.36c0,.56-.46,1.02-1.02,1.02s-1.02-.46-1.02-1.02v-4.71c0-.56.46-1.02,1.02-1.02s1.02.46,1.02,1.02v4.71ZM153.17,26.36c0,.56-.46,1.02-1.02,1.02s-1.02-.46-1.02-1.02v-4.71c0-.56.46-1.02,1.02-1.02s1.02.46,1.02,1.02v4.71ZM153.17,15.37c0,.56-.46,1.02-1.02,1.02s-1.02-.46-1.02-1.02v-4.71c0-.56.46-1.02,1.02-1.02s1.02.46,1.02,1.02v4.71Z"/>
      <g>
        <path class="cls-1" d="M42.02,32.12v-14.3h2.68c1.39,0,2.4.05,3.04.16s1.2.29,1.67.53c.55.32.98.74,1.28,1.26.3.52.45,1.11.45,1.77,0,.85-.25,1.53-.75,2.04-.5.51-1.25.85-2.25,1.02,1.15.17,2.02.54,2.61,1.12.59.58.88,1.35.88,2.31,0,.7-.17,1.35-.51,1.93-.34.58-.8,1.03-1.4,1.35-.53.29-1.15.49-1.86.62-.71.12-1.88.19-3.53.19h-2.33ZM45.08,23.54h.68c.92,0,1.58-.13,1.96-.39.38-.26.58-.7.58-1.31s-.18-1.03-.55-1.28-1.01-.38-1.93-.38h-.74v3.36ZM45.08,29.74h1.2c.77,0,1.35-.17,1.75-.5.4-.33.6-.83.6-1.47,0-.61-.2-1.07-.59-1.39-.39-.32-.97-.48-1.71-.48h-1.24v3.84Z"/>
        <path class="cls-1" d="M68.91,25c0,1.02-.19,1.99-.57,2.9-.38.91-.93,1.71-1.65,2.4-.74.71-1.58,1.25-2.51,1.63-.93.38-1.89.57-2.89.57-.87,0-1.73-.15-2.56-.44-.84-.3-1.6-.72-2.3-1.27-.9-.72-1.59-1.57-2.07-2.57s-.72-2.07-.72-3.21c0-1.03.19-1.99.57-2.9.38-.9.93-1.7,1.66-2.41.72-.7,1.55-1.24,2.5-1.62.95-.38,1.92-.58,2.92-.58s1.96.19,2.91.58c.94.38,1.77.92,2.5,1.62.72.7,1.27,1.51,1.65,2.41.38.91.57,1.87.57,2.89ZM61.29,29.78c1.3,0,2.36-.45,3.21-1.36s1.26-2.05,1.26-3.41-.43-2.49-1.28-3.42c-.85-.92-1.92-1.39-3.19-1.39s-2.37.46-3.22,1.38c-.85.92-1.28,2.06-1.28,3.42s.42,2.52,1.26,3.42c.84.9,1.92,1.35,3.24,1.35Z"/>
        <path class="cls-1" d="M86.42,25c0,1.02-.19,1.99-.57,2.9-.38.91-.93,1.71-1.65,2.4-.74.71-1.58,1.25-2.51,1.63-.93.38-1.89.57-2.89.57-.87,0-1.73-.15-2.56-.44-.84-.3-1.6-.72-2.3-1.27-.9-.72-1.59-1.57-2.07-2.57s-.72-2.07-.72-3.21c0-1.03.19-1.99.57-2.9.38-.9.93-1.7,1.66-2.41.72-.7,1.55-1.24,2.5-1.62.95-.38,1.92-.58,2.92-.58s1.96.19,2.91.58c.94.38,1.77.92,2.5,1.62.72.7,1.27,1.51,1.65,2.41.38.91.57,1.87.57,2.89ZM78.81,29.78c1.3,0,2.36-.45,3.21-1.36s1.26-2.05,1.26-3.41-.43-2.49-1.28-3.42c-.85-.92-1.92-1.39-3.19-1.39s-2.37.46-3.22,1.38c-.85.92-1.28,2.06-1.28,3.42s.42,2.52,1.26,3.42c.84.9,1.92,1.35,3.24,1.35Z"/>
        <path class="cls-1" d="M89.3,32.12v-14.3h3.06v6.47l4.77-6.47h3.54l-5.12,6.51,5.3,7.78h-3.68l-4.8-7.48v7.48h-3.06Z"/>
        <path class="cls-1" d="M47.37,40.42v11.7h-3.07v-11.7h-3.5v-2.6h10.06v2.6h-3.5Z"/>
        <path class="cls-1" d="M53.22,52.12v-14.3h3.06v14.3h-3.06Z"/>
        <path class="cls-1" d="M71.35,41.54c-.62-.55-1.25-.96-1.9-1.22-.65-.26-1.35-.39-2.09-.39-1.52,0-2.74.46-3.64,1.37-.9.91-1.36,2.14-1.36,3.67s.42,2.7,1.26,3.58c.84.88,1.99,1.32,3.44,1.32.83,0,1.6-.14,2.3-.42.71-.28,1.37-.69,1.97-1.25l-.02,3.13c-.65.38-1.33.67-2.05.86-.71.19-1.46.28-2.25.28-2.28,0-4.15-.71-5.61-2.12s-2.19-3.21-2.19-5.4.73-3.97,2.2-5.38c1.46-1.41,3.35-2.12,5.66-2.12.77,0,1.52.08,2.25.24.72.16,1.44.41,2.14.75l-.11,3.07Z"/>
        <path class="cls-1" d="M74.5,52.12v-14.3h3.06v6.47l4.77-6.47h3.54l-5.12,6.51,5.3,7.78h-3.68l-4.8-7.48v7.48h-3.06Z"/>
        <path class="cls-1" d="M87.76,52.12v-14.3h8.42v2.58h-5.36v2.94h5.36v2.6h-5.36v3.58h5.36v2.6h-8.42Z"/>
        <path class="cls-1" d="M104.81,40.42v11.7h-3.07v-11.7h-3.5v-2.6h10.06v2.6h-3.5Z"/>
        <path class="cls-1" d="M109.69,50.3l1.7-1.92c.21.53.56.94,1.04,1.25s1.01.45,1.6.45c.72,0,1.28-.17,1.7-.51.42-.34.62-.79.62-1.37,0-.68-.69-1.35-2.08-2.02-.45-.21-.8-.39-1.06-.53-1.25-.65-2.12-1.29-2.6-1.91-.48-.62-.72-1.36-.72-2.22,0-1.18.47-2.15,1.4-2.91.93-.76,2.15-1.14,3.64-1.14.87,0,1.61.15,2.24.45s1.18.78,1.67,1.42l-1.81,1.73c-.21-.42-.5-.73-.85-.93s-.78-.31-1.28-.31c-.61,0-1.09.15-1.46.45s-.56.7-.56,1.18c0,.76.74,1.45,2.21,2.07.29.12.52.22.67.29,1.21.55,2.11,1.18,2.69,1.88.58.7.87,1.49.87,2.38,0,1.34-.46,2.41-1.37,3.21-.91.8-2.14,1.2-3.69,1.2-1.09,0-2.03-.19-2.81-.57-.78-.38-1.36-.92-1.75-1.63Z"/>
      </g>
      <path class="cls-1" d="M134.77,62.35H25.35c-4.88,0-8.85-3.97-8.85-8.85V16.5c0-4.88,3.97-8.85,8.85-8.85h109.42c4.88,0,8.85,3.97,8.85,8.85v37c0,4.88-3.97,8.85-8.85,8.85ZM25.35,9.35c-3.94,0-7.15,3.21-7.15,7.15v37c0,3.94,3.21,7.15,7.15,7.15h109.42c3.94,0,7.15-3.21,7.15-7.15V16.5c0-3.94-3.21-7.15-7.15-7.15H25.35Z"/>
    </g>
  </g>
</svg>