<?xml version="1.0" encoding="UTF-8"?>
<svg id="Layer_2" data-name="Layer 2" xmlns="http://www.w3.org/2000/svg" viewBox="0 0 25.04 25">
  <defs>
    <style>
      .cls-1 {
        fill: #0071bc;
      }

      .cls-2 {
        fill: #fdfdfe;
      }
    </style>
  </defs>
  <g id="Layer_1-2" data-name="Layer 1">
    <g>
      <path class="cls-1" d="M10.63.15C3.98,1.19-.66,7.24.08,13.92c.61,5.53,4.87,10.04,10.35,10.96,0-.46.01-.92.01-1.38,0-2.42,0-4.84,0-7.26,0-.19-.05-.24-.23-.24-.89.01-1.79,0-2.68,0-.17,0-.21-.05-.21-.21,0-1.04,0-2.07,0-3.11,0-.16.04-.2.2-.2.89,0,1.77,0,2.66,0,.21,0,.28-.04.27-.26,0-.95-.03-1.9.01-2.85.03-.73.22-1.41.54-2.06.67-1.36,1.82-1.99,3.28-2.19,1.11-.15,2.19,0,3.28.18.1.02.14.06.14.17,0,.89,0,1.77,0,2.66,0,.13-.06.15-.17.15-.51,0-1.02.02-1.53.04-.87.03-1.45.5-1.66,1.34-.08.33-.12.67-.12,1.01,0,.55,0,1.09,0,1.64,0,.15.06.17.19.17.98,0,1.96,0,2.94,0,.2,0,.23.05.2.24-.15,1.03-.28,2.05-.41,3.08-.02.16-.07.22-.25.22-.82-.01-1.63,0-2.45,0-.16,0-.22.03-.22.21,0,2.9,0,5.81,0,8.71.06,0,.12,0,.18-.01.17-.02.35-.06.52-.09,6.76-1.37,11.13-7.79,9.91-14.58C23.65,3.65,17.27-.89,10.63.15Z"/>
      <path class="cls-2" d="M14.23,16.22c0-.18.06-.21.22-.21.82,0,1.63,0,2.45,0,.18,0,.23-.06.25-.22.13-1.03.27-2.05.41-3.08.03-.19,0-.24-.2-.24-.98.01-1.96,0-2.94,0-.13,0-.19-.02-.19-.17,0-.55,0-1.09,0-1.64,0-.34.04-.68.12-1.01.22-.85.79-1.31,1.66-1.34.51-.02,1.02-.03,1.53-.04.11,0,.17-.02.17-.15,0-.89,0-1.77,0-2.66,0-.11-.04-.15-.14-.17-1.09-.18-2.17-.33-3.28-.18-1.46.2-2.61.83-3.28,2.19-.32.65-.51,1.34-.54,2.06-.04.95-.02,1.9-.01,2.85,0,.22-.06.27-.27.26-.89-.01-1.77,0-2.66,0-.16,0-.2.05-.2.2,0,1.04,0,2.07,0,3.11,0,.17.04.22.21.21.89,0,1.79,0,2.68,0,.19,0,.24.05.23.24,0,2.42,0,4.84,0,7.26,0,.46,0,.92-.01,1.38.02.07.08.06.14.06.64.02,1.29.06,1.93.06.51,0,1.01,0,1.52-.05.07,0,.14-.02.22-.03,0-2.9,0-5.81,0-8.71Z"/>
    </g>
  </g>
</svg>