<svg version="1.2" xmlns="http://www.w3.org/2000/svg" viewBox="0 0 1366 28" width="1366" height="28"><style>.a{fill:#fff}.b{fill:#eb5f00}.c{fill:none;stroke:#f0d2b9;stroke-miterlimit:10;stroke-width:.8}</style><path fill-rule="evenodd" class="a" d="m0-191h1366v108h-1366z"/><path class="a" d="m0-82.9c0 0.2 0 45.7 0 76.7 0 10.9 0 18.3 0 18.3 14.1-2.1 28.8-3.6 43.1-2.2 13.3 1.1 25.5 3.6 39.1 4.3 11.2 0.6 22.8 0.1 33.8-1.7 11.1-1.7 20.5-4.6 31.5-6.5 13.5-2.5 29.2-2.8 42.8-1.1 13.2 1.6 25.4 4.4 38.7 5.6 28.8 2.9 57.4-1.9 86.1-2.5 40.3-1.2 81-1.3 121.2-3.6 5.1-0.2 10.4-0.3 15.7-0.3 9.1 0 18.3 0.4 27.1 1.5 12.6 1.3 23.7 4 36.2 5.6 12.9 1.7 27.8 1.8 40.8 0.1 12.4-1.5 23.2-4.1 35.5-5.5 22.4-2.8 45.5-1.8 68-1.4 39.3 0.5 79.9 0.6 119.1 0.2 20.4-0.3 40.3-0.9 61 0 13.4 0.5 26.1 1.7 39.3 2.7 19.3 1.3 40.6 1.5 60.1 2 19.1 0.4 39.6 0.5 58.6-1.2 10.2-0.9 20.1-2.3 30.4-3.1 13.4-1 28.8-0.8 42.1 1.2 10.3 1.4 20.1 3.7 30.4 5.2 22.5 3.5 46.8 2.2 69.6 1 16.9-0.7 35.3-1.4 52-3.3 9.6-1 18.9-2.3 28.7-3.1 29.9-2.5 60.5 1.3 90.4 4 6.1 0.6 12.4 1.5 18.3 2.3 2.3 0.2 4.4 0.5 6.4 0.8v-96c-56.5-0.4-1119.1-0.2-1366 0z"/><path class="b" d="m315.1 8c-28.8 0.6-57.3 5.4-86.1 2.5-13.3-1.2-25.5-4-38.7-5.6-13.6-1.7-29.3-1.4-42.8 1.1-11.1 1.9-20.4 4.8-31.5 6.5-11 1.8-22.6 2.3-33.8 1.7-13.6-0.6-25.8-3.2-39.2-4.3-14.3-1.3-28.9 0.1-43 2.2 0 0 0-7.4 0-18.3v34c2.8-0.8 5.5-2.2 8.3-2.8 4-0.8 7.7-2.4 11.7-3.3 8.3-1.7 16.8-1.9 25.2-1.4 17.4 0.9 34.5 4.7 52 5.1 6.8 0.2 13.5-0.3 20.3-1.4 6.3-1.1 12.3-4.3 18.3-6.5 12.6-4.6 26-8.2 39.5-7.2 15.6 1.2 30.3 8.2 45.9 9.3 8.5 0.6 17-0.6 25.5 0 6.1 0.5 12.2 2 18.3 2.3 12.8 0.5 25.2-4.3 37.8-6.7 13.9-2.6 28.2-2.3 42.4-2.4 23.5-0.1 46.9-1.4 70.3-3.7 1.9-0.3 18.2-3.5 36.5-5-5.3 0-10.6 0.1-15.7 0.4-40.3 2.2-80.9 2.3-121.3 3.5z"/><path fill-rule="evenodd" class="c" d="m200-83.1h966"/></svg>