<?xml version="1.0" encoding="UTF-8"?>
<svg id="Layer_2" data-name="Layer 2" xmlns="http://www.w3.org/2000/svg" viewBox="0 0 1366 218.79">
  <defs>
    <style>
      .cls-1 {
        fill: none;
        stroke: #f0d2b9;
        stroke-miterlimit: 10;
        stroke-width: .75px;
      }

      .cls-2 {
        fill: #fff;
      }

      .cls-3 {
        fill: #eb5f00;
      }
    </style>
  </defs>
  <g id="Layer_1-2" data-name="Layer 1">
    <g>
      <rect class="cls-2" x="0" width="1366" height="108"/>
      <path class="cls-2" d="M0,108.08c.01.24.02,45.69.02,76.74,0,10.89,0,18.26,0,18.26,14.1-2.09,28.73-3.54,43.03-2.19,13.32,1.1,25.56,3.64,39.18,4.32,11.16.63,22.8.1,33.78-1.69,11.06-1.74,20.44-4.65,31.49-6.56,13.49-2.45,29.23-2.75,42.84-1.07,13.19,1.58,25.38,4.45,38.66,5.57,28.84,2.91,57.35-1.85,86.07-2.47,40.37-1.23,80.98-1.27,121.23-3.56,5.14-.22,10.42-.34,15.73-.33,9.1.03,18.29.45,27.05,1.46,12.62,1.33,23.68,4.06,36.18,5.64,12.94,1.7,27.81,1.76,40.83.13,12.37-1.48,23.22-4.11,35.55-5.52,22.38-2.78,45.5-1.83,68-1.44,39.26.5,79.84.61,119.04.21,20.43-.27,40.33-.83,61,.02,13.43.48,26.07,1.74,39.33,2.66,19.33,1.33,40.57,1.59,60.08,2,19.13.46,39.64.53,58.6-1.18,10.22-.86,20.12-2.27,30.38-3.04,13.44-1.08,28.85-.79,42.13,1.12,10.33,1.4,20.12,3.75,30.4,5.22,22.5,3.51,46.8,2.25,69.6,1.06,16.85-.76,35.26-1.45,51.99-3.3,9.65-1.04,18.92-2.37,28.68-3.12,29.97-2.48,60.54,1.24,90.42,3.95,6.08.66,12.44,1.54,18.29,2.33,2.33.24,4.46.54,6.44.79v-96.03c-56.49-.32-1119.08-.19-1366,0Z"/>
      <path class="cls-3" d="M315.06,199c-28.72.61-57.23,5.37-86.07,2.47-13.27-1.12-25.46-3.99-38.66-5.57-13.61-1.69-29.35-1.39-42.84,1.07-11.04,1.91-20.43,4.82-31.49,6.56-10.98,1.79-22.62,2.31-33.78,1.69-13.61-.67-25.86-3.21-39.18-4.32-14.3-1.35-28.93.1-43.03,2.19,0,0,0-7.36,0-18.26,0,0-.02,0-.02,0v33.96c2.79-.84,5.49-2.16,8.31-2.75,3.96-.83,7.74-2.47,11.74-3.3,8.25-1.71,16.74-1.91,25.13-1.46,17.41.95,34.56,4.68,52,5.11,6.83.17,13.57-.29,20.31-1.43,6.36-1.07,12.27-4.24,18.34-6.47,12.61-4.63,25.96-8.16,39.51-7.16,15.59,1.15,30.29,8.21,45.88,9.28,8.49.58,17.03-.64,25.51.03,6.13.49,12.16,1.96,18.31,2.21,12.82.53,25.2-4.24,37.81-6.62,13.91-2.63,28.18-2.34,42.34-2.43,23.49-.15,46.97-1.39,70.35-3.67,1.88-.37,18.16-3.51,36.47-5.01-5.31-.02-10.59.1-15.73.33-40.26,2.29-80.86,2.33-121.23,3.56Z"/>
      <line class="cls-1" x1="200" y1="107.88" x2="1166" y2="107.88"/>
    </g>
  </g>
</svg>