<?xml version="1.0" encoding="UTF-8"?>
<svg id="Layer_2" data-name="Layer 2" xmlns="http://www.w3.org/2000/svg" viewBox="0 0 19.61 20">
  <defs>
    <style>
      .cls-1 {
        fill: #1e7d00;
      }
    </style>
  </defs>
  <g id="Layer_1-2" data-name="Layer 1">
    <path class="cls-1" d="M7.77.7L1.29,5.72c-.81.63-1.29,1.6-1.29,2.63v8.34c0,1.83,1.49,3.32,3.32,3.32h0c1.83,0,3.32-1.49,3.32-3.32v-1.62c0-1.7,1.29-3.19,2.98-3.28,1.84-.1,3.34,1.35,3.34,3.16v1.74c0,1.83,1.49,3.32,3.32,3.32h0c1.83,0,3.32-1.49,3.32-3.32v-8.34c0-1.03-.48-2-1.29-2.63L11.84.7c-1.2-.93-2.87-.93-4.07,0Z"/>
  </g>
</svg>