<?xml version="1.0" encoding="UTF-8"?>
<svg id="Layer_2" data-name="Layer 2" xmlns="http://www.w3.org/2000/svg" viewBox="0 0 25 25">
  <defs>
    <style>
      .cls-1 {
        fill: #fff;
      }

      .cls-2 {
        fill: red;
      }
    </style>
  </defs>
  <g id="Layer_1-2" data-name="Layer 1">
    <g>
      <path class="cls-2" d="M25,12.5c0,6.9-5.6,12.5-12.5,12.5h0C5.6,25,0,19.4,0,12.5h0C0,5.6,5.6,0,12.5,0h0c6.9,0,12.5,5.6,12.5,12.5h0Z"/>
      <path class="cls-1" d="M17.89,7.2H7.11c-1.06,0-1.93.86-1.93,1.93v6.74c0,1.06.86,1.93,1.93,1.93h10.77c1.06,0,1.93-.86,1.93-1.93v-6.74c0-1.06-.86-1.93-1.93-1.93ZM14.23,12.96l-3,1.5c-.35.17-.75-.08-.75-.46v-2.99c0-.39.41-.64.75-.46l3,1.5c.38.19.38.74,0,.93Z"/>
    </g>
  </g>
</svg>