<?xml version="1.0" encoding="UTF-8"?>
<svg id="Layer_2" data-name="Layer 2" xmlns="http://www.w3.org/2000/svg" viewBox="0 0 65 104.22">
  <defs>
    <style>
      .cls-1 {
        fill: #fff;
      }

      .cls-2 {
        fill: #1e7d00;
      }

      .cls-3 {
        fill: #edd6a2;
      }

      .cls-4 {
        fill: #964700;
      }
    </style>
  </defs>
  <g id="Layer_1-2" data-name="Layer 1">
    <g>
      <g>
        <path class="cls-1" d="M15.44,89.67l-.69,1.96c-.02.07-.06.09-.14.09h-1.25c-.08,0-.1-.04-.09-.12l2.57-6.96c.05-.12.09-.24.11-.64,0-.05.02-.08.08-.08h1.74c.06,0,.08.01.09.07l2.89,7.62c.01.07,0,.11-.07.11h-1.4c-.06,0-.1-.02-.12-.07l-.72-1.98h-2.99ZM18.02,88.37c-.26-.78-.85-2.43-1.1-3.26h-.01c-.2.8-.7,2.18-1.07,3.26h2.19Z"/>
        <path class="cls-1" d="M21.73,84.03c0-.06.01-.08.09-.1.36-.01,1.21-.04,2.36-.04,2.94,0,4.41,1.58,4.41,3.79,0,2.9-2.32,4.06-4.44,4.06-.79,0-1.94,0-2.34-.02-.05,0-.09-.04-.09-.11v-7.59ZM23.24,90.49c.25.01.52.01.85.01,1.76,0,2.95-.97,2.95-2.78s-1.19-2.58-2.87-2.58c-.35,0-.62.01-.92.02v5.32Z"/>
        <path class="cls-1" d="M37.35,87.78c.01,2.46-1.59,4.06-3.86,4.06-2.42,0-3.87-1.71-3.87-4.02s1.57-4.01,3.87-4.01c2.45,0,3.85,1.78,3.86,3.98ZM33.54,90.57c1.41,0,2.26-1.1,2.25-2.75,0-1.66-.86-2.74-2.32-2.74-1.32,0-2.29.99-2.29,2.74,0,1.53.82,2.75,2.36,2.75Z"/>
        <path class="cls-1" d="M38.74,84.03c0-.06.02-.1.09-.1.48-.01,1.4-.04,2.31-.04,2.42,0,3.32,1.28,3.32,2.59,0,1.89-1.54,2.71-3.42,2.71h-.79v2.43c0,.06-.02.09-.1.09h-1.31c-.06,0-.1-.02-.1-.08v-7.61ZM40.25,87.92c.21.01.38.01.79.01,1.05,0,1.94-.33,1.94-1.41,0-.87-.65-1.38-1.8-1.38-.44,0-.79.01-.92.02v2.75Z"/>
        <path class="cls-1" d="M47.66,85.22h-2.54c-.06,0-.09-.04-.07-.1l.16-1.1c.01-.07.04-.09.11-.09h6.21c.07,0,.11.02.12.11l.11,1.08c.01.07-.02.11-.09.11h-2.52v6.4c0,.07-.04.11-.1.11h-1.29c-.09.01-.11-.02-.11-.11v-6.4Z"/>
        <path class="cls-1" d="M3.43,102.17l-.69,1.96c-.02.07-.06.09-.14.09h-1.25c-.08,0-.1-.04-.09-.12l2.57-6.96c.05-.12.09-.24.11-.64,0-.05.02-.08.08-.08h1.74c.06,0,.08.01.09.07l2.89,7.62c.01.07,0,.11-.07.11h-1.4c-.06,0-.1-.02-.12-.07l-.72-1.98h-2.99ZM6.02,100.87c-.26-.78-.85-2.43-1.1-3.26h-.01c-.2.8-.7,2.18-1.07,3.26h2.19Z"/>
        <path class="cls-1" d="M9.83,104.22c-.07,0-.11-.01-.11-.11v-7.61c0-.06.02-.08.09-.08h1.76c.1,0,.11.02.15.08.92,1.57,2.84,4.91,3.27,5.81h.01c-.01-.33-.04-.72-.04-1.84v-3.95c0-.06.04-.09.11-.09h1.2c.09,0,.11.04.11.11v7.59c0,.08-.04.11-.12.11h-1.59c-.09,0-.12-.02-.16-.08-.65-1.21-2.94-5.05-3.42-6.2h-.01c.05.61.06,1.13.06,2.21v3.96c0,.07-.03.11-.1.11h-1.21Z"/>
        <path class="cls-1" d="M22.41,102.17l-.69,1.96c-.02.07-.06.09-.14.09h-1.25c-.08,0-.1-.04-.09-.12l2.57-6.96c.05-.12.09-.24.11-.64,0-.05.02-.08.08-.08h1.74c.06,0,.08.01.09.07l2.89,7.62c.01.07,0,.11-.07.11h-1.4c-.06,0-.1-.02-.12-.07l-.72-1.98h-2.99ZM24.99,100.87c-.26-.78-.85-2.43-1.1-3.26h-.01c-.2.8-.7,2.18-1.07,3.26h2.19Z"/>
        <path class="cls-1" d="M28.81,104.22c-.07,0-.11-.01-.11-.11v-7.61c0-.06.02-.08.09-.08h1.76c.1,0,.11.02.15.08.92,1.57,2.84,4.91,3.27,5.81h.01c-.01-.33-.04-.72-.04-1.84v-3.95c0-.06.04-.09.11-.09h1.2c.09,0,.11.04.11.11v7.59c0,.08-.04.11-.12.11h-1.59c-.09,0-.12-.02-.16-.08-.65-1.21-2.94-5.05-3.42-6.2h-.01c.05.61.06,1.13.06,2.21v3.96c0,.07-.03.11-.1.11h-1.21Z"/>
        <path class="cls-1" d="M38.74,104.12c0,.08-.02.11-.1.11h-1.31c-.08,0-.1-.04-.1-.11v-7.6c0-.08.04-.09.1-.09h1.31c.08,0,.1.02.1.09v7.6Z"/>
        <path class="cls-1" d="M41.04,96.42h2c.07,0,.1.02.12.08.37,1.2,1.46,4.72,1.71,5.83h.01c.26-1.01,1.5-4.61,1.89-5.83.02-.05.04-.08.11-.08h1.95c.06,0,.09.01.1.07l.34,7.63c.01.07-.02.09-.09.09h-1.39c-.06,0-.1-.01-.1-.08-.06-2.53-.09-5.95-.07-6.7h-.01c-.29,1.14-1.57,5.1-2.07,6.68-.01.08-.06.09-.11.09h-1.25c-.09,0-.11-.01-.12-.08-.54-1.8-1.54-5.26-1.89-6.71h-.02c-.01,1.2-.11,4.21-.24,6.71,0,.07-.03.08-.1.08h-1.25c-.08,0-.1-.01-.09-.09l.48-7.63c.01-.07.04-.07.1-.07Z"/>
        <path class="cls-1" d="M52.17,102.17l-.69,1.96c-.02.07-.06.09-.14.09h-1.25c-.08,0-.1-.04-.09-.12l2.57-6.96c.05-.12.09-.24.11-.64,0-.05.02-.08.08-.08h1.74c.06,0,.08.01.09.07l2.89,7.62c.01.07,0,.11-.07.11h-1.4c-.06,0-.1-.02-.12-.07l-.72-1.98h-2.99ZM54.76,100.87c-.26-.78-.85-2.43-1.1-3.26h-.01c-.2.8-.7,2.18-1.07,3.26h2.19Z"/>
        <path class="cls-1" d="M58.58,104.22c-.1,0-.12-.04-.12-.12v-7.57c0-.06.02-.11.1-.11h1.34c.05,0,.08.04.08.08v6.42h3.67c.08,0,.1.04.09.08l-.21,1.12c-.01.08-.05.09-.11.09h-4.82Z"/>
      </g>
      <g>
        <rect class="cls-3" x=".75" y="7" width="63.5" height="63.5" rx="9.25" ry="9.25"/>
        <path class="cls-1" d="M55,7.75c4.69,0,8.5,3.81,8.5,8.5v45c0,4.69-3.81,8.5-8.5,8.5H10c-4.69,0-8.5-3.81-8.5-8.5V16.25c0-4.69,3.81-8.5,8.5-8.5h45M55,6.25H10C4.48,6.25,0,10.73,0,16.25v45c0,5.52,4.48,10,10,10h45c5.52,0,10-4.48,10-10V16.25c0-5.52-4.48-10-10-10h0Z"/>
      </g>
      <g>
        <path class="cls-2" d="M2.35,42.49c1.72-.68,3.05-1.8,4.41-2.92,4.35-3.6,9.28-4.38,14.64-2.92,1.13.31,2.26.71,3.32,1.21,3.71,1.75,7.61,2.84,11.63,3.58,1.47.27,2.95.5,4.4.84.67.16,1.34.45,1.9.84,1.01.71,1.07,1.94.18,2.79-1.19,1.14-2.65,1.56-4.26,1.3-3.06-.49-6.1-1.04-9.16-1.52-1.98-.31-3.94-.14-5.83.58-.15.06-.37.12-.42.23-.1.24-.19.54-.13.77.07.28.36.33.63.22,2.4-1.01,4.85-.83,7.33-.37,2.53.46,5.06.91,7.61,1.28,1.82.26,3.47-.28,4.87-1.48,1.37-1.18,1.62-3.03.18-4.55.01-.03.02-.06.04-.07,2.19-1.17,3.96-2.88,5.83-4.46,1.14-.96,2.34-1.86,3.54-2.75.35-.26.78-.45,1.2-.6.72-.27,1.41-.14,2.04.31.14.1.36.16.52.13,1.5-.28,2.61.88,2.21,2.37-.1.38-.29.76-.52,1.08-1.78,2.51-3.59,5.01-5.39,7.51-.88,1.22-1.98,2.19-3.32,2.89-4.23,2.24-8.45,4.49-12.68,6.72-1.73.92-3.59,1.06-5.5.87-2.31-.22-4.49-1.01-6.7-1.62-2.48-.68-4.94-1.44-7.44-2.04-2.23-.53-4.43-.27-6.54.67-1.03.46-2.07.92-3.16,1.39-1.81-4.1-3.6-8.17-5.42-12.3Z"/>
        <path class="cls-2" d="M1.5,43.48v17.01c2.02-1.17,3.97-2.31,5.97-3.47-2-4.53-3.98-9.03-5.97-13.54Z"/>
      </g>
      <g>
        <path class="cls-4" d="M50.16,18.86c-1.76-6.05-7.51-4.7-12.33-5.62-4.72-1.49-10.16-1.7-10.88,4.63-.09,3.14,1.4,6.09,1.3,9.26-.66,8.89,9.96,12.44,12.63,2.95.9-2.85,3.59-3.75,6.09-4.71,2.47-.99,3.87-3.79,3.24-6.33l-.04-.19Z"/>
        <path class="cls-4" d="M31.2,9.83c3.65-3.7-2.32-11.62-7.02-9.46-4.99,3.43,2.11,12.66,6.88,9.57l.14-.11Z"/>
        <path class="cls-4" d="M17.35,16.11c2.32,2.07,7.42,2.56,7.78-1.38.17-3.14-2.92-6.1-5.88-6.73-5.68-1.06-5.8,5.18-2.1,7.95l.2.16Z"/>
        <path class="cls-4" d="M42.53,11.24c4.59-3.5-2.41-13.72-7.08-9.25-2.92,3.94,2.26,11.53,6.93,9.34l.15-.09Z"/>
        <path class="cls-4" d="M23.04,21.15c-2.54-1.79-7.62-1.66-7.55,2.28.17,3.13,3.56,5.71,6.56,5.98,5.72.4,5.18-5.79,1.2-8.12l-.21-.13Z"/>
      </g>
    </g>
  </g>
</svg>