<?xml version="1.0" encoding="UTF-8"?>
<svg id="Layer_2" data-name="Layer 2" xmlns="http://www.w3.org/2000/svg" viewBox="0 0 212.5 47.22">
  <defs>
    <style>
      .cls-1 {
        fill: #fff;
      }

      .cls-2 {
        fill: #eb5f00;
      }
    </style>
  </defs>
  <g id="Layer_1-2" data-name="Layer 1">
    <g>
      <g>
        <path class="cls-2" d="M7.08,46.47c-3.49,0-6.33-2.84-6.33-6.33v-8.73c3.97-.38,7.08-3.73,7.08-7.8s-3.11-7.42-7.08-7.8V7.08C.75,3.59,3.59.75,7.08.75h198.33c3.49,0,6.33,2.84,6.33,6.33v8.73c-3.97.38-7.08,3.73-7.08,7.8s3.11,7.42,7.08,7.8v8.73c0,3.49-2.84,6.33-6.33,6.33H7.08Z"/>
        <path class="cls-1" d="M205.42,1.5c3.08,0,5.58,2.5,5.58,5.58v8.08c-4.02.71-7.08,4.23-7.08,8.45s3.06,7.74,7.08,8.45v8.08c0,3.08-2.5,5.58-5.58,5.58H7.08c-3.08,0-5.58-2.5-5.58-5.58v-8.08c4.02-.71,7.08-4.23,7.08-8.45s-3.06-7.74-7.08-8.45V7.08C1.5,4,4,1.5,7.08,1.5h198.33M205.42,0H7.08C3.17,0,0,3.17,0,7.08v9.44c3.91,0,7.08,3.17,7.08,7.08s-3.17,7.08-7.08,7.08v9.44c0,3.91,3.17,7.08,7.08,7.08h198.33c3.91,0,7.08-3.17,7.08-7.08v-9.44c-3.91,0-7.08-3.17-7.08-7.08s3.17-7.08,7.08-7.08V7.08c0-3.91-3.17-7.08-7.08-7.08h0Z"/>
      </g>
      <g>
        <g>
          <path class="cls-1" d="M65.08,24.57c.54.69.82,1.48.82,2.36,0,.8-.2,1.51-.59,2.12-.39.61-.96,1.09-1.71,1.43-.75.34-1.63.52-2.64.52h-6.47v-15.01h6.19c1.02,0,1.9.16,2.63.49.74.33,1.3.79,1.68,1.38.38.59.57,1.25.57,2,0,.87-.23,1.61-.7,2.19-.47.59-1.09,1-1.86,1.25.85.16,1.54.58,2.09,1.27ZM57.49,22.23h2.75c.72,0,1.27-.16,1.66-.49.39-.33.58-.8.58-1.42s-.2-1.1-.59-1.44c-.39-.34-.94-.52-1.64-.52h-2.75v3.87ZM62.23,28.09c.41-.35.61-.86.61-1.52s-.22-1.15-.64-1.53c-.43-.37-1.01-.56-1.74-.56h-2.97v4.13h3.03c.73,0,1.3-.18,1.71-.53Z"/>
          <path class="cls-1" d="M70.5,30.43c-.92-.51-1.64-1.23-2.16-2.16-.52-.93-.78-2.01-.78-3.23s.27-2.29.81-3.23c.54-.93,1.27-1.65,2.2-2.16.93-.51,1.97-.76,3.12-.76s2.19.25,3.12.76c.93.51,1.67,1.23,2.2,2.16.54.93.81,2.01.81,3.23s-.28,2.29-.83,3.23c-.55.93-1.3,1.65-2.24,2.16-.94.51-1.99.76-3.15.76s-2.18-.25-3.1-.76ZM75.13,28.21c.48-.27.86-.68,1.15-1.21.29-.54.43-1.19.43-1.95s-.14-1.41-.43-1.95c-.29-.54-.66-.94-1.13-1.21-.47-.27-.97-.41-1.52-.41-.85,0-1.56.31-2.15.94-.59.62-.88,1.5-.88,2.63s.29,2.01.86,2.63c.57.62,1.28.94,2.13.94.54,0,1.06-.14,1.54-.41Z"/>
          <path class="cls-1" d="M84.21,30.43c-.92-.51-1.64-1.23-2.16-2.16-.52-.93-.78-2.01-.78-3.23s.27-2.29.81-3.23c.54-.93,1.27-1.65,2.2-2.16.93-.51,1.97-.76,3.12-.76s2.19.25,3.12.76c.93.51,1.67,1.23,2.2,2.16.54.93.81,2.01.81,3.23s-.28,2.29-.83,3.23c-.55.93-1.3,1.65-2.24,2.16-.94.51-1.99.76-3.15.76s-2.18-.25-3.1-.76ZM88.85,28.21c.48-.27.86-.68,1.15-1.21.29-.54.43-1.19.43-1.95s-.14-1.41-.43-1.95c-.29-.54-.66-.94-1.13-1.21-.47-.27-.97-.41-1.52-.41-.85,0-1.56.31-2.15.94s-.88,1.5-.88,2.63.29,2.01.86,2.63c.57.62,1.28.94,2.13.94.54,0,1.06-.14,1.54-.41Z"/>
          <path class="cls-1" d="M102.79,31l-4.04-5.07v5.07h-3.01v-15.91h3.01v9.05l4-5.05h3.91l-5.25,5.98,5.29,5.93h-3.91Z"/>
          <path class="cls-1" d="M124.27,15.99v2.36h-4v12.64h-3.01v-12.64h-4v-2.36h11.01Z"/>
          <path class="cls-1" d="M126.67,17.16c-.35-.34-.53-.76-.53-1.26s.18-.92.53-1.26c.35-.34.79-.51,1.32-.51s.97.17,1.32.51c.35.34.53.76.53,1.26s-.18.92-.53,1.26c-.35.34-.79.51-1.32.51s-.97-.17-1.32-.51ZM129.47,19.09v11.91h-3.01v-11.91h3.01Z"/>
          <path class="cls-1" d="M132.42,21.81c.5-.92,1.2-1.64,2.09-2.15.89-.51,1.91-.76,3.05-.76,1.48,0,2.7.37,3.67,1.11.97.74,1.62,1.77,1.95,3.11h-3.25c-.17-.52-.46-.92-.87-1.21s-.91-.44-1.52-.44c-.86,0-1.54.31-2.04.94s-.75,1.51-.75,2.66.25,2.01.75,2.63c.5.62,1.18.94,2.04.94,1.22,0,2.01-.54,2.39-1.63h3.25c-.33,1.29-.98,2.32-1.96,3.07-.97.76-2.19,1.14-3.66,1.14-1.15,0-2.16-.25-3.05-.76-.89-.51-1.58-1.23-2.09-2.15-.5-.92-.75-2-.75-3.24s.25-2.31.75-3.24Z"/>
          <path class="cls-1" d="M152.44,31l-4.04-5.07v5.07h-3.01v-15.91h3.01v9.05l4-5.05h3.91l-5.25,5.98,5.29,5.93h-3.91Z"/>
          <path class="cls-1" d="M168.93,25.88h-8.71c.06.87.35,1.56.88,2.06.53.5,1.19.75,1.98.75,1.12,0,1.91-.48,2.39-1.44h3.25c-.34,1.15-1,2.09-1.98,2.83-.98.74-2.17,1.11-3.59,1.11-1.15,0-2.18-.25-3.09-.76-.91-.51-1.62-1.23-2.13-2.16-.51-.93-.76-2.01-.76-3.23s.25-2.31.75-3.25c.5-.93,1.2-1.65,2.11-2.15.9-.5,1.94-.75,3.12-.75s2.15.24,3.04.73c.9.49,1.59,1.18,2.09,2.06.49.89.74,1.91.74,3.07,0,.4-.03.77-.09,1.12ZM165.9,24.06c-.01-.83-.29-1.49-.83-1.97-.54-.48-1.21-.72-2.01-.72-.76,0-1.4.24-1.91.72-.52.48-.82,1.14-.92,1.97h5.68Z"/>
          <path class="cls-1" d="M174.71,21.56v5.76c0,.4.1.69.29.87.19.18.52.27.98.27h1.4v2.54h-1.89c-2.54,0-3.81-1.23-3.81-3.7v-5.74h-1.42v-2.47h1.42v-2.95h3.03v2.95h2.67v2.47h-2.67Z"/>
          <path class="cls-1" d="M181.47,30.67c-.77-.35-1.38-.83-1.83-1.43-.45-.6-.7-1.27-.74-2h3.03c.06.5.28.91.67,1.21s.88.46,1.48.46,1.02-.12,1.34-.36c.32-.24.48-.56.48-.96s-.2-.68-.59-.88c-.39-.2-1.03-.41-1.9-.62-.87-.21-1.59-.43-2.15-.66-.56-.22-1.04-.57-1.44-1.04-.4-.47-.6-1.1-.6-1.87,0-.67.18-1.29.55-1.84.37-.55.9-.99,1.61-1.31.71-.32,1.54-.48,2.51-.48,1.42,0,2.55.35,3.4,1.06.85.71,1.31,1.67,1.4,2.87h-2.88c-.04-.5-.24-.9-.59-1.2-.35-.3-.82-.45-1.41-.45-.54,0-.96.11-1.26.33-.29.22-.44.53-.44.91s.2.71.6.91c.4.21,1.02.42,1.87.63.86.22,1.57.44,2.13.67.56.23,1.04.58,1.44,1.04.4.47.6,1.09.6,1.88,0,.69-.19,1.31-.56,1.86-.37.55-.91.99-1.61,1.3-.7.31-1.53.47-2.49.47s-1.85-.18-2.61-.53Z"/>
        </g>
        <path class="cls-1" d="M46.79,19.26v-3.46c0-.64-.52-1.15-1.15-1.15h-20.73c-.64,0-1.15.52-1.15,1.15v3.46c1.27,0,2.3,1.03,2.3,2.3s-1.03,2.3-2.3,2.3v3.46c0,.64.52,1.15,1.15,1.15h20.73c.64,0,1.15-.52,1.15-1.15v-3.46c-1.27,0-2.3-1.03-2.3-2.3s1.03-2.3,2.3-2.3ZM30.09,25.59c0,.32-.26.58-.58.58s-.58-.26-.58-.58v-1.15c0-.32.26-.58.58-.58s.58.26.58.58v1.15ZM30.09,22.14c0,.32-.26.58-.58.58s-.58-.26-.58-.58v-1.15c0-.32.26-.58.58-.58s.58.26.58.58v1.15ZM30.09,18.68c0,.32-.26.58-.58.58s-.58-.26-.58-.58v-1.15c0-.32.26-.58.58-.58s.58.26.58.58v1.15ZM41.03,24.44h-8.06c-.32,0-.58-.26-.58-.58s.26-.58.58-.58h8.06c.32,0,.58.26.58.58s-.26.58-.58.58ZM41.03,19.83h-8.06c-.32,0-.58-.26-.58-.58s.26-.58.58-.58h8.06c.32,0,.58.26.58.58s-.26.58-.58.58ZM46.79,30.56v1.36c0,.64-.52,1.15-1.15,1.15h-20.73c-.64,0-1.15-.52-1.15-1.15v-1.36c.36.13.75.21,1.15.21h20.73c.41,0,.79-.08,1.15-.21Z"/>
      </g>
    </g>
  </g>
</svg>