<?xml version="1.0" encoding="UTF-8"?>
<svg xmlns="http://www.w3.org/2000/svg" xmlns:xlink="http://www.w3.org/1999/xlink" viewBox="0 0 96.36 111.27">
  <defs>
    <style>
      .cls-1, .cls-2, .cls-3, .cls-4, .cls-5, .cls-6, .cls-7, .cls-8, .cls-9 {
        mix-blend-mode: multiply;
      }

      .cls-1, .cls-10 {
        opacity: .6;
      }

      .cls-1, .cls-11 {
        fill: #f58674;
      }

      .cls-2, .cls-3 {
        opacity: .5;
      }

      .cls-2, .cls-12, .cls-6 {
        fill: #b25329;
      }

      .cls-13 {
        fill: #fff;
      }

      .cls-14, .cls-10, .cls-15, .cls-16, .cls-17 {
        mix-blend-mode: screen;
      }

      .cls-14, .cls-17 {
        opacity: .4;
      }

      .cls-10, .cls-5 {
        fill: #fffcd5;
      }

      .cls-18 {
        fill: none;
      }

      .cls-19 {
        fill: #e5e5e5;
      }

      .cls-3, .cls-20, .cls-9 {
        fill: #c7b299;
      }

      .cls-21 {
        fill: #998675;
      }

      .cls-4, .cls-9 {
        opacity: .65;
      }

      .cls-22 {
        clip-path: url(#clippath-1);
      }

      .cls-23 {
        isolation: isolate;
      }

      .cls-24 {
        fill: #1e7d00;
      }

      .cls-25 {
        fill: #118acb;
      }

      .cls-15, .cls-8, .cls-26 {
        fill: #564740;
      }

      .cls-27 {
        fill: #333;
      }

      .cls-8 {
        opacity: .75;
      }

      .cls-28 {
        fill: gray;
      }

      .cls-29 {
        fill: #b4c81e;
      }

      .cls-30 {
        clip-path: url(#clippath);
      }

      .cls-17, .cls-31 {
        fill: #e8e8e8;
      }
    </style>
    <clipPath id="clippath">
      <path class="cls-18" d="M28.63,28.49c-.87-.01-1.75-.2-2.52-.6-.49-.25-.83-.67-1.32-.96-.37-.21-.78-.33-1.21-.38-.02-.27-.09-1.18.02-2.29.12-1.21.48-2.91,1.53-4.13.86-1.01,2.07-1.55,3.58-1.61,1.36-.05,2.41.36,3.12,1.23,1.78,2.18.91,6.6.75,7.35-1.36.35-2.68.82-3.94,1.39Z"/>
    </clipPath>
    <clipPath id="clippath-1">
      <path class="cls-18" d="M45.98,28.49c.87-.01,1.75-.2,2.52-.6.49-.25.83-.67,1.32-.96.37-.21.78-.33,1.21-.38.02-.27.09-1.18-.02-2.29-.12-1.21-.48-2.91-1.53-4.13-.86-1.01-2.07-1.55-3.58-1.61-1.36-.05-2.41.36-3.12,1.23-1.78,2.18-.91,6.6-.75,7.35,1.36.35,2.68.82,3.94,1.39Z"/>
    </clipPath>
  </defs>
  <g class="cls-23">
    <g id="Layer_2" data-name="Layer 2">
      <g id="Layer_1-2" data-name="Layer 1">
        <g>
          <g>
            <path class="cls-29" d="M38.5,110.77C17.55,110.77.5,93.72.5,72.77s17.05-38,38-38,38,17.05,38,38c0,4.6-.82,9.1-2.44,13.39.93,3.29,5.69,17.55,17.98,17.55h2.16l-1.94.95c-.28.14-6.96,3.36-15.43,3.36h0c-5.93,0-11.21-1.59-15.69-4.73-6.59,4.9-14.41,7.48-22.64,7.48Z"/>
            <path class="cls-13" d="M38.5,35.27c20.71,0,37.5,16.79,37.5,37.5,0,4.71-.88,9.22-2.46,13.37.87,3.14,5.67,18.07,18.5,18.07,0,0-6.77,3.31-15.21,3.31-4.91,0-10.38-1.12-15.42-4.65-.1-.07-.18-.14-.27-.21-6.29,4.77-14.13,7.61-22.64,7.61-20.71,0-37.5-16.79-37.5-37.5s16.79-37.5,37.5-37.5M38.5,34.27C17.27,34.27,0,51.54,0,72.77s17.27,38.5,38.5,38.5c8.22,0,16.03-2.54,22.65-7.37,4.51,3.06,9.78,4.62,15.69,4.62,8.58,0,15.36-3.27,15.65-3.41l3.88-1.9h-4.32c-11.75,0-16.44-13.54-17.45-17.03,1.6-4.3,2.41-8.81,2.41-13.41,0-21.23-17.27-38.5-38.5-38.5h0Z"/>
          </g>
          <g>
            <g>
              <path class="cls-31" d="M14.8,46.61s2.7,2.41,1.31,5.4c-1.39,2.99,4.45,3.28,4.45,3.28,0,0,.48,1.95-.7,3.24-1.19,1.29-10.24-1.08-9-5.03,1.24-3.94,5.73-3.03,3.94-6.9Z"/>
              <g>
                <path class="cls-27" d="M17.4,56.8c-.07.21-.11.49.07.62.12.08.28.06.41.02.79-.24,1.36-.94,1.77-1.66.1-.17.19-.35.18-.54-.46-.06-1.07-.16-1.68-.34-.02.04-.04.09-.06.13-.26.58-.5,1.17-.69,1.78Z"/>
                <path class="cls-27" d="M16.1,57.48c.07-.26.13-.53.08-.79s-.26-.51-.53-.52c-.18,0-.34.09-.49.18-.36.22-1.45.59-2,1.02.82.47,1.77.84,2.68,1.1.03-.08.05-.16.07-.24.06-.25.13-.5.19-.75Z"/>
                <path class="cls-27" d="M14.23,54.33s-.07.08-.08.13c-.01.12.12.18.24.21.77.18,1.58.04,2.36-.09.13-.02.26-.05.38-.09-.59-.3-1.06-.72-1.19-1.29-.33.18-.67.44-.99.62-.25.15-.51.3-.71.51Z"/>
                <path class="cls-27" d="M13.23,53.34c.12-.04.25-.07.35-.15.1-.08.18-.2.17-.32-.02-.25-1.31-.88-1.93-1.11-.39.46-.73,1.02-.96,1.75-.02.06-.04.13-.05.19.82.05,1.64-.13,2.42-.36Z"/>
              </g>
              <path class="cls-28" d="M14.77,46.58s.02,0,.03,0c.01,0,.02.01.02.01h0s.02.02.02.02l.04.03c.78.68,1.38,1.57,1.66,2.58.22.79.2,1.65-.07,2.43-.08.24-.2.48-.29.73-.26.71.09,1.39.71,1.77,1.08.69,2.39.93,3.65,1.12.02,0,.03.01.03.03.24.98.18,2.11-.38,2.98-.11.17-.23.34-.39.47-.28.2-.64.26-.96.29-1.54.1-3.05-.31-4.47-.86-1.76-.74-4.15-2.15-3.76-4.39.34-1.56,1.51-2.71,2.82-3.52.6-.42,1.29-.79,1.58-1.49.29-.72-.03-1.49-.25-2.18h0ZM14.82,46.64c.26.43.41.91.46,1.41.12,1.12-.88,1.84-1.7,2.39-1.24.81-2.32,1.9-2.64,3.39-.34,2.05,1.98,3.32,3.58,4,1.37.54,2.84.95,4.32.91.32-.03.65-.06.89-.26.1-.11.2-.22.28-.34.56-.81.66-1.87.51-2.83l.03.03c-1.05-.01-2.11-.14-3.12-.51-1.11-.39-2.08-1.28-1.65-2.58.18-.48.41-.94.47-1.45.24-1.49-.47-2.97-1.42-4.08l-.03-.04-.02-.02h0s0,0,.01,0c.01,0,.02,0,.02-.01h0Z"/>
              <path class="cls-3" d="M20.56,55.3s-.49-.02-1.15-.13c-.12.26-.26.51-.41.75-.24.39-.53.78-.9,1.05-.45.32-1.03.44-1.58.46-.63.02-1.27-.09-1.87-.28-.54-.16-1.08-.39-1.55-.7-.43-.28-.8-.66-1.11-1.07-.33-.44-.6-.94-.76-1.46-.1-.31-.16-.63-.16-.95-.08.17-.15.36-.21.56-1.24,3.94,7.81,6.32,9,5.03,1.19-1.29.7-3.24.7-3.24Z"/>
              <path class="cls-3" d="M20.56,55.3s-.28-.01-.69-.07c0,.02,0,.03-.01.05-.15.54-.33,1.09-.62,1.57-.29.47-.68.85-1.16,1.13-.54.31-1.14.47-1.75.52-.09,0-.19.01-.28.02,1.75.47,3.36.51,3.82.02,1.19-1.29.7-3.24.7-3.24Z"/>
              <path class="cls-17" d="M13.45,50.39s.03,0,.04-.01c.25-.08.48-.19.71-.31.43-.22.85-.49,1.18-.85.03-.03.09-.02.11.01.14.24.12.53.07.79-.03.17-.09.33-.16.49.11-.09.22-.19.33-.28.03-.02.08,0,.1.03.15.3.01.68-.08.97-.05.16-.11.32-.12.49-.02.22-.03.45-.02.67,0,.39.05.79.2,1.16.12.31.33.58.58.79.45.38,1.07.6,1.65.5-1.37-.43-2.66-1.25-1.92-2.84,1.39-2.99-1.31-5.4-1.31-5.4,1.03,2.24-.03,2.88-1.35,3.78Z"/>
            </g>
            <g>
              <path class="cls-31" d="M57.6,62.63c.1-3.08-.04-7.3-2.05-9.78-1.02-1.25-2.54-1.66-4.05-1.24.07-.71.12-1.42.12-2.13,0-.14.01-.46.01-.6,0-.13-.03-.86-.04-1,0-.46-.1-1.14-.15-1.6-.24-1.72-.72-3.45-1.5-5.01-.38-.72-.81-1.43-1.35-2.05-.16-.16-.3-.42-.56-.42-3.15.07-11.38.26-14.43.34,0,0-4.82.12-4.82.13-.07,0-.13.03-.19.08-.22.2-.38.4-.56.62-.16.21-.32.44-.46.66-1.95,3.16-2.25,7.06-1.95,10.67,0,.1.02.21.03.33-.52-.15-1.06-.21-1.61-.15-.97.09-1.86.63-2.48,1.38-2,2.48-2.15,6.7-2.05,9.78-.22.04-.44.12-.64.23-1.24.69-1.81,2.62-.8,3.73.68.78,1.83.94,2.8.82.13.1.27.2.42.28.41.23.86.38,1.32.45.21.03.42.04.64.04.15,1.7,1.48,3.42,3.32,3.23.3-.03.59-.1.87-.21.91.81,2.3.93,3.46.65.41-.09.8-.23,1.17-.4.02.02.04.03.06.04.57.15,1.14.23,1.72.25,1.15.04,2.43-.22,3.2-1.15.77-.94.92-2.14.67-3.27h1.56c-.12.55-.15,1.12-.04,1.68.22,1.19,1.01,2.19,2.19,2.52.56.17,1.15.22,1.73.21.58-.02,1.15-.1,1.72-.25.02,0,.04-.02.05-.03,1.45.63,3.42.84,4.65-.24.27.11.56.2.87.23,1.91.18,3.16-1.51,3.33-3.26.23,0,.46,0,.69-.04.46-.08.91-.22,1.32-.45.15-.08.29-.18.42-.28.93.12,2.01-.03,2.71-.71,1.3-1.27.36-3.76-1.35-4.06Z"/>
              <path class="cls-31" d="M52.93,69.7c-.66,1.22-1.9,1.75-3.22,1.44.13-.12.24-.26.35-.41,1.15-1.71.52-3.97-1.24-4.96-.04-.02-.07.04-.04.06.68.59,1.21,1.36,1.39,2.2.17.83.02,1.76-.45,2.47-.49.72-1.34,1.09-2.19,1.17-.84.08-1.68-.05-2.5-.28,1.04-1.47.75-3.4-.38-4.74-.03-.04-.09.01-.05.05,1,1.32,1.23,3.17.18,4.52-.51.14-1.06.23-1.59.25-1.36.09-2.89-.35-3.46-1.7-.63-1.29-.31-2.79.35-4.01.5-.94,1.16-1.78,1.85-2.59.02.46.07.93.17,1.38,0,.02.02.03.04.03.02,0,.03-.02.03-.04-.13-1.39.08-2.79.33-4.16.29-1.57.71-3.11,1.2-4.63.93-3.32,1.11-6.78,1.18-10.2,0-.02-.01-.03-.03-.04-.02,0-.04.01-.04.03-.38,3.17-.67,6.39-1.42,9.48-.47,1.53-.95,3.09-1.19,4.68-.17,1.1-.31,2.23-.27,3.35-.73.81-1.43,1.67-1.97,2.63-.24.43-.44.88-.57,1.36-.01,0-.02,0-.04,0h-1.63s-.03,0-.04,0c-.13-.48-.33-.94-.58-1.36-.54-.96-1.23-1.82-1.97-2.63.11-2.46-.58-5.3-1.27-7.47-.93-3.25-1.18-6.68-1.62-10.04,0-.02-.02-.03-.04-.03-.02,0-.04.02-.04.04,0,1.61.09,3.22.23,4.82.15,1.61.35,3.21.75,4.79.52,1.72,1.06,3.44,1.38,5.21.25,1.37.46,2.76.35,4.15,0,.02,0,.04.03.04.02,0,.04,0,.04-.03.09-.44.15-.9.17-1.38.69.81,1.35,1.65,1.85,2.59.66,1.21.98,2.72.35,4-.57,1.35-2.09,1.79-3.45,1.7-.54-.03-1.08-.11-1.59-.26-1.05-1.35-.83-3.19.17-4.51.03-.04-.02-.08-.05-.05-.28.33-.5.69-.67,1.08-.56,1.17-.46,2.6.28,3.66-.38.1-.77.19-1.15.24-1.26.17-2.76,0-3.54-1.11-1.04-1.58-.5-3.55.96-4.68.04-.03,0-.08-.04-.06-.78.49-1.42,1.26-1.67,2.19-.23.93-.09,1.96.45,2.76.1.16.22.29.35.42-.6.16-1.23.17-1.8-.07-1.94-.82-2.45-3.53-1.36-5.21.36-.57.88-1.04,1.46-1.38,1.81-1.12,4.15-.72,5.92.3.3.01-.78-.58-.88-.61-.97-.48-2.05-.76-3.16-.68-.07,0-.15.01-.22.02-.36-2.82-.68-6.33-.98-9.16-.08-.87-.23-2.21-.27-3.08-.25-3.59.1-7.4,2.11-10.46.22-.31.47-.64.74-.9l4.68-.07c3.03-.05,10.96-.2,14.26-.26.56.6.99,1.33,1.38,2.06.86,1.72,1.35,3.63,1.54,5.54.03.23.06.54.07.77.01.26.06.91.05,1.16,0,.6.01,1.35-.05,1.95-.09,1.82-.42,4.42-.56,6.28-.17,1.77-.41,4.45-.6,6.22-1.49-.17-3.07.33-4.29,1.18-.01.01-.02.03-.01.05.01.02.03.02.05.01,1.21-.71,2.63-1.12,4-.97,2.92.33,4.92,3.16,3.45,5.9Z"/>
              <path class="cls-3" d="M26.49,68.75c-.23.16-.5.25-.8.21-.77-.1-1.35-.82-1.62-1.5-.12-.29-.18-.6-.18-.92-.6,1.66,0,3.82,1.7,4.53.57.24,1.21.22,1.8.07-.13-.13-.25-.26-.35-.42-.39-.58-.57-1.28-.55-1.98Z"/>
              <path class="cls-3" d="M31.4,69.25c-.24.29-.57.49-.91.63-.43.18-.9.28-1.37.31-.46.03-.93,0-1.37-.12-.3-.09-.6-.23-.83-.45.09.3.22.6.41.89.78,1.12,2.28,1.29,3.54,1.11.39-.05.77-.14,1.15-.24-.44-.63-.65-1.38-.64-2.14Z"/>
              <path class="cls-3" d="M45.44,68.66c-.03-.06-.05-.12-.08-.18-.05.07-.1.13-.16.19-.33.36-.78.62-1.27.69-.47.07-.96-.03-1.41-.18-.6-.21-1.14-.59-1.33-1.22-.17-.58-.06-1.2.07-1.78.14-.64.34-1.27.42-1.93.03-.26.04-.53.01-.78-.6.72-1.17,1.47-1.6,2.29-.66,1.21-.98,2.72-.35,4.01.57,1.35,2.09,1.8,3.46,1.7.54-.03,1.08-.11,1.59-.25.59-.75.78-1.66.66-2.55Z"/>
              <path class="cls-3" d="M51.78,68.76c-.41.02-.83-.08-1.16-.32,0,0,0,0,0,0,.09.77-.08,1.58-.56,2.3-.11.15-.23.29-.35.41,1.31.32,2.56-.22,3.22-1.44.3-.56.45-1.12.49-1.67-.44.42-1.02.69-1.63.72Z"/>
              <path class="cls-3" d="M50.18,68.03s-.02-.06-.02-.1c-.08-.12-.15-.25-.2-.39-.08.36-.26.68-.5.96-.56.65-1.42,1.09-2.28,1.13-.39.02-.8-.06-1.13-.27-.15-.09-.27-.21-.38-.34.07.81-.12,1.64-.63,2.36.81.23,1.66.36,2.5.28.86-.08,1.71-.45,2.19-1.17.47-.7.62-1.64.45-2.47Z"/>
              <path class="cls-3" d="M35.37,63.43s0,.02,0,.03c0,.63.19,1.21.36,1.81.18.61.34,1.23.38,1.87.04.62-.05,1.24-.33,1.8-.16.31-.41.53-.72.71-.64.37-1.44.57-2.18.51-.34-.03-.68-.11-.96-.31-.11-.08-.21-.18-.28-.28.07.58.28,1.14.67,1.64.51.14,1.05.23,1.59.26,1.36.09,2.88-.35,3.45-1.7.63-1.28.31-2.79-.35-4-.44-.84-1.02-1.6-1.63-2.33Z"/>
              <path class="cls-31" d="M27.23,63.52c-.52.07-1.02.23-1.49.47,0,0,0,0,0-.01-.17-.49-.62-1.1-1.21-.89-.04.02-.02.08.03.07.53-.09.85.47,1.01.89,0,.01,0,.02.01.03-1.34.74-2.33,2.09-2.3,3.69,0,.09,0,.18,0,.27-1.62-.16-3.47-1.36-2.88-3.19.08-.23.2-.51.31-.72.37-.69,1.09-1.19,1.89-.96.08.03.13-.08.05-.12-.36-.15-.76-.14-1.13-.01-.73.28-1.15,1.01-1.41,1.71-.34.94-.03,1.87.64,2.5-.31,0-.63-.03-.93-.09-.85-.17-1.68-.72-1.85-1.61-.22-1.25.65-2.71,1.98-2.82.03,0,.06-.03.06-.06,0-.03-.03-.06-.06-.06-.08,0-.16,0-.24.01.08-1.8.22-3.6.58-5.36.58-2.93,1.97-6.03,5.44-5.46.08.83.22,1.87.3,2.6.37,2.95.74,6.21,1.22,9.13Z"/>
              <path class="cls-3" d="M19.11,65.56c-.44-.28-.86-.69-1.06-1.19-.12.38-.16.79-.09,1.18.17.89,1.01,1.44,1.85,1.61.31.06.62.09.93.09-.39-.37-.66-.84-.74-1.35-.32-.04-.62-.17-.89-.34Z"/>
              <path class="cls-3" d="M26.01,54.39c-.09-.73-.22-1.76-.3-2.6-.22-.04-.43-.06-.63-.07.06.38.12.75.17,1.13.14.91.24,1.82.37,2.73.13.92.27,1.83.46,2.73.13.64.31,1.28.43,1.93.12.65.23,1.34.15,2.01-.03.26-.09.53-.25.74-.16.2-.39.33-.62.43-.09.04-.18.07-.27.11.1.14.17.3.23.45,0,0,0,0,0,.01.47-.23.97-.39,1.49-.47-.48-2.92-.85-6.18-1.22-9.13Z"/>
              <path class="cls-3" d="M25.35,63.59c-.41.14-.83.28-1.15.56-.23.21-.42.47-.62.71-.19.23-.39.45-.64.62-.52.35-1.24.39-1.81.15-.25-.1-.48-.28-.6-.52-.06-.11-.09-.23-.1-.35-.01.03-.02.06-.03.09-.59,1.82,1.26,3.03,2.88,3.19,0-.09,0-.18,0-.27-.02-1.6.96-2.95,2.3-3.69,0-.01,0-.02-.01-.03-.05-.15-.13-.31-.22-.45Z"/>
              <path class="cls-31" d="M59.21,65.55c-.16.79-.86,1.36-1.62,1.55-.31.09-.65.14-.97.15-.07,0-.13,0-.2,0,.67-.64.98-1.57.64-2.5-.36-1.07-1.3-2.18-2.54-1.69-.07.03-.03.14.04.12,1.03-.29,1.79.53,2.11,1.43.84,1.95-1.08,3.28-2.84,3.44.03-.47-.02-.94-.16-1.38-.31-1.08-1.1-1.97-2.07-2.51-.01,0-.02-.01-.03-.02.01-.03.02-.06.03-.09.16-.43.48-.99,1.01-.89.04.01.07-.05.03-.07-.59-.21-1.04.41-1.21.89,0,.02-.01.04-.02.06-.49-.26-1.01-.41-1.54-.49.38-2.05.66-4.12.94-6.18.14-1.04.28-2.09.4-3.13.1-.81.21-1.62.29-2.45.52-.07,1.04-.08,1.54.01,3.06.62,3.79,4.63,4.15,7.25.15,1.18.23,2.37.28,3.56-.08-.01-.16-.01-.24-.01-.08,0-.08.13,0,.13,1.33.12,2.2,1.57,1.98,2.82Z"/>
              <path class="cls-3" d="M52.09,63.11c-.45-.21-.95-.28-1.46-.18-.06.01-.1-.03-.09-.09.07-.46.26-.9.39-1.35.13-.45.27-.9.37-1.36.19-.8.32-1.62.44-2.44.13-.86.26-1.71.36-2.58.08-.72.1-1.45.11-2.17,0-.32,0-.64-.03-.95,0-.09-.02-.17-.04-.26-.22,0-.43.02-.65.06-.08.82-.19,1.64-.29,2.45-.13,1.04-.27,2.09-.4,3.13-.28,2.06-.57,4.13-.94,6.18.53.07,1.05.23,1.54.49,0-.02.02-.04.02-.06.12-.32.35-.7.67-.86Z"/>
              <path class="cls-3" d="M56.69,64.65c0,.15-.01.3-.04.44-.07.45-.28.84-.64,1.12-.43.34-.98.5-1.5.65-.03,0-.08-.01-.09-.05-.07-.42-.18-.84-.34-1.24-.29-.75-.71-1.47-1.32-2.01-.16-.14-.34-.27-.52-.37-.32.14-.53.53-.65.85-.01.03-.02.06-.03.09.01,0,.02.01.03.02.97.54,1.77,1.43,2.07,2.51.14.44.19.91.16,1.38,1.75-.15,3.66-1.47,2.86-3.39Z"/>
              <path class="cls-3" d="M58.88,63.85c-.02.28-.06.55-.12.82-.13.59-.43,1.35-1.12,1.41-.03,0-.06-.02-.07-.05-.06-.37-.23-.69-.42-1,.2.84-.11,1.66-.72,2.23.07,0,.13,0,.2,0,.32-.02.66-.06.97-.15.76-.19,1.46-.75,1.62-1.55.1-.57-.03-1.19-.33-1.7Z"/>
              <path class="cls-13" d="M39.97,65.69c.54-.97,1.23-1.82,1.97-2.63-.04-1.12.1-2.25.27-3.35.25-1.59.72-3.15,1.19-4.68.72-2.95,1.02-6.01,1.37-9.03,0-.03,0-.05,0-.08.01-1.53-.17-3.06-.54-4.55-.15-.58-.31-1.17-.51-1.73-3.61.07-8,.15-10.07.18h-.64c-.13.31-.26.6-.38.91-.06.16-.13.32-.17.48-.12.46-.19.92-.24,1.39-.1.98-.07,1.95,0,2.92,0,0,.01,0,.02,0,.02,0,.03.01.04.03.44,3.36.69,6.79,1.62,10.04.69,2.17,1.38,5.02,1.27,7.47.73.81,1.43,1.66,1.97,2.63.25.42.44.88.58,1.36.01,0,.02,0,.04,0h1.63s.02,0,.04,0c.13-.47.34-.93.57-1.36Z"/>
              <path class="cls-3" d="M41.94,62.41c-.15.12-.3.24-.46.34-.84.55-1.84.87-2.85.9-.96.03-1.94-.21-2.75-.75-.27-.18-.51-.4-.73-.63,0,.27,0,.53,0,.79.73.81,1.43,1.66,1.97,2.63.25.42.44.88.58,1.36.01,0,.02,0,.04,0h1.63s.02,0,.04,0c.13-.47.34-.93.57-1.36.54-.97,1.23-1.82,1.97-2.63,0-.22,0-.43,0-.65Z"/>
              <path class="cls-3" d="M38.16,66.18s-.1.05-.12,0c-.15-.32-.32-.63-.52-.92-.56-.83-1.31-1.57-2.21-2.03.67.76,1.31,1.56,1.81,2.45.25.42.44.88.58,1.36.01,0,.02,0,.04,0h1.63s.02,0,.04,0c.13-.47.34-.93.57-1.36.49-.88,1.11-1.66,1.77-2.41-1.46.57-2.75,1.55-3.58,2.9Z"/>
              <path class="cls-3" d="M27.9,40.31c.73.46,1.58.7,2.42.87.39.08.78.16,1.17.13.4-.02.8-.09,1.2-.03.36.05.65.26.92.48.34.28.65.6,1.02.83.41.25.9.41,1.36.54.48.13.97.21,1.47.25.95.07,1.93-.02,2.85-.27.47-.12.93-.29,1.35-.53.18-.1.36-.21.5-.37.13-.14.24-.31.35-.47.18-.27.39-.57.71-.67.34-.11.72-.08,1.08-.11.46-.03.92-.12,1.37-.21.52-.1,1.04-.22,1.55-.37.46-.13.93-.25,1.39-.42.15-.06.3-.12.45-.18-.14-.2-.29-.39-.45-.58-.16-.16-.3-.42-.56-.42-3.15.07-11.38.26-14.42.34,0,0-4.82.12-4.82.13-.07,0-.13.03-.19.08-.22.2-.38.4-.56.62-.08.1-.15.2-.23.31.02.01.04.03.06.04Z"/>
              <g>
                <g>
                  <path class="cls-27" d="M47.13,46.05c-.2.35-.37.83-.09,1.12.16.17.42.2.65.2.88.03,2.41-.11,3.46-.67-.23-1.87-.68-3.36-1.17-4.5-1.1,1.16-2.06,2.45-2.84,3.85Z"/>
                  <path class="cls-27" d="M47.16,53.07c.03.41.49.63.9.72.71.15,2.01.21,2.92-.11.06-.51.11-1.05.17-1.62.08-.72.12-1.4.14-2.05-1.37.53-2.64,1.32-3.71,2.33-.21.2-.43.45-.41.74Z"/>
                  <path class="cls-27" d="M46.16,59.36c-.11.09-.24.21-.23.35,0,.11.1.2.18.26.5.39,1.16.51,1.8.59.55.07,1.12.11,1.67,0,.22-.05.43-.13.63-.23.12-.97.26-2.2.44-3.73-.22,0-.52.11-.9.33-1.26.71-2.46,1.54-3.58,2.44Z"/>
                  <path class="cls-27" d="M29.64,47.37c.23,0,.49-.04.65-.2.28-.29.11-.77-.09-1.12-.82-1.47-1.84-2.82-3.02-4.02-.51,1.09-1,2.58-1.24,4.54,1.03.67,2.75.84,3.7.81Z"/>
                  <path class="cls-27" d="M29.28,53.78c.4-.08.87-.3.9-.72.02-.29-.2-.54-.41-.74-1.11-1.04-2.44-1.86-3.87-2.39-.03-.01-.06-.02-.09-.03.02.68.07,1.39.15,2.14.06.53.11,1.03.16,1.51.91.43,2.39.37,3.17.21Z"/>
                  <path class="cls-27" d="M31.17,59.36c-1.13-.9-2.32-1.73-3.58-2.44-.54-.31-.91-.38-1.14-.3.16,1.43.3,2.6.41,3.53.26.2.57.33.89.4.55.12,1.11.08,1.67,0,.63-.08,1.29-.2,1.8-.59.09-.07.17-.15.18-.26.01-.15-.11-.26-.23-.35Z"/>
                </g>
                <g>
                  <path class="cls-27" d="M23.32,55.69c.11,0,.23-.03.32-.1.15-.12.17-.35.16-.55-.01-.71-.11-1.41-.27-2.1-.06-.26-.14-.53-.34-.71-.09-.08-.19-.14-.31-.18-.76.43-1.47,1.2-2.04,2.5.22.15.48.28.66.4.55.38,1.15.77,1.81.73Z"/>
                  <path class="cls-27" d="M24.51,58.76c-1.23-1.01-2.7-1.68-4.21-2.17-.03-.01-.07-.02-.1-.03-.25,1.08-.43,2.39-.52,3.95.13.04.27.07.4.08,1.39.15,2.8.09,4.18-.16.29-.05.6-.14.76-.38.14-.21.11-.5,0-.73-.12-.23-.31-.4-.51-.56Z"/>
                </g>
                <g>
                  <path class="cls-27" d="M54.44,52.15s-.07.05-.1.08c-.19.18-.27.45-.34.71-.17.69-.26,1.39-.27,2.1,0,.2.01.42.16.55.09.07.21.09.32.1.66.04,1.26-.35,1.81-.73.1-.07.23-.14.36-.22-.54-1.31-1.22-2.12-1.95-2.58Z"/>
                  <path class="cls-27" d="M53.03,58.76c-.2.16-.39.34-.51.56-.12.23-.14.52,0,.73.16.25.47.33.76.38,1.38.26,2.79.31,4.18.16.01,0,.02,0,.03,0-.08-1.55-.25-2.84-.5-3.92-1.42.48-2.8,1.13-3.96,2.08Z"/>
                </g>
              </g>
              <g>
                <g>
                  <path class="cls-28" d="M31.62,64.78c-1.77-1.02-4.11-1.42-5.92-.3-.58.34-1.1.81-1.46,1.38-1.09,1.68-.58,4.39,1.36,5.21.57.24,1.21.22,1.8.07.08-.02.15-.04.22-.06.02,0,.04,0,.05.02,0,.02,0,.04-.02.04-.06.02-.12.05-.17.07-.28.11-.57.18-.87.21-1.83.18-3.16-1.53-3.32-3.23,0-.05,0-.1,0-.15,0-.09,0-.18,0-.27-.02-1.6.96-2.95,2.3-3.69.06-.03.11-.06.17-.09.47-.23.97-.39,1.49-.47.04,0,.08-.01.13-.02.07,0,.15-.02.22-.02,1.1-.08,2.18.2,3.16.68.1.04,1.18.62.88.61Z"/>
                  <path class="cls-28" d="M32.26,71.36s0,.04-.02.04c-.05.02-.09.04-.14.06-.38.17-.77.3-1.17.4-1.16.28-2.56.16-3.46-.65-.03-.02-.05-.05-.08-.07-.13-.13-.25-.26-.35-.42-.54-.8-.68-1.84-.45-2.76.25-.93.89-1.7,1.67-2.19.04-.02.08.03.04.06-1.46,1.13-1.99,3.1-.96,4.68.78,1.12,2.28,1.29,3.54,1.11.39-.05.77-.14,1.15-.24.06-.01.12-.03.17-.05.02,0,.04,0,.05.02Z"/>
                  <path class="cls-28" d="M37.09,70.6c-.77.93-2.05,1.19-3.2,1.15-.58-.02-1.15-.1-1.72-.25-.02,0-.04-.02-.06-.03-.01,0-.02-.02-.02-.03-.01-.02-.03-.04-.04-.06-.74-1.06-.84-2.49-.28-3.66.18-.39.4-.76.67-1.08.03-.03.08.01.05.05-1,1.32-1.23,3.16-.17,4.51.51.14,1.05.23,1.59.26,1.36.09,2.88-.35,3.45-1.7.63-1.28.31-2.79-.35-4-.5-.94-1.16-1.78-1.85-2.59-.04-.05-.09-.11-.14-.16-.01-.01-.01-.04,0-.05.01-.01.04-.01.05,0,.03.03.06.06.09.1.73.81,1.43,1.66,1.97,2.63.25.42.44.88.58,1.36.03.09.05.19.07.28.24,1.13.1,2.32-.67,3.27Z"/>
                  <path class="cls-28" d="M35.16,63.06s0,.07,0,.11c-.02.48-.08.94-.17,1.38,0,.02-.02.03-.04.03-.02,0-.03-.02-.03-.04.11-1.39-.1-2.78-.35-4.15-.32-1.78-.86-3.49-1.38-5.21-.4-1.58-.6-3.18-.75-4.79-.14-1.61-.23-3.21-.23-4.82,0-.02.02-.04.04-.04.02,0,.03.01.04.03.44,3.36.69,6.79,1.62,10.04.69,2.17,1.38,5.02,1.27,7.47Z"/>
                </g>
                <g>
                  <path class="cls-28" d="M51.65,48.89c0,.14-.01.46-.01.6,0,.71-.05,1.42-.12,2.13,0,.06-.01.12-.02.17-.08.82-.19,1.64-.29,2.45-.13,1.04-.27,2.09-.4,3.13-.28,2.06-.57,4.13-.94,6.18,0,.02,0,.05-.01.07,0,.03-.04.06-.07.05-.03,0-.06-.04-.05-.07,0-.02,0-.04,0-.06.19-1.76.43-4.45.6-6.22.14-1.86.46-4.45.56-6.28.06-.6.04-1.34.05-1.95.01-.25-.04-.9-.05-1.16,0-.23-.04-.55-.07-.77-.19-1.91-.68-3.82-1.54-5.54-.38-.73-.82-1.45-1.38-2.06-3.3.06-11.23.22-14.26.26l-4.68.07c-.27.26-.52.59-.74.9-2.01,3.06-2.36,6.88-2.11,10.46.05.87.19,2.21.27,3.08.3,2.83.61,6.33.98,9.16,0,.03,0,.06.01.1,0,.03-.02.07-.05.07-.03,0-.07-.02-.07-.05,0-.03-.01-.07-.02-.1-.48-2.92-.85-6.18-1.22-9.13-.09-.73-.22-1.76-.3-2.6,0-.06-.01-.11-.01-.16-.01-.12-.02-.23-.03-.33-.3-3.61,0-7.51,1.95-10.67.14-.22.3-.45.46-.66.18-.22.33-.42.55-.62.05-.05.12-.07.19-.08,0,0,4.81-.12,4.82-.13,3.05-.08,11.27-.27,14.43-.34.26,0,.4.26.56.42.54.62.97,1.33,1.35,2.05.78,1.56,1.26,3.29,1.5,5.01.05.46.14,1.14.15,1.6.01.14.03.87.04,1Z"/>
                  <path class="cls-28" d="M53.83,68.04s0,.09-.01.14c-.16,1.75-1.41,3.44-3.33,3.26-.3-.03-.59-.11-.86-.22-.06-.02-.12-.05-.18-.08-.04-.02-.02-.08.03-.07.08.02.16.05.24.06,1.31.32,2.56-.22,3.22-1.44,1.47-2.74-.52-5.57-3.45-5.9-1.38-.14-2.79.26-4,.97-.02.01-.04,0-.05-.01,0-.02,0-.04.01-.05,1.23-.86,2.8-1.35,4.29-1.18.04,0,.09.01.13.02.53.07,1.05.23,1.54.49.06.03.11.06.17.09.01,0,.02.01.03.02.97.54,1.77,1.43,2.07,2.51.14.44.19.91.16,1.38Z"/>
                  <path class="cls-28" d="M50.06,70.73c-.11.15-.23.29-.35.41-.03.03-.06.05-.08.08-1.23,1.08-3.2.88-4.65.24-.04-.02-.08-.04-.13-.06-.04-.02-.02-.08.03-.07.05.02.11.03.16.05.81.23,1.66.36,2.5.28.86-.08,1.71-.45,2.19-1.17.47-.7.62-1.64.45-2.47-.18-.85-.71-1.62-1.39-2.2-.04-.02,0-.08.04-.06,1.75.99,2.39,3.25,1.24,4.96Z"/>
                  <path class="cls-28" d="M45.04,71.39s-.02.03-.03.05c0,.01-.02.02-.03.03-.02.01-.03.02-.06.03-.57.15-1.14.23-1.72.25-.58.02-1.17-.03-1.73-.21-1.19-.34-1.97-1.33-2.19-2.53-.11-.56-.08-1.13.04-1.68.02-.1.04-.19.07-.28.13-.47.34-.93.57-1.36.54-.97,1.23-1.82,1.97-2.63.03-.03.06-.06.08-.09.01-.01.04-.02.05,0,.01.01.02.04,0,.05-.04.05-.09.1-.13.16-.7.81-1.36,1.65-1.85,2.59-.66,1.21-.98,2.72-.35,4.01.57,1.35,2.09,1.8,3.46,1.7.54-.03,1.08-.11,1.59-.25,1.06-1.35.83-3.2-.18-4.52-.03-.03.03-.08.05-.05,1.13,1.34,1.42,3.27.38,4.74Z"/>
                  <path class="cls-28" d="M44.9,45.55c-.08,3.42-.25,6.88-1.18,10.2-.5,1.52-.91,3.06-1.2,4.63-.25,1.37-.46,2.76-.33,4.16,0,.02-.01.04-.03.04-.02,0-.03-.01-.04-.03-.1-.46-.15-.92-.17-1.38,0-.04,0-.07,0-.11-.04-1.12.1-2.25.27-3.35.25-1.59.72-3.15,1.19-4.68.76-3.09,1.05-6.32,1.42-9.48,0-.02.02-.03.04-.03.02,0,.03.02.03.04Z"/>
                </g>
                <g>
                  <path class="cls-28" d="M23.54,68.12s-.03.06-.06.06c-.06,0-.13,0-.19,0-.21,0-.43-.01-.64-.04-.46-.08-.91-.22-1.32-.45-.15-.08-.29-.18-.42-.28-.06-.05-.12-.1-.17-.15-.67-.64-.98-1.57-.64-2.5.26-.7.68-1.42,1.41-1.71.37-.13.77-.14,1.13.01.08.03.03.15-.05.12-.8-.24-1.52.26-1.89.96-.11.22-.23.49-.31.72-.59,1.82,1.26,3.03,2.88,3.19.07,0,.14.01.2.02.04,0,.07.03.06.07Z"/>
                  <path class="cls-28" d="M21.11,67.32s-.02.06-.05.06c-.05,0-.1.02-.15.02-.97.13-2.12-.04-2.8-.82-1.01-1.12-.44-3.04.8-3.73.2-.11.42-.19.64-.23.04,0,.09-.02.13-.02.08-.01.16-.02.24-.01.04,0,.06.03.06.06,0,.03-.03.06-.06.06-1.33.12-2.2,1.57-1.98,2.82.17.89,1.01,1.44,1.85,1.61.31.06.62.09.93.09.1,0,.2,0,.31,0,.04,0,.07.03.07.07Z"/>
                  <path class="cls-28" d="M25.91,51.83c-.07-.01-.13-.03-.2-.04-3.46-.57-4.86,2.53-5.44,5.46-.36,1.76-.49,3.56-.58,5.36,0,.03,0,.06,0,.09,0,.03-.03.06-.07.06-.03,0-.06-.03-.06-.06,0-.02,0-.05,0-.07-.1-3.08.04-7.3,2.04-9.78.61-.74,1.51-1.28,2.47-1.38.55-.06,1.1,0,1.61.15.08.02.17.05.25.08.07.03.04.14-.03.12Z"/>
                  <path class="cls-28" d="M25.76,64.21s-.04.03-.07.02c-.09-.04-.1-.1-.12-.16,0-.01,0-.02-.01-.03-.16-.43-.48-.99-1.01-.89-.04.02-.07-.05-.03-.07.59-.21,1.04.41,1.21.89,0,0,0,0,0,.01.02.07.07.13.02.22Z"/>
                </g>
                <g>
                  <path class="cls-28" d="M56.42,67.26c-.05.05-.11.1-.17.15-.13.11-.27.2-.42.28-.41.23-.86.38-1.32.45-.23.03-.46.05-.69.04-.05,0-.09,0-.14,0-.04,0-.06-.03-.06-.06,0-.04.03-.06.06-.06.05,0,.1,0,.15-.01,1.76-.15,3.69-1.49,2.84-3.44-.32-.9-1.08-1.72-2.11-1.43-.07.03-.12-.09-.04-.12,1.23-.48,2.18.63,2.54,1.69.34.94.03,1.87-.64,2.5Z"/>
                  <path class="cls-28" d="M58.95,66.69c-.7.69-1.78.84-2.71.71-.05,0-.1-.01-.15-.02-.03,0-.06-.04-.05-.07,0-.03.03-.05.06-.05.1,0,.21,0,.31,0,.07,0,.13,0,.2,0,.32-.02.66-.06.97-.15.76-.19,1.46-.75,1.62-1.55.22-1.25-.66-2.71-1.98-2.82-.08,0-.08-.13,0-.13.08,0,.17,0,.24.01.05,0,.09.01.13.02,1.71.3,2.66,2.79,1.35,4.06Z"/>
                  <path class="cls-28" d="M57.6,62.63s0,.05,0,.07c0,.03-.03.06-.07.06-.03,0-.06-.03-.06-.06,0-.03,0-.06,0-.09-.05-1.19-.13-2.38-.28-3.56-.36-2.62-1.09-6.63-4.15-7.25-.5-.09-1.02-.09-1.54-.01-.08.01-.16.03-.24.04-.07.02-.11-.1-.03-.12.1-.03.19-.07.29-.09,1.5-.43,3.02-.01,4.04,1.24,2,2.48,2.15,6.69,2.05,9.78Z"/>
                  <path class="cls-28" d="M52.6,63.15c-.53-.09-.85.47-1.01.89-.01.03-.02.06-.03.09-.01.04-.04.08-.1.1-.03.01-.05,0-.07-.02-.04-.07-.02-.12,0-.17,0-.02.02-.04.02-.06.17-.49.62-1.1,1.21-.89.04.02.02.08-.03.07Z"/>
                </g>
                <path class="cls-28" d="M39.51,67.19c0,.08-.06.14-.14.14h-1.63c-.08,0-.14-.06-.14-.14,0-.07.04-.12.11-.14.01,0,.02,0,.04,0h1.63s.02,0,.04,0c.06.01.11.07.11.14Z"/>
              </g>
              <path class="cls-17" d="M27.71,62.31c.15-.42.18-.89.19-1.34.02-.93-.07-1.87-.2-2.8-.11-.73-.23-1.45-.33-2.18-.15-1.06-.27-2.12-.39-3.17-.12-1.07-.24-2.14-.36-3.21-.11-.9-.31-1.79-.44-2.69-.16,1.44-.16,2.91-.06,4.34.05.87.19,2.21.27,3.08.27,2.6.56,5.77.89,8.46.22-.06.36-.28.44-.49Z"/>
              <path class="cls-17" d="M49.17,57.6c-.09.85-.2,1.72-.07,2.58.09.65.31,1.36.79,1.84.15-1.57.32-3.39.45-4.7.14-1.86.46-4.45.56-6.28.06-.6.04-1.34.05-1.95,0-.23-.03-.78-.05-1.08-.2,1.31-.5,2.6-.77,3.9-.38,1.88-.76,3.77-.96,5.68Z"/>
              <path class="cls-17" d="M53.79,52.57c.25.24.49.49.72.75.22.25.45.51.65.77.53.7.96,1.48,1.32,2.28.15.32.28.65.42.98-.47-2.39-1.43-5.06-3.87-5.55-.12-.02-.25-.04-.37-.05.43.19.81.52,1.13.81Z"/>
              <path class="cls-17" d="M20.51,56.83c.32-.76.67-1.52,1.09-2.24.64-1.1,1.49-2.15,2.59-2.81-2.37.43-3.43,3.01-3.92,5.46-.03.13-.05.27-.08.4.1-.28.21-.55.32-.82Z"/>
            </g>
            <g>
              <path class="cls-26" d="M42.62,31.92c0,.11-.15.2-.35.2s-.35-.09-.35-.2.15-.2.35-.2.35.09.35.2Z"/>
              <ellipse class="cls-26" cx="40.82" cy="32.52" rx=".22" ry=".13"/>
              <path class="cls-26" d="M43.07,32.82c0,.09-.09.17-.2.17s-.2-.08-.2-.17.09-.17.2-.17.2.08.2.17Z"/>
              <ellipse class="cls-26" cx="41.67" cy="33.16" rx=".1" ry=".08"/>
            </g>
            <g>
              <path class="cls-26" d="M34.92,32.23c0,.08-.12.15-.26.15s-.26-.07-.26-.15.12-.15.26-.15.26.07.26.15Z"/>
              <path class="cls-26" d="M33.56,33.2c0,.11-.15.19-.34.19s-.34-.09-.34-.19.15-.19.34-.19.34.09.34.19Z"/>
              <path class="cls-26" d="M33.22,32.04c0,.14-.13.26-.3.26s-.3-.12-.3-.26.13-.26.3-.26.3.12.3.26Z"/>
              <path class="cls-26" d="M34.15,32.71s-.04.07-.08.07-.08-.03-.08-.07.04-.07.08-.07.08.03.08.07Z"/>
              <path class="cls-26" d="M34.92,33.39c0,.07-.07.13-.15.13s-.15-.06-.15-.13.07-.13.15-.13.15.06.15.13Z"/>
            </g>
            <g>
              <g>
                <path class="cls-31" d="M57.22,24.51s0-.03,0-.04c-.1-.7-.2-1.4-.32-2.1-.14-.61-.29-1.48-.47-2.07,0,0-.15-.55-.24-.85.71-.03,1.42-.15,2.09-.39,3.79-1.32,5.69-5.65,5.4-9.46-.19-2.74-1.52-5.42-3.84-6.95-1.59-1.13-3.57-1.82-5.54-1.57-3.07.42-5.58,2.64-7.26,5.14-.13-.15-.28-.32-.28-.32-.2-.2-.42-.41-.63-.6-.32-.25-.66-.51-1.02-.7-.05-.03-.1-.06-.15-.09l-.16-.07c-.31-.15-.67-.28-1.01-.36-.88-.21-1.8-.24-2.65-.56-.85-.29-1.53-.89-2.23-1.44-1.01-.79-2.21-1.43-3.5-1.6-.58-.08-1.19-.08-1.76-.02-1.73.15-3.75.85-5.18-.42-.02-.03-.05-.04-.09-.03-.04.01-.05.05-.04.09.23,1.12.99,2.48,2.13,2.89-1.35.4-2.63,1.07-3.71,1.96-1.05-1.17-2.32-2.16-3.71-2.89-3.11-1.67-6.65-1.43-9.45.72-.5.35-.98.83-1.4,1.26l-.4.49c-1.43,1.81-2.14,4.12-2.15,6.41-.03,1.86.39,3.74,1.2,5.42,1,2.07,2.63,3.8,4.78,4.66.89.34,1.86.52,2.81.54-.07.3-.13.6-.19.9-.11.61-.21,1.23-.3,1.84-.02.06-.05.13-.09.18,0,0,0,0,0,0-1.16.42-2.15,1.31-2.85,2.32-.88,1.29-1.33,2.82-1.48,4.36-.02.08.09.12.13.05.98-1.06,2.22-1.9,3.58-2.39-.34.36-.63.75-.9,1.16-1.08,1.69-1.57,3.8-1.11,5.76,0,0,0,0,0,0,0,0,0,0,0,0,0,.06.1.09.13.03,0,0,0,0,0,0,0,0,0,0,0,0,.75-.77,1.58-1.46,2.49-2.03.12.3.28.59.46.85.18.28.51.66.73.9,0,0,.42.4.42.4.11.12.31.28.44.38.27.22.64.51.93.68.79.53,1.67.98,2.55,1.34,1.23.53,2.53.89,3.82,1.21.64.12,1.61.34,2.25.42.64.07,1.63.22,2.26.26.72.04,1.44.09,2.16.12.3.36.67.66,1.07.89.79.46,1.72.66,2.62.73,1.7.18,3.55-.37,4.55-1.7,1.48-.11,2.95-.28,4.41-.54.47-.1,1.37-.29,1.85-.4,2.08-.55,4.19-1.27,5.99-2.48.28-.17.62-.44.88-.65l.21-.17s.2-.19.2-.19c.64-.62,1.26-1.34,1.54-2.2.21.13.42.27.63.42.71.5,1.34,1.12,1.96,1.72.02.03.04.05.04.05,0,.01.02.02.04.03,0,0,0,0,0,0,.04,0,.08-.02.08-.06,0,0,0,0,0,0,0,0,0,0,0,0,.52-2.48-.4-5.12-2.08-6.98,1.39.51,2.64,1.36,3.65,2.44.04.07.14.03.13-.04-.13-1.35-.5-2.69-1.19-3.86-.74-1.23-1.88-2.34-3.26-2.8Z"/>
                <g class="cls-4">
                  <path class="cls-20" d="M30.23,2.43c.21.16.44.31.68.44.26-.07.52-.12.78-.17-.6-.32-2.21-1.22-3.03-2.31,0,0,0,0,0,0,.37.79.86,1.53,1.57,2.04Z"/>
                  <path class="cls-20" d="M27.95,7.24c1.82.19,3.66.01,5.46-.32.85-.16,1.69-.35,2.53-.57.27-.3.55-.58.85-.85,0,0,0,0,0,0,0,0-3.62,2.11-9.93.86,0,0,1.89-.16,2.87-1.11,0,0-1.3.48-2.31.58,0,0,.39-.98,1.81-1.89-1.42.68-2.72,1.62-3.87,2.77.85.27,1.71.45,2.58.53Z"/>
                  <path class="cls-20" d="M33.47,15.39c2.56-1.36,5.07-2.88,7.02-5.05l.49-.55.45-.58.22-.29.2-.31s-4.68,4.13-7.61,5.32c0,0,1.92-2.4,3.38-3.43,0,0-3.11,1.24-4.02,3.78,0,0-.13-1.16-.03-2.45-.25,1.15-.31,2.34-.1,3.56Z"/>
                </g>
                <g class="cls-14">
                  <path class="cls-31" d="M37.24,7.83s-2.26,1.5-3.08,3.69c0,0,.63-2.88,1.8-4.65-1.84,2.46-3.03,5.43-2.49,8.52,0,0,0,0,0,0,.28-1.72,1.15-5.07,3.77-7.56Z"/>
                  <path class="cls-31" d="M30.83,3.38c-1.73,1.05-2.18,2.06-2.18,2.06,2.18-2.06,6.1-2.71,6.1-2.71-3.61-.08-6.86,1.45-9.39,3.97.12.04.25.08.37.11,1.34-1.45,5.1-3.43,5.1-3.43Z"/>
                  <path class="cls-31" d="M33.6,1.48c1.93-.75,6.03,2.19,6.03,2.19-1.71-.42-5.92-2.81-1.79-.19,2.38,1.51,4.64,1.43,6.13,1.09-.08-.02-.16-.04-.25-.06-.77-.17-1.61-.2-2.38-.42-.13-.04-.39-.13-.51-.17-.1-.04-.39-.18-.49-.23-.61-.31-1.18-.8-1.7-1.23-.7-.55-1.47-1.02-2.3-1.31-.84-.28-1.73-.36-2.62-.3-1.37.09-2.79.46-4.14.01-.32-.1-.63-.25-.89-.46,1.17,1.33,3.37,1.66,4.92,1.07Z"/>
                </g>
                <path class="cls-17" d="M31.92,26.01c-.26-.08-.52-.12-.78-.15-.53-.05-1.07-.04-1.6-.02-.65.02-1.3.02-1.95.06-.35.02-.69.04-1.04.07-.34.03-.69.04-1.02.09-.47.08-.92.24-1.37.37.15.07.3.17.42.3.06.07-.04.17-.1.1-.16-.16-.35-.27-.56-.34-.04.01-.08.02-.12.03-.06.01-.09-.04-.09-.08-.42-.08-.86-.02-1.27.08-.32.07-.63.17-.94.29.42,0,.83-.04,1.25,0,.4.05.78.18,1.11.41.31.21.57.47.86.71.31.26.64.49,1.02.63.41.15.86.2,1.29.22.06,0,.1.08.05.12-.14.14-.3.26-.47.36.06,0,.11.01.17.01.51.02,1.03-.07,1.53-.2.63-.16,1.24-.39,1.84-.66.49-.22.96-.47,1.42-.74.3-.18.61-.37.86-.62.2-.2.38-.49.13-.73-.16-.16-.4-.24-.61-.3Z"/>
                <path class="cls-17" d="M51.45,26.64c-.48.04-.95.22-1.43.22-.34.22-.69.43-1.07.58-.81.32-1.69.29-2.54.22-.85-.07-1.7-.19-2.55-.12.15.2.34.35.55.49.22.15.45.27.69.39.23.12.46.25.69.35.53.24,1.11.35,1.63.59-.07-.2-.23-.35-.41-.45-.06-.04-.03-.13.04-.13.33,0,.66-.01.99-.04.27-.02.56-.03.82-.12.32-.11.57-.37.82-.61-.13.04-.27.09-.4.13-.06.02-.11-.06-.08-.11.19-.31.45-.55.76-.74.58-.35,1.27-.49,1.94-.52.33-.01.66,0,.99.06-.46-.14-.96-.23-1.43-.19Z"/>
                <path class="cls-9" d="M49.76,18.57c-.61-.42-1.3-.69-2.02-.85-.75-.16-1.52-.2-2.28-.12-.74.08-1.48.27-2.15.6-.63.31-1.21.76-1.62,1.34-.46.66-.68,1.45-.78,2.23-.12.91-.1,1.83.03,2.74.11.78.29,1.57.61,2.29.06.01.14.06.18.08.13.06.27.12.4.18.36.16.76.24,1.14.35.43.11.85.23,1.26.4.39.16.78.35,1.19.47.41.12.81.09,1.22,0,.2-.05.4-.11.59-.17.19-.06.39-.12.57-.21.67-.3,1.16-.9,1.86-1.14.28-.1.58-.09.86-.11.15,0,.3-.02.45-.04.11-.02.23-.04.31-.11.03-.18.07-.37.1-.55.15-.92.22-1.86.18-2.79-.05-.94-.21-1.89-.61-2.75-.34-.73-.83-1.37-1.5-1.83Z"/>
                <path class="cls-9" d="M33.22,21.9c-.07-.37-.13-.73-.21-1.1-.14-.65-.35-1.32-.77-1.84-.52-.64-1.29-.97-2.07-1.18-.93-.25-1.92-.3-2.88-.15-.87.14-1.73.43-2.43.98-1.32,1.04-1.88,2.74-2.09,4.36-.1.75-.13,1.51-.13,2.27v1.21c.61-.2,1.25,0,1.81.29.55.28,1.05.65,1.61.93.33.17.68.27,1.04.36.37.09.75.17,1.13.18.83.03,1.6-.32,2.38-.56.76-.24,1.55-.39,2.29-.7.03-.01.05,0,.06,0,.05-.17.1-.33.14-.5.25-.99.36-2.01.32-3.04-.02-.51-.1-1.01-.19-1.52Z"/>
                <path class="cls-9" d="M44.12,33.91c-.15-.24-.41-.39-.67-.49-.7-.27-1.47-.12-2.2-.08-.73.04-1.47-.1-2.16-.34-.34-.12-.66-.27-.96-.46-.15-.1-.28-.2-.4-.32-.08-.09-.16-.18-.24-.27-.17.23-.35.45-.56.64-.45.42-1,.72-1.58.93-.64.22-1.31.3-1.98.35-.2.02-.41.02-.61.02-.14,0-.3,0-.44-.05-.22-.06-.42-.17-.63-.25-.06-.02-.16-.06-.21-.04-.06.02-.09.08-.11.14-.05.18.02.4.08.57.07.21.17.42.28.61.09.16.18.3.33.42.55.45,1.26.3,1.9.25.23-.02.45.04.61.21.15.16.22.38.28.58.06.23.11.46.19.69.11.3.25.58.44.83.37.49.89.87,1.47,1.08.52.18,1.1.23,1.65.23.54,0,1.1-.07,1.59-.3.45-.21.91-.59,1.07-1.08.14-.43.09-.91.15-1.35.06-.43.21-.87.64-1.04.16-.06.34-.08.52-.12.21-.04.42-.08.62-.14.35-.1.84-.24,1-.61.08-.19.04-.41-.07-.58ZM39.18,37.99c-.01.05-.05.09-.09.12-.02.02-.04.03-.07.03-.03,0-.06.01-.08,0-.04-.01-.06-.04-.08-.08-.01-.03,0-.07,0-.09.03-.04.08-.07.13-.08,0,0,.02,0,.03,0,0,0,0,0,0,0,.02,0,.05,0,.08,0,.01,0,.02,0,.03,0,0,0,0,0,0,0,0,0,0,0,.01.01.01.01.02.03.02.05,0,0,0,.02,0,.03ZM40.24,37.83s-.1.05-.14.07c-.05.02-.09.04-.14.05-.12.02-.32,0-.33-.16,0-.08.05-.15.11-.2.06-.05.12-.08.2-.11.14-.05.3-.08.44-.05.04,0,.06.05.05.09,0,0,0,0,0,0,0,.01.01.03.02.04.03.12-.1.21-.19.26Z"/>
                <path class="cls-13" d="M37.53,26.43s-5.22.46-7.13,1.54c0,0-.48,6.46,3.15,6.84,3.63.39,4.07-2.44,4.07-2.44,0,0,.68,2.69,3.72,2.74,3.05.05,3.41-4.84,2.77-7.38,0,0-3.34-1.22-6.58-1.31Z"/>
                <path class="cls-10" d="M31.07,27.77c.57-.16,1.16-.24,1.75-.32,1.1-.14,2.2-.18,3.3-.17,1.07.01,2.14.06,3.2.17,1.06.12,2.12.3,3.15.57.52.13,1.04.27,1.55.43.08.03.16.05.24.08-.04-.28-.09-.55-.15-.79,0,0-3.34-1.22-6.58-1.31,0,0-5.2.46-7.12,1.54.22-.06.44-.13.66-.19Z"/>
                <path class="cls-5" d="M38.24,32.83c.44-.07.84-.22,1.22-.44.39-.21.76-.47,1.07-.79.24-.25.51-.6.4-.97-.14-.47-.71-.62-1.13-.72-.52-.12-1.03-.24-1.55-.35-.01.02-.04.03-.07.02-.13-.04-.26-.07-.39-.08-.58-.06-1.18.05-1.75.18-.3.07-.6.13-.89.23-.29.1-.58.25-.77.5-.33.45,0,.96.33,1.29.43.42,1,.7,1.56.9.39.14.8.23,1.21.26.11-.29.14-.49.14-.49,0,0,.05.2.19.49.15,0,.29-.01.44-.04Z"/>
                <g>
                  <g>
                    <path class="cls-28" d="M41.1,37.57c-.28.18-.57.38-.87.53-1.31.7-2.85.66-4.16-.03-.03-.02-.05.02-.03.04.36.29.79.49,1.24.61,1.14.33,2.39.03,3.33-.66.18-.14.35-.3.53-.45.02-.02,0-.06-.03-.04Z"/>
                    <path class="cls-28" d="M44.33,33.84c-.06-.07-.13-.16-.19-.23-.38-.4-.87-.67-1.4-.83.36.22.71.45,1.03.72-.29.57-.81,1-1.4,1.18-1.08.31-2.32.14-3.25-.5-.65-.45-1.1-1.13-1.42-1.84.51-.06.99-.4,1.33-.85.27-.05.54-.12.8-.23.85-.34,1.38-1.18,1.12-2.09-.43-1.37-2.2-1.19-3.34-1.18-.63.02-1.26.06-1.87.2-1.02.25-1.87.65-1.64,1.85.18.91,1.14,1.31,1.96,1.45,0,0,0,0,0,0,.18.22.39.42.63.58.26.19.54.28.81.28-.26.54-.64,1.04-1.08,1.44-.65.6-1.5.97-2.38,1.01-.14.02-.34,0-.48,0-.23-.02-.48-.05-.7-.13-.59-.17-1.1-.6-1.39-1.17.27-.3.57-.55.94-.73-.49.1-.92.44-1.23.82-.34.35-.76.59-1.2.8.49-.09.97-.33,1.32-.7.04-.05.08-.1.12-.14.25.75.96,1.3,1.73,1.47.55.11,1.13.09,1.67-.03.13.36.29.73.49,1.07,0,.01,0,.02.01.03,0,0,0,0,.01,0,.36.62.84,1.16,1.49,1.47,1.12.46,2.56.11,3.46-.67.33-.29.6-.64.81-1.03.02,0,.03-.02.04-.03.01-.02.01-.03,0-.05.12-.23.21-.46.29-.7,1.06,0,2.08-.5,2.41-1.57.07.06.13.12.19.18.06.07.14.16.2.23.32.32.82.44,1.26.36-.43-.03-.85-.16-1.14-.47ZM36.16,31.42s0-.02-.01-.02c-.19-.26-.41-.49-.66-.68-.25-.19-.54-.34-.85-.39-.02,0-.03.03,0,.03.55.13.99.53,1.31.98-.74-.15-1.57-.52-1.73-1.33-.06-.33-.05-.71.15-.99.34-.42.89-.58,1.4-.71.6-.13,1.23-.18,1.85-.2,1.08,0,2.81-.2,3.22,1.08.3,1.24-.64,1.91-1.7,2.16.06-.08.12-.17.19-.25.3-.34.68-.64,1.13-.74,0,0,.02-.01.01-.02-.61.04-1.17.58-1.53,1.06,0,0,0,.01,0,.02-1.06.93-1.73.91-2.76,0ZM40.16,36.8c-.67.57-1.56.83-2.44.81-1,0-1.73-.68-2.26-1.5.35-.25,2.7-1.78,5.5-.24-.22.35-.48.67-.8.93ZM41.03,35.74c-2.85-1.57-5.26-.03-5.65.24-.2-.32-.36-.66-.5-.98,1.3-.34,2.26-1.41,2.74-2.63.64,1.33,1.79,2.5,3.3,2.71.14.02.28.03.42.03-.09.22-.19.43-.31.63Z"/>
                    <path class="cls-12" d="M40.96,35.87c-.22.35-.48.67-.8.93-.67.57-1.56.83-2.44.81-1,0-1.73-.68-2.26-1.5.35-.25,2.7-1.78,5.5-.24Z"/>
                    <path class="cls-2" d="M37.19,36.75c.18-.31.49-.52.81-.67.36-.17.75-.27,1.14-.32.41-.05.82-.05,1.22.05.18.04.35.11.51.2.03-.05.06-.09.09-.14-2.8-1.54-5.15,0-5.5.24.41.63.94,1.18,1.63,1.4-.06-.25-.04-.51.09-.76Z"/>
                    <path class="cls-12" d="M41.34,35.11c-.09.22-.19.43-.31.63-2.85-1.57-5.26-.03-5.65.24-.2-.32-.36-.66-.5-.98,1.3-.34,2.26-1.41,2.74-2.63.64,1.33,1.79,2.5,3.3,2.71.14.02.28.03.42.03Z"/>
                    <path class="cls-6" d="M41.34,35.11c-.09.22-.19.43-.31.63-2.85-1.57-5.26-.03-5.65.24-.2-.32-.36-.66-.5-.98,1.3-.34,2.26-1.41,2.74-2.63.64,1.33,1.79,2.5,3.3,2.71.14.02.28.03.42.03Z"/>
                    <path class="cls-6" d="M41.34,35.11c-.09.22-.19.43-.31.63-2.85-1.57-5.26-.03-5.65.24-.2-.32-.36-.66-.5-.98,1.3-.34,2.26-1.41,2.74-2.63.64,1.33,1.79,2.5,3.3,2.71.14.02.28.03.42.03Z"/>
                    <path class="cls-26" d="M39.13,31.35c.06-.08.12-.17.19-.25.3-.34.68-.64,1.13-.74,0,0,.02-.01.01-.02-.61.04-1.17.58-1.53,1.06,0,0,0,.01,0,.02-1.06.93-1.73.91-2.76,0,0,0,0-.02-.01-.02-.19-.26-.41-.49-.66-.68-.25-.19-.54-.34-.85-.39-.02,0-.03.03,0,.03.55.13.99.53,1.31.98-.74-.15-1.57-.52-1.73-1.33-.06-.33-.05-.71.15-.99.34-.42.89-.58,1.4-.71.6-.13,1.23-.18,1.85-.2,1.08,0,2.81-.2,3.22,1.08.3,1.24-.64,1.91-1.7,2.16Z"/>
                    <path class="cls-15" d="M39.94,28.61c-.09-.04-.2-.06-.3-.08-.19-.04-.39-.06-.59-.07-.18-.01-.37-.01-.55,0-.13.01-.29.04-.4.12-.08.06-.1.14-.06.23.07.12.22.18.35.23.35.12.75.15,1.12.13.14,0,.29-.02.42-.08.09-.04.19-.11.19-.22,0-.11-.09-.2-.17-.27Z"/>
                    <path class="cls-8" d="M40.86,29.36s0,.05-.02.08c-.12.4-.49.62-.87.71-.2.05-.4.07-.6.11-.2.04-.38.11-.57.18-.37.15-.72.34-1.12.4-.39.06-.75-.02-1.09-.21-.16-.09-.31-.19-.47-.29-.15-.09-.31-.17-.47-.25-.26-.13-.55-.26-.74-.48-.2-.23-.22-.51-.08-.78.05-.1.12-.2.2-.28-.25.11-.48.26-.66.47-.2.28-.21.66-.15.99.16.81.98,1.18,1.73,1.33-.32-.45-.76-.85-1.31-.98-.02,0-.02-.04,0-.03.31.05.6.2.85.39.25.19.47.42.66.68,0,0,0,.01.01.02,1.04.9,1.7.93,2.76,0,0,0,0-.01,0-.02.36-.48.92-1.02,1.53-1.06,0,.01,0,.02-.01.02-.45.11-.83.4-1.13.74-.07.08-.13.16-.19.25,1.02-.24,1.92-.86,1.73-1.99Z"/>
                  </g>
                  <g>
                    <path class="cls-13" d="M32.95,24.46c-.05.89-.17,1.78-.38,2.64-1.36.35-2.68.82-3.94,1.39-.87-.01-1.75-.2-2.52-.6-.49-.25-.83-.67-1.32-.96-.37-.21-.77-.33-1.19-.38.07-.9.16-1.79.33-2.65.49-2.79,1.72-4.95,4.78-5.19,3.53-.29,4.38,2.84,4.25,5.76Z"/>
                    <path class="cls-19" d="M28.7,18.71c-2.2.17-3.45,1.34-4.16,3.01.2-.2.4-.38.63-.55.86-.64,2.03-1.04,3.08-.68.92.31,1.53,1.13,1.88,2,.19.48.31.98.36,1.49.08.72.09,1.45.07,2.17-.02.52-.06,1.04-.1,1.56,0,0,0,.02,0,.03.69-.25,1.4-.47,2.11-.65.21-.86.33-1.75.38-2.64.13-2.92-.72-6.04-4.25-5.76Z"/>
                    <path class="cls-13" d="M51.01,26.53c-.46.04-.92.16-1.33.4-.49.28-.83.7-1.32.96-.75.39-1.6.58-2.44.6-1.23-.71-2.54-1.23-3.9-1.56-.21-.84-.32-1.71-.37-2.58-.14-2.81.74-5.9,4.14-5.65,4.31.23,4.94,4.32,5.22,7.83Z"/>
                    <path class="cls-19" d="M43.41,26.22c.01-.7.1-1.41.26-2.09.14-.62.33-1.25.64-1.81.29-.52.73-.96,1.24-1.28,1.02-.63,2.36-.75,3.41-.11.55.34.99.87,1.33,1.41,0,.01.01.02.02.04-.65-1.98-1.91-3.54-4.52-3.68-3.4-.25-4.28,2.83-4.14,5.65.04.87.16,1.74.37,2.58.49.12.97.27,1.44.43-.05-.38-.06-.76-.05-1.13Z"/>
                    <g class="cls-30">
                      <g>
                        <ellipse class="cls-25" cx="29.59" cy="24.14" rx="3.81" ry="4.82"/>
                        <g class="cls-16">
                          <path class="cls-25" d="M26.21,23.71c0-1.41.48-2.67,1.24-3.55-1.01.87-1.67,2.33-1.67,3.98,0,2.66,1.71,4.82,3.81,4.82.99,0,1.9-.48,2.58-1.26-.61.53-1.35.83-2.14.83-2.11,0-3.81-2.16-3.81-4.82Z"/>
                        </g>
                        <g class="cls-7">
                          <path class="cls-25" d="M33.4,24.14c0-2.66-1.71-4.82-3.81-4.82-1.2,0-2.26.7-2.96,1.79.63-.58,1.41-.92,2.24-.92,2.11,0,3.81,2.16,3.81,4.82,0,1.15-.32,2.2-.85,3.03.95-.88,1.57-2.29,1.57-3.89Z"/>
                        </g>
                        <path d="M32.27,24.14c0,1.87-1.2,3.39-2.68,3.39s-2.68-1.52-2.68-3.39,1.2-3.39,2.68-3.39,2.68,1.52,2.68,3.39Z"/>
                        <g>
                          <path class="cls-13" d="M31.26,22.32c0,.71-.57,1.28-1.28,1.28s-1.28-.57-1.28-1.28.57-1.28,1.28-1.28,1.28.57,1.28,1.28Z"/>
                          <path class="cls-13" d="M28.97,27.21c0,.35-.28.63-.63.63s-.63-.28-.63-.63.28-.63.63-.63.63.28.63.63Z"/>
                        </g>
                      </g>
                    </g>
                    <g class="cls-22">
                      <g>
                        <ellipse class="cls-25" cx="45.02" cy="24.14" rx="3.81" ry="4.82"/>
                        <g class="cls-16">
                          <path class="cls-25" d="M47.17,20.16c.76.88,1.24,2.15,1.24,3.55,0,2.66-1.71,4.82-3.81,4.82-.79,0-1.53-.31-2.14-.83.68.78,1.58,1.26,2.58,1.26,2.11,0,3.81-2.16,3.81-4.82,0-1.66-.66-3.12-1.67-3.98Z"/>
                        </g>
                        <g class="cls-7">
                          <path class="cls-25" d="M45.74,20.05c.73,0,1.41.26,1.99.71-.69-.88-1.65-1.43-2.71-1.43-2.11,0-3.81,2.16-3.81,4.82,0,1.74.73,3.26,1.83,4.11-.68-.87-1.11-2.07-1.11-3.39,0-2.66,1.71-4.82,3.81-4.82Z"/>
                        </g>
                        <path d="M42.34,24.14c0,1.87,1.2,3.39,2.68,3.39s2.68-1.52,2.68-3.39-1.2-3.39-2.68-3.39-2.68,1.52-2.68,3.39Z"/>
                        <g>
                          <path class="cls-13" d="M43.35,22.32c0,.71.57,1.28,1.28,1.28s1.28-.57,1.28-1.28-.57-1.28-1.28-1.28-1.28.57-1.28,1.28Z"/>
                          <path class="cls-13" d="M45.64,27.21c0,.35.28.63.63.63s.63-.28.63-.63-.28-.63-.63-.63-.63.28-.63.63Z"/>
                        </g>
                      </g>
                    </g>
                    <path d="M53.92,27.26c-.56-.5-1.34-.63-2.06-.72-.22-.02-.44-.03-.67-.02.11-.42.16-.85.2-1.28.03-.47.03-.95-.01-1.42-.26-3.14-2.2-5.72-5.57-5.62-4.21.03-4.53,4.28-4.1,7.54.05.39.11.77.18,1.15-2.97-.71-6.15-.58-9.16.17.16-.86.27-1.72.31-2.59.18-3.21-.69-6.4-4.52-6.26-4.35.06-5.94,4.64-5.08,8.32-.27-.02-.54-.01-.81.01-.72.09-1.5.22-2.06.72-.02.02,0,.04.02.03.28-.22.63-.35.98-.43,1.03-.22,2.18-.29,3.12.26.46.26.83.72,1.33.96.77.39,1.65.55,2.5.46-.35.16-.69.33-1.02.51-.02.01,0,.04.02.03.76-.35,1.54-.66,2.34-.93,4.33-1.47,9.13-1.99,13.54-.59.38.13.8.27,1.18.43.79.29,1.52.69,2.26,1.1.02.01.04-.02.02-.03-.26-.18-.52-.34-.79-.5,1.01.08,2.09-.16,2.91-.77.29-.23.55-.48.85-.66.93-.55,2.09-.49,3.12-.26.35.08.69.21.98.43.02.01.04-.01.02-.03ZM28.63,28.49c-.87-.01-1.75-.2-2.52-.6-.49-.25-.83-.67-1.32-.96-.37-.21-.77-.33-1.19-.38.07-.9.16-1.79.33-2.65.49-2.79,1.72-4.95,4.78-5.19,3.53-.29,4.38,2.84,4.25,5.76-.05.89-.17,1.78-.38,2.64-1.36.35-2.68.82-3.94,1.39ZM49.69,26.93c-.49.28-.83.7-1.32.96-.75.39-1.6.58-2.44.6-1.23-.71-2.54-1.23-3.9-1.56-.21-.84-.32-1.71-.37-2.58-.14-2.81.74-5.9,4.14-5.65,4.31.23,4.94,4.32,5.22,7.83-.46.04-.92.16-1.33.4Z"/>
                  </g>
                  <path class="cls-28" d="M25.98,16.49c.04-.45.24-.88.54-1.24,1.03-1.25,2.82-.85,3.67.38,0,.01,0,.03-.02.02-1.91-.8-2.75-.7-4.16.85,0,.01-.03,0-.03-.01h0Z"/>
                  <path class="cls-28" d="M49.78,16.49c-.04-.45-.24-.88-.54-1.24-1.03-1.25-2.82-.85-3.67.38,0,.01,0,.03.02.02,1.91-.8,2.75-.7,4.16.85,0,.01.03,0,.03-.01h0Z"/>
                </g>
                <path class="cls-28" d="M57.22,24.51s0-.03,0-.04c-.1-.7-.2-1.4-.32-2.1-.14-.61-.29-1.47-.47-2.07,0,0-.15-.55-.23-.85.71-.03,1.42-.15,2.09-.39,3.79-1.32,5.69-5.65,5.41-9.46-.19-2.74-1.52-5.42-3.84-6.95-1.59-1.13-3.57-1.82-5.54-1.57-3.07.42-5.58,2.64-7.26,5.14-.13-.15-.28-.32-.28-.32-.2-.2-.42-.41-.63-.6-.32-.25-.66-.51-1.02-.7-.05-.03-.1-.06-.15-.09l-.16-.07c-.32-.15-.67-.28-1.01-.36-.88-.21-1.8-.24-2.65-.56-.85-.29-1.53-.89-2.23-1.44-1.01-.79-2.21-1.43-3.5-1.6-.58-.08-1.19-.08-1.76-.02-1.73.15-3.75.85-5.19-.42-.02-.03-.05-.04-.08-.03-.04.01-.05.05-.04.09.23,1.12.99,2.48,2.13,2.89-1.35.4-2.63,1.06-3.71,1.96-1.05-1.17-2.32-2.16-3.71-2.89-3.11-1.67-6.65-1.43-9.45.73-.49.35-.98.83-1.4,1.26l-.4.48c-1.43,1.81-2.14,4.13-2.15,6.41-.03,1.86.39,3.74,1.2,5.42,1,2.07,2.63,3.8,4.78,4.66.89.34,1.86.52,2.81.54-.07.3-.13.6-.19.9-.11.61-.21,1.23-.3,1.84-.02.06-.05.13-.09.18,0,0,0,0,0,0-1.16.42-2.15,1.3-2.85,2.32-.88,1.28-1.33,2.82-1.48,4.36-.02.08.09.12.13.05.98-1.06,2.22-1.9,3.58-2.39-.34.36-.63.75-.9,1.16-1.08,1.69-1.57,3.8-1.11,5.77h0s.04.06.07.06c.02,0,.04-.01.06-.03,0,0,0,0,0,0,.75-.77,1.58-1.46,2.49-2.03.12.3.28.59.46.85.18.28.51.66.73.9l.42.4c.11.12.31.28.44.38.27.22.64.51.93.68.79.53,1.67.98,2.55,1.34,1.23.53,2.53.89,3.82,1.21.64.12,1.61.34,2.25.42.64.07,1.63.22,2.26.26.72.04,1.44.09,2.16.12.3.36.67.66,1.07.89.79.46,1.72.66,2.62.73,1.7.18,3.55-.37,4.55-1.7,1.48-.11,2.95-.28,4.41-.54.47-.1,1.37-.29,1.85-.4,2.08-.55,4.19-1.27,5.99-2.48.28-.17.62-.44.88-.65l.21-.17.2-.19c.64-.62,1.26-1.34,1.54-2.2.21.13.42.27.63.42.72.5,1.34,1.12,1.96,1.72.02.03.03.05.04.05.01.01.02.02.04.03,0,0,0,0,0,0,.04,0,.08-.02.08-.06h0c.52-2.48-.4-5.12-2.08-6.98,1.39.51,2.64,1.36,3.65,2.44.04.06.14.03.13-.04-.13-1.35-.5-2.68-1.19-3.86-.74-1.23-1.88-2.34-3.25-2.8ZM57.08,24.46c-.16-.05-.32-.09-.49-.12.15-.05.29-.09.43-.12.02.08.04.16.06.24ZM56.32,21.43c.25.85.46,1.78.67,2.66-.18.04-.37.09-.56.17-.02,0-.03,0-.03,0-.03,0-.07.02-.08.05-.4.18-.77.42-1.13.66-.13.09-.27.18-.4.26-.12.07-.28.15-.38.07-.05-.04-.07-.12-.09-.19-.16-.65-.12-1.38.09-2.1.19-.64.49-1.14.89-1.49.26-.23.59-.39.91-.45.03.12.07.24.1.36ZM56.18,19.32s-.01-.05-.01-.05c-.18-.6-.39-1.21-.6-1.8.45-.01.9-.09,1.33-.22h0s0,1.98,0,1.98c-.24.04-.48.07-.72.09ZM58.52,13.56c-.69.93-1.57,1.85-2.7,2.2-.18.05-.37.08-.56.1-.12,0-.24,0-.37.02-.81-1.79-1.8-3.53-3.09-5.01.13-.11.19-.24.29-.36.91-1.19,2.64-.98,3.88-.49.04.02.07-.04.03-.06-.75-.41-1.6-.65-2.46-.57-.65.06-1.3.39-1.7.92-.08.11-.18.22-.22.35,0,0-.01-.01-.02-.02-.38-2.03,1.08-4,2.87-4.85,2.97-1.44,4.98.08,5.49,3.15.26,1.55.32,3.19-.12,4.71-.54,1.99-2.27,3.49-4.32,3.72-.01-.04-.03-.08-.04-.12-.14-.34-.28-.69-.43-1.03.29.04.6-.05.87-.12,1.21-.4,2.1-1.4,2.7-2.48.04-.07-.07-.13-.11-.06ZM58.23,18.85c-.39.15-.79.26-1.2.34v-1.94s0-.06,0-.06c.48-.17.93-.4,1.34-.7.15-.11.28-.22.41-.34.02.03.04.07.05.11.29.63.48,1.3.56,2.01-.36.23-.75.43-1.17.59ZM59.53,18.19c-.09-.7-.28-1.36-.57-1.98-.03-.05-.05-.1-.08-.14.58-.56,1-1.26,1.28-2.01.17.01.33.02.5.02.73,0,1.46-.14,2.13-.42-.58,1.84-1.68,3.49-3.27,4.54ZM62.85,13.48s-.03.01-.04.02c-.82.35-1.71.49-2.59.42.1-.29.18-.58.25-.88.84-.44,1.66-1.1,2.58-2.06.05-.05.11-.12.17-.19.03-.03.06-.07.09-.11-.02.94-.17,1.89-.44,2.8ZM63.26,9.63c.02.28.03.56.03.83-.07.08-.14.15-.2.22-.06.07-.11.13-.16.18-.87.91-1.65,1.55-2.44,1.98.15-.78.19-1.59.14-2.36-.01-.35-.04-.7-.09-1.06.08,0,.17.01.26.01.68,0,1.35-.22,1.87-.63.15-.12.29-.25.41-.4.08.4.14.81.17,1.22ZM63.05,8.25c-.14.17-.29.33-.46.46-.57.45-1.33.66-2.07.59-.05-.37-.13-.75-.23-1.11.53-.36.93-.9,1.11-1.51.07-.23.11-.47.15-.71.04-.28.09-.55.18-.79.63.93,1.07,1.97,1.32,3.07ZM59.46,2.94c.34.24.68.5,1.01.79.44.39.83.84,1.17,1.31-.12.29-.17.6-.22.91-.04.23-.08.47-.14.69-.17.57-.53,1.07-1.02,1.41-.3-1.02-.79-1.94-1.53-2.53.34-.54.58-1.2.68-1.85.04-.25.05-.49.04-.73ZM59.32,2.84c.02.26.01.53-.03.81-.1.63-.34,1.27-.66,1.79-.47-.35-1.05-.57-1.73-.61.03-.8-.15-1.62-.53-2.33-.09-.17-.2-.34-.3-.51-.1-.16-.2-.32-.29-.48,1.21.12,2.41.57,3.54,1.33ZM55.61,1.5c.1.19.22.39.33.57.1.16.2.33.29.5.37.68.55,1.48.52,2.26-.27,0-.57.02-.87.07-.29.05-.58.14-.86.24,0-.03,0-.06,0-.1.03-.65-.2-1.28-.42-1.76-.28-.63-.59-1.18-.95-1.66.65-.14,1.31-.18,1.95-.13ZM50.29,3.2c1.06-.78,2.14-1.3,3.23-1.55.37.48.68,1.04.97,1.68.21.46.44,1.08.41,1.7,0,.05,0,.11-.02.16-.6.24-1.17.59-1.66,1.02,0-.01-.02-.02-.03-.04l-.13-.21c-.38-.6-.78-1.22-1.29-1.73-.48-.48-1.04-.81-1.6-.94.04-.03.08-.06.13-.09ZM24.59,3.38c-.71.06-1.44.44-2.07,1.06-.51.5-.9,1.1-1.28,1.69-.38-.27-.77-.49-1.16-.67-.29-.13-.58-.24-.86-.32,0-.61.23-1.2.43-1.65.31-.7.65-1.29,1.05-1.81,1.39.29,2.7.9,3.9,1.69ZM18.55,10.85c1.25-.75,3.19-1.32,4.24.02.11.13.2.28.33.41-.11.14-.22.27-.31.4-1.34,1.79-2.37,3.79-3.15,5.88-.1-.03-.19-.02-.3-.01-1.62,0-2.81-1.37-3.65-2.6-.02-.04-.08,0-.06.03.37.83.92,1.58,1.62,2.17.53.44,1.22.77,1.93.8.12,0,.23,0,.34,0-.15.42-.29.84-.42,1.27-1.12-.07-2.21-.5-3.06-1.19-2.25-1.84-2.48-5.04-2.15-7.73.25-2.25,1.27-4.8,3.9-4.79,2.5.02,5.72,2.29,5.63,4.99-.01.18-.03.35-.07.53-.03.03-.05.06-.08.1-.01-.04-.03-.08-.05-.12-1.08-1.77-3.3-1.26-4.71-.19-.04.03,0,.08.04.06ZM20.53,1.66c-.38.52-.72,1.1-1.02,1.78-.2.46-.43,1.05-.44,1.67-.64-.17-1.25-.21-1.83-.14-.02-.79.17-1.59.55-2.29.09-.18.2-.35.31-.53.13-.21.25-.42.37-.63.7-.04,1.39,0,2.07.13ZM14.54,2.89c1.13-.74,2.41-1.22,3.75-1.35-.1.19-.21.37-.32.55-.11.17-.22.35-.31.53-.39.72-.58,1.56-.56,2.38-.65.11-1.26.38-1.77.8-.37-.56-.64-1.27-.75-1.98-.05-.32-.06-.64-.03-.94ZM14.39,2.99c-.02.28-.01.57.04.86.12.74.4,1.47.78,2.05-.56.5-1.02,1.18-1.32,2.06-.07.21-.14.41-.2.62-.58-.36-1.03-.94-1.23-1.59-.07-.23-.11-.48-.15-.73-.06-.34-.11-.69-.25-1.01.64-.88,1.43-1.65,2.33-2.26ZM11.11,6.92c.23-.54.52-1.05.86-1.53.11.28.15.58.21.89.04.25.08.5.15.75.21.7.7,1.32,1.33,1.69-.09.35-.16.7-.21,1.05-.83.13-1.72-.09-2.37-.6-.2-.16-.38-.34-.53-.55.14-.58.33-1.15.56-1.7ZM10.51,8.8c.14.18.3.34.48.48.55.43,1.27.67,1.98.67.15,0,.3-.01.45-.03-.01.1-.02.2-.03.3-.12,1.06-.13,2.14,0,3.2,0,.06.02.13.03.2-.88-.46-1.75-1.15-2.71-2.16-.05-.05-.11-.12-.17-.19-.09-.11-.19-.22-.3-.33.02-.72.11-1.43.26-2.13ZM10.54,13.9c-.21-.9-.31-1.84-.3-2.77.07.08.13.15.19.22.06.08.13.15.18.2,1,1.05,1.91,1.77,2.83,2.23.05.29.11.58.18.87-.94.08-1.9-.06-2.77-.44-.1-.04-.18-.08-.26-.12-.02-.07-.03-.13-.05-.2ZM10.64,14.28c.05.02.11.05.16.07.73.31,1.53.47,2.32.47.18,0,.36-.01.55-.03.24.87.63,1.71,1.19,2.41-.37.83-.57,1.74-.6,2.66-1.82-1.34-3.06-3.41-3.63-5.6ZM16.95,21.1s0,.03,0,.05c-.6-.15-1.17-.37-1.71-.65-.29-.15-.57-.33-.83-.52.01-.91.21-1.82.56-2.64.27.32.58.62.93.87.33.24.69.45,1.07.61v2.28ZM17.09,21.18s0-.05,0-.08v-2.22c.63.26,1.31.4,1.99.4-.21.7-.4,1.41-.57,2.12-.48-.03-.96-.1-1.43-.21ZM18.83,24.25c-.24.03-.47.08-.7.15.15-.63.28-1.26.44-1.89.07-.26.14-.53.21-.8.22.08.43.21.61.36.4.35.7.85.89,1.49.22.72.25,1.45.09,2.1-.02.07-.04.15-.09.19-.09.08-.26,0-.38-.07-.14-.08-.27-.17-.4-.26-.38-.25-.76-.5-1.19-.68-.1-.04-.21-.08-.32-.11.27-.13.56-.24.86-.33.09-.02.07-.15-.02-.14ZM17.44,28.94c.7-.27,1.44-.37,2.14-.28,1.32.17,2.52,1.05,3.03,2.21-1.66-.37-3.32-.33-4.79.12-.68.21-1.33.5-1.91.88-.02.01-.03.02-.05.04.36-1.07.9-2.08,1.58-2.97ZM19.33,35.24c-.48-.46-.99-.98-1.3-1.58.17-.11.34-.21.52-.3.29-.16.59-.3.9-.45.11-.04.21-.07.32-.11.03-.01.05-.04.05-.07,0,0,0-.01,0-.02-.01-.04-.05-.06-.09-.05-.03,0-.06.02-.08.02-.02,0-.04.01-.05.02-.07.02-.15.05-.22.07-.32.08-.64.18-.95.31-1.2.51-2.3,1.33-3.02,2.41-.02-.52-.03-1.03.02-1.54,1.12-.9,2.5-1.43,3.91-1.49,1.78-.08,3.55.56,4.85,1.77.33.3.48.56.49.81-1.6-.31-3.03-.29-4.28.06-.28.08-.56.19-.84.31-.09-.08-.18-.15-.24-.2ZM59.87,35.01c-.01.18-.02.35-.03.53-.78-1.13-1.96-1.96-3.25-2.45-.35-.16-.72-.3-1.08-.41,0,0-.01,0-.02,0-.03,0-.06.02-.07.05,0,0,0,.01,0,.02,0,.03.02.06.05.07.02,0,.04.01.06.02.01,0,.02,0,.03.01.28.09.56.19.83.31.24.12.47.24.7.38-.05.13-.19.33-.26.44-.28.42-.67.84-1.03,1.19-.02.02-.04.03-.06.05-.28-.13-.58-.24-.88-.33-1.24-.36-2.68-.38-4.28-.06,0-.25.17-.51.49-.81,1.31-1.2,3.08-1.85,4.85-1.77,1.4.06,2.77.58,3.88,1.46.04.43.06.87.05,1.3ZM59.32,31.6c-.58-.37-1.21-.66-1.88-.86-.81-.24-1.67-.37-2.55-.37-.73,0-1.49.08-2.24.25.51-1.16,1.71-2.04,3.03-2.21.29-.04.6-.04.9-.02.29.06.59.14.87.23.04.01.08.03.12.04.75.86,1.34,1.86,1.74,2.93ZM60.86,29.02c.22.57.38,1.16.55,1.75-.25-.34-.55-.64-.87-.91-1.29-1.1-3-1.71-4.69-1.63-.01,0-.01.02,0,.02,0,0,0,0,.01,0-.07,0-.13,0-.2.02-1.44.19-2.7,1.14-3.2,2.43-.01.03,0,.05.01.07.02.02.04.03.07.02,1.69-.4,3.37-.37,4.85.08.67.2,1.3.49,1.88.87.03.02.08.06.14.11,0,.02.01.03.02.05.18.52.3,1.06.36,1.6-1.12-.85-2.47-1.35-3.85-1.41-1.81-.08-3.62.58-4.96,1.81-.25.23-.58.59-.53,1.01,0,.02.01.04.03.05.02.01.04.02.06.01,1.61-.33,3.05-.31,4.29.04.27.08.54.18.8.29-.14.12-.28.24-.42.36-.13.09-.51.38-.63.47-.25.18-.63.4-.88.57-1.04.61-2.22,1.14-3.37,1.55-.58.23-1.43.45-2.03.64-.33.08-1.24.3-1.56.38-.59.14-1.5.28-2.1.41-.79.14-1.59.23-2.39.36.25-.38.43-.81.53-1.31.02-.09-.13-.12-.14-.03-.68,2.18-2.91,3-5.03,2.81-1.82-.07-3.8-.91-4.32-2.81-.02-.1-.15-.07-.14.02.08.51.3.98.6,1.39-.75-.12-1.51-.22-2.26-.33-.49-.09-1.45-.26-1.94-.35-.31-.04-.79-.17-1.1-.24-1.54-.33-3.1-.78-4.57-1.34-.34-.14-.82-.35-1.16-.49-.34-.17-.79-.39-1.12-.57-.27-.17-.69-.4-.95-.57-.15-.1-.54-.39-.68-.48-.07-.05-.17-.14-.28-.23.25-.11.5-.2.75-.27,1.24-.36,2.69-.37,4.29-.04.02,0,.04,0,.06-.01.02-.01.03-.03.03-.05.04-.43-.28-.78-.53-1.01-1.34-1.23-3.14-1.89-4.96-1.81-1.39.06-2.76.57-3.88,1.43.06-.55.17-1.09.33-1.61.09-.08.17-.15.21-.17.58-.37,1.21-.66,1.88-.86,1.49-.45,3.17-.48,4.85-.08.03,0,.05,0,.07-.02s.02-.05.01-.07c-.51-1.29-1.76-2.24-3.2-2.43-.65-.08-1.33-.01-1.99.21,0,0,0-.01.01-.02.05-.02.11-.03.16-.05.52-.17,1.06-.25,1.6-.35.04,0,.06-.03.06-.07,0-.04-.03-.07-.07-.07-.28,0-.56,0-.84.03-1.41.14-2.77.74-3.84,1.66-.32.27-.62.58-.87.91.06-.23.13-.46.18-.68.06-.18.22-.63.27-.8.12-.35.28-.69.43-1.04.67-1.4,1.71-2.7,3.09-3.44.16.04.31.08.46.15.41.17.79.43,1.16.67.13.09.27.18.41.26.14.08.25.13.36.13.07,0,.13-.02.19-.06.08-.06.12-.17.14-.27.16-.68.13-1.43-.09-2.18-.2-.67-.52-1.19-.94-1.55-.2-.17-.42-.3-.67-.39.48-1.72,1.05-3.44,1.77-5.07,1.15-2.55,2.55-5.05,4.52-7.06.03-.02.03-.07.01-.1-.02-.03-.07-.04-.1-.01-.5.39-.93.84-1.36,1.3-.05.05-.09.11-.14.17.47-1.75-.69-3.49-2.16-4.58.37-.59.77-1.19,1.26-1.68.66-.65,1.43-1.02,2.17-1.03.67.46,1.3.98,1.89,1.53-.57.48-1.07,1.03-1.5,1.65-.03.04-.02.1.03.11.84.41,1.76.7,2.69.85,2.61.4,5.35.05,7.77-.99-.15.17-.29.35-.43.53-1.8,2.29-3.01,5.48-1.89,8.33,0,.03.04.05.07.05.38-.08.74-.2,1.1-.34,1.53-.58,2.92-1.45,4.18-2.49.56-.46,1.15-1.02,1.63-1.56.15-.16.37-.4.49-.57l.46-.6c.14-.21.27-.42.41-.63l.2-.32.17-.33c.12-.22.23-.44.34-.67.02-.03,0-.07-.02-.09-.03-.02-.08-.01-.1.02l-.41.61-.2.31-.22.29-.45.58-.49.55c-1.95,2.17-4.46,3.7-7.02,5.05-.67-3.84,1.32-7.49,3.91-10.19.07-.06-.02-.16-.09-.11-.48.39-.92.81-1.33,1.26-.84.22-1.68.42-2.53.57-1.8.33-3.64.51-5.46.32-.87-.09-1.74-.26-2.58-.53,2.52-2.53,5.78-4.05,9.39-3.97.09,0,.09-.13,0-.14-.9-.1-1.81-.08-2.71.05-.38.06-.77.14-1.14.24-.23-.14-.46-.28-.68-.44-.71-.51-1.21-1.25-1.57-2.04.27.22.59.37.92.48,1.35.45,2.77.08,4.14-.01.89-.06,1.78.02,2.62.3.83.29,1.6.76,2.3,1.31.53.43,1.1.92,1.7,1.23.1.05.39.18.49.23.12.04.38.13.51.17.77.22,1.61.25,2.38.42,1.79.35,3.11,1.76,4.26,3.1.02.03.07.04.1.01.03-.02.04-.07.01-.1-.26-.33-.56-.78-.84-1.09,0,0-.06-.07-.09-.1.81-1.1,1.77-2.1,2.85-2.93.57.11,1.14.43,1.64.93.5.5.89,1.12,1.27,1.71l.13.21s.02.04.03.05c-1.2,1.08-1.95,2.62-1.62,4.21-.39-.42-.81-.81-1.27-1.18-.03-.02-.07-.02-.09,0-.03.03-.03.08,0,.11.8.8,1.47,1.73,2.11,2.66,1.76,2.71,3.04,5.72,3.94,8.82-.35.07-.68.24-.97.48-.42.36-.73.89-.93,1.55-.22.75-.26,1.5-.09,2.18.02.1.06.2.14.27.05.04.12.06.19.06.1,0,.22-.04.36-.13.14-.08.27-.17.41-.26.37-.24.75-.5,1.16-.67h.03s0-.01,0-.01c.03-.01.05-.02.08-.03,1.57.55,2.77,1.66,3.61,3.13.13.24.26.51.38.75.08.18.24.6.32.78Z"/>
                <path class="cls-11" d="M23.42,10.48c-.01.18-.03.35-.07.53-.03.03-.05.06-.08.1-.01-.04-.03-.08-.05-.12-1.08-1.77-3.3-1.26-4.71-.19-.04.03,0,.08.04.06,1.25-.75,3.19-1.32,4.24.02.11.13.2.28.33.41-.11.14-.22.27-.31.4-1.34,1.79-2.37,3.79-3.15,5.88-.1-.03-.19-.02-.3-.01-1.62,0-2.81-1.37-3.65-2.6-.02-.04-.08,0-.06.03.37.83.92,1.58,1.62,2.17.53.44,1.22.77,1.93.8.12,0,.23,0,.34,0-.15.42-.29.84-.42,1.27-1.12-.07-2.21-.5-3.06-1.19-2.25-1.84-2.48-5.04-2.15-7.73.25-2.25,1.27-4.8,3.9-4.79,2.5.02,5.72,2.29,5.63,4.99Z"/>
                <path class="cls-1" d="M17.47,11.93c-.2.28-.37.58-.5.9-.28.63-.44,1.33-.42,2.03.02.67.25,1.31.67,1.84.61.5,1.32.85,2.13.85.11,0,.2-.01.3.01.78-2.09,1.81-4.09,3.15-5.88.09-.13.2-.26.31-.4-.13-.13-.22-.27-.33-.41-1.05-1.34-2.99-.78-4.24-.02,0,0-.02,0-.03,0-.11.09-.22.18-.33.28-.26.24-.51.51-.72.8Z"/>
                <path class="cls-1" d="M21.25,7.01c.62.86.85,1.92.79,2.97.45.17.86.49,1.17,1,.02.04.04.08.05.12.03-.03.05-.07.08-.1.04-.17.06-.35.07-.53.06-1.69-1.19-3.22-2.74-4.12.21.21.4.43.57.66Z"/>
                <path class="cls-11" d="M59.84,13.65c-.54,1.99-2.27,3.49-4.32,3.72-.01-.04-.03-.08-.04-.12-.14-.34-.28-.69-.43-1.03.29.04.6-.05.87-.12,1.21-.4,2.1-1.4,2.7-2.48.04-.07-.07-.13-.11-.06-.69.93-1.57,1.85-2.7,2.2-.18.05-.37.08-.56.1-.12,0-.24,0-.37.02-.81-1.79-1.8-3.53-3.09-5.01.13-.11.19-.24.29-.36.91-1.19,2.64-.98,3.88-.49.04.02.07-.04.03-.06-.75-.41-1.6-.65-2.46-.57-.65.06-1.3.39-1.7.92-.08.11-.18.22-.22.35,0,0-.01-.01-.02-.02-.38-2.03,1.08-4,2.87-4.85,2.97-1.44,4.98.08,5.49,3.15.26,1.55.32,3.19-.12,4.71Z"/>
                <path class="cls-1" d="M51.62,10.66c.05-.13.14-.24.22-.35.22-.29.52-.52.85-.68.23-.8.55-1.59,1.09-2.24.43-.52.98-.88,1.58-1.16.56-.26,1.14-.47,1.74-.6.23-.05.47-.09.72-.12-.89-.4-2.02-.35-3.34.29-1.79.85-3.25,2.82-2.87,4.85,0,0,.01.01.02.02Z"/>
                <path class="cls-1" d="M56.79,14.83c.22-.32.35-.68.41-1.06.13-.8-.08-1.63-.45-2.34-.37-.7-.92-1.32-1.62-1.68-1.1-.26-2.33-.19-3.05.75-.1.12-.16.25-.29.36,1.29,1.47,2.29,3.21,3.09,5.01.13-.02.25-.02.37-.02.06,0,.12-.01.18-.02.11-.04.21-.08.32-.13.41-.2.78-.48,1.04-.86Z"/>
                <path class="cls-27" d="M59.4,18.27c-.36.23-.75.43-1.17.59-.39.15-.79.26-1.2.34v-1.94s0-.06,0-.06c.48-.17.93-.4,1.34-.7.15-.11.28-.22.41-.34.02.03.04.07.05.11.29.63.48,1.3.56,2.01Z"/>
                <path class="cls-27" d="M63.29,10.68c-.02.94-.17,1.89-.44,2.8-.01,0-.03.01-.04.02-.82.35-1.71.49-2.59.42.1-.29.18-.58.25-.88.84-.44,1.66-1.1,2.58-2.06.05-.05.11-.12.17-.19.03-.03.06-.07.09-.11Z"/>
                <path class="cls-27" d="M63.05,8.25c-.14.17-.29.33-.46.46-.57.45-1.33.66-2.07.59-.05-.37-.13-.75-.23-1.11.53-.36.93-.9,1.11-1.51.07-.23.11-.47.15-.71.04-.28.09-.55.18-.79.63.93,1.07,1.97,1.32,3.07Z"/>
                <path class="cls-27" d="M59.28,3.65c-.1.63-.34,1.27-.66,1.79-.47-.35-1.05-.57-1.73-.61.03-.8-.15-1.62-.53-2.33-.09-.17-.2-.34-.3-.51-.1-.16-.2-.32-.29-.48,1.21.12,2.41.57,3.54,1.33.02.26.01.53-.03.81Z"/>
                <path class="cls-27" d="M54.89,5.04c0,.05,0,.11-.02.16-.6.24-1.17.59-1.66,1.02,0-.01-.02-.02-.03-.04l-.13-.21c-.38-.6-.78-1.22-1.29-1.73-.48-.48-1.04-.81-1.6-.94.04-.03.08-.06.13-.09,1.06-.78,2.14-1.3,3.23-1.55.37.48.68,1.04.97,1.68.21.46.44,1.08.41,1.7Z"/>
                <path class="cls-27" d="M24.59,3.38c-.71.06-1.44.44-2.07,1.06-.51.5-.9,1.1-1.28,1.69-.38-.27-.77-.49-1.16-.67-.29-.13-.58-.24-.86-.32,0-.61.23-1.2.43-1.65.31-.7.65-1.29,1.05-1.81,1.39.29,2.7.9,3.9,1.69Z"/>
                <path class="cls-27" d="M18.29,1.54c-.1.19-.21.37-.32.55-.11.17-.22.35-.31.53-.39.72-.58,1.56-.56,2.38-.65.11-1.26.38-1.77.8-.37-.56-.64-1.27-.75-1.98-.05-.32-.06-.64-.03-.94,1.13-.74,2.41-1.22,3.75-1.35Z"/>
                <path class="cls-27" d="M13.66,8.72c-.09.35-.16.7-.21,1.05-.83.13-1.72-.09-2.37-.6-.2-.16-.38-.34-.53-.55.14-.58.33-1.15.56-1.7.23-.54.52-1.05.86-1.53.11.28.15.58.21.89.04.25.08.5.15.75.21.7.7,1.32,1.33,1.69Z"/>
                <path class="cls-27" d="M13.63,14.66c-.94.08-1.9-.06-2.77-.44-.1-.04-.18-.08-.26-.12-.02-.07-.03-.13-.05-.2-.21-.9-.31-1.84-.3-2.77.07.08.13.15.19.22.06.08.13.15.18.2,1,1.05,1.91,1.77,2.83,2.23.05.29.11.58.18.87Z"/>
                <path class="cls-27" d="M16.95,18.82v2.28s0,.03,0,.05c-.6-.15-1.17-.37-1.71-.65-.29-.15-.57-.33-.83-.52.01-.91.21-1.82.56-2.64.27.32.58.62.93.87.33.24.69.45,1.07.61Z"/>
                <path class="cls-27" d="M56.99,24.09c-.18.04-.37.09-.56.17-.02,0-.03,0-.03,0-.03,0-.07.02-.08.05-.4.18-.77.42-1.13.66-.13.09-.27.18-.4.26-.12.07-.28.15-.38.07-.05-.04-.07-.12-.09-.19-.16-.65-.12-1.38.09-2.1.19-.64.49-1.14.89-1.49.26-.23.59-.39.91-.45.03.12.07.24.1.36.25.85.46,1.78.67,2.66Z"/>
                <path class="cls-27" d="M59.32,31.6c-.58-.37-1.21-.66-1.88-.86-.81-.24-1.67-.37-2.55-.37-.73,0-1.49.08-2.24.25.51-1.16,1.71-2.04,3.03-2.21.29-.04.6-.04.9-.02.29.06.59.14.87.23.04.01.08.03.12.04.75.86,1.34,1.86,1.74,2.93Z"/>
                <path class="cls-27" d="M59.87,35.01c-.01.18-.02.35-.03.53-.78-1.13-1.96-1.96-3.25-2.45-.35-.16-.72-.3-1.08-.41,0,0-.01,0-.02,0-.03,0-.06.02-.07.05,0,0,0,.01,0,.02,0,.03.02.06.05.07.02,0,.04.01.06.02.01,0,.02,0,.03.01.28.09.56.19.83.31.24.12.47.24.7.38-.05.13-.19.33-.26.44-.28.42-.67.84-1.03,1.19-.02.02-.04.03-.06.05-.28-.13-.58-.24-.88-.33-1.24-.36-2.68-.38-4.28-.06,0-.25.17-.51.49-.81,1.31-1.2,3.08-1.85,4.85-1.77,1.4.06,2.77.58,3.88,1.46.04.43.06.87.05,1.3Z"/>
                <path class="cls-27" d="M24.68,35.07c-1.6-.31-3.03-.29-4.28.06-.28.08-.56.19-.84.31-.09-.08-.18-.15-.24-.2-.48-.46-.99-.98-1.3-1.58.17-.11.34-.21.52-.3.29-.16.59-.3.9-.45.11-.04.21-.07.32-.11.03-.01.05-.04.05-.07,0,0,0-.01,0-.02-.01-.04-.05-.06-.09-.05-.03,0-.06.02-.08.02-.02,0-.04.01-.05.02-.07.02-.15.05-.22.07-.32.08-.64.18-.95.31-1.2.51-2.3,1.33-3.02,2.41-.02-.52-.03-1.03.02-1.54,1.12-.9,2.5-1.43,3.91-1.49,1.78-.08,3.55.56,4.85,1.77.33.3.48.56.49.81Z"/>
                <path class="cls-9" d="M15.04,26.8c-.88,1.29-1.33,2.82-1.48,4.36-.02.08.09.12.13.05.98-1.06,2.22-1.9,3.58-2.39-.34.36-.63.75-.9,1.16-1.08,1.69-1.57,3.8-1.11,5.76,0,0,0,0,0,0,0,0,0,0,0,0,0,.06.1.09.13.03,0,0,0,0,0,0,0,0,0,0,0,0,.75-.77,1.58-1.46,2.49-2.03.12.3.28.59.46.85.18.28.51.66.73.9,0,0,.42.4.42.4.11.12.31.28.44.38.27.22.64.51.93.68.79.53,1.67.98,2.55,1.34,1.23.53,2.53.89,3.82,1.21.64.12,1.61.34,2.25.42.64.07,1.63.22,2.26.26.72.04,1.44.09,2.16.12.3.36.67.66,1.07.89.79.46,1.72.66,2.62.73,1.7.18,3.55-.37,4.55-1.7,1.48-.11,2.95-.28,4.41-.54.47-.1,1.37-.29,1.85-.4,2.08-.55,4.19-1.27,5.99-2.48.28-.17.62-.44.88-.65l.21-.17s.2-.19.2-.19c.64-.62,1.26-1.34,1.54-2.2.21.13.42.27.63.42.71.5,1.34,1.12,1.96,1.72.02.03.04.05.04.05,0,.01.02.02.04.03h0s.08-.02.08-.06c0,0,0,0,0,0,0,0,0,0,0,0,.52-2.48-.4-5.12-2.08-6.98,1.39.51,2.64,1.36,3.65,2.44.04.07.14.03.13-.04-.13-1.35-.5-2.69-1.19-3.86-.74-1.23-1.88-2.34-3.26-2.8,0-.01,0-.03,0-.04-.02-.12-.03-.23-.05-.35-2.07-.41-3.67.23-3.67.23,5.25-.69,7.09,4.84,7.09,4.84-1.47-1.62-3.76-1.69-3.76-1.69.88.17,1.82.89,1.82.89-2.7-1.06-4.73.27-4.73.27,2.68-.77,4.29,1.79,4.29,1.79-.12-.63-.56-1.26-.56-1.26,1.64,1.9,1.96,5.13,1.96,5.13-.45-1.11-1.7-1.66-1.7-1.66.54.48.75,1.24.75,1.24-2.37-1.85-4.64-1.3-4.64-1.3.96.08,1.58.67,1.58.67-.37,1.85-3.96,3.58-3.96,3.58,1.11-.19,2.79-1.29,2.79-1.29-2.55,2.71-11.59,4-11.59,4,.35-1.1-.26-1.92-.26-1.92,0,0,.28,2.98-4.74,2.95-5.02-.02-4.6-3.22-4.6-3.22-1.05,1.17-.14,2.2-.14,2.2-5.58-.23-10.05-2.55-10.05-2.55,1.47.51,2.99.23,2.99.23-4.3-.3-6.96-3.22-6.96-3.22,1-1.02,3.25-.66,3.25-.66-2.15-1.23-4.16-.69-4.16-.69,1.29-1.51,3.79-1.41,3.79-1.41-4.45-.52-5.76,2.65-5.76,2.65.84-5.32,4.86-5.79,4.86-5.79-4.06-1.32-6.2.99-6.2.99.16-1.3,1-2.84,1.6-3.8-.55.43-1.03.95-1.42,1.51Z"/>
                <path class="cls-27" d="M22.62,30.87c-1.66-.37-3.32-.33-4.79.12-.68.21-1.33.5-1.91.88-.02.01-.03.02-.05.04.36-1.07.9-2.08,1.58-2.97.7-.27,1.44-.37,2.14-.28,1.32.17,2.52,1.05,3.03,2.21Z"/>
                <path class="cls-27" d="M20.37,25.66c-.02.07-.04.15-.09.19-.09.08-.26,0-.38-.07-.14-.08-.27-.17-.4-.26-.38-.25-.76-.5-1.19-.68-.1-.04-.21-.08-.32-.11.27-.13.56-.24.86-.33.09-.02.07-.15-.02-.14-.24.03-.47.08-.7.15.15-.63.28-1.26.44-1.89.07-.26.14-.53.21-.8.22.08.43.21.61.36.4.35.7.85.89,1.49.22.72.25,1.45.09,2.1Z"/>
                <path class="cls-9" d="M62.92,7.29c.07.78.01,1.56-.1,2.34-.11.79-.28,1.57-.53,2.32-.23.68-.49,1.36-.83,1.99-.34.63-.77,1.2-1.3,1.69-.55.51-1.18.94-1.85,1.29-.4.21-.85.29-1.28.41-.24.07-.47.14-.7.23-.17.07-.36.16-.48.31-.11.14-.07.3-.01.47.09.26.21.5.32.74.05.1.09.21.13.31,0,.01,0,.03.01.04.68-.04,1.36-.16,2.01-.39,3.79-1.32,5.69-5.65,5.4-9.46-.09-1.28-.43-2.54-1-3.68.08.46.16.91.2,1.37Z"/>
                <path class="cls-9" d="M18.87,19.62c-.19.03-.38.04-.57.04-.36-.01-.73-.1-1.07-.22-.69-.25-1.31-.65-1.86-1.13-.52-.45-.96-.99-1.28-1.59-.3-.55-.5-1.15-.68-1.75-.55-.33-1.04-.75-1.46-1.23-.62-.69-1.07-1.52-1.35-2.4-.26-.82-.41-1.68-.44-2.54-.01-.32-.01-.65,0-.97-.3,1.01-.46,2.06-.46,3.11-.03,1.86.39,3.74,1.2,5.42,1,2.07,2.63,3.8,4.78,4.66.84.32,1.75.5,2.65.53.23-.32.41-.67.54-1.04.11-.3.18-.61.22-.94-.07.02-.14.04-.21.05Z"/>
                <path class="cls-17" d="M10.82,7.32c.45-.65.97-1.25,1.55-1.78.57-.52,1.2-.99,1.88-1.37.67-.38,1.39-.69,2.13-.91.75-.23,1.53-.37,2.31-.42.8-.05,1.61,0,2.4.13.83.14,1.64.38,2.41.71.2.08.4.17.59.27.2.12.4.23.61.34.36.19.82.44,1.23.29.13-.05.24-.11.35-.2-.94-.93-2.02-1.73-3.19-2.35-3.11-1.67-6.65-1.43-9.45.72-.5.35-.98.83-1.4,1.26l-.4.49c-1.03,1.31-1.69,2.89-1.98,4.53.27-.61.58-1.19.96-1.74Z"/>
                <path class="cls-17" d="M47.88,6c.18.17.42.26.66.28.62.06,1.25-.21,1.8-.47.69-.33,1.35-.74,2-1.14.54-.33,1.08-.7,1.66-.95.37-.16.78-.24,1.18-.3.54-.08,1.08-.09,1.62-.04,1.07.1,2.11.44,3.01,1.03.45.29.86.64,1.21,1.04.4.45.74.96,1.04,1.47.33.57.62,1.16.88,1.77.24.56.44,1.14.67,1.7.04.1.08.19.11.29.01-.36,0-.72-.02-1.07-.19-2.74-1.52-5.42-3.84-6.95-1.59-1.13-3.57-1.82-5.54-1.57-2.78.38-5.11,2.24-6.77,4.45.07.17.17.33.31.46Z"/>
              </g>
              <g>
                <g>
                  <path class="cls-21" d="M40.6,30.58c2.42-.55,4.85-1.01,7.3-1.39,1.23-.19,2.46-.35,3.69-.46,1.23-.1,2.48-.19,3.72-.03v.06c-.29-.01-.66-.05-.93-.04-3.4.07-6.77.71-10.12,1.26-1.07.19-2.6.46-3.65.67,0,0-.01-.06-.01-.06h0Z"/>
                  <path class="cls-21" d="M40.92,30.88c3.42-.22,10.4-.3,12.99,2.07,0,0-.04.04-.04.04-1.61-1.35-4.24-1.67-6.28-1.9-2.21-.21-4.45-.24-6.67-.15v-.06h0Z"/>
                  <path class="cls-21" d="M40.63,31.68c4.09-.06,8.28,1.42,11.21,4.31,0,0-.04.04-.04.04-.38-.34-.76-.68-1.17-.98-2.03-1.55-4.45-2.53-6.95-3-1-.19-2.02-.31-3.04-.31,0,0,0-.06,0-.06h0Z"/>
                  <path class="cls-21" d="M39.56,32.13c2.41.76,5.79,2.37,6.61,4.94,0,0-.06.02-.06.02-.82-1.98-2.79-3.16-4.63-4.08-.63-.31-1.28-.59-1.95-.82l.02-.06h0Z"/>
                </g>
                <g>
                  <path class="cls-21" d="M34.58,30.87c-2.44-.07-4.99-.12-7.43-.1-2.15.03-4.34.06-6.47.38-.28.03-.63.13-.91.19l-.02-.06c1.2-.35,2.44-.46,3.68-.56,1.24-.08,2.48-.12,3.72-.13,1.86,0,3.72.03,5.58.11.62.03,1.24.06,1.86.1v.06h0Z"/>
                  <path class="cls-21" d="M34.32,31.21c-3.37.43-10.23,1.47-12.46,4.08,0,0-.05-.04-.05-.04,1.8-2.24,6.42-3.18,9.18-3.68,1.1-.18,2.21-.33,3.32-.43v.06h0Z"/>
                  <path class="cls-21" d="M34.74,31.96c-3.5.62-6.87,2.28-9.34,4.86-.36.36-.68.76-1,1.16l-.05-.04c1.81-2.5,4.49-4.3,7.39-5.31.97-.33,1.97-.6,2.99-.73v.06h0Z"/>
                  <path class="cls-21" d="M35.88,32.22c-2.21,1.27-5.11,3.28-5.71,5.89,0,0-.06,0-.06,0,.34-2.15,2.19-3.7,3.9-4.87.59-.39,1.2-.75,1.84-1.06l.03.05h0Z"/>
                </g>
              </g>
            </g>
          </g>
          <g>
            <path class="cls-24" d="M19.01,79.47c0-.36.06-.69.17-1.01s.27-.58.48-.81c.21-.23.46-.41.76-.54s.63-.19,1-.19c.46,0,.89.08,1.3.25l-.24.92c-.13-.06-.28-.1-.44-.14-.16-.04-.34-.06-.52-.06-.44,0-.77.14-1,.41s-.34.66-.34,1.16.11.86.32,1.14c.22.28.58.42,1.09.42.19,0,.38-.02.57-.06.19-.04.35-.08.48-.14l.16.93c-.12.06-.31.12-.56.17s-.51.07-.77.07c-.41,0-.77-.06-1.08-.19-.31-.13-.56-.3-.76-.53-.2-.23-.35-.49-.45-.81s-.15-.65-.15-1.02Z"/>
            <path class="cls-24" d="M23.61,81.89v-7.01l1.12-.19v2.4c.12-.04.27-.08.43-.11.16-.03.33-.05.49-.05.39,0,.71.05.97.16.26.11.46.26.62.45.15.19.26.43.33.7.06.27.1.57.1.91v2.73h-1.12v-2.55c0-.26-.02-.48-.05-.66-.03-.18-.09-.33-.17-.44-.08-.11-.18-.2-.31-.25-.13-.05-.29-.08-.48-.08-.15,0-.3.02-.45.05s-.27.06-.34.08v3.86h-1.12Z"/>
            <path class="cls-24" d="M30.57,76.92c.37,0,.68.05.94.14.25.09.46.22.61.39.15.17.26.37.32.61s.1.5.1.78v2.94c-.17.04-.43.08-.78.13-.35.05-.74.08-1.18.08-.29,0-.56-.03-.8-.08-.24-.06-.45-.15-.62-.27-.17-.12-.3-.28-.4-.48-.1-.2-.14-.44-.14-.73s.05-.51.16-.7c.11-.19.26-.35.44-.47.19-.12.4-.21.64-.26.24-.05.5-.08.76-.08.12,0,.25,0,.39.02s.28.04.44.08v-.19c0-.13-.02-.25-.05-.37-.03-.12-.09-.22-.16-.31s-.18-.16-.31-.21-.29-.07-.48-.07c-.26,0-.5.02-.71.06-.22.04-.39.08-.53.13l-.14-.91c.14-.05.35-.1.62-.15s.56-.07.87-.07ZM30.67,81.11c.35,0,.61-.02.79-.06v-1.24c-.06-.02-.15-.04-.27-.06-.12-.02-.25-.03-.39-.03-.12,0-.25,0-.38.03s-.24.05-.34.1c-.1.05-.18.12-.25.21s-.09.2-.09.34c0,.27.08.45.25.55.17.1.39.15.68.15Z"/>
            <path class="cls-24" d="M33.81,75.76l1.12-.19v1.47h1.72v.94h-1.72v1.98c0,.39.06.67.19.83.12.17.33.25.63.25.2,0,.39-.02.54-.06s.28-.08.38-.12l.19.89c-.13.06-.3.11-.51.17-.21.06-.46.09-.74.09-.35,0-.64-.05-.87-.14s-.42-.23-.55-.4c-.14-.18-.23-.39-.29-.64-.06-.25-.08-.54-.08-.86v-4.2Z"/>
            <path class="cls-24" d="M42.71,78.84c-.14.54-.29,1.07-.46,1.59-.16.52-.33,1-.49,1.46h-.92c-.12-.28-.25-.61-.39-.97-.14-.36-.27-.75-.41-1.17-.14-.41-.27-.85-.41-1.31-.14-.46-.27-.92-.4-1.4h1.19c.06.26.12.54.2.84.07.3.15.61.23.92.08.31.16.62.25.91.09.3.17.57.26.82.09-.28.18-.58.27-.88.09-.3.17-.61.26-.91.08-.3.16-.6.23-.89.07-.29.13-.56.19-.81h.86c.06.25.12.52.18.81.07.29.14.58.22.89.08.3.16.61.25.91.09.3.18.6.27.88.08-.25.16-.52.25-.82s.17-.6.26-.91c.08-.31.16-.62.24-.92s.14-.58.2-.84h1.16c-.13.48-.26.94-.4,1.4-.14.46-.27.89-.41,1.31-.14.41-.27.8-.41,1.17-.14.36-.27.69-.4.97h-.91c-.16-.46-.33-.94-.5-1.46s-.33-1.05-.47-1.59Z"/>
            <path class="cls-24" d="M48.25,75.63c0,.21-.07.38-.2.5-.14.12-.3.19-.48.19s-.36-.06-.49-.19c-.14-.12-.2-.29-.2-.5s.07-.39.2-.51c.14-.12.3-.19.49-.19s.35.06.48.19c.14.12.2.29.2.51ZM48.13,81.89h-1.12v-4.85h1.12v4.85Z"/>
            <path class="cls-24" d="M49.46,75.76l1.12-.19v1.47h1.72v.94h-1.72v1.98c0,.39.06.67.19.83.12.17.33.25.63.25.2,0,.39-.02.54-.06s.28-.08.38-.12l.19.89c-.13.06-.3.11-.51.17-.21.06-.46.09-.74.09-.35,0-.64-.05-.87-.14s-.42-.23-.55-.4c-.14-.18-.23-.39-.29-.64-.06-.25-.08-.54-.08-.86v-4.2Z"/>
            <path class="cls-24" d="M53.34,81.89v-7.01l1.12-.19v2.4c.12-.04.27-.08.43-.11.16-.03.33-.05.49-.05.39,0,.71.05.97.16.26.11.46.26.62.45.15.19.26.43.33.7.06.27.1.57.1.91v2.73h-1.12v-2.55c0-.26-.02-.48-.05-.66-.03-.18-.09-.33-.17-.44-.08-.11-.18-.2-.31-.25-.13-.05-.29-.08-.48-.08-.15,0-.3.02-.45.05s-.27.06-.34.08v3.86h-1.12Z"/>
            <path class="cls-13" d="M21.92,92.41c.45,0,.76-.04.95-.13.19-.09.28-.26.28-.51,0-.2-.12-.37-.36-.52-.24-.15-.61-.31-1.1-.5-.38-.14-.73-.29-1.04-.44-.31-.15-.58-.34-.79-.55-.22-.21-.39-.47-.51-.76-.12-.29-.18-.65-.18-1.06,0-.81.3-1.45.9-1.91.6-.47,1.42-.7,2.47-.7.52,0,1.03.05,1.51.14.48.09.86.19,1.15.3l-.43,1.9c-.28-.1-.59-.19-.92-.26-.33-.08-.71-.11-1.12-.11-.76,0-1.15.21-1.15.64,0,.1.02.19.05.26.03.08.1.15.2.22.1.07.23.15.4.23.17.08.38.17.65.27.53.2.98.39,1.33.59.35.19.62.4.83.62.2.22.34.47.43.74.08.27.12.59.12.95,0,.85-.32,1.49-.96,1.93-.64.44-1.54.65-2.71.65-.76,0-1.4-.07-1.91-.2-.51-.13-.86-.24-1.06-.33l.41-1.98c.41.16.84.29,1.28.38s.87.14,1.29.14Z"/>
            <path class="cls-13" d="M27.31,85.85c.41-.12.95-.23,1.6-.34.65-.1,1.34-.16,2.06-.16s1.34.1,1.82.29c.49.19.87.46,1.15.81.28.35.49.76.61,1.24s.18,1.01.18,1.6v4.86h-2.44v-4.57c0-.79-.1-1.34-.31-1.67-.21-.33-.59-.49-1.16-.49-.17,0-.36,0-.56.02-.2.02-.37.04-.52.06v6.64h-2.44v-8.31Z"/>
            <path class="cls-13" d="M44.92,89.84c0,.68-.1,1.3-.29,1.86-.2.56-.48,1.04-.85,1.44-.37.4-.82.71-1.33.92-.52.22-1.1.33-1.74.33s-1.21-.11-1.73-.33c-.52-.22-.96-.53-1.33-.92-.37-.4-.66-.88-.87-1.44-.21-.56-.31-1.18-.31-1.86s.11-1.29.32-1.85c.21-.56.51-1.03.88-1.42.38-.39.82-.7,1.34-.92s1.08-.33,1.69-.33,1.19.11,1.71.33.96.52,1.33.92c.37.39.66.87.87,1.42.21.56.31,1.17.31,1.85ZM42.43,89.84c0-.75-.15-1.34-.45-1.78s-.73-.65-1.28-.65-.99.22-1.29.65c-.31.43-.46,1.02-.46,1.78s.15,1.35.46,1.79c.31.44.74.66,1.29.66s.98-.22,1.28-.66c.3-.44.45-1.04.45-1.79Z"/>
            <path class="cls-13" d="M51.76,89.22c-.22.83-.45,1.65-.7,2.47-.25.82-.51,1.64-.78,2.47h-1.9c-.2-.46-.41-1-.64-1.64s-.47-1.32-.71-2.07-.5-1.54-.75-2.37c-.26-.83-.51-1.68-.75-2.53h2.57c.09.39.18.82.29,1.28.1.46.21.94.33,1.43.12.49.24.98.36,1.48s.26.97.39,1.43c.14-.48.28-.97.42-1.47.14-.5.27-1,.39-1.48.13-.49.25-.95.36-1.41s.22-.88.3-1.27h1.77c.09.39.19.82.29,1.27.11.45.22.92.34,1.41.12.49.25.98.38,1.48.13.5.27.99.41,1.47.13-.46.26-.94.39-1.43.13-.5.26-.99.37-1.48.12-.49.22-.97.33-1.43.1-.46.2-.89.29-1.28h2.54c-.24.85-.49,1.69-.75,2.53-.26.83-.51,1.63-.75,2.37s-.49,1.44-.72,2.07c-.23.63-.45,1.18-.65,1.64h-1.9c-.27-.83-.54-1.65-.8-2.47-.26-.82-.5-1.64-.72-2.47Z"/>
          </g>
        </g>
      </g>
    </g>
  </g>
</svg>