<?xml version="1.0" encoding="UTF-8"?>
<svg id="Layer_2" data-name="Layer 2" xmlns="http://www.w3.org/2000/svg" xmlns:xlink="http://www.w3.org/1999/xlink" viewBox="0 0 65 104.34">
  <defs>
    <style>
      .cls-1 {
        fill: #fff;
      }

      .cls-2 {
        fill: none;
      }

      .cls-3 {
        clip-path: url(#clippath-1);
      }

      .cls-4 {
        fill: #edd6a2;
      }

      .cls-5 {
        clip-path: url(#clippath);
      }
    </style>
    <clipPath id="clippath">
      <rect class="cls-2" y="6.38" width="65" height="65" rx="10" ry="10"/>
    </clipPath>
    <clipPath id="clippath-1">
      <rect class="cls-2" x="2.34" width="37.19" height="14.96"/>
    </clipPath>
    <image id="image" width="4000" height="4000" xlink:href="../../Links/leopard.png"/>
  </defs>
  <g id="Layer_1-2" data-name="Layer 1">
    <g>
      <g>
        <path class="cls-1" d="M21.83,91.72c-.1,0-.12-.04-.12-.12v-7.57c0-.06.02-.11.1-.11h1.34c.05,0,.08.04.08.08v6.42h3.67c.08,0,.1.04.09.08l-.21,1.12c-.01.08-.05.09-.11.09h-4.82Z"/>
        <path class="cls-1" d="M29.44,91.61c0,.08-.02.11-.1.11h-1.31c-.08,0-.1-.04-.1-.11v-7.6c0-.08.04-.09.1-.09h1.31c.08,0,.1.02.1.09v7.6Z"/>
        <path class="cls-1" d="M34.27,90.29c.27-.93.9-2.94,2.09-6.28.02-.07.05-.09.11-.09h1.36c.06,0,.1.04.07.11l-2.86,7.61c-.02.07-.06.08-.12.08h-1.45c-.06,0-.1-.01-.12-.07l-2.94-7.62c-.02-.06,0-.11.08-.11h1.44c.06,0,.09.02.1.07,1.19,3.12,2,5.42,2.22,6.3h.03Z"/>
        <path class="cls-1" d="M44.05,91.62c-.01.08-.04.09-.11.09h-4.97c-.09,0-.11-.04-.11-.09v-7.61c0-.06.02-.09.1-.09h4.82c.07,0,.1.01.11.08l.14,1.1c.01.06-.01.11-.09.11h-3.57v1.89h3.25c.06,0,.09.01.09.08v1.13c0,.06-.04.07-.09.07h-3.25v2.04h3.79c.07,0,.1.04.09.09l-.19,1.1Z"/>
        <path class="cls-1" d="M10.71,103.91c-.06-.04-.09-.08-.09-.18v-1.23s.05-.07.1-.05c.67.42,1.5.62,2.22.62,1.02,0,1.46-.38,1.46-.89,0-.44-.3-.77-1.25-1.15l-.6-.24c-1.54-.62-1.94-1.35-1.94-2.24,0-1.27,1.01-2.24,2.9-2.24.79,0,1.5.11,1.91.31.06.04.08.07.08.15v1.15s-.04.1-.11.05c-.47-.26-1.16-.39-1.89-.39-1.08,0-1.41.43-1.41.84s.29.72,1.27,1.12l.48.19c1.62.64,2.09,1.39,2.09,2.33,0,1.39-1.15,2.29-3.04,2.29-.91,0-1.67-.17-2.19-.43Z"/>
        <path class="cls-1" d="M18.95,97.71h-2.54c-.06,0-.09-.04-.07-.1l.16-1.1c.01-.07.04-.09.11-.09h6.21c.07,0,.11.02.12.11l.11,1.08c.01.07-.02.11-.09.11h-2.52v6.4c0,.07-.04.11-.1.11h-1.29c-.09.01-.11-.02-.11-.11v-6.4Z"/>
        <path class="cls-1" d="M24.11,104.22c-.08,0-.1-.02-.1-.09v-7.59c0-.06.01-.11.09-.11.99-.02,1.51-.04,2.47-.04,2,0,3.17.82,3.17,2.34,0,1.03-.7,1.77-1.61,2.09.41.55,1.91,2.67,2.27,3.26.04.07.05.13-.02.13h-1.56c-.1,0-.14-.02-.18-.06-.36-.53-1.24-1.9-1.79-2.73-.09-.14-.15-.2-.29-.2h-1.07v2.9c0,.07-.04.09-.1.09h-1.29ZM26.58,100c1.01,0,1.66-.43,1.66-1.19s-.66-1.18-1.72-1.18c-.42,0-.82.01-1.02.02v2.34h1.09Z"/>
        <path class="cls-1" d="M36.54,104.12c-.01.08-.04.09-.11.09h-4.97c-.09,0-.11-.04-.11-.09v-7.61c0-.06.02-.09.1-.09h4.82c.07,0,.1.01.11.08l.14,1.1c.01.06-.01.11-.09.11h-3.57v1.89h3.25c.06,0,.09.01.09.08v1.13c0,.06-.04.07-.09.07h-3.25v2.04h3.79c.07,0,.1.04.09.09l-.19,1.1Z"/>
        <path class="cls-1" d="M39.55,102.16l-.69,1.96c-.02.07-.06.09-.14.09h-1.25c-.08,0-.1-.04-.09-.12l2.57-6.96c.05-.12.09-.24.11-.64,0-.05.02-.08.08-.08h1.74c.06,0,.08.01.09.07l2.89,7.62c.01.07,0,.11-.07.11h-1.4c-.06,0-.1-.02-.12-.07l-.72-1.98h-2.99ZM42.14,100.87c-.26-.78-.85-2.43-1.1-3.26h-.01c-.2.8-.7,2.18-1.07,3.26h2.19Z"/>
        <path class="cls-1" d="M46.14,96.42h2c.07,0,.1.02.12.08.37,1.2,1.46,4.72,1.71,5.83h.01c.26-1.01,1.5-4.61,1.89-5.83.02-.05.04-.08.11-.08h1.95c.06,0,.09.01.1.07l.34,7.63c.01.07-.02.09-.09.09h-1.39c-.06,0-.1-.01-.1-.08-.06-2.53-.09-5.95-.07-6.7h-.01c-.29,1.14-1.57,5.1-2.07,6.68-.01.08-.06.09-.11.09h-1.25c-.09,0-.11-.01-.12-.08-.54-1.8-1.54-5.26-1.89-6.71h-.02c-.01,1.2-.11,4.21-.24,6.71,0,.07-.02.08-.1.08h-1.25c-.08,0-.1-.01-.09-.09l.48-7.63c.01-.07.04-.07.1-.07Z"/>
      </g>
      <g>
        <rect class="cls-4" x=".75" y="7.13" width="63.5" height="63.5" rx="9.25" ry="9.25"/>
        <path class="cls-1" d="M55,7.88c4.69,0,8.5,3.81,8.5,8.5v45c0,4.69-3.81,8.5-8.5,8.5H10c-4.69,0-8.5-3.81-8.5-8.5V16.38c0-4.69,3.81-8.5,8.5-8.5h45M55,6.38H10C4.48,6.38,0,10.85,0,16.38v45C0,66.9,4.48,71.38,10,71.38h45c5.52,0,10-4.48,10-10V16.38c0-5.52-4.48-10-10-10h0Z"/>
      </g>
      <g class="cls-5">
        <use transform="translate(-7.47 -5.27) scale(.02)" xlink:href="#image"/>
      </g>
      <path class="cls-1" d="M55,7.88c4.69,0,8.5,3.81,8.5,8.5v45c0,4.69-3.81,8.5-8.5,8.5H10c-4.69,0-8.5-3.81-8.5-8.5V16.38c0-4.69,3.81-8.5,8.5-8.5h45M55,6.38H10C4.48,6.38,0,10.85,0,16.38v45C0,66.9,4.48,71.38,10,71.38h45c5.52,0,10-4.48,10-10V16.38c0-5.52-4.48-10-10-10h0Z"/>
      <g class="cls-3">
        <use transform="translate(-7.47 -5.27) scale(.02)" xlink:href="#image"/>
      </g>
    </g>
  </g>
</svg>