<?xml version="1.0" encoding="UTF-8"?>
<svg id="Layer_2" data-name="Layer 2" xmlns="http://www.w3.org/2000/svg" xmlns:xlink="http://www.w3.org/1999/xlink" viewBox="0 0 65 97.96">
  <defs>
    <style>
      .cls-1 {
        fill: #fff;
      }

      .cls-2 {
        fill: #edd6a2;
      }

      .cls-3 {
        clip-path: url(#clippath);
      }
    </style>
    <clipPath id="clippath">
      <rect class="cls-2" x="0" width="65" height="65" rx="10" ry="10"/>
    </clipPath>
  </defs>
  <g id="Layer_1-2" data-name="Layer 1">
    <g>
      <g>
        <path class="cls-1" d="M8.36,77.65c0-.06.02-.09.09-.09.48-.01,1.4-.04,2.31-.04,2.42,0,3.32,1.28,3.32,2.59,0,1.89-1.54,2.71-3.42,2.71h-.79v2.43c0,.06-.02.09-.1.09h-1.31c-.06,0-.1-.02-.1-.08v-7.61ZM9.87,81.54c.21.01.38.01.79.01,1.05,0,1.94-.33,1.94-1.41,0-.87-.65-1.38-1.8-1.38-.44,0-.79.01-.92.02v2.75Z"/>
        <path class="cls-1" d="M16.09,83.29l-.69,1.96c-.02.07-.06.09-.14.09h-1.25c-.08,0-.1-.04-.09-.12l2.57-6.96c.05-.12.09-.24.11-.64,0-.05.02-.08.08-.08h1.74c.06,0,.08.01.09.07l2.89,7.62c.01.07,0,.11-.07.11h-1.4c-.06,0-.1-.02-.12-.07l-.72-1.98h-2.99ZM18.68,81.99c-.26-.78-.85-2.43-1.1-3.26h-.01c-.2.8-.7,2.18-1.07,3.26h2.19Z"/>
        <path class="cls-1" d="M22.48,85.34c-.08,0-.1-.02-.1-.09v-7.59c0-.06.01-.11.09-.11.99-.02,1.51-.04,2.47-.04,2,0,3.17.82,3.17,2.34,0,1.03-.7,1.77-1.61,2.09.41.55,1.91,2.67,2.27,3.26.04.07.05.13-.02.13h-1.56c-.1,0-.14-.02-.18-.06-.36-.53-1.24-1.9-1.79-2.73-.09-.14-.15-.2-.29-.2h-1.07v2.9c0,.07-.04.09-.1.09h-1.29ZM24.95,81.13c1.01,0,1.66-.43,1.66-1.19s-.66-1.17-1.72-1.17c-.42,0-.82.01-1.02.02v2.34h1.09Z"/>
        <path class="cls-1" d="M31.33,78.84h-2.54c-.06,0-.09-.04-.07-.1l.16-1.1c.01-.07.04-.09.11-.09h6.21c.07,0,.11.02.12.11l.11,1.08c.01.07-.02.11-.09.11h-2.52v6.4c0,.07-.04.11-.1.11h-1.29c-.09.01-.11-.02-.11-.11v-6.4Z"/>
        <path class="cls-1" d="M36.49,85.34c-.07,0-.11-.01-.11-.11v-7.61c0-.06.02-.08.09-.08h1.76c.1,0,.11.02.15.08.92,1.57,2.84,4.91,3.27,5.8h.01c-.01-.33-.04-.72-.04-1.84v-3.95c0-.06.04-.09.11-.09h1.2c.09,0,.11.04.11.11v7.59c0,.08-.04.11-.12.11h-1.59c-.09,0-.12-.02-.16-.08-.65-1.21-2.94-5.04-3.42-6.2h-.01c.05.61.06,1.13.06,2.21v3.96c0,.07-.03.11-.1.11h-1.21Z"/>
        <path class="cls-1" d="M50.12,85.25c-.01.08-.04.09-.11.09h-4.97c-.09,0-.11-.04-.11-.09v-7.61c0-.06.02-.09.1-.09h4.82c.07,0,.1.01.11.08l.14,1.1c.01.06-.01.11-.09.11h-3.57v1.89h3.25c.06,0,.09.01.09.08v1.13c0,.06-.04.07-.09.07h-3.25v2.04h3.79c.07,0,.1.04.09.09l-.19,1.1Z"/>
        <path class="cls-1" d="M51.59,85.34c-.08,0-.1-.02-.1-.09v-7.59c0-.06.01-.11.09-.11.99-.02,1.51-.04,2.47-.04,2,0,3.17.82,3.17,2.34,0,1.03-.7,1.77-1.61,2.09.41.55,1.91,2.67,2.27,3.26.04.07.05.13-.02.13h-1.56c-.1,0-.14-.02-.18-.06-.36-.53-1.24-1.9-1.79-2.73-.09-.14-.15-.2-.29-.2h-1.07v2.9c0,.07-.04.09-.1.09h-1.29ZM54.07,81.13c1.01,0,1.66-.43,1.66-1.19s-.66-1.17-1.72-1.17c-.42,0-.82.01-1.02.02v2.34h1.09Z"/>
        <path class="cls-1" d="M17.18,96.11h.01c.12-.66.45-2.24,1.32-5.97.01-.06.05-.09.12-.09h1.31c.08,0,.1.04.09.11l-2.11,7.62c-.02.06-.05.07-.12.07h-1.35c-.09,0-.1-.02-.12-.07-.38-1.54-1.21-4.94-1.46-6.11h-.01c-.23,1.2-1.2,4.63-1.6,6.08-.01.06-.04.11-.12.11h-1.32c-.08,0-.1-.04-.14-.09l-2.09-7.61c-.01-.07.01-.09.08-.09h1.41c.06,0,.11,0,.12.08,1.06,4.24,1.29,5.32,1.39,5.97h.01c.15-.77.52-2.08,1.49-5.96.01-.07.06-.09.12-.09h1.45c.06,0,.07.02.1.09.49,1.96,1.09,4.34,1.42,5.97Z"/>
        <path class="cls-1" d="M22.6,97.73c0,.08-.02.11-.1.11h-1.31c-.08,0-.1-.04-.1-.11v-7.6c0-.08.04-.09.1-.09h1.31c.08,0,.1.02.1.09v7.6Z"/>
        <path class="cls-1" d="M26.16,91.34h-2.54c-.06,0-.09-.04-.07-.1l.16-1.1c.01-.07.04-.09.11-.09h6.21c.07,0,.11.02.12.11l.11,1.08c.01.07-.02.11-.09.11h-2.52v6.4c0,.07-.04.11-.1.11h-1.29c-.09.01-.11-.02-.11-.11v-6.4Z"/>
        <path class="cls-1" d="M36.31,97.84c-.07,0-.1-.02-.1-.09v-3.31h-3.49v3.3c0,.07-.02.11-.1.11h-1.29c-.09,0-.11-.04-.11-.11v-7.59c0-.08.02-.11.1-.11h1.3c.08,0,.1.02.1.09v3h3.49v-3.01s.03-.08.09-.08h1.34c.06,0,.09.02.09.08v7.62c0,.07-.02.09-.1.09h-1.31Z"/>
        <path class="cls-1" d="M43.84,94.81c0,1.13.58,1.88,1.77,1.88.99,0,1.72-.45,1.72-1.9v-4.64c0-.07.02-.11.1-.11h1.31c.07,0,.1.04.1.09v4.72c0,2.22-1.44,3.1-3.29,3.1-1.97,0-3.24-1-3.24-3.04v-4.77c0-.07.01-.11.1-.11h1.31c.07,0,.1.02.1.09v4.68Z"/>
        <path class="cls-1" d="M50.2,97.53c-.06-.04-.09-.08-.09-.18v-1.23s.05-.07.1-.05c.67.42,1.5.62,2.22.62,1.02,0,1.46-.38,1.46-.89,0-.44-.3-.77-1.25-1.15l-.6-.24c-1.54-.62-1.94-1.35-1.94-2.24,0-1.27,1.01-2.24,2.9-2.24.79,0,1.5.11,1.91.31.06.04.08.07.08.15v1.15s-.04.1-.11.05c-.47-.26-1.16-.39-1.89-.39-1.08,0-1.41.43-1.41.84s.29.72,1.27,1.12l.48.19c1.62.64,2.09,1.39,2.09,2.33,0,1.39-1.15,2.29-3.04,2.29-.91,0-1.67-.17-2.19-.43Z"/>
      </g>
      <g>
        <rect class="cls-2" x=".75" y=".75" width="63.5" height="63.5" rx="9.25" ry="9.25"/>
        <path class="cls-1" d="M55,1.5c4.69,0,8.5,3.81,8.5,8.5v45c0,4.69-3.81,8.5-8.5,8.5H10c-4.69,0-8.5-3.81-8.5-8.5V10C1.5,5.31,5.31,1.5,10,1.5h45M55,0H10C4.48,0,0,4.48,0,10v45c0,5.52,4.48,10,10,10h45c5.52,0,10-4.48,10-10V10C65,4.48,60.52,0,55,0h0Z"/>
      </g>
      <g>
        <rect class="cls-2" x="0" width="65" height="65" rx="10" ry="10"/>
        <g class="cls-3">
          <image width="2000" height="1121" transform="translate(-37.66 -1.47) scale(.07)" xlink:href="../../Links/animal-human-handshake-human-hand-animal-paw-collaboration-human-wild-animal.png"/>
        </g>
      </g>
      <path class="cls-1" d="M55,1.5c4.69,0,8.5,3.81,8.5,8.5v45c0,4.69-3.81,8.5-8.5,8.5H10c-4.69,0-8.5-3.81-8.5-8.5V10C1.5,5.31,5.31,1.5,10,1.5h45M55,0H10C4.48,0,0,4.48,0,10v45c0,5.52,4.48,10,10,10h45c5.52,0,10-4.48,10-10V10C65,4.48,60.52,0,55,0h0Z"/>
    </g>
  </g>
</svg>