<?xml version="1.0" encoding="UTF-8"?>
<svg id="Layer_2" data-name="Layer 2" xmlns="http://www.w3.org/2000/svg" viewBox="0 0 65 104.08">
  <defs>
    <style>
      .cls-1 {
        fill: #fff;
      }

      .cls-2 {
        fill: #edd6a2;
      }

      .cls-3 {
        fill: #ffab66;
      }

      .cls-4 {
        fill: #512500;
      }
    </style>
  </defs>
  <g id="Layer_1-2" data-name="Layer 1">
    <g>
      <g>
        <rect class="cls-2" x=".75" y="7" width="63.5" height="63.5" rx="9.25" ry="9.25"/>
        <path class="cls-1" d="M55,7.75c4.69,0,8.5,3.81,8.5,8.5v45c0,4.69-3.81,8.5-8.5,8.5H10c-4.69,0-8.5-3.81-8.5-8.5V16.25c0-4.69,3.81-8.5,8.5-8.5h45M55,6.25H10C4.48,6.25,0,10.73,0,16.25v45c0,5.52,4.48,10,10,10h45c5.52,0,10-4.48,10-10V16.25c0-5.52-4.48-10-10-10h0Z"/>
      </g>
      <g>
        <path class="cls-1" d="M20.48,91.46c-.05,0-.1-.01-.1-.1v-.79c0-.07.01-.1.04-.14l4.34-5.48h-4.19c-.06,0-.1-.01-.09-.08l.19-1.1c.01-.07.05-.09.11-.09h5.81c.06,0,.08.02.08.07v.85c0,.06-.01.11-.06.17l-4.26,5.41h4.47c.06,0,.09.04.06.11l-.2,1.09c-.01.07-.04.1-.11.1h-6.09Z"/>
        <path class="cls-1" d="M35.09,87.52c.01,2.46-1.59,4.06-3.86,4.06-2.42,0-3.87-1.71-3.87-4.02s1.57-4.01,3.87-4.01c2.45,0,3.85,1.78,3.86,3.98ZM31.28,90.31c1.41,0,2.26-1.1,2.25-2.75,0-1.66-.86-2.74-2.32-2.74-1.32,0-2.29.99-2.29,2.74,0,1.53.82,2.75,2.36,2.75Z"/>
        <path class="cls-1" d="M43.85,87.52c.01,2.46-1.59,4.06-3.86,4.06-2.42,0-3.87-1.71-3.87-4.02s1.57-4.01,3.87-4.01c2.45,0,3.85,1.78,3.86,3.98ZM40.04,90.31c1.41,0,2.26-1.1,2.25-2.75,0-1.66-.86-2.74-2.32-2.74-1.32,0-2.29.99-2.29,2.74,0,1.53.82,2.75,2.36,2.75Z"/>
        <path class="cls-1" d="M17.01,103.87c-.01.08-.04.1-.11.1h-4.97c-.09,0-.11-.04-.11-.1v-7.61c0-.06.02-.09.1-.09h4.82c.07,0,.1.01.11.08l.14,1.1c.01.06-.01.11-.09.11h-3.57v1.89h3.25c.06,0,.09.01.09.08v1.13c0,.06-.04.07-.09.07h-3.25v2.04h3.79c.07,0,.1.04.09.09l-.19,1.1Z"/>
        <path class="cls-1" d="M21.61,102.54c.27-.93.9-2.94,2.09-6.28.02-.07.05-.09.11-.09h1.36c.06,0,.1.04.07.11l-2.86,7.61c-.02.07-.06.08-.12.08h-1.45c-.06,0-.1-.01-.12-.07l-2.94-7.62c-.02-.06,0-.11.08-.11h1.44c.06,0,.09.02.1.07,1.19,3.12,2,5.42,2.22,6.3h.03Z"/>
        <path class="cls-1" d="M31.39,103.87c-.01.08-.04.1-.11.1h-4.97c-.09,0-.11-.04-.11-.1v-7.61c0-.06.02-.09.1-.09h4.82c.07,0,.1.01.11.08l.14,1.1c.01.06-.01.11-.09.11h-3.57v1.89h3.25c.06,0,.09.01.09.08v1.13c0,.06-.04.07-.09.07h-3.25v2.04h3.79c.07,0,.1.04.09.09l-.19,1.1Z"/>
        <path class="cls-1" d="M32.88,103.96c-.07,0-.11-.01-.11-.11v-7.61c0-.06.02-.08.09-.08h1.76c.1,0,.11.02.15.08.92,1.57,2.84,4.91,3.27,5.81h.01c-.01-.33-.04-.72-.04-1.84v-3.95c0-.06.04-.09.11-.09h1.2c.09,0,.11.04.11.11v7.59c0,.08-.04.11-.12.11h-1.59c-.09,0-.12-.02-.16-.08-.65-1.21-2.94-5.05-3.42-6.2h-.01c.05.61.06,1.13.06,2.21v3.96c0,.07-.03.11-.1.11h-1.21Z"/>
        <path class="cls-1" d="M43.01,97.46h-2.54c-.06,0-.09-.04-.07-.1l.16-1.1c.01-.07.04-.09.11-.09h6.21c.07,0,.11.02.12.11l.11,1.08c.01.07-.02.11-.09.11h-2.52v6.4c0,.07-.04.11-.1.11h-1.29c-.09.01-.11-.02-.11-.11v-6.4Z"/>
        <path class="cls-1" d="M47.97,103.65c-.06-.04-.09-.08-.09-.18v-1.23s.05-.07.1-.05c.67.42,1.5.62,2.22.62,1.02,0,1.46-.38,1.46-.89,0-.44-.3-.77-1.25-1.15l-.6-.24c-1.54-.62-1.94-1.35-1.94-2.24,0-1.27,1.01-2.24,2.9-2.24.79,0,1.5.11,1.91.31.06.04.08.07.08.15v1.15s-.04.1-.11.05c-.47-.26-1.16-.39-1.89-.39-1.08,0-1.41.43-1.41.84s.29.72,1.27,1.12l.48.19c1.62.64,2.09,1.39,2.09,2.33,0,1.39-1.15,2.29-3.04,2.29-.91,0-1.67-.17-2.19-.43Z"/>
      </g>
      <g>
        <g>
          <path class="cls-1" d="M52.05,33.82c-.02-.16-.1-.29-.23-.36-.22-.14-.44-.3-.69-.35-.31-.07-.59-.17-.87-.32-.97-.54-2.02-.91-2.97-1.48-.38-.23-.74-.47-1.01-.84-.13-.18-.12-.26,0-.44.2-.29.46-.53.74-.75.15-.12.3-.24.34-.51-.26.21-.49.36-.68.55-.2.2-.35.43-.53.65-.02,0-.04-.01-.06-.02,0-.07-.02-.14,0-.2.1-.28.17-.58.32-.84.22-.38.45-.76.76-1.08.06-.07.11-.15.16-.24.21-.38.46-.73.76-1.04.12-.12.23-.25.29-.46-.09.05-.14.07-.18.1-.3.18-.54.42-.77.68-.47.52-.97,1.01-1.4,1.56-.3.38-.42.85-.31,1.35.04.18.08.35.11.53.01.08.02.18-.08.18-.05,0-.11-.07-.14-.11-.05-.06-.02-.18-.14-.19-.07.19-.12.38-.2.56-.07.15-.15.3-.26.41-.32.33-.6.7-.77,1.13-.18.47-.07.74.3.96.07.04.15.09.22.13.72.45,1.44.9,2.15,1.35.96.61,1.92,1.23,2.88,1.84.21.13.43.25.65.37.32.17.67-.09.66-.4,0-.25-.06-.47-.27-.61-.35-.24-.7-.48-1.07-.68-.36-.2-.75-.34-1.12-.53-.33-.16-.64-.38-.99-.52-.62-.25-1.13-.67-1.61-1.11-.25-.23-.43-.54-.63-.82-.03-.05-.04-.17,0-.21.04-.04.14-.03.21-.03.03,0,.06.03.09.05.42.23.83.47,1.25.69.27.14.56.23.87.22.34-.01.68,0,1.01-.01.21,0,.39.04.57.13.08.04.15.08.23.12.62.29,1.19.66,1.74,1.08.22.17.36.37.37.65,0,.04.03.07.04.11.36-.23.49-.66.32-1.01-.04-.08-.07-.16-.08-.24ZM46.16,31.11c.07,0,.14,0,.19.02.5.2.95.49,1.39.8.1.08.21.17.23.35-.72.03-1.71-.6-1.81-1.17Z"/>
          <path class="cls-1" d="M39.66,40.16c-.67-.33-1.35-.62-2.09-.75-.28-.05-.56-.09-.82-.24-.24-.15-.52-.18-.8-.21-.68-.07-1.31.08-1.83.55-.48.43-.86.95-1.17,1.51-.16.3-.26.64-.43.94-.26.46-.43.96-.58,1.47-.18.6-.1,1.18.21,1.73.12.21.3.37.54.44.02-.02.04-.03.06-.05-.04-.07-.07-.14-.11-.22-.09-.2-.22-.39-.25-.59-.09-.65.06-1.27.39-1.84.07-.11.18-.21.29-.29.21-.14.26-.13.4.09.21.32.38.65.58.98.04.06.1.1.15.15.05-.06.1-.13.14-.2.02-.03,0-.09,0-.13-.04-.37-.12-.73-.29-1.07-.13-.26-.29-.51-.43-.77-.06-.11-.13-.22-.06-.36.12-.25.31-.42.51-.59.34.14.41.53.75.71.02-.12.04-.2.04-.28,0-.27-.01-.54-.05-.8-.03-.27-.01-.48.32-.52,0,0,.02,0,.02-.01.2-.13.41-.12.63-.07.11.02.22.05.33.08.72.16,1.44.29,2.15.47.89.22,1.77.48,2.65.71.09.02.18.06.27-.04-.11-.07-.21-.13-.3-.18-.41-.21-.83-.43-1.25-.64Z"/>
          <path class="cls-1" d="M45.13,27.32c-.02.39.12.75.17,1.12.01.1.05.2.16.21.06-.4.11-.78.18-1.16.09-.5.19-1,.3-1.5.16-.74.64-1.27,1.2-1.74.32-.27.69-.49,1.08-.66.14-.06.27-.15.4-.24.04-.02.06-.07.12-.14-.1-.02-.16-.06-.22-.05-.37.04-.74.02-1.1.16-.33.13-.68.19-1.02.28-.05.01-.11,0-.16,0,0-.02-.01-.05-.02-.07.11-.05.21-.1.33-.13.26-.07.52-.13.78-.19.11-.03.22-.05.23-.2-.09-.08-.19-.15-.28-.24-.15-.14-.16-.24,0-.37.28-.24.58-.46.87-.69.06-.05.13-.09.08-.21-.3,0-.62.03-.9.16-.36.16-.72.35-1.06.54-.29.17-.5.41-.61.74-.12.38-.27.76-.42,1.15.03,0,.07,0,.14.02-.03.2-.06.4-.09.59-.08.56-.16,1.13-.23,1.69,0,.07,0,.14,0,.2.03.24.09.48.08.72Z"/>
          <path class="cls-1" d="M44.81,34.06c-.22,0-.42.06-.61.19-.39.28-.78.57-1.19.83-.32.2-.66.39-1,.54-1.03.45-2.11.76-3.17,1.12-.38.13-.74.29-.91.78.09,0,.17.03.21,0,.2-.14.44-.14.66-.2.32-.1.64-.19.96-.31.33-.13.68-.19,1.03-.26.71-.14,1.39-.36,2.02-.7.67-.36,1.3-.79,1.84-1.34.12-.12.22-.27.31-.42.09-.15.03-.25-.15-.25Z"/>
          <path class="cls-1" d="M55.53,30.8c-.03-.26.03-.53.02-.8-.02-.64-.09-1.28-.09-1.91,0-.7-.06-1.4-.2-2.08-.03-.17-.08-.24-.16-.21-.13.04-.07.15-.07.24.03.71.07,1.41-.08,2.12-.06.3-.12.61-.13.92,0,.38.05.75.08,1.13,0,.09,0,.19-.02.28-.08.32-.15.64-.26.95-.14.4-.15.8-.11,1.28.1-.06.18-.09.23-.14.09-.1.18-.21.24-.34.24-.46.62-.85.55-1.44Z"/>
          <path class="cls-1" d="M56.18,34.25c-.07.22-.17.41-.32.59-.02.03-.02.09,0,.13,0,.02.08.02.11,0,.06-.03.13-.06.18-.11.24-.23.44-.49.5-.83.09-.51.13-1.02.05-1.55-.08-.51-.14-1.03-.29-1.53-.14-.48-.3-.95-.46-1.43-.01-.04-.08-.06-.14-.11-.01.09-.02.14-.02.19.02.36.04.73.07,1.09.04.49.15.97.14,1.47,0,.31-.09.57-.27.81-.29.38-.58.77-.87,1.16-.03.04-.04.1-.05.15.02.01.03.03.05.04.54-.28.83-.89,1.49-1.13-.06.38-.05.71-.14,1.04Z"/>
          <path class="cls-1" d="M54.49,27.29c-.1-.54-.21-1.09-.32-1.63-.04-.19-.08-.39-.16-.57-.22-.54-.65-.85-1.18-1.06-.24-.1-.46-.23-.69-.35-.27-.14-.55-.29-.82-.43-.04-.02-.1,0-.16-.01.04.11.11.17.17.24.14.14.28.28.41.43.25.28.49.56.74.83.33.38.68.74.98,1.13.37.49.74,1,.92,1.61,0,.01.03.02.08.05,0-.09.02-.16,0-.23Z"/>
          <path class="cls-1" d="M40.39,34.64c.4-.89.66-1.83,1.05-2.78.05.11.09.18.1.25.04.19.07.37.11.56.03.15.06.31.11.45.01.04.09.09.13.09.04,0,.11-.07.12-.11.02-.1.02-.21,0-.31-.05-.35-.11-.7-.16-1.05-.02-.15-.05-.31-.07-.46-.02-.24-.03-.48-.06-.72,0-.05-.03-.1-.07-.13-.19-.16-.19-.35-.13-.56.02-.08.03-.17-.11-.24-.15.44-.29.86-.44,1.27-.06.17-.13.34-.17.51-.09.4-.17.81-.23,1.22-.1.6-.18,1.19-.27,1.79-.01.07-.04.15.08.22ZM40.98,31.62c.05-.19.13-.37.2-.55.01-.03.06-.05.13-.11.01.08.04.15.02.18-.15.22-.16.48-.24.72-.03.1-.05.21-.2.29.03-.2.04-.37.09-.53Z"/>
          <path class="cls-1" d="M51.48,21.09c.33.48.72.9,1.14,1.31.51.49,1,1.01,1.49,1.51.1.1.21.2.31.29.02-.01.04-.03.05-.04-.03-.07-.06-.15-.1-.22-.17-.33-.37-.65-.52-.98-.33-.73-.8-1.37-1.35-1.95-.23-.24-.47-.42-.81-.46-.21-.02-.42-.09-.62-.13-.01.02-.03.03-.04.05.03.06.06.12.1.17.11.15.24.29.35.45Z"/>
          <path class="cls-1" d="M52.76,27.78s-.03.08-.05.12c-.13.23-.27.46-.39.7-.26.55-.51,1.11-.77,1.66-.2.43-.42.85-.62,1.28-.08.17-.14.35-.21.53-.02.05,0,.11,0,.18.17-.02.24-.12.31-.21.25-.33.52-.64.67-1.03.15-.4.37-.77.57-1.16.25-.5.42-1.02.56-1.56.04-.15.08-.3.02-.45l-.08-.06Z"/>
          <path class="cls-1" d="M34.55,10.47c.89-.24,1.77-.47,2.68-.61.07-.01.14-.04.21-.07,0-.02,0-.05,0-.07-.11-.02-.23-.03-.32-.08-.18-.1-.37-.08-.55-.04-.53.11-1.06.22-1.6.33-.19.04-.38.1-.57.15-.23.06-.48.09-.7.17-.44.16-.87.34-1.3.52-.04.02-.06.08-.12.17.19-.02.32-.02.44-.05.61-.14,1.23-.27,1.84-.43Z"/>
          <path class="cls-1" d="M39.83,17.3c.06.1.13.2.27.24-.1-.35-.24-.68-.29-1.02-.05-.35-.03-.71-.03-1.06,0-.35,0-.71.15-1.07-.24-.07-.46-.13-.71-.2-.01.11-.04.2-.04.29.05.51.08,1.02.16,1.52.08.46.23.9.49,1.3Z"/>
          <path class="cls-1" d="M37.03,37.09c-.01.06-.04.11-.06.17-.13.37-.26.75-.39,1.12-.05.13-.04.23.14.34.06-.09.12-.17.17-.26.11-.21.22-.43.32-.65.09-.19.17-.39.25-.59.04-.09.08-.19.15-.27.2-.22.43-.42.73-.52.08-.03.15-.1.22-.14,0-.02-.01-.04-.02-.06-.06,0-.13-.02-.19-.01-.15.02-.3.06-.46.09-.44.09-.76.31-.86.78Z"/>
          <path class="cls-1" d="M49.33,29.8c.17-.41.34-.83.55-1.22.12-.23.23-.5.26-.75.04-.45.02-.9.02-1.35,0-.05-.03-.1-.05-.15-.1.23-.16.45-.21.68-.09.4-.17.79-.26,1.19-.03.12-.1.22-.13.33-.09.31-.18.63-.26.94-.05.21-.08.42-.12.63.02,0,.04.01.06.02.05-.1.11-.21.15-.31Z"/>
          <path class="cls-1" d="M52.03,19.19c.11.04.19,0,.24-.09.19-.4.37-.8.46-1.23.01-.06,0-.12-.01-.24-.27.27-.48.52-.74.71-.26.18-.57.3-.86.44v.06c.31.12.62.23.92.35Z"/>
          <path class="cls-1" d="M56.96,38.17c-.06-.1-.12-.22-.21-.29-.21-.16-.3-.37-.33-.62,0-.08-.05-.15-.08-.25-.24.26-.28.45-.13.7.07.12.17.24.26.35.05.06.1.12.14.19.05.11.02.18-.09.23-.21.09-.43.19-.64.28-.04.02-.08.06-.17.12.11.04.16.08.21.08.22,0,.45,0,.67-.04.35-.05.54-.44.37-.75Z"/>
          <path class="cls-1" d="M45.38,20.09c.08.01.18.01.26-.01.24-.07.47-.15.71-.23.07-.02.15-.02.23-.03.17-.02.34-.03.52-.05.07,0,.14-.04.2-.06-.01-.05-.01-.07-.02-.08-.24-.09-.47-.21-.74-.19-.21.01-.42,0-.62.02-.2.03-.41.07-.6.14-.13.04-.2.18-.18.29.03.12.13.19.24.21Z"/>
          <path class="cls-1" d="M56.18,27.31c-.12-.15-.24-.32-.36-.48-.02.01-.04.02-.07.04-.01.22,0,.43.1.63.11-.06.21-.12.33-.18Z"/>
          <path class="cls-1" d="M43.82,22.19c-.16-.01-.23.09-.29.21-.02.03.02.1.03.16q.22-.14.26-.36Z"/>
          <path class="cls-3" d="M26.29,25.27c-.2-.71-.4-1.41-.6-2.12-.16-.55-.31-1.1-.47-1.65-.17-.58-.34-1.16-.51-1.74-.08-.26-.16-.51-.23-.77-.04-.13-.11-.17-.23-.13-.23.07-.46.13-.69.19-.09.32-.24.45-.57.48-.21.02-.42-.01-.61-.11-.56-.28-1.13-.56-1.69-.84-.25-.12-.42-.33-.55-.57-.33-.65-.65-1.31-.99-1.97-.11-.21-.19-.45-.4-.6-.29-.2-.52-.45-.77-.68-.71-.68-1.21-1.5-1.7-2.34-.03-.05-.04-.12-.06-.19.05,0,.07,0,.08,0,.03.02.06.04.08.06.27.29.57.55.78.9.09.15.21.27.33.4.36.39.72.77,1.08,1.16.06.06.11.12.19.2,0-.07.02-.1,0-.12-.02-.05-.05-.09-.07-.14-.23-.43-.46-.85-.67-1.29-.16-.33-.28-.67-.41-1.01-.03-.09-.03-.26,0-.29.21-.11.21-.29.21-.48,0,0,.03-.02.06-.05.06.12.11.25.19.36.1.14.12.34.3.42-.03-.1-.05-.2-.08-.29-.18-.49-.33-.98-.37-1.5-.01-.14,0-.26.12-.34.09-.06.26,0,.37.13.04.05.07.12.09.18.03.12.06.24.06.36,0,.22.1.39.23.56.22.29.41.6.48.97.15.78.29,1.56.46,2.34.05.26.07.54.25.76.03.04.08.06.16.11,0-.1,0-.15,0-.2-.05-.29-.11-.58-.17-.87-.08-.41-.17-.81-.26-1.21-.07-.35-.15-.69-.22-1.04-.02-.12-.01-.24-.02-.37.06.04.08.09.09.13.08.36.16.72.24,1.09.06.27.12.54.18.81.06.27.1.54.17.81.06.21.15.43.27.61.3.48.53.99.66,1.54.04.18.11.35.16.52.14.45.41.74.9.76,0,0,.02,0,.03,0,.59.18,1.2.16,1.8.13.22-.01.26-.07.2-.28-.1-.37-.21-.73-.32-1.09-.19-.63-.4-1.25-.59-1.88-.16-.52-.32-1.04-.48-1.56-.2-.64-.4-1.27-.6-1.9-.16-.52-.31-1.04-.47-1.56-.17-.55-.34-1.09-.51-1.63-.26-.83-.52-1.67-.78-2.5-.2-.63-.39-1.25-.6-1.88-.13-.39-.26-.77-.4-1.15-.04-.12-.11-.23-.27-.25-.37-.04-.74-.1-1.11-.14-.63-.07-1.26-.12-1.88-.19-.65-.07-1.31-.15-1.96-.23-.21-.02-.43-.04-.65-.06-.53-.06-1.06-.13-1.6-.19-.67-.08-1.34-.15-2.01-.22-.06,0-.13,0-.24,0,.05.16.1.28.13.4.19.63.38,1.26.58,1.88.2.66.42,1.32.62,1.98.3,1,.6,2,.89,3.01.3,1.04.6,2.07.9,3.11.23.81.46,1.63.7,2.44.21.72.43,1.44.65,2.16.25.82.5,1.64.75,2.45.2.65.4,1.3.59,1.96.26.86.51,1.72.75,2.59.21.73.41,1.46.6,2.2.08.28.12.57.2.86.12.43.24.86.37,1.29.05.18.11.35.15.51.23-.07.42-.14.62-.19.21-.05.42-.09.63-.15.38-.1.76-.22,1.14-.33.21-.06.41-.12.62-.17.29-.07.59-.12.88-.19.28-.07.55-.16.82-.22.44-.11.89-.19,1.33-.3.9-.24,1.8-.5,2.7-.75.18-.05.2-.08.15-.26-.06-.23-.13-.45-.2-.67ZM18.87,10.84s-.07-.04-.08-.06c-.13-.38-.25-.76-.38-1.14-.01-.03,0-.07.01-.13.19.27.47,1.13.44,1.34ZM18.14,7.29c.27.41.54.83.81,1.24.02-.15.05-.29.05-.44,0-.13-.03-.25-.04-.38-.03-.36-.14-.69-.26-1.03-.08-.23-.12-.46,0-.75.08.09.15.15.2.22.31.38.44.84.52,1.31.09.54.16,1.08.23,1.61,0,.05,0,.12-.02.14-.2.17-.16.38-.14.6,0,.04,0,.08,0,.12-.1.05-.15,0-.18-.06-.17-.3-.35-.59-.52-.89-.1-.17-.17-.36-.29-.52-.21-.28-.28-.61-.38-.93-.02-.07-.01-.16.02-.25ZM14.51,3.67c.48.33.88.74,1.27,1.18.14.15.15.34.19.53,0,.03-.02.1-.04.11-.04.01-.1,0-.14-.02-.36-.26-.71-.55-1.02-.87-.21-.22-.39-.46-.52-.73-.04-.07-.06-.16-.09-.25.17-.06.27,0,.36.06ZM13.6,8.04s-.02-.05-.03-.07c.02-.01.03-.02.05-.03.13.18.28.35.39.53.18.3.34.62.52.93.25.43.43.88.56,1.36,0,.03.02.07.01.1-.01.04-.03.09-.06.1-.03.01-.09,0-.12-.03-.03-.02-.05-.07-.07-.11-.42-.93-.84-1.85-1.26-2.78ZM15.23,15.21c-.14.11-.24.09-.28-.09-.04-.2-.07-.41-.08-.61-.01-.56-.01-1.12-.01-1.68,0-.07.01-.15.02-.22.02,0,.04,0,.06,0,.14.32.3.62.33.99.03.35.1.7.17,1.04.05.24-.03.42-.21.57ZM16.09,10.63c-.13-.35-.26-.69-.38-1.04,0-.02-.01-.03-.02-.05-.06-.39-.13-.78-.19-1.17,0-.01.01-.03.04-.07.08.14.15.26.22.38.36.62.6,1.29.88,1.95.09.21.07.29-.05.36-.11.06-.32-.01-.4-.15-.04-.07-.08-.14-.1-.21ZM16.84,17.74c-.05.08-.06.19-.06.29-.01.22.01.45-.02.67-.03.21-.1.42-.17.62-.01.04-.07.07-.11.08-.03,0-.07-.04-.09-.07-.02-.03-.03-.06-.03-.1,0-.4-.03-.82.04-1.21.1-.56.28-1.1.5-1.63.03-.07.08-.14.13-.23.05.06.07.08.07.09-.03.5,0,1.02-.26,1.48ZM18.47,20.96c-.14.47-.13.94-.11,1.42.02.38-.07.74-.15,1.1-.02.09-.07.18-.12.26-.06.1-.17.1-.22,0-.04-.08-.06-.17-.06-.25.01-.34,0-.68.06-1.01.1-.49.24-.97.38-1.45.04-.13.11-.24.17-.36.02,0,.05.01.07.02,0,.09,0,.19-.02.28ZM18.89,17.09s-.09-.02-.11-.05c-.09-.15-.19-.29-.26-.45-.1-.24-.18-.48-.28-.72-.03-.09-.07-.17-.1-.26-.02-.07-.03-.15-.05-.23.02-.01.04-.02.06-.03.06.06.14.11.19.18.18.27.38.54.51.84.09.19.07.44.09.66,0,.02-.04.07-.06.07ZM19.29,21.83s-.12-.08-.13-.12c-.02-.28.02-.55.1-.83.02.03.06.06.06.1.04.24.07.47.1.71.01.09-.04.16-.13.15ZM21.15,24.14c-.01.06-.08.15-.14.16-.05,0-.14-.06-.17-.12-.08-.16-.16-.33-.18-.51-.03-.32-.03-.65-.02-.98,0-.27.03-.53.04-.8,0-.05.02-.1.03-.15.02,0,.04-.02.07-.03.04.08.1.15.13.23.15.54.27,1.09.3,1.65,0,.18-.02.36-.05.54ZM20.92,19.46c.14.09.28.48.29.81-.21-.07-.36-.47-.29-.81ZM23,24.8c-.02.29-.07.58-.13.87-.03.14-.11.27-.28.35-.04-.07-.09-.13-.11-.2-.11-.52-.24-1.03-.2-1.56.02-.31.05-.62.03-.93,0-.25-.07-.49-.1-.74-.02-.11-.04-.23-.05-.34l.09-.02c.21.48.42.96.62,1.45.15.36.15.75.13,1.13ZM23.75,22.22c-.14-.02-.19-.12-.22-.22-.17-.54-.28-1.1-.28-1.67,0-.02.01-.03.02-.06.12-.02.16.06.21.13.14.21.2.44.23.68.05.32.06.65.08.98,0,.05-.03.11-.04.17Z"/>
          <path class="cls-1" d="M37.68,26.17c0-.09.02-.18.02-.28,0-.28-.02-.55,0-.83.01-.22-.1-.38-.22-.54-.06.56.09,1.1.12,1.65.03,0,.06,0,.09,0Z"/>
          <path class="cls-1" d="M30.34,17.78s-.05.02-.07.03c.07.21.14.43.21.64.01.03.09.05.13.04.03-.01.08-.08.07-.11-.04-.24-.14-.45-.34-.6Z"/>
          <path class="cls-1" d="M29.73,17.98l-.04.06c.06.06.12.14.2.19.03.02.09-.01.13-.02-.01-.05,0-.12-.03-.13-.08-.04-.17-.06-.26-.08Z"/>
          <path class="cls-1" d="M28.86,17.87c.04.06.09.11.15.19q.05-.2-.15-.19Z"/>
          <path class="cls-1" d="M37.37,24.03s.06-.07.06-.09c0-.03-.05-.05-.1-.1-.02.05-.05.09-.04.11.02.03.05.06.08.09Z"/>
          <polygon class="cls-1" points="18.39 12.4 18.39 12.39 18.39 12.39 18.39 12.39 18.39 12.4 18.39 12.4"/>
          <path class="cls-1" d="M18.47,12.59c-.03-.06-.05-.13-.08-.19,0,.08-.02.15.08.19Z"/>
          <path class="cls-1" d="M28.19,18s.02.04.04.08c.03-.03.06-.05.07-.08,0-.01-.03-.04-.04-.05-.02.02-.05.03-.07.06Z"/>
        </g>
        <g>
          <path class="cls-4" d="M63.51,45.6c-.13.04-.26.06-.39.11-.08.03-.18.03-.28.05,0-.25.05-.44.25-.57.15-.1.28-.21.42-.32v-.18c-.07.04-.14.07-.23.09.07-.09.15-.17.23-.26v-.61c-.08.07-.17.13-.25.2-.72.62-1.47,1.2-2.21,1.8,0,0-.02-.01-.05-.03.03-.04.07-.08.09-.12.2-.29.36-.58.29-.96-.09-.47-.15-.94-.21-1.41-.07-.54-.12-1.08-.19-1.62,0-.06-.03-.12-.04-.18-.06.05-.08.09-.08.14,0,.38-.01.76.02,1.14.05.63.12,1.26.18,1.89.03.29-.09.56-.21.82-.02.04-.07.08-.11.1-.21.13-.42.28-.64.39-.16.08-.34.16-.51.17-.69.03-1.38.03-2.07.04-.04,0-.09,0-.13-.02-.24-.08-.48-.17-.74-.26,0-.04.01-.09.02-.17-.31-.03-.61-.02-.91-.09.02-.06.03-.1.04-.13.02-.04.05-.07.07-.11.05-.1.03-.17-.08-.19-.05-.01-.1,0-.15-.01-.08-.01-.12-.07-.1-.15.06-.19.11-.38.18-.57.14-.37.28-.74.43-1.11.06-.15.11-.31.17-.46.16-.44.28-.87-.07-1.3-.09-.11-.15-.28-.16-.43-.01-.16-.05-.27-.18-.34-.05-.02-.09-.05-.15-.08.13-.15.24-.26.32-.37.28-.38.56-.77.83-1.16.2-.29.35-.62.36-.96.01-.31-.09-.63-.17-.94-.07-.27-.18-.52-.27-.78-.06-.18-.06-.35-.01-.53.03-.12.05-.26.02-.38-.05-.17,0-.31.09-.43.18-.25.36-.51.55-.76.18-.25.12-.7-.12-.88-.06.04-.12.08-.22.15-.02-.11-.04-.19-.05-.27-.02-.16-.02-.33-.04-.49-.05-.35-.12-.7-.14-1.05-.02-.41-.07-.81-.17-1.2-.1-.39-.21-.78-.45-1.12-.03.01-.05.02-.08.03-.02,0-.05,0-.07,0-.17-.48-.22-.87-.14-1.08.02.06.04.11.06.15.08.3.2.57.4.81.24.29.35.64.44,1.01.09.41.14.82.16,1.23,0,.15.05.29.08.43.01.04.05.08.11.18.03-.14.04-.22.06-.3.02-.11.02-.23.06-.33.1-.2.06-.39,0-.58-.12-.38-.27-.74-.36-1.13-.16-.67-.26-1.34-.34-2.02-.02-.19-.04-.38-.1-.56-.06-.19-.18-.36-.25-.54-.12-.3-.22-.6-.19-.93.02-.19-.05-.35-.15-.51-.25-.41-.57-.77-.79-1.21-.32-.64-.7-1.25-1.04-1.88-.09-.17-.16-.35-.2-.53-.06-.29-.14-.57-.28-.83-.03-.06-.04-.12-.06-.19q.28-.09.38-.22c-.13-.15-.14-.15-.3-.1-.24.07-.24.08-.37-.14-.15-.25-.29-.51-.43-.77-.09-.17-.13-.36-.07-.55.11-.35.22-.71.33-1.06.07-.23.11-.45.08-.69-.03-.29-.08-.33-.37-.33-.41,0-.83.05-1.24-.04-.07-.02-.15,0-.23.03-.42.11-.85.12-1.29.12-.06,0-.12-.03-.18-.05,0-.02,0-.04,0-.06.2-.02.41-.02.61-.07.2-.05.39-.15.58-.22q.45-.18.5-.32c-.36-.04-.72-.09-1.08-.11-.34-.02-.69-.02-1.04-.04-.36-.02-.43-.08-.49-.43-.01-.08-.03-.16-.02-.23.02-.27.03-.54.08-.8.01-.09.08-.19.15-.25.17-.14.37-.26.55-.4.12-.09.23-.21.33-.32.08-.1.15-.21.22-.32.23-.32.48-.63.62-1.01.03-.08.09-.14.15-.21.21-.26.44-.51.65-.78.42-.55.72-1.16.8-1.86.11-1.01.02-2-.38-2.95-.36-.86-.88-1.61-1.56-2.24-.79-.74-1.7-1.31-2.7-1.72-.62-.26-1.25-.46-1.9-.6-.58-.12-1.18-.19-1.77-.22-.78-.04-1.54.05-2.29.24-.69.18-1.36.45-2,.78-1.12.58-2.06,1.36-2.74,2.43-.32.51-.58,1.04-.69,1.64-.02.12-.07.26.04.4.07-.19.12-.35.19-.51.19-.4.35-.81.59-1.18.51-.77,1.18-1.39,1.93-1.93.9-.64,1.89-1.09,2.94-1.38.82-.22,1.67-.29,2.52-.18.08.01.16.04.29.07-.08.05-.1.07-.13.08-.27.04-.54.11-.82.12-.51.03-1.01.15-1.5.27-.23.06-.31.17-.32.41,0,.22,0,.45,0,.67,0,.09,0,.17,0,.26-.02.17-.14.24-.29.17-.08-.04-.16-.1-.22-.17-.1-.1-.17-.22-.27-.31-.25-.25-.68-.15-.8.18-.24.63-.31,1.29-.29,1.96,0,.08-.01.16-.02.24-.16,0-.21-.08-.23-.17-.06-.27-.12-.54-.18-.81-.04-.2-.03-.41-.17-.61-.36.24-.46.64-.69.95-.24.33-.42.7-.58,1.07-.15.36-.31.72-.47,1.09-.13-.06-.12-.16-.11-.24.03-.24.08-.48.11-.72.03-.19.07-.37.1-.56.01-.1.01-.19-.12-.25-.06.07-.13.14-.18.21-.33.5-.6,1.03-.81,1.59-.12.32-.22.66-.36.97-.09.2-.12.37.02.56.01.02,0,.05.01.09-.06.02-.12.06-.18.07-.39.09-.78.17-1.16.25-.24.05-.49.1-.73.17-.37.11-.73.24-1.1.36-.37.13-.75.25-1.12.4-.15.06-.29.18-.41.3-.13.13-.12.24-.02.4.12.18.3.28.49.38.49.26,1.03.35,1.57.39.95.07,1.9.08,2.85-.09.19-.04.38-.02.54.11.43.36.84.74,1.1,1.26.03.07.09.14.15.16.05.02.12-.04.2-.07,0,.06-.02.12-.01.16.02.08.05.17.11.21.08.06.13-.02.18-.09.02-.03.05-.04.08-.06.12.13.13.19,0,.22-.14.03-.16.13-.22.23-.05.11-.11.23-.2.3-.35.27-.45.67-.58,1.05-.08.22.02.42.23.52.08.03.17.03.25.04.23.02.28.06.32.29.01.06.01.12.03.18.06.19.09.4.2.56.34.5.68,1,1.09,1.45.36.39.76.47,1.24.35.06-.01.12-.03.17-.06.39-.18.79-.35,1.18-.53.18-.08.35-.19.53-.27.21-.1.42-.07.61.07.4.29.62.69.7,1.17,0,.05-.02.14-.06.15-.28.11-.44.36-.63.57-.15.18-.26.39-.36.59-.09.18.02.38.26.33.23-.04.47-.03.7-.03.09,0,.19-.02.23.12-.13.09-.27.16-.39.26-.4.33-.79.67-1.18,1.01-.17.15-.34.32-.48.5-.32.39-.55.84-.67,1.33-.08.34-.1.68.08,1.01.09.16.15.17.26.03.26-.33.53-.64.76-.99.31-.48.59-.98.88-1.47.03-.05.1-.11.12-.1.05.03.12.09.12.14,0,.11,0,.23-.04.33-.42.86-.9,1.67-1.59,2.35-.2.19-.36.42-.54.63-.15.18-.19.41-.21.63-.02.26.19.47.44.45.16-.01.33-.04.47-.11.27-.13.57-.22.73-.5.24-.4.47-.81.71-1.21.2-.34.4-.69.6-1.03.01-.02.04-.02.08-.05,0,.06.02.12,0,.16-.2.42-.37.86-.6,1.26-.22.38-.39.79-.55,1.2-.16.39-.61.75-1.03.75-.29,0-.58-.02-.85-.18-.18-.11-.28-.25-.3-.45,0-.1,0-.21-.01-.31-.04-.33-.04-.65.15-.95.06-.09.09-.18.05-.29-.22-.5-.16-1.01-.02-1.5.16-.57.46-1.08.81-1.55.15-.19.29-.39.42-.59.15-.22.14-.45,0-.69-.09-.16-.17-.32-.26-.48-.07-.11-.07-.19.03-.27.06-.05.11-.11.17-.16.24-.2.48-.39.73-.59.06-.05.12-.09.08-.22-.16.08-.31.14-.45.22-.38.22-.76.45-1.13.68-.15.09-.22.24-.21.42,0,.08.01.16.01.23,0,.29,0,.59-.01.88,0,.12-.02.25-.18.29-.02-.05-.04-.1-.05-.14-.06-.36-.11-.72-.17-1.07-.02-.09-.03-.2-.15-.21-.11-.02-.21.04-.26.14-.04.06-.05.14-.06.22-.01.07-.02.15-.03.27-.11-.09-.19-.16-.26-.22-.03.01-.06.01-.08.03-.2.25-.37.52-.37.86,0,.4.1.77.24,1.13.19.5.36,1.01.35,1.55,0,.07-.02.14-.03.27-.08-.09-.12-.11-.14-.16-.21-.43-.44-.86-.64-1.31-.21-.49-.53-.93-.65-1.47,0-.04-.05-.09-.09-.1-.02,0-.08.03-.1.06-.11.14-.17.29-.18.48-.03.46-.07.91-.11,1.37,0,.06-.02.12-.04.18-.22-.44-.37-.9-.58-1.33-.2.07-.25.25-.35.37-.22.25-.34.54-.33.88,0,.09,0,.2-.03.28-.08.19-.03.35.03.53.02.06.05.13.06.2.08.35.15.69.24,1.04.1.4.11.81.17,1.22.01.08.02.15.03.23.04.24.09.47.1.71.03.48.02.97.05,1.45.03.39.08.78.24,1.14.03.06.07.11.13.2.09-.16.13-.28.21-.37.22-.27.46-.54.7-.8.1-.11.24-.2.34-.32.28-.3.63-.33,1.03-.34-.06.28-.11.53-.17.78-.07.26-.16.51-.22.77-.11.44-.21.89-.3,1.34-.21.95-.41,1.89-.61,2.84-.07.34-.19.65-.38.93-.06.1-.17.17-.27.24-.25.17-.53.15-.8.07-.33-.1-.65-.23-.98-.33-.49-.15-.99-.29-1.51-.37-.18-.03-.37-.05-.58,0,.03.06.05.11.08.15.08.08.18.14.26.22.04.04.08.12.07.15-.02.05-.1.12-.15.11-.1-.01-.2-.05-.28-.11-.29-.22-.6-.4-.96-.51-.32-.1-.54-.03-.72.24-.17.27-.29.56-.27.88.02.34.07.69.1,1.03,0,.1.05.2-.08.31-.12-.22-.24-.42-.35-.64-.08-.16-.15-.33-.12-.52.03-.2.07-.39.09-.59,0-.05,0-.11,0-.23-.1.12-.16.19-.21.26-.09.11-.17.22-.26.32-.2.25-.41.49-.6.75-.3.38-.44.8-.39,1.3.03.34.1.66.24.97.09.19.18.38.24.57.07.21.12.43.18.65,0,.04-.01.12-.04.13-.05.02-.12,0-.16-.02-.05-.03-.09-.09-.11-.14-.08-.16-.16-.31-.21-.47-.1-.35-.33-.62-.5-.94,0-.02-.04-.03-.08-.05-.01.02-.03.04-.04.06-.13.38-.26.75-.38,1.13-.11.35-.22.71-.31,1.07-.1.44-.18.88-.28,1.32-.01.07-.05.13-.09.19-.19.33-.4.65-.57.99-.17.33-.38.61-.68.83-.04.03-.07.08-.12.15.38.09.67-.14,1-.19.04.17-.08.24-.14.34-.14.25-.34.38-.64.35-.12-.01-.26,0-.36.08.03.29.06.33.3.39.09.02.19.03.28.03.45,0,.9-.05,1.35-.03.8.02,1.59.08,2.38.12.1,0,.2.05.21.15.03.21.19.24.36.28.15.03.31.05.46.08.05.01.09.06.14.08,0,.02,0,.04,0,.06-.41.12-.84.15-1.26.2-.42.04-.85.06-1.28.09.06.06.13.08.21.09.22.02.45.03.67.04.52.02,1.03.12,1.52.28.11.04.21.09.31.14,0,.02,0,.05,0,.07-.28.03-.53.15-.82.18-.35.04-.7.1-1.05.16-.11.02-.21.09-.38.17.12.07.19.13.26.15.12.03.24.02.36.04.2.02.39.04.59.08.23.04.45.14.68.15.6.02,1.19.02,1.79,0,1.56-.04,3.11-.07,4.67.03.25.02.5.05.72.19.1.06.23.07.35.08.35.02.69.02,1.04.03.11,0,.21.01.32.02,0,.02,0,.04,0,.06-.27.04-.54.07-.8.12-.27.05-.55,0-.81.11.09.19.1.2.29.18.53-.04,1.07-.11,1.6-.15.46-.04.91-.07,1.37-.08.21,0,.47.12.6.25-.62.1-1.22.14-1.82.22-.61.08-1.22.13-1.83.19-.59.06-1.19.07-1.78.21.12.11.27.11.41.11.76,0,1.52,0,2.28,0,1.34,0,2.68-.01,4.02-.02.18,0,.34,0,.47-.17.24-.31.58-.4.94-.41.22,0,.44.05.62.21-.03.03-.04.06-.06.07-.59.25-1.1.61-1.49,1.13-.08.11-.19.16-.34.1-.08-.03-.17-.03-.26-.02-1,.01-2.01.03-3.01.05-.37,0-.74.04-1.11.07-.09,0-.19,0-.27.13.28.05.53.14.78.14.75.02,1.51.01,2.26.01.07,0,.15.01.2-.02.22-.13.46-.13.7-.17.26-.04.52-.06.85-.1-.18.25-.32.46-.46.65.03.03.04.04.04.04.11.01.22.02.33.03,1.05.12,2.11.14,3.16.09.58-.03,1.16-.07,1.74-.1.08,0,.17,0,.24-.12-.21-.01-.39-.02-.57-.03-.18-.02-.37.05-.56-.07.09-.11.19-.08.28-.08.59.02,1.17.05,1.76.05.5,0,1-.02,1.51-.03.13,0,.27,0,.41-.11-.21-.11-.41-.11-.61-.11-1.11-.03-2.21-.05-3.32-.07-.18,0-.32-.04-.44-.18-.13-.16-.28-.31-.41-.47-.17-.2-.36-.36-.62-.45-.12-.04-.26-.07-.37-.23.12,0,.2,0,.28,0,.34.02.67.05,1.01.05,1.51,0,3.03-.01,4.54-.03,1.32,0,2.65-.02,3.97-.04.76-.01,1.52-.09,2.28-.09.92,0,1.85,0,2.77,0v-4.14ZM37.23,9.86c-.91.14-1.79.37-2.68.61-.61.16-1.23.29-1.84.43-.12.03-.25.03-.44.05.07-.1.09-.16.12-.17.43-.18.86-.36,1.3-.52.23-.08.47-.12.7-.17.19-.05.38-.11.57-.15.53-.11,1.06-.22,1.6-.33.19-.04.37-.06.55.04.09.05.21.05.32.08,0,.02,0,.05,0,.07-.07.02-.14.06-.21.07ZM39.83,17.3c-.26-.4-.41-.84-.49-1.3-.08-.5-.11-1.01-.16-1.52,0-.09.02-.18.04-.29.25.07.47.13.71.2-.15.36-.15.72-.15,1.07,0,.35-.03.71.03,1.06.05.34.19.67.29,1.02-.14-.04-.2-.14-.27-.24ZM56.96,38.17c.17.31-.02.7-.37.75-.22.03-.45.03-.67.04-.05,0-.1-.04-.21-.08.09-.07.13-.1.17-.12.21-.1.42-.19.64-.28.11-.05.15-.12.09-.23-.03-.07-.09-.12-.14-.19-.09-.12-.19-.23-.26-.35-.15-.24-.11-.44.13-.7.03.09.07.17.08.25.03.25.11.46.33.62.09.07.16.18.21.29ZM55.82,26.83c.12.16.25.33.36.48-.12.06-.22.12-.33.18-.1-.19-.11-.41-.1-.63.02-.01.04-.02.07-.04ZM54.62,31.43c.11-.31.18-.63.26-.95.02-.09.03-.19.02-.28-.02-.38-.08-.75-.08-1.13,0-.31.06-.62.13-.92.15-.7.1-1.41.08-2.12,0-.09-.07-.2.07-.24.09-.03.13.04.16.21.14.69.2,1.38.2,2.08,0,.64.07,1.28.09,1.91,0,.27-.05.54-.02.8.07.58-.32.98-.55,1.44-.06.12-.15.23-.24.34-.05.06-.13.08-.23.14-.05-.48-.04-.88.11-1.28ZM51.97,18.34c.26-.19.47-.44.74-.71,0,.11.03.18.01.24-.08.44-.27.83-.46,1.23-.05.1-.13.13-.24.09-.3-.12-.61-.23-.91-.35v-.06c.28-.14.59-.26.85-.44ZM51.08,20.42c.21.05.41.11.62.13.34.04.58.22.81.46.55.58,1.01,1.22,1.35,1.95.15.34.35.65.52.98.04.07.07.14.1.22-.02.01-.04.03-.05.04-.1-.1-.21-.19-.31-.29-.5-.5-.98-1.02-1.49-1.51-.42-.4-.81-.83-1.14-1.31-.11-.16-.24-.3-.35-.45-.04-.05-.06-.11-.1-.17.01-.02.03-.03.04-.05ZM49.24,29.47c.08-.32.17-.63.26-.94.03-.11.11-.22.13-.33.09-.39.18-.79.26-1.19.05-.22.11-.45.21-.68.02.05.05.1.05.15,0,.45.02.9-.02,1.35-.03.26-.13.52-.25.75-.21.4-.38.81-.55,1.22-.04.11-.1.21-.15.31-.02,0-.04-.01-.06-.02.04-.21.07-.42.12-.62ZM45.32,19.6c.2-.06.4-.11.6-.14.2-.03.41-.01.62-.02.27-.02.5.1.74.19,0,0,0,.03.02.08-.07.02-.14.05-.21.06-.17.02-.34.03-.52.05-.08,0-.16,0-.23.03-.24.07-.47.16-.71.23-.08.02-.17.02-.26.01-.12-.02-.21-.08-.24-.21-.03-.1.04-.24.17-.29ZM45.28,24.71c.03-.2.06-.39.09-.59-.06,0-.11-.01-.14-.02.14-.39.29-.76.42-1.15.11-.34.32-.58.61-.74.34-.2.7-.38,1.06-.54.28-.13.6-.15.9-.16.06.12-.01.16-.08.21-.29.23-.59.45-.87.69-.15.13-.14.23,0,.37.09.08.18.16.28.24,0,.16-.12.18-.23.2-.26.06-.52.12-.78.19-.11.03-.22.09-.33.13,0,.02.01.05.02.07.05,0,.11.02.16,0,.34-.09.69-.16,1.02-.28.36-.14.73-.12,1.1-.16.06,0,.12.03.22.05-.06.07-.08.12-.12.14-.13.08-.26.18-.4.24-.39.17-.75.39-1.08.66-.56.47-1.04,1-1.2,1.74-.11.5-.21,1-.3,1.5-.07.38-.12.76-.18,1.16-.11-.02-.15-.11-.16-.21-.04-.38-.18-.73-.17-1.12.01-.24-.06-.48-.08-.72,0-.07-.01-.14,0-.2.08-.57.16-1.13.23-1.69ZM40.3,34.42c.09-.6.17-1.2.27-1.79.07-.41.14-.82.23-1.22.04-.17.11-.34.17-.51.14-.41.28-.83.44-1.27.13.08.13.16.11.24-.06.21-.06.41.13.56.04.03.07.09.07.13.02.24.03.48.06.72.01.15.04.31.07.46.05.35.11.7.16,1.05.01.1.01.21,0,.31,0,.05-.07.11-.12.11-.04,0-.11-.05-.13-.09-.05-.15-.08-.3-.11-.45-.04-.19-.07-.37-.11-.56-.02-.07-.05-.13-.1-.25-.39.95-.64,1.89-1.05,2.78-.13-.07-.09-.15-.08-.22ZM36.58,38.38c.13-.37.26-.75.39-1.12.02-.06.05-.11.06-.17.1-.47.43-.68.86-.78.15-.03.3-.07.46-.09.06,0,.12,0,.19.01,0,.02.01.04.02.06-.07.05-.14.12-.22.14-.3.1-.52.29-.73.52-.07.07-.11.18-.15.27-.09.2-.16.4-.25.59-.1.22-.21.43-.32.65-.05.09-.11.17-.17.26-.17-.1-.18-.21-.14-.34ZM40.94,41.02c-.88-.24-1.76-.49-2.65-.71-.71-.18-1.43-.32-2.15-.47-.11-.02-.22-.05-.33-.08-.22-.05-.43-.06-.63.07,0,0-.01.01-.02.01-.33.04-.35.25-.32.52.03.27.04.53.05.8,0,.08-.02.16-.04.28-.34-.18-.41-.57-.75-.71-.2.17-.39.34-.51.59-.07.14,0,.25.06.36.14.26.31.5.43.77.16.34.25.7.29,1.07,0,.04.01.09,0,.13-.04.07-.09.13-.14.2-.05-.05-.11-.09-.15-.15-.2-.33-.37-.66-.58-.98-.14-.22-.19-.22-.4-.09-.11.07-.22.17-.29.29-.33.57-.48,1.19-.39,1.84.03.2.16.39.25.59.03.07.07.14.11.22-.02.02-.04.03-.06.05-.24-.07-.42-.22-.54-.44-.31-.54-.39-1.13-.21-1.73.15-.5.32-1,.58-1.47.17-.3.26-.64.43-.94.31-.56.69-1.08,1.17-1.51.52-.47,1.15-.62,1.83-.55.27.03.55.06.8.21.25.15.54.19.82.24.74.13,1.42.42,2.09.75.42.21.83.42,1.25.64.1.05.19.11.3.18-.1.1-.19.07-.27.04ZM44.96,34.31c-.09.15-.19.29-.31.42-.53.55-1.16.98-1.84,1.34-.64.34-1.32.56-2.02.7-.35.07-.7.13-1.03.26-.31.12-.64.21-.96.31-.22.07-.46.06-.66.2-.04.03-.12,0-.21,0,.16-.49.53-.65.91-.78,1.06-.36,2.14-.67,3.17-1.12.35-.15.68-.34,1-.54.41-.26.8-.55,1.19-.83.18-.13.39-.19.61-.19.18,0,.24.09.15.25ZM51.81,35.07s-.04-.08-.04-.11c0-.28-.15-.49-.37-.65-.55-.42-1.12-.79-1.74-1.08-.08-.04-.15-.08-.23-.12-.18-.09-.36-.14-.57-.13-.34.02-.68,0-1.01.01-.31.01-.6-.08-.87-.22-.42-.22-.83-.46-1.25-.69-.03-.02-.06-.05-.09-.05-.07,0-.17-.01-.21.03-.04.04-.04.16,0,.21.2.28.38.59.63.82.48.45.99.86,1.61,1.11.34.14.65.35.99.52.37.18.76.33,1.12.53.37.2.72.44,1.07.68.21.14.26.36.27.61,0,.31-.35.57-.66.4-.22-.12-.44-.24-.65-.37-.96-.61-1.92-1.23-2.88-1.84-.71-.45-1.43-.9-2.15-1.35-.07-.05-.15-.09-.22-.13-.37-.22-.48-.48-.3-.96.17-.43.45-.79.77-1.13.11-.11.19-.27.26-.41.08-.18.14-.37.2-.56.12,0,.09.13.14.19.04.05.1.12.14.11.11,0,.1-.11.08-.18-.03-.18-.07-.36-.11-.53-.11-.5.01-.97.31-1.35.43-.55.93-1.04,1.4-1.56.23-.26.47-.5.77-.68.05-.03.1-.05.18-.1-.06.21-.17.34-.29.46-.3.31-.56.66-.76,1.04-.04.08-.09.17-.16.24-.31.32-.54.7-.76,1.08-.15.26-.22.56-.32.84-.02.06,0,.13,0,.2.02,0,.04.01.06.02.17-.22.33-.45.53-.65.19-.19.42-.35.68-.55-.04.27-.19.39-.34.51-.28.22-.54.46-.74.75-.12.18-.13.26,0,.44.26.37.63.61,1.01.84.95.57,2,.94,2.97,1.48.27.15.56.25.87.32.24.05.47.21.69.35.12.08.2.21.23.36.01.08.05.17.08.24.17.35.04.78-.32,1.01ZM52.82,28.29c-.14.53-.32,1.06-.56,1.56-.19.38-.41.76-.57,1.16-.15.4-.42.71-.67,1.03-.07.09-.14.2-.31.21,0-.07-.01-.13,0-.18.06-.18.13-.36.21-.53.2-.43.42-.85.62-1.28.26-.55.51-1.11.77-1.66.12-.24.26-.47.39-.7.02-.04.03-.08.05-.12.03.02.05.04.08.06.06.15.02.3-.02.45ZM52.5,24.73c-.24-.28-.49-.56-.74-.83-.13-.15-.28-.28-.42-.43-.06-.07-.13-.13-.17-.24.05,0,.11-.01.16.01.28.14.55.29.82.43.23.12.45.26.69.35.52.21.96.52,1.18,1.06.07.18.12.38.16.57.11.54.21,1.08.32,1.63.01.07,0,.14,0,.23-.05-.03-.07-.04-.08-.05-.18-.61-.55-1.11-.92-1.61-.3-.4-.65-.76-.98-1.13ZM54.3,46.41c.22-.24.26-.26.48-.15-.16.11-.31.15-.48.15ZM54.79,34.31c.02-.05.02-.11.05-.15.29-.39.57-.78.87-1.16.19-.24.27-.5.27-.81.01-.5-.09-.98-.14-1.47-.03-.36-.05-.72-.07-1.09,0-.05.01-.1.02-.19.07.05.13.07.14.11.16.47.31.95.46,1.43.15.5.21,1.01.29,1.53.08.52.05,1.03-.05,1.55-.06.33-.26.6-.5.83-.05.05-.11.08-.18.11-.03.01-.11,0-.11,0-.02-.04-.02-.11,0-.13.15-.17.26-.37.32-.59.1-.32.08-.66.14-1.04-.66.25-.95.85-1.49,1.13-.02-.01-.03-.03-.05-.04Z"/>
          <path class="cls-4" d="M43.57,22.55c-.01-.06-.05-.12-.03-.16.06-.11.13-.22.29-.21q-.04.22-.26.36Z"/>
          <path class="cls-4" d="M8.11,50.32c-1.2-.17-2.41-.25-3.62-.29-.99-.04-1.99-.06-2.98-.08v.9c.83-.01,1.65-.03,2.48-.04.79-.02,1.58-.02,2.36-.06.88-.06,1.76-.16,2.63-.24.05,0,.1-.02.15-.04-.09-.06-.17-.07-.25-.08-.26-.02-.52-.02-.78-.06Z"/>
          <path class="cls-4" d="M13.11,49.74c-.06-.02-.12-.05-.19-.05-.7-.08-1.41-.18-2.12-.23-.81-.05-1.63-.08-2.44-.08-2.29,0-4.58.03-6.87.1v.31c.85,0,1.71,0,2.56.02,1.4.03,2.8.07,4.2.1.8.02,1.61,0,2.41.03.72.02,1.44.04,2.15-.07.09-.01.19-.05.28-.07,0-.02,0-.04,0-.06Z"/>
          <path class="cls-4" d="M61.04,52.7s-.09-.04-.14-.04c-.36-.03-.72-.08-1.09-.09-1.3-.02-2.6-.04-3.89-.04-2.23,0-4.45.08-6.67.24-1.05.07-2.11.08-3.17.08-1.57,0-3.13-.02-4.7-.05-.54,0-1.07-.06-1.61-.09-.18-.01-.2-.04-.18-.23.02-.13-.02-.23-.11-.33-.2-.23-.42-.28-.75-.15-.13.05-.21.13-.23.28-.05.28-.28.45-.47.63-.03.03-.1.03-.15.03-.31-.02-.63-.01-.93-.07-.46-.08-.91-.21-1.38-.2-.06,0-.12-.03-.24-.05.2-.09.37-.12.47-.22.21-.19.47-.28.73-.38.09-.03.17-.08.17-.21-.05,0-.09,0-.13,0-.46.06-.92.13-1.39.2-.38.05-.75.1-1.11.25-.24.1-.5.15-.75.2-.06.01-.18,0-.2-.05-.08-.12-.17-.1-.27-.08-.1.02-.22.05-.3.02-.24-.1-.48-.22-.71-.34.07-.07.13-.09.2-.11.41-.1.83-.19,1.23-.3.41-.12.8-.28,1.08-.63.06-.08.18-.13.28-.16.25-.07.47-.19.66-.37-.07-.13-.17-.09-.26-.09-.3,0-.59-.05-.88-.18-.43-.2-.89-.34-1.38-.33-.41,0-.83.02-1.24.04-.08,0-.16.06-.23.1-.23.14-.47.15-.72.09-.13-.03-.27-.06-.41-.06-.49.01-.99.03-1.48.06-.54.03-1.09.08-1.63.12-.33.02-.65.05-.98.08-.17.02-.3-.02-.42-.14-.07-.07-.17-.11-.27-.15-.38-.15-.8-.17-1.2-.2-.69-.04-1.38-.06-2.08-.07-.43,0-.86-.04-1.29-.12-.24-.05-.31-.12-.3-.37,0-.1,0-.21.01-.31.02-.21.06-.24.26-.21.31.04.62.08.93.09,1.16.06,2.32.11,3.47.16,1.06.04,2.13.07,3.19.1.47.01.94,0,1.39-.11.19-.05.37-.04.57-.03.19.01.4.04.56-.03.27-.12.52-.08.79-.06.51.03,1.02.06,1.53.08.05,0,.1-.02.15-.04-.05-.06-.09-.08-.14-.09-.42-.05-.84-.1-1.26-.14-.49-.05-.98-.08-1.47-.12-.08,0-.17-.04-.25-.07-.4-.12-.77-.29-1.2-.32-.47-.03-.93-.09-1.39-.14-.3-.03-.42-.15-.4-.45,0-.18.05-.35.09-.53,0-.04.05-.1.09-.11.18-.03.37-.04.55-.06,0,.02.01.04.02.06-.08.04-.15.09-.23.12-.09.03-.18.03-.27.05.21.08.4.08.6.03.46-.12.92-.23,1.38-.35.16-.04.32-.09.45-.22-.13-.02-.26-.02-.38,0-.21.02-.43.05-.64.07-.46.04-.93-.03-1.4.07-.15.03-.22-.04-.21-.21,0-.61.02-1.21.03-1.82.02-.69.05-1.38.06-2.08,0-.23-.05-.46-.08-.69-.02-.17-.04-.34-.04-.51.01-.37.2-.69.35-1.02.12-.26.08-.37-.2-.43-.34-.08-.68-.13-1.02-.19-.07-.01-.14-.01-.21-.03-.15-.04-.18-.1-.13-.24.14-.39.29-.78.42-1.17.17-.48.35-.96.5-1.44.29-.94.57-1.89.85-2.83.22-.73.43-1.46.65-2.19.06-.19.1-.38.17-.57.05-.14.15-.27.18-.42.05-.19.12-.33.28-.44.08-.05.13-.16.18-.25.32-.61.41-1.28.38-1.96,0-.04,0-.09-.02-.13-.06-.18-.21-.24-.36-.13-.11.08-.21.18-.29.29-.4.55-.5,1.18-.52,1.84,0,.06,0,.12,0,.18-.18.89-.49,1.75-.75,2.61-.15.48-.31.95-.47,1.43-.24.7-.48,1.41-.73,2.11-.03.09-.05.2-.18.25-.02-.05-.03-.08-.03-.11-.05-.33-.09-.67-.15-1-.14-.73-.27-1.46-.43-2.19-.21-.93-.44-1.86-.66-2.8-.06-.24-.11-.49-.21-.72-.24-.56-.23-1.17-.32-1.76-.02-.12.05-.19.18-.21.25-.04.49-.08.74-.14.19-.04.35-.13.44-.33.05-.11.13-.2.22-.29.04-.04.12-.09.18-.08.2.04.36-.06.52-.13.34-.15.43-.48.18-.76-.13-.15-.2-.32-.26-.5-.05-.15-.07-.3-.11-.45-.15-.52-.3-1.05-.45-1.57-.2-.7-.4-1.4-.6-2.09-.21-.74-.43-1.48-.64-2.22-.05-.16-.09-.31-.13-.47.05-.03.08-.05.11-.05.29-.03.58-.07.88-.1.56-.06,1.13-.11,1.69-.25.08.13.05.28.04.42-.02.34.11.62.33.87.1.12.19.26.31.35.36.24.45.58.46.98.01.35.17.65.45.87.1.07.19.15.28.23.43.36.87.71,1.29,1.09.33.3.62.62.93.94.82.84,1.64,1.69,2.54,2.44.69.58,1.44,1.07,2.26,1.46.29.14.55.08.82,0,.21-.06.44-.09.66-.13.13-.02.23.02.29.16.02.04.08.06.14.11.09-.18.02-.31,0-.45-.01-.09-.06-.19-.04-.28.05-.21-.01-.41-.06-.61-.09-.39-.18-.77-.26-1.16-.06-.28-.11-.56-.16-.84-.02-.12-.04-.24-.04-.35.01-.29-.1-.54-.26-.77-.03-.04-.08-.08-.12-.09-.23-.05-.46-.12-.69-.12-.32,0-.64.04-.95.08-.12.02-.19-.01-.27-.09-.13-.11-.27-.2-.42-.29-.21-.12-.44-.21-.64-.34-.51-.34-1.01-.69-1.51-1.06-.23-.17-.44-.36-.64-.56-.17-.17-.28-.37-.34-.61-.1-.46-.17-.92-.13-1.39,0-.12.02-.24.02-.36.01-.22-.02-.43-.17-.61-.03-.04-.05-.1-.08-.17.42-.05.81-.09,1.21-.13.66-.07,1.33-.13,1.99-.19.47-.04.93-.08,1.4-.12.2-.02.4-.04.59-.07.07-.01.14-.03.19-.07.05-.04.1-.12.08-.17-.02-.06-.08-.12-.14-.16-.04-.02-.1,0-.15,0-.17.02-.34.04-.52.05-.96.08-1.91.15-2.87.23-.72.06-1.43.12-2.15.19-.24.02-.44-.03-.59-.23-.06-.08-.13-.14-.2-.21-.09-.1-.21-.14-.35-.15-.28,0-.49.12-.7.3-.08.07-.19.13-.29.15-.19.02-.38.01-.57,0-.17-.01-.29.02-.36.18-.02.04-.05.08-.09.09-.18.04-.26.19-.35.32-.11.15-.3.15-.42.01-.03-.03-.05-.07-.07-.09-.29.03-.56.05-.84.07-.34.04-.69.08-1.03.12-.15.02-.29.03-.44.06-.19.04-.25,0-.3-.18-.15-.49-.29-.98-.44-1.46-.23-.78-.47-1.56-.71-2.33-.21-.69-.42-1.37-.64-2.05-.12-.39-.23-.78-.35-1.17-.14-.46-.29-.92-.43-1.39-.12-.38-.22-.76-.33-1.14-.25-.81-.5-1.62-.75-2.43-.16-.51-.32-1.02-.48-1.53-.16-.52-.33-1.04-.49-1.56-.09-.29-.18-.58-.4-.8-.13-.13-.26-.24-.46-.27-.4-.04-.79-.1-1.18-.15-.5-.07-.99-.13-1.49-.2-.5-.07-.99-.15-1.49-.21-.28-.03-.43-.2-.5-.45-.03-.09-.06-.18-.08-.27-.07-.32-.29-.44-.6-.47-.52-.06-1.05-.13-1.57-.2-.07,0-.14-.02-.21-.01-.2.02-.33.18-.28.38.03.11.08.21.12.32.02.07.03.14.05.23-.11,0-.18,0-.24,0-.69-.09-1.37-.18-2.06-.26-.43-.05-.86-.12-1.29-.14-.54-.02-.84.4-.67.91.11.33.21.66.31.99.21.69.4,1.38.61,2.06.24.79.5,1.58.74,2.38.27.87.53,1.73.79,2.6.05.18.12.38.09.55-.16.81-.34,1.6-.53,2.4-.15.63-.31,1.26-.46,1.89-.16.7-.32,1.4-.48,2.1-.15.65-.31,1.29-.46,1.94-.12.49-.23.97-.35,1.46-.1.42-.21.84-.31,1.26-.17.72-.33,1.43-.5,2.15-.1.43-.22.85-.32,1.28-.22.9-.43,1.8-.65,2.7-.15.6-.3,1.21-.45,1.81-.16.65-.31,1.29-.47,1.94-.12.49-.24.97-.36,1.46-.1.39-.19.79-.28,1.18-.17.7-.34,1.39-.51,2.09-.16.65-.31,1.29-.47,1.94-.11.46-.23.92-.34,1.39-.15.62-.3,1.24-.45,1.86-.12.5-.24.99-.36,1.49-.11.46-.23.92-.34,1.39-.11.47-.21.95-.3,1.42-.07.37-.12.75-.21,1.12-.02.08-.03.16-.04.23v2.47s.06-.08.07-.11c.09-.15.18-.31.28-.46.05-.09.13-.17.16-.26.14-.35.28-.71.39-1.07.17-.57.32-1.15.47-1.73.16-.6.32-1.2.48-1.8.17-.64.32-1.29.49-1.93.1-.4.21-.8.31-1.21.16-.66.31-1.33.47-1.99.17-.71.34-1.43.51-2.14.11-.45.2-.91.31-1.36.16-.66.32-1.31.48-1.96.15-.59.29-1.17.44-1.76.09-.34.27-.62.6-.77.21-.1.42-.21.64-.29.97-.36,1.95-.72,2.92-1.07.85-.31,1.71-.61,2.56-.92.22-.08.43-.15.66-.22.1.21.1.41.08.61-.05.85-.11,1.71-.15,2.56-.05,1.22-.07,2.44-.12,3.66-.07,1.71.02,3.42.24,5.14.16,0,.33,0,.5,0,.71.02,1.42.04,2.13.06.99.02,1.97.03,2.96.05.07,0,.14.02.22.03-.02.18-.13.18-.24.18-.24-.01-.48-.05-.72-.05-.83,0-1.66,0-2.49,0-.42,0-.85,0-1.27.01-.13,0-.26,0-.33.15.09.15.23.18.38.2.47.05.95.09,1.42.13.2.02.24.06.23.29,0,.2-.06.25-.25.25-.2,0-.4,0-.6-.01-.39,0-.78,0-1.17-.03-.26-.02-.52-.08-.77-.12,0-.02,0-.04,0-.05.1,0,.2,0,.3,0,.26,0,.52,0,.78-.01.08,0,.15-.04.23-.06v-.06c-.11-.01-.21-.03-.31-.04-.24-.02-.48-.02-.73-.05-.38-.05-.76-.12-1.09-.36-.1.06-.1.16-.07.25.02.07.04.13.07.19.24.45.52.88.68,1.37.02.05.09.09.13.13.02,0,.04-.02.05-.03,0-.06,0-.13,0-.19,0-.07-.02-.14-.02-.21,0-.24.08-.31.32-.27.62.1,1.24.13,1.86.14.11,0,.22,0,.34,0,.23,0,.26.04.28.27,0,0,0,.02,0,.03.03,1.07.06,2.14.09,3.22,0,.18-.06.24-.24.2-.61-.13-1.24-.13-1.86-.19-.51-.04-.57-.1-.58-.61-.02-.49-.05-.98-.08-1.48,0-.1-.04-.19-.06-.29-.02,0-.04,0-.07,0-.02.16-.05.32-.05.48,0,1.21.02,2.42.03,3.63,0,.83,0,1.66.02,2.49,0,.26.04.29.31.3.27.01.54,0,.8.05.74.13,1.48.11,2.23.07.57-.03,1.13.05,1.7.11.03,0,.05.04.14.1-.13.04-.2.06-.27.08-.12.03-.24.05-.35.09-.75.25-1.52.41-2.28.59s-1.53.35-2.3.52c-.42.09-.84.19-1.27.28-.42.09-.85.16-1.27.24-.1.02-.21.03-.3.07-.05.02-.07.08-.11.12.04.03.08.09.13.1.18.02.36.04.54.04.81.01,1.63.04,2.43-.11.63-.12,1.26-.22,1.89-.34.38-.07.76-.17,1.14-.25.51-.11,1.01-.24,1.52-.33.4-.07.81-.17,1.21-.13.42.03.86.09,1.26.26.24.1.49.17.73.25-.01.07-.02.12-.03.18.81.11,1.62.02,2.41.21-.18.03-.36.04-.54.05-.6.02-1.19.04-1.79.07-.07,0-.14.03-.2.05,0,.02,0,.05,0,.07.1.04.2.08.3.1.15.03.31.04.46.06.13,0,.23.06.29.22-.21.04-.4.07-.55.1-.12.11-.21.18-.31.28.19.04.4-.01.48.17.17-.01.31-.03.45-.04.13,0,.26,0,.39,0,.06,0,.13,0,.17.02.11.09.22.06.34.02.08-.03.17-.03.25-.04.26-.02.52-.03.78-.04.79-.03,1.57-.05,2.36.07.22.03.45.02.67.02.39.01.78.02,1.17.04.07,0,.14.03.24.06-.16.1-.16.1-.26.11-.51.02-1.02.04-1.53.06-.86.04-1.7.18-2.54.35-.45.09-.89.21-1.34.3-.07.02-.14,0-.26,0,.03-.27.05-.5.08-.74-.03,0-.08-.02-.13-.02-.39.02-.79.06-1.18-.04-.03,0-.07,0-.1,0-.48.01-.95.02-1.43.03-.09,0-.19-.02-.28-.03-.16-.03-.32-.06-.47.06-.04.03-.11.02-.17.03-.09,0-.19,0-.29.01-.7.06-1.4.12-2.09.17-.22.02-.44.02-.65-.06.13-.04.27-.06.4-.08.12-.02.27,0,.39-.18-.17-.01-.28-.01-.4-.03-.39-.08-.78-.09-1.18,0-.43.09-.88.09-1.31.15-.73.09-1.46.19-2.19.29-.15.02-.29.1-.48.16.08.09.12.16.18.2.13.1.27.14.43.15.35.01.69-.02,1.03-.09.45-.09.9-.15,1.35-.23.4-.07.8-.15,1.2-.21.05,0,.1.02.22.04-.2.13-.34.23-.52.35.09.02.13.04.17.04.24,0,.49,0,.73-.02.68-.08,1.36-.16,2.04-.13.1,0,.21,0,.31-.01.14-.02.27-.05.41-.08.15-.03.3-.07.45-.08.61-.03,1.23.03,1.84-.07.23-.04.46-.05.7-.06.11,0,.21,0,.32-.08.12-.09.21-.02.21.13,0,.08-.03.18,0,.25.03.08.11.13.17.21-.11.05-.23.07-.3-.02-.06-.08-.07-.21-.1-.33-.13-.03-.28-.11-.4,0-.11.1-.21.13-.34.14-.06,0-.13.05-.19.07-.15.06-.3.13-.46.17-.16.04-.3.1-.45.22.06.06.11.11.16.17-.04.02-.05.03-.07.03-.53.08-1.02.27-1.49.51-.17.09-.37.13-.57.18-.18.04-.36.07-.53.09-.05,0-.11-.01-.17-.02.06-.18.1-.34.15-.49.08-.25-.04-.42-.31-.41-.1,0-.21.02-.31.03-.27,0-.54.13-.82.02-.04-.01-.11.05-.16.09-.03.03-.05.08-.07.12-.03-.02-.06-.02-.06-.03-.01-.03-.03-.06-.03-.1,0-.23,0-.24-.24-.25-.52,0-1.04-.02-1.56,0-.36.01-.72.07-1.08.12-.18.02-.2.06-.2.21,0,.29,0,.57,0,.86,0,.28.13.44.4.48.31.05.62.08.92.12.05,0,.11.02.16.03,0,.02,0,.04,0,.06-.12.02-.24.05-.37.05-.52,0-1.04.02-1.56,0-1.72-.04-3.44-.02-5.16.08-.28.02-.55.03-.83.04-.26.01-.6.09-.78.19.14.01.24.03.34.03.48.01.95.03,1.43.04,1.76.03,3.51.07,5.27.1,1.06.02,2.11.03,3.17.05.13,0,.26,0,.39.03.48.07.96.07,1.45.01.62-.07,1.24-.12,1.86-.18.2-.02.4-.02.59-.06.36-.07.71-.16,1.06-.25.2-.05.39-.13.59-.19-.15-.05-.3-.06-.44-.05-1.1.08-2.19.16-3.29.24-.1,0-.21,0-.31-.01-.07,0-.15-.03-.14-.12,0-.04.08-.09.13-.1.39-.08.78-.15,1.17-.21,1.05-.17,2.1-.33,3.15-.5.47-.08.93-.18,1.4-.26.59-.11,1.19-.22,1.78-.33.11-.02.23-.04.34-.16-.08-.02-.12-.03-.16-.04-.6,0-1.19-.03-1.79.05-.37.05-.74.06-1.11.09-.04,0-.08-.02-.12-.04.09-.06.18-.09.27-.1.28-.03.55-.07.79-.21.09-.06.21-.08.32-.11.44-.1.88-.2,1.32-.28.48-.09.95-.2,1.43-.21.89-.03,1.78,0,2.67.02.05,0,.09.03.14.05-.06.21-.22.29-.38.34-.43.14-.85.28-1.29.38-.68.16-1.34.35-1.98.6-.89.34-1.78.67-2.71.89-.45.1-.89.22-1.33.33-.45.11-.9.23-1.35.34-.52.13-1.04.25-1.56.37-.3.07-.61.15-.91.18-.21.02-.34.1-.4.3-.02.06-.06.11-.08.16-.09.19-.05.31.12.42.12.08.24.07.37.01.17-.07.35-.15.53-.21.56-.16,1.12-.31,1.68-.46.48-.13.95-.25,1.43-.38.55-.15,1.1-.31,1.64-.47.25-.07.49-.21.76-.09.01,0,.03,0,.05,0,.6.02,1.21.06,1.81.04,1.06-.02,2.11-.07,3.17-.12.19,0,.37-.06.56-.11.46-.11.92-.24,1.38-.35.04,0,.07-.02.11-.03-.13-.06-.27-.08-.4-.07-.52.04-1.03.03-1.55.02-1.14-.03-2.28-.03-3.43-.04-.1,0-.2.03-.3-.07.1-.05.17-.09.25-.12.31-.12.61-.23.92-.34.11-.04.21-.08.32-.11.44-.12.88-.25,1.32-.37.28-.07.57-.16.86-.19,1.02-.11,2.03-.19,3.05-.28.14-.01.28-.01.41-.03.09,0,.2-.01.21-.15-.31-.14-.66-.03-1-.08.03-.06.04-.08.05-.1.19-.22.44-.24.71-.25.07,0,.14-.02.21-.02-.03-.17-.14-.17-.23-.17-.21,0-.41.02-.62.01-.28,0-.57-.02-.85-.05-.11-.01-.23-.05-.3-.22.11,0,.19-.01.28-.02.25,0,.5-.02.75-.02.43,0,.86,0,1.3,0,.05,0,.11,0,.15.02.06.04.15.09.16.15.01.06-.04.14-.09.19-.05.04-.13.05-.19.08-.04.02-.1.06-.1.09,0,.05.04.13.08.15.08.03.17.04.25.05.44.04.88.07,1.32.12.3.03.31.03.42-.24.37-.1.75-.2,1.14-.18.39.03.79.02,1.2.02-.03.08-.06.13-.09.21.14.06.26.13.38.18.33.12.67.17,1.02.17,1.13-.02,2.27-.03,3.4-.04.13,0,.27,0,.41-.12-.57-.11-1.11-.09-1.64-.12-.54-.03-1.07-.05-1.61-.09-.53-.04-1.06,0-1.59-.11.09-.04.18-.05.28-.06.53-.05,1.07-.07,1.6-.16.84-.14,1.69-.15,2.53-.21,1.19-.07,2.39-.08,3.58-.11,1.76-.05,3.51-.09,5.27-.14,2.33-.07,4.66,0,6.98-.17.88-.06,1.76-.11,2.64-.16.08,0,.15-.03.23-.05,0-.02,0-.04,0-.06ZM37.48,24.52c.12.16.23.32.22.54-.02.27,0,.55,0,.83,0,.09-.02.18-.02.28h-.09c-.03-.55-.18-1.09-.12-1.65ZM30.34,17.78c.21.14.3.36.34.6,0,.03-.04.1-.07.11-.04.01-.12-.01-.13-.04-.08-.21-.14-.43-.21-.64.02,0,.05-.02.07-.03ZM16.43,41.59s-.07,0-.1,0c-.73,0-1.45-.06-2.16-.16-.03,0-.06-.03-.08-.04,0-.02,0-.04,0-.07.2,0,.39,0,.59,0,.56.01,1.12.03,1.68.05.03,0,.06,0,.08,0,.04.02.08.06.11.09-.04.04-.07.08-.12.11ZM24.6,41.52c.14-.12.25-.08.35-.05.36.12.72.24,1.1.29.02,0,.04.03.1.09-.59.09-1.05-.09-1.55-.32ZM23.8,40.36c-.26,0-.51.03-.76.12-.32.11-.74-.12-.79-.42-.03-.15.03-.21.16-.16.34.14.71.14,1.06.19.28.04.57.03.85.04.14,0,.26.02.33.23-.31,0-.58,0-.85,0ZM26.78,39.99c.12.02.23.05.32.16-.08.11-.19.07-.28.06q-1.17-.11-1.35-.29c.18-.07.75-.04,1.31.06ZM24.99,33.76c.19.66.41,1.3.61,1.95.16.53.32,1.06.48,1.58.07.22.03.43-.04.64-.12.37-.24.74-.36,1.11-.05.15-.14.22-.32.21-.35-.02-.71-.04-1.06-.06-.19-.01-.21-.04-.21-.24-.01-.89-.03-1.78-.03-2.67,0-1.54,0-3.08,0-4.62,0-.31.02-.62.02-.93h.06c.08.22.17.44.23.67.21.78.4,1.57.63,2.35ZM14.01,25.25c0,.22-.03.43-.05.65-.03.28-.19.48-.46.58-.66.23-1.33.45-1.99.67-.51.17-1.02.33-1.53.5-.76.24-1.51.48-2.27.73-.13.04-.26.1-.39.14-.24.08-.32,0-.28-.24.04-.2.08-.41.13-.61.17-.7.35-1.39.53-2.09.21-.86.42-1.71.63-2.57.16-.65.3-1.31.46-1.97.16-.66.32-1.31.48-1.96.11-.45.21-.89.31-1.34.17-.7.34-1.39.5-2.09.15-.66.3-1.31.45-1.97.05-.22.11-.44.15-.66.05-.24.08-.48.13-.71.01-.06.03-.11.05-.16.14.02.15.12.18.21.27.93.54,1.86.8,2.79.25.87.48,1.75.73,2.62.15.52.32,1.04.48,1.56.15.49.29.98.44,1.46.16.56.33,1.11.48,1.67.05.16.08.34.08.51,0,.76-.01,1.52-.03,2.28ZM13.53,14.48c-.24-.81-.47-1.63-.7-2.44-.3-1.04-.6-2.08-.9-3.11-.29-1-.59-2.01-.89-3.01-.2-.66-.41-1.32-.62-1.98-.19-.63-.38-1.26-.58-1.88-.04-.12-.08-.24-.13-.4.11,0,.17,0,.24,0,.67.07,1.34.15,2.01.22.53.06,1.06.13,1.6.19.21.02.43.04.65.06.65.07,1.3.15,1.96.22.63.07,1.26.12,1.88.19.37.04.74.1,1.11.14.16.02.22.12.27.25.14.38.27.76.4,1.15.2.62.4,1.25.6,1.88.26.83.52,1.67.78,2.5.17.54.35,1.09.51,1.63.16.52.31,1.04.47,1.56.2.64.4,1.27.6,1.9.16.52.32,1.04.48,1.56.19.63.4,1.25.59,1.88.11.36.22.73.32,1.09.06.21.02.27-.2.28-.61.03-1.21.05-1.8-.13,0,0-.02,0-.03,0-.49-.02-.77-.31-.9-.76-.05-.17-.12-.34-.16-.52-.13-.55-.36-1.06-.66-1.54-.12-.19-.2-.4-.27-.61-.08-.26-.12-.54-.17-.81-.06-.27-.12-.54-.18-.81-.08-.36-.16-.72-.24-1.09-.01-.05-.03-.09-.09-.13,0,.12,0,.25.02.37.07.35.15.69.22,1.04.09.4.17.81.26,1.21.06.29.12.58.17.86,0,.05,0,.1,0,.2-.07-.05-.13-.07-.16-.11-.18-.22-.19-.5-.25-.76-.16-.78-.31-1.56-.46-2.34-.07-.37-.26-.68-.48-.97-.13-.17-.22-.34-.23-.56,0-.12-.04-.24-.06-.36-.02-.06-.04-.13-.09-.18-.11-.13-.27-.19-.37-.13-.13.08-.13.2-.12.34.04.52.19,1.02.37,1.5.04.09.06.19.08.29-.18-.08-.21-.28-.3-.42-.07-.11-.12-.24-.19-.36-.04.03-.06.04-.06.05,0,.19,0,.37-.21.48-.04.02-.04.2-.01.29.12.34.25.68.41,1.01.21.44.45.86.67,1.29.02.05.05.09.07.14,0,.02,0,.05,0,.12-.08-.09-.14-.14-.19-.2-.36-.39-.72-.77-1.08-1.16-.12-.13-.24-.25-.33-.4-.21-.35-.51-.6-.78-.9-.02-.03-.05-.05-.08-.06-.01,0-.03,0-.08,0,.02.07.03.13.06.19.49.83.99,1.66,1.7,2.34.25.24.49.49.77.68.21.15.29.38.4.6.34.65.66,1.31.99,1.97.12.24.29.44.55.57.57.28,1.13.56,1.69.84.19.09.39.13.61.11.33-.03.48-.16.57-.48.22-.06.46-.12.69-.19.12-.03.2,0,.23.13.07.26.16.51.23.77.17.58.34,1.16.51,1.74.16.55.31,1.1.47,1.65.2.71.4,1.41.6,2.12.06.22.14.44.2.67.05.18.02.21-.15.26-.9.25-1.79.51-2.7.75-.44.12-.89.2-1.33.3-.28.07-.55.16-.82.22-.29.07-.59.12-.88.19-.21.05-.41.11-.62.17-.38.11-.76.22-1.14.33-.21.06-.42.09-.63.15-.2.05-.39.12-.62.19-.05-.16-.1-.34-.15-.51-.12-.43-.25-.86-.37-1.29-.08-.28-.12-.57-.2-.86-.2-.73-.4-1.47-.6-2.2-.25-.86-.5-1.73-.75-2.59-.19-.65-.39-1.31-.59-1.96-.25-.82-.5-1.64-.75-2.45-.22-.72-.44-1.44-.65-2.16ZM18.03,39.69c-1.17,0-2.33,0-3.5-.01-.29,0-.32-.06-.3-.35.04-.65.08-1.29.12-1.94.04-.83.09-1.66.12-2.49.04-1.05.07-2.11.1-3.16.01-.4.04-.81.04-1.21,0-.32-.02-.64,0-.96.01-.41.05-.82.08-1.24.03-.51.04-1.02.06-1.53,0-.25,0-.5,0-.75,0-.08.01-.16.02-.25.02,0,.04,0,.05-.01.05.09.11.17.14.26.05.2.09.4.13.6.05.23.1.46.17.68.12.37.2.74.27,1.12.06.3.11.61.22.9.11.29.14.6.2.9.05.22.09.44.15.66.17.66.35,1.32.52,1.98.1.36.19.72.28,1.08.11.43.22.85.33,1.28.13.52.26,1.04.38,1.56.21.88.42,1.76.63,2.65.01.05.01.1.03.18-.09.02-.17.05-.25.05ZM17.15,40.88c0-.06.02-.12.04-.2.08,0,.17-.02.25-.03.54-.03,1.07-.06,1.6-.11.21-.02.42-.1.64-.16.05-.31.33-.33.56-.4.13-.04.27.01.37.14.07.08.15.15.23.24.12-.11.11-.18.01-.25-.11-.08-.22-.17-.34-.23-.09-.05-.19-.07-.29-.09-.18-.04-.2-.06-.23-.25-.06-.38-.12-.77-.2-1.15-.11-.56-.24-1.11-.37-1.67-.09-.4-.2-.8-.3-1.21-.16-.64-.32-1.27-.49-1.91-.15-.56-.3-1.12-.44-1.68-.07-.3-.18-.59-.21-.9-.02-.19-.09-.38-.15-.6.26-.09.5-.18.74-.26.35-.11.71-.21,1.06-.32.07-.02.15-.06.21-.09.16-.08.17-.18.01-.28-.07-.05-.15-.08-.23-.12-.03-.02-.04-.05-.1-.11.11-.03.2-.06.28-.08.45-.12.9-.23,1.35-.35.11-.03.22-.1.33-.12.26-.06.51-.12.77-.17.11-.02.16.05.18.14.08.35.18.7.23,1.06.04.34.02.69.04,1.04.09,1.54.06,3.08.08,4.61.02,1.19.02,2.39.03,3.58,0,.31-.03.34-.35.4-.15.03-.3.07-.45.13-.12.04-.16.14-.15.27.02.34.09.67.27.96.07.11.13.2.29.23.14.02.22.16.25.3.02.1.03.2.05.31.13-.01.12-.11.15-.19.02-.05.06-.1.09-.14.05.04.12.07.14.12.08.14.14.29.21.44.06.12.04.18-.11.22-.13.04-.15.11-.15.23-.03.93-.06,1.85-.08,2.78-.02.8-.02,1.61-.03,2.41,0,.23-.01.46-.02.69-.26.02-.41-.11-.4-.35,0-.47,0-.93,0-1.4,0-.06,0-.12-.05-.19-.01.05-.04.1-.04.14,0,.46,0,.92-.02,1.37-.02.27.06.45.29.58.06.04.11.11.2.21-.29.05-.52.07-.75.06-.42,0-.85-.03-1.27-.05-.22,0-.25-.03-.25-.26,0-.63,0-1.26.01-1.89,0-.11.03-.22.03-.33.02-.27.03-.53.04-.8,0-.19,0-.38,0-.57,0-.81,0-1.63,0-2.44,0-.29.03-.56.2-.81.12-.18.2-.38.19-.61,0-.11-.01-.23-.15-.25-.02,0-.03.01-.03.02-.05.25-.22.28-.44.28-.15,0-.31.03-.46.06-.04,0-.1.02-.11.05-.1.16-.26.16-.41.17-.7.04-1.4.08-2.1.11-.27.01-.29-.02-.27-.3ZM17.37,41.38c.64-.02,1.28-.04,1.92-.05.2,0,.41.01.61.02,0,.03,0,.05,0,.08-.32.04-.64.1-.97.12-.52.03-1.03.04-1.55.06-.1,0-.24.03-.24-.11,0-.15.14-.11.24-.11ZM16.44,48.67c0,.09-.03.17-.05.26-.02,0-.04,0-.07,0-.02-.08-.07-.16-.07-.23,0-.59-.04-1.18.08-1.77.14.26.16.69.1,1.74ZM16.8,46.4c-.08.02-.17.02-.25.01-.43-.07-.87-.14-1.3-.21-.09-.01-.17-.03-.26-.05,0-.02,0-.04,0-.06.22-.04.45-.09.67-.11.3-.03.59-.12.9-.09.28.03.29.11.36.33.04.1-.02.17-.12.19ZM18.2,46.53c-.25-.03-.49-.07-.74-.11-.12-.02-.17-.1-.16-.22.01-.12.06-.16.19-.15.29,0,.54.11.78.25.04.02.07.1.06.15-.01.04-.09.09-.13.08ZM20.26,44.42c-.02.23-.07.46-.13.68-.03.11-.11.21-.17.32-.17-.08-.31-.15-.45-.2-.22-.08-.34-.01-.4.22-.02.08-.01.17-.03.26-.03.14-.09.18-.24.16-.48-.07-.96-.14-1.44-.21-.2-.03-.24-.07-.25-.29-.02-.64-.04-1.28-.06-1.92,0-.33-.01-.66-.02-.99,0-.09-.01-.17,0-.26.02-.37-.01-.41.4-.42.77-.02,1.54-.07,2.31-.11.18,0,.36-.03.5.14.05.06.17.06.28.09-.07.11-.16.2-.19.31-.03.11.02.24.01.36-.04.62-.07,1.24-.13,1.86ZM30.91,52.61c.16-.16.36-.2.59-.12-.19.03-.35.22-.59.12ZM32.88,52.77h-1.2c.4-.07.8-.32,1.2-.06,0,.02,0,.04,0,.06Z"/>
          <path class="cls-4" d="M37.32,23.84s.09.07.1.1c0,.03-.04.06-.06.09-.03-.03-.06-.05-.08-.09,0-.02.02-.05.04-.11Z"/>
          <path class="cls-4" d="M29.73,17.98c.09.03.18.04.26.08.03.01.02.09.03.13-.05,0-.11.04-.13.02-.07-.05-.13-.12-.2-.19l.04-.06Z"/>
          <path class="cls-4" d="M29,18.06c-.06-.08-.1-.13-.15-.19q.2-.01.15.19Z"/>
          <path class="cls-4" d="M28.26,17.95s.05.04.04.05c0,.03-.04.05-.07.08-.02-.04-.05-.07-.04-.08.02-.02.04-.04.07-.06Z"/>
          <path class="cls-4" d="M18.39,12.4c.03.06.05.13.08.19-.1-.04-.09-.12-.08-.19Z"/>
          <path class="cls-4" d="M14.69,54.91c.15-.08.18-.08.44.01-.26.09-.28.09-.44-.01Z"/>
          <path class="cls-4" d="M34.29,52.7l.44-.03s0,.05.01.07c-.15.09-.3.09-.45-.04Z"/>
          <path class="cls-4" d="M48.52,56.17c-1.3,0-2.6,0-3.89.02-1.27.02-2.54.07-3.82.09-.78.02-1.55.05-2.33-.07-.43-.07-.87-.09-1.31-.13-.3-.03-.61-.06-.92.05.37.06.73.14,1.09.18.89.11,1.77.29,2.63.57.2.07.4.14.55.31-.17.28-.32.37-.59.37-.15,0-.25.04-.3.19-.02.07-.08.15-.14.17-.36.13-.7.34-1.11.32-.11,0-.22.03-.33.06-.26.07-.51.21-.77.21-.91,0-1.82-.02-2.72-.05-.54-.02-1.08-.13-1.63-.08-.14.01-.28-.02-.41-.03-.1-.01-.18-.06-.21-.16-.03-.14-.13-.17-.26-.16-.25.02-.5.01-.75.06-.38.08-.69-.08-.98-.28,0,0,0-.03,0-.05.01-.01.02-.03.03-.04.3-.1.61-.2.9-.31.28-.11.55-.25.83-.37.07-.03.11-.09.05-.18-.3-.01-.55.19-.83.28-.06-.14.02-.19.09-.23.22-.15.46-.23.72-.27.29-.05.58-.09.87-.13.27-.04.63-.03.8.04-.03.04-.05.1-.09.11-.14.06-.29.1-.44.15-.15.05-.31.08-.44.12-.04.13-.05.23-.09.31-.06.17-.05.25.12.34.11.06.22.11.34.13.35.06.7.1,1.05.15.31.05.5-.12.69-.33-.05-.07-.1-.12-.17-.2.26-.03.52,0,.7-.22-.09-.2-.25-.15-.4-.14-.28.03-.57.06-.85.09-.05,0-.11-.02-.16-.03,0-.02,0-.04-.01-.05.12-.06.23-.13.35-.18.13-.06.25-.1.32-.23-.04-.06-.07-.12-.1-.16.18-.07.33-.14.49-.2.16-.07.35-.04.54-.18-.1-.02-.15-.04-.21-.04-.28,0-.57,0-.85,0-.71.04-1.41.18-2.1.35-.43.1-.85.23-1.28.34-.27.07-.53.12-.7.38-.08.12-.21.2-.32.3-.09.08-.18.16-.26.25-.14.16-.14.24.03.37.14.11.3.2.45.3.08.06.19.09.2.23-.35.09-.71.17-.92.52.16.17.37.16.56.19.5.06.99.13,1.49.19.65.08,1.3.19,1.96.21,1.45.05,2.91.06,4.36-.12.24-.03.48-.04.72-.08.6-.1,1.21-.2,1.81-.33.41-.08.82-.2,1.23-.31.11-.03.22-.07.3-.14.09-.07.14-.15.28-.16.11,0,.15-.12.08-.22-.06-.09-.14-.18-.23-.24-.19-.12-.4-.2-.6-.31-.28-.16-.56-.33-.84-.51-.07-.04-.14-.11-.09-.23.07,0,.13,0,.2.01.23.02.46.06.7.06,1.8.03,3.6.06,5.4-.07.76-.06,1.52-.11,2.27-.22.24-.04.48-.09.71-.15.11-.02.22-.06.26-.19-.11-.13-.27-.13-.41-.14-.43-.03-.86-.07-1.3-.07ZM30.97,58.56c.14-.07.24-.05.35.05-.14.06-.24.05-.35-.05ZM32.3,58.81c.3-.15.57-.06.87-.03-.17.17-.62.18-.87.03Z"/>
          <path class="cls-4" d="M63.48,56.17c-.09-.04-.19-.07-.3-.08-.71-.05-1.41-.12-2.12-.14-1.24-.02-2.47-.02-3.71-.01-.23,0-.46.06-.69.1-.09.02-.18.08-.15.18.02.06.1.11.17.13.16.04.32.06.49.06,1.81.1,3.61.07,5.42.02.3,0,.59-.08.88-.13v-.14Z"/>
          <path class="cls-4" d="M10.32,46.13c-.99-.02-1.99-.05-2.98-.05-.62,0-1.24.06-1.86.09-.08,0-.16.03-.24.05,0,.02,0,.03,0,.05.06.02.13.04.19.05.53.04,1.05.1,1.58.1,1.55.01,3.09,0,4.64,0,.35,0,.71-.05,1.06-.08.05,0,.09-.04.14-.06-.11-.05-.2-.06-.29-.07-.74-.03-1.48-.06-2.23-.08Z"/>
          <path class="cls-4" d="M37.46,56.63c-.22-.2-.55-.24-.82-.1-.21.11-.41.22-.61.34-.13.09-.29.15-.37.33.09.08.18.15.3.24-.05.05-.09.08-.11.11-.07.09-.06.16.04.21.17.07.34.13.51.18.07.02.16.01.23-.01.36-.12.69-.3,1-.52.08-.06.16-.11.13-.23-.12-.01-.24-.03-.4-.04.06-.08.08-.11.11-.14.15-.17.15-.21,0-.36Z"/>
          <path class="cls-4" d="M9.57,47.6c-1,.21-1.99.43-2.98.65-.09.02-.17.07-.26.1.78.04,1.52-.2,2.28-.31.61-.09,1.22-.24,1.84-.32.62-.09,1.25-.14,1.88-.2.36-.03.72-.04,1.09-.07.08,0,.18,0,.19-.15-.07-.02-.14-.04-.22-.05-.25-.01-.5-.03-.75-.03-1.03.02-2.05.16-3.06.37Z"/>
          <path class="cls-4" d="M7.25,52.67c.35,0,.68-.1,1.02-.17.04,0,.07-.05.16-.12-.12-.01-.18-.03-.25-.03-.33.01-.66.03-.98.04-.48.01-.97.06-1.45.02-.7-.06-1.4-.03-2.1,0-.31.02-.61.08-.92.13,0,.03,0,.05,0,.08.07.01.14.03.22.03.41.01.81.02,1.22.03.35,0,.69.03,1.04.03.68-.01,1.37-.05,2.05-.05Z"/>
          <path class="cls-4" d="M63.51,40.1c-.63.83-1.14,1.73-1.54,2.68-.16.38-.32.76-.41,1.17-.04.17-.08.35.04.57.17-.48.31-.91.48-1.33.17-.42.37-.84.57-1.25.21-.42.44-.82.67-1.23.06-.1.12-.19.18-.29v-.33Z"/>
          <path class="cls-4" d="M37.39,58.04c.18.11.35.14.58.01.36-.2.71-.42,1.06-.64.12-.08.14-.2.05-.32-.18-.23-.42-.29-.71-.32,0,.08-.02.15,0,.17.08.08.17.15.31.26-.12.08-.22.16-.32.21-.26.14-.52.26-.78.4-.09.05-.19.09-.19.22Z"/>
          <path class="cls-4" d="M7.6,52.84c-.07,0-.14-.02-.2-.03-.99-.01-1.96.15-2.94.24-.08,0-.17.04-.25.06,0,0,0,.01-.01.02,0,0,0,.02,0,.06,1.15.06,2.29.05,3.41-.3,0-.02,0-.04,0-.06Z"/>
          <path class="cls-4" d="M56,22.68c.07.2.25.31.46.33.15.01.2-.05.16-.21-.03-.11-.08-.21-.11-.32-.06-.2-.1-.41-.16-.62-.02-.08-.06-.17-.12-.22-.05-.05-.15-.1-.22-.09-.07.01-.15.08-.18.15-.04.07-.04.17-.02.25.05.24.11.49.19.72Z"/>
          <polygon class="cls-4" points="35.9 51.04 35.89 51.04 35.9 51.04 35.91 51.04 35.9 51.04 35.9 51.04"/>
          <path class="cls-4" d="M34.23,51.81s.06.02.08.02c.34-.08.69-.15,1.03-.25.1-.03.17-.13.25-.21.07-.07.14-.14.21-.22.03-.03.06-.07.09-.11-.48.18-.96.37-1.43.55-.1.04-.22.07-.22.21Z"/>
          <path class="cls-4" d="M55.32,20.05s.06.05.09.05c.04,0,.08,0,.11-.03.02-.01.02-.07,0-.09-.03-.06-.07-.12-.12-.17-.13-.13-.26-.25-.39-.37-.2-.19-.41-.39-.61-.58-.02,0-.03.02-.05.02.02.05.03.11.06.15.24.39.56.72.91,1.02Z"/>
          <path class="cls-4" d="M60.73,36.37c.16-.06.27-.22.28-.4,0-.19-.14-.3-.3-.23-.16.06-.29.28-.27.46.02.15.16.24.3.18Z"/>
          <path class="cls-4" d="M57.87,36.67c.11.01.24-.11.27-.27,0-.03,0-.07.01-.14-.02-.06-.04-.15-.08-.23-.04-.08-.11-.1-.2-.06-.13.06-.24.27-.23.41.02.14.12.27.22.29Z"/>
          <path class="cls-4" d="M9.01,52.97c0,.18.17.42.35.46.09.02.15,0,.18-.1.01-.05.01-.1.01-.12,0-.21-.1-.37-.26-.43-.15-.06-.28.03-.28.19Z"/>
          <path class="cls-4" d="M59.12,38.68s.15-.05.17-.11c.09-.21.1-.44.1-.66-.03,0-.06-.02-.09-.03-.08.2-.17.4-.24.6-.03.08-.03.18.06.19Z"/>
          <path class="cls-4" d="M53.11,16.28c-.16-.25-.25-.28-.54-.18.07.22.28.29.54.18Z"/>
          <path class="cls-4" d="M33.28,51.96c.2.06.34-.02.47-.16-.22-.1-.31-.07-.47.16Z"/>
          <path class="cls-4" d="M18.96,54.47c-.21.05-.42.1-.63.15,0,.02,0,.04.01.06.22-.02.43-.06.64-.14,0-.02-.01-.05-.02-.07Z"/>
          <path class="cls-4" d="M36.76,50.72c-.18.07-.36.06-.42.26.07-.02.14-.04.21-.06.1-.02.18-.06.21-.21Z"/>
          <path class="cls-4" d="M32.64,46.23h-.76v.04h.76s0-.02,0-.04Z"/>
          <path class="cls-4" d="M35.91,50.49c.12.09.22.03.32-.03-.19-.12-.21-.11-.32.03Z"/>
          <path class="cls-4" d="M37.02,50.1c-.09.09-.16.15-.27.25q.28-.04.27-.25Z"/>
          <path class="cls-4" d="M36.34,50.98s0,0,0,0c0,0,0,0,0,0h0s0,0,0,0c0,0,0,0,0,0-.15-.06-.3-.04-.43.05.14-.02.29-.04.43-.05Z"/>
          <path class="cls-4" d="M37.05,49.76s-.03-.05-.06-.09c-.03.04-.05.06-.05.09,0,.01.03.05.04.04.03,0,.05-.03.07-.04Z"/>
          <path class="cls-4" d="M38.2,56.75s-.07.02-.1.03c0,.01,0,.03,0,.04.04,0,.07,0,.11,0,0-.02,0-.04-.01-.06Z"/>
          <path class="cls-4" d="M32.16,57.37s.04-.01.06-.02c0-.02-.02-.05-.02-.05-.02,0-.05.01-.07.02,0,.02.01.05.03.05Z"/>
          <path class="cls-4" d="M47.73,31.93c-.43-.32-.88-.61-1.39-.8-.06-.02-.12-.01-.19-.02.1.56,1.09,1.2,1.81,1.17-.01-.17-.12-.27-.23-.35Z"/>
          <path class="cls-4" d="M41.09,31.86c.08-.24.1-.5.24-.72.02-.03-.01-.1-.02-.18-.07.06-.12.08-.13.11-.07.18-.15.36-.2.55-.04.16-.06.33-.09.53.15-.08.17-.18.2-.29Z"/>
          <path class="cls-4" d="M18.5,8.47c.12.16.19.35.29.52.17.3.34.6.52.89.04.06.08.12.18.06,0-.03,0-.08,0-.12-.02-.21-.06-.43.14-.6.03-.02.03-.1.02-.14-.07-.54-.14-1.08-.23-1.61-.08-.47-.2-.93-.52-1.31-.06-.07-.12-.13-.2-.22-.11.29-.07.52,0,.75.12.33.23.67.26,1.03.01.13.04.26.04.38,0,.14-.03.28-.05.44-.27-.42-.54-.83-.81-1.24-.04.09-.05.17-.02.25.11.32.17.65.38.93Z"/>
          <path class="cls-4" d="M22.32,23.33c.01.31-.01.62-.03.93-.04.54.09,1.05.2,1.56.01.07.07.13.11.2.17-.08.25-.21.28-.35.06-.29.11-.58.13-.87.02-.38.02-.77-.13-1.13-.2-.49-.41-.97-.62-1.45l-.09.02c.02.11.04.23.05.34.04.25.09.49.1.74Z"/>
          <path class="cls-4" d="M14.77,4.59c.31.32.66.61,1.02.87.03.02.1.03.14.02.02,0,.04-.08.04-.11-.04-.18-.05-.37-.19-.53-.39-.43-.79-.85-1.27-1.18-.09-.06-.19-.12-.36-.06.04.1.06.18.09.25.13.27.31.51.52.73Z"/>
          <path class="cls-4" d="M16.36,19.23s0,.07.03.1c.02.03.07.08.09.07.04,0,.1-.04.11-.08.06-.2.14-.41.17-.62.03-.22,0-.45.02-.67,0-.1.02-.21.06-.29.27-.46.23-.98.26-1.48,0-.01-.02-.03-.07-.09-.05.09-.1.15-.13.23-.22.53-.4,1.07-.5,1.63-.07.39-.03.81-.04,1.21Z"/>
          <path class="cls-4" d="M18.09,23.73c.05-.08.1-.17.12-.26.08-.36.17-.72.15-1.1-.02-.47-.03-.95.11-1.42.03-.09.02-.18.02-.28-.02,0-.05-.01-.07-.02-.06.12-.13.24-.17.36-.14.48-.28.96-.38,1.45-.06.33-.05.67-.06,1.01,0,.08.02.17.06.25.05.1.16.1.22,0Z"/>
          <path class="cls-4" d="M15.23,15.21c.18-.15.26-.33.21-.57-.07-.35-.14-.69-.17-1.04-.03-.37-.19-.67-.33-.99-.02,0-.04,0-.06,0,0,.07-.02.15-.02.22,0,.56,0,1.12.01,1.68,0,.21.04.41.08.61.04.18.14.2.28.09Z"/>
          <path class="cls-4" d="M15.54,8.29s-.04.06-.04.07c.06.39.12.78.19,1.17,0,.02,0,.03.02.05.13.35.25.7.38,1.04.03.07.06.14.1.21.08.13.3.21.4.15.12-.07.14-.15.05-.36-.28-.65-.52-1.33-.88-1.95-.07-.12-.14-.24-.22-.38Z"/>
          <path class="cls-4" d="M20.85,24.17c.03.06.12.13.17.12.05,0,.13-.1.14-.16.03-.18.06-.36.05-.54-.02-.56-.14-1.11-.3-1.65-.02-.08-.08-.15-.13-.23-.02,0-.04.02-.07.03,0,.05-.02.1-.03.15-.02.27-.04.53-.04.8,0,.33-.01.66.02.98.02.17.11.34.18.51Z"/>
          <path class="cls-4" d="M14.93,10.93s.08.04.12.03c.03-.01.05-.06.06-.1,0-.03,0-.07-.01-.1-.13-.48-.32-.93-.56-1.36-.18-.31-.33-.62-.52-.93-.11-.19-.26-.36-.39-.53-.02.01-.03.02-.05.03,0,.02.02.05.03.07.42.93.84,1.85,1.26,2.78.02.04.04.08.07.11Z"/>
          <path class="cls-4" d="M23.75,22.22c.02-.06.05-.11.04-.17-.02-.33-.03-.65-.08-.98-.03-.24-.09-.47-.23-.68-.05-.07-.09-.15-.21-.13-.01.03-.02.05-.02.06,0,.57.11,1.13.28,1.67.03.09.07.19.22.22Z"/>
          <path class="cls-4" d="M18.25,15.87c.09.24.17.49.28.72.07.16.17.3.26.45.02.03.07.05.11.05.02,0,.06-.05.06-.07-.02-.22,0-.46-.09-.66-.13-.3-.33-.56-.51-.84-.05-.07-.13-.12-.19-.18-.02.01-.04.02-.06.03.02.08.03.16.05.23.03.09.07.18.1.26Z"/>
          <path class="cls-4" d="M19.29,21.83c.09.01.14-.06.13-.15-.03-.24-.06-.47-.1-.71,0-.03-.04-.06-.06-.1-.08.28-.12.56-.1.83,0,.05.08.12.13.12Z"/>
          <path class="cls-4" d="M18.41,9.63c.12.38.25.76.38,1.14,0,.02.05.04.08.06.03-.21-.25-1.07-.44-1.34,0,.06-.03.1-.01.13Z"/>
          <path class="cls-4" d="M21.21,20.27c-.01-.33-.16-.73-.29-.81-.06.35.08.74.29.81Z"/>
        </g>
      </g>
    </g>
  </g>
</svg>