<?xml version="1.0" encoding="UTF-8"?>
<svg id="Layer_2" data-name="Layer 2" xmlns="http://www.w3.org/2000/svg" viewBox="0 0 35 35">
  <defs>
    <style>
      .cls-1 {
        fill: none;
        stroke: #ec1c24;
        stroke-miterlimit: 10;
        stroke-width: 1.4px;
      }

      .cls-2 {
        fill: #ec1c24;
      }

      .cls-3 {
        fill: #009345;
      }
    </style>
  </defs>
  <g id="Layer_1-2" data-name="Layer 1">
    <g>
      <g>
        <path class="cls-3" d="M22.92,6.04h-10.83c-.2,0-.36.16-.36.36v3.54l-1.68,3.55s0,0,0,0c0,0,0,.01,0,.02-.01.04-.02.07-.02.11,0,0,0,0,0,.02v14.96c0,.2.16.36.36.36h14.26c.2,0,.36-.16.36-.36v-14.96s0,0,0-.02c0-.04,0-.07-.02-.11,0,0,0-.01,0-.02,0,0,0,0,0,0l-1.68-3.55v-3.54c0-.2-.16-.36-.36-.36h0ZM12.44,6.75h10.11v2.91h-10.11v-2.91ZM24.27,28.25h-13.55v-14.24h13.55v14.24ZM10.93,13.28l1.38-2.91h10.38l1.38,2.91h-13.13Z"/>
        <path class="cls-3" d="M14.03,24.88c0,1.95,1.56,2.04,3.46,2.01,1.9,0,3.47-.02,3.47-2.01s-1.56-4.93-3.47-4.93-3.46,2.98-3.46,4.93ZM17.5,20.67c1.47,0,2.75,2.63,2.75,4.21,0,1.41-1.09,1.29-2.75,1.29-1.83,0-2.75.03-2.75-1.29,0-1.59,1.28-4.21,2.75-4.21Z"/>
        <path class="cls-3" d="M16.27,19.38c.86-.17,1.16-1.24.98-2.13h0c-.21-1.04-.97-1.74-1.72-1.59-.84.17-1.15,1.23-.97,2.13.19.92.89,1.76,1.72,1.6h0ZM15.73,16.35c.3,0,.69.4.82,1.04.1.49-.01,1.21-.41,1.29-.3.06-.74-.35-.87-1.03-.1-.47.01-1.29.47-1.29h0Z"/>
        <path class="cls-3" d="M18.72,19.38c.84.17,1.54-.67,1.72-1.59.18-.89-.12-1.96-.98-2.13-.75-.15-1.51.55-1.72,1.6-.18.89.12,1.96.97,2.13ZM18.45,17.39c.1-.47.46-1.12.87-1.03.41.08.51.8.41,1.29-.14.68-.57,1.09-.88,1.03-.4-.08-.5-.8-.41-1.29h0Z"/>
        <path class="cls-3" d="M13.88,22.35c.7,0,1.25-.75,1.25-1.71s-.55-1.7-1.25-1.7-1.24.75-1.24,1.7.54,1.71,1.24,1.71ZM13.88,19.65c.25,0,.53.42.53.98s-.28.99-.53.99-.52-.42-.52-.99.28-.98.52-.98Z"/>
        <path class="cls-3" d="M19.88,20.64c0,.96.54,1.71,1.24,1.71s1.25-.75,1.25-1.71-.55-1.7-1.25-1.7-1.24.75-1.24,1.7ZM21.12,19.66c.25,0,.53.42.53.98s-.28.99-.53.99-.52-.42-.52-.99.28-.98.52-.98Z"/>
      </g>
      <g>
        <path class="cls-2" d="M17.5,1.4c8.88,0,16.1,7.22,16.1,16.1s-7.22,16.1-16.1,16.1S1.4,26.38,1.4,17.5,8.62,1.4,17.5,1.4M17.5,0C7.84,0,0,7.83,0,17.5s7.84,17.5,17.5,17.5,17.5-7.83,17.5-17.5S27.17,0,17.5,0h0Z"/>
        <line class="cls-1" x1="5.46" y1="5.13" x2="29.54" y2="29.87"/>
      </g>
    </g>
  </g>
</svg>