<?xml version="1.0" encoding="UTF-8"?>
<svg id="Layer_2" data-name="Layer 2" xmlns="http://www.w3.org/2000/svg" viewBox="0 0 966 3.75">
  <defs>
    <style>
      .cls-1 {
        fill: none;
        stroke: #8cc63f;
        stroke-miterlimit: 10;
        stroke-width: .75px;
      }
    </style>
  </defs>
  <g id="Layer_1-2" data-name="Layer 1">
    <path class="cls-1" d="M0,.38C5.62.38,5.62,3.38,11.23,3.38S16.85.38,22.46.38s5.62,3,11.23,3S39.31.38,44.92.38s5.62,3,11.23,3,5.62-3,11.23-3,5.62,3,11.23,3,5.62-3,11.23-3,5.62,3,11.23,3,5.62-3,11.23-3,5.62,3,11.23,3,5.62-3,11.23-3,5.62,3,11.23,3,5.62-3,11.23-3,5.62,3,11.23,3,5.62-3,11.23-3,5.62,3,11.23,3,5.62-3,11.23-3,5.61,3,11.23,3,5.61-3,11.23-3,5.61,3,11.23,3,5.61-3,11.23-3,5.62,3,11.23,3,5.62-3,11.23-3,5.61,3,11.23,3,5.61-3,11.23-3,5.61,3,11.23,3,5.61-3,11.23-3,5.62,3,11.23,3,5.62-3,11.23-3,5.61,3,11.23,3,5.61-3,11.23-3,5.61,3,11.23,3,5.62-3,11.23-3,5.62,3,11.23,3,5.61-3,11.23-3,5.61,3,11.23,3,5.62-3,11.23-3,5.62,3,11.23,3,5.62-3,11.23-3,5.61,3,11.23,3,5.62-3,11.23-3,5.62,3,11.23,3,5.62-3,11.23-3,5.62,3,11.23,3,5.62-3,11.23-3,5.62,3,11.23,3,5.62-3,11.23-3,5.62,3,11.23,3,5.62-3,11.23-3,5.62,3,11.23,3,5.62-3,11.23-3,5.62,3,11.23,3,5.62-3,11.23-3,5.62,3,11.23,3,5.62-3,11.23-3,5.62,3,11.24,3,5.62-3,11.23-3,5.62,3,11.24,3,5.62-3,11.23-3,5.62,3,11.23,3,5.62-3,11.23-3,5.62,3,11.23,3,5.62-3,11.23-3,5.62,3,11.24,3,5.62-3,11.23-3,5.62,3,11.23,3,5.62-3,11.23-3,5.62,3,11.23,3,5.62-3,11.23-3,5.62,3,11.23,3,5.62-3,11.23-3,5.62,3,11.24,3,5.62-3,11.23-3,5.62,3,11.23,3,5.62-3,11.24-3,5.62,3,11.24,3,5.62-3,11.24-3,5.62,3,11.24,3,5.62-3,11.24-3,5.62,3,11.23,3,5.62-3,11.24-3,5.62,3,11.24,3,5.62-3,11.24-3,5.62,3,11.24,3,5.62-3,11.24-3"/>
  </g>
</svg>