<?xml version="1.0" encoding="UTF-8"?>
<svg id="Layer_2" data-name="Layer 2" xmlns="http://www.w3.org/2000/svg" viewBox="0 0 35.87 35">
  <defs>
    <style>
      .cls-1 {
        fill: #eb5f00;
      }
    </style>
  </defs>
  <g id="Layer_1-2" data-name="Layer 1">
    <g>
      <g>
        <path class="cls-1" d="M34.04,0c-5.31,0-10.62.01-15.93.01s-10.91,0-16.37-.01C1.21,0,.76.17.46.47.15.78,0,1.21,0,1.75c.02,7.5.02,15.12.02,22.49v7.1c0,.08,0,.16,0,.25.02.62.51,1.2,1.1,1.31.21.04.44.06.71.06.24,0,.47-.01.71-.03.12,0,.23-.06.3-.14.07-.08.1-.19.08-.3-.03-.25-.17-.38-.43-.38-.13,0-.25,0-.38,0h-.47c-.59,0-.78-.2-.78-.78V1.64c0-.59.18-.78.78-.78h32.58c.6,0,.78.18.78.78,0,1.91,0,3.82,0,5.74,0,.32.05.51.3.6.05.02.1.03.15.03.15,0,.26-.1.4-.26V1.14C35.58.35,35.02,0,34.04,0Z"/>
        <path class="cls-1" d="M35.47,10.44s-.1.01-.15.03c-.27.1-.31.31-.31.59,0,.07,0,.13,0,.2v19.93c0,.75-.15.91-.91.91h-13.71c-.07,0-.14,0-.22,0-.27.03-.35.22-.36.38-.02.2.08.35.28.42.1.04.21.04.32.04h7.2c2.13,0,4.25,0,6.38,0h.02c.98,0,1.55-.35,1.85-1.09V10.71c-.14-.17-.25-.27-.4-.27Z"/>
        <path class="cls-1" d="M31.38,2.91H4.5c-1.11,0-1.64.54-1.64,1.64,0,3.69,0,7.39,0,11.08,0,1.1.54,1.63,1.64,1.63h22.4s4.48,0,4.48,0c1.11,0,1.64-.53,1.64-1.63,0-3.69,0-7.39,0-11.08,0-1.1-.54-1.64-1.64-1.64ZM32.17,15.61c0,.63-.17.8-.79.8H4.5c-.62,0-.8-.17-.8-.79V4.57c0-.63.17-.81.79-.81h13.44s13.44,0,13.44,0c.63,0,.8.17.8.8,0,3.68,0,7.36,0,11.05Z"/>
        <path class="cls-1" d="M18.6,22.87c.61,0,1.03-.24,1.29-.71.23-.42.22-.88-.01-1.28-.25-.42-.7-.67-1.22-.67-1,0-1.99,0-2.99,0H7.19s-1.73,0-1.73,0c-.43,0-.86,0-1.3,0-.66.01-1.18.48-1.28,1.14-.09.63.28,1.24.89,1.44.17.05.34.08.55.08.07,0,.14,0,.22,0,.04,0,.08,0,.11,0,.08,0,.2.01.28.1.07.08.09.2.06.4-.11.85-.2,1.71-.29,2.55l-.11,1.01-.58,5.43c-.05.5-.11.99-.15,1.49-.02.31.07.58.26.79.22.24.57.37.97.37.76,0,1.52,0,2.28,0h2.85s6.37,0,7.57,0c.43,0,.76-.12.97-.35.21-.22.3-.55.27-.96-.04-.55-.11-1.11-.17-1.65-.03-.29-.07-.57-.1-.86,0,0-.63-6.04-.8-7.6-.03-.32-.05-.48.04-.59.1-.11.26-.11.59-.11ZM4.96,22.01c-.07,0-.15,0-.22.01-.1,0-.19.01-.29.01-.18,0-.33-.02-.46-.08-.19-.07-.29-.25-.26-.47.03-.23.18-.38.4-.41.06,0,.12,0,.18,0h.28s.15,0,.15,0c.21,0,.35,0,.43.1.09.11.06.26-.02.62-.01.07-.04.21-.19.21ZM7.19,34.07c-.06.07-.15.08-.26.08h0c-.12,0-.24,0-.36,0h-.54s-.54,0-.54,0c-.12,0-.24,0-.39,0-.1,0-.22-.01-.3-.1-.06-.07-.08-.17-.06-.31.08-.66.16-1.35.22-2.09,0-.08.02-.28.22-.28.04,0,.09,0,.15.03,1.07.29,1.9,1.33,1.94,2.42,0,.08,0,.18-.07.25ZM14.37,34.15c-.97,0-1.95,0-2.92,0s-1.95,0-2.93,0c-.33,0-.41-.14-.43-.41-.17-1.66-1.1-2.76-2.7-3.19-.3-.08-.31-.28-.29-.45.13-1.16.25-2.33.38-3.49l.13-1.22c.14-1.26.27-2.52.39-3.78.03-.36.13-.55.56-.55h.02c.76.01,1.53.01,2.29.01h2.6s2.5,0,2.5,0c.8,0,1.59,0,2.4-.01.33,0,.47.13.5.46.11,1.06.22,2.12.33,3.18l.21,1.94c.12,1.13.24,2.27.37,3.4.03.23.02.43-.33.52-1.49.36-2.56,1.64-2.66,3.18-.02.34-.17.4-.44.4ZM17.97,31.59v.13c.08.67.14,1.33.22,2,.02.15,0,.25-.07.32-.08.09-.2.1-.33.1h-.01c-.12,0-.24,0-.36,0h-.55s-.53,0-.53,0c-.13,0-.25,0-.39,0-.24,0-.27-.16-.28-.29-.05-1.05,1.01-2.34,2.03-2.48.03,0,.05,0,.07,0,.19,0,.21.16.21.23ZM17.77,21.81c-.08-.32-.12-.49-.03-.61.09-.12.27-.12.55-.12h.31c.05,0,.11,0,.16,0,.25.02.4.18.42.42.02.27-.13.47-.38.5-.14.02-.29.02-.43.02h-.35c-.19,0-.23-.15-.24-.21Z"/>
        <path class="cls-1" d="M27.28,21.14c-.02-.56-.38-.92-.93-.93-.43,0-.85,0-1.28,0s-.85,0-1.28,0c-.56,0-.94.37-.96.91-.02.86-.02,1.75,0,2.63.01.55.39.9.95.91.44,0,.87,0,1.31,0s.84,0,1.25,0c.56,0,.91-.36.93-.92,0-.29,0-.59,0-.88v-.42s0-.39,0-.39c0-.3,0-.61,0-.91ZM26.44,23.49c0,.07,0,.17-.08.25-.07.07-.17.08-.24.08h0c-.36,0-.71,0-1.07,0s-.72,0-1.08,0c-.06,0-.15,0-.22-.07-.07-.07-.07-.16-.07-.23,0-.71,0-1.43,0-2.14,0-.1.02-.18.07-.23.06-.06.15-.07.25-.07h0c.15,0,.3,0,.44,0h1.23c.15,0,.29,0,.45,0,.07,0,.16,0,.23.08.07.07.08.17.08.24,0,.7,0,1.41,0,2.11Z"/>
        <path class="cls-1" d="M23.76,30.27c.43.01.86.02,1.3.02s.87,0,1.3-.02c.58-.01.92-.37.93-.96,0-.29,0-.57,0-.86v-1.64s0-.07,0-.07c-.02-.57-.35-.91-.9-.92-.45-.01-.89-.02-1.34-.02s-.86,0-1.29.01c-.56.01-.91.37-.92.93-.02.85-.02,1.71,0,2.56.01.56.37.93.92.95ZM23.68,27.02c0-.1,0-.21.08-.28.07-.07.18-.08.25-.08h.01c.34,0,.67,0,1.01,0,.36,0,.71,0,1.07,0,.07,0,.18,0,.25.08.07.07.08.18.08.26,0,.7,0,1.4,0,2.11,0,.07,0,.17-.08.24-.07.07-.16.08-.24.08h0c-.16,0-.31,0-.47,0h-.62s-.59,0-.59,0c-.14,0-.28,0-.45,0-.07,0-.16,0-.23-.08-.07-.07-.08-.18-.08-.26,0-.69,0-1.38,0-2.07Z"/>
        <path class="cls-1" d="M32.99,21c-.03-.45-.38-.77-.85-.78-.45,0-.91-.01-1.36-.01s-.9,0-1.34.01c-.48.01-.84.35-.85.81-.03.95-.03,1.89,0,2.8.02.49.38.82.91.83.17,0,.34,0,.51,0h1.58c.17,0,.34,0,.51,0,.52,0,.87-.31.9-.8.07-.97.07-1.93,0-2.86ZM32.1,23.73c-.07.07-.17.08-.28.08h0c-.14,0-.28,0-.42,0h-.59s-.61,0-.61,0c-.15,0-.29,0-.46,0-.07,0-.17,0-.24-.08-.07-.07-.08-.18-.08-.26,0-.69,0-1.38,0-2.07,0-.08,0-.19.08-.26.07-.07.17-.08.25-.08h0c.35,0,.69,0,1.04,0s.71,0,1.08,0c.08,0,.18,0,.25.08.07.07.08.18.08.26,0,.69-.01,1.38,0,2.07,0,.12-.02.21-.08.26Z"/>
        <path class="cls-1" d="M32.14,25.83c-.17,0-.34-.01-.51-.01-.14,0-.69,0-.82,0-.01,0-.02,0-.04,0h-1.19s-.07,0-.1,0c-.56.04-.89.36-.9.88-.03.86-.03,1.76,0,2.66.02.54.37.89.92.91.43.01.86.02,1.29.02s.87,0,1.3-.02c.53-.01.88-.33.91-.84.06-.96.06-1.9,0-2.8-.03-.48-.35-.78-.86-.81ZM32.17,28.04v.29c0,.25,0,.5,0,.76,0,.07,0,.18-.07.26-.07.07-.17.08-.26.08h0c-.36,0-.71,0-1.07,0s-.69,0-1.05,0c-.07,0-.17,0-.25-.08-.07-.07-.08-.18-.08-.26,0-.69,0-1.38,0-2.07,0-.08,0-.2.08-.28.08-.08.19-.09.26-.09h.01c.35,0,.71,0,1.06,0,.34,0,.67,0,1.02,0,.12,0,.2.03.26.09.08.08.08.19.08.28,0,.24,0,.47,0,.71v.3Z"/>
        <path class="cls-1" d="M27.55,7.91c0-.49-.17-.66-.69-.67-.31,0-.53.14-.72.46-.22.37-.43.74-.65,1.12l-.29.5s-.05.05-.08.05-.06-.02-.08-.05l-.18-.32c-.12-.2-.22-.39-.33-.57l-.14-.23c-.13-.23-.27-.47-.43-.69-.13-.17-.38-.29-.65-.29-.11,0-.21.02-.3.05-.27.11-.33.33-.33.67,0,1.32,0,2.65,0,3.97v.78c0,.16,0,.26.11.33.14.09.29.13.44.13.12,0,.25-.03.38-.08.2-.08.2-.22.2-.5,0-.65,0-1.3,0-1.95v-.78s.03-.08.08-.09c0,0,.09-.02.1-.02.03,0,.07.02.08.05l.19.36c.15.28.3.56.46.84.1.17.23.27.37.27s.27-.09.38-.26c.06-.09.11-.18.16-.27.05-.09.1-.18.16-.27.04-.06.07-.12.11-.19.08-.15.18-.33.35-.48.02-.02.04-.02.06-.02.01,0,.03,0,.04,0,.03.02.05.05.05.09v.85c0,.68,0,1.35,0,2.02,0,.22.07.43.58.44.36,0,.54-.14.55-.43,0-.19,0-.37,0-.56v-1.37c0-.96,0-1.92,0-2.89Z"/>
        <path class="cls-1" d="M11.87,8.97l-.36-1.17c-.15-.48-.34-.62-.86-.62h0c-.45,0-.68.15-.78.49-.5,1.62-.99,3.24-1.48,4.86-.05.18-.07.42.4.56.11.03.21.05.29.05.2,0,.33-.1.39-.3.03-.09.04-.19.06-.29.04-.25.08-.5.28-.62.1-.07.24-.1.43-.1.09,0,.19,0,.28.01.09,0,.18.01.27.01,0,0,.14,0,.14,0,.69,0,.73.08.93.82.01.04.02.08.03.12.03.15.05.24.14.28.09.05.19.07.29.07.16,0,.33-.06.52-.18.2-.13.19-.28.11-.54-.36-1.15-.71-2.31-1.06-3.46ZM11.25,11.03s-.05.02-.1.02h0c-.1,0-.2,0-.31.02-.11.01-.22.02-.33.02-.12,0-.3-.01-.42-.12-.17-.15-.06-.43.05-.71.04-.11.09-.22.11-.32.06-.25.13-.5.21-.79l.12-.42s.05-.07.09-.07.08.03.09.07l.59,2.16s-.05.11-.1.13Z"/>
        <path class="cls-1" d="M19.04,7.25c-.56,0-1.11,0-1.67,0s-1.11,0-1.67,0c-.32,0-.42.11-.42.46,0,.38.11.52.43.53h.09c.08,0,.16.01.23.01.07,0,.15,0,.22-.01.05,0,.1,0,.14,0,.14,0,.24.04.31.11.08.09.12.22.1.43-.02.44-.02.9-.01,1.34,0,.19,0,.37,0,.56v2.05c0,.15,0,.24.09.3.13.1.28.14.44.14.12,0,.24-.02.38-.07.2-.07.21-.21.21-.49v-1.43c0-.84,0-1.68,0-2.51,0-.11,0-.24.1-.33.06-.06.14-.09.26-.09.02,0,.04,0,.07,0,.1,0,.2.01.3.01.12,0,.24,0,.39,0,.32-.01.44-.16.43-.53,0-.35-.1-.46-.42-.46Z"/>
        <path class="cls-1" d="M14.86,23.47c-.89-.75-2.09-1.17-3.38-1.17-1.38,0-2.7.49-3.61,1.33-1.45,1.35-1.57,3.33-.31,4.81,1.14,1.33,2.63,1.63,3.69,1.65,1.26,0,2.25-.25,3.11-.79,1.1-.68,1.78-1.73,1.86-2.86.08-1.1-.42-2.19-1.36-2.99ZM14.43,28.2c-.77.69-1.76,1.04-3.01,1.06-1.39-.03-2.44-.47-3.2-1.35-.93-1.07-.9-2.44.07-3.49.73-.8,1.89-1.26,3.17-1.26s2.45.46,3.18,1.26c.51.56.77,1.24.73,1.92-.03.69-.37,1.35-.94,1.86Z"/>
      </g>
      <path class="cls-1" d="M12.92,24.5c.06.02.08.07.08.14,0,.06,0,.12,0,.17,0,.11-.04.14-.14.14-.24,0-.48,0-.72,0-.01,0-.03,0-.05,0,0,.02.01.03.02.04.05.05.09.12.12.18.03.04.03.09.05.14.01.02.02.03.04.03.18,0,.35,0,.53,0,.03,0,.06,0,.09.01.03.02.05.04.05.07,0,.09,0,.18,0,.27,0,.04-.04.08-.08.09-.02,0-.04,0-.06,0-.17,0-.35,0-.52,0-.03,0-.04,0-.05.04-.03.12-.08.23-.15.33-.17.23-.41.36-.67.45-.18.06-.37.09-.57.11.03.03.06.06.1.09.12.1.24.2.36.31.11.1.22.19.32.29.1.09.19.18.29.27.12.11.23.22.35.33.06.06.12.11.18.17.04.04.03.08-.02.12-.02.01-.04.02-.07.02-.23,0-.46,0-.68,0-.06,0-.09-.04-.12-.07-.14-.13-.28-.26-.42-.39-.09-.09-.19-.17-.29-.26-.1-.09-.21-.19-.31-.28-.15-.13-.3-.27-.46-.4-.07-.06-.13-.11-.2-.17-.03-.02-.04-.05-.04-.09,0-.09,0-.19,0-.28,0-.09.06-.13.13-.13.15,0,.3,0,.45,0,.22,0,.44-.03.64-.11.1-.04.2-.1.27-.18.04-.04.07-.09.09-.14,0-.02,0-.02-.02-.02,0,0-.02,0-.03,0-.47,0-.94,0-1.4,0-.05,0-.09,0-.12-.05-.01-.02-.01-.03-.01-.05,0-.08,0-.17,0-.25,0-.05.05-.1.09-.1.02,0,.04,0,.06,0,.44,0,.89,0,1.33,0,0,0,.02,0,.03,0,0,0,.02,0,.02,0,0,0,0-.01,0-.02-.06-.08-.15-.14-.24-.18-.22-.09-.45-.1-.68-.1-.16,0-.31,0-.47,0-.05,0-.09,0-.12-.05-.01-.02-.01-.03-.01-.05,0-.11,0-.22,0-.33,0-.06.04-.08.08-.1h2.95Z"/>
    </g>
  </g>
</svg>