<?xml version="1.0" encoding="UTF-8"?>
<svg id="Layer_2" data-name="Layer 2" xmlns="http://www.w3.org/2000/svg" viewBox="0 0 35 35">
  <defs>
    <style>
      .cls-1 {
        fill: none;
        stroke: #ec1c24;
        stroke-miterlimit: 10;
        stroke-width: 1.4px;
      }

      .cls-2 {
        fill: #ec1c24;
      }

      .cls-3 {
        fill: #009345;
      }
    </style>
  </defs>
  <g id="Layer_1-2" data-name="Layer 1">
    <g>
      <g>
        <path class="cls-3" d="M28.34,15.86H6.66c-.18,0-.33-.15-.33-.33v-4.6c0-.18.15-.33.33-.33h21.67c.18,0,.33.15.33.33v4.6c0,.18-.15.33-.33.33ZM6.99,15.2h21.01v-3.94H6.99v3.94Z"/>
        <path class="cls-3" d="M6.42,14.56c-.12-.13-.11-.34.02-.46l3.73-3.4c.13-.12.34-.11.46.02.12.13.11.34-.02.46l-3.73,3.4c-.13.12-.34.11-.46-.02Z"/>
        <path class="cls-3" d="M8.35,15.75c-.12-.13-.11-.34.02-.46l5.04-4.6c.13-.12.34-.11.46.02.12.13.11.34-.02.46l-5.04,4.6c-.13.12-.34.11-.46-.02Z"/>
        <path class="cls-3" d="M11.59,15.75c-.12-.13-.11-.34.02-.46l5.04-4.6c.13-.12.34-.11.46.02.12.13.11.34-.02.46l-5.04,4.6c-.13.12-.34.11-.46-.02Z"/>
        <path class="cls-3" d="M14.83,15.75c-.12-.13-.11-.34.02-.46l5.04-4.6c.13-.12.34-.11.46.02.12.13.11.34-.02.46l-5.04,4.6c-.13.12-.34.11-.46-.02Z"/>
        <path class="cls-3" d="M18.06,15.75c-.12-.13-.11-.34.02-.46l5.04-4.6c.13-.12.34-.11.46.02.12.13.11.34-.02.46l-5.04,4.6c-.13.12-.34.11-.46-.02Z"/>
        <path class="cls-3" d="M21.3,15.75c-.12-.13-.11-.34.02-.46l5.04-4.6c.13-.12.34-.11.46.02.12.13.11.34-.02.46l-5.04,4.6c-.13.12-.34.11-.46-.02Z"/>
        <path class="cls-3" d="M24.54,15.75c-.12-.13-.11-.34.02-.46l3.55-3.24c.13-.12.34-.11.46.02.12.13.11.34-.02.46l-3.55,3.24c-.13.12-.34.11-.46-.02Z"/>
        <path class="cls-3" d="M28.34,22.1H6.66c-.18,0-.33-.15-.33-.33v-4.6c0-.18.15-.33.33-.33h21.67c.18,0,.33.15.33.33v4.6c0,.18-.15.33-.33.33ZM6.99,21.44h21.01v-3.94H6.99v3.94Z"/>
        <path class="cls-3" d="M6.66,20.9c-.3,0-.44-.37-.22-.57l3.73-3.4c.13-.12.34-.11.46.02.12.13.11.34-.02.46l-3.73,3.4c-.06.06-.14.09-.22.09h0Z"/>
        <path class="cls-3" d="M8.59,22.1c-.3,0-.44-.37-.22-.57l5.04-4.6c.13-.12.34-.11.46.02.12.13.11.34-.02.46l-5.04,4.6c-.06.06-.14.09-.22.09h0Z"/>
        <path class="cls-3" d="M11.83,22.1c-.3,0-.44-.37-.22-.57l5.04-4.6c.13-.12.34-.11.46.02.12.13.11.34-.02.46l-5.04,4.6c-.06.06-.14.09-.22.09h0Z"/>
        <path class="cls-3" d="M14.83,21.99c-.12-.13-.11-.34.02-.46l5.04-4.6c.13-.12.34-.11.46.02.12.13.11.34-.02.46l-5.04,4.6c-.13.12-.34.11-.46-.02Z"/>
        <path class="cls-3" d="M18.31,22.1c-.3,0-.44-.37-.22-.57l5.04-4.6c.13-.12.34-.11.46.02.12.13.11.34-.02.46l-5.04,4.6c-.06.06-.14.09-.22.09h0Z"/>
        <path class="cls-3" d="M21.54,22.1c-.3,0-.44-.37-.22-.57l5.04-4.6c.13-.12.34-.11.46.02.12.13.11.34-.02.46l-5.04,4.6c-.06.06-.14.09-.22.09h0Z"/>
        <path class="cls-3" d="M24.78,22.1c-.3,0-.44-.37-.22-.57l3.55-3.24c.13-.12.34-.11.46.02s.11.34-.02.46l-3.55,3.24c-.06.06-.14.09-.22.09h0Z"/>
        <path class="cls-3" d="M10.28,11.26h-1.97c-.18,0-.33-.15-.33-.33v-1.31c0-.18.15-.33.33-.33h1.97c.18,0,.33.15.33.33v1.31c0,.18-.15.33-.33.33ZM8.63,10.61h1.31v-.66h-1.31v.66Z"/>
        <path class="cls-3" d="M10.28,17.5h-1.97c-.18,0-.33-.15-.33-.33v-1.64c0-.18.15-.33.33-.33h1.97c.18,0,.33.15.33.33v1.64c0,.18-.15.33-.33.33ZM8.63,16.84h1.31v-.99h-1.31v.99Z"/>
        <path class="cls-3" d="M10.28,27.68h-1.97c-.18,0-.33-.15-.33-.33v-5.58c0-.18.15-.33.33-.33h1.97c.18,0,.33.15.33.33v5.58c0,.18-.15.33-.33.33ZM8.63,27.02h1.31v-4.92h-1.31v4.92Z"/>
        <path class="cls-3" d="M10.99,27.68h-3.4c-.18,0-.33-.15-.33-.33s.15-.33.33-.33h3.4c.18,0,.33.15.33.33,0,.18-.15.33-.33.33Z"/>
        <path class="cls-3" d="M26.69,11.26h-1.97c-.18,0-.33-.15-.33-.33v-1.31c0-.18.15-.33.33-.33h1.97c.18,0,.33.15.33.33v1.31c0,.18-.15.33-.33.33ZM25.05,10.61h1.31v-.66h-1.31v.66Z"/>
        <path class="cls-3" d="M26.69,17.5h-1.97c-.18,0-.33-.15-.33-.33v-1.64c0-.18.15-.33.33-.33h1.97c.18,0,.33.15.33.33v1.64c0,.18-.15.33-.33.33ZM25.05,16.84h1.31v-.99h-1.31v.99Z"/>
        <path class="cls-3" d="M26.69,27.68h-1.97c-.18,0-.33-.15-.33-.33v-5.58c0-.18.15-.33.33-.33h1.97c.18,0,.33.15.33.33v5.58c0,.18-.15.33-.33.33ZM25.05,27.02h1.31v-4.92h-1.31v4.92Z"/>
        <path class="cls-3" d="M27.35,27.68h-3.4c-.18,0-.33-.15-.33-.33s.15-.33.33-.33h3.4c.18,0,.33.15.33.33,0,.18-.15.33-.33.33Z"/>
        <path class="cls-3" d="M19.47,11.26h-3.94c-.18,0-.33-.15-.33-.33v-1.31c0-.18.15-.33.33-.33h3.94c.18,0,.33.15.33.33v1.31c0,.18-.15.33-.33.33ZM15.86,10.61h3.28v-.66h-3.28v.66Z"/>
        <path class="cls-3" d="M18.49,9.95h-1.97c-.18,0-.33-.15-.33-.33v-.99c0-.72.59-1.31,1.31-1.31s1.31.59,1.31,1.31v.99c0,.18-.15.33-.33.33h0ZM16.84,9.29h1.31v-.66c0-.36-.29-.66-.66-.66s-.66.29-.66.66v.66Z"/>
        <path class="cls-3" d="M17.5,6.67c-.18,0-.33-.15-.33-.33v-.33c0-.18.15-.33.33-.33s.33.15.33.33v.33c0,.18-.15.33-.33.33Z"/>
        <path class="cls-3" d="M16.07,6.81l-.16-.28c-.09-.16-.04-.36.12-.45.16-.09.36-.04.45.12l.16.28c.09.16.04.36-.12.45-.16.09-.36.04-.45-.12Z"/>
        <path class="cls-3" d="M15.35,7.77l-.28-.16c-.16-.09-.21-.29-.12-.45.09-.16.29-.21.45-.12l.28.16c.16.09.21.29.12.45-.09.16-.29.21-.45.12Z"/>
        <path class="cls-3" d="M19.21,7.65c-.09-.16-.04-.36.12-.45l.28-.16c.16-.09.36-.04.45.12.09.16.04.36-.12.45l-.28.16c-.16.09-.36.04-.45-.12Z"/>
        <path class="cls-3" d="M18.49,6.93c-.16-.09-.21-.29-.12-.45l.16-.28c.09-.16.29-.21.45-.12.16.09.21.29.12.45l-.16.28c-.09.16-.29.21-.45.12Z"/>
      </g>
      <g>
        <path class="cls-2" d="M17.5,1.4c8.88,0,16.1,7.22,16.1,16.1s-7.22,16.1-16.1,16.1S1.4,26.38,1.4,17.5,8.62,1.4,17.5,1.4M17.5,0C7.84,0,0,7.83,0,17.5s7.84,17.5,17.5,17.5,17.5-7.83,17.5-17.5S27.16,0,17.5,0h0Z"/>
        <line class="cls-1" x1="5.46" y1="5.13" x2="29.54" y2="29.87"/>
      </g>
    </g>
  </g>
</svg>