<?xml version="1.0" encoding="UTF-8"?>
<svg id="Layer_2" data-name="Layer 2" xmlns="http://www.w3.org/2000/svg" viewBox="0 0 48.86 35">
  <defs>
    <style>
      .cls-1 {
        fill: #eb5f00;
      }
    </style>
  </defs>
  <g id="Layer_1-2" data-name="Layer 1">
    <g>
      <path class="cls-1" d="M26.05,16.49s-.08,0-.12-.02l-.06-.03c-.24-.11-.34-.39-.23-.63l1.87-3.98h-3.62c-.16,0-.31-.08-.4-.23-.09-.14-.1-.31-.02-.46l2.48-4.84c.08-.16.25-.26.43-.26.08,0,.15.02.22.05.23.12.32.41.2.64l-2.13,4.15h3.58c.16,0,.31.08.4.22.09.14.1.31.03.45l-2.19,4.65c-.08.17-.24.28-.43.28Z"/>
      <path class="cls-1" d="M44.42,35c-2.45,0-4.44-1.99-4.44-4.44s1.99-4.44,4.44-4.44,4.44,1.99,4.44,4.44-1.99,4.44-4.44,4.44ZM44.42,27.07c-1.92,0-3.49,1.57-3.49,3.49s1.57,3.49,3.49,3.49,3.49-1.57,3.49-3.49-1.57-3.49-3.49-3.49Z"/>
      <path class="cls-1" d="M20.75,31.04c-.26,0-.47-.21-.47-.47s.21-.47.47-.47h16.55l.02-.18c.33-3.65,3.46-6.52,7.13-6.52.96,0,1.9.19,2.79.57l.39.16-.35-1.26c-.34-1.21-1.25-2.13-2.45-2.49l-4.08-1.2-5.99,8.93c-.09.13-.24.21-.39.21-.09,0-.18-.03-.27-.08-.21-.15-.27-.44-.12-.66l5.83-8.69-5.89-1.77-1.39,2.3c-.09.14-.24.23-.41.23-.09,0-.18-.02-.24-.06-.11-.07-.19-.17-.22-.3-.03-.12-.01-.25.05-.35l3.16-5.22c.08-.14.24-.23.4-.23.09,0,.17.02.24.07.11.07.19.17.22.29.03.12.01.25-.05.35l-1.26,2.09,6.27,1.88,4.41,1.29c1.52.45,2.67,1.62,3.09,3.15l.66,2.4c.02.05.02.11.02.16,0,.08-.01.12-.03.16-.05.1-.08.14-.11.18-.05.05-.1.08-.15.09-.12.02-.16.03-.19.03l-.17-.03-.12-.07c-1.08-.79-2.34-1.2-3.66-1.2h0c-3.42.02-6.19,2.81-6.19,6.23,0,.06-.01.12-.04.19-.07.17-.25.29-.44.29h-17.01Z"/>
      <path class="cls-1" d="M11.32,35c-2.45,0-4.44-1.99-4.44-4.44s1.99-4.44,4.44-4.44,4.44,1.99,4.44,4.44-1.99,4.44-4.44,4.44ZM11.32,27.07c-1.92,0-3.49,1.57-3.49,3.49s1.57,3.49,3.49,3.49,3.49-1.57,3.49-3.49-1.57-3.49-3.49-3.49Z"/>
      <path class="cls-1" d="M44.42,29.83c-.4,0-.72.32-.72.72s.32.72.72.72.72-.32.72-.72-.32-.72-.72-.72Z"/>
      <path class="cls-1" d="M44.42,31.08c-.29,0-.52-.23-.52-.52s.23-.52.52-.52.52.23.52.52-.23.52-.52.52Z"/>
      <circle class="cls-1" cx="11.32" cy="30.56" r=".72"/>
      <circle class="cls-1" cx="11.32" cy="30.56" r=".52"/>
      <path class="cls-1" d="M43.74,17.38c-.23,0-.42-.16-.46-.38l-2.65-14.01h-24.58v6.4c0,.26-.21.47-.47.47s-.47-.21-.47-.47V2.98H1.37c-.18,0-.34-.1-.41-.25-.08-.16-.07-.34.02-.49C1.91.84,3.48,0,5.16,0h34.34c1.69,0,3.25.84,4.19,2.24.1.15.1.33.02.49-.08.15-.24.25-.42.25h-1.7l2.61,13.84c.05.26-.12.51-.38.55h-.09ZM5.16.95c-.82,0-1.62.25-2.3.71l-.54.37h40.04l-.54-.37c-.68-.47-1.48-.71-2.3-.71H5.16Z"/>
      <path class="cls-1" d="M18.02,31.06c-.26,0-.47-.21-.47-.47,0-3.43-2.79-6.22-6.22-6.22-2.21,0-4.27,1.19-5.38,3.11l-.09.1h-.06l-.04.05-.13.05h-.1s-5.06.01-5.06.01c-.26,0-.47-.21-.47-.47s.21-.47.47-.47h4.66l1.44-7.51c.22-1.18,1.26-2.03,2.46-2.03h4.23v-3.26c0-1.28,1.04-2.31,2.31-2.31h.83c1.16,0,2.16.79,2.43,1.91l1.55,6.42h4.74c1.38,0,2.5,1.12,2.5,2.5v.63l.02.1-.02,4.66c0,.26-.21.47-.47.47s-.47-.21-.47-.47v-4.19h-7.03c-1.17,0-2.2-.83-2.45-1.96l-.14-.64-.4.04.2-.17H7.22l-.86,4.47.43-.35c1.29-1.05,2.9-1.63,4.53-1.63,3.95,0,7.17,3.22,7.17,7.17,0,.26-.21.47-.47.47ZM18.13,21.49c.16.71.79,1.22,1.52,1.22h7.03v-.2c0-.91-.7-1.61-1.55-1.61h-5.12s-.15-.03-.15-.03l-.16-.09-.08-.1-.04-.1-1.65-6.81c-.17-.69-.78-1.18-1.49-1.19h-.25s1.96,8.92,1.96,8.92ZM9.03,18.14c-.74,0-1.38.53-1.52,1.26l-.11.55h9.42l-1.62-7.36-.23.12c-.47.24-.76.71-.76,1.22v3.73c0,.26-.21.47-.47.47h-4.7Z"/>
    </g>
  </g>
</svg>