<?xml version="1.0" encoding="UTF-8"?>
<svg id="Layer_2" data-name="Layer 2" xmlns="http://www.w3.org/2000/svg" viewBox="0 0 35 35">
  <defs>
    <style>
      .cls-1 {
        fill: #eb5f00;
      }
    </style>
  </defs>
  <g id="Layer_1-2" data-name="Layer 1">
    <g>
      <path class="cls-1" d="M34.99,25.69c0-.23,0-.49-.04-.53-.01,0-.06-.03-.28-.03-.07,0-.16,0-.29,0-.13,0-.29-.02-.41-.13-.12-.12-.14-.29-.14-.45,0-2.19,0-4.37,0-6.56v-3.61c0-.08,0-.16-.02-.24-.03-.25-.06-.53.13-.73.11-.11.25-.17.45-.17.1,0,.2.01.3.03.08,0,.15.02.24.02.01,0,.04,0,.04,0,0-.02,0-.04,0-.08,0-4.38,0-8.76,0-13.13,0-.04,0-.07,0-.08-.01,0-.04,0-.09,0-2.76,0-5.52,0-8.28,0s-5.52,0-8.28,0c-.02,0-.06,0-.07,0,0,.01,0,.03,0,.07,0,.41,0,.82,0,1.22,0,.51,0,1.01,0,1.52,0,.17,0,.35-.13.48-.13.13-.31.15-.48.15-2.52,0-5.04,0-7.56,0-2.92,0-5.83,0-8.75-.01-.17,0-.2.03-.2.03,0,0-.03.04-.02.22.01,6.79,0,13.59,0,20.38,0,.07,0,.15.02.23.03.25.06.53-.13.73-.1.11-.25.16-.44.16-.09,0-.2-.01-.3-.02-.07,0-.14-.02-.23-.02-.02,0-.06,0-.06,0,0,.01,0,.04,0,.08.01.57,0,1.13,0,1.7v.66c0,.23,0,.5.04.54,0,0,.05.03.24.03.08,0,.17,0,.27,0h.05c.12,0,.29.01.41.13.13.13.14.31.14.48,0,.95,0,1.9,0,2.84,0,1.07,0,2.15,0,3.22,0,.14.02.17.02.17,0,0,.03.02.18.02h0c3.43,0,6.86,0,10.29,0h11.54c3.52,0,7.03,0,10.55,0,.08,0,.12,0,.13,0,0,0,0,0,0,0,0,0,.01-.04.01-.13-.01-1.93,0-3.85,0-5.64,0-.07-.01-.15-.02-.23-.03-.25-.07-.55.15-.74.14-.12.33-.13.46-.13.1,0,.21.01.32.02.06,0,.11.01.2.02.01,0,.03,0,.03,0,0-.02,0-.05,0-.09,0-.57,0-1.15,0-1.72v-.63ZM19,1.29c0-.16.02-.32.13-.43.12-.12.29-.13.42-.13h0c2.35,0,4.7,0,7.05,0s4.75,0,7.12,0c.14,0,.3.02.42.13.12.12.13.28.13.43,0,3.81,0,7.31,0,10.71,0,.16-.02.33-.13.45s-.28.13-.44.13h0c-1.25,0-2.5,0-3.74,0h-6.68c-1.24,0-2.47,0-3.72,0-.15,0-.31-.02-.43-.14-.12-.12-.13-.29-.13-.45,0-3.39,0-6.89,0-10.7ZM1.86,6.27c.03-.56.01-1.13,0-1.63,0-.13,0-.27.11-.38.11-.11.26-.12.35-.12,0,0,.02,0,.02,0,.19,0,.38,0,.57,0h.81s5.34,0,5.34,0c2.87,0,5.74,0,8.61,0,.16,0,.35.02.47.15.12.13.13.31.12.46-.03.48-.03.98,0,1.51,0,.15,0,.33-.12.45-.12.13-.3.14-.45.14h0c-1.35,0-2.71,0-4.06,0h-7.1c-1.37,0-2.74,0-4.12,0-.15,0-.33-.02-.45-.14-.12-.13-.13-.3-.12-.45ZM2,7.72c.12-.12.3-.14.48-.14,2.53,0,5.07,0,7.6,0s5.07,0,7.6,0c.16,0,.34.01.47.14.12.12.14.3.14.46,0,.82,0,1.64,0,2.45,0,.84,0,1.67,0,2.51,0,.12.01.15.01.15,0,0,.04.02.18.02,2.19,0,4.37,0,6.56,0,2.5,0,5,0,7.51,0,.16,0,.34.02.47.14.13.13.14.3.14.47-.01,3.4-.01,6.88,0,10.63,0,.16,0,.35-.14.48-.09.09-.21.13-.37.13-.03,0-.06,0-.1,0-.16-.01-.32-.02-.49-.02-.13,0-.25,0-.39,0-.14,0-.29,0-.44,0h-.39l.22-.33c.4-.59.57-1.18.54-1.87,0-.06,0-.09,0-.09-.01,0-.04,0-.09,0-1.05,0-2.09,0-3.14,0s-2.09,0-3.15,0c-.02,0-.06,0-.06,0,0,.01,0,.04,0,.08-.03.72.14,1.32.54,1.88l.23.33h-2.99l.16-.3.1-.19c.07-.13.13-.25.19-.37.2-.43.22-.9.22-1.31,0-.06,0-.09,0-.1-.01,0-.04,0-.1,0h0c-.72,0-1.44,0-2.16,0h-2.23s-1.06,0-1.06,0c-.28,0-.56,0-.85,0-.02,0-.03,0-.04,0,0,.01,0,.03,0,.06-.04.71.13,1.32.53,1.9l.22.33h-1.98c-.1,0-.34-.03-.39-.35-.2-1.33-.86-2.38-2.01-3.23l-.21-.15.19-.17c.67-.6.97-1.38.95-2.45-.02-.9-.02-1.82-.01-2.7,0-.52,0-1.03,0-1.55-.01-2.77-2.27-5.19-5.02-5.38-.14,0-.27-.01-.41-.01-2.76,0-5.12,2-5.51,4.66-.06.41-.06.81-.06,1.23v.31c0,.4,0,.8,0,1.2,0,.7.01,1.42-.02,2.13-.04,1.17.25,1.97.95,2.57l.2.17-.21.15c-1.11.8-1.79,1.85-2.08,3.23l-.41-.04v-3.3c0-4.42,0-8.84,0-13.26,0-.16.02-.34.14-.47ZM30.62,24.09c-.34.63-.89.98-1.63,1.04-.08,0-.17,0-.26,0h-.58s-.23,0-.23,0c-.18,0-.39,0-.6-.07-.54-.14-.95-.46-1.22-.95-.05-.09-.14-.25-.05-.4.09-.15.28-.15.35-.15h0c.65,0,1.29,0,1.94,0s1.32,0,1.99,0c.06,0,.24,0,.33.15.09.15,0,.3-.03.37ZM22.61,24.12c-.35.61-.88.95-1.54.99h-.11c-.24.02-.48.04-.73.04-.34,0-.62-.03-.89-.09-.52-.12-.94-.44-1.23-.94-.04-.07-.14-.24-.05-.4.09-.16.29-.16.36-.16h.02c.28,0,.56,0,.84,0h1.08s1.09,0,1.09,0c.28,0,.56,0,.86,0,.07,0,.27,0,.36.16.09.16,0,.33-.05.4ZM13.71,19.11c0,.51-.15.95-.44,1.29-.23.28-.52.56-.94.56-.15,0-.31-.04-.47-.12-.07-.03-.16-.05-.26-.07-.1-.02-.21-.04-.31-.09-.25-.11-.41-.28-.44-.5-.03-.22.07-.44.28-.61.68-.55,1.01-1.23,1.01-2.06,0-.45,0-.9,0-1.35,0-.6,0-1.19,0-1.79,0-.03,0-.06,0-.09h-.03c-.07,0-.14,0-.21,0-1.16,0-2.09-.56-2.74-1.65-.05-.09-.16-.27-.23-.36-.07.08-.18.27-.23.35-.66,1.1-1.58,1.66-2.75,1.66-.06,0-.13,0-.22,0,0,0-.01,0-.01,0,0,.01,0,.03,0,.05,0,.43,0,.86,0,1.29,0,.67,0,1.37.01,2.05.02.73.36,1.37,1,1.89.22.18.32.41.29.63-.03.21-.19.39-.44.49-.25.1-.52.16-.77.23l-.24.06s-.07.01-.1.01c-.14,0-.24-.07-.32-.12l-.04-.02c-.61-.37-.94-.95-.94-1.66v-.76c-.02-1.3-.03-2.64,0-3.96.07-2.43,1.99-4.41,4.48-4.6.11,0,.23-.01.34-.01,2.2,0,4.19,1.66,4.63,3.87.13.67.12,1.36.1,2.01,0,.31-.01.63,0,.94,0,0,0,1.9,0,2.43ZM7.03,21.28c.29-.1.53-.37.65-.74.09-.27.25-.4.54-.4h.05c.22,0,.44.01.66.01.24,0,.48,0,.76-.01.26,0,.41.11.5.36.15.45.45.75.89.89.37.12.37.41.37.58,0,.38,0,.59-.14.74-.15.15-.35.15-.75.15h-2.74c-.29,0-.57,0-.89,0-.07,0-.27,0-.39-.14-.12-.14-.09-.33-.08-.4,0-.01,0-.03,0-.04-.05-.32-.05-.78.58-.99ZM6.44,15.42c0-.18.03-.42.39-.49.68-.14,1.28-.46,1.77-.96.07-.07.18-.18.34-.18.14,0,.25.1.32.17.49.51,1.1.84,1.8.98.34.07.38.3.38.47,0,.26,0,.53,0,.79,0,.45,0,.9,0,1.35-.03.99-.73,1.75-1.71,1.86-.26.03-.53.04-.79.04s-.54-.02-.79-.05c-1-.12-1.68-.9-1.7-1.94,0-.22,0-.45,0-.67v-.6c0-.25,0-.5,0-.76ZM5.42,21.81l.3-.15v.81c0,.36,0,.69,0,1.03,0,.04,0,.06,0,.07.01,0,.04,0,.09,0,1.05,0,2.09,0,3.14,0s2.09,0,3.14,0c.02,0,.07,0,.07,0,0-.01,0-.03,0-.06-.01-.34,0-.68,0-1.05v-.8s.3.15.3.15c1.19.58,1.93,1.45,2.26,2.66.06.23.11.39,0,.52-.1.13-.26.13-.52.13h-4.5c-2.01,0-4.01,0-6.03,0-.18,0-.37-.01-.48-.16-.11-.14-.07-.33-.03-.49.34-1.22,1.08-2.09,2.27-2.68ZM33.13,33.75c0,.14-.01.29-.12.4-.11.11-.26.13-.4.13-5.04,0-10.08,0-15.11,0s-10.08,0-15.11,0c-.13,0-.28-.01-.4-.13-.11-.11-.12-.27-.12-.4.01-1.96.01-3.55,0-5.03,0-.16.01-.33.13-.45.12-.12.29-.14.44-.14h0c3.23,0,6.45,0,9.68,0h11.13c3.09,0,6.18,0,9.28,0,.16,0,.34.02.47.14.12.13.14.3.14.48-.01,1.49-.01,3.08,0,4.99ZM34.28,26.49v.06c-.03.78-.13.87-.93.87H11.55c-3.41,0-6.81,0-10.23,0-.16,0-.35-.02-.48-.15-.13-.13-.14-.31-.13-.48v-.05c.03-.8.12-.9.95-.9h8.89c7.7,0,15.39,0,23.09,0,.17,0,.37.02.5.15.13.13.14.32.13.49Z"/>
      <path class="cls-1" d="M18.74,21.27c.05,0,.11,0,.17.02.04,0,.07.01.11.01h.03c.13-.22.29-.36.45-.5l.1-.09c.19-.18.4-.39.49-.68.19-.63,0-1.15-.63-1.68-.28-.23-.45-.42-.45-.66s.17-.43.45-.67c.34-.29.56-.54.66-.88.01-.04.03-.1.04-.14-.04,0-.09,0-.13,0h-.63c-.11.23-.3.38-.46.52-.09.07-.17.14-.24.22-.27.3-.4.61-.39.99,0,.56.34.9.79,1.29.18.16.36.35.36.58,0,.24-.17.43-.36.59l-.09.08c-.23.2-.44.39-.56.64-.12.25-.14.34-.15.34,0,0,0,0,0,0,.02.01.09.04.37.04.03,0,.07-.01.11-.01Z"/>
      <path class="cls-1" d="M21.59,21.27c.05,0,.11,0,.17.02.04,0,.07.01.11.01h.03c.13-.22.29-.36.45-.5l.1-.09c.19-.18.4-.39.49-.68.19-.63,0-1.15-.63-1.68-.28-.23-.45-.42-.45-.66,0-.24.17-.43.45-.67.34-.29.56-.54.66-.88.01-.04.03-.1.04-.14-.04,0-.09,0-.12,0h-.63c-.11.23-.3.38-.47.52-.08.07-.17.14-.24.22-.28.31-.4.63-.39,1.02.01.54.35.88.78,1.26.18.16.36.35.36.59,0,.24-.17.43-.36.59l-.1.08c-.23.2-.44.39-.56.64-.12.25-.14.34-.15.34,0,0,0,0,0,0,.02.01.09.04.37.04.03,0,.07-.01.11-.01Z"/>
      <path class="cls-1" d="M26.72,21.28c.05,0,.11,0,.17.01.04,0,.08.01.12.01h.01c.13-.21.31-.36.47-.51.08-.07.15-.13.22-.2.31-.33.46-.68.43-1.09-.02-.38-.19-.69-.5-.96l-.1-.09c-.32-.27-.55-.47-.54-.75,0-.29.25-.54.64-.85.17-.14.31-.32.4-.54.06-.14.09-.24.11-.3-.05,0-.13-.01-.29-.01h-.48c-.11.23-.3.38-.46.52-.07.06-.14.12-.21.18-.36.36-.49.77-.41,1.25.06.38.3.66.67.98.25.22.46.43.46.68,0,.26-.22.46-.48.69-.2.17-.41.36-.53.6-.14.27-.15.35-.16.35h0s.09.04.39.04c.03,0,.05,0,.08,0Z"/>
      <path class="cls-1" d="M29.59,21.27c.05,0,.11,0,.17.02.04,0,.07.01.11.01h.03c.13-.22.29-.36.45-.5.04-.04.09-.08.13-.12.18-.17.38-.38.47-.66.19-.63,0-1.14-.6-1.66-.3-.25-.47-.45-.48-.68,0-.24.17-.42.47-.69.31-.27.54-.51.63-.86.01-.04.03-.1.04-.15-.04,0-.1,0-.12,0h-.63c-.11.23-.3.38-.46.52-.08.07-.17.14-.24.22-.28.31-.4.63-.39,1.02.01.54.35.88.78,1.26.18.16.36.35.36.59,0,.24-.17.43-.36.59l-.1.09c-.23.2-.44.39-.56.64-.12.25-.14.34-.15.34,0,0,0,0,0,0,.02.01.09.04.37.04.03,0,.07-.01.11-.01Z"/>
      <path class="cls-1" d="M20.57,3.54v.21c-.01.78.28,1.45.87,1.99.19.17.27.36.27.61,0,1.03,0,2.07,0,3.1,0,.88.65,1.55,1.5,1.55.85,0,1.5-.67,1.5-1.55,0-1.03,0-2.07,0-3.1,0-.26.08-.45.27-.62.45-.4.73-.89.83-1.46.06-.37.06-.74.05-1.14,0-.26-.01-.53,0-.8,0-.03,0-.05,0-.06-.02,0-.05,0-.1,0h0c-.4,0-.79,0-1.19,0h-1.38s-1.4,0-1.4,0c-.38,0-.75,0-1.15,0-.04,0-.08,0-.08,0,0,.01,0,.04,0,.1.02.39.01.78,0,1.16ZM24,6.99c-.02.26-.02.52-.01.8,0,.12,0,.24,0,.36v.4c0,.28,0,.56,0,.84,0,.52-.33.89-.78.89-.45,0-.78-.36-.78-.89,0-.36,0-.72,0-1.09,0-.48,0-.96,0-1.44,0-.12.01-.26.11-.35.07-.07.15-.1.26-.1.04,0,.08,0,.13.01.08.01.17.02.26.02.07,0,.14,0,.21-.02.07-.01.13-.02.18-.02.14,0,.25.04.32.13.12.13.12.31.11.45ZM21.39,3.15c.13-.14.33-.14.68-.14h2c.2,0,.4,0,.62,0,.43,0,.44.35.44.47.02,1.08-.47,1.86-1.34,2.14-.19.06-.39.09-.59.09-1.02,0-1.86-.82-1.92-1.86-.02-.36-.03-.55.1-.7Z"/>
      <path class="cls-1" d="M28.3,5.75c.19.17.27.35.26.62,0,1.03,0,2.07,0,3.1,0,.88.65,1.54,1.51,1.54h0c.85,0,1.49-.66,1.49-1.53,0-1.05,0-2.09,0-3.14,0-.25.08-.43.26-.59.47-.41.75-.91.84-1.49.11-.68.11-1.37.02-2,0,0-.02,0-.06,0-.07,0-.14.01-.21.02-.1.01-.2.03-.29.03-.04,0-.08,0-.13,0v.02c0,.49,0,.98,0,1.47,0,.85-.63,1.68-1.32,1.77l-.24.03v-2.69c0-.25,0-.52-.04-.56-.04-.04-.3-.04-.53-.05h-.05c-.05,0-.08,0-.09,0,0,0,0,0,0,0,0,.01,0,.05,0,.12.01.71,0,1.42,0,2.14v1.12s-.28-.11-.28-.11c-.63-.24-1.05-.68-1.21-1.3-.09-.34-.08-.68-.07-1.01,0-.11,0-.22,0-.34q0-.64-.31-.64c-.1,0-.22,0-.39.01-.01,0-.02,0-.03,0,0,0,0,.02,0,.04,0,.48,0,.96,0,1.43,0,.78.29,1.45.88,1.99ZM29.38,6.51s.12-.1.24-.1c.05,0,.1,0,.15.02h.13c.07,0,.14,0,.21-.02.09,0,.18-.02.26-.02.1,0,.25.01.36.12.18.19.15.46.12.68,0,.07-.02.15-.02.22,0,.65,0,1.31,0,1.96,0,.52-.31.89-.78.9-.45,0-.77-.37-.77-.91,0-.29,0-.59,0-.88v-.74c0-.3,0-.6,0-.9,0-.11,0-.25.1-.34Z"/>
    </g>
  </g>
</svg>