<?xml version="1.0" encoding="UTF-8"?>
<svg id="Layer_2" data-name="Layer 2" xmlns="http://www.w3.org/2000/svg" viewBox="0 0 34.74 35">
  <defs>
    <style>
      .cls-1 {
        fill: #eb5f00;
      }
    </style>
  </defs>
  <g id="Layer_1-2" data-name="Layer 1">
    <g>
      <path class="cls-1" d="M34.73,26.58c0-.74-.37-1.26-1.08-1.55-.24-.1-.33-.23-.32-.49.01-.6.01-1.2,0-1.78-.05-2.88-2.06-5.14-4.89-5.51-.38-.05-.46-.24-.45-.54,0-4.43,0-8.86,0-13.3v-1.58c0-.17,0-.33-.04-.49-.16-.66-.59-1.08-1.31-1.34H1.39C.44.33,0,.92,0,1.86c0,5.4,0,10.8,0,16.2v8.13c0,.18,0,.35.05.51.23.82.86,1.29,1.74,1.29,1.1,0,2.19,0,3.29,0h4.27s.08,0,.12,0c.24-.03.36-.16.37-.38.02-.24-.1-.38-.35-.45-.04,0-.08-.01-.14-.01h-.18s-7.28,0-7.28,0c-.73,0-1.05-.32-1.05-1.05v-2.86c0-2.78,0-5.56,0-8.34,0-.14.01-.28.1-.37.09-.09.23-.1.37-.1,1.98,0,3.97,0,5.95,0s3.89,0,5.83,0c.14,0,.28.01.37.1.09.09.1.23.1.37-.01,2.06,0,4.13,0,6.19v2.79c0,.95,0,1.91,0,2.86,0,.11,0,.24-.09.32-.08.08-.19.09-.26.09,0,0-.05,0-.05,0-.15,0-.3-.01-.46-.01h-.67c-.28,0-.47.06-.58.17-.07.07-.1.15-.1.27,0,.19.08.42.69.42h3.76c1.52,0,3.03,0,4.56,0,.13,0,.27.01.36.1.09.09.1.23.1.37-.01,1.39-.01,2.87,0,4.81,0,1.01.72,1.72,1.73,1.72h5.22s5.22,0,5.22,0c1,0,1.73-.71,1.73-1.68.01-2.1.01-4.3,0-6.73ZM27.78,18.04c.27,0,.55.03.81.08,2.07.4,3.61,2.02,3.83,4.02.06.54.05,1.09.04,1.63,0,.27,0,.55,0,.82,0,.12-.02.2-.08.26-.05.05-.11.07-.19.07-.03,0-.07,0-.11,0-.03,0-.05,0-.09,0,0,0-.06,0-.06,0-.04,0-.07,0-.11,0-.19,0-.29-.11-.29-.33,0-.2,0-.41,0-.61,0-.53.01-1.08-.04-1.61-.17-1.79-1.66-3.24-3.47-3.37-.09,0-.18,0-.27,0-1.71,0-3.25,1.21-3.64,2.87-.14.59-.13,1.21-.12,1.81,0,.24,0,.47,0,.7,0,.27-.06.59-.44.59-.08,0-.17-.01-.28-.04-.2-.05-.2-.19-.2-.27v-.09s0-1.3,0-1.3c-.05-.7,0-1.76.57-2.77.82-1.48,2.43-2.43,4.1-2.43ZM24.88,23.62c-.02-.52-.03-1.06.09-1.59.23-.94.83-1.62,1.79-2.01.08-.03.14-.05.19-.05.07,0,.11.03.13.05.06.06.07.17.07.27,0,.59,0,1.19,0,1.78v.62c0,.57.22.65.43.65.19,0,.42-.08.42-.67v-.65c0-.6,0-1.19,0-1.79,0-.15.02-.24.08-.3.04-.05.11-.07.18-.07.05,0,.1,0,.17.02,1.29.3,2.21,1.42,2.24,2.72,0,.34,0,.68,0,1.02,0,.3,0,.6,0,.9,0,.08,0,.2-.08.28-.07.08-.18.09-.29.09h0c-.4,0-.81,0-1.21,0h-2.68c-.37,0-.75,0-1.14,0-.11,0-.23-.01-.31-.1-.06-.07-.09-.16-.08-.3.02-.29,0-.6,0-.89ZM14,4.96h0c-.2,0-.42.1-.42.73v1.72c0,1.9,0,3.8,0,5.7,0,.18-.03.29-.1.37-.09.09-.23.1-.38.1-1.99,0-3.97,0-5.96,0s-3.88,0-5.83,0c-.13,0-.27-.01-.36-.1-.09-.09-.1-.23-.1-.37,0-2.78,0-5.55,0-8.33V1.91c0-.72.33-1.06,1.05-1.06h3.96c2.42,0,4.85,0,7.28,0,.13,0,.26.01.35.1.09.09.09.23.09.34-.02.42-.01.84,0,1.25v.25c0,.36.15.54.44.55.28,0,.42-.19.43-.55,0-.52.01-1.05,0-1.58,0-.09,0-.2.08-.28.08-.08.19-.09.29-.09,2.05,0,4.09,0,6.14,0,1.76,0,3.51,0,5.26,0,.59,0,.95.37.95.95v4.25c0,2.39,0,4.77,0,7.16,0,.13-.03.22-.09.28-.08.08-.18.08-.29.08h-3.03s-8.78,0-8.78,0c-.51,0-.55-.04-.55-.56v-7.32c0-.72-.31-.73-.44-.73ZM20.84,26.62c0,.2-.03.33-.11.42-.1.1-.26.12-.44.12h0c-.88,0-1.77-.01-2.65-.01s-1.85,0-2.79.01c-.16,0-.26-.03-.33-.1-.09-.09-.1-.21-.1-.34,0-3.95,0-7.9,0-11.85,0-.13.01-.26.1-.34.09-.09.21-.1.34-.1,1.03,0,2.06,0,3.09,0h5.75c1,0,2,0,3.02,0,.12,0,.26.01.35.1.09.09.1.23.09.36-.02.56-.02,1.15,0,1.92,0,.26-.05.42-.38.49-2.4.5-4.03,2.17-4.47,4.57-.12.64-.1,1.31-.08,1.95,0,.21.01.43.01.64,0,.28-.06.48-.39.62-.68.29-1.03.83-1.01,1.55ZM33.89,33.14c0,.69-.33,1.02-1.01,1.02h-10.2c-.68,0-1.01-.33-1.01-1.02,0-2.12,0-4.24,0-6.35,0-.7.3-1.01,1.01-1.01h2.33s7.84,0,7.84,0c.76,0,1.04.28,1.04,1.07v6.3Z"/>
      <path class="cls-1" d="M2.34,21.47c-.5.5-.77,1.17-.77,1.89,0,1.48,1.17,2.64,2.66,2.64h0c1.46,0,2.66-1.19,2.66-2.65,0-1.46-1.19-2.66-2.66-2.66-.72,0-1.39.28-1.89.78ZM6.04,23.35c0,1-.82,1.81-1.83,1.81-.98-.01-1.78-.82-1.78-1.81,0-.99.8-1.8,1.79-1.81h.02c.47,0,.92.19,1.27.54.35.35.54.8.54,1.28Z"/>
      <path class="cls-1" d="M4.22,7.06c-1.46,0-2.65,1.19-2.65,2.65,0,1.47,1.18,2.66,2.64,2.67h.01c1.44,0,2.66-1.21,2.66-2.65,0-.71-.27-1.38-.77-1.89-.5-.51-1.18-.79-1.89-.79ZM5.51,10.99c-.34.35-.8.54-1.29.54h0c-.99-.01-1.79-.82-1.79-1.8,0-.49.18-.94.52-1.28.34-.34.79-.52,1.28-.52h0c.99,0,1.79.81,1.8,1.79,0,.48-.19.93-.53,1.28Z"/>
      <path class="cls-1" d="M17.89,20.69c-.71,0-1.37.28-1.87.78-.5.5-.77,1.17-.77,1.88,0,1.48,1.17,2.64,2.65,2.65.72,0,1.39-.28,1.89-.79.5-.51.78-1.18.77-1.89-.01-1.45-1.21-2.63-2.68-2.63ZM17.91,25.16c-.48,0-.94-.19-1.28-.53-.34-.34-.53-.8-.53-1.28,0-.99.8-1.8,1.79-1.81h.02c.47,0,.93.19,1.27.54.35.35.54.8.53,1.28,0,.99-.81,1.8-1.81,1.8Z"/>
      <path class="cls-1" d="M27.83,26.68c-.57,0-1.11.21-1.53.59-.47.43-.74,1.03-.75,1.66,0,.6.22,1.15.65,1.57.36.35.49.69.45,1.14-.01.1,0,.2.03.31.06.34.36.6.69.63.05,0,.1,0,.16,0h.28s.02,0,.03,0h.18s.1,0,.1,0c.56,0,.88-.32.9-.9,0-.15.01-.31,0-.46-.02-.22.05-.38.25-.54.48-.39.77-.94.82-1.56.05-.62-.15-1.23-.56-1.7-.42-.48-1.04-.76-1.69-.76ZM28.53,30.16c-.3.16-.41.37-.39.72,0,.09,0,.18,0,.27,0,.08,0,.16,0,.24,0,.09,0,.2-.07.28-.06.06-.14.09-.27.09-.11,0-.19-.03-.24-.08-.07-.07-.07-.17-.07-.27,0-.04,0-.09,0-.13,0-.06,0-.12,0-.19.05-.49-.09-.78-.5-1.01-.55-.31-.76-1.06-.49-1.7.23-.52.73-.85,1.3-.85.11,0,.22.01.33.04.62.14,1.07.71,1.07,1.37,0,.55-.24.97-.7,1.21Z"/>
      <path class="cls-1" d="M3.78,22.99c-.18.02-.4.1-.4.42,0,.24.13.38.41.43.05,0,.09,0,.14,0,.04,0,.2,0,.23,0,0,0,.02,0,.02,0,.05,0,.23,0,.28,0,.05,0,.1,0,.15-.01.18-.03.4-.13.39-.44,0-.24-.14-.38-.39-.4-.14-.01-.29-.02-.43-.02-.14,0-.27,0-.4.02Z"/>
      <path class="cls-1" d="M4.64,9.37c-.15-.01-.3-.02-.45-.02s-.3,0-.45.03c-.23.03-.36.18-.35.42,0,.24.14.38.38.4.05,0,.1,0,.16,0h.28s.01,0,.02,0h.24s.1,0,.15,0c.25-.02.41-.19.4-.41,0-.25-.14-.4-.37-.42Z"/>
      <path class="cls-1" d="M20.76,11.99h.02c1.27,0,2.47-.5,3.38-1.42.91-.92,1.41-2.12,1.41-3.4-.01-2.62-2.16-4.75-4.8-4.75-2.62,0-4.76,2.14-4.76,4.77,0,2.63,2.13,4.78,4.75,4.79ZM20.78,3.28h0c2.16,0,3.93,1.75,3.94,3.9,0,1.05-.41,2.04-1.16,2.79-.75.75-1.74,1.17-2.79,1.17-2.15,0-3.91-1.78-3.91-3.94,0-2.16,1.76-3.92,3.91-3.92Z"/>
      <path class="cls-1" d="M18.36,23.01c-.11-.02-.22-.03-.33-.03-.05,0-.1,0-.14-.01-.06,0-.11,0-.17,0-.12,0-.23.01-.34.03-.21.04-.32.17-.33.39,0,.16.04.35.3.41.17.04.35.06.52.06s.35-.02.52-.06c.25-.06.28-.27.28-.39,0-.15-.06-.35-.31-.4Z"/>
      <path class="cls-1" d="M20.69,7.27s.08.05.1.05c.02,0,.04,0,.06-.01l.35-.13s1.12-.42,1.52-.57c.06-.02.11-.06.12-.1,0-.03,0-.06-.02-.09-.03-.05-.07-.05-.09-.05s-.06,0-.1.02l-.62.23c-.33.12-.66.25-.99.37-.05.02-.09.03-.12.03-.09,0-.16-.05-.2-.1-.4-.41-.81-.81-1.22-1.22l-.58-.58c-.05-.05-.09-.09-.14-.09-.08,0-.1.05-.11.07-.02.04-.03.09.04.16l2.01,2.01Z"/>
      <path class="cls-1" d="M23.68,7.34h0c.07,0,.13-.07.13-.14s-.05-.13-.13-.13c-.07,0-.13.05-.14.13,0,.03.01.07.04.1.03.03.06.04.09.04Z"/>
      <path class="cls-1" d="M22.83,9.12c-.08,0-.13.05-.13.12,0,.04.01.07.04.1.02.03.06.04.09.04h0c.07,0,.13-.07.14-.13,0-.07-.05-.13-.14-.13Z"/>
      <path class="cls-1" d="M20.79,9.96c-.07,0-.13.06-.13.13,0,.08.05.14.13.14h0c.07,0,.13-.06.14-.13,0-.03-.01-.06-.04-.09-.03-.03-.06-.04-.1-.04Z"/>
      <path class="cls-1" d="M20.79,4.44h0s.07-.02.09-.04c.03-.03.04-.06.04-.09,0-.07-.06-.13-.14-.13-.04,0-.07.02-.09.04-.02.03-.04.06-.03.09,0,.07.07.13.13.13Z"/>
      <path class="cls-1" d="M22.83,5.29s.07-.02.09-.04c.03-.03.04-.06.04-.09,0-.07-.06-.13-.14-.13-.04,0-.07.01-.09.04-.02.03-.04.06-.03.1,0,.07.06.13.13.13Z"/>
      <path class="cls-1" d="M17.89,7.07h0c-.07,0-.12.06-.12.13s.06.13.13.13h0s.07-.02.09-.04c.03-.03.04-.06.04-.1,0-.07-.06-.12-.14-.12Z"/>
      <path class="cls-1" d="M18.75,9.38s.07-.02.09-.04c.03-.03.04-.06.04-.09,0-.07-.06-.13-.14-.13-.04,0-.07.02-.09.04-.02.03-.04.06-.03.09,0,.07.07.13.13.13Z"/>
    </g>
  </g>
</svg>