<?xml version="1.0" encoding="UTF-8"?>
<svg id="Layer_2" data-name="Layer 2" xmlns="http://www.w3.org/2000/svg" viewBox="0 0 35 35">
  <defs>
    <style>
      .cls-1 {
        fill: none;
        stroke: #ec1c24;
        stroke-miterlimit: 10;
        stroke-width: 1.4px;
      }

      .cls-2 {
        fill: #ec1c24;
      }

      .cls-3 {
        fill: #009345;
      }
    </style>
  </defs>
  <g id="Layer_1-2" data-name="Layer 1">
    <g>
      <path class="cls-3" d="M27.49,18.85c-.19-.45-.5-.64-.72-.72-.54-.19-1.15.03-1.57.25-.24.12-.45.3-.61.52-.56.78-1.42,1.24-2.56,1.38h0c-.43.05-.86.05-1.29,0-.04-.35-.16-.63-.37-.86-.61-.66-1.64-.48-1.76-.46h0s-.04,0-.07.02c-.06.02-.98.29-3.37-.02-.43-.06-.87-.09-1.31-.09.25-.51.74-1.21,1.34-1.22,1.18-.04,1.72,0,1.72,0,.24.02.44-.14.47-.38,0-.04.08-.38.45-.64.48-.33,1.27-.4,2.29-.2.77.15,2.07.3,2.42,1.12.31.72.88.69,1.13.64h0c.08-.02.12-.09.11-.17-.04-.19-.16-.58-.52-.99-.61-.7-1.6-1.19-2.96-1.46-.14-.03-.27-.05-.4-.07-.15-.02-.25-.15-.25-.3h0c0-.28.06-.73.26-1.26.23-.6.6-1.19,1.11-1.75.64-.71,1.51-1.37,2.56-1.97.21-.12.29-.38.19-.59h0c-.05-.11-.15-.19-.26-.22-.11-.03-.24-.02-.34.04-1.16.66-2.12,1.39-2.83,2.19-.14.15-.26.31-.38.46h0s-.1.07-.16.06c-.06-.01-.11-.06-.12-.12-.02-.09-.03-.18-.04-.27-.09-.83.26-1.56,1.03-2.17,1.05-.82,2.22-.94,3.25-1.04.5-.05.98-.1,1.42-.22.05-.02.11,0,.15.03.04.04.06.09.05.15-.1.51-.24,1.02-.42,1.51-.29.79-.68,1.46-1.15,1.99-.57.65-1.27,1.09-2.08,1.31h0c-.21.06-.35.26-.32.48.03.22.22.38.44.38.04,0,.08,0,.12-.02.98-.27,1.82-.8,2.51-1.59.54-.62.98-1.38,1.31-2.28.56-1.51.61-2.87.61-2.93,0-.19-.1-.35-.28-.42-.17-.07-.37-.02-.49.12-.39.44-1.08.51-1.97.6-1.09.11-2.45.25-3.71,1.23-.9.71-1.25,1.49-1.34,2.17,0,.05-.04.09-.09.11s-.1.01-.14-.02c-.85-.66-1.67-1-1.72-1.02-.22-.09-.48.02-.57.25-.09.22.02.48.24.57.02,0,1.74.71,2.59,2.05.05.11.09.19.13.24h0s.02.06,0,.08c-.05.12-.1.23-.14.35-.01.04-.05.06-.09.06-.51-.05-1.6-.25-2.59-1.05-.75-.6-1.29-1.47-1.58-2.5-.13-.47-.27-.86-.42-1.18-.03-.05-.03-.12,0-.17.02-.05.07-.1.13-.11.25-.08.5-.13.76-.17,1.1-.13,2.1.18,2.98.94.18.16.46.14.62-.05.16-.18.14-.46-.05-.62-1.35-1.16-2.76-1.26-3.7-1.13-1.01.13-1.71.54-1.73.55-.12.07-.2.19-.21.32-.02.13.03.27.13.37.1.1.36.45.65,1.49.33,1.21.98,2.23,1.87,2.95,1.14.92,2.36,1.17,3,1.24h0c-.03.18-.04.37-.05.55,0,.15-.11.27-.26.29-.47.07-.88.22-1.21.46-.3.21-.53.5-.68.83-.29,0-.77,0-1.46.01-.65.02-1.25.41-1.75,1.13h0c-.22.32-.4.66-.54,1.01,0,.02-.01.03-.01.05-.13.03-.26.06-.38.11-.41.15-.6.36-.69.49l-1.71,1.83c-.1.11-.27.14-.41.08-.23-.11-.48-.14-.73-.09-.25.05-.47.19-.63.38l-.62.74c-.22.26-.33.6-.32.94.01.34.15.67.38.91l3.87,4.08c.24.26.58.41.93.42h.06,0c.34,0,.66-.12.91-.35l.48-.43h0c.24-.21.39-.5.45-.81.05-.31,0-.63-.15-.91-.08-.14-.05-.31.07-.42l.56-.53h0c.17-.16.39-.23.62-.2l3.64.43c.51.06,1.03-.02,1.5-.25l3.34-1.59h0c.45-.21.84-.52,1.16-.89l1.98-2.32c.41-.49.53-1.17.3-1.73h0ZM13.61,27.04c0,.14-.07.28-.18.37l-.48.43h0c-.19.18-.49.16-.67-.03l-3.88-4.08c-.18-.19-.19-.48-.02-.68l.62-.75h0c.05-.05.11-.09.18-.09.07,0,.14.03.19.08,0,.12,4.09,4.36,4.09,4.36h0c.1.1.15.24.15.39h0ZM26.53,20.01l-1.97,2.33c-.24.28-.54.51-.87.67l-3.34,1.59c-.32.15-.67.21-1.02.17l-3.64-.43c-.48-.06-.97.1-1.32.43l-.52.48h0c-.14.13-.37.13-.51-.02l-2.59-2.76h0c-.13-.14-.13-.35,0-.49l1.74-1.86s.07-.1.07-.1h0s0,0,0,0h0s0,0,0-.01c.02-.02.09-.08.24-.13.33-.12.98-.23,2.27-.06,2.46.32,3.5.07,3.74,0,.19-.03.7-.05.92.2.11.12.2.35.12.83-.01.07-.07.13-.14.15-.7.19-2.4.58-4.46.49h0c-.12,0-.24.04-.32.12-.09.08-.14.2-.14.32,0,.24.19.43.43.44.21,0,.42.01.62.01,2.54,0,4.41-.62,4.49-.65.14-.05.24-.16.28-.3.03-.09.05-.19.07-.28.47.05.94.05,1.42,0,1.39-.15,2.5-.75,3.21-1.74h0c.08-.11.18-.2.3-.26.36-.19.68-.27.86-.2.06.02.14.07.21.23.11.26.05.58-.15.82h0Z"/>
      <g>
        <path class="cls-2" d="M17.5,1.4c8.88,0,16.1,7.22,16.1,16.1s-7.22,16.1-16.1,16.1S1.4,26.38,1.4,17.5,8.62,1.4,17.5,1.4M17.5,0C7.84,0,0,7.83,0,17.5s7.84,17.5,17.5,17.5,17.5-7.83,17.5-17.5S27.16,0,17.5,0h0Z"/>
        <line class="cls-1" x1="5.46" y1="5.13" x2="29.54" y2="29.87"/>
      </g>
    </g>
  </g>
</svg>