<?xml version="1.0" encoding="UTF-8"?>
<svg id="Layer_2" data-name="Layer 2" xmlns="http://www.w3.org/2000/svg" viewBox="0 0 32.36 35">
  <defs>
    <style>
      .cls-1 {
        fill: #eb5f00;
      }
    </style>
  </defs>
  <g id="Layer_1-2" data-name="Layer 1">
    <g>
      <path class="cls-1" d="M25.23,11.31c-.1-.44.07-.59.4-.72,1.69-.64,3.37-1.28,5.05-1.93l.51-.2c1.02-.39,1.39-1.18,1.05-2.23-.2-.61-.4-1.22-.61-1.84l-.29-.87c-.29-.89-.82-1.34-1.57-1.34-.25,0-.52.05-.81.15l-2.69.9c-3.04,1.02-6.08,2.03-9.13,3.03-.83.27-1.28.7-1.44,1.39-.05.19-.14.29-.28.29-.09,0-.18-.05-.27-.1-.54-.33-1.08-.66-1.63-.98-.18-.11-.29-.25-.34-.45-.29-1.17-.58-2.34-.88-3.51-.05-.2-.03-.38.06-.56.37-.76.4-1.58.35-2.36l-2.2.5c-1.84.41-3.67.83-5.51,1.25C1.69,2.52-.43,5.55.07,8.81c.61,3.96,2.8,6.62,6.5,7.9.24.08.4.23.45.42.05.19-.02.4-.19.59-2.12,2.36-3.19,5.14-3.19,8.26v8.39q0,.62.63.64h.04c.12,0,.16-.02.17-.03.02-.02.04-.07.04-.22v-1.24c-.02-2.55-.03-5.18,0-7.78.04-2.72.99-5.17,2.81-7.27.09-.1.22-.22.39-.22.1,0,.2.04.33.12.94.58,1.88,1.15,2.82,1.72,1.19.73,2.39,1.46,3.58,2.19,2.13,1.32,3.22,3.29,3.24,5.83.01,1.44.01,2.89,0,4.33v1.9q0,.65.6.66h.08c.11,0,.15-.01.17-.03.01-.01.03-.05.03-.2-.01-1.64-.01-3.28,0-4.93v-2.18c0-.16,0-.31-.03-.44-.13-.45.12-.59.41-.68l1.03-.31c1.56-.48,3.18-.97,4.75-1.51,1.85-.63,2.92-2.56,2.51-4.48-.72-3.29-1.46-6.51-2.02-8.94ZM19.96,6.28l.7-.23c.62-.2,1.26-.41,1.88-.64.12-.04.22-.07.3-.07.36,0,.4.37.42.49.01.09.03.18.06.27l.04.15v.03c-.05.34-.21.56-.48.66l-.55.21c-.63.24-1.27.49-1.91.71-.1.04-.21.06-.3.06-.33,0-.58-.22-.7-.6-.22-.72-.18-.8.54-1.04ZM15.46,9.93c.09-.03.18-.06.27-.08.19-.05.37-.1.48-.2.06-.06.05-.17.03-.35-.01-.12-.03-.25,0-.38.09-.44.24-.89.44-1.35.13-.28.4-.35.61-.42l.12-.04c.07-.02.15-.06.22-.09.16-.07.33-.14.48-.14.05,0,.1,0,.14.02.22.07.25.32.28.53.01.09.02.17.05.24.22.67.84,1.12,1.53,1.12.17,0,.35-.03.52-.09.86-.29,1.74-.63,2.62-.99.61-.25.94-.75.97-1.48,0-.26-.07-.51-.14-.78l-.05-.18c-.07-.24.01-.39.25-.47l2.11-.7c1.01-.34,2.01-.67,3.02-1,.11-.04.22-.06.32-.06.33,0,.57.2.7.61.32.95.64,1.89.95,2.84.19.57.03.89-.55,1.12-1.92.74-3.84,1.48-5.76,2.21-.3.11-.61.22-.91.33-.22.08-.45.16-.67.24-.07.03-.13.04-.18.04-.18,0-.27-.12-.34-.23-.33-.54-.85-.85-1.4-.85-.2,0-.39.04-.59.11-1.05.4-1.48,1.07-1.31,2.04.02.11.03.26-.05.38-.09.12-.23.14-.33.16-.25.03-.52.06-.76.15-.17.06-.33.09-.49.09-.39,0-.71-.19-.96-.55-.23-.33-.46-.48-.75-.48-.17,0-.37.05-.6.16-.22.1-.36.16-.48.16-.27,0-.34-.24-.45-.62-.2-.69-.15-.77.52-1l.14-.05ZM6.3,15.65c-1.16-.44-2.12-1.08-2.96-1.95-1.65-1.71-2.46-3.78-2.41-6.13.05-2.32,1.77-4.35,4.19-4.93,1.47-.35,2.97-.69,4.42-1.02l1.8-.41s.09-.01.15-.01l.28-.02-.04.19c-.12.64-.44,1.16-.98,1.65-.54.48-1.21.64-1.85.78l-.6.14c-.37.08-.74.17-1.11.26-.85.22-1.59.79-2.03,1.55-.33.57-.65,1.52-.29,2.8,0,.03.02.04.02.04.01,0,.06,0,.08,0h.35c.1,0,.19,0,.28,0,.65.04,1.17.49,1.26,1.1.1.64-.24,1.21-.87,1.46-.02,0-.04.01-.07.02q-.63.23-.43.89l.92,3.04c.02.07.04.14.06.22l.1.41-.26-.1ZM12.65,20.02h-.06c-.14,0-.24-.06-.31-.11l-.05-.03-1.56-.95c-.79-.48-1.58-.97-2.37-1.44-.23-.14-.37-.32-.45-.58-.44-1.49-.89-2.99-1.35-4.47-.06-.2-.1-.44.22-.63.79-.48,1.18-1.37.99-2.27-.19-.93-.75-1.51-1.67-1.71-.45-.1-.48-.38-.44-.66.15-1.04.92-1.87,1.96-2.11,0,0,1.61-.37,1.99-.46.69-.16,1.25-.44,1.79-.88l.18-.15.28,1.11c.21.81.41,1.6.6,2.39.04.19.12.29.28.38.56.33,1.12.66,1.7,1.02l.96.58-.74.25c-.32.11-.61.21-.91.3-.13.04-.17.07-.18.09-.01.02-.02.08.02.2.21.69.41,1.39.61,2.09l.21.75c.11.37.1.62-.01.81-.11.19-.33.3-.71.38l-.22.04c-.25.05-.49.09-.74.16-.54.15-.84.65-.74,1.22.19,1.03.85,4.68.85,4.68l-.16.02ZM13.61,19.49c-.17-1-.36-2-.54-2.99l-.19-1.06c-.02-.11-.05-.27.05-.39.06-.08.17-.13.32-.15.29-.03.58-.1.9-.19.81-.21,1.31-.96,1.19-1.78-.04-.3.07-.41.3-.51.17-.08.31-.11.44-.11.23,0,.44.11.64.35.33.38.73.57,1.23.57.17,0,.36-.02.56-.07.19-.04.37-.08.56-.11.18-.03.37-.07.55-.11.04-.01.08-.02.12-.02.15,0,.25.09.29.27l.98,4.57v.09c0,.27-.14.63-.67.74-.93.2-1.86.4-2.78.6l-1.01.21c-.77.16-1.54.32-2.31.5-.09.02-.15.03-.21.03-.33,0-.38-.3-.4-.42ZM22.04,24.56c-.06.11-.17.16-.27.19-1.06.31-2.11.65-3.1.97-.07.02-.13.03-.19.03-.23,0-.3-.21-.33-.27-.63-1.8-1.85-3.21-3.62-4.21-.06-.04-.12-.08-.21-.13l-.43-.29,1.13-.25c.63-.14,1.23-.27,1.83-.4l1.07-.23c.64-.14,1.28-.27,1.93-.41.07-.02.13-.02.18-.02.25,0,.34.19.39.33.51,1.43,1.03,2.86,1.56,4.28l.03.07c.04.11.08.23.02.34ZM24.46,23.9c-.18.07-.37.13-.56.18-.17.05-.35.1-.52.17-.07.03-.13.04-.18.04-.22,0-.29-.2-.32-.29-.54-1.49-1.08-2.97-1.62-4.46-.1-.27,0-.43.14-.56.42-.41.57-.93.44-1.54-.42-1.95-.84-3.9-1.26-5.85-.15-.68.02-.98.67-1.23.11-.04.22-.06.32-.06.28,0,.51.15.65.43.26.49.51.69.88.69.16,0,.34-.04.56-.11.18-.06.28-.09.38-.09.24,0,.29.2.36.51.66,2.91,1.32,5.81,1.97,8.72.03.13.04.26.05.39l.02.19c-.01,1.29-.8,2.43-1.99,2.88Z"/>
      <path class="cls-1" d="M14.48,25.99q0-.66-.63-.68h-.06c-.12,0-.16.02-.17.03,0,0-.03.05-.03.18,0,.62,0,1.24,0,1.87,0,.7,0,1.39.01,2.09,0,.15,0,.31-.12.42-.1.11-.26.12-.39.12h-.05c-.36,0-.72-.01-1.09-.01h-1.44s-1.45,0-1.45,0c-.4,0-.79,0-1.21,0-.11,0-.24-.01-.33-.11-.09-.09-.11-.23-.1-.35,0-.88,0-1.75,0-2.63v-.92q0-.69-.72-.7c-.11,0-.13.02-.14.02,0,0-.02.04-.02.17,0,1.73,0,3.47,0,5.2,0,.15.02.18.07.19.02,0,.05,0,.07,0,.04,0,.08-.01.11-.01.1,0,.18.03.24.09.09.09.1.24.1.35,0,.74,0,1.48,0,2.22v.78q0,.66.63.68h.06c.12,0,.15-.02.16-.03,0,0,.03-.05.03-.18-.01-.67-.01-1.34,0-2.01,0-.48,0-.96,0-1.44,0-.12,0-.26.1-.36.09-.09.23-.1.34-.1h0c.68,0,1.35,0,2.03,0s1.38,0,2.08,0c.11,0,.25.01.34.11.09.1.1.24.1.35,0,.72,0,1.44,0,2.16v.8q0,.68.68.7h.02c.11,0,.14-.02.15-.03.02-.02.03-.09.03-.2,0-.64,0-1.29,0-1.93,0-.5,0-1.01,0-1.51,0-.13,0-.27.1-.36.06-.06.13-.09.23-.09.03,0,.07,0,.12.01.02,0,.04,0,.06,0,.02,0,.04,0,.06,0,.02-.02.02-.09.02-.21,0-1.17,0-2.35,0-3.52v-1.17Z"/>
      <path class="cls-1" d="M30.13,16c.37-.22.63-.59.74-1.04.12-.49.03-1.01-.23-1.44-.23-.38-.48-.75-.73-1.11-.2-.3-.4-.59-.59-.9-.01-.02-.02-.03-.03-.04-.01.01-.02.03-.04.06-.26.4-.53.8-.8,1.21l-.47.71c-.22.34-.33.68-.3,1.01-.02.73.25,1.25.84,1.58.26.14.52.22.78.22.28,0,.57-.09.85-.25ZM28.55,14.5c0-.37.2-.63.37-.87.06-.09.13-.17.18-.26.04-.07.11-.11.18-.11s.15.04.19.11c.05.09.12.18.18.27.17.23.37.5.36.87,0,.5-.31.84-.74.84-.43,0-.73-.35-.73-.85Z"/>
      <path class="cls-1" d="M31.31,22.73c-.27-.41-.55-.82-.82-1.23-.02-.02-.03-.04-.04-.06,0,.01-.02.02-.03.04-.26.4-.52.8-.79,1.2-.18.27-.36.54-.54.81-.27.41-.34.89-.21,1.47.17.74.81,1.25,1.57,1.25.08,0,.16,0,.24-.02.82-.11,1.37-.82,1.37-1.78.03-.33-.07-.66-.3-1l-.46-.68ZM30.95,25.12c-.13.13-.3.2-.51.2h0c-.42-.01-.72-.37-.72-.87,0-.35.19-.61.36-.84.06-.08.12-.17.18-.26.05-.08.12-.12.2-.12s.15.04.2.12c.05.09.12.18.18.26.17.23.36.48.36.84,0,.27-.09.51-.24.67Z"/>
      <path class="cls-1" d="M25.84,30.05c-.22-.33-.43-.65-.65-.98,0,0,0-.01-.01-.02,0,0,0,.01-.01.02-.2.3-.4.61-.6.91-.26.39-.51.77-.77,1.16-.25.4-.32.87-.18,1.44.17.74.8,1.24,1.58,1.24.07,0,.14,0,.21-.01.82-.09,1.39-.81,1.39-1.76.03-.31-.05-.64-.23-.91-.24-.37-.48-.73-.72-1.09ZM25.47,32.87c-.1.05-.2.07-.3.07-.17,0-.33-.07-.47-.2-.26-.24-.33-.57-.2-.97.07-.22.2-.4.33-.58.05-.07.1-.13.14-.2.02-.04.09-.14.22-.14.05,0,.13.02.2.13.05.09.11.17.17.25.17.23.36.49.37.85,0,.39-.15.65-.45.79Z"/>
      <path class="cls-1" d="M10.75,6.66s-.14.07-.2.11c-.08.05-.16.11-.24.14-.08.03-.16.07-.23.11-.06.03-.12.07-.21.12.05.09.09.19.13.29.09.21.17.41.3.5h0c.06,0,.2-.09.31-.16.1-.06.19-.12.28-.16.06-.02.11-.05.17-.08l.13-.04c-.04-.08-.08-.17-.12-.26-.09-.2-.18-.42-.32-.56Z"/>
    </g>
  </g>
</svg>