<?xml version="1.0" encoding="UTF-8"?>
<svg id="Layer_2" data-name="Layer 2" xmlns="http://www.w3.org/2000/svg" viewBox="0 0 27.23 35">
  <defs>
    <style>
      .cls-1 {
        fill: #eb5f00;
      }
    </style>
  </defs>
  <g id="Layer_1-2" data-name="Layer 1">
    <g>
      <path class="cls-1" d="M20.51,5.72c1.57-.2,3.14-.41,4.72-.62.09-.01.17-.02.26-.03.44-.05.86-.09,1.19-.41.42-.4.59-.91.55-1.62-.08-1.32-1-2.28-2.19-2.28-.09,0-.19,0-.28.02-1.81.22-3.65.47-5.43.72l-1.02.14s-.09,0-.12,0c-.16,0-.27-.07-.35-.24-.46-.91-1.23-1.4-2.22-1.4-.16,0-.32.01-.49.04-1.35.2-2.59.36-3.8.5-1.37.16-2.04.74-2.39,2.05-.07.25-.23.3-.4.32l-2.92.38c-1.24.16-2.48.32-3.71.48-.94.11-1.52.62-1.78,1.55-.3,1.08-.08,2.35,1.08,2.75.19.07.22.21.23.34l.42,7.15c.07,1.14.13,2.27.2,3.41.07,1.07.13,2.15.2,3.22.07,1.18.15,2.36.22,3.54.06.97.11,1.93.17,2.9.08,1.3.15,2.6.23,3.9v.2c.02.28.04.57.13.84.12.34.62,1.45,2.2,1.45h.02c2.14-.01,4.28-.01,6.41-.01h9.23c.42,0,.84,0,1.26,0,1.06-.03,1.89-.83,1.98-1.91.03-.32.04-.64.06-.96l.17-2.72c.12-1.9.24-3.81.35-5.71.07-1.11.13-2.23.19-3.34.07-1.15.13-2.31.2-3.46.14-2.26.28-4.51.42-6.77l.14-2.26c.02-.28-.08-.45-.29-.52-.1-.03-.2-.03-.31-.03h-14.75s-.05-.23-.05-.23c0,0,2.71-.36,3.53-.47l6.75-.88ZM9.81,2.58c.21-.65.62-1.03,1.21-1.12,1.44-.21,2.91-.41,4.5-.6.07,0,.13-.01.19-.01.51,0,.94.26,1.27.78l.08.13-7.3.97.05-.15ZM18.17,8.15c2.02,0,4.05,0,6.08-.01.2,0,.32.04.4.12.09.1.1.24.09.42-.12,1.87-.23,3.75-.35,5.62l-.17,2.88-.57,9.21c-.13,2.14-.26,4.28-.38,6.43-.05.85-.53,1.31-1.38,1.31H5.13c-.85,0-1.32-.46-1.37-1.32-.08-1.33-.16-2.67-.24-4-.06-.97-.12-1.94-.18-2.91-.07-1.13-.13-2.25-.2-3.38-.07-1.13-.13-2.25-.2-3.38-.09-1.48-.18-2.95-.27-4.43l-.15-2.37-.07-1.11c-.05-.9-.11-1.81-.17-2.71-.01-.14.01-.23.07-.29.07-.07.16-.08.23-.08h.14s15.45,0,15.45,0ZM7.09,6.58l-4.87.64s-.1.02-.15.02c-.08,0-.15.01-.22.01-.33,0-.58-.08-.74-.25-.18-.18-.26-.46-.25-.85.02-1.02.39-1.47,1.33-1.57,1.36-.16,2.75-.34,4.09-.52.66-.09,1.33-.18,1.99-.26.68-.09,1.36-.17,2.03-.26.77-.1,1.54-.19,2.3-.29.82-.11,1.65-.22,2.47-.33l1.78-.24c1.57-.21,3.14-.41,4.71-.62l1.17-.15c.62-.08,1.24-.16,1.86-.24.09-.01.18-.02.27-.02.9,0,1.51.64,1.52,1.58,0,.6-.2.84-.77.92-1.51.2-3.02.4-4.53.6l-7.96,1.05-6.04.79Z"/>
      <path class="cls-1" d="M13.5,30.31h.01c.24,0,.39-.14.43-.43,0-.06,0-.12,0-.18V12.53c0-.07,0-.15-.01-.22-.05-.27-.18-.4-.43-.4-.24,0-.38.13-.42.39-.02.09-.01.19-.01.28v17.02c0,.09,0,.18,0,.26.03.29.18.43.43.44Z"/>
      <path class="cls-1" d="M18.56,30.31s.06,0,.08,0c.21,0,.36-.14.41-.39.02-.11.04-.21.05-.36l2.01-17.01c.03-.64-.28-.66-.41-.67-.22,0-.4.18-.43.44-.22,1.87-.45,3.74-.67,5.61l-.32,2.7c-.13,1.09-.25,2.18-.38,3.28-.12,1.01-.24,2.02-.36,3.03-.11.95-.23,1.89-.34,2.84-.03.27.11.49.35.53Z"/>
      <path class="cls-1" d="M6.38,16.33c.21,1.74.42,3.49.63,5.23.21,1.76.42,3.52.62,5.28l.36,3.03c.03.28.23.48.47.48h.05c.22-.03.34-.26.33-.65l-1-8.5c-.21-1.78-.73-6.17-.73-6.17-.11-.92-.22-1.84-.34-2.76-.03-.24-.2-.4-.41-.4-.02,0-.05,0-.07,0-.24.04-.39.26-.36.53.03.33.07.65.11.98l.36,2.94Z"/>
    </g>
  </g>
</svg>