<?xml version="1.0" encoding="UTF-8"?>
<svg id="Layer_2" data-name="Layer 2" xmlns="http://www.w3.org/2000/svg" viewBox="0 0 34.6 34.6">
  <defs>
    <style>
      .cls-1 {
        fill: #eb5f00;
      }
    </style>
  </defs>
  <g id="Layer_1-2" data-name="Layer 1">
    <g>
      <path class="cls-1" d="M.38,34.6c-.21,0-.38-.17-.38-.38v-4.58c-.02-.88.67-1.61,1.54-1.64l.56-.02-.44-.34c-.18-.14-.34-.3-.49-.49-.44-.57-.64-1.29-.55-2.01s.46-1.36,1.03-1.8c.48-.37,1.05-.57,1.66-.57.85,0,1.63.38,2.15,1.05.92,1.18.7,2.89-.49,3.81l-.42.33.54.03c.87.05,1.53.76,1.5,1.63v4.58c0,.21-.17.38-.38.38H.38ZM1.49,28.74c-.4,0-.73.4-.73.9v4.2h5.07v-4.2c0-.5-.33-.9-.73-.9H1.49ZM3.3,23.52c-1.08,0-1.95.88-1.95,1.95s.88,1.95,1.95,1.95,1.95-.88,1.95-1.95-.88-1.95-1.95-1.95Z"/>
      <path class="cls-1" d="M9.74,34.6c-.21,0-.38-.17-.38-.38v-4.55c-.04-.88.64-1.62,1.5-1.67l.54-.03-.42-.33c-.66-.51-1.05-1.29-1.05-2.12,0-.73.27-1.41.78-1.93.51-.52,1.19-.81,1.91-.81,1.51,0,2.73,1.21,2.74,2.69.01.84-.37,1.65-1.03,2.17l-.41.33.53.03c.87.05,1.53.76,1.5,1.63v4.58c0,.21-.17.38-.38.38h-5.81ZM10.83,28.74c-.4,0-.73.4-.73.9v4.2h5.07v-4.2c0-.47-.3-.86-.71-.9h-3.64ZM12.63,23.52c-1.08,0-1.95.88-1.95,1.95s.88,1.95,1.95,1.95,1.95-.88,1.95-1.95-.88-1.95-1.95-1.95Z"/>
      <path class="cls-1" d="M19.05,34.6c-.21,0-.38-.17-.38-.38v-4.58c-.02-.88.67-1.61,1.54-1.64l.56-.02-.44-.34c-.18-.14-.34-.3-.49-.49-.44-.57-.64-1.29-.55-2.01s.46-1.36,1.03-1.8c.48-.37,1.05-.57,1.66-.57.85,0,1.63.38,2.15,1.05.92,1.18.7,2.89-.49,3.81l-.42.33.54.03c.87.05,1.53.76,1.5,1.63v4.58c0,.21-.17.38-.38.38h-5.83ZM20.16,28.74c-.4,0-.73.4-.73.9v4.2h5.07v-4.2c0-.47-.3-.86-.71-.9h-3.64ZM21.97,23.52c-1.08,0-1.95.88-1.95,1.95s.88,1.95,1.95,1.95,1.95-.88,1.95-1.95-.88-1.95-1.95-1.95Z"/>
      <path class="cls-1" d="M28.43,34.6c-.21,0-.38-.17-.38-.38v-4.55c-.04-.88.64-1.62,1.5-1.67l.54-.03-.42-.33c-.18-.14-.34-.3-.49-.49-.44-.57-.64-1.29-.55-2.01s.46-1.36,1.03-1.8c.48-.37,1.05-.57,1.66-.57.85,0,1.63.38,2.15,1.05.92,1.18.7,2.89-.49,3.81l-.42.33.54.03c.87.05,1.53.76,1.5,1.63v4.58c0,.21-.17.38-.38.38h-5.79ZM29.49,28.74c-.4,0-.73.4-.73.9v4.2h5.07v-4.2c0-.5-.33-.9-.73-.9h-3.62ZM31.3,23.52c-1.08,0-1.95.88-1.95,1.95s.88,1.95,1.95,1.95,1.95-.88,1.95-1.95-.88-1.95-1.95-1.95Z"/>
      <path class="cls-1" d="M12.83,14.77v-.77h21V.77H.77v13.42H0V.38C0,.17.17,0,.38,0h33.83c.21,0,.38.17.38.38v14c0,.21-.17.38-.38.38H12.83Z"/>
      <path class="cls-1" d="M5.63,22.35c-.21,0-.38-.17-.38-.38v-8.17l-.77,1.28c-.27.38-.72.62-1.2.62h0c-.29,0-.58-.09-.82-.25-.73-.38-1-1.27-.63-1.98l3.61-6.02c.17-.59.64-.98,1.19-1.03l.47-.04s-.41-.39-.45-.43c-.51-.51-.8-1.19-.8-1.92,0-.73.28-1.41.79-1.92.51-.52,1.2-.8,1.93-.8s1.4.28,1.92.79c1.06,1.06,1.07,2.78,0,3.84l.21.33,5.25-1.92c.12-.04.26-.06.4-.06.65,0,1.21.42,1.4,1.04.32.75-.02,1.61-.75,1.93l-5.16,1.88v12.83c0,.21-.17.38-.38.38h-5.83ZM8.93,21.58h2.18v-12.71c0-.16.1-.31.25-.36l5.42-1.97c.35-.24.44-.64.26-.96-.13-.31-.41-.53-.68-.53h-.04l-.12.03-5.75,2.09s-.08.02-.13.02h-3.81l-.06.05c-.16.13-.27.32-.32.52l-3.68,6.12c-.06.11-.08.25-.04.39.05.21.21.39.42.52.1.09.27.15.43.15.19,0,.37-.07.51-.21l1.51-2.5c.07-.12.2-.19.33-.19.21,0,.38.17.38.38v9.17h2.15v-5.83h.77v5.83ZM8.55,2.08c-1.08,0-1.95.88-1.95,1.95s.88,1.95,1.95,1.95,1.95-.88,1.95-1.95-.88-1.95-1.95-1.95Z"/>
      <rect class="cls-1" x="23.92" y="-2.92" width=".77" height="12.43" transform="translate(21 27.6) rotate(-90)"/>
      <rect class="cls-1" x="25.67" y=".58" width=".77" height="12.43" transform="translate(19.25 32.85) rotate(-90)"/>
      <rect class="cls-1" x="23.33" y="4.08" width=".77" height="12.43" transform="translate(13.42 34.02) rotate(-90)"/>
    </g>
  </g>
</svg>