<?xml version="1.0" encoding="UTF-8"?>
<svg id="Layer_2" data-name="Layer 2" xmlns="http://www.w3.org/2000/svg" viewBox="0 0 39.3 34.4">
  <defs>
    <style>
      .cls-1 {
        fill: #eb5f00;
      }
    </style>
  </defs>
  <g id="Layer_1-2" data-name="Layer 1">
    <g>
      <path class="cls-1" d="M13.14,31.82c-.2,0-.37-.16-.37-.37v-3.11l-.17-.08c-.64-.31-1.06-1.11-1.06-2.01,0-1.19.72-2.15,1.6-2.15s1.6.96,1.6,2.15c0,.9-.43,1.71-1.07,2.01l-.17.08v3.11c0,.2-.16.37-.37.37ZM13.14,24.84c-.17,0-.33.07-.47.21-.25.25-.4.7-.4,1.21,0,.81.36,1.41.87,1.41s.87-.59.87-1.41-.37-1.42-.87-1.42Z"/>
      <path class="cls-1" d="M19.66,31.82c-2.13,0-3.86-1.73-3.86-3.85s1.73-3.87,3.86-3.87,3.85,1.73,3.85,3.87-1.73,3.85-3.85,3.85ZM19.66,24.84c-1.73,0-3.13,1.41-3.13,3.13s1.4,3.13,3.13,3.13,3.12-1.4,3.12-3.13-1.4-3.13-3.12-3.13Z"/>
      <path class="cls-1" d="M26.27,31.82c-.2,0-.36-.16-.36-.37v-3.22h-.3c-.46,0-.83-.37-.83-.82v-2.95c0-.2.17-.37.37-.37s.36.17.36.37v3.04h1.52v-3.04c0-.2.17-.37.37-.37s.37.16.37.37v2.95c0,.21-.08.42-.24.57-.16.16-.37.25-.59.25h-.3v3.22c0,.21-.16.37-.37.37Z"/>
      <path class="cls-1" d="M12.71,13.53c-1.4,0-2.53-1.14-2.53-2.53s1.14-2.53,2.53-2.53,2.53,1.13,2.53,2.53-1.14,2.53-2.53,2.53ZM12.71,9.2c-1,0-1.81.81-1.81,1.8s.81,1.8,1.81,1.8,1.8-.81,1.8-1.8-.81-1.8-1.8-1.8Z"/>
      <path class="cls-1" d="M2.97,34.4c-.42,0-.78-.36-.78-.78v-11.36H.66c-.34,0-.63-.29-.63-.63v-2.11c0-.35.28-.64.63-.64h1.53V7.15s-.26-.04-.26-.04c-1.11-.17-1.94-1.14-1.94-2.26V.78c0-.42.36-.78.78-.78h37.75c.42,0,.78.36.78.78v4.08c0,1.12-.83,2.09-1.94,2.26l-.25.04v11.73h1.53c.35,0,.63.29.63.64v2.11c0,.34-.29.63-.63.63h-1.53v11.36c0,.42-.36.78-.78.78H2.97ZM2.93,33.68h33.45v-11.41H2.93v11.41ZM.75,21.53h37.8v-1.91H.75v1.91ZM24.84,16.42v2.46h8.27v-2.46h-8.27ZM27.67,10.56c.84,0,1.53.68,1.53,1.52s-.67,1.51-1.49,1.53h-.29v2.09h5.53c.49,0,.9.4.9.88v2.3h2.53V7.06s-.19-.07-.19-.07c-.33-.13-.63-.34-.88-.62l-.22-.25-.22.25c-.43.48-1.05.76-1.7.76s-1.27-.28-1.71-.76l-.22-.25-.22.25c-.44.49-1.06.76-1.71.76s-1.27-.28-1.71-.76l-.22-.25-.22.25c-.44.49-1.06.76-1.71.76s-1.27-.28-1.71-.76l-.22-.25-.22.25c-.43.48-1.05.76-1.71.76s-1.26-.28-1.7-.76l-.22-.25-.22.25c-.45.49-1.06.76-1.71.76s-1.27-.28-1.71-.76l-.22-.25-.22.25c-.44.49-1.06.76-1.71.76s-1.27-.28-1.71-.76l-.22-.25-.22.25c-.43.48-1.05.76-1.71.76s-1.27-.28-1.71-.76l-.22-.25-.22.25c-.43.48-1.05.76-1.7.76s-1.27-.28-1.71-.76l-.22-.25-.22.25c-.25.28-.56.49-.88.62l-.19.07v11.82h4.46v-1.32c0-.81.32-1.58.9-2.16.58-.58,1.35-.9,2.16-.9h4.52c1.69,0,3.06,1.37,3.06,3.06v1.32h6.1v-2.3c0-.49.4-.88.88-.88h1.69v-2.08h-.29c-.82-.03-1.49-.72-1.49-1.54s.69-1.52,1.53-1.52h1.22ZM10.45,15.23c-1.28,0-2.33,1.05-2.33,2.34v1.32h9.18v-1.32c0-1.29-1.05-2.34-2.34-2.34h-4.52ZM26.44,11.29c-.44,0-.8.35-.8.79,0,.44.36.8.8.8h1.22c.44,0,.8-.36.8-.8s-.36-.79-.8-.79h-1.22ZM35.44,4.85c0,.86.7,1.56,1.56,1.56s1.56-.7,1.56-1.56V.72h-3.13v4.13ZM31.58,4.85c0,.86.71,1.56,1.57,1.56s1.56-.7,1.56-1.56V.72h-3.14v4.13ZM27.73,4.85c0,.86.7,1.56,1.56,1.56s1.56-.7,1.56-1.56V.72h-3.13v4.13ZM23.87,4.85c0,.86.7,1.56,1.56,1.56s1.56-.7,1.56-1.56V.72h-3.13v4.13ZM20.01,4.85c0,.86.7,1.56,1.56,1.56s1.57-.7,1.57-1.56V.72h-3.14v4.13ZM16.16,4.85c0,.86.7,1.56,1.56,1.56s1.56-.7,1.56-1.56V.72h-3.13v4.13ZM12.3,4.85c0,.86.7,1.56,1.56,1.56s1.56-.7,1.56-1.56V.72h-3.13v4.13ZM8.44,4.85c0,.86.7,1.56,1.56,1.56s1.56-.7,1.56-1.56V.72h-3.13v4.13ZM4.58,4.85c0,.86.71,1.56,1.57,1.56s1.56-.7,1.56-1.56V.72h-3.14v4.13ZM.73,4.85c0,.86.7,1.56,1.56,1.56s1.56-.7,1.56-1.56V.72H.73v4.13Z"/>
    </g>
  </g>
</svg>