<?xml version="1.0" encoding="UTF-8"?>
<svg id="Layer_2" data-name="Layer 2" xmlns="http://www.w3.org/2000/svg" viewBox="0 0 37.83 35">
  <defs>
    <style>
      .cls-1 {
        fill: #eb5f00;
      }
    </style>
  </defs>
  <g id="Layer_1-2" data-name="Layer 1">
    <path class="cls-1" d="M.51,35c-.28,0-.51-.23-.51-.51s.23-.51.51-.51h5.16V12.34h-2.33l-.41-.23c-.08-.17-.11-.36-.09-.54L6.36,3.13c.13-.26.22-.3.38-.3h1.76V.51c0-.28.23-.51.51-.51h19.83c.28,0,.51.23.51.51v2.33h1.76c.16,0,.25.04.39.31l1.69,4.23,1.84,4.25c0,.13-.03.31-.11.48l-.51.25-2.24-.02v21.65h5.16c.28,0,.51.23.51.51s-.23.51-.51.51H.51ZM26,16.99c.28,0,.51.23.51.51v16.49h4.65V12.34H6.68v21.65h4.65v-16.49c0-.28.23-.51.51-.51h14.16ZM19.42,33.99h6.07v-15.98h-6.07v15.98ZM12.34,33.99h6.07v-15.98h-6.07v15.98ZM4.03,11.33h29.79l-1.46-3.24h-5.37c-.28,0-.51-.23-.51-.51s.23-.51.51-.51h4.97l-1.29-3.24H7.17l-3.14,7.49ZM9.51,2.83h18.82v-1.82H9.51v1.82Z"/>
  </g>
</svg>