<?xml version="1.0" encoding="UTF-8"?>
<svg id="Layer_2" data-name="Layer 2" xmlns="http://www.w3.org/2000/svg" viewBox="0 0 27.1 34.6">
  <defs>
    <style>
      .cls-1 {
        fill: #eb5f00;
      }
    </style>
  </defs>
  <g id="Layer_1-2" data-name="Layer 1">
    <path class="cls-1" d="M7.45,34.6c-.64,0-1.22-.35-1.5-.93l-3.29-6.57h-.99c-.92,0-1.67-.75-1.67-1.67v-1.25c0-.92.75-1.67,1.67-1.67h.83v-.2c0-2.16.62-4.25,1.81-6.05,1.18-1.8,2.85-3.21,4.83-4.07l.19-.08-.09-.19c-.14-.29-.25-.59-.33-.9l-.04-.15h-.94c-.92,0-1.67-.75-1.67-1.67v-1.25c0-.8.58-1.49,1.37-1.64l.29-.05-.16-.25c-.16-.26-.25-.56-.25-.86v-.94c0-2.3,1.87-4.17,4.17-4.17h3.75c1.12,0,2.16.43,2.95,1.22.79.79,1.22,1.84,1.22,2.95v.94c0,.3-.09.6-.25.86l-.15.25.29.05c.79.15,1.37.84,1.37,1.64v1.25c0,.92-.75,1.67-1.67,1.67h-.94l-.04.15c-.08.31-.19.61-.33.9l-.09.19.19.08c1.98.86,3.65,2.27,4.83,4.07,1.18,1.8,1.81,3.9,1.81,6.05v.2h.83c.92,0,1.67.75,1.67,1.67v1.25c0,.92-.75,1.67-1.67,1.67h-.99l-3.29,6.57c-.29.57-.86.93-1.5.93H7.45ZM6.71,33.3c.14.28.42.45.74.45h12.21c.32,0,.6-.17.74-.45l3.09-6.2H3.61l3.09,6.2ZM1.68,23.35c-.46,0-.83.37-.83.83v1.25c0,.46.37.83.83.83h23.75c.22,0,.43-.09.58-.24s.24-.36.24-.58v-1.25c0-.22-.09-.43-.24-.58s-.37-.24-.58-.24H1.68ZM19.17,18.75c.23,0,.42.19.42.42v3.33h4.15v-.2c0-2.03-.6-3.99-1.73-5.67-1.13-1.69-2.72-2.99-4.59-3.76l-.13-.06-.09.11c-.36.41-.78.75-1.25,1.02l-.1.06v2.05c0,1.04-.71,1.96-1.72,2.22l-.15.04v1.69h1.45c.92,0,1.67.75,1.67,1.67v.83h1.65v-3.33c0-.23.19-.42.42-.42ZM11.67,20.85c-.46,0-.83.37-.83.83v.83h5.4v-.83c0-.22-.09-.43-.24-.58-.16-.16-.36-.24-.58-.24h-3.75ZM7.93,18.75c.23,0,.42.19.42.42v3.33h1.65v-.83c0-.92.75-1.67,1.67-1.67h1.45v-1.69l-.15-.04c-1.01-.26-1.72-1.17-1.72-2.22v-2.05l-.1-.06c-.47-.26-.89-.61-1.25-1.02l-.09-.11-.13.06c-1.87.77-3.46,2.08-4.59,3.76-1.13,1.69-1.73,3.65-1.73,5.67v.2h4.15v-3.33c0-.23.19-.42.42-.42ZM13.55,12.1c-.8,0-1.45.65-1.45,1.45v2.5c0,.8.65,1.45,1.45,1.45s1.45-.65,1.45-1.45v-2.5c0-.8-.65-1.45-1.45-1.45ZM13.55,11.29c.96,0,1.82.6,2.16,1.5l.1.26.22-.17c.95-.75,1.49-1.87,1.48-3.08v-3.06l-3.77-.84c-.06-.01-.12-.02-.18-.02s-.12,0-.18.02l-3.77.84v3.06c0,1.21.54,2.33,1.48,3.08l.22.17.1-.26c.33-.9,1.2-1.5,2.16-1.5ZM18.35,10h.83c.22,0,.43-.09.58-.24.15-.15.24-.37.24-.58v-1.25c0-.22-.09-.43-.24-.58-.15-.15-.37-.24-.58-.24h-.83v2.9ZM7.93,7.1c-.46,0-.83.37-.83.83v1.25c0,.46.37.83.83.83h.83v-2.9h-.83ZM13.57,5.03c.11,0,.23.01.34.04l3.83.85c.06.01.12.02.19.02.19,0,.37-.06.51-.18.2-.16.31-.39.31-.64v-.94c0-.87-.36-1.73-.97-2.35-.62-.62-1.48-.97-2.35-.97h-3.75c-1.83,0-3.33,1.49-3.33,3.33v.94c0,.25.11.49.31.64.15.12.33.18.51.18.06,0,.13,0,.19-.02l3.83-.85c.12-.03.23-.04.35-.04h.04Z"/>
  </g>
</svg>