<?xml version="1.0" encoding="UTF-8"?>
<svg id="Layer_2" data-name="Layer 2" xmlns="http://www.w3.org/2000/svg" viewBox="0 0 45.13 34.2">
  <defs>
    <style>
      .cls-1 {
        fill: #eb5f00;
      }
    </style>
  </defs>
  <g id="Layer_1-2" data-name="Layer 1">
    <path class="cls-1" d="M2.41,34.2c-.64,0-1.24-.25-1.7-.71-.46-.46-.71-1.06-.71-1.7s.25-1.24.71-1.7c.46-.46,1.06-.71,1.7-.71h.29s3.65,0,3.65,0v-2.27h-2.82c-.48,0-.94-.19-1.29-.53-.34-.34-.53-.8-.53-1.29s.19-.94.53-1.29c.34-.34.8-.53,1.29-.53h2.82v-2.27h-2.35c-.19,0-.34-.15-.34-.34v-4.88c0-.73.28-1.41.8-1.93.52-.52,1.2-.81,1.93-.81h14.04l-.05-.64c-.02-.38-.03-.75-.03-1.1,0-3.04.75-5.91,2.1-8.07C23.83,1.22,25.69,0,27.68,0c1.74,0,3.42.96,4.74,2.7l.32.42.32-.42c.55-.72,1.15-1.31,1.8-1.75.93-.63,1.92-.95,2.94-.95,1.99,0,3.85,1.22,5.23,3.43,1.36,2.16,2.1,5.03,2.1,8.07s-.75,5.91-2.1,8.07c-1.21,1.94-2.83,3.14-4.55,3.38l-.34.05v6.39h1.17c.64,0,1.24.25,1.7.71.46.46.71,1.06.71,1.7s-.25,1.24-.71,1.7c-.46.46-1.06.71-1.7.71H2.41ZM2.41,30.07c-.46,0-.89.18-1.21.5-.33.33-.51.76-.51,1.21s.18.89.5,1.21c.33.33.76.5,1.21.5h36.9c.46,0,.89-.18,1.21-.51.33-.32.5-.75.5-1.21s-.18-.89-.5-1.21c-.33-.33-.76-.5-1.21-.5H2.41ZM32.42,20.29c-1.15,1.52-2.55,2.44-4.05,2.65l-.34.05v6.39h9.42v-6.39l-.34-.05c-.78-.11-1.53-.42-2.25-.9-.65-.44-1.25-1.03-1.8-1.75l-.32-.42-.32.42ZM20.28,29.38h7.06v-6.39l-.34-.05c-.78-.11-1.54-.42-2.25-.91-.41-.28-.82-.63-1.21-1.04l-.34-.37-.28.42c-.06.1-.17.15-.29.15h-2.35v2.27h2.81c.48,0,.94.19,1.28.53.35.35.54.81.54,1.29s-.19.94-.53,1.29c-.34.34-.8.53-1.29.53h-2.81v2.27ZM7.03,29.38h12.56v-2.27H7.03v2.27ZM3.53,24.16c-.3,0-.59.12-.8.33-.21.21-.33.5-.33.8s.12.59.33.8c.21.21.5.33.8.33h19.57c.3,0,.59-.12.8-.33.21-.21.33-.5.33-.8s-.12-.59-.33-.8c-.21-.21-.5-.33-.8-.33H3.53ZM7.03,23.47h12.56v-2.27H7.03v2.27ZM37.79.68c-.89,0-1.74.28-2.55.83-.73.5-1.39,1.19-1.97,2.06l-.13.2.12.21c1.14,2.09,1.77,4.75,1.77,7.5s-.63,5.42-1.77,7.51l-.12.21.13.2c.58.88,1.25,1.57,1.97,2.07.55.38,1.13.63,1.73.75l.48.1v-14.21c0-.19.15-.34.34-.34s.34.15.34.34v3.27l1.84-1.84c.07-.07.15-.1.24-.1s.18.04.24.1c.07.07.1.15.1.24s-.04.18-.1.24l-2.33,2.33v2.83l1.84-1.84c.07-.07.15-.1.24-.1s.18.04.24.1c.07.07.1.15.1.24s-.04.18-.1.24l-2.33,2.33v2.83l1.84-1.84c.07-.07.15-.1.24-.1s.18.04.24.1c.06.07.1.15.1.24s-.04.18-.1.24l-2.33,2.33v2.35l.48-.1c1.43-.29,2.79-1.37,3.83-3.02,1.29-2.05,1.99-4.79,1.99-7.71s-.71-5.66-1.99-7.71c-1.25-2-2.91-3.11-4.66-3.11ZM30.11,17.05c.09,0,.18.04.24.1.13.13.13.35,0,.49l-2.33,2.33v2.35l.48-.1c1.43-.29,2.79-1.37,3.83-3.02l.09-.14c1.23-2.06,1.91-4.75,1.91-7.57s-.67-5.49-1.88-7.51l-.12-.19c-1.26-2-2.91-3.11-4.66-3.11s-3.4,1.1-4.66,3.11c-1.29,2.05-1.99,4.79-1.99,7.71,0,.38.01.74.03,1.07,0,.19.03.39.05.59l.02.23.21.09c.31.14.59.33.83.57.52.52.8,1.2.8,1.93v3.14l.03.05c.64,1.01,1.34,1.78,2.13,2.31.55.38,1.13.63,1.73.75l.48.1v-14.21c0-.19.15-.34.34-.34s.34.15.34.34v2.47l.4.4,1.45-1.44c.07-.07.15-.1.24-.1s.18.04.24.1c.06.07.1.15.1.24s-.04.18-.1.24l-2.33,2.33v2.83l1.84-1.84c.07-.07.15-.1.24-.1s.18.04.24.1c.07.07.1.15.1.24s-.04.18-.1.24l-2.33,2.33v2.83l1.84-1.84c.07-.07.15-.1.24-.1ZM6.38,13.93c-.55,0-1.06.21-1.45.6-.39.38-.6.9-.6,1.44v4.53h17.95v-4.53c0-.54-.21-1.06-.6-1.44-.26-.26-.58-.44-.93-.54-.2-.04-.35-.06-.51-.06H6.38Z"/>
  </g>
</svg>