<?xml version="1.0" encoding="UTF-8"?>
<svg id="Layer_2" data-name="Layer 2" xmlns="http://www.w3.org/2000/svg" viewBox="0 0 33.82 35">
  <defs>
    <style>
      .cls-1 {
        fill: #eb5f00;
      }
    </style>
  </defs>
  <g id="Layer_1-2" data-name="Layer 1">
    <g>
      <path class="cls-1" d="M33.82.54c0-.45-.17-.54-.43-.54-.05,0-.1,0-.16.01-1.21.17-2.41.35-3.62.52l-2.71.39c-.17.02-.35.06-.52.09-.34.07-.69.14-1.04.14-.09,0-.18,0-.27-.02-1.37-.16-2.76-.36-4.1-.56-.72-.11-1.45-.21-2.17-.31-.21-.03-.42-.07-.63-.11-.39-.08-.75-.15-1.12-.15-.1,0-.21,0-.31.02-1.26.16-2.55.35-3.79.53-.86.13-1.72.25-2.58.37-.17.02-.35.06-.52.09-.35.07-.71.13-1.08.13-.12,0-.25,0-.38-.02-1.7-.24-3.41-.48-5.11-.73L.63.01C.56,0,.5,0,.44,0,.18,0,0,.09,0,.54v25.68c0,.38.08.48.44.53,2.2.32,4.39.64,6.59.94.18.03.37.06.55.1.34.07.66.13.99.13.09,0,.18,0,.27-.02,1.04-.13,2.1-.29,3.12-.44l2.33-.34c.84-.12,1.68-.25,2.52-.36.11-.01.2-.02.28-.02.55,0,.6.41.6.79,0,0,0,2.1,0,2.8,0,.17.02.28.06.39.57,1.32,1.13,2.63,1.69,3.95.1.23.24.32.48.32h0c1.45,0,2.9,0,4.35,0s2.9,0,4.35,0c.28,0,.42-.1.49-.36.03-.12.07-.25.1-.37.09-.33.17-.66.29-.99.67-1.83.93-3.68.77-5.51-.05-.58.38-.64.59-.66.81-.1,1.62-.21,2.4-.34.51-.08.55-.13.55-.66V.54ZM.9,1.02c.06-.06.15-.1.26-.1.04,0,.09,0,.14.01.76.11,1.52.22,2.28.32l1.64.23,1.03.15c.54.08,1.08.16,1.63.23.17.02.39.09.39.44,0,.76,0,1.52,0,2.31v.81c0,.07-.04.13-.09.16-.03.02-.06.03-.1.03s-.06,0-.09-.02l-.43-.24c-.33-.18-.64-.36-.94-.54-.11-.06-.21-.1-.31-.1s-.19.03-.3.09c-.29.15-.58.29-.86.44-.29.15-.58.29-.87.44-.11.06-.21.09-.31.09s-.2-.03-.3-.08c-.84-.43-1.68-.85-2.52-1.26-.22-.11-.32-.26-.32-.5,0-.76.01-1.66,0-2.57,0-.1,0-.23.1-.33ZM3.18,26.18c-.05.07-.13.11-.24.11-.04,0-.1,0-.17-.02-.37-.06-.74-.11-1.11-.17l-.52-.07c-.09,0-.35-.04-.35-.36,0-.77,0-1.53,0-2.29v-1.16c0-.07.04-.14.1-.17.03-.01.06-.02.08-.02.04,0,.08.01.11.04l.34.25c.31.23.59.44.86.66.12.09.16.24.19.35.09.3.17.6.25.9.15.52.29,1.04.45,1.56.04.12.07.27-.01.38ZM8.15,26.89c-.07.07-.16.1-.28.1-.04,0-.09,0-.15-.01-1.05-.16-2.11-.31-3.16-.45-.32-.04-.39-.28-.44-.46l-.3-1.07c-.2-.68-.39-1.36-.58-2.04-.08-.29-.21-.48-.43-.63-.36-.25-.71-.52-1.07-.79-.22-.16-.43-.33-.65-.49-.15-.11-.3-.26-.3-.54,0-4.03,0-8.06,0-12.09v-2.79s0-.07.02-.1v-.06c.03-.06.07-.1.12-.13.03-.01.05-.02.08-.02.03,0,.06,0,.08.02.23.12.47.23.7.34.58.28,1.12.55,1.66.84.19.1.34.15.49.15.14,0,.28-.04.43-.13.3-.17.61-.32.91-.47.21-.1.43-.21.64-.32.12-.07.23-.1.34-.1.12,0,.23.04.35.11.39.24.79.46,1.19.69l.14.08c.11.06.31.17.31.47,0,.94,0,1.87,0,2.83v.93c0,.06-.03.12-.08.15-.03.02-.07.03-.11.03-.02,0-.04,0-.06-.01-.62-.22-1.2-.33-1.78-.33h-.08c-1.87.03-3.41,1.32-3.74,3.13-.14.78,0,1.52.39,2.21.98,1.68,1.99,3.34,2.99,5.01l.12.2c.11.19.24.28.37.28.11,0,.24-.06.38-.19.28-.26.56-.52.84-.78l.37-.34s.08-.05.13-.05c.03,0,.05,0,.08.02.23.1.2.31.19.4v2.03c0,1.32,0,2.65,0,3.97,0,.12-.01.28-.12.38ZM7.68,17.93c-.36.6-.71,1.2-1.07,1.8-.05.08-.14.25-.31.25s-.26-.16-.32-.25c-.3-.51-.61-1.02-.91-1.52-.51-.85-1.05-1.74-1.55-2.62-.43-.75-.46-1.64-.09-2.43.4-.86,1.21-1.47,2.16-1.65.17-.03.33-.05.46-.06h.13s.02-.01.02-.01c1.66,0,2.95,1.01,3.2,2.52.09.55-.02,1.11-.31,1.61-.46.79-.94,1.59-1.41,2.38ZM8.94,17.41l.24-.4c.18-.3.35-.59.53-.89.85-1.46.69-3.01-.46-4.3-.08-.09-.19-.2-.19-.4,0-1.02,0-2.03,0-3.06v-.83c0-.06.03-.11.07-.15.03-.03.08-.04.12-.04.01,0,.03,0,.04,0,.26.06.47.19.65.31.05.03.11.07.16.1.12.07.23.1.34.1.08,0,.17-.02.26-.06,1.29-.56,2.59-1.12,3.88-1.67.16-.07.29-.17.41-.32.26-.33.52-.66.79-.99l.33-.41s.09-.07.15-.07c0,0,0,0,0,0,.06,0,.12.03.15.08.11.16.1.31.09.4v.05s0,2.17,0,2.17c0,1.66,0,3.32,0,4.98,0,.13-.01.31-.13.43-.05.05-.13.1-.25.1-.07,0-.15-.02-.24-.05-.18-.07-.34-.1-.49-.1-.35,0-.68.17-1.1.57-1.18,1.15-2.42,2.29-3.61,3.4-.47.44-.95.88-1.42,1.31-.02.02-.06.03-.1.03-.07,0-.15-.03-.2-.07-.07-.06-.09-.16-.04-.24ZM16.51,18.66v2.46c0,1.44,0,2.89,0,4.33,0,.39-.15.57-.53.62-1.31.18-2.63.37-3.94.55l-1.41.2c-.12.02-.24.03-.35.05-.24.03-.49.06-.72.11-.06.01-.11.02-.15.02-.11,0-.19-.03-.25-.1-.1-.1-.1-.25-.1-.41v-5.86c0-.14,0-.29-.02-.44-.03-.4-.05-.81.1-1.16.15-.34.46-.59.76-.83.12-.09.24-.19.34-.29,1.57-1.47,3.14-2.93,4.71-4.4.22-.2.72-.21.82-.21.2,0,.48.03.62.16.15.13.13.31.12.42,0,.02,0,.05,0,.07,0,1.57,0,3.14,0,4.7ZM15.78,3.53c-.13.12-.25.27-.36.45-.64,1.03-1.55,1.73-2.77,2.12-.48.16-.95.37-1.41.58-.14.07-.29.13-.43.2-.1.04-.2.07-.3.07-.13,0-.24-.04-.35-.07-.91-.32-1.29-.97-1.11-1.91.03-.17.02-.36.01-.56,0-.1,0-.19,0-.29,0-.16,0-.33,0-.49,0-.39.01-.8-.01-1.19-.03-.49.33-.54.52-.57,1.46-.2,2.91-.41,4.36-.62l.18-.03c.61-.09,1.21-.17,1.81-.27.07-.01.13-.02.18-.02.38,0,.41.36.43.49.08.88-.16,1.57-.74,2.1ZM23.85,2.22l.08-.07c.08-.07.17-.15.28-.21.08-.04.16-.06.23-.06.12,0,.19.05.23.1.07.07.1.18.09.32,0,.03,0,.05,0,.08v16.38c0,.06-.03.11-.07.15-.03.03-.07.04-.12.04-.02,0-.03,0-.05,0-.23-.06-.4-.08-.56-.08-.11,0-.2.01-.29.04-.06.02-.12.03-.17.03-.11,0-.18-.05-.21-.08-.09-.09-.09-.21-.09-.34,0-.26,0-.52,0-.79,0-.44,0-.88,0-1.32,0-.39-.08-.7-.27-.96-.18-.24-.11-.43,0-.6.47-.75.31-1.66-.38-2.17-.27-.2-.59-.3-.92-.3-.48,0-.93.23-1.26.62-.1.12-.22.24-.43.24-.05,0-.09,0-.15-.02-.62-.13-1.3-.25-2.09-.38-.19-.03-.41-.11-.41-.46,0-2.32,0-4.65,0-6.97v-1.61c0-.09.06-.16.15-.18.04,0,.08-.01.12-.01.15,0,.26.07.35.12.02.01.05.03.07.04l.41.2c.54.26,1.1.53,1.64.83.15.08.28.12.4.12.15,0,.29-.07.46-.21.71-.61,1.42-1.2,2.14-1.8l.82-.68ZM22.4,13.98c-.01.4-.37.75-.8.75h0c-.41-.01-.77-.39-.75-.8.01-.4.37-.76.77-.76,0,0,.02,0,.02,0,.41.01.77.39.75.8ZM17.31,1.34c0-.08,0-.22.09-.32.06-.06.14-.09.25-.09.03,0,.06,0,.1,0,1.27.18,2.53.36,3.85.54l1.19.17c.07.01.13.06.16.14.02.07,0,.15-.06.2l-.81.68-.4.33c-.32.26-.64.53-.95.8-.08.07-.21.17-.38.17-.09,0-.18-.03-.28-.08-.89-.46-1.67-.85-2.39-1.2-.26-.12-.36-.3-.34-.58.02-.24.01-.47,0-.75ZM17.68,25.18c-.03.08-.1.13-.18.13,0,0-.02,0-.03,0-.09-.01-.16-.09-.16-.19v-4.05c0-2.31,0-4.62,0-6.92,0-.13,0-.29.11-.39.06-.06.14-.09.25-.09.05,0,.11,0,.19.02.43.1.87.17,1.29.24l.47.08c.21.04.46.12.53.48.04.2.08,1.06,0,1.32-.06.16-.08.35-.08.59v2.22c0,1.3,0,2.59,0,3.89,0,.24-.03.5-.43.62-.96.3-1.6.97-1.95,2.05ZM29.39,30.71l-.24.82c-.21.74-.43,1.48-.63,2.22-.09.32-.26.46-.61.46-1.22,0-2.44,0-3.66,0s-2.44,0-3.67,0c-.35,0-.56-.15-.65-.47-.02-.07-.05-.14-.08-.21l-.05-.11-1.29-3.04s-.02-.05-.02-.07v-1.32c0-1.1,0-2.2,0-3.29.01-.7.36-1.28,1.02-1.66.1-.06.18-.09.25-.09s.14.03.19.08c.09.09.1.22.09.32,0,.57,0,1.13,0,1.7v.18c0,.51.3.51.4.51.1,0,.4,0,.4-.53v-9.69c0-.08,0-.16,0-.24.05-.42.36-.73.77-.74.4,0,.73.32.77.75,0,.09,0,.18,0,.26v7.57c0,.06,0,.12,0,.18,0,.16.06.44.4.45.25,0,.39-.16.39-.44,0-.82,0-1.65,0-2.47v-1.18c0-.08,0-.16,0-.24.04-.43.37-.75.79-.75h0c.39.01.71.32.75.74,0,.08,0,.16,0,.24v4.38c0,.51.29.52.4.52h0c.17,0,.39-.06.39-.52v-1.52c0-.8,0-1.59,0-2.39,0-.51.33-.88.8-.88h0c.44.01.74.36.76.86,0,.06,0,.13,0,.19v4.93c0,.22.08.49.41.49h0c.32,0,.39-.26.39-.48,0-.68,0-1.36,0-2.04v-1.24c0-.09,0-.19.02-.3.09-.41.37-.65.77-.65h0c.38,0,.66.24.74.64.02.11.02.21.02.31v1.91c0,1.73,0,3.46,0,5.19,0,.2-.03.41-.09.63ZM29.61,9.85v-.08c-.1-.51-.19-1.02-.27-1.53l-.15-.86c-.02-.13-.06-.35.13-.54.75-.74,1.49-1.49,2.24-2.23l.87-.87s.09-.09.15-.14l.1-.09s.08-.05.13-.05c.03,0,.05,0,.08.02.07.03.11.1.11.17v14.76c0,.08-.05.15-.12.17-.02,0-.05.01-.07.01-.05,0-.1-.02-.13-.06l-2.7-2.7c-.54-.55-1.09-1.09-1.64-1.63-.23-.23-.27-.43-.12-.72.19-.36.37-.73.55-1.1.25-.5.51-1.02.78-1.53.18-.33.13-.65.07-1.01ZM32.75,2.26l-1.07,1.08c-1.02,1.02-2.04,2.05-3.08,3.06-.26.26-.33.49-.26.85.12.62.23,1.26.33,1.88.05.29.09.59.14.88.04.25,0,.47-.12.72-.41.81-.82,1.62-1.22,2.44l-.21.42c-.22.43-.21.49.15.85l.97.97c1.45,1.45,2.9,2.9,4.35,4.35.21.2.3.42.29.71,0,1.51-.02,3.28,0,5.01,0,.39-.16.57-.54.62-.55.06-1.1.14-1.63.23-.06.01-.11.02-.16.02-.13,0-.23-.04-.3-.11-.11-.11-.12-.28-.12-.43.01-.81.01-1.61,0-2.42v-.49c0-.95-.67-1.64-1.57-1.64-.11,0-.21,0-.32.03-.06,0-.1.01-.14.01-.29,0-.32-.25-.33-.38-.09-.83-.74-1.43-1.55-1.43-.09,0-.19,0-.28.02-.07.01-.12.02-.17.02-.11,0-.2-.03-.26-.09-.1-.1-.1-.25-.1-.39,0-2.16,0-4.32,0-6.49v-3.65c0-2.13,0-4.27,0-6.4,0-.39.15-.57.53-.62,1.32-.18,2.64-.37,3.96-.55l1.66-.23c.29-.04.58-.08.9-.13.03,0,.07-.02.12-.02.11,0,.21.06.26.16.14.26-.03.97-.23,1.18Z"/>
      <path class="cls-1" d="M6.31,12.97c-.89,0-1.59.69-1.59,1.57,0,.43.16.83.46,1.12.3.3.7.46,1.12.46h0c.43,0,.82-.16,1.12-.46.29-.3.46-.7.46-1.13,0-.86-.7-1.56-1.57-1.56ZM6.27,15.33h0c-.2,0-.39-.1-.54-.25-.14-.15-.22-.35-.21-.55.01-.4.38-.75.78-.75,0,0,.02,0,.03,0,.2,0,.39.1.54.26.14.15.22.35.21.54-.02.4-.38.75-.8.75Z"/>
    </g>
  </g>
</svg>