<?xml version="1.0" encoding="UTF-8"?>
<svg id="Layer_2" data-name="Layer 2" xmlns="http://www.w3.org/2000/svg" viewBox="0 0 35 35">
  <defs>
    <style>
      .cls-1 {
        fill: none;
        stroke: #ec1c24;
        stroke-miterlimit: 10;
        stroke-width: 1.4px;
      }

      .cls-2 {
        fill: #ec1c24;
      }

      .cls-3 {
        fill: #009345;
      }
    </style>
  </defs>
  <g id="Layer_1-2" data-name="Layer 1">
    <g>
      <path class="cls-3" d="M25.17,11.55c-.92,0-1.85,0-2.81,0,0-.1,0-.18,0-.25,0-1.16,0-2.33,0-3.49,0-.28-.07-.53-.23-.76-.24-.32-.48-.64-.72-.96-.24-.31-.55-.46-.94-.46-1.69,0-3.37,0-5.06,0-.43,0-.76.16-1.01.5-.2.27-.4.55-.61.81-.23.28-.31.59-.31.94,0,1.12,0,2.23,0,3.35,0,.1,0,.2,0,.31-.11,0-.19,0-.28,0-.87,0-1.74,0-2.61,0-.73,0-1.18.46-1.18,1.19,0,1.1,0,2.2,0,3.3,0,1.58,0,3.16,0,4.74,0,.07-.04.19-.1.22-.46.25-.64.64-.64,1.14,0,1.51,0,3.02,0,4.53,0,.09,0,.19.03.27.13.56.57.88,1.22.88,5.1,0,10.2,0,15.3,0,.75,0,1.21-.46,1.21-1.21,0-4.61,0-9.21,0-13.82,0-.81-.45-1.25-1.26-1.25ZM20.15,7.25c0-.28,0-.57,0-.85.35-.07.58.03.81.3.52.59.71,1.22.68,2.01-.06,1.51-.02,3.03-.02,4.55,0,.4-.11.51-.53.51-.15,0-.31,0-.46,0-.36,0-.49-.12-.49-.48,0-2.02,0-4.03,0-6.05ZM16.47,6.39h2.92v1.46h-2.92v-1.46ZM16.46,8.62h2.94v2.92h-2.94v-2.92ZM14.62,7.08c.11-.11.2-.23.28-.37.18-.33.45-.38.81-.31,0,1.25,0,2.49,0,3.73,0,1.05,0,2.09,0,3.14,0,.39-.12.5-.51.5-.18,0-.35,0-.53,0-.3,0-.43-.14-.43-.47,0-1.69.02-3.37,0-5.06,0-.46.08-.84.4-1.17ZM25.69,26.57c0,.41-.11.52-.52.52-5.09,0-10.19,0-15.28,0-.35,0-.47-.13-.47-.47,0-1.49,0-2.99,0-4.48,0-.25.09-.4.32-.5,1.58-.73,3.17-1.47,4.75-2.21.08-.04.17-.08.27-.13-.1-.23-.2-.44-.31-.67-1.42.66-2.84,1.32-4.28,2,0-.14,0-.25,0-.35,0-2.48,0-4.96,0-7.44,0-.41.11-.52.51-.52.85,0,1.7,0,2.54,0,.08,0,.17,0,.27,0,0,.36,0,.7,0,1.03,0,.72.47,1.18,1.18,1.19.22,0,.45,0,.67,0,.62-.01,1.09-.48,1.1-1.1,0-.36,0-.72,0-1.1h2.96c0,.27,0,.54,0,.81,0,.2,0,.4.05.59.12.46.54.78,1.02.8.26,0,.52,0,.79,0,.6,0,1.09-.48,1.1-1.08,0-.37,0-.74,0-1.13,1.01,0,1.98,0,2.95,0,.26,0,.38.16.38.47,0,1.83,0,3.67,0,5.5,0,2.77,0,5.53,0,8.3Z"/>
      <g>
        <path class="cls-2" d="M17.5,1.4c8.88,0,16.1,7.22,16.1,16.1s-7.22,16.1-16.1,16.1S1.4,26.38,1.4,17.5,8.62,1.4,17.5,1.4M17.5,0C7.84,0,0,7.83,0,17.5s7.84,17.5,17.5,17.5,17.5-7.83,17.5-17.5S27.17,0,17.5,0h0Z"/>
        <line class="cls-1" x1="5.46" y1="5.13" x2="29.54" y2="29.87"/>
      </g>
    </g>
  </g>
</svg>