<?xml version="1.0" encoding="UTF-8"?>
<svg id="Layer_2" data-name="Layer 2" xmlns="http://www.w3.org/2000/svg" viewBox="0 0 35 35">
  <defs>
    <style>
      .cls-1 {
        fill: #eb5f00;
      }
    </style>
  </defs>
  <g id="Layer_1-2" data-name="Layer 1">
    <g>
      <path class="cls-1" d="M6.36,12.44h.01c.2,0,.4.01.6.01.22,0,.44,0,.69-.01.22,0,.32.09.35.32.08.6.38.86.99.86h10.58c.65,0,.98-.33.98-.98,0-3.53,0-7.06,0-10.58,0-.65-.34-.99-.98-.99-1.72,0-3.43,0-5.15,0-1.81,0-3.62,0-5.43,0-.6,0-.91.28-.99.86-.03.24-.14.34-.4.34h0c-.21,0-.43-.01-.64-.01-.18,0-.37,0-.55.01h-.06c-.09,0-.21,0-.3-.1-.09-.09-.09-.23-.08-.33.02-.37-.07-.72-.29-1.05-.32-.49-.86-.79-1.45-.79-.16,0-.32.02-.48.07-.77.22-1.27.9-1.27,1.73,0,5.67,0,11.35,0,17.02v1.71c0,.09,0,.19.03.27.04.14.15.3.41.3h0c.23-.01.36-.14.39-.36.02-.13.02-.25.02-.38V2.09c0-.18,0-.36.03-.53.07-.41.44-.72.88-.72.43,0,.79.33.85.75.02.18.02.35.02.56v28.45s0,.08,0,.08c0,.05,0,.1,0,.15,0,.08.01.21-.07.29-.06.06-.14.09-.29.09h0c-.16,0-.33-.01-.49-.01-.14,0-.28,0-.43.02-.03,0-.07,0-.1,0-.14,0-.23-.03-.3-.1-.08-.08-.11-.2-.11-.39.01-1.94.01-3.89,0-5.83v-1.59c0-.12,0-.25-.02-.36-.03-.2-.15-.31-.36-.33-.02,0-.04,0-.06,0-.16,0-.28.08-.37.25-.05.1-.05.21-.05.33v1.71c0,1.94,0,3.88,0,5.81,0,.15-.01.3-.11.4-.1.1-.24.11-.42.11h0c-1,0-1.77.62-1.93,1.54-.04.21-.03.43-.03.66,0,.18,0,.36-.01.54-.04.48.11.81.48,1.04h7.44c.41-.18.58-.48.54-.92-.02-.19-.01-.38,0-.57,0-.09,0-.17,0-.26,0-1.22-.79-2.01-2.01-2.01-.19,0-.3-.03-.37-.11-.09-.09-.11-.22-.11-.39,0-4.32,0-8.64,0-12.96v-3.41c0-.51,0-1.02,0-1.53,0-.1,0-.22.09-.3.07-.08.18-.09.29-.09ZM8.97,2.02c.09-.09.21-.11.4-.11h0c.82,0,1.65,0,2.47,0h4.97c.81,0,1.61,0,2.44,0,.17,0,.3.02.39.11.08.08.11.2.11.39-.01,2.93-.01,6.07,0,9.89,0,.17-.02.29-.1.38-.07.07-.18.1-.36.1-1.68,0-3.35-.01-5.03-.01s-3.29,0-4.94,0c-.17,0-.28-.03-.35-.1-.09-.09-.1-.23-.1-.36.01-3.86.01-7.01,0-9.93,0-.18.03-.3.11-.38ZM6.34,32.08c.92,0,1.3.38,1.3,1.3,0,.37,0,.55-.11.67-.11.11-.29.11-.66.11H2.58c-.42,0-.85,0-1.31,0-.11,0-.27-.01-.36-.12-.09-.11-.08-.26-.07-.38.01-.07,0-.14,0-.22v-.11c0-.87.39-1.26,1.27-1.26h1.91s2.32,0,2.32,0ZM5.97,4.01c.01-.09.02-.18.02-.27,0-.29,0-.44.09-.54.1-.1.25-.1.54-.1h.62c.15,0,.29,0,.46,0,.07,0,.16,0,.23.08.07.07.07.17.07.24,0,.33,0,.66,0,.99,0,.08,0,.19-.08.26-.05.05-.12.08-.25.08,0,0,0,0,0,0-.09,0-.18,0-.26,0h-.32v.02h-.16c-.07,0-.14,0-.21,0-.07,0-.15,0-.22,0-.13,0-.28-.01-.4-.11-.18-.15-.15-.42-.12-.66ZM5.99,5.92c0-.1,0-.2.08-.27.05-.05.12-.08.24-.08h0c.23,0,.46,0,.68,0s.46,0,.7,0c.1,0,.18.03.23.08.07.07.08.17.08.27,0,.34,0,.69,0,1.04v.8c0,.33,0,.65,0,.98,0,.1,0,.21-.08.28-.05.05-.13.08-.26.08h0c-.21,0-.42,0-.63,0-.23,0-.47,0-.72,0-.07,0-.17,0-.24-.08-.07-.07-.08-.18-.08-.25,0-.95,0-1.9,0-2.85ZM6.62,9.96h.61c.14,0,.28,0,.45,0,.07,0,.18,0,.25.08.07.08.08.19.08.27-.01.32-.01.63,0,.91,0,.13-.02.22-.08.28-.07.07-.17.09-.29.09h-.02c-.08,0-.17,0-.25,0h-.45c-.9,0-.93-.08-.93-.98,0-.6.04-.65.63-.65Z"/>
      <path class="cls-1" d="M34.93,21.08s0-.04-.01-.05c-.28-.86-1.02-1.4-1.92-1.42-.27,0-.55,0-.82,0s-.57,0-.88.01c-.23,0-.38-.1-.48-.32-.16-.35-.33-.69-.49-1.03-.13-.26-.26-.53-.38-.79-.42-.88-1.12-1.31-2.16-1.31-1.74,0-3.47.01-5.21.01s-3.42,0-5.14-.01c-1.04,0-1.74.44-2.16,1.34-.12.26-.25.52-.38.78-.16.33-.32.65-.47.98-.08.18-.2.36-.55.36h0c-.28-.01-.55-.02-.83-.02s-.56,0-.84.01c-.97.03-1.78.71-1.94,1.63-.17.99.32,1.9,1.22,2.25.14.06.3.09.46.13.08.02.16.04.24.06l.11.03-.22.47c-.15.31-.29.62-.44.93l-.07.14c-.11.23-.21.45-.21.69,0,1.87,0,3.73,0,5.6,0,.15.03.43.2.53.35.2.34.51.34.77,0,0,0,.2,0,.26,0,.13,0,.25,0,.38-.07.75.23,1.24.88,1.51h2.99c.68-.27.98-.77.91-1.51-.01-.12,0-.23,0-.35,0-.11,0-.22,0-.33,0-.1-.01-.23.07-.33.08-.09.22-.11.35-.11h0c.65,0,1.3,0,1.96,0h2.16c.12,0,.24,0,.35-.03.23-.06.33-.21.32-.43-.01-.21-.13-.34-.34-.38-.12-.02-.24-.02-.39-.02h-4.02c-1.47,0-2.95,0-4.43,0-.14,0-.29-.01-.39-.11s-.11-.25-.11-.41v-.49c.03-.81.06-1.64,0-2.46-.12-1.49.18-2.81.91-4.02.15-.26.29-.39.62-.39,2.01,0,4.01,0,6.02,0h7.23c1.54,0,3.07,0,4.61,0,.3,0,.46.1.57.37.17.4.36.82.63,1.32.2.38.29.8.29,1.27-.02,1.68-.02,3.08,0,4.39,0,.15-.01.31-.11.41-.08.08-.2.11-.4.11-1.44,0-2.88-.01-4.33-.01h-4.09c-.16,0-.31,0-.45.04-.22.06-.27.23-.28.36-.01.19.07.32.24.4.1.05.21.05.33.05h1.95c.55,0,1.1,0,1.66,0,.08,0,.16-.01.25-.02.09-.01.19-.02.27-.02.11,0,.26.01.37.12.18.17.14.46.11.72,0,.06-.02.13-.02.19-.06.82.22,1.34.86,1.64h3.07c.66-.31.95-.84.88-1.64,0-.09,0-.19,0-.28,0-.07,0-.14,0-.2-.01-.29,0-.57.31-.79.2-.14.23-.42.23-.7,0-1.76,0-3.52,0-5.28,0-.23-.06-.47-.21-.78l-.75-1.61.11-.03c.1-.03.2-.05.29-.07.21-.05.41-.09.59-.19.52-.27.86-.72,1.09-1.38v-.78c-.05-.06-.06-.12-.07-.18ZM12.8,32.45c.07-.07.17-.08.25-.08h.02c.17,0,.34,0,.51,0h1.41c.17,0,.34,0,.53,0,.07,0,.16,0,.23.08.07.07.07.17.07.24,0,.33,0,.66,0,1.03,0,.14-.04.26-.11.33-.07.07-.18.11-.31.11h-2.23c-.14,0-.25-.04-.32-.11-.07-.08-.11-.18-.11-.33v-.15c0-.29,0-.58,0-.87,0-.07,0-.17.07-.25ZM32.48,33.53v.15c0,.16-.03.28-.11.36-.08.08-.19.12-.35.12,0,0-.74,0-1.1,0s-.7,0-1.06,0c-.15,0-.26-.04-.34-.12-.08-.08-.12-.2-.12-.36v-.2c0-.25,0-.5,0-.76,0-.13.02-.22.08-.28.07-.08.19-.09.27-.09h.04c.16,0,.32,0,.48,0h.68s.68,0,.68,0c.16,0,.32,0,.52,0,.09,0,.2.01.27.09.06.06.08.15.08.28-.01.27-.01.53,0,.8ZM13.68,20.8c-.16.33-.86,1.8-.86,1.8-.03.07-.09.19-.24.2-.07,0-.14,0-.2,0-.32,0-.72-.05-1.03-.41-.3-.35-.37-.76-.2-1.18.17-.46.53-.71,1.02-.74.08,0,.17,0,.25,0h.3s0,0,0,0h.49c.08,0,.17,0,.27,0,.04,0,.16,0,.21.09.05.08.02.18-.02.26ZM31.39,22.7c-.06.1-.19.11-.35.11-1.64,0-3.29,0-4.93,0h-11.91c-.23,0-.34,0-.4-.09-.06-.09,0-.19.08-.38l.22-.47c.57-1.21,1.14-2.41,1.72-3.62.1-.2.21-.4.34-.64.2-.36.5-.55.88-.56.12,0,.24-.01.37-.02.16-.01.33-.02.49-.02,1.78,0,9.38,0,9.38,0,1.41,0,1.51.06,2.13,1.34.29.61.58,1.22.87,1.83.35.73.69,1.47,1.05,2.19.06.12.11.25.05.35ZM33.82,22.45c-.29.31-.66.35-.95.35-.08,0-.16,0-.24,0-.15,0-.21-.14-.26-.25l-.25-.52c-.19-.39-.37-.79-.56-1.18-.04-.09-.09-.21-.03-.3.05-.09.16-.1.25-.1h.04c.07,0,.15,0,.22,0h.36s.09.01.09.01h.36c.09,0,.19,0,.28,0,.46.04.79.3.97.77.16.43.06.84-.28,1.21Z"/>
      <path class="cls-1" d="M29.1,29.59c1.15,0,2.05-.91,2.06-2.06,0-.56-.21-1.09-.61-1.49-.39-.39-.9-.6-1.46-.6-1.14,0-2.06.93-2.07,2.07,0,.56.21,1.08.6,1.47.39.39.91.61,1.47.61h0ZM28.21,28.36c-.23-.24-.35-.54-.34-.87.02-.66.57-1.19,1.23-1.2h0c.33,0,.63.13.87.36s.36.54.36.87c0,.68-.55,1.21-1.24,1.21-.33,0-.64-.14-.87-.38Z"/>
      <path class="cls-1" d="M14.05,27.46c-.02.54.18,1.06.56,1.46.39.41.92.65,1.48.66h.05c1.11,0,2.01-.88,2.05-2.02.02-.55-.18-1.07-.57-1.48-.39-.41-.91-.64-1.5-.65-1.1,0-2.03.91-2.07,2.02ZM16.99,26.65c.23.23.36.55.35.88,0,.67-.54,1.2-1.22,1.2-.33,0-.64-.13-.87-.36-.23-.23-.35-.54-.35-.88.01-.67.55-1.2,1.22-1.2.33,0,.64.13.86.36Z"/>
      <path class="cls-1" d="M20,27.27c.05,0,.11,0,.17,0h3.69s.75,0,.75,0c.19,0,.38,0,.56-.01.2-.01.36-.11.44-.26.06-.13.05-.28-.04-.4-.1-.14-.24-.2-.49-.2h-3.78s-.71,0-.71,0c-.19,0-.37,0-.56,0-.27,0-.44.16-.45.41,0,.25.14.4.42.44Z"/>
      <path class="cls-1" d="M19.68,29.45c.11.14.27.15.46.15h4.11c.32,0,.65,0,.97,0,.13,0,.25-.05.33-.14.07-.08.1-.17.1-.28-.02-.25-.16-.39-.42-.42-.04,0-.08,0-.11,0h-4.66c-.14,0-.29,0-.43,0-.14,0-.32.05-.4.26-.07.17-.05.32.06.45Z"/>
      <path class="cls-1" d="M12.32,11.56h.01c.27,0,.41-.19.41-.54v-.6c.01-.53.02-1.09,0-1.63,0-.21.02-.34.11-.43.1-.1.24-.11.35-.11.03,0,.07,0,.1,0,.18.01.36.02.54.02.23,0,.46,0,.72-.02,1.34-.04,2.43-1.13,2.5-2.48.06-1.27-.94-2.44-2.23-2.61-.29-.04-.61-.06-1.02-.06-.19,0-.38,0-.58,0-.19,0-.39,0-.58,0h-.21c-.4,0-.54.15-.54.57v7.31c0,.37.14.56.41.56ZM12.82,4.06c.08-.08.19-.09.28-.09h.04c.14,0,.29,0,.43,0h.59s.26,0,.26,0c1,.02,1.75.71,1.79,1.64.04.95-.68,1.72-1.68,1.79-.2.02-.41.02-.61.02h-.52c-.11,0-.21,0-.33,0-.1,0-.17-.02-.22-.08-.07-.07-.08-.18-.08-.28,0-.33,0-.65,0-.98v-.29h0v-.49c0-.32,0-.63,0-.95,0-.09,0-.21.08-.3Z"/>
    </g>
  </g>
</svg>