<?xml version="1.0" encoding="UTF-8"?>
<svg id="Layer_2" data-name="Layer 2" xmlns="http://www.w3.org/2000/svg" viewBox="0 0 35 35">
  <defs>
    <style>
      .cls-1 {
        fill: none;
        stroke: #ec1c24;
        stroke-miterlimit: 10;
        stroke-width: 1.4px;
      }

      .cls-2 {
        fill: #ec1c24;
      }

      .cls-3 {
        fill: #009345;
      }
    </style>
  </defs>
  <g id="Layer_1-2" data-name="Layer 1">
    <g>
      <g>
        <path class="cls-2" d="M17.5,1.4c8.88,0,16.1,7.22,16.1,16.1s-7.22,16.1-16.1,16.1S1.4,26.38,1.4,17.5,8.62,1.4,17.5,1.4M17.5,0C7.84,0,0,7.83,0,17.5s7.84,17.5,17.5,17.5,17.5-7.83,17.5-17.5S27.16,0,17.5,0h0Z"/>
        <line class="cls-1" x1="5.46" y1="5.13" x2="29.54" y2="29.87"/>
      </g>
      <path class="cls-3" d="M21.7,11.84c.4,0,1.12-.02,2.18-.02.95,0,1.58-.64,1.84-1.24.1-.22.16-.46.17-.68.01-.24-.03-.48-.11-.67-.13-.29-.43-.64-1.08-.64-.03,0-.16,0-.16,0-1.44,0-3.81-2.49-3.83-2.51l-.22-.23-.56.41s-.02,0-.03,0c0,0-.01,0-.02,0-.02,0-.03-.02-.03-.04-.04-.54-.08-.97-1.39-1.59l-.51-.24v2.83s-.01.04-.03.05c-.72.32-2.34,1.4-1.93,4.55-1.08.84-6.46,5.37-6.18,12.06,0,.02,0,.03-.02.04,0,0-.02.01-.03.01,0,0,0,0-.01,0-.42-.12-.77-.31-1.03-.57-.3-.3-.5-.71-.58-1.21-.31-1.78.83-4.11.84-4.13l.23-.46-.52-.05s-.08,0-.12,0c-.8,0-1.57.8-2.02,2.07-.19.56-.32,1.18-.37,1.81-.05.68,0,1.34.14,1.96.27,1.23,1.17,3.32,4.05,3.75.31,1.03.58,1.62.92,1.99.42.46.9.58,1.59.64l.27.02c.74.06,1.66.14,2.51.14,1.13,0,1.9-.13,2.37-.4.64-.37.97-.76.97-1.15,0-.56-.69-.96-.7-.97l-.19-.05h-1.49c.06-.42.07-.8.05-1.15.05,0,.1,0,.15,0,1.41,0,3.27-.85,4.08-1.25l1.19,4.45h2.81l.11-.17c.3-.48.38-.88.24-1.21-.2-.48-.84-.68-1.2-.76-.02,0-.03-.02-.04-.04l-1.46-5.48c.92-4.44-.44-6.36-.89-6.87v-2.95s.02-.05.05-.05ZM10.12,26.3s-.02.01-.04.01c0,0,0,0-.01,0-1.61-.37-2.7-1.48-3.06-3.13-.12-.55-.16-1.14-.12-1.76.04-.56.15-1.13.33-1.62.17-.48.38-.88.61-1.16,0-.01.02-.02.04-.02,0,0,.02,0,.02,0,.02.01.03.04.02.06-.34.96-.7,2.36-.49,3.57.11.65.37,1.19.78,1.59.4.4.95.68,1.62.82.02,0,.04.02.04.04.06.5.15,1.02.27,1.53,0,.02,0,.03-.01.05ZM21.06,15.28c.07.06,1.78,1.54.75,6.36v.18s1.62,6.04,1.62,6.04l.24.03s.54.04.74.32c.08.11.1.24.06.39,0,.02-.03.04-.05.04h-1.77s-.04-.01-.05-.04l-1.74-6.49-.7.19.51,1.91c-.67.34-2.55,1.24-3.84,1.24-.12,0-.22,0-.32-.02-.08-.28-.19-.53-.33-.74-.36-.53-.83-.68-.98-.72l-.12.71c.1.03.32.12.51.39.24.33.46.98.27,2.24h-1.55v.72h3.67c.07.08.15.18.14.32-.02.17-.18.34-.47.51-.35.2-.99.3-1.94.3-.83,0-1.77-.08-2.52-.14l-.27-.02c-.49-.04-.85-.12-1.11-.4-.27-.29-.5-.82-.78-1.79l-.04-.14c-2.43-8.52,5.29-14.19,5.62-14.43l.18-.13-.04-.22c-.57-3.42,1.55-4.02,1.64-4.05l.27-.07v-2.12s.01-.04.03-.04c0,0,.01,0,.02,0,.01,0,.02,0,.03,0,.36.26.37.48.39.72.01.2.03.42.12.7l.15.48.97-.7s.02,0,.03,0c.01,0,.03,0,.03.01.6.58,2.66,2.48,4.11,2.48h.14c.22,0,.37.08.44.22.04.09.06.2.05.33,0,.14-.05.29-.11.43-.18.39-.58.81-1.19.81-1.54,0-2.43.03-2.6.04h-.35v3.87l-.02.15.15.12Z"/>
    </g>
  </g>
</svg>