<?xml version="1.0" encoding="UTF-8"?>
<svg id="Layer_2" data-name="Layer 2" xmlns="http://www.w3.org/2000/svg" viewBox="0 0 35 35">
  <defs>
    <style>
      .cls-1 {
        fill: none;
        stroke: #ec1c24;
        stroke-miterlimit: 10;
        stroke-width: 1.4px;
      }

      .cls-2 {
        fill: #ec1c24;
      }

      .cls-3 {
        fill: #009345;
      }
    </style>
  </defs>
  <g id="Layer_1-2" data-name="Layer 1">
    <g>
      <g>
        <path class="cls-3" d="M17.5,4.81c-7,0-12.69,5.69-12.69,12.69,0,2.29.62,4.53,1.78,6.49.07.12.2.19.34.19.07,0,.14-.02.2-.06.19-.11.25-.35.14-.54-1.09-1.83-1.67-3.94-1.67-6.08,0-6.56,5.34-11.9,11.9-11.9s11.9,5.34,11.9,11.9-5.34,11.9-11.9,11.9c-2.94,0-5.77-1.08-7.96-3.05-.03-.03-.05-.06-.05-.1v-11.96c0-.22.19-.41.41-.41h1.07c.22,0,.41.19.41.41v6.42c0,.22-.19.41-.41.41s-.39.18-.39.4.18.39.39.39c.17,0,.33-.04.49-.11,0,0,.05-.01.06-.01.05,0,.1.03.12.07.16.28.37.52.59.67l4.81,3.13c.18.12.36.18.54.18.36,0,.75-.27.75-.87v-14.93c0-.6-.39-.87-.75-.87-.18,0-.36.06-.54.18l-4.81,3.13c-.22.15-.43.38-.59.67-.02.04-.07.07-.12.07,0,0-.05,0-.06-.01-.16-.07-.32-.11-.49-.11h-1.07c-.66,0-1.2.54-1.2,1.2v12.18c0,.11.04.21.13.3,2.36,2.2,5.44,3.42,8.67,3.42,7,0,12.69-5.69,12.69-12.69s-5.69-12.69-12.69-12.69ZM12.66,13.14l4.65-3.03s.05-.02.08-.02c0,0,.06.01.07.02.05.02.07.07.07.12v14.56c0,.05-.03.1-.07.12,0,0-.06.02-.07.02-.03,0-.05,0-.08-.02l-4.65-3.03c-.26-.17-.49-.6-.49-.91v-6.91c0-.31.23-.74.49-.91Z"/>
        <path class="cls-3" d="M19.73,20.61c-.09.05-.15.14-.18.24-.03.1-.01.21.04.3.07.12.2.19.34.19.07,0,.14-.02.2-.06,1.33-.79,2.15-2.24,2.15-3.79s-.82-3-2.15-3.79c-.06-.04-.13-.06-.2-.06-.14,0-.27.07-.34.19-.05.09-.07.2-.04.3.03.1.09.19.18.24,1.09.65,1.77,1.84,1.77,3.11s-.68,2.46-1.77,3.11Z"/>
        <path class="cls-3" d="M19.55,25.36c.05.17.2.29.38.29.03,0,.07,0,.1-.01,3.69-.97,6.26-4.32,6.26-8.14s-2.58-7.17-6.27-8.14c-.03,0-.07-.01-.1-.01-.18,0-.33.12-.38.29-.06.21.07.43.28.48,3.34.88,5.68,3.91,5.68,7.38s-2.33,6.49-5.68,7.37c-.1.03-.19.09-.24.18-.05.09-.07.2-.04.3Z"/>
      </g>
      <g>
        <path class="cls-2" d="M17.5,1.4c8.88,0,16.1,7.22,16.1,16.1s-7.22,16.1-16.1,16.1S1.4,26.38,1.4,17.5,8.62,1.4,17.5,1.4M17.5,0C7.84,0,0,7.83,0,17.5s7.84,17.5,17.5,17.5,17.5-7.83,17.5-17.5S27.16,0,17.5,0h0Z"/>
        <line class="cls-1" x1="5.46" y1="5.13" x2="29.54" y2="29.87"/>
      </g>
    </g>
  </g>
</svg>