<?xml version="1.0" encoding="UTF-8"?>
<svg id="Layer_2" data-name="Layer 2" xmlns="http://www.w3.org/2000/svg" viewBox="0 0 39.97 35">
  <defs>
    <style>
      .cls-1 {
        fill: #eb5f00;
      }
    </style>
  </defs>
  <g id="Layer_1-2" data-name="Layer 1">
    <g>
      <path class="cls-1" d="M19.49.37c-.03-.23-.16-.35-.39-.35h0c-.23,0-.36.13-.38.37,0,.07,0,.14,0,.21v33.95c0,.15.03.27.11.34.06.06.16.1.27.1h0c.12,0,.22-.03.28-.1.09-.1.11-.25.11-.37,0-.08,0-.16,0-.24V.64c0-.09,0-.18,0-.27Z"/>
      <g>
        <path class="cls-1" d="M39.92,27.59c-.17-.68-.33-1.35-.49-2.03-.38-1.59-.77-3.23-1.2-4.83-.64-2.37-.89-4.4-.78-6.38.04-.78.03-1.59-.03-2.42-.1-1.19-1.08-2.09-2.3-2.09-.35,0-.69,0-1.04,0h-1.71c-.26,0-.51,0-.77.01-.26,0-.51.01-.77.01-.37,0-.67-.01-.95-.03-.06,0-.12,0-.18,0-.65,0-1.28.27-1.73.73-.47.48-.71,1.14-.7,1.9.03,1.1.02,2.21.01,3.29v1.1c0,.46-.02.88-.11,1.31-.67,3.17-1.34,6.34-2,9.52-.05.22-.03.38.04.47.07.09.23.14.46.14,0,0,1.17,0,1.55,0,.46,0,.91,0,1.4-.01.12,0,.27.01.37.12.1.11.12.26.12.4-.01,1.41,0,2.83,0,4.24v.32c0,1.02.64,1.66,1.66,1.66.53,0,1.07,0,1.6,0,.65,0,1.3,0,1.94,0,1.09,0,1.7-.61,1.7-1.7v-.09c0-1.44,0-2.92-.01-4.38,0-.16.01-.33.12-.45.11-.11.26-.12.42-.12h0c.42.01.83.01,1.25.01.29,0,1.58,0,1.58,0,.28,0,.45-.05.53-.15.07-.1.08-.27.02-.53ZM38.93,27.37c-.08.11-.22.12-.39.12h0c-.43,0-.85-.01-1.28-.01-.35,0-1.51,0-1.51,0-.42,0-.52.1-.52.52,0,1.07,0,2.14,0,3.21v1.98c0,.74-.24,1-.97,1-.57,0-1.14,0-1.71,0s-1.14,0-1.71,0c-.67,0-.94-.27-.94-.94,0-1.13,0-2.25,0-3.38v-1.59q0-.8-.83-.8h-2.87s-.08-.02-.11-.05c-.03-.03-.04-.08-.03-.12l.34-1.59c.26-1.24.52-2.46.77-3.68.1-.47.2-.93.3-1.4.21-.95.43-1.94.58-2.92.04-.27.05-.55.05-.82,0-.77,0-1.54,0-2.31,0-.77,0-1.54,0-2.31,0-.98.64-1.65,1.58-1.66.9-.01,1.8-.02,2.71-.02s1.8,0,2.71.02c.93.01,1.55.67,1.56,1.63,0,.2,0,.4,0,.6.01.59.02,1.2-.01,1.8-.1,1.77.13,3.65.73,5.9.35,1.3.67,2.62.98,3.91.2.83.4,1.66.61,2.49.04.14.07.31-.02.42Z"/>
        <path class="cls-1" d="M32.5,8.44h.02c2.34,0,4.24-1.9,4.24-4.25,0-1.1-.44-2.15-1.24-2.95-.8-.8-1.86-1.24-2.98-1.24-1.12,0-2.18.44-2.99,1.24-.8.8-1.25,1.86-1.25,2.98,0,2.32,1.88,4.21,4.19,4.23ZM30.11,1.82c.64-.65,1.49-1.01,2.4-1.02h.02c1.91,0,3.41,1.5,3.42,3.42,0,.92-.35,1.77-.99,2.41-.64.64-1.49.99-2.42.99-1.9,0-3.4-1.49-3.41-3.39,0-.91.34-1.77.98-2.42Z"/>
      </g>
      <g>
        <path class="cls-1" d="M13.06,15.11c0-.27,0-.54,0-.81,0-.72.01-1.47-.04-2.19-.08-1.24-1.07-2.14-2.34-2.14-.57,0-1.13,0-1.7,0H2.44C1.01,9.97,0,10.96,0,12.38c0,1.19,0,2.38,0,3.57,0,1.38,0,2.76,0,4.14,0,.5.17.9.52,1.24,0,0,.97.94,1.18,1.13.38.36.59.77.63,1.24.05.56.11,1.11.17,1.67.05.51.11,1.03.16,1.55.07.77.15,1.54.22,2.31.14,1.43.27,2.87.42,4.3.08.75.72,1.33,1.49,1.33.43,0,.86,0,1.29,0h2.21c.27,0,.53-.08.8-.25.52-.33.66-.83.73-1.54.09-.91.17-1.82.26-2.73.19-1.95.38-3.97.55-5.95.09-1.09.45-1.81,1.16-2.35.11-.09.22-.19.32-.3.09-.09.18-.19.28-.27.47-.39.68-.89.68-1.57,0-.99,0-1.98,0-2.97,0-.61,0-1.21,0-1.82ZM11.82,20.91c-.13.11-.25.23-.37.35-.14.14-.28.29-.44.41-.7.57-1.06,1.34-1.16,2.42-.21,2.33-.44,4.67-.67,7l-.21,2.17c-.06.59-.31.82-.91.82-.51,0-1.02,0-1.53,0s-1.02,0-1.53,0c-.61,0-.88-.25-.94-.86l-.9-9.47c-.07-.74-.36-1.35-.86-1.83l-.38-.36c-.25-.24-.49-.47-.75-.7-.27-.24-.39-.52-.39-.88,0-1.18,0-2.35,0-3.53,0-1.33,0-2.67,0-4,0-1.02.67-1.68,1.7-1.69.54,0,1.09,0,1.63,0h6.35c1.17,0,1.78.62,1.78,1.77v2.25c0,1.72,0,3.43,0,5.15,0,.43-.13.73-.44,1Z"/>
        <path class="cls-1" d="M6.49,8.58h.03c1.15,0,2.22-.46,3.02-1.27.79-.8,1.22-1.87,1.21-3-.02-2.3-1.92-4.18-4.27-4.18-1.11,0-2.15.45-2.94,1.26-.8.82-1.24,1.89-1.23,3.03.02,2.25,1.94,4.16,4.18,4.16ZM6.49.94s.04,0,.04,0c1.88,0,3.4,1.53,3.41,3.42,0,1.91-1.49,3.41-3.4,3.41-.93,0-1.8-.36-2.45-1.02-.64-.65-.99-1.5-.98-2.41.02-1.85,1.54-3.38,3.38-3.4Z"/>
      </g>
    </g>
  </g>
</svg>