<?xml version="1.0" encoding="UTF-8"?>
<svg id="Layer_2" data-name="Layer 2" xmlns="http://www.w3.org/2000/svg" viewBox="0 0 35.1 35">
  <defs>
    <style>
      .cls-1 {
        fill: #eb5f00;
      }
    </style>
  </defs>
  <g id="Layer_1-2" data-name="Layer 1">
    <g>
      <path class="cls-1" d="M34.1,27.13c-.14,0-.28.02-.43.06-.53.15-1.05.34-1.56.53l-.19.07c-.08.03-.14.04-.2.04-.16,0-.26-.1-.33-.19-.78-.95-1.56-1.9-2.36-2.84-.17-.2-.26-.41-.27-.67-.1-1.66-1.29-3.1-2.89-3.49-.4-.1-.59-.34-.77-.61-.02-.03-.02-.06,0-.09s.04-.05.07-.05c.14-.02.28-.03.42-.04.28-.03.56-.05.83-.1,3.71-.64,6.34-2.74,7.8-6.24.03-.07.05-.14.06-.21.03-.24-.06-.4-.27-.47-.06-.02-.11-.03-.16-.03-.15,0-.26.07-.35.22-.04.08-.08.16-.11.25l-.05.12c-1.36,3.31-4.74,5.62-8.23,5.62-.2,0-.39,0-.59-.02-.23-.02-.4-.09-.57-.25-.69-.63-1.46-.95-2.29-.95-.24,0-.49.03-.74.08-.06.01-.11.02-.16.02-.1,0-.19-.03-.29-.08-3.36-1.86-5.2-5.94-4.39-9.68.93-4.27,4.58-7.26,8.89-7.26.56,0,1.12.05,1.68.15,3.4.6,6.31,3.37,7.1,6.74.25,1.05.32,2.14.21,3.22-.01.14.02.25.1.34.07.08.18.13.32.13.23,0,.39-.16.42-.44.1-.82.08-1.68-.06-2.62-.73-4.79-4.94-8.4-9.78-8.4-.76,0-1.52.09-2.26.27-3.36.8-6.02,3.23-7.12,6.5-1.1,3.27-.46,6.81,1.73,9.48.54.65,1.18,1.25,1.97,1.83.03.02.04.06.04.09s-.03.06-.06.07l-.11.04c-.07.02-.13.04-.19.06-.22.05-.45.1-.67.15-.48.11-.98.22-1.46.35-.09.02-.17.04-.24.04-.2,0-.35-.08-.53-.28-1.15-1.26-2.31-2.51-3.48-3.76l-.32-.34c-.9-.96-1.91-1.45-3.03-1.45-.57,0-1.18.13-1.81.38-.47.19-.93.38-1.43.58-.05.02-.1.04-.16.04-.08,0-.14-.04-.19-.12l-.61-1s-.02-.05-.01-.08c0-.03.03-.05.05-.06.08-.03.16-.05.24-.05.06,0,.12,0,.18.02h.07c.13.03.25.03.38.03.98,0,1.93-.46,2.59-1.26.65-.78.93-1.77.76-2.72-.32-1.77-1.7-2.92-3.5-2.92h-.12c-1.61.05-2.98,1.37-3.19,3.08-.01.09-.04.31-.27.31-.04,0-.08,0-.13-.02-.12-.03-.24-.04-.36-.04-.52,0-1.05.28-1.38.73-.35.48-.43,1.08-.23,1.69,1.76,5.34,3.52,10.69,5.27,16.04l2.14,6.53c.18.54.47.75,1.04.75.27,0,.55,0,.82,0s.53,0,.79,0c.8,0,1.28-.46,1.33-1.27v-.26c.03-.22.04-.45.07-.68.46-2.76,2.69-4.88,5.44-5.15.21-.02.42-.03.62-.03,2.6,0,4.94,1.65,5.82,4.11.21.6.33,1.24.35,1.95.02.76.42,1.23,1.08,1.3.3.03.61.04.94.04s.65-.01,1.01-.04c.44-.03.76-.35.82-.81.07-.6.14-1.19.21-1.79l.14-1.19c.05-.42.1-.83.16-1.27l.08-.61s.03-.06.06-.08c.01,0,.02,0,.04,0,.02,0,.04,0,.06.02l.14.12c.09.07.17.14.25.2.76.63,1.6,1.29,2.58,2,.3.22.58.33.83.33.36,0,.67-.23.95-.7l1.96-3.29v-.35c-.3-.28-.63-.42-1-.42ZM19.93,19.06c.73-.27,1.27-.39,1.73-.39.98,0,1.77.54,2.58,1.75.02.03.02.06,0,.09-.01.03-.04.05-.08.05l-.81.08c-.66.06-1.31.13-1.96.21-.04,0-.08,0-.12,0-.31,0-.42-.19-.5-.41-.15-.43-.38-.91-.87-1.23-.03-.02-.05-.05-.04-.09,0-.04.03-.07.06-.08ZM4.06,7.52c.49-.49,1.13-.76,1.83-.76h0c1.43,0,2.59,1.16,2.59,2.6,0,.7-.27,1.35-.76,1.84-.49.49-1.14.76-1.83.76-1.45,0-2.58-1.14-2.59-2.59,0-.7.27-1.35.75-1.84ZM27.9,25.04c-.19,1.38-.36,2.79-.51,4.15-.08.65-.15,1.29-.23,1.94-.04.32-.08.64-.12.97-.07.57-.14,1.13-.21,1.7-.02.23-.13.32-.37.32h0c-.23,0-.46-.01-.7-.01-.19,0-.38,0-.62.01-.41,0-.48-.28-.48-.52-.05-1.68-.59-3.13-1.62-4.31-1.47-1.7-3.22-2.56-5.2-2.56-.62,0-1.26.09-1.92.26-2.83.73-4.57,2.62-5.18,5.61-.07.33-.08.68-.1,1.01v.07c-.02.29-.16.43-.46.43h-.24c-.18,0-.35-.01-.53-.01-.2,0-.4,0-.6.02h-.06c-.33,0-.44-.2-.51-.42-.71-2.19-1.43-4.38-2.15-6.57L.96,11.5c-.26-.79.07-1.14.4-1.3.13-.07.27-.1.41-.1.33,0,.63.19.85.55.77,1.25,1.54,2.5,2.31,3.75l1.33,2.16c1.2,1.95,2.41,3.9,3.6,5.86.18.29.35.41.59.41.06,0,.12,0,.18-.02.24-.05.49-.07.72-.09.18-.01.36-.03.54-.06.3-.04.43-.21.39-.49-.03-.22-.21-.36-.46-.36-.02,0-.05,0-.07,0-.06,0-.13,0-.2.01-.14,0-.28.01-.4.05-.1.03-.18.05-.26.05-.32,0-.5-.24-.64-.49-1.19-1.97-2.38-3.9-3.81-6.19-.07-.12-.14-.24-.1-.36.04-.11.16-.17.28-.21.27-.09.52-.2.78-.31.17-.07.35-.15.52-.21.42-.17.85-.25,1.27-.25.89,0,1.7.37,2.35,1.07.81.87,1.62,1.74,2.42,2.61l1,1.08s.06.07.09.11l.04.05s.03.05.02.08l-.03.13s-.05.07-.09.07h-1.33c-.39,0-.79,0-1.19,0-.2,0-.33-.08-.45-.26-.48-.74-.97-1.48-1.47-2.21-.11-.16-.26-.25-.41-.25-.09,0-.17.03-.24.09-.2.17-.23.37-.08.59l1.79,2.7c.1.15.24.21.47.21l6.56-.23h.09c.59,0,.92.22,1.18.8.05.11.09.24.03.34-.06.1-.19.13-.3.14-.67.06-1.33.13-1.99.2l-1.67.17c-.5.05-1,.1-1.51.15-.2.02-.34.08-.42.19-.06.08-.09.19-.07.33.03.23.19.34.48.34.04,0,.08,0,.12,0,1.38-.14,2.77-.28,4.15-.42l1.64-.16c.44-.04.89-.09,1.33-.14.95-.1,1.9-.2,2.85-.28.1,0,.2-.01.3-.01.92,0,1.75.36,2.32,1.03.61.7.87,1.64.73,2.64ZM30.87,28.5c-.15.26-.36.61-.58.94-.04.06-.1.08-.13.08-.07,0-.13-.05-.2-.12-.16-.13-.33-.27-.49-.4-.29-.24-.58-.47-.87-.7-.19-.15-.2-.32-.18-.47l.23-1.91s.03-.07.07-.08c0,0,.02,0,.03,0,.03,0,.05.01.07.03l.06.07c.67.8,1.28,1.54,1.9,2.29.11.13.13.21.1.28ZM33.94,28.15l-.42.72c-.39.67-.77,1.3-1.14,1.93-.05.08-.12.19-.25.19-.07,0-.13-.03-.21-.09-.29-.23-.56-.43-.82-.61-.21-.14-.15-.29-.07-.41.22-.32.42-.65.63-.98.06-.1.14-.16.26-.2.44-.16,1.92-.69,1.92-.69.01,0,.02,0,.03,0,.03,0,.05.01.07.03.03.03.03.07,0,.11Z"/>
      <path class="cls-1" d="M27.03,9.62c.88-.33,1.76-.66,2.63-.99.19-.07.32-.19.36-.33.03-.11,0-.23-.07-.34-.09-.13-.2-.18-.33-.18-.08,0-.18.02-.3.07-.5.19-1,.37-1.5.56-.79.29-1.58.59-2.36.89-.1.04-.18.05-.25.05-.14,0-.25-.06-.39-.19-.99-.99-1.97-1.98-2.96-2.97l-1.33-1.33c-.14-.14-.26-.25-.43-.25-.18.02-.31.1-.38.25-.08.19-.05.35.12.52,1.6,1.6,3.2,3.2,4.81,4.81.1.1.21.15.34.15.06,0,.13-.01.2-.04.28-.1.56-.2.84-.31l1-.37Z"/>
      <path class="cls-1" d="M12.06,2.9c-.07.07-.12.13-.17.18l-.51.51c-.36.36-.71.71-1.06,1.07-.14.15-.2.35-.14.51.04.12.13.19.26.2.47.05.98.08,1.5.08s1.03-.02,1.6-.07c.08,0,.14-.04.19-.09.07-.08.09-.21.08-.35-.03-.22-.15-.34-.36-.35-.24-.01-.47-.01-.71-.01-.17,0-.33,0-.5,0-.02,0-.04,0-.06,0-.03,0-.05,0-.08,0-.11,0-.2-.04-.26-.13-.03-.04-.03-.09,0-.12l.5-.5c.43-.43.85-.85,1.28-1.27.18-.18.23-.35.15-.55-.07-.17-.22-.25-.48-.25h-.71s-1.6,0-1.87,0c-.2,0-.34.05-.43.13-.07.07-.1.17-.1.3,0,.35.3.42.54.42h.53s.86,0,.86,0c.04,0,.07.02.09.06s0,.07-.02.1l-.13.13Z"/>
      <path class="cls-1" d="M31.45,9.92c0,.11.04.23.13.32.09.09.2.15.31.15h0c.24,0,.45-.22.45-.46,0-.24-.19-.43-.45-.44-.25,0-.45.19-.45.43Z"/>
      <path class="cls-1" d="M29.87,15.29h0c.23,0,.45-.21.45-.45,0-.24-.19-.43-.45-.44-.25,0-.43.17-.44.42,0,.13.04.25.13.34.08.08.19.13.31.13Z"/>
      <path class="cls-1" d="M24.55,16.85c0,.25.19.46.43.46h0c.23,0,.45-.21.45-.44,0-.11-.04-.22-.13-.31-.09-.09-.2-.15-.33-.15-.24,0-.44.19-.44.44Z"/>
      <path class="cls-1" d="M25.01,3.47c.12,0,.23-.05.32-.14.09-.09.13-.2.13-.32,0-.25-.2-.43-.47-.43h0c-.12,0-.24.05-.32.14-.08.09-.12.2-.12.32.01.23.22.43.45.43h0Z"/>
      <path class="cls-1" d="M30.19,5.36c.09-.09.14-.21.14-.32,0-.24-.22-.44-.47-.44-.12,0-.23.05-.31.13-.08.09-.12.21-.12.34,0,.24.2.43.44.43.11,0,.23-.05.32-.14Z"/>
      <path class="cls-1" d="M18.06,9.5c-.24.01-.42.2-.41.45,0,.25.2.45.44.45h.01c.11,0,.23-.06.31-.15.09-.09.13-.21.13-.33,0-.24-.21-.42-.47-.42h0Z"/>
      <path class="cls-1" d="M19.78,14.53c-.08.09-.12.2-.12.32.01.23.22.43.45.43h0c.11,0,.23-.05.32-.14.09-.09.14-.21.13-.32,0-.24-.2-.43-.47-.43-.12,0-.24.05-.32.14Z"/>
    </g>
  </g>
</svg>