<?xml version="1.0" encoding="UTF-8"?>
<svg id="Layer_2" data-name="Layer 2" xmlns="http://www.w3.org/2000/svg" viewBox="0 0 29.23 35">
  <defs>
    <style>
      .cls-1 {
        fill: #eb5f00;
      }
    </style>
  </defs>
  <g id="Layer_1-2" data-name="Layer 1">
    <g>
      <path class="cls-1" d="M28.38,31.61c-.22-.16-.36-.24-.58-.24-6.28,0-12.57,0-18.85,0H1.27s-.06,0-.11,0c-.06,0-.11.02-.17.08-.26.27-.53.53-.79.79l-.11.11c-.06.06-.08.09-.08.14,0,.32,0,.64,0,.96,0,.51-.01,1.03.02,1.55h29.15c.02-.2.01-.4,0-.61,0-.26-.01-.52.02-.78.12-.86-.14-1.5-.82-2.01ZM28.32,34.15c-.09.1-.23.14-.4.14-.09,0-.19-.01-.28-.02-.08-.01-.17-.02-.24-.02h0c-2.57,0-5.13,0-7.7,0h-10.28c-2.7,0-5.4,0-8.1,0-.17,0-.35-.02-.45-.14-.11-.12-.1-.29-.08-.41.02-.11.01-.22,0-.33,0-.06,0-.11,0-.17,0-.68.38-1.05,1.06-1.05h25.53c.34,0,.6.09.78.28.18.18.27.45.27.79,0,.08,0,.17.02.25.03.23.06.5-.11.67Z"/>
      <path class="cls-1" d="M2.56,12.08h0c.73,0,1.27-.13,1.66-.7.1-.15.22-.22.34-.22s.23.07.34.22c.4.58.94.7,1.66.7h0c.79,0,1.33-.12,1.72-.71.09-.14.2-.21.32-.21s.23.07.33.22c.4.58.95.7,1.72.7.7,0,1.25-.12,1.66-.71.1-.14.2-.21.32-.21s.23.07.33.22c.33.48.76.71,1.3.71.12,0,.24-.01.37-.03.02,0,.05,0,.08,0s.05,0,.08,0c.11.02.23.03.33.03.48,0,.87-.22,1.18-.66.11-.16.24-.25.38-.25s.27.09.4.26c.36.52.85.63,1.52.64h.1c.75,0,1.33-.13,1.75-.75.1-.15.21-.18.28-.18s.18.03.27.17c.34.52.81.76,1.47.76.14,0,.29-.01.45-.03.05,0,.11-.01.16-.01s.11,0,.16.01c.06,0,.11.01.16.01.27,0,.5-.12.73-.37.28-.31.43-.47.63-.47s.36.16.64.45c.2.21.38.39.68.39.03,0,.05,0,.08,0,.08,0,.16-.01.24-.01.14,0,.29.01.44.02.14,0,.28.02.41.02.22,0,.38-.03.51-.08.31-.14.56-.42.83-.72.14-.15.27-.3.41-.44.14-.13.2-.26.2-.47,0-1.31-.02-2.71,0-4.1,0-.12-.01-.2-.04-.23-.03-.03-.11-.05-.24-.05-2.95,0-5.9,0-8.86,0h-10.75c-2.98,0-5.95,0-8.93,0-.11,0-.18.01-.21.04-.02.02-.04.07-.03.2v.51c.03.98.04,1.99,0,2.98-.03.62.15,1.07.66,1.6.51.52,1.01.74,1.78.74ZM7.8,10.81c-.29.3-.67.47-1.06.47,0,0-.07,0-.07,0-.1.02-.21.04-.31.04-.55,0-.89-.4-1.19-.74l-.14-.16c-.18-.2-.14-.46-.11-.67,0-.06.02-.11.02-.16,0-.05.03-.21.26-.21.02,0,.05,0,.11,0,.21,0,.41,0,.62,0h1.35c.18,0,.36,0,.56,0,.31,0,.36.21.36.37.02.38-.14.77-.43,1.07ZM11.89,10.76c-.31.33-.78.51-1.3.51h-.03c-.1.03-.2.05-.29.05-.44,0-.72-.34-.96-.64-.07-.09-.15-.18-.23-.27-.17-.18-.14-.43-.1-.66,0-.06.02-.12.02-.18,0-.1.08-.21.25-.21h.09s1.16,0,1.16,0c.46,0,.93,0,1.4,0,.23,0,.34.11.36.35.02.41-.1.77-.37,1.05ZM15.87,10.82c-.28.29-.65.46-1.05.46,0,0,0,0-.01,0-.11.03-.22.04-.32.04-.59,0-.95-.42-1.27-.8l-.08-.09c-.19-.22-.14-.51-.1-.75l.02-.13s.04-.19.26-.19c.03,0,.13,0,.13,0,.21,0,.41,0,.62,0h1.35c.17,0,.34,0,.53,0,.36,0,.37.29.37.4.01.37-.15.76-.44,1.06ZM19.93,10.81c-.28.3-.66.47-1.05.47h-.01c-.12.03-.23.05-.34.05-.58,0-.95-.43-1.27-.8l-.07-.08c-.18-.2-.14-.47-.11-.68,0-.06.02-.13.02-.19,0-.1.07-.22.25-.22.03,0,.05,0,.12,0,.21,0,.41,0,.62,0h1.36c.18,0,.36,0,.55,0,.29,0,.34.2.35.35.02.39-.13.79-.41,1.1ZM22.91,11.28h0c-.11.03-.22.04-.33.04-.59,0-.96-.43-1.29-.81l-.06-.07c-.19-.22-.15-.49-.12-.71,0-.05.02-.11.02-.16,0-.05.03-.21.26-.21.02,0,.05,0,.12,0,.21,0,.41,0,.62,0h1.32c.16,0,.31,0,.47,0h.06c.1,0,.23.01.32.1.1.1.11.24.1.36-.02.73-.74,1.46-1.49,1.46ZM28.01,10.81c-.28.3-.66.47-1.05.47h-.01c-.12.03-.24.05-.35.05-.58,0-.94-.42-1.26-.79l-.08-.09c-.18-.2-.14-.46-.11-.67,0-.06.02-.13.02-.19,0-.11.07-.22.25-.22.03,0,.05,0,.12,0,.21,0,.41,0,.62,0h1.35c.18,0,.36,0,.56,0,.23,0,.34.11.35.34.02.4-.13.8-.41,1.1ZM.91,8.07c.03-.25.03-.52,0-.8-.01-.17.01-.29.09-.37.07-.07.16-.11.28-.11.04,0,.08,0,.12.01,0,0,26.41,0,26.41,0h.24c.12,0,.22,0,.29.08.08.08.08.18.07.35v.17c0,.1,0,.2,0,.29,0,.16,0,.33,0,.49.01.15-.02.26-.09.34-.06.07-.15.1-.27.1-.03,0-.06,0-.09,0-.02,0-.05,0-.07,0h-.07s-18.31,0-18.31,0c-2.69,0-5.37,0-8.06,0-.17,0-.34-.02-.45-.14-.11-.12-.1-.29-.09-.41ZM.92,9.73c0-.06.02-.12.02-.18,0-.05.03-.19.25-.19h.1s.58,0,.58,0h1.4c.18,0,.36,0,.56,0,.24,0,.35.12.36.37.01.4-.14.79-.43,1.09-.28.29-.67.46-1.07.46,0,0-.07,0-.07,0-.1.02-.2.04-.3.04-.55,0-.88-.39-1.17-.74l-.13-.15c-.18-.2-.14-.46-.1-.69Z"/>
      <path class="cls-1" d="M11.07,17.04s-.92,0-.92,0c-.19,0-.39,0-.61,0-.09,0-.11.02-.11.02,0,0-.02.03-.02.15,0,3.4,0,6.8,0,10.19,0,.11.02.13.02.14,0,0,.02.02.12.02,1.7,0,3.4,0,5.11,0s3.4,0,5.11,0h0c.1,0,.12-.02.12-.02,0,0,.02-.02.02-.14,0-3.4,0-6.8,0-10.19,0-.12-.02-.14-.02-.15,0,0-.02-.02-.14-.02h0c-.27,0-.53,0-.8,0h-1.09s-.08-.02-.11-.06c-.03-.03-.04-.08-.02-.12l.02-.07s.02-.07.03-.09c.4-.96-.02-1.83-.61-2.26-.32-.23-.67-.35-1.04-.35-.44,0-.88.17-1.3.49-.09.07-.16.1-.24.1-.12,0-.2-.07-.28-.14-.34-.3-.75-.45-1.2-.45-.05,0-.11,0-.16,0-.58.04-1.11.37-1.42.87-.31.5-.36,1.09-.14,1.65.03.09.07.21,0,.31-.07.1-.2.11-.31.11ZM17.74,17.82c.33,0,.65,0,1-.01.09,0,.23.01.32.1.09.09.11.23.1.35,0,1,0,2,0,3v2.04c0,1.01,0,2.01,0,3.02,0,.12-.01.25-.1.35-.09.09-.22.1-.34.1h0c-.32,0-.64-.01-.97-.01-.35,0-.71,0-1.08,0-.1,0-.22-.01-.31-.1-.09-.09-.1-.22-.1-.31,0-2.71,0-5.42,0-8.13,0-.09.01-.22.1-.32.09-.09.22-.1.32-.1h0c.35,0,.7,0,1.05,0ZM15,15.74c.09-.53.52-.88,1.07-.88.05,0,.09,0,.14,0,.54.06.95.52.95,1.08,0,.57-.43,1.04-.99,1.08-.06,0-.11,0-.17,0h-.26s-.15,0-.15,0c-.24,0-.4,0-.51-.12-.12-.12-.12-.31-.12-.67,0-.15,0-.33.04-.5ZM14.36,17.81s.06,0,.09,0c.08,0,.17,0,.25-.02.09-.01.19-.02.27-.02.12,0,.3.02.43.15.18.19.15.48.12.74-.01.1-.02.2-.02.28,0,.81,0,1.61,0,2.42v1.94c0,.99,0,1.98,0,2.97,0,.14,0,.29-.11.39-.06.06-.15.1-.27.1-.03,0-.06,0-.09,0-.03,0-.06,0-.1,0-.09,0-.18.01-.27.02-.1.01-.2.02-.29.02-.13,0-.31-.02-.45-.15-.19-.19-.16-.5-.12-.79.01-.11.02-.21.02-.31,0-.89,0-1.78,0-2.66,0-1.52,0-3.04,0-4.56,0-.15.01-.31.12-.42.07-.07.17-.11.3-.11.04,0,.08,0,.12,0ZM13.08,14.86h.02c.58,0,1.05.43,1.09,1,0,.1,0,.2,0,.29v.13c0,.35,0,.52-.12.64-.12.12-.3.12-.58.12h-.23c-.08,0-.16,0-.23,0-.59-.04-1.03-.5-1.02-1.09,0-.6.48-1.07,1.08-1.08ZM11.57,17.82c.36,0,.72,0,1.09,0,.1,0,.22.01.31.1.09.09.1.22.1.31,0,2.71,0,5.42,0,8.13,0,.1-.01.23-.1.32-.09.09-.21.1-.32.1h0c-.35,0-.7,0-1.04,0-.33,0-.66,0-1.01.01-.1,0-.23-.01-.32-.1-.09-.09-.1-.23-.1-.34,0-1.01,0-2.02,0-3.03v-2.03c0-1,0-2,0-3,0-.12.01-.26.1-.35.09-.09.23-.1.32-.1,0,0,.03,0,.03,0,.32,0,.64.01.96.01Z"/>
      <path class="cls-1" d="M4.46,3.23v1.1q0,.56.54.57h.06c.11,0,.13-.02.13-.02,0,0,.02-.03.02-.16,0-.6,0-1.19,0-1.79,0-.58,0-1.15,0-1.73,0-.12,0-.25.1-.34.09-.09.23-.11.35-.11,3.04,0,6.07,0,9.11,0s5.85,0,8.78,0c.12,0,.25.01.35.11.09.09.1.23.1.34,0,.77,0,1.53,0,2.3v.84q0,.55.56.57h.03c.11,0,.14-.02.15-.03.01-.01.03-.06.03-.2-.02-1.74-.02-3.15,0-4.45,0-.14-.02-.18-.03-.19-.03-.03-.16-.03-.21-.03h0c-1.91,0-3.82,0-5.74,0h-8.46c-1.86,0-3.72,0-5.59,0-.08,0-.2,0-.23.04-.02.02-.04.07-.04.22.02.99.01,1.98.01,2.97Z"/>
      <path class="cls-1" d="M2.52,30.25h.1c.1,0,.14-.02.14-.02.03-.03.03-.17.03-.22,0-2.16,0-4.32,0-6.48v-9.85q0-.49-.44-.52h-.12c-.08,0-.14,0-.16.03-.04.04-.04.15-.04.25,0,4.43,0,8.87,0,13.3v2.96q0,.53.48.55Z"/>
      <path class="cls-1" d="M26.89,30.25h.1c.11,0,.14-.02.15-.02.03-.03.03-.17.03-.22,0-2.14,0-4.29,0-6.43v-9.89q0-.49-.44-.51h-.12c-.08,0-.14,0-.16.03-.04.04-.04.15-.04.25,0,4.52,0,9.03,0,13.55v2.71q0,.53.48.55Z"/>
      <path class="cls-1" d="M20.4,2.37c0-.13-.02-.17-.03-.19-.01-.01-.05-.03-.19-.03-1.31,0-2.62,0-3.93,0h-3.46q-.6,0-.6.6c0,.12.02.15.03.16.01.01.04.03.16.03h0c.64,0,1.27,0,1.91,0h5.54q.55,0,.56-.57Z"/>
      <path class="cls-1" d="M24.72,21.48s.05.06.27.06c.09,0,.19,0,.34-.01.08,0,.1-.02.1-.02,0,0,.01-.02.01-.11,0-.47,0-.94,0-1.42v-2.1q0-.55-.52-.56h-.06c-.11,0-.14.02-.15.03-.01.01-.03.06-.03.18,0,.83,0,1.65,0,2.48v.9c0,.28,0,.48.04.56Z"/>
      <path class="cls-1" d="M8.74,2.93s.04,0,.13,0c0,0,.61,0,.63,0,.02,0,.02,0,.03,0,0-.03,0-.12,0-.21,0,0,0-.32,0-.38,0-.09,0-.19.01-.19-.02,0-.06,0-.14,0,0,0-.6,0-.62,0s-.03,0-.03,0c0,.03,0,.12,0,.2,0,0,0,.29,0,.36,0,.1,0,.21-.01.22Z"/>
      <path class="cls-1" d="M11.27,2.17s-.04,0-.13,0c0,0-.62,0-.63,0s-.02,0-.03,0c0,.03,0,.13,0,.22v.35c0,.1,0,.21-.01.21.02,0,.13,0,.16,0h.5s.12,0,.12.01c.01-.03,0-.13,0-.23,0,0,0-.27,0-.34,0-.1,0-.21.01-.21Z"/>
      <path class="cls-1" d="M12.02,4.14q-.43,0-.43.35t.4.4c.16,0,.33,0,.36-.02.02-.03.02-.16.02-.29,0-.2,0-.38-.02-.42-.03-.02-.16-.02-.27-.02h-.05Z"/>
      <path class="cls-1" d="M14.07,4.16s-.16-.02-.28-.02h-.05c-.15,0-.37,0-.4.03-.02.02-.02.17-.02.3,0,.18,0,.37.03.4.02.03.2.03.35.03,0,0,.35,0,.36,0,.02,0,.04,0,.04,0,0-.03,0-.09,0-.14v-.16c0-.19,0-.4-.02-.43Z"/>
      <path class="cls-1" d="M15.8,4.16s-.16-.02-.28-.02h-.05c-.15,0-.37,0-.4.03-.02.02-.02.17-.02.3q0,.42.37.42h.36s.04,0,.05,0c0-.03,0-.09,0-.14v-.16c0-.19,0-.4-.02-.44Z"/>
      <polygon class="cls-1" points="17.57 4.14 17.57 4.14 17.57 4.15 17.57 4.14"/>
      <path class="cls-1" d="M17.5,4.14h-.4c-.07,0-.28,0-.31.03-.02.02-.02.16-.02.28,0,.2,0,.39.03.42.03.02.17.02.3.02q.46,0,.46-.37v-.21c0-.08,0-.17.02-.17,0,0-.03,0-.07,0Z"/>
      <polygon class="cls-1" points="25.46 13.9 25.46 13.9 25.46 13.9 25.46 13.9"/>
      <path class="cls-1" d="M24.71,14.64s.18.02.3.02q.42,0,.42-.38c0-.09,0-.17,0-.23,0-.07,0-.15.02-.15,0,0-.04,0-.12,0,0,0-.59,0-.61,0-.03,0-.04,0-.05,0,0,.03,0,.08,0,.14,0,.05,0,.1,0,.17,0,.2,0,.42.03.45Z"/>
      <path class="cls-1" d="M25.35,15.62s-.6,0-.62,0c-.03,0-.04,0-.05,0,0,.03,0,.09,0,.14,0,.05,0,.11,0,.17,0,.19,0,.41.03.44.02.02.18.02.31.02h.05q.37,0,.37-.38c0-.09,0-.17,0-.23,0-.07,0-.15.02-.15,0,0-.04,0-.11,0Z"/>
      <polygon class="cls-1" points="25.46 15.62 25.46 15.62 25.46 15.62 25.46 15.62"/>
      <path class="cls-1" d="M20.27,8.06s.02,0,.08,0h.01c.27,0,.53,0,.8,0h2.45q.57,0,.58-.59c0-.12-.02-.14-.02-.15,0,0-.04-.02-.17-.02h0c-.47,0-.95,0-1.42,0h-1.68c-.31,0-.53,0-.59.05s-.04.28-.03.61c0,.07.01.08.01.09Z"/>
      <path class="cls-1" d="M25.49,8.07h.33s.06,0,.07.01c0-.03,0-.11,0-.18v-.13s0-.23,0-.23c0-.11,0-.22.02-.22,0,0-.02,0-.08,0h-.4q-.31,0-.31.33t.38.42Z"/>
      <path class="cls-1" d="M27.32,8.07c.17,0,.27,0,.28-.03.02-.02.02-.19.02-.33v-.21c0-.09,0-.19.02-.19-.01,0-.05,0-.11,0,0,0-.64,0-.65,0-.02,0-.04,0-.04,0,0,.03,0,.11,0,.18v.15c0,.09,0,.17,0,.23,0,.1,0,.2-.02.2,0,0,.03,0,.11,0h.39Z"/>
      <path class="cls-1" d="M18.1,23q0-.59-.61-.6c-.12,0-.15.02-.15.03,0,0-.03.04-.02.15.01.58,0,1.15,0,1.73v.68c0,.29,0,.51.04.59.02.03.06.06.3.06.09,0,.19,0,.33,0,.08,0,.1-.02.1-.02,0,0,.01-.02.01-.11,0-.35,0-.71,0-1.06v-1.45Z"/>
      <path class="cls-1" d="M18.04,19.73s.05,0,.05,0c0-.02,0-.12,0-.2v-.16s0-.2,0-.2c0-.1,0-.2.01-.21-.01,0-.05,0-.12,0,0,0-.62,0-.64,0-.02,0-.03,0-.03,0,0,.04,0,.13,0,.22,0,0,0,.27,0,.34,0,.1,0,.2-.01.21.02.01.12.01.15.01,0,0,.56,0,.58,0Z"/>
      <path class="cls-1" d="M17.3,21.45s.07.01.15.01h.58s.06,0,.06,0c0-.02,0-.11,0-.2v-.17c0-.17,0-.35-.03-.38-.03-.03-.21-.03-.37-.03,0,0-.34,0-.35,0-.02,0-.03,0-.03,0,0,.04,0,.14,0,.23,0,0,0,.26,0,.33,0,.1,0,.2-.01.21Z"/>
    </g>
  </g>
</svg>