<?xml version="1.0" encoding="UTF-8"?>
<svg id="Layer_2" data-name="Layer 2" xmlns="http://www.w3.org/2000/svg" viewBox="0 0 33.62 35">
  <defs>
    <style>
      .cls-1 {
        fill: #eb5f00;
      }
    </style>
  </defs>
  <g id="Layer_1-2" data-name="Layer 1">
    <g>
      <path class="cls-1" d="M25.92,35v-.81h2v-6.95H5.7v6.95h2v.81H0v-.81h2V0h3.7v2.02h22.21V0h3.7v34.19h2v.81h-7.7ZM28.72,34.19h2.09V.81h-2.09v33.39ZM2.81,34.19h2.09V.81h-2.09v33.39ZM5.7,26.44h22.21V2.83H5.7v23.61Z"/>
      <path class="cls-1" d="M13.4,15.05v-.8h1v-.66c-1.32-1.39-1.32-3.53-.03-4.84.65-.66,1.51-1.02,2.44-1.02s1.75.35,2.39.97c1.34,1.32,1.36,3.48.05,4.82l-.03.63v.1h1v.8h-6.82ZM17.24,12.78l-.03,1.47h1.2v-.87c0-.11.05-.22.13-.3.07-.07.14-.13.21-.21.46-.52.7-1.19.66-1.88s-.35-1.33-.87-1.8c-.48-.43-1.1-.66-1.74-.66-.74,0-1.45.32-1.94.87-.96,1.07-.87,2.72.21,3.68.08.08.13.18.13.3v.87h1.2v-1.4l-1.32-1.36.57-.57,1.15,1.15,1.15-1.15.57.57-1.29,1.29Z"/>
      <rect class="cls-1" x="21.67" y="14" width=".8" height="6.32" transform="translate(4.92 39.23) rotate(-90)"/>
      <rect class="cls-1" x="19.67" y="14" width=".8" height="10.33" transform="translate(.9 39.23) rotate(-90)"/>
      <rect class="cls-1" x="18.66" y="17.01" width=".8" height="8.32" transform="translate(-2.1 40.24) rotate(-90)"/>
      <rect class="cls-1" x="16.91" y="16.76" width=".8" height=".8" transform="translate(.15 34.47) rotate(-90)"/>
      <path class="cls-1" d="M8.79,21.57c-.22,0-.4-.18-.4-.4v-4.01c0-.22.18-.4.4-.4h4.01c.22,0,.4.18.4.4v4.01c0,.22-.18.4-.4.4h-4.01ZM9.19,20.77h3.21v-3.21h-3.21v3.21Z"/>
    </g>
  </g>
</svg>