<?xml version="1.0" encoding="UTF-8"?>
<svg id="Layer_2" data-name="Layer 2" xmlns="http://www.w3.org/2000/svg" viewBox="0 0 35 35">
  <defs>
    <style>
      .cls-1 {
        fill: none;
        stroke: #ec1c24;
        stroke-miterlimit: 10;
        stroke-width: 1.4px;
      }

      .cls-2 {
        fill: #ec1c24;
      }

      .cls-3 {
        fill: #009345;
      }
    </style>
  </defs>
  <g id="Layer_1-2" data-name="Layer 1">
    <g>
      <path class="cls-3" d="M25.22,16.95c.07.02.14.04.22.06.35.08.71.15,1.08.17.26.01.51.02.77.03.1,0,.2.02.28.09.12.09.18.22.19.37.01.22-.01.44-.05.66-.05.34-.16.66-.26.99-.17.57-.37,1.12-.59,1.67-.18.43-.4.84-.64,1.24-.12.19-.23.39-.36.58-.24.35-.52.67-.81.97-.38.39-.78.75-1.22,1.07-.13.09-.25.19-.38.28-.2.15-.41.28-.63.39-.26.13-.53.27-.79.4-.3.15-.62.27-.95.34-.03,0-.05.01-.08.02-.01,0-.03,0-.05.01,0,.02,0,.04,0,.07-.03.24-.06.49-.13.72-.07.25-.17.49-.32.71-.09.13-.19.24-.31.34-.03.03-.05.05-.05.09-.02.13-.07.25-.14.37-.14.24-.32.44-.53.62-.48.4-1.03.65-1.65.77-.27.05-.53.02-.79-.04-.54-.13-1.02-.37-1.45-.73-.17-.14-.32-.29-.44-.47-.11-.17-.21-.34-.24-.55,0-.02-.02-.03-.03-.05-.26-.2-.43-.47-.55-.77-.1-.26-.17-.53-.2-.81,0-.09-.02-.18-.03-.27-.05-.02-.11-.03-.17-.05-.32-.07-.62-.18-.9-.32-.35-.17-.69-.34-1.03-.53-.19-.1-.37-.23-.54-.36-.25-.18-.49-.37-.73-.56-.29-.23-.55-.5-.81-.77-.27-.28-.53-.57-.74-.89-.39-.6-.76-1.21-1.03-1.87-.22-.54-.42-1.09-.58-1.66-.07-.24-.14-.48-.21-.73-.06-.24-.09-.49-.1-.74,0-.08,0-.17.03-.25.06-.21.22-.33.43-.34.17,0,.35,0,.52-.01.51-.02,1.01-.09,1.5-.22.02,0,.04-.01.06-.02,0-.02-.01-.04-.02-.05-.14-.38-.29-.75-.43-1.13-.11-.29-.17-.58-.24-.88-.09-.37-.16-.75-.22-1.13-.03-.2-.05-.4-.07-.61-.02-.27-.05-.53-.06-.8-.03-.65-.02-1.31,0-1.96.01-.32.05-.64.08-.95.05-.56.16-1.11.27-1.65.04-.2.1-.39.17-.58.04-.09.08-.18.13-.27.05-.1.13-.17.23-.22.14-.07.28-.06.41,0,.2.08.4.16.59.24.76.34,1.47.77,2.15,1.25.41.29.81.6,1.18.93.7.63,1.34,1.31,1.87,2.09.04.06.09.13.13.2.01,0,.03-.01.04-.02.33-.19.68-.31,1.06-.37.18-.03.36-.06.54-.04.49.04.95.17,1.37.41.01,0,.03.02.05.02.02-.04.05-.07.07-.1.34-.52.73-.98,1.16-1.43.64-.68,1.36-1.27,2.13-1.8.59-.4,1.19-.76,1.84-1.07.24-.11.49-.21.74-.31.25-.1.47-.02.63.2.09.13.15.27.2.42.09.26.15.52.2.79.06.32.12.64.17.96.03.17.04.35.06.53.02.25.04.51.06.76.01.25.01.51.02.76,0,.31,0,.61,0,.92,0,.34-.03.67-.06,1-.02.22-.04.43-.07.65-.05.38-.12.75-.21,1.12-.07.3-.13.6-.23.88-.12.34-.25.67-.38,1.01-.03.08-.06.15-.09.24ZM18.24,27.52s.04.03.05.04c.07.04.14.09.21.12.18.08.36.12.56.1.17-.02.32-.07.48-.14.15-.06.26-.16.34-.29.06-.09.1-.2.15-.3.13-.34.16-.69.18-1.05.01-.19,0-.37-.03-.56-.02-.23-.06-.46-.14-.68-.05-.14-.1-.28-.15-.41-.14-.35-.27-.71-.43-1.06-.23-.5-.39-1.02-.52-1.55-.08-.32-.12-.64-.13-.97,0-.51.09-1,.26-1.48.23-.64.66-1.11,1.25-1.44.33-.19.69-.29,1.07-.36.26-.04.52-.05.78-.01.16.02.32.06.48.09.2.04.38.12.56.21.17.08.24.25.2.42-.05.22-.28.33-.5.25-.08-.03-.15-.07-.23-.1-.04-.02-.09-.03-.13-.05,0,.01-.01.01-.01.02,0,.03-.02.06-.02.1-.08.36-.21.71-.42,1.03-.22.34-.51.61-.84.85-.25.18-.52.3-.81.37-.17.04-.34.09-.51.14-.12.04-.24.1-.35.17-.03.02-.05.03-.04.07.01.07.02.15.03.22.05.21.09.43.15.64.07.27.15.53.26.79.11.26.22.51.33.77.03.08.07.16.1.25.02-.02.03-.04.05-.05.05-.06.09-.12.14-.17.31-.35.66-.66,1.04-.94.54-.4,1.12-.74,1.72-1.05.57-.29,1.12-.61,1.63-.99.36-.27.69-.57.97-.93.19-.24.36-.49.52-.74.17-.27.31-.55.41-.85,0-.02.01-.04.02-.06-.09,0-.17-.01-.25-.01-.47-.02-.94-.09-1.4-.19-.54-.13-1.06-.32-1.56-.56-.56-.27-1.09-.59-1.59-.95-.6-.44-1.09-.97-1.45-1.62-.17-.31-.34-.63-.44-.97-.09-.31-.15-.62-.13-.95,0-.11.02-.22.05-.32.05-.14.1-.28.16-.42.14-.34.32-.66.54-.95.4-.51.83-.99,1.31-1.42.53-.49,1.08-.97,1.61-1.45.02-.01.03-.03.04-.04-.03,0-.06.02-.08.03-.63.36-1.23.77-1.8,1.23-.63.5-1.2,1.07-1.71,1.68-.27.33-.53.67-.73,1.05-.04.07-.09.13-.15.19-.14.14-.37.13-.51-.02-.06-.06-.12-.12-.2-.17-.32-.19-.68-.29-1.05-.33-.19-.02-.37.01-.55.06-.34.09-.66.2-.91.46-.15.15-.39.12-.52-.04-.06-.07-.11-.14-.15-.22-.05-.09-.11-.18-.17-.27-.4-.6-.87-1.13-1.38-1.64-.49-.48-1.01-.91-1.57-1.3-.35-.24-.71-.47-1.08-.68-.02-.01-.05-.03-.08-.03,0,.01.02.02.03.03.43.38.86.76,1.29,1.15.58.52,1.12,1.06,1.6,1.67.12.16.24.32.34.5.13.22.23.45.33.68.05.13.11.27.13.41.04.26.02.52-.04.77-.08.41-.24.79-.44,1.16-.22.41-.49.8-.81,1.14-.3.32-.64.58-1,.83-.49.34-1.01.62-1.56.87-.87.39-1.78.61-2.72.65-.08,0-.16,0-.25.01,0,.02,0,.03,0,.04.07.16.12.33.2.49.17.34.39.65.61.96.23.31.49.6.79.84.55.46,1.15.84,1.79,1.16.34.18.69.36,1.02.56.41.25.82.52,1.19.83.31.26.61.53.85.86,0,.01.02.02.03.03,0-.02.02-.04.03-.06.1-.23.19-.47.29-.7.12-.27.23-.53.31-.81.1-.35.2-.7.24-1.07,0-.05,0-.08-.04-.1-.08-.04-.16-.09-.24-.13-.16-.08-.33-.12-.51-.16-.17-.04-.35-.07-.51-.15-.45-.21-.83-.53-1.14-.92-.27-.34-.42-.73-.52-1.14-.01-.05-.03-.11-.04-.16-.09.01-.16.05-.23.08-.06.02-.12.05-.18.07-.24.07-.47-.11-.46-.36,0-.14.07-.25.2-.31.14-.07.29-.13.44-.18.14-.05.29-.07.44-.1.09-.02.19-.03.28-.04.25-.02.5,0,.75.04.57.11,1.08.32,1.52.71.3.27.53.58.68.95.15.37.25.76.29,1.16.04.37.02.73-.04,1.09-.06.36-.16.71-.27,1.06-.08.28-.21.54-.32.81-.17.42-.33.84-.5,1.26-.17.42-.23.85-.24,1.29,0,.29.03.58.09.87.04.21.12.42.23.61.09.15.21.26.37.32.11.04.22.08.33.11.12.03.25.04.37.03.22-.03.4-.13.58-.25,0,0,0,0,0-.01-.09-.07-.17-.13-.26-.2-.22-.18-.41-.38-.53-.64-.11-.22-.17-.45-.15-.7.04-.39.28-.6.59-.68.12-.03.24-.03.37-.03.31,0,.62.02.93.02.19,0,.38-.01.57-.02.08,0,.17,0,.25.02.44.08.69.39.66.86-.01.3-.14.56-.31.8-.16.22-.37.38-.58.54-.02.01-.04.03-.06.04ZM10.48,16.72s.06-.02.09-.04c.47-.2.93-.43,1.36-.71.31-.2.61-.41.89-.66.28-.25.53-.53.73-.85.1-.15.18-.32.27-.47.18-.31.28-.65.34-1.01.03-.2.02-.4-.07-.59-.03-.07-.06-.13-.09-.2-.12-.28-.26-.54-.44-.77-.23-.3-.48-.58-.74-.85-.36-.37-.75-.73-1.14-1.07-.55-.48-1.1-.96-1.65-1.44-.06-.05-.13-.11-.19-.16,0,0-.01.01-.01.01,0,.02-.01.04-.02.06-.09.45-.18.89-.23,1.35-.05.46-.1.93-.1,1.4-.01.74-.03,1.48.05,2.22.02.23.04.46.08.69.05.37.12.73.21,1.09.07.27.12.54.22.81.1.29.21.58.32.86.04.11.09.22.13.34ZM24.52,16.72s.03-.06.04-.09c.05-.13.1-.25.15-.38.11-.29.23-.59.32-.89.13-.44.23-.88.31-1.33.06-.33.1-.66.13-.99.02-.3.06-.59.06-.89.01-.77.02-1.55-.05-2.32-.02-.21-.03-.41-.06-.62-.05-.35-.12-.7-.18-1.05-.02-.09-.04-.18-.06-.28-.03.02-.05.03-.06.05-.74.63-1.48,1.27-2.2,1.93-.38.35-.76.71-1.1,1.11-.17.2-.33.4-.48.6-.18.25-.3.53-.42.81-.08.19-.1.38-.07.58.03.25.1.5.2.74.07.17.16.33.24.49.27.51.63.93,1.08,1.29.53.42,1.11.78,1.73,1.06.14.06.28.12.42.19ZM26.32,20.36s-.01,0-.02-.01c-.01.02-.03.04-.04.05-.17.17-.34.35-.53.5-.53.43-1.1.79-1.7,1.11-.46.24-.91.48-1.35.75-.46.29-.9.62-1.29,1-.23.23-.42.48-.6.75-.02.03-.03.06-.01.11.08.23.12.47.14.71,0,.06.01.12.02.19.12-.04.24-.07.35-.11.36-.13.7-.31,1.04-.49.25-.13.49-.26.71-.43.12-.09.25-.18.37-.28.21-.16.42-.32.62-.5.24-.21.46-.45.68-.67.2-.21.38-.43.54-.67.31-.48.61-.97.85-1.5.08-.17.15-.35.22-.52ZM14.07,25.52c0-.07.01-.12.02-.18.03-.24.06-.48.14-.71.01-.04,0-.08-.01-.11-.13-.2-.27-.39-.42-.57-.24-.27-.51-.51-.8-.73-.54-.41-1.12-.75-1.72-1.06-.47-.24-.94-.5-1.38-.81-.39-.27-.77-.56-1.1-.91-.03-.03-.06-.06-.1-.1,0,.02,0,.03,0,.03.05.12.09.23.14.35.18.41.39.8.62,1.18.13.21.26.43.41.63.21.28.45.54.69.79.22.22.44.45.69.64.16.12.32.24.48.37.3.23.61.44.95.61.33.16.65.34,1,.47.13.05.25.09.39.11ZM17.5,27.9s-.06.04-.09.06c-.18.14-.37.26-.57.37-.19.1-.4.16-.61.18-.1,0-.21,0-.32.01.01.01.02.03.04.04.38.34.82.56,1.32.67.1.02.19.04.29.03.18-.02.35-.06.51-.12.35-.13.68-.31.96-.56.02-.02.03-.03.05-.05-.01,0-.02,0-.02,0-.35.03-.67-.05-.98-.22-.18-.1-.35-.21-.51-.34-.03-.02-.06-.04-.09-.06ZM15.39,20.13s0-.01,0-.01c0-.04-.02-.09-.03-.13-.06-.24-.12-.48-.24-.69-.16-.31-.4-.55-.7-.74-.32-.2-.68-.3-1.05-.35-.07,0-.13,0-.2-.01,0,.02,0,.02,0,.03.05.25.14.49.26.72.15.28.37.5.62.69.19.15.4.27.65.32.23.04.45.1.67.19,0,0,.01,0,.02,0ZM19.6,20.14s.04,0,.05,0c.19-.08.39-.13.59-.17.25-.05.48-.15.68-.31.01,0,.02-.02.03-.03.19-.14.36-.3.5-.49.17-.23.27-.5.35-.78.01-.05.02-.1.03-.16-.03,0-.05,0-.08,0-.13.02-.25.03-.38.05-.4.08-.77.24-1.08.51-.23.21-.42.46-.52.75-.02.06-.05.13-.07.19-.04.14-.07.28-.11.43ZM17.48,26.02c-.11,0-.25-.01-.39-.02-.15,0-.3,0-.45,0-.08,0-.1.03-.09.11,0,0,0,.02,0,.03.03.18.12.33.25.46.15.15.32.28.51.39.13.08.25.08.38,0,.17-.1.32-.21.47-.35.1-.1.18-.21.24-.34.03-.07.06-.15.06-.23,0-.05-.01-.06-.06-.07-.05,0-.09,0-.14,0-.25,0-.5.02-.77.02Z"/>
      <g>
        <path class="cls-2" d="M17.5,1.4c8.88,0,16.1,7.22,16.1,16.1s-7.22,16.1-16.1,16.1S1.4,26.38,1.4,17.5,8.62,1.4,17.5,1.4M17.5,0C7.84,0,0,7.84,0,17.5s7.84,17.5,17.5,17.5,17.5-7.83,17.5-17.5S27.16,0,17.5,0h0Z"/>
        <line class="cls-1" x1="5.46" y1="5.13" x2="29.54" y2="29.87"/>
      </g>
    </g>
  </g>
</svg>