<?xml version="1.0" encoding="UTF-8"?>
<svg id="Layer_2" data-name="Layer 2" xmlns="http://www.w3.org/2000/svg" viewBox="0 0 25.04 35">
  <defs>
    <style>
      .cls-1 {
        fill: #eb5f00;
      }
    </style>
  </defs>
  <g id="Layer_1-2" data-name="Layer 1">
    <path class="cls-1" d="M24.77,7.32c-.16-.22-.32-.44-.48-.66-.3-.41-.6-.82-.88-1.25-.27-.4-.61-.57-1.13-.57-1.16,0-2.32,0-3.47,0h-4.24s-.04,0-.07,0c-.04,0-.08,0-.11,0-.16,0-.23-.08-.26-.15-.1-.2.08-.33.15-.38.02-.01.04-.03.05-.04.64-.65.87-1.43.7-2.31-.2-1.02-1.1-1.85-2.13-1.96-.1-.01-.19-.02-.29-.02-.97,0-1.84.54-2.26,1.41-.47.97-.27,2.09.5,2.85.18.17.25.36.25.61,0,1.04,0,2.08,0,3.12v1.19c0,.52-.07.59-.59.59h-.79s-7.37,0-8.79,0c-.41,0-.71.14-.85.39-.14.25-.1.59.1.94l.14.23c.25.43.5.85.76,1.27.14.22.14.4,0,.61-.27.44-.53.88-.79,1.33l-.12.21c-.19.33-.22.67-.08.91.14.25.45.39.84.4h4.48s.31,0,.31,0c.08,0,.15,0,.23,0,.22-.02.36-.18.36-.38s-.14-.35-.37-.37c-.06,0-.11,0-.17,0,0,0-3.5,0-4.36,0-.02,0-.05,0-.07,0-.03,0-.06,0-.1,0-.07,0-.19-.01-.3-.1-.06-.04-.07-.12-.03-.18.06-.11.13-.22.19-.34.14-.25.28-.51.46-.74.57-.71.57-1.35,0-2.06-.18-.23-.32-.48-.46-.75-.07-.12-.13-.25-.21-.37-.03-.04-.03-.1,0-.14.02-.04.07-.07.12-.07h9.45c.08,0,.17,0,.25,0,0,0,.04,0,.05,0,.12,0,.2.03.27.1.09.09.09.22.09.31-.01.35-.02.71,0,1.05,0,.13,0,.3-.1.41-.11.11-.27.13-.42.13h0c-.75,0-1.51,0-2.26,0h-2.46s-.62,0-.62,0c-.18,0-.36,0-.55,0-.27.01-.43.16-.42.38,0,.22.18.36.44.38.03,0,.07,0,.1,0h2.93c.95,0,1.9,0,2.86,0,.13,0,.29.01.39.12.1.11.11.27.1.39-.02.33-.02.66,0,.98,0,.11,0,.27-.1.39-.1.11-.25.12-.41.12h0c-.29,0-.59,0-.88,0h-1.45c-.43.01-.49.2-.49.38,0,.25.16.38.48.39h.41c.29,0,.58,0,.87,0,.35,0,.71,0,1.1-.01.12,0,.26.01.36.11.1.1.12.26.12.41-.01,2.12,0,4.23,0,6.35v1.54c0,.12,0,.24.02.36.03.21.15.32.38.33.23,0,.32-.16.35-.3.03-.1.02-.21.02-.38V5.72c0-.68.06-.74.73-.75.03,0,.29-.02.29-.02.06,0,.11,0,.15,0,.06,0,.15,0,.21.07.08.08.08.2.08.42v25.02c0,.9-.06.96-.96.97,0,0-.05,0-.05,0-.11,0-.25-.01-.34-.11-.09-.09-.11-.23-.1-.37,0-.96,0-1.92,0-2.88v-.95c0-.12,0-.22-.04-.31-.07-.16-.17-.24-.37-.24h0c-.19.01-.29.1-.33.28-.02.12-.03.25-.03.38v.71c0,.99,0,1.98,0,2.97,0,.14-.01.29-.11.39-.1.1-.25.12-.39.12h0c-.73,0-1.45-.01-2.18-.01s-1.39,0-2.09,0c-.66,0-1.1.32-1.33.95-.07.18-.13.37-.19.56l-.12.35c-.03.08-.05.16-.07.24-.05.22-.11.45-.27.6-.13.13-.3.14-.41.14-.08,0-.16,0-.25-.02-.08,0-.15-.02-.22-.02-.02,0-.14,0-.14,0-.02,0-.03,0-.04,0-.12.02-.23.11-.28.23-.05.12-.04.25.04.35.04.05.08.09.12.14l.03.03h18.84c.21-.17.29-.3.21-.5-.07-.18-.19-.25-.45-.25h-.18s-.26,0-.26,0c-.05,0-.1,0-.15,0-.03,0-.06,0-.08,0-.3,0-.4-.22-.45-.39-.1-.34-.21-.67-.33-1.01l-.12-.36c-.26-.77-.67-1.07-1.48-1.07h-2.16c-.67,0-1.34,0-2.02,0-.12,0-.27-.01-.37-.11-.1-.1-.11-.25-.11-.39.01-3.22.01-6.21,0-9.13,0-.12.01-.28.11-.38.1-.1.24-.11.4-.11h0c.73,0,1.45,0,2.18,0h1.2c.67,0,1.35,0,2.04,0,.47,0,.78-.16,1.04-.53.28-.42.58-.83.87-1.23.18-.24.35-.49.52-.73.34-.48.34-.81,0-1.29-.17-.24-.34-.48-.51-.71-.3-.41-.6-.83-.89-1.25-.25-.37-.57-.54-1.04-.54-.7,0-1.4,0-2.1,0h-1.05c-.76,0-1.53,0-2.3,0-.12,0-.27-.01-.36-.11-.1-.1-.11-.24-.11-.38.02-1.12.02-2.04,0-2.92,0-.12,0-.28.11-.38.1-.1.24-.11.4-.11h0c.45,0,.9,0,1.36,0h1.64c.12,0,.25,0,.37-.04.18-.04.26-.15.27-.34,0-.2-.08-.32-.27-.37-.11-.03-.23-.03-.34-.03h-1.64c-.49,0-.97,0-1.47,0-.12,0-.24-.01-.33-.1-.09-.09-.1-.23-.1-.32.01-1.3.01-2.59,0-3.89,0-.11.01-.24.1-.33.09-.09.22-.1.33-.1,1.3,0,2.59,0,3.89,0s2.59,0,3.89,0c.23,0,.38.08.51.27.43.61.86,1.22,1.3,1.82.19.25.1.44,0,.59-.44.6-.87,1.21-1.3,1.82-.15.22-.34.25-.52.25h0c-.36,0-.72,0-1.09,0-.34,0-.67,0-1.01,0-.22,0-.49.07-.5.38,0,.11.03.2.09.26.08.08.22.13.39.13.35,0,.69,0,1.04,0,.41,0,.82,0,1.23,0,.39,0,.68-.16.9-.48.29-.41.58-.82.88-1.23.19-.26.38-.52.56-.79.35-.49.35-.81-.01-1.32ZM14.18,15.89c.09-.09.2-.1.32-.1h.02c.44,0,.88,0,1.32,0h2.83c.41,0,.81,0,1.24,0,.27,0,.44.09.59.3.41.59.84,1.19,1.28,1.79.15.21.15.38,0,.59-.45.61-.89,1.22-1.32,1.84-.11.16-.25.23-.46.23-.94,0-1.88,0-2.81,0s-1.8,0-2.7,0c-.09,0-.21-.01-.29-.09-.08-.08-.09-.21-.09-.3,0-1.32,0-2.64,0-3.96,0-.09,0-.21.1-.3ZM18.6,32.2c.66,0,.74.06.94.67.03.09.06.19.09.28.06.2.12.4.2.59.06.13.1.27.02.39s-.23.13-.38.13c-1.26,0-2.52,0-3.79,0h-6.29c-1.22,0-2.44,0-3.67,0-.15,0-.3-.02-.38-.13-.08-.12-.04-.26.02-.4.12-.29.21-.59.3-.89l.06-.18c.09-.3.3-.45.61-.45,0,0,12.27,0,12.27,0ZM12.59,4.15h0c-.07,0-.13.01-.19.01h0c-.97,0-1.52-.97-1.53-1.65,0-.45.18-.89.5-1.23.33-.33.77-.52,1.22-.53h.01c.45,0,.88.18,1.21.5.33.33.51.77.51,1.24,0,.99-.7,1.65-1.73,1.65Z"/>
  </g>
</svg>