<?xml version="1.0" encoding="UTF-8"?>
<svg id="Layer_2" data-name="Layer 2" xmlns="http://www.w3.org/2000/svg" viewBox="0 0 34.29 35">
  <defs>
    <style>
      .cls-1 {
        fill: #eb5f00;
      }
    </style>
  </defs>
  <g id="Layer_1-2" data-name="Layer 1">
    <g>
      <path class="cls-1" d="M13.19,35c-4.59,0-8.53-3.29-9.36-7.83-.91-4.95,2.2-9.75,7.07-10.94.21-.05.31-.11.37-.21.06-.11.04-.25-.01-.43-.57-1.83-1.12-3.66-1.67-5.5l-.21-.69c-.08-.27.02-.51.25-.58.05-.02.09-.02.14-.02.18,0,.33.12.41.34.02.05.04.1.05.16l1.32,4.37c.19.63.38,1.26.56,1.89.06.21.16.42.44.42.04,0,.09,0,.14-.01.05,0,.1-.01.15-.01.04,0,.09,0,.14,0,.06,0,.12,0,.18,0,.03,0,.06-.01.08-.04.02-.02.02-.05.01-.08l-.24-.82c-.16-.53-.31-1.05-.47-1.57l-3.34-11.04c-.32-1.06-.98-1.55-2.08-1.55h-.34c-.29,0-.47.06-.57.19-.1.13-.12.33-.04.63.05.2.19.2.29.2h.79c.5,0,.8.22.94.67.43,1.39.85,2.79,1.27,4.19.04.14.03.28-.02.39-.05.09-.13.16-.24.19-.05.02-.1.02-.15.02-.19,0-.34-.13-.41-.37l-.18-.59c-.32-1.05-.66-2.13-.96-3.21-.11-.38-.31-.46-.61-.46-1.09,0-2.16.01-3.22.01-.76,0-1.52,0-2.29,0-.41,0-.78-.15-1.03-.41C.1,2.03-.02,1.65,0,1.24.03.77.29.41.78.14c.06-.03.12-.06.18-.09l.08-.04h6.76s.05.06.1.07c1.06.25,1.76.91,2.09,1.97l.27.9c.43,1.43.87,2.85,1.29,4.28.1.33.25.44.6.44,1.77,0,3.54,0,5.3,0h4.08c1.18,0,2.06.43,2.7,1.32.25.35.39.75.5,1.09l.41,1.34c.43,1.41.87,2.81,1.29,4.22.08.28.22.41.5.46,2.17.37,3.64,2.12,3.64,4.33v.46c0,2.43,0,4.87,0,7.3,0,.13.01.27.1.36.09.09.22.1.34.1.19,0,.37,0,.55-.01.22,0,.44-.01.66-.01.36,0,.65.01.92.05.59.07,1.07.54,1.14,1.13.08.66-.26,1.24-.85,1.46-.18.07-.37.1-.59.1-.45,0-.89,0-1.34,0-.37,0-.74,0-1.11,0-.62,0-1.12-.16-1.54-.49-.1-.07-.18-.11-.26-.11-.12,0-.21.08-.27.14-.02.02-.04.03-.06.05-.47.26-.63.6-.56,1.15.07.49-.09.98-.43,1.39-.38.45-.92.73-1.49.76-.03,0-.07,0-.1,0-1.1,0-2.02-.88-2.06-1.96-.03-.86.34-1.51,1.09-1.91.32-.17.64-.26.96-.26.41,0,.81.14,1.2.42.1.07.18.1.26.1.1,0,.2-.05.28-.11.48-.3.61-.62.52-1.21-.1-.64-.08-1.31-.07-1.96,0-.29.01-.58.01-.87v-.17c0-.17,0-.26-.06-.33-.06-.06-.16-.07-.31-.07h-2.6s-.09,0-.13,0c-.21-.02-.47-.11-.46-.44,0-.26.18-.42.47-.42.28,0,.55,0,.83,0h1.27c.08,0,.17,0,.25.01.09,0,.18.01.26.01.11,0,.27-.01.38-.1.18-.15.15-.42.12-.66-.01-.09-.02-.18-.02-.26,0-1.08,0-2.16,0-3.24v-.26c0-1.15-.67-1.82-1.82-1.82h-5.88s-.07.02-.08.05-.01.07.01.1l.24.3c.16.19.31.38.45.56,2,2.65,2.48,6.08,1.29,9.17-1.19,3.09-3.85,5.31-7.11,5.94-.59.11-1.19.17-1.79.17ZM13.34,16.78c-4.91,0-8.78,3.77-8.81,8.58-.01,2.34.87,4.53,2.5,6.19,1.63,1.65,3.8,2.57,6.13,2.59h.05c4.75,0,8.63-3.89,8.66-8.68.02-4.68-3.86-8.66-8.49-8.68h-.05ZM25.66,30.96c-.66,0-1.2.55-1.19,1.21,0,.65.55,1.2,1.2,1.2.68,0,1.2-.54,1.2-1.22,0-.67-.53-1.19-1.19-1.19h-.01ZM26.08,17.87c1.63,0,2.64,1.02,2.64,2.65v8.27c0,1.01.61,1.65,1.6,1.68.36.01.71.01,1.07.01s.71,0,1.07,0h.37c.22,0,.39-.07.5-.19.08-.09.12-.21.11-.33-.04-.48-.47-.48-.61-.48-.38,0-.74,0-1.1,0h-1.25c-.57,0-.75-.18-.75-.76,0-2.72,0-5.45,0-8.17,0-.4-.03-.72-.1-1.01-.39-1.61-1.77-2.69-3.43-2.69-1.1,0-2.2,0-3.3,0h-5.16s-.08.03-.09.07c-.01.04,0,.08.04.11.12.08.23.15.34.21.23.14.43.26.61.4.21.16.44.23.74.23,1.21,0,2.41,0,3.61,0h3.09ZM13.48,12.18c-.12,0-.24,0-.31.09-.06.08-.04.2,0,.31.31.97.61,1.97.92,3.04.08.28.22.38.51.38.91,0,1.81,0,2.7,0h4.92c1.01,0,2.02,0,3.02,0h0c.13,0,.25,0,.31-.09.06-.08.04-.2,0-.31-.3-.94-.62-1.96-.97-3.14-.07-.25-.22-.3-.43-.3-1.82,0-3.63,0-5.45,0s-3.48,0-5.22,0h0ZM12.36,8.52c-.11,0-.22.01-.29.1s-.04.2,0,.31c.22.69.43,1.36.62,2.06.07.27.2.37.49.37.96,0,1.9,0,2.85,0h6.97c.29,0,.57,0,.86,0h0c.11,0,.22-.01.27-.09.06-.08.03-.19,0-.29-.06-.16-.11-.33-.16-.5-.04-.15-.09-.3-.14-.44-.32-.91-1.1-1.49-2.03-1.49-1.91,0-3.82,0-5.73-.01-1.24,0-2.47,0-3.71,0h0ZM4.12,1.87c.2,0,.4,0,.6,0h.32c.08,0,.15,0,.21-.05.07-.07.07-.16.06-.35v-.25c.02-.12,0-.2-.05-.26-.07-.08-.19-.09-.28-.09-.59,0-1.17,0-1.75,0h-1.75c-.47,0-.6.27-.62.5-.01.12.02.24.1.33.11.12.29.19.51.19h1.6s1.05,0,1.05,0Z"/>
      <path class="cls-1" d="M13.15,33.06c-4.16-.01-7.55-3.42-7.54-7.6,0-4.18,3.43-7.59,7.63-7.59,2.02,0,3.91.8,5.35,2.25,1.44,1.44,2.23,3.34,2.22,5.35,0,4.19-3.43,7.59-7.63,7.59h-.03ZM13.72,26.71s-.05,0-.06.02c-.02.02-.03.04-.03.07v1.28c0,1.22,0,2.44,0,3.65,0,.17.03.27.1.34.06.06.13.08.24.08.05,0,.1,0,.16-.01,1.19-.18,2.27-.64,3.23-1.36.1-.07.19-.16.2-.27,0-.11-.08-.21-.17-.3-.75-.74-1.5-1.48-2.24-2.23l-1.07-1.07-.04-.04c-.06-.07-.14-.16-.3-.17,0,0,0,0,0,0ZM12.68,26.63s-.05,0-.07.03l-.83.83c-.97.97-1.91,1.91-2.85,2.85-.05.05-.1.11-.09.19,0,.08.07.14.12.18,1,.8,2.15,1.28,3.4,1.45.04,0,.08,0,.11,0h0c.1,0,.17-.03.22-.08.08-.08.09-.21.09-.31-.01-.53,0-1.07,0-1.6v-.62s0-2.83,0-2.83c0-.04-.02-.07-.06-.09-.01,0-.02,0-.04,0ZM14.47,25.9s-.07.02-.09.06c-.01.03,0,.08.02.1l.9.9c.94.94,1.84,1.84,2.75,2.75.04.04.11.1.19.1.1,0,.17-.09.22-.14.79-.98,1.27-2.14,1.45-3.44.01-.11,0-.19-.05-.25-.07-.08-.18-.08-.25-.08h-5.14ZM6.78,25.9c-.07,0-.16,0-.22.08-.06.07-.06.17-.05.26.14,1.21.6,2.33,1.35,3.33.08.11.17.22.3.22h0c.09,0,.18-.05.29-.17.73-.75,1.47-1.49,2.21-2.23l1.05-1.05s.03-.03.05-.04c.06-.05.14-.12.16-.24,0-.03,0-.07-.04-.09-.03-.03-.06-.06-.11-.06h-2c-1,0-2,0-3-.01h0ZM16.77,25.02c.95,0,1.9,0,2.85,0,.11,0,.19-.03.24-.08.07-.08.06-.18.05-.28-.17-1.25-.64-2.38-1.4-3.36-.07-.09-.15-.18-.26-.18-.1,0-.19.07-.26.15-.88.89-1.77,1.78-2.66,2.66l-.35.35c-.11.11-.23.22-.35.33l-.16.15s-.04.08-.02.12l.05.09s.05.05.08.05h2.19ZM8.16,21.11c-.11,0-.17.09-.23.16-.8,1.02-1.27,2.17-1.42,3.42-.01.09-.01.19.05.25.06.07.15.08.23.08.96,0,3.98,0,3.98,0h1.11s.06-.02.08-.05.02-.06,0-.09l-.04-.07s-.03-.06-.05-.09l-1.04-1.04c-.82-.82-1.64-1.64-2.45-2.46-.08-.08-.15-.12-.22-.12ZM12.53,18.76s-.06,0-.1,0c-1.25.13-2.42.62-3.47,1.45-.05.04-.11.1-.12.18,0,.09.06.15.12.22.39.38.77.77,1.16,1.16l2.49,2.49s.04.03.07.03c.01,0,.02,0,.04,0,.04-.01.06-.05.06-.09v-1.28c0-1.33,0-2.61,0-3.89,0-.1-.02-.17-.07-.21-.06-.06-.15-.06-.18-.06ZM13.96,18.76c-.11,0-.19.03-.25.09-.07.07-.1.19-.1.37.02,1.01.01,2.01.01,3.02v1.87s.03.08.07.09c.02,0,.07.01.12.01.03,0,.05,0,.06-.01l.81-.81c.93-.93,1.85-1.86,2.78-2.78.05-.05.11-.12.1-.21,0-.09-.08-.15-.14-.2-.97-.77-2.07-1.25-3.3-1.43-.06,0-.11-.01-.16-.01Z"/>
    </g>
  </g>
</svg>