<?xml version="1.0" encoding="UTF-8"?>
<svg id="Layer_2" data-name="Layer 2" xmlns="http://www.w3.org/2000/svg" viewBox="0 0 30 30">
  <defs>
    <style>
      .cls-1 {
        fill: #b2bb1e;
      }
    </style>
  </defs>
  <g id="Layer_1-2" data-name="Layer 1">
    <path class="cls-1" d="M22.5,0H7.5C3.36,0,0,3.36,0,7.5v15c0,4.14,3.36,7.5,7.5,7.5h15c4.14,0,7.5-3.36,7.5-7.5V7.5c0-4.14-3.36-7.5-7.5-7.5ZM21.15,13.99c-.16.16-.36.24-.57.24s-.42-.08-.57-.24l-4.21-4.21v11.91c0,.44-.36.8-.8.8s-.8-.36-.8-.8v-11.92l-4.19,4.21c-.15.15-.36.24-.57.24s-.42-.08-.57-.23c-.15-.15-.24-.35-.24-.57,0-.21.08-.42.23-.57l4.8-4.79c.36-.36.84-.56,1.34-.57.51,0,.99.2,1.35.57l4.8,4.79c.31.31.31.82,0,1.13Z"/>
  </g>
</svg>