<?xml version="1.0" encoding="UTF-8"?>
<svg id="Layer_2" data-name="Layer 2" xmlns="http://www.w3.org/2000/svg" viewBox="0 0 20.9 20.8">
  <defs>
    <style>
      .cls-1 {
        fill: #fff;
      }
    </style>
  </defs>
  <g id="Layer_1-2" data-name="Layer 1">
    <path class="cls-1" d="M8.87.12C3.33.99-.55,6.04.06,11.61c.51,4.61,4.06,8.38,8.64,9.15,0-.38.01-.77.01-1.15,0-2.02,0-4.04,0-6.06,0-.16-.04-.2-.2-.2-.75,0-1.49,0-2.24,0-.14,0-.18-.04-.18-.18,0-.86,0-1.73,0-2.59,0-.13.03-.17.17-.17.74,0,1.48,0,2.22,0,.17,0,.23-.03.23-.22,0-.79-.02-1.59.01-2.38.03-.61.18-1.18.45-1.72.56-1.14,1.52-1.66,2.74-1.83.93-.12,1.83,0,2.74.15.09.01.12.05.12.14,0,.74,0,1.48,0,2.22,0,.11-.05.12-.14.12-.43,0-.85.02-1.28.03-.73.03-1.21.42-1.39,1.12-.07.28-.1.56-.1.84,0,.46,0,.91,0,1.37,0,.12.05.15.16.14.82,0,1.63,0,2.45,0,.17,0,.19.04.17.2-.12.86-.24,1.71-.34,2.57-.02.14-.06.19-.21.18-.68,0-1.36,0-2.04,0-.13,0-.18.02-.18.17,0,2.42,0,4.84,0,7.27.05,0,.1,0,.15,0,.15-.02.29-.05.43-.08,5.64-1.14,9.29-6.5,8.27-12.16C19.73,3.05,14.41-.74,8.87.12Z"/>
  </g>
</svg>