<?xml version="1.0" encoding="UTF-8"?>
<svg id="Layer_2" data-name="Layer 2" xmlns="http://www.w3.org/2000/svg" viewBox="0 0 184.3 45">
  <defs>
    <style>
      .cls-1 {
        fill: #fff;
      }
    </style>
  </defs>
  <g id="Layer_1-2" data-name="Layer 1">
    <g>
      <g>
        <g>
          <path class="cls-1" d="M33.08,14.86c-.15-.1-.11-.25-.12-.4,0-.18.05-.39-.02-.55-.15-.33-.16-.69-.21-1.03-.03-.23.07-.51-.3-.55-.02,0-.02-.06-.03-.08-.15-.52-.51-.88-.91-1.21-.11-.09-.24-.1-.34,0-.09.09-.18.17-.1.35.06.14.15.28.22.42.39.77.66,1.56.58,2.43,0,.06.04.14-.05.18-.08.03-.14-.02-.17-.07-.08-.12-.19-.15-.31-.09-.07.03-.13.05-.15-.03-.03-.11-.11-.12-.17-.07-.05.05-.11.16.01.21.11.05.04.15.1.23.33.4.21.88.16,1.32-.04.35-.28.64-.38.98-.06.22-.2.47-.4.67-.19.19-.39.39-.59.57-.31.29-.68.51-1.02.75-.08.06-.19.01-.28.1-.17.16-.4.32-.59.38-.35.09-.69.23-1.02.34-.47.15-.96.13-1.42.29-.38.13-.8.09-1.16.32-.08.05-.28.12-.28-.08,0-.26.09-.52.23-.74.12-.18.28-.33.41-.51.39-.58.82-1.13,1.07-1.8.2-.52.47-1.02.44-1.61,0-.1-.03-.09-.1-.14-.09-.06-.17-.21-.13-.32.05-.14.16-.06.25,0,.09.05.12-.04.17-.07.35-.25.31-.68.36-1.02.07-.46.17-.95.01-1.43-.08-.24-.3-.35-.48-.19-.24.21-.37.49-.42.8-.04.26-.08.55-.16.78-.13.38-.23.79-.28,1.17-.06.45-.32.8-.45,1.2-.17.49-.5.95-.87,1.36-.25.27-.55.5-.7.85-.1.24-.38.37-.45.6-.15.46-.57.74-.72,1.2-.04.11-.01.26-.1.34-.35.33-.33.77-.41,1.18-.01.06-.05.15-.05.19,0,.25-.24.43-.2.68.04.19.14.37.21.55.02.07.12.16-.09.16-.1,0-.2-.03-.27-.02-.19.02-.38-.05-.59.19-.24.28-1.03-.12-1.22-.53-.17-.36-.19-.77-.31-1.14-.03-.1-.11-.14-.16-.21-.04-.04-.08.03-.08.04,0,.08.04.16.05.23.05.26.21.49.18.75-.03.27.07.45.27.62.11.1.33.11.34.32,0,.06.07.01.11.01.19,0,.37,0,.4.26,0,.07.1.15.2.13.06-.01.09-.04.1-.11.04-.21.07-.21.26-.1.22.13.41.36.62.42.24.06.28.18.33.35.02.06.08.14.14.12.05-.01.13-.09.13-.13-.03-.36.12-.71,0-1.07-.02-.07-.07-.07-.1-.04-.14.13-.16-.03-.18-.09-.04-.12.07-.09.14-.11.25-.06.51-.12.57-.43.02-.1.05-.16.16-.18.13-.02.18.08.18.16-.05.55.25,1.07.15,1.63-.04.2.08.33.28.32.16,0,.32.07.43.13.23.12,0,.23-.09.32-.16.15-.3.3-.09.51.06.06.05.16.02.22-.06.15,0,.25.09.36.03.03.07.05.07.13,0,.17.1.32.24.39.22.11.25.31.23.5,0,.07-.02.2-.11.27-.08.06.12.24-.1.24-.15,0-.06-.19-.2-.24-.25-.1-.63-.07-.79.17-.21.29-.33.64-.51.95-.12.22-.06.53-.26.75-.07.08-.01.16.09.21.13.05.12.05.12-.1,0-.18.34-.28.44-.13.05.08.16.16.15.27-.01.1.05.13.11.12.07-.01.19-.06.19-.09-.02-.2.15-.42-.05-.59-.21-.18-.08-.31.06-.39.16-.09.32-.2.53-.14.06.02.16,0,.2-.03.27-.25.55-.5.78-.78.13-.17.27-.23.47-.27.31-.06.63.02.93-.04.1-.02.24,0,.13-.18-.12-.18-.01-.22.16-.25.22-.04.24.14.31.27.08.17.22.06.33.09.04,0,.07.02.07-.07,0-.13-.01-.21-.17-.18-.03,0-.09-.04-.06-.1.08-.13.21-.11.33-.13.14-.02.13.08.15.15.06.18.24.25.4.14.1-.07.16-.21.26-.25.48-.15.76-.55,1.11-.86.13-.12.22-.29.19-.44-.08-.32.12-.53.27-.72.22-.26.24-.57.3-.86.04-.21.08-.43.17-.62.22-.48.22-.97-.01-1.44-.07-.15-.21-.32-.4-.36-.33-.08-.66-.12-1.02-.03-.52.13-1.04.27-1.52.52-.1.05-.32.05-.3.21.02.16-.06.23-.14.33-.11.14.08.25.07.38.06,0,.15.03.17,0,.27-.3.65-.39,1-.53.42-.17.86.06.98.5.05.17.14.39.42.31.24-.07.34.03.35.27.01.41-.05.81-.25,1.18-.14.27-.19.6-.45.81-.23.18-.29.43-.23.72-.18-.06-.3-.06-.45.06-.2.16-.38.35-.64.43-.04.01-.07.05-.12,0-.05-.06.02-.08.04-.11.25-.36.62-.62.94-.88.29-.23.22-.36.14-.59-.04-.12-.05-.25.14-.22.1.02.19-.04.19-.09-.02-.31.21-.51.33-.75.06-.11.03-.23-.06-.27-.18-.07-.37-.08-.55.01-.18.09-.26.21-.19.41.01.04.09.17-.08.18-.17.01-.31.3-.36.48-.05.16.13.25.09.33-.12.23-.18.52-.42.66-.16.09-.35.36-.55.11-.09-.12-.28-.27-.17-.49.04-.08,0-.16-.05-.21-.06-.07-.13-.17-.06-.22.11-.07.17.05.23.14.06.08.05.27.24.21.06-.02.06-.01.09-.24.13.07.25.21.4.09.13-.1.03-.24-.01-.36-.04-.12-.05-.25,0-.36.05-.09.2-.19.08-.26-.16-.08-.34-.26-.51-.18-.25.12-.21-.02-.21-.16,0-.1,0-.2,0-.29-.01-.12-.11-.2-.2-.13-.29.24-.16-.14-.26-.17.08-.09.07-.21-.03-.23-.06-.02-.13.1-.16.2-.04.15-.07.32-.3.36-.14.02-.24.14-.12.36.09.15.17.29.29.41.17.18.16.41.11.62-.05.18-.26.15-.4.13-.32-.04-.56.17-.82.27-.18.07-.26.1-.41-.02-.19-.15-.35-.36-.32-.55.03-.24.22-.46.31-.7.1-.25.39-.41.35-.73.11-.01.01-.37.28-.15.08.07.15-.03.19-.15.1-.31.29-.57.62-.64.13-.03.15-.07.13-.14-.03-.1-.11-.04-.18-.02-.22.05-.36.19-.53.31-.52.39-1.1.71-1.48,1.28-.15.22-.35.43-.62.49-.14.03-.35.1-.46-.05-.08-.11-.17-.24-.07-.44.06-.12.08-.33,0-.52-.21-.46-.09-1.25.3-1.58.05-.04.2-.08.1-.22-.18.11-.33.35-.62.18.09-.09.17-.19.28-.25.09-.05.09-.11.05-.16-.17-.2,0-.32.13-.38.11-.05.14-.13.18-.21.1-.26.24-.45.56-.43.07,0,.13,0,.19-.06.14-.15.33-.18.52-.18.1,0,.2,0,.3-.05.41-.23.89-.18,1.32-.31.19-.06.44,0,.59-.13.11-.11.21-.11.33-.14.2-.05.44,0,.6-.19.23-.28.59-.34.9-.45.16-.06.17-.26.32-.24.29.03.42-.2.55-.37.19-.23.42-.43.65-.59.29-.22.54-.44.73-.74.04-.07.09-.12.15-.17.04.05.12.09.12.14.01.08.02.22-.06.24-.23.06-.18.25-.17.38.01.16-.04.3-.1.43-.04.09-.09.18-.06.28.07.24-.08.4-.24.48-.43.2-.78.47-1.1.83-.15.17-.33.32-.59.12-.1-.08-.24-.07-.34.04-.2.21-.49.23-.74.26-.3.04-.56.16-.81.27-.34.15-.69.23-1.04.32-.27.07-.55.14-.82.19-.39.07-.79.19-1.18.3-.07.02-.16.08-.14.15.05.19-.09.27-.18.38-.03.04-.11.07-.03.13.05.04.08.12.16.04.1-.09.24-.1.36-.16.38-.21.83-.19,1.23-.34.16-.06.42.05.54-.04.27-.19.58-.14.85-.24.24-.1.52-.01.72-.12.49-.25,1.03-.39,1.53-.6.52-.21.99-.5,1.4-.85.5-.41.96-.88,1.27-1.46.23-.44.53-.87.64-1.36.07-.33.22-.65.21-1,0-.26-.05-.52.21-.7-.1-.09.15-.16.02-.25ZM26.61,24.22c0-.08-.07-.18.07-.23.05,0,.27.39.23.44-.02.02-.04.08-.08.05-.09-.08-.21-.13-.22-.26ZM25.91,27.14c.08,0,.19,0,.19.11,0,.14-.14.04-.21.08-.11.07-.16-.04-.16-.09-.01-.11.09-.09.18-.1ZM24.02,25.5c.03-.16.09-.22.2-.23.1.01.13,0,.17.1.05.16.17.3.23.47.03.07.12.13.04.19-.12.09-.2.25-.38.24-.05,0-.13-.07-.12-.11.01-.23-.18-.41-.14-.66ZM23.09,19.96c-.06.07-.12.18-.21.26-.13.11-.16.24-.15.39,0,.07.08.14-.01.19-.03.02-.07,0-.11-.01.07-.13-.2-.16-.09-.31.1-.12.18-.26.28-.38.06-.07.15-.12.15-.24,0-.04.04-.11.11-.08.08.03,0,.09.03.18ZM27.3,21.05c-.15,0-.18-.09-.24-.15.05-.03.11-.06.13-.13.06.04.13.09.19.13-.1,0-.03.14-.08.14ZM28.12,20.8s-.1.03-.13-.02c-.01-.03,0-.11,0-.11.23-.02.31-.38.61-.24-.09.22-.32.25-.48.38ZM31.76,17.68c.03.12,0,.23-.07.34-.03.05-.03.14-.12.12-.1-.02,0-.13-.05-.17-.02-.14.14-.21.11-.36,0-.05.06-.03.09-.03.09,0,.03.06.03.09ZM32.74,15.05c-.04.45-.18.88-.28,1.31-.02.07-.04.15-.06.22-.03.08-.04.16-.14.12-.06-.03-.14-.11-.06-.2.03-.04.04-.09.07-.12.14-.12.15-.22.07-.41-.08-.22,0-.49-.03-.74-.03-.27.02-.54.08-.79.07-.32-.1-.6-.09-.9,0-.11-.09-.25.06-.26.06,0,.21.13.2.29-.01.12.02.23.02.33-.08.41.17.76.14,1.15Z"/>
          <path class="cls-1" d="M21.67,32.98c-.06,0-.16.03-.21.17-.13.43-.34.49-.75.28-.08-.04-.16-.05-.23-.1-.11-.07-.19,0-.24.09-.04.09-.04.28-.17.18-.12-.09-.25.05-.33-.07-.14-.2-.28-.39-.41-.6-.06-.1,0-.2.09-.28.04-.04.13-.06.09-.18-.04-.13-.13-.08-.21-.1-.22-.07-.48-.04-.64-.26-.05-.06-.07-.12-.04-.18.05-.09.12,0,.15-.01.14-.05.35,0,.4-.22-.07-.08-.2.05-.23-.1-.03-.13-.03-.23.08-.32.12-.11.21,0,.3.03.03.01.06.05.09.06.12.04.21.04.28-.11.07-.15-.01-.27-.07-.28-.24-.04-.24-.18-.23-.36,0-.02.07-.11-.03-.13-.06-.01-.12.01-.15.06-.02.03-.11.07-.04.1.13.07.06.12,0,.16-.08.06-.18.02-.2-.05-.04-.13-.21-.25-.11-.38.09-.12.18-.36.43-.2.06.04.23.06.26-.05.06-.19.17-.37.2-.57.05-.31-.17-.57-.16-.86,0-.22-.05-.35-.31-.32-.19.02-.19-.12-.09-.2.12-.11.07-.17-.02-.24-.04-.03-.07-.07-.1-.1-.26-.32-.39-.34-.71-.07-.13.11-.28.05-.31-.12-.02-.11-.05-.26,0-.32.16-.19.02-.29-.09-.35-.14-.07-.34-.07-.46.05-.22.22-.35.27-.62.19-.09-.02-.13-.06-.1-.13.06-.12.04-.33.28-.29.12.02.2-.05.22-.17.02-.12-.04-.21-.16-.23-.11-.03-.17-.06-.19-.19-.06-.3.15-.25.29-.22.15.03.29-.02.44-.01.24,0,.14-.27.24-.35.18-.15.21-.45.51-.47.14,0,.22.06.29.15.1.13.23.04.35.05-.03-.09.09-.25-.12-.26-.08,0-.03-.1-.03-.13-.01-.21,0-.42.01-.63.02-.22.13-.38.37-.37.13,0,.19-.08.22-.17.02-.08.02-.24-.02-.25-.09-.04-.2-.05-.3.01-.2.12-.35.1-.41-.1-.03-.12-.13-.16-.18-.29.06-.05.13-.1.19-.16.16-.13.32-.26.14-.49-.07-.09-.08-.22-.11-.34-.05-.23-.21-.5-.36-.59-.26-.16-.33-.44-.56-.61-.28-.21-.55-.5-.62-.87-.05-.24-.31-.15-.32-.21-.06-.27-.32-.37-.44-.6-.12-.23-.16-.48-.28-.69-.14-.26-.35-.46-.5-.72-.28-.51-.74-.89-1.01-1.39-.16-.3-.44-.47-.6-.76-.07-.11-.27-.31-.39-.25-.13.06.19.16.12.31,0,0,0,.02.02.02.44.19.57.65.83.99.33.43.53.96.8,1.43.19.33.39.66.6.98.12.17.25.32.22.56-.03.22.1.35.28.45.03.02.07.03.09.06.22.28.47.53.63.85.03.05.08.12.04.15-.05.05-.17.1-.19.09-.08-.1-.25-.06-.3-.16-.15-.3-.48-.3-.72-.39-.43-.16-.85-.28-1.18-.65-.07-.08-.29-.42-.53-.09-.01.02-.09,0-.13-.02-.33-.16-.73-.2-1.01-.46-.27-.26-.68-.32-.9-.63-.13-.18-.16-.46-.47-.24,0,0-.03-.02-.04-.03-.14-.22-.41-.28-.58-.46-.31-.32-.62-.63-.61-1.11,0-.08-.02-.06-.06-.08-.15-.08-.26-.19-.34-.36-.09-.19-.06-.3.07-.43.04-.04.03-.14,0-.2-.11-.22-.12-.47-.28-.67-.13-.17.12-.62.35-.64.07,0,.17-.02.16.07-.02.15.05.27.04.41-.02.57.22,1.08.53,1.51.33.47.72.93,1.17,1.31.19.16.37.34.61.41.23.24.54.35.83.47.05.02.08.08.13.01.07-.1,0-.11-.07-.13-.32-.09-.56-.32-.86-.45-.01-.02-.02-.06-.04-.07-.36-.27-.69-.57-1-.89-.31-.32-.53-.69-.77-1.05-.24-.37-.32-.8-.34-1.23,0-.23.04-.46.07-.68.04-.32.21-.58.31-.86.06-.17.04-.26-.05-.36-.19-.21-.19-.5-.06-.73.21-.36.53-.61.8-.91.15-.17.16-.41.06-.58-.07-.14-.29-.07-.42,0-.1.05-.14.17-.25.24-.2.13-.46.21-.6.38-.2.24-.4.48-.56.74-.15.25-.33.48-.47.73-.11.2-.28.47-.21.62.13.33,0,.62-.06.88-.09.36.03.65.08.96.06.35.18.7.29,1.04.12.4.28.81.54,1.11.31.35.62.72.99,1.02.33.27.67.54,1.04.72.44.22.85.5,1.32.67.5.18.98.41,1.45.65.31.16.62.33.95.44.23.08.33.35.52.38.4.05.67.36,1.03.49.05.02.16.08.12.17-.07.15.04.25.07.37.02.11.07.22.05.33-.07.34-.12.69-.21,1.03-.05.18-.02.38-.13.54,0,0-.14-.02-.13.06,0,.11.12.06.17.06.12,0,.18.02.19.16.01.18-.12.07-.18.1-.04.02-.09,0-.13.03-.11.07-.39-.08-.35-.17.14-.28-.08-.3-.23-.4-.08-.05-.13-.14-.19-.21-.31-.41-.52-.9-.95-1.21-.11-.08-.03-.32-.25-.3-.07.14,0,.23.1.32.09.09.1.2-.05.22-.07,0-.11.03-.1.07,0,.05.06.04.13.04.18-.01.49.3.48.47-.02.25.08.41.31.47.11.03.26.16.26.17-.13.3.19.44.26.67.1.34,0,.52-.22.7-.09.07-.23.17-.31-.05-.03-.07-.09-.12-.22-.11-.28.02-.49-.2-.68-.36-.16-.14-.34-.23-.46-.04-.04.05-.08.08-.09.06-.17-.21-.53-.1-.66-.39-.04-.09-.09-.04-.15,0-.2.17-.22.41-.02.69.04.06.09.17.19.13.11-.04.09-.14.06-.23-.04-.17.1-.33.19-.24.19.19.43.18.64.27.35.15.58.46.85.72.11.11.07.29-.04.29-.2.01-.14.12-.13.23.05-.02.09-.04.13-.07.09-.05.15-.06.18.06.03.1.04.28-.06.25-.19-.06-.38.1-.5.01-.17-.13-.34-.04-.5-.08-.06-.02-.22-.08-.22.09,0,.14.14.09.21.07.37-.08.57.16.79.38.07.07.05.16.13.23.22.21.4.46.58.71.16.23.22.5.3.73.18.49.13,1.06.36,1.54.11.22.1.43.1.66,0,.18-.02.37.06.54.14.29.27.59.4.89.05.11.12.23.11.34-.03.62.21,1.2.22,1.8.01.35.07.69-.06,1.06-.06.18-.25.35-.19.55.08.23-.08.31-.2.35-.16.06-.16.1-.08.21.09.13.04.31-.07.3-.36-.03-.47.39-.81.39-.07,0-.13.46-.08.45.17-.03.29.08.44.11.41.06.81.06,1.22.05.17,0,.41.08.36-.26,0-.04.06-.09.1-.13.18-.2.46-.36.82-.48.04-.01.07-.06.07-.12,0-.09.01-.18.03-.28.01-.09-.05-.21.1-.23.16-.02.1.11.11.18,0,.07.02.13.08.14.07.02.14-.07.14-.11.01-.24.1-.55-.02-.71-.21-.29-.02-.27.15-.29.12-.01.16-.08.18-.17,0-.03.02-.08-.05-.07-.18.04-.27-.15-.44-.16-.1,0-.14-.12-.13-.23,0-.13.11-.11.19-.11.21.01.43-.04.63-.08.15-.03.41-.03.42-.32,0-.06.08-.2.15-.24.28-.13.34-.26.04-.44-.02,0-.03-.03-.04-.04-.03-.04-.11-.07-.03-.13.04-.03.06-.13.15-.04.1.09.2.04.29-.05.19-.16.16-.41.25-.61.01-.02-.01-.09-.01-.15,0-.1-.06-.21-.14-.22ZM18.62,28.83c.11.02.1.18.08.22-.08.15-.21-.02-.32,0,.06-.11.09-.26.24-.22ZM18.29,29.01s-.08.1-.11.06c-.05-.06-.15-.12-.08-.21.05-.07.01-.15.05-.23.18.09.18.23.14.38ZM18.54,33.45c-.06.02-.1-.04-.13-.09-.13-.18-.02-.76.2-.93,0,.31,0,.6,0,.88,0,.06-.01.13-.07.14Z"/>
          <path class="cls-1" d="M12.24,24.04c.05-.15-.18-.16-.13-.34.1-.36.03-.56-.31-.74-.2-.11-.25-.28-.31-.45-.04-.1.15-.38.25-.39.28-.03.58-.31.66-.57.04-.13-.04-.19-.09-.2-.32-.05-.63-.24-.96-.02-.09.06-.16-.01-.16-.12,0-.19.09-.3.28-.28.1.01.19.03.29-.04.07-.06.18-.04.28,0,.04.02.06.13.11.03.03-.05,0-.09-.08-.12-.35-.17-.72-.09-1.05.2-.09.08-.14.18-.13.25.02.56-.02,1.12.11,1.68.06.28.2.55.22.84.02.37.13.68.48.92-.05-.14-.03-.24-.08-.36-.05-.13-.08-.31.18-.3.15,0,.29,0,.43,0Z"/>
          <path class="cls-1" d="M14.19,15.12c.3.31.58.63.88.94.24.25.4.55.6.81.37.47.57,1.02.87,1.52.08.13.19.21.26.33.21.33.41.66.68.94.26.27.55.5.74.84.16.3.39.56.58.84.03.04-.02.15.1.11.08-.03.03-.15.03-.15-.2-.42-.42-.83-.71-1.2-.2-.25-.46-.45-.68-.69-.26-.28-.52-.58-.62-.97-.07-.25-.38-.37-.33-.67-.27-.02-.28-.23-.33-.42-.13-.46-.55-.72-.76-1.13-.1-.21-.33-.34-.45-.56-.09-.16-.25-.31-.36-.44-.22-.25-.59-.36-.9-.53.07.23.27.3.4.43Z"/>
          <path class="cls-1" d="M23.92,36.81s-.02-.09-.03-.13c-.12-.38-.06-.84-.51-1.07-.11.1-.1.1-.13.46-.02.24.06.45.16.65.07.14.11.28.05.44-.07.18-.08.33.13.48.1.07.22.08.31.16.05.04-.02.21.12.12.04-.02-.02-.15-.02-.22,0-.17-.23-.32-.04-.51.13-.13.37-.29-.03-.39Z"/>
          <path class="cls-1" d="M22.84,31.27c.08-.06.16-.13.08-.24-.06-.09-.13-.06-.23-.04-.22.05-.35.22-.46.37-.09.12-.27.04-.33.24-.07.24-.14.46-.07.71-.14.14.08.16.08.24.01.16.12.24.24.2.15-.05.17-.19.14-.37-.06-.35.03-.69.27-.96.07-.07.18-.1.26-.16Z"/>
          <path class="cls-1" d="M21.18,28.84c-.08.02-.13.03-.11.12,0,.03.03.08.06.09.07.02.12-.02.16-.07.13-.17.27-.31.5-.33.05,0,.14-.11.14-.17,0-.3.21-.49.38-.67.19-.2-.14-.24-.04-.37-.09-.04-.19-.05-.27,0-.11.1-.2.24-.33.13-.26,0-.32.12-.19.42.07.16.14.3,0,.43-.12.12-.12.34-.31.39Z"/>
          <path class="cls-1" d="M20.17,25.12c.1-.01.15-.05.13-.11-.01-.04-.1-.11-.19-.08-.25.12-.5.18-.77.16-.12-.01-.06.13-.05.14.11.33.25.64.44.93.06.09.14.17.26.13.11-.03.14-.13.16-.24.03-.15-.03-.27-.11-.38-.1-.14-.03-.54.13-.56Z"/>
          <path class="cls-1" d="M13.84,21.9c-.14.03-.28-.08-.39-.19-.18-.19-.42-.26-.69-.35-.02.02-.06.06-.08.11-.02.06.02.08.08.12.2.13.51.06.62.35.14.36.5.37.79.45.13.04.29,0,.4.12.06.07.14.06.22,0-.04-.05.14-.19-.07-.18-.04,0-.08-.09-.13-.11-.25-.1-.42-.39-.75-.32Z"/>
          <path class="cls-1" d="M23.32,35.34c.13-.03.08-.17.1-.27.04-.28-.15-.51-.17-.78-.01-.24.03-.5-.07-.74-.02-.06-.01-.11-.09-.15-.08-.04-.1.02-.14.04-.13.06-.06.21-.16.29-.17.13-.03.31.07.31.15,0,.13.11.14.15.02.12.06.25.02.38-.09.19.13.34.07.54,0,.02.07.27.23.24Z"/>
          <path class="cls-1" d="M14.45,26.15c-.22-.12-.45-.21-.66-.34-.34-.2-.66-.43-.99-.64-.12-.07-.18-.03-.19.11,0,.18.12.25.26.31.19.08.38.15.56.25.31.18.57.46.96.51.08,0,.16.05.2-.03.05-.1-.07-.14-.13-.17Z"/>
          <path class="cls-1" d="M24.71,37.62c-.09-.08-.2-.18-.25.05-.01.05-.07.09-.11.13-.14.19-.08.47.12.58.07.04.13.04.18-.02.07-.07-.02-.09-.04-.13-.02-.04-.04-.1-.07-.11-.11-.06,0-.12,0-.15.03-.06.08-.01.11.02.06.05.14.1.16.17.1.24.28.28.49.25-.13-.33-.36-.56-.6-.78Z"/>
          <path class="cls-1" d="M13.65,24.09c.12.14.08-.05.13-.07.23-.09.19-.35.3-.52.17-.26,0-.44-.13-.63-.04-.05-.09-.09-.15-.06-.06.03-.04.11-.03.17.02.13.06.26.09.39-.03.17-.08.36-.21.48-.1.1-.05.17,0,.24Z"/>
          <path class="cls-1" d="M13.19,26.28c-.15-.01-.17-.19-.26-.23-.31-.15-.49-.42-.68-.67-.06-.08-.18-.09-.2-.17-.1,0-.16.04-.1.1.12.13.17.31.32.43.2.17.36.38.56.55.08.07.21.1.32.15.02,0,.07,0,.05-.03-.03-.05,0-.12,0-.12Z"/>
          <path class="cls-1" d="M21.81,29.45c-.08-.05-.08.05-.11.08-.08.06-.1.23-.26.16-.04.16-.32.26-.19.43.15.2.18-.1.29-.13.03,0,.07,0,.08-.02.1-.12.19-.24.26-.33.02-.11-.02-.15-.07-.18Z"/>
          <path class="cls-1" d="M25.81,25.11c.12-.02.29.14.35-.03.05-.16-.12-.21-.25-.24,0,0-.02-.01-.02-.02.02-.19-.12-.1-.17-.08-.12.04-.21.13-.25.25.06.22.25.13.35.11Z"/>
          <path class="cls-1" d="M19.64,38.04c-.01-.1-.03-.21-.03-.32,0-.08-.07-.08-.12-.1-.11-.03-.05.06-.07.1-.06.15,0,.31-.02.47-.01.14,0,.13.13.11.2-.03.06-.17.11-.26Z"/>
          <path class="cls-1" d="M25.87,24.19c0-.08-.06-.22-.14-.2-.13.03-.27.14-.31.27-.04.13.13.06.19.11.11-.03.27-.01.26-.18Z"/>
          <path class="cls-1" d="M15.86,19.9c.08.03.11-.07.16-.13-.1.04-.07-.12-.19-.1-.07.02-.19,0-.25-.09-.03-.04-.08-.1-.13-.02-.02.04-.03.1.04.14.12.06.24.15.36.2Z"/>
          <path class="cls-1" d="M23.75,30.71c.1-.08.08-.18.01-.26-.17-.18-.16.1-.28.12.1.04.1.27.27.14Z"/>
          <path class="cls-1" d="M21.82,25.43c0-.21-.17-.04-.31-.14.12.17.1.35.25.37.1.01.07-.16.07-.22Z"/>
          <path class="cls-1" d="M15.2,22.37s.05-.06.05-.06c-.12-.12-.24-.23-.45-.19.1.16.26.18.4.25Z"/>
          <path class="cls-1" d="M14.68,21.94c-.06-.09-.14-.13-.23-.16,0,0-.06.06-.05.06.07.08.12.2.25.21.04,0,.08,0,.15,0-.06-.05-.1-.07-.12-.09Z"/>
          <path class="cls-1" d="M21.57,35.83c.01-.09-.08-.12-.13-.17-.04.05-.09.1-.13.15.06.05.1.14.2.14.12,0,0-.08.06-.12Z"/>
        </g>
        <g>
          <path class="cls-1" d="M7.25,31.41l-.29,2.24c-.02.18-.05.37-.09.57-.03.2-.07.38-.1.54h.01c.1-.09.2-.19.31-.28.11-.09.21-.18.3-.26l1.26-1.07.62.72-2.98,2.54-.5-.58.25-1.96c.02-.14.04-.3.07-.48.03-.18.06-.35.09-.49h-.01c-.17.15-.35.32-.54.48l-1.12.95-.62-.72,3.01-2.56.31.36Z"/>
          <path class="cls-1" d="M5.49,28.38l-.58.65.59,1.15.86-.11.41.8-4.21.44-.3-.58,2.8-3.18.43.84ZM3.81,30.18s-.09.09-.14.14c-.05.05-.1.1-.16.15h0c.07,0,.14-.02.21-.03.07-.01.14-.02.2-.03l.83-.11-.38-.73-.57.61Z"/>
          <path class="cls-1" d="M1.47,26.34l3.04-.85.26.92-3.04.86.32,1.14-.73.2-.9-3.19.73-.21.32,1.13Z"/>
          <path class="cls-1" d="M4.19,23.97l-3.88.51-.12-.94,3.88-.51.12.94Z"/>
          <path class="cls-1" d="M2.14,18.23c.31.02.6.09.84.22.25.13.46.3.62.5.17.2.29.44.38.69.08.26.12.52.11.79-.01.27-.07.53-.18.78-.11.25-.26.47-.44.65-.19.19-.41.33-.67.44-.26.11-.55.15-.86.14-.31-.01-.59-.09-.84-.22-.25-.13-.45-.3-.62-.5-.17-.2-.29-.43-.38-.69-.08-.26-.12-.52-.11-.79.01-.27.07-.53.18-.78.11-.25.25-.47.44-.65.19-.19.41-.33.67-.44.26-.11.54-.15.85-.14ZM2.1,19.19c-.18,0-.35.01-.5.07-.15.06-.28.14-.39.24-.11.1-.2.22-.26.36-.06.13-.1.27-.11.42,0,.15.01.29.07.43.05.14.13.27.23.38.1.11.22.2.37.27.14.07.31.11.49.12.18,0,.35-.01.5-.07.15-.06.28-.13.4-.24.11-.1.2-.22.26-.35.06-.13.1-.27.11-.42,0-.15-.01-.29-.07-.43-.05-.14-.13-.27-.23-.38-.1-.11-.22-.21-.37-.28-.15-.07-.31-.11-.49-.12Z"/>
          <path class="cls-1" d="M5.19,14.91l-2.04.96c-.17.08-.34.16-.52.23-.18.08-.35.15-.51.21h0c.14.05.27.08.41.12.14.04.26.08.38.11l1.58.49-.28.91-3.74-1.15.23-.73,1.79-.84c.13-.06.27-.13.44-.2.17-.07.32-.14.46-.19h0c-.23-.07-.46-.14-.7-.21l-1.41-.43.28-.91,3.78,1.16-.14.46Z"/>
          <path class="cls-1" d="M6.76,11.8l-.86-.13-.63,1.12.57.66-.44.78-2.69-3.27.32-.57,4.19.58-.46.82ZM4.34,11.39c-.06-.01-.13-.02-.2-.04-.07-.02-.14-.03-.21-.05h0c.05.06.1.11.15.16.05.05.09.1.13.15l.55.63.4-.72-.82-.14Z"/>
          <path class="cls-1" d="M7.48,10.79l-2.96-2.56.62-.72,2.34,2.03,1.03-1.19.62.53-1.65,1.91Z"/>
          <path class="cls-1" d="M11.29,7.08l-.11-.2-.06-2.19c0-.17,0-.35,0-.56,0-.2,0-.38,0-.54h0s-1.29.75-1.29.75l-.41-.7,2.41-1.4.11.2.06,2.2c0,.18.01.36.01.56,0,.2,0,.38,0,.53h0s1.44-.83,1.44-.83l.41.7-2.55,1.49Z"/>
          <path class="cls-1" d="M17.4,2.29c.1.3.13.59.09.87-.04.28-.12.53-.25.76-.13.23-.31.43-.52.6-.21.17-.45.29-.7.38-.26.08-.52.12-.79.1-.27-.01-.53-.08-.77-.19-.24-.11-.45-.27-.64-.47-.19-.21-.33-.46-.43-.76-.09-.3-.12-.58-.09-.86.04-.28.12-.53.25-.76.13-.23.3-.42.52-.59.21-.17.45-.29.7-.38.26-.08.52-.12.79-.1.27.01.53.08.77.18.24.11.46.26.65.47.19.21.33.46.43.75ZM16.49,2.59c-.06-.18-.14-.32-.24-.44-.11-.12-.23-.22-.36-.28-.14-.07-.28-.11-.43-.12-.15-.01-.29,0-.43.05-.14.04-.27.12-.38.21-.11.1-.2.21-.27.35-.07.13-.11.28-.13.44s0,.33.06.5c.06.18.14.32.24.45.11.12.23.22.36.29.13.07.27.11.42.12.15.01.29,0,.43-.05.14-.04.27-.12.38-.21.11-.1.2-.21.28-.35.07-.13.11-.28.13-.44.01-.16,0-.33-.06-.51Z"/>
          <path class="cls-1" d="M22.36,1.93c.02.31-.03.6-.13.86-.1.26-.25.48-.44.67-.19.19-.4.34-.65.45-.25.11-.51.17-.78.19-.27.01-.53-.02-.79-.1-.26-.08-.49-.21-.69-.37-.2-.17-.37-.37-.5-.62-.13-.25-.21-.53-.22-.84-.02-.31.03-.6.13-.85.1-.26.25-.48.43-.67.18-.19.4-.33.65-.44.25-.11.51-.17.78-.19.27-.01.53.02.79.1.26.08.49.21.7.37.21.17.37.37.51.62.13.25.21.53.22.84ZM21.4,1.98c0-.18-.05-.35-.12-.49-.07-.14-.16-.27-.28-.37-.11-.1-.24-.18-.38-.23-.14-.05-.28-.07-.43-.06-.15,0-.29.04-.42.11-.13.06-.25.15-.35.26-.1.11-.18.24-.23.39-.06.15-.08.32-.07.5,0,.18.05.35.12.49.07.15.16.27.27.37.11.1.24.18.38.23.14.05.28.07.43.06.15,0,.29-.04.42-.11.13-.06.25-.15.35-.26.1-.11.18-.24.24-.4.06-.15.08-.32.07-.5Z"/>
          <path class="cls-1" d="M22.87,4.01l.61-3.87.94.15-.48,3.06,1.55.25-.13.81-2.49-.39Z"/>
          <path class="cls-1" d="M30.15,4.05c-.11.29-.27.54-.47.73-.2.19-.43.34-.67.43-.25.1-.51.14-.78.14-.27,0-.53-.05-.78-.15-.25-.1-.48-.24-.68-.42-.2-.18-.36-.39-.48-.63-.12-.24-.19-.49-.21-.77-.02-.28.03-.57.14-.86.11-.29.27-.53.47-.73.2-.19.43-.34.67-.43.24-.09.5-.14.77-.14.27,0,.53.05.78.15.25.1.48.24.68.42.2.18.36.39.48.62.12.23.19.49.21.77.02.28-.03.56-.14.85ZM29.25,3.71c.07-.17.1-.34.09-.5,0-.16-.04-.31-.1-.45-.06-.14-.15-.26-.26-.36-.11-.1-.23-.18-.37-.23-.14-.05-.28-.08-.43-.07-.15,0-.29.04-.43.1-.14.06-.26.15-.37.26-.11.11-.2.26-.27.43s-.1.34-.09.5.04.31.1.45c.06.14.15.26.25.36.11.1.23.18.37.23.14.05.28.08.43.07.15,0,.29-.04.43-.1.14-.06.27-.15.38-.27.11-.12.2-.26.27-.43Z"/>
          <path class="cls-1" d="M31.39,7.36c-.22-.15-.41-.34-.58-.56-.16-.22-.28-.46-.35-.72-.07-.26-.08-.53-.04-.81.04-.28.16-.56.35-.83.19-.28.41-.48.66-.62.25-.14.51-.22.77-.24.27-.02.53,0,.79.08.26.07.5.18.71.33.22.16.41.32.55.49.14.17.24.33.3.48l-.54.64c-.05-.16-.14-.31-.25-.47-.12-.15-.26-.29-.44-.41-.15-.1-.3-.18-.46-.22-.16-.04-.32-.05-.48-.03-.16.02-.31.08-.45.17-.15.09-.27.21-.38.37-.11.15-.17.31-.21.47-.03.16-.03.32,0,.47.03.15.1.3.19.43.09.13.21.25.36.36.18.13.35.2.5.21l.32-.45-.58-.41.42-.6,1.3.91-1.03,1.48c-.43.03-.91-.14-1.42-.5Z"/>
          <path class="cls-1" d="M33.02,8.57l2.73-2.8.68.66-2.73,2.8-.68-.66Z"/>
          <path class="cls-1" d="M38.37,10.34c0-.12-.04-.26-.09-.41-.05-.15-.14-.31-.27-.48-.11-.14-.23-.26-.37-.35-.14-.09-.29-.15-.44-.17s-.31-.02-.48.02c-.16.04-.32.11-.46.22-.15.11-.26.24-.34.38-.08.14-.13.29-.14.45-.02.16,0,.32.05.48.05.16.13.32.24.47.13.17.26.31.39.41.13.1.26.18.38.22l-.73.45c-.12-.05-.24-.13-.37-.24-.13-.11-.27-.26-.41-.45-.16-.21-.27-.44-.36-.69-.08-.26-.12-.52-.1-.78.02-.27.09-.52.22-.78.13-.25.33-.48.6-.68.27-.2.54-.33.82-.38.28-.05.55-.05.81,0,.26.06.5.16.72.31.22.15.41.33.57.53.15.2.26.38.34.56.08.18.12.33.14.47l-.7.44Z"/>
          <path class="cls-1" d="M37.32,14.77l.61-.62-.55-1.17-.87.07-.38-.81,4.23-.28.28.59-2.92,3.07-.4-.86ZM39.08,13.04s.09-.09.15-.14c.05-.05.11-.1.16-.14h0c-.07,0-.14.02-.21.02-.07,0-.14.02-.2.02l-.83.08.35.74.59-.59Z"/>
          <path class="cls-1" d="M37.75,15.91l3.79-.97.23.92-3,.77.39,1.52-.79.2-.62-2.44Z"/>
          <path class="cls-1" d="M41.13,24.27c-.18-.01-.35-.06-.49-.14-.14-.08-.26-.18-.35-.3-.09-.12-.16-.26-.2-.42-.04-.16-.06-.32-.05-.49l.04-.52-1.54-.12.07-.91,3.9.3-.11,1.43c-.01.17-.05.33-.12.47-.07.15-.15.28-.26.39-.11.11-.24.19-.39.25s-.32.08-.5.06ZM41.19,23.36c.15.01.26-.03.34-.13.08-.1.12-.21.13-.33l.03-.39-.87-.07-.03.39c0,.12.02.24.08.34.06.11.17.17.32.18Z"/>
          <path class="cls-1" d="M37.69,26.79l.87-.08.35-1.24-.71-.51.24-.86,3.39,2.54-.18.63-4.21.42.25-.91ZM40.14,26.62c.06,0,.13,0,.2,0,.07,0,.14,0,.22,0h0c-.06-.05-.12-.08-.19-.12-.06-.04-.12-.08-.17-.11l-.68-.48-.22.79.83-.06Z"/>
          <path class="cls-1" d="M36.23,29.98l1.85-.23.16-.3-1.37-.71.42-.81,3.47,1.8-.67,1.3c-.08.15-.18.28-.29.39-.12.11-.25.19-.39.25-.14.06-.3.08-.46.08-.16,0-.33-.05-.49-.14-.21-.11-.36-.25-.46-.44-.1-.18-.14-.37-.14-.55l-2.13.3.49-.94ZM38.88,30.8c.13.07.25.07.36.02.11-.06.19-.14.25-.25l.19-.36-.78-.4-.19.36c-.06.11-.08.22-.06.35.01.12.09.22.23.29Z"/>
          <path class="cls-1" d="M34.33,32.63l2,.09-1.26-1.01.59-.74,3.05,2.45-.6.74-1.31-1.05.56,1.99-.65.81-.66-2.28-2.42-.13.69-.86Z"/>
        </g>
        <g>
          <path class="cls-1" d="M11.5,45l-1.24-1.36c-.1-.11-.2-.23-.31-.35-.11-.13-.2-.24-.29-.35h-.01c0,.12.01.23.01.35,0,.12,0,.23,0,.33v1.35h-.78v-3.19h.63l1.08,1.19c.08.08.16.18.26.3.1.12.18.22.26.31h.01c-.01-.2-.01-.39-.01-.6v-1.2h.78v3.23h-.39Z"/>
          <path class="cls-1" d="M12.57,44.96v-3.19h1.86v.64h-1.09v.64h.89v.65h-.89v.64h1.23v.64h-2Z"/>
          <path class="cls-1" d="M18.22,44.98h-.5l-.47-1.41c-.04-.11-.07-.22-.11-.33-.03-.11-.07-.24-.11-.38h-.01c-.04.14-.07.27-.11.38-.03.11-.07.22-.11.33l-.47,1.41h-.5l-1.07-3.21h.75l.42,1.29c.03.1.06.2.09.3.03.11.05.22.08.34h.01c.03-.12.05-.23.08-.34.03-.1.06-.21.09-.31l.42-1.29h.67l.42,1.29c.03.09.05.19.08.3.03.11.06.23.08.35h.01c.02-.12.05-.23.08-.34.03-.11.06-.21.09-.3l.43-1.29h.7l-1.07,3.21Z"/>
          <path class="cls-1" d="M23.75,43.37c0,.25-.05.47-.14.67-.09.2-.22.36-.37.5-.16.14-.34.24-.55.32-.21.07-.43.11-.66.11h-1.08v-3.19h1.08c.23,0,.45.04.66.11.21.07.39.18.55.32.16.14.28.3.37.5.09.2.14.42.14.67ZM22.98,43.37c0-.15-.03-.29-.08-.41-.06-.12-.13-.21-.22-.29-.09-.08-.2-.14-.33-.18-.12-.04-.26-.06-.4-.06h-.24v1.86h.24c.14,0,.27-.02.4-.06.12-.04.23-.1.33-.18.09-.08.17-.18.22-.29.06-.12.08-.25.08-.41Z"/>
          <path class="cls-1" d="M24.33,44.96v-3.19h1.86v.64h-1.09v.64h.89v.65h-.89v.64h1.23v.64h-2Z"/>
          <path class="cls-1" d="M26.83,44.96v-3.19h.78v2.53h1.28v.67h-2.06Z"/>
          <path class="cls-1" d="M31.34,44.96v-1.27h-1.23v1.27h-.78v-3.19h.78v1.26h1.23v-1.26h.78v3.19h-.78Z"/>
          <path class="cls-1" d="M32.84,44.96v-3.19h.78v3.19h-.78Z"/>
        </g>
      </g>
      <g>
        <path class="cls-1" d="M52.95,7.64h2.03c.81,0,1.09.24,1.39.71l5.49,9.14c0-2.59,0-5.18,0-7.77.03-.34-.04-.73-.89-1.43-.05-.04-.1-.07-.14-.11-.06-.06-.1-.14-.1-.23,0-.17.14-.32.32-.32h2.52c.17,0,.32.14.32.32,0,.09-.04.17-.1.23-.04.04-.09.06-.14.11-.85.7-.89,1.09-.89,1.43v9.11c.2.28.42.49.73.68.18.11.41.15.41.41,0,.17-.14.32-.32.32h-1.7c-1.1,0-1.6-.38-2.04-1.15l-5.16-8.59c0,2.56,0,5.11,0,7.66,0,.34.04.73.89,1.43.05.04.1.07.14.11.06.06.1.14.1.23,0,.17-.14.32-.32.32h-2.52c-.17,0-.32-.14-.32-.32,0-.09.04-.17.1-.23.04-.04.09-.06.14-.11.85-.7.92-1.09.89-1.43,0-2.91,0-5.82,0-8.73,0-.42-.14-.57-.28-.72-.13-.13-.27-.24-.45-.35-.18-.11-.41-.15-.41-.41,0-.17.13-.31.3-.32h.02Z"/>
        <path class="cls-1" d="M68.68,10.93c1.36.32,2.51,1.38,3.06,3.41.12.44.21,1,.3,1.49l.28,1.47c.07.4.14.69.21,1.06.19.78.38.99.78,1.29.09.06.15.15.15.27,0,.17-.14.32-.32.32h-1.6c-.79,0-1.22-.5-1.4-.79-.04-.06-.07-.12-.1-.2-.72.69-1.66,1.28-2.79,1.28-1.25,0-2.35-.56-2.47-1.95-.1-1.2.74-2.08,1.6-2.89.82-.77,1.77-1.49,2.3-2.37-.24-.45-.52-.75-.85-.93-.71-.39-1.72-.28-2.39.39-.08.12-.24.18-.38.12-.13-.05-.21-.19-.19-.32.01-.11.08-.19.12-.29.45-.81,1.28-1.28,2.19-1.42.51-.08,1-.06,1.53.06ZM67.43,16.44c-.43.75-.42,1.31-.13,1.74.61.91,1.79.8,2.56.01l-.11-.63-.27-1.44c-.13-.75-.27-1.37-.43-1.88-.55.8-1.29,1.64-1.61,2.2Z"/>
        <path class="cls-1" d="M76.56,9.42c.11.03.19.12.21.22.01.06.01.12.01.18,0,.62,0,1.23,0,1.84h1.1c.09,0,.15,0,.24.01.19.05.33.22.33.43,0,.2-.13.36-.3.42-.07.02-.15.02-.24.02h-1.13v4.75c0,2.06,1.19,1.95,1.9,1.55.05-.03.1-.04.16-.04.17,0,.32.14.32.32,0,.09-.03.16-.09.22-.62.8-1.63,1.09-2.58,1.09-1.02,0-2.28-.68-2.28-2.62v-2.66c0-1.83.02-2.03-.14-2.32-.19-.33-.52-.22-.73-.31-.06-.03-.12-.07-.16-.12-.07-.08-.11-.18-.11-.29,0-.12.05-.22.12-.3.04-.04.09-.07.14-.11l2.9-2.18c.09-.07.19-.12.33-.09Z"/>
        <path class="cls-1" d="M83.34,11.01c.13.02.22.12.25.25,0,.04,0,.09,0,.13v3.7s0,3.08,0,3.08c0,.34.04.73.89,1.43.05.04.1.07.14.11.06.06.1.14.1.23,0,.17-.14.32-.32.32h-4.21c-.17,0-.32-.14-.32-.32,0-.09.04-.17.1-.23.04-.04.09-.06.14-.11.85-.7.89-1.09.89-1.43v-2.95c0-1.5-.37-2.23-.98-2.69-.09-.06-.15-.16-.15-.27,0-.11.05-.2.13-.26.07-.05.16-.07.23-.11l2.9-.86s.09-.02.14-.02c.02,0,.03,0,.05,0ZM82.89,7.62c.43.28.72.76.72,1.31,0,.86-.7,1.56-1.56,1.56s-1.56-.7-1.56-1.56c0-.62.36-1.15.88-1.4.23-.11.45-.16.67-.16.28,0,.57.09.85.25Z"/>
        <path class="cls-1" d="M91.46,10.79c2.03.57,3.53,2.52,3.53,4.82,0,2.76-2.14,5-4.78,5s-4.78-2.24-4.78-5c0-2.28,1.46-4.2,3.45-4.8.41-.12.83-.18,1.26-.19.43,0,.87.05,1.31.17ZM88.16,12.05c-.98.57-.85,2.62.28,4.58,1.13,1.96,2.85,3.1,3.82,2.53.98-.57.85-2.61-.28-4.58-.92-1.59-2.26-2.69-3.27-2.68-.21,0-.39.05-.55.14Z"/>
        <path class="cls-1" d="M103.19,11.05c1.21.21,2.21,1.06,2.42,2.7.04.32.04.7.04,1.06,0,1.11,0,2.23,0,3.35,0,.34.04.73.89,1.43.05.04.1.07.14.11.06.06.1.14.1.23,0,.17-.14.32-.32.32h-4.21c-.17,0-.32-.14-.32-.32,0-.09.04-.17.1-.23.04-.04.09-.06.14-.11.85-.7.89-1.09.89-1.43v-3.73c0-1.95-2.39-2.48-3.36-1.32-.13.16-.24.38-.32.6v4.45c0,.34.04.73.89,1.43.05.04.1.07.14.11.06.06.1.14.1.23,0,.17-.14.32-.32.32h-4.21c-.17,0-.32-.14-.32-.32,0-.09.04-.17.1-.23.04-.04.09-.06.14-.11.85-.7.89-1.09.89-1.43v-2.95c0-1.5-.37-2.23-.98-2.69-.09-.06-.15-.16-.15-.27,0-.11.05-.2.13-.26.07-.05.16-.07.23-.11l2.9-.86c.06-.02.13-.03.19-.02.12.02.22.12.25.25,0,.04,0,.09,0,.13v.9c.74-.7,1.7-1.14,2.65-1.26.38-.05.75-.04,1.15.02Z"/>
        <path class="cls-1" d="M111.59,10.93c1.36.32,2.51,1.38,3.06,3.41.12.44.21,1,.3,1.49l.28,1.47c.07.4.14.69.21,1.06.19.78.38.99.78,1.29.09.06.15.15.15.27,0,.17-.14.32-.32.32h-1.6c-.79,0-1.22-.5-1.4-.79-.04-.06-.07-.12-.1-.2-.72.69-1.66,1.28-2.79,1.28-1.25,0-2.35-.56-2.47-1.95-.1-1.2.74-2.08,1.6-2.89.82-.77,1.77-1.49,2.3-2.37-.24-.45-.52-.75-.85-.93-.71-.39-1.72-.28-2.39.39-.08.12-.24.18-.38.12-.13-.05-.21-.19-.19-.32.01-.11.08-.19.12-.29.45-.81,1.28-1.28,2.19-1.42.51-.08,1-.06,1.53.06ZM110.34,16.44c-.43.75-.42,1.31-.13,1.74.61.91,1.79.8,2.56.01l-.11-.63-.27-1.44c-.13-.75-.27-1.37-.43-1.88-.55.8-1.29,1.64-1.61,2.2Z"/>
        <path class="cls-1" d="M120.36,6.76c.06-.02.12-.03.18-.01.11.03.2.11.23.22.01.05.01.11.01.17,0,2.65,0,5.3,0,7.94v3.08c0,.34.04.73.89,1.43.05.04.1.07.14.11.06.06.1.14.1.23,0,.17-.14.32-.32.32h-4.21c-.17,0-.32-.14-.32-.32,0-.09.04-.17.1-.23.04-.04.09-.06.14-.11.85-.7.89-1.09.89-1.43v-7.19c0-1.51-.37-2.24-.98-2.7-.09-.06-.15-.16-.15-.27,0-.11.05-.2.13-.26.07-.05.16-.07.23-.11l2.79-.83s.09-.03.13-.04Z"/>
        <path class="cls-1" d="M53.55,24.75s.07,0,.1,0h7.68c.06,0,.14,0,.21.02.12.04.21.16.21.3,0,.06-.01.11-.04.15l-5.72,11.25h2.34c1.44,0,2.19-.78,2.81-2.3.05-.12.16-.2.29-.2.14,0,.26.1.3.23.01.04.01.1.01.15v2.59c0,.06,0,.11,0,.17-.02.12-.11.21-.22.24-.06.01-.12.01-.19.01-2.7,0-5.41,0-8.11,0-.03,0-.07,0-.11,0-.15-.03-.26-.15-.26-.31,0-.06.01-.11.04-.15l5.72-11.25h-1.77c-1.63,0-2.62.67-3.51,2.18-.04.07-.08.14-.12.21-.06.07-.15.12-.25.12-.16,0-.29-.11-.31-.26,0-.05,0-.11.01-.16l.64-2.7c.02-.12.11-.22.22-.25.01,0,.03,0,.04,0Z"/>
        <path class="cls-1" d="M69.19,27.89c2.03.57,3.53,2.52,3.53,4.82,0,2.76-2.14,5-4.78,5s-4.78-2.24-4.78-5c0-2.28,1.46-4.2,3.45-4.8.41-.12.83-.18,1.26-.19.43,0,.87.05,1.31.17ZM65.89,29.15c-.98.57-.85,2.62.28,4.58,1.13,1.96,2.85,3.1,3.82,2.53.98-.57.85-2.61-.28-4.58-.92-1.59-2.26-2.69-3.27-2.68-.21,0-.39.05-.55.14Z"/>
        <path class="cls-1" d="M80.35,27.89c2.03.57,3.53,2.52,3.53,4.82,0,2.76-2.14,5-4.78,5s-4.78-2.24-4.78-5c0-2.28,1.46-4.2,3.45-4.8.41-.12.83-.18,1.26-.19.43,0,.87.05,1.31.17ZM77.05,29.15c-.98.57-.85,2.62.28,4.58,1.13,1.96,2.85,3.1,3.82,2.53.98-.57.85-2.61-.28-4.58-.92-1.59-2.26-2.69-3.27-2.68-.21,0-.39.05-.55.14Z"/>
        <path class="cls-1" d="M87.69,23.86c.06-.02.12-.03.18-.01.11.03.2.11.23.22.01.05.01.11.01.17,0,2.65,0,5.3,0,7.94v3.08c0,.34.04.73.89,1.43.05.04.1.07.14.11.06.06.1.14.1.23,0,.17-.14.32-.32.32h-4.21c-.17,0-.32-.14-.32-.32,0-.09.04-.17.1-.23.04-.04.09-.06.14-.11.85-.7.89-1.09.89-1.43v-7.19c0-1.51-.37-2.24-.98-2.7-.09-.06-.15-.16-.15-.27,0-.11.05-.2.13-.26.07-.05.16-.07.23-.11l2.79-.83s.09-.03.13-.04Z"/>
        <path class="cls-1" d="M95.99,27.89c2.03.57,3.53,2.52,3.53,4.82,0,2.76-2.14,5-4.78,5s-4.78-2.24-4.78-5c0-2.28,1.46-4.2,3.45-4.8.41-.12.83-.18,1.26-.19.43,0,.87.05,1.31.17ZM92.69,29.15c-.98.57-.85,2.62.28,4.58,1.13,1.96,2.85,3.1,3.82,2.53.98-.57.85-2.61-.28-4.58-.92-1.59-2.26-2.69-3.27-2.68-.21,0-.39.05-.55.14Z"/>
        <path class="cls-1" d="M105.82,27.33c.5-1.19,1.74-2.03,2.86-1.62.22.08.39.25.53.48.15.29.16.65-.02.96-.17.29-.45.46-.76.5h0c-.05,0-.1,0-.16,0-.64.02-1.17,0-1.69.43,1.65.53,2.82,1.98,2.82,3.68,0,2.16-1.89,3.9-4.23,3.9-.81,0-1.58-.21-2.22-.58-.67.6.59,1.02,2.67,1.65,1.85.56,3.53,1.5,3.53,3.08-.02.85-.4,1.45-1,1.85-.96.63-2.09.73-3.38.73s-3.71-.61-3.71-2.42c0-.69.41-1.51,1.22-1.88-.79-.46-1.05-.87-1.18-1.35-.21-.77.13-1.42.76-1.94.06-.05.23-.17.36-.26-.79-.71-1.28-1.7-1.28-2.8,0-1.74,1.23-3.21,2.93-3.71.3-.09.59-.14.92-.17.27-.02.55-.02.84,0,.04-.17.1-.36.17-.55ZM105.64,41.52c1.04,0,1.97-1.34-.97-2.38-.68-.24-1.23-.46-1.68-.67-1.05,1.54.59,3.05,2.65,3.05ZM104.11,29.02c-.16,0-.31.05-.44.13-.79.46-.76,2,.07,3.44.83,1.44,2.15,2.24,2.95,1.79.79-.46.76-2-.07-3.44-.66-1.14-1.64-1.9-2.43-1.91-.03,0-.05,0-.08,0Z"/>
        <path class="cls-1" d="M113.4,28.11c.13.02.22.12.25.25,0,.04,0,.09,0,.13v3.7s0,3.08,0,3.08c0,.34.04.73.89,1.43.05.04.1.07.14.11.06.06.1.14.1.23,0,.17-.14.32-.32.32h-4.21c-.17,0-.32-.14-.32-.32,0-.09.04-.17.1-.23.04-.04.09-.06.14-.11.85-.7.89-1.09.89-1.43v-2.95c0-1.5-.37-2.23-.98-2.69-.09-.06-.15-.16-.15-.27,0-.11.05-.2.13-.26.07-.05.16-.07.23-.11l2.9-.86s.09-.02.14-.02c.02,0,.03,0,.05,0ZM112.95,24.72c.43.28.72.76.72,1.31,0,.86-.7,1.56-1.56,1.56s-1.56-.7-1.56-1.56c0-.62.36-1.15.88-1.4.23-.11.45-.16.67-.16.28,0,.57.09.85.25Z"/>
        <path class="cls-1" d="M123.54,28.97c.72,1.02.55,2.42-.53,2.95-.24.12-.55.23-.82.15-.24-.08-.42-.31-.42-.58,0-.21.1-.38.1-.6.17-1.81-1.66-2.57-3.02-1.7-1.23.81-1.69,3.09-.14,4.8,1.5,1.64,4.87,2.13,6.02-.46.04-.08.06-.18.11-.26.06-.09.15-.15.27-.15.14,0,.26.09.3.22.02.07.01.15,0,.23-.07,1.16-1.23,2.5-1.36,2.63-.91.93-2.17,1.51-3.57,1.51-2.76,0-5-2.24-5-5,0-2.55,1.91-4.65,4.37-4.96.2-.02.4-.04.6-.04,1.36,0,2.52.47,3.07,1.25Z"/>
        <path class="cls-1" d="M130.04,28.03c1.36.32,2.51,1.38,3.06,3.41.12.44.21,1,.3,1.49l.28,1.47c.07.4.14.69.21,1.06.19.78.38.99.78,1.29.09.06.15.15.15.27,0,.17-.14.32-.32.32h-1.6c-.79,0-1.22-.5-1.4-.79-.04-.06-.07-.12-.1-.2-.72.69-1.66,1.28-2.79,1.28-1.25,0-2.35-.56-2.47-1.95-.1-1.2.74-2.08,1.6-2.89.82-.77,1.77-1.49,2.3-2.37-.24-.45-.52-.75-.85-.93-.71-.39-1.72-.28-2.39.39-.08.12-.24.18-.38.12-.13-.05-.21-.19-.19-.32.01-.11.08-.19.12-.29.45-.81,1.28-1.28,2.19-1.42.51-.08,1-.06,1.53.06ZM128.79,33.54c-.43.75-.42,1.31-.13,1.74.61.91,1.79.8,2.56.01l-.11-.63-.27-1.44c-.13-.75-.27-1.37-.43-1.88-.55.8-1.29,1.64-1.61,2.2Z"/>
        <path class="cls-1" d="M138.81,23.86c.06-.02.12-.03.18-.01.11.03.2.11.23.22.01.05.01.11.01.17,0,2.65,0,5.3,0,7.94v3.08c0,.34.04.73.89,1.43.05.04.1.07.14.11.06.06.1.14.1.23,0,.17-.14.32-.32.32h-4.21c-.17,0-.32-.14-.32-.32,0-.09.04-.17.1-.23.04-.04.09-.06.14-.11.85-.7.89-1.09.89-1.43v-7.19c0-1.51-.37-2.24-.98-2.7-.09-.06-.15-.16-.15-.27,0-.11.05-.2.13-.26.07-.05.16-.07.23-.11l2.79-.83s.09-.03.13-.04Z"/>
        <path class="cls-1" d="M148.58,24.74h1.64c2.3,0,4.52.92,4.52,3.26,0,1.45-1.01,2.81-2.57,3.8-.96.6-2.19.88-3.22,1.52-.13.08-.26.19-.37.28v1.65c0,.34.04.73.89,1.43.05.04.1.07.14.11.06.06.1.14.1.23,0,.17-.14.31-.32.31h-4.21c-.17,0-.32-.14-.32-.31,0-.09.04-.17.1-.23.04-.04.09-.06.14-.11.85-.7.89-1.09.89-1.43v-8.44c0-.34-.04-.73-.89-1.43-.05-.04-.1-.07-.14-.11-.06-.06-.1-.14-.1-.23,0-.17.14-.31.32-.31h3.39ZM148.58,26.82v5.7c.56-.34,1.21-.56,1.8-.9,1.57-.89,1.86-2.49,1.79-3.61-.11-1.75-1.24-2.39-2.84-2.39h-.75v1.2Z"/>
        <path class="cls-1" d="M159.19,28.03c1.36.32,2.51,1.38,3.06,3.41.12.44.21,1,.3,1.49l.28,1.47c.07.4.14.69.21,1.06.19.78.38.99.78,1.29.09.06.15.15.15.27,0,.17-.14.32-.32.32h-1.6c-.79,0-1.22-.5-1.4-.79-.04-.06-.07-.12-.1-.2-.72.69-1.66,1.28-2.79,1.28-1.25,0-2.35-.56-2.47-1.95-.1-1.2.74-2.08,1.6-2.89.82-.77,1.77-1.49,2.3-2.37-.24-.45-.52-.75-.85-.93-.71-.39-1.72-.28-2.39.39-.08.12-.24.18-.38.12-.13-.05-.21-.19-.19-.32.01-.11.08-.19.12-.29.45-.81,1.28-1.28,2.19-1.42.51-.08,1-.06,1.53.06ZM157.93,33.54c-.43.75-.42,1.31-.13,1.74.61.91,1.79.8,2.56.01l-.11-.63-.27-1.44c-.13-.75-.27-1.37-.43-1.88-.55.8-1.29,1.64-1.61,2.2Z"/>
        <path class="cls-1" d="M168.07,28.1s.03,0,.05,0c.13.02.22.12.25.25,0,.04,0,.09,0,.13v.45c.53-.46,1.26-.71,1.88-.83.94-.18,2.95.16,2.95,2.15,0,.59-.56,1.07-1.15,1.07-1.74,0-1.22-2.19-2.77-1.82-.54.13-.79.57-.87,1.08-.06.35-.04,1.07-.04,1.6v3.08c0,.34.04.73.89,1.43.05.04.1.07.14.11.06.06.1.14.1.23,0,.17-.14.32-.32.32h-4.21c-.17,0-.32-.14-.32-.32,0-.09.04-.17.1-.23.04-.04.09-.06.14-.11.85-.7.89-1.09.89-1.43v-2.95c0-1.5-.37-2.23-.98-2.69-.09-.06-.15-.16-.15-.27,0-.11.05-.2.13-.26.07-.05.16-.07.23-.11l2.9-.86s.09-.02.14-.02h0Z"/>
        <path class="cls-1" d="M176.62,23.84s.03,0,.04,0c.11.02.2.11.23.22.01.05.01.11.01.17,0,2.65,0,5.3,0,7.94v.14l.36-.29,1.84-1.49c.94-.76,1.08-1.55.79-1.85-.03-.03-.06-.05-.08-.08-.04-.05-.06-.12-.06-.19,0-.17.14-.31.32-.31h3.15c.17,0,.32.14.32.31,0,.13-.08.24-.19.29-.02,0-.05.02-.07.02-.72.22-1.68.99-2.72,1.82l-1.43,1.13c.86-.03,1.48.41,1.87,1l1.21,1.86c.48.75,1,1.53,1.61,1.27.05-.03.11-.05.17-.05.17,0,.32.14.32.32,0,.05-.01.1-.03.14-.21.58-1,1.12-1.88,1.12-1.17,0-1.87-.72-2.63-1.86l-1.18-1.82c-.43-.67-.9-.74-1.24-.56l-.42.34v1.81c0,.34.04.73.89,1.43.05.04.1.07.14.11.06.06.1.14.1.23,0,.17-.14.32-.32.32h-4.21c-.17,0-.32-.14-.32-.32,0-.09.04-.17.1-.23.04-.04.09-.06.14-.11.85-.7.89-1.09.89-1.43v-7.19c0-1.51-.37-2.24-.98-2.7-.09-.06-.15-.16-.15-.27,0-.11.05-.2.13-.26.07-.05.16-.07.23-.11l2.79-.83s.09-.03.13-.04c.04-.01.09-.02.13-.02h0Z"/>
      </g>
    </g>
  </g>
</svg>