<?xml version="1.0" encoding="UTF-8"?>
<svg id="Layer_2" data-name="Layer 2" xmlns="http://www.w3.org/2000/svg" viewBox="0 0 20.86 20.86">
  <defs>
    <style>
      .cls-1 {
        fill: #fff;
      }
    </style>
  </defs>
  <g id="Layer_1-2" data-name="Layer 1">
    <path class="cls-1" d="M10.43,0C4.67,0,0,4.67,0,10.43s4.67,10.43,10.43,10.43,10.43-4.67,10.43-10.43S16.19,0,10.43,0ZM15.9,13.26c0,1.46-1.18,2.64-2.64,2.64h-5.66c-1.46,0-2.64-1.18-2.64-2.64v-5.66c0-1.46,1.18-2.64,2.64-2.64h5.66c1.46,0,2.64,1.18,2.64,2.64v5.66ZM13.07,5.9h-5.28c-1.04,0-1.89.85-1.89,1.89v5.28c0,1.04.85,1.89,1.89,1.89h5.28c1.04,0,1.89-.85,1.89-1.89v-5.28c0-1.04-.85-1.89-1.89-1.89ZM10.44,13.26c-1.56,0-2.83-1.27-2.83-2.83s1.27-2.83,2.83-2.83,2.83,1.27,2.83,2.83-1.27,2.83-2.83,2.83ZM13.45,7.98c-.31,0-.57-.25-.57-.57s.25-.57.57-.57.57.25.57.57-.25.57-.57.57ZM12.32,10.43c0,1.04-.85,1.89-1.89,1.89s-1.89-.85-1.89-1.89.85-1.89,1.89-1.89,1.89.85,1.89,1.89Z"/>
  </g>
</svg>