<?xml version="1.0" encoding="UTF-8"?>
<svg id="Layer_2" data-name="Layer 2" xmlns="http://www.w3.org/2000/svg" viewBox="0 0 87.5 30">
  <defs>
    <style>
      .cls-1 {
        fill: #fff;
      }

      .cls-2 {
        fill: #b2bb1e;
      }
    </style>
  </defs>
  <g id="Layer_1-2" data-name="Layer 1">
    <g>
      <rect class="cls-2" width="87.5" height="30" rx="7.5" ry="7.5"/>
      <g>
        <path class="cls-1" d="M21.6,19.2l-1.84-3.2h-1v3.2h-1.31v-7.99h2.76c.61,0,1.13.11,1.56.32.43.21.74.5.95.86s.32.76.32,1.21c0,.52-.15,1-.45,1.42-.3.43-.77.72-1.4.87l1.98,3.31h-1.56ZM18.76,14.97h1.45c.49,0,.86-.12,1.11-.37.25-.25.37-.58.37-1s-.12-.76-.37-1.01c-.25-.24-.62-.36-1.12-.36h-1.45v2.74Z"/>
        <path class="cls-1" d="M30.48,16.48h-4.85c.04.53.23.95.56,1.26.34.31.75.46,1.25.46.71,0,1.2-.29,1.5-.88h1.41c-.19.58-.54,1.06-1.04,1.43-.5.37-1.12.56-1.87.56-.61,0-1.15-.14-1.63-.41-.48-.27-.86-.66-1.13-1.15-.27-.49-.41-1.07-.41-1.72s.13-1.22.4-1.72c.26-.49.64-.88,1.12-1.14.48-.27,1.03-.4,1.65-.4s1.13.13,1.6.39.83.62,1.09,1.09c.26.47.39,1,.39,1.61,0,.22-.02.43-.05.62ZM29.16,15.53c0-.51-.18-.92-.51-1.22-.33-.3-.75-.45-1.26-.45-.46,0-.85.15-1.18.45s-.52.71-.57,1.22h3.52Z"/>
        <path class="cls-1" d="M31.77,14.32c.26-.49.62-.87,1.08-1.14.46-.27.96-.41,1.51-.41.5,0,.93.1,1.31.29s.67.44.89.73v-.92h1.32v6.34h-1.32v-.94c-.22.3-.53.55-.91.75-.38.2-.82.3-1.31.3-.54,0-1.04-.14-1.5-.42-.45-.28-.81-.67-1.08-1.17s-.4-1.07-.4-1.71.13-1.2.4-1.69ZM36.29,14.89c-.18-.32-.42-.57-.71-.74-.29-.17-.61-.25-.94-.25s-.65.08-.94.25c-.29.17-.53.41-.71.72-.18.32-.27.7-.27,1.13s.09.82.27,1.15c.18.33.42.58.71.75.29.17.61.26.94.26s.65-.08.94-.25c.29-.17.53-.42.71-.74.18-.33.27-.71.27-1.14s-.09-.82-.27-1.14Z"/>
        <path class="cls-1" d="M39.57,14.31c.26-.49.63-.88,1.1-1.14.47-.27,1-.4,1.61-.4.77,0,1.4.18,1.9.55s.84.88,1.02,1.56h-1.41c-.12-.31-.3-.56-.55-.74-.25-.18-.57-.26-.96-.26-.54,0-.96.19-1.28.57-.32.38-.48.91-.48,1.59s.16,1.21.48,1.6c.32.38.75.57,1.28.57.76,0,1.26-.33,1.51-1h1.41c-.18.64-.53,1.16-1.04,1.54-.51.38-1.13.57-1.89.57-.61,0-1.14-.14-1.61-.41-.47-.27-.83-.66-1.1-1.15-.26-.49-.4-1.07-.4-1.72s.13-1.22.4-1.72Z"/>
        <path class="cls-1" d="M51.08,13.07c.38.21.68.51.9.92.22.41.33.9.33,1.47v3.74h-1.3v-3.54c0-.57-.14-1-.43-1.31-.28-.3-.67-.45-1.16-.45s-.88.15-1.17.45c-.29.3-.43.74-.43,1.31v3.54h-1.31v-8.51h1.31v2.91c.22-.27.5-.48.84-.62s.71-.22,1.12-.22c.48,0,.92.1,1.29.31Z"/>
        <path class="cls-1" d="M58.72,11.21v5.07c0,.61.16,1.06.48,1.37.32.31.76.46,1.33.46s1.02-.15,1.34-.46c.32-.31.48-.76.48-1.37v-5.07h1.31v5.07c0,.65-.14,1.2-.43,1.66s-.66.79-1.14,1.01-1,.33-1.58.33-1.1-.11-1.57-.33c-.47-.22-.85-.56-1.12-1.01-.28-.45-.41-1-.41-1.66v-5.07h1.31Z"/>
        <path class="cls-1" d="M66.31,19.04c-.39-.18-.7-.42-.93-.74-.23-.31-.35-.66-.37-1.04h1.36c.02.29.15.53.39.72.23.19.53.29.88.29s.65-.07.86-.22c.2-.15.3-.35.3-.6,0-.23-.12-.41-.34-.53-.23-.12-.59-.25-1.07-.37-.47-.13-.85-.25-1.14-.37s-.55-.3-.76-.55-.32-.57-.32-.97c0-.35.1-.66.29-.95.19-.29.47-.52.83-.68.36-.17.79-.25,1.28-.25.72,0,1.3.18,1.74.55.44.36.68.86.71,1.49h-1.31c-.02-.31-.14-.55-.34-.73-.21-.18-.49-.27-.84-.27s-.61.07-.79.21c-.18.14-.28.33-.28.57,0,.17.06.31.18.43.12.12.28.21.46.27.18.07.44.14.78.24.46.12.84.25,1.13.37.29.12.54.31.75.56s.31.57.31.97c0,.36-.1.68-.29.97-.19.29-.47.51-.83.68-.36.17-.8.25-1.29.25s-.93-.09-1.32-.27Z"/>
      </g>
    </g>
  </g>
</svg>