<?xml version="1.0" encoding="UTF-8"?>
<svg id="Layer_2" data-name="Layer 2" xmlns="http://www.w3.org/2000/svg" viewBox="0 0 100 30">
  <defs>
    <style>
      .cls-1 {
        fill: #fff;
      }

      .cls-2 {
        fill: #b2bb1e;
      }
    </style>
  </defs>
  <g id="Layer_1-2" data-name="Layer 1">
    <g>
      <rect class="cls-2" width="100" height="30" rx="7.5" ry="7.5"/>
      <g>
        <g>
          <path class="cls-1" d="M31.43,19.17c-.43-.19-.77-.45-1.01-.8-.25-.34-.37-.75-.37-1.21h1.4c.03.36.17.66.41.89.24.23.58.34,1.02.34s.8-.11,1.06-.34c.25-.23.38-.52.38-.88,0-.27-.08-.49-.24-.66-.16-.17-.35-.3-.59-.39-.23-.09-.56-.19-.97-.3-.52-.14-.95-.28-1.27-.42-.33-.14-.6-.36-.83-.66-.23-.3-.34-.7-.34-1.2,0-.46.11-.86.34-1.21.23-.34.55-.61.97-.79.41-.18.89-.28,1.44-.28.77,0,1.41.19,1.9.58.49.39.77.92.82,1.59h-1.45c-.02-.31-.16-.58-.41-.79s-.58-.32-1.01-.32c-.38,0-.69.1-.93.29-.23.2-.35.49-.35.87,0,.25.07.45.22.6.15.16.34.28.57.37.23.09.54.19.94.3.53.15.96.29,1.29.44.33.15.62.37.85.67.23.3.35.71.35,1.21,0,.41-.11.79-.33,1.15-.22.36-.54.65-.96.87s-.91.33-1.48.33c-.54,0-1.02-.09-1.45-.28Z"/>
          <path class="cls-1" d="M42.93,13.04v6.34h-1.31v-.75c-.21.26-.48.46-.81.62-.33.15-.69.22-1.06.22-.5,0-.94-.1-1.34-.31-.4-.21-.71-.51-.93-.92-.23-.41-.34-.9-.34-1.47v-3.73h1.3v3.53c0,.57.14,1,.43,1.3.28.3.67.45,1.16.45s.88-.15,1.17-.45c.29-.3.43-.74.43-1.3v-3.53h1.31Z"/>
          <path class="cls-1" d="M46.88,13.23c.39-.2.82-.29,1.29-.29.56,0,1.07.13,1.52.4.45.27.81.65,1.07,1.14.26.5.39,1.06.39,1.7s-.13,1.21-.39,1.71-.62.89-1.08,1.17c-.46.28-.96.42-1.51.42-.49,0-.93-.1-1.31-.29-.38-.19-.68-.44-.9-.74v.92h-1.31v-8.51h1.31v3.12c.22-.31.53-.56.91-.75ZM49.54,15.05c-.18-.32-.42-.56-.71-.72-.3-.16-.61-.25-.95-.25s-.64.08-.94.25c-.3.17-.53.41-.71.74-.18.32-.27.7-.27,1.14s.09.82.27,1.14c.18.33.42.57.71.74.29.17.61.25.94.25s.65-.09.95-.26c.29-.17.53-.42.71-.75.18-.33.27-.71.27-1.15s-.09-.81-.27-1.13Z"/>
          <path class="cls-1" d="M53.4,19.21c-.39-.18-.7-.42-.93-.74-.23-.31-.35-.66-.37-1.04h1.36c.02.29.15.53.39.72.23.19.53.29.88.29s.65-.07.86-.22c.2-.15.3-.35.3-.6,0-.23-.12-.41-.34-.53-.23-.12-.59-.25-1.07-.37-.47-.13-.85-.25-1.14-.37s-.55-.3-.76-.55-.32-.57-.32-.97c0-.35.1-.66.29-.95.19-.29.47-.52.83-.68.36-.17.79-.25,1.28-.25.72,0,1.3.18,1.74.55.44.36.68.86.71,1.49h-1.31c-.02-.31-.14-.55-.34-.73-.21-.18-.49-.27-.84-.27s-.61.07-.79.21c-.18.14-.28.33-.28.57,0,.17.06.31.18.43.12.12.28.21.46.27.18.07.44.14.78.24.46.12.84.25,1.13.37.29.12.54.31.75.56s.31.57.31.97c0,.36-.1.68-.29.97-.19.29-.47.51-.83.68-.36.17-.8.25-1.29.25s-.93-.09-1.32-.27Z"/>
          <path class="cls-1" d="M58.55,14.48c.26-.49.63-.88,1.1-1.14.47-.27,1-.4,1.61-.4.77,0,1.4.18,1.9.55s.84.88,1.02,1.56h-1.41c-.12-.31-.3-.56-.55-.74-.25-.18-.57-.26-.96-.26-.54,0-.96.19-1.28.57-.32.38-.48.91-.48,1.59s.16,1.21.48,1.6c.32.38.75.57,1.28.57.76,0,1.26-.33,1.51-1h1.41c-.18.64-.53,1.16-1.04,1.54-.51.38-1.13.57-1.89.57-.61,0-1.14-.14-1.61-.41-.47-.27-.83-.66-1.1-1.15-.26-.49-.4-1.07-.4-1.72s.13-1.22.4-1.72Z"/>
          <path class="cls-1" d="M67.56,13.25c.32-.21.7-.32,1.13-.32v1.36h-.33c-.51,0-.9.13-1.17.39-.26.26-.4.71-.4,1.36v3.33h-1.31v-6.34h1.31v1.1c.19-.38.45-.68.76-.89Z"/>
          <path class="cls-1" d="M69.97,11.96c-.16-.16-.24-.36-.24-.6s.08-.44.24-.6.36-.24.6-.24.43.08.59.24.24.36.24.6-.08.44-.24.6c-.16.16-.36.24-.59.24s-.44-.08-.6-.24ZM71.22,13.04v6.34h-1.31v-6.34h1.31Z"/>
          <path class="cls-1" d="M75.17,13.23c.39-.2.82-.29,1.29-.29.56,0,1.07.13,1.52.4.45.27.81.65,1.07,1.14.26.5.39,1.06.39,1.7s-.13,1.21-.39,1.71-.62.89-1.08,1.17c-.46.28-.96.42-1.51.42-.49,0-.93-.1-1.31-.29-.38-.19-.68-.44-.9-.74v.92h-1.31v-8.51h1.31v3.12c.22-.31.53-.56.91-.75ZM77.83,15.05c-.18-.32-.42-.56-.71-.72-.3-.16-.61-.25-.95-.25s-.64.08-.94.25c-.3.17-.53.41-.71.74-.18.32-.27.7-.27,1.14s.09.82.27,1.14c.18.33.42.57.71.74.29.17.61.25.94.25s.65-.09.95-.26c.29-.17.53-.42.71-.75.18-.33.27-.71.27-1.15s-.09-.81-.27-1.13Z"/>
          <path class="cls-1" d="M86.5,16.65h-4.85c.04.53.23.95.56,1.26.34.31.75.46,1.25.46.71,0,1.2-.29,1.5-.88h1.41c-.19.58-.54,1.06-1.04,1.43-.5.37-1.12.56-1.87.56-.61,0-1.15-.14-1.63-.41-.48-.27-.86-.66-1.13-1.15-.27-.49-.41-1.07-.41-1.72s.13-1.22.4-1.72c.26-.49.64-.88,1.12-1.14.48-.27,1.03-.4,1.65-.4s1.13.13,1.6.39.83.62,1.09,1.09c.26.47.39,1,.39,1.61,0,.22-.02.43-.05.62ZM85.18,15.71c0-.51-.18-.92-.51-1.22-.33-.3-.75-.45-1.26-.45-.46,0-.85.15-1.18.45s-.52.71-.57,1.22h3.52Z"/>
        </g>
        <g>
          <path class="cls-1" d="M19.33,19.94h-2.1c-.15,0-.28.12-.28.28,0,.03,0,.06.01.09.24.73,1.03,1.12,1.76.88.41-.14.74-.46.88-.88.05-.15-.03-.3-.18-.35-.03,0-.06-.01-.09-.01Z"/>
          <path class="cls-1" d="M23.53,18.31l-1.43-1.17v-3.37c0-1.77-1.22-3.3-2.93-3.73v-.41c0-.49-.4-.89-.89-.89-.49,0-.89.4-.89.89,0,0,0,0,0,0v.4c-1.72.41-2.94,1.96-2.95,3.73v3.36h0l-1.29,1.21c-.28.38.03.89.54.89h9.34c.53,0,.83-.54.52-.92Z"/>
        </g>
      </g>
    </g>
  </g>
</svg>