<?xml version="1.0" encoding="UTF-8"?>
<svg id="Layer_2" data-name="Layer 2" xmlns="http://www.w3.org/2000/svg" viewBox="0 0 37.7 40">
  <defs>
    <style>
      .cls-1 {
        fill: #fff;
      }
    </style>
  </defs>
  <g id="Layer_1-2" data-name="Layer 1">
    <path class="cls-1" d="M16.48,7.53h0s0,0,0,0h0ZM13.77,8.2h0s0,0,0,0h0ZM17.17,7.26h0s0,0,0,0h0ZM33.35,20.05h0c-.06.06-.09.13-.1.21-.02.03-.04.06-.06.09-.22.17-.42.16-.61-.05h0s-.03-.07-.05-.1c0-.03-.02-.07-.03-.1,0-.03,0-.05-.03-.06h0c-.01-.1,0-.21-.06-.31,0-.03,0-.07-.01-.1-.02-.39-.03-.78-.07-1.16-.02-.24,0-.48-.08-.72,0-.05,0-.1-.01-.15-.08-.85-.24-1.68-.56-2.48,0-.03-.01-.05-.02-.08-.01-.02-.02-.04-.03-.06h0c-.09-.29-.18-.58-.38-.83h0c0-.06-.01-.12-.08-.14v-.02c-.03-.12-.07-.23-.18-.3h0c0-.07-.03-.13-.09-.16-.03-.05-.06-.1-.09-.15-.1-.15-.18-.32-.34-.43h0c-.25-.4-.59-.73-.91-1.07-.21-.22-.44-.43-.67-.64h0s0,0,0,0c0,0,0,0,0,0-.22-.08-.34-.31-.57-.37h0c-.24-.19-.49-.35-.78-.42h0s-.03-.04-.06-.03c-.03-.01-.07-.02-.1-.03-.22-.12-.47-.18-.71-.23-.49-.11-.59,0-.46.48.21.79.64,1.47,1.11,2.13h0c.3.48.63.94,1,1.37,0,.01,0,.03.02.03.25.34.48.69.8.96h0c.47.67,1.02,1.28,1.58,1.87h0c.06.17.27.26.29.48-1.33-.91-2.82-1.53-4.16-2.4-.34-.29-.73-.51-1.02-.85h0s-.03,0-.05,0c-.09-.1-.17-.19-.26-.29-.61-.62-1.14-1.31-1.68-1.99-1.04-1.3-2.4-2.01-4.04-2.21-.79-.1-1.57-.06-2.34.2-.61.15-1.15.44-1.66.79-.28.19-.55.4-.82.6-.02.04-.04.08-.07.1-1.28,1.12-2.24,2.48-2.97,4.01-.7,1.46-1.48,2.87-2.55,4.11-.44.51-.89,1.02-1.24,1.6-.2.17-.28.44-.48.62h0c-.23.36-.46.73-.69,1.09-.02-.02-.04-.04-.06-.06,0-.57.02-1.14.14-1.71.16-.75.44-1.45.84-2.11.05-.08.09-.17.13-.25h0s.04-.03.04-.06c.01,0,.02-.02.02-.04.38-.6.7-1.24,1-1.89.02-.04.03-.07.05-.11.52-.99.93-2.03,1.28-3.16-.48.26-.89.47-1.3.69-.02,0-.03,0-.04.02-.14,0-.2.06-.15.21.09.23.11.48.15.72,0,.07,0,.14,0,.21-.03.13-.05.25-.08.38-.06.3-.23.49-.53.59-.26.08-.51.18-.73.34-.15.11-.21.25-.15.43.09.25.18.51.27.76-.3.07-.61.1-.92.08-.33-.03-.54-.19-.67-.49-.09-.22-.18-.43-.18-.67-.01,0-.03,0-.04-.01h0s-.09,0-.14,0c-.12-.32-.19-.64-.17-.98,0-.04.02-.08.02-.12.05-.18.09-.41-.06-.51-.24-.16-.13-.31-.08-.49.04-.11.08-.23.12-.34h0c.09-.13.16-.27.2-.43.01,0,.02-.02.01-.03.09-.12.17-.24.2-.38h0c.35-.56.7-1.11,1.05-1.67h0c.11-.1.21-.22.27-.36h0c.17-.15.3-.34.42-.53.36-.38.72-.78,1.12-1.12.15-.13.23-.12.35.03.6.71,1.35,1.1,2.29,1.11.03,0,.07,0,.1,0,.05,0,.12.02.13-.05.02-.08-.07-.09-.11-.11-.19-.09-.38-.17-.56-.27-.53-.28-.97-.67-1.27-1.2-.1-.17-.07-.26.07-.37.13-.09.25-.19.37-.29.02-.01.03-.03.05-.04h0s.04-.03.06-.05h0c.07-.01.12-.04.15-.11h0s.04-.03.06-.05h0c.19-.1.37-.21.53-.36h0c.09-.02.18-.07.23-.15h.02s.05-.04.08-.06c.01,0,.02,0,.03,0,.11-.04.16.04.23.11.13.15.26.32.45.41.03.02.06.04.09.06.02.01.05.03.07.04.04.05.08.1.16.1.06.08.16.1.25.12h0s.04.02.06.03c.03,0,.05.02.08.02.07.05.14.09.24.09.03,0,.05.01.08.02.49.17,1,.22,1.51.16.01,0,.03.02.04.02.16.05.33.06.57.05-.46-.23-.86-.42-1.26-.62h0s-.04-.03-.06-.04c0-.01-.02-.02-.03-.01-.08-.07-.17-.14-.28-.15-.03-.07-.09-.09-.16-.11-.04-.02-.07-.03-.11-.05-.03-.07-.09-.1-.16-.1h0c-.24-.21-.49-.41-.73-.62,0-.04,0-.07.01-.11.63-.29,1.28-.53,1.93-.78h0c.3-.04.59-.15.88-.22.01.01.03.02.04.01.05.11.08.22.16.31.01.07.03.13.1.16.15.36.42.62.74.84.03.06.08.1.15.11h0c.1.12.22.21.37.25h0c.04.06.09.1.16.1h0c.48.33,1.02.51,1.57.69-.33-.19-.58-.48-.9-.69-.04-.06-.08-.11-.15-.13-.05-.08-.12-.15-.21-.2-.02-.03-.05-.06-.07-.09-.08-.11-.14-.23-.25-.32-.15-.29-.32-.57-.46-.86-.19-.4-.18-.4.24-.46.04,0,.08-.03.12-.04.03,0,.07,0,.1,0,.11,0,.22.02.32-.04.1,0,.21-.01.31-.02.12,0,.25.03.37-.03.05,0,.1,0,.15-.01.36,0,.73,0,1.09.01,0,.02,0,.03.02.04-.07.62.11,1.17.46,1.67h0s.03.04.05.07c0,.02,0,.03.02.04.01.02.03.04.04.06h0c.05.18.25.26.29.44h0s.03.03.05.05h0c-.04.14.05.23.13.3-.08-.07-.17-.16-.13-.3l.19.12h0c.01.06.05.09.1.1,0,.01.02.02.03.02.2.23.44.39.73.49-.22-.33-.4-.66-.6-.99,0-.01,0-.02,0-.03-.11-.34-.18-.69-.25-1.05,0-.07,0-.14-.01-.21.02-.24.04-.49.06-.73.03,0,.07-.02.1-.03.17.03.35.08.53.07.06,0,.13.01.19.02.34.06.67.13,1.01.19.03,0,.07.01.1.02.14.04.27.1.41.12.19.03.28.11.18.31-.02.04-.01.08-.02.13,0,.03,0,.07-.01.1-.08.23-.04.46-.02.69.08.85.43,1.6.87,2.32.01,0,.03,0,.04,0,.08,0,.12-.04.13-.08-.01.04-.05.07-.13.08-.15-.86-.28-1.71-.15-2.58.03-.18.07-.36.11-.53h0s.03-.04.04-.06c.04,0,.08-.01.12-.02.02,0,.03,0,.05.01.01.01.03.01.04.01.02.01.04.02.06.03.03,0,.07.02.1.03.1.07.2.11.32.13.01.01.03.02.04.01.11.06.22.13.33.19.25.11.51.23.76.34h0c.51.31,1.01.62,1.52.94h0c.13.13.28.24.45.33,0,0,0,0,0,0,.02.05.06.08.11.09h0s.04.03.06.05h0s.04.03.06.05c.02.02.04.03.06.05.06.1.16.16.25.21.02.02.04.03.06.05.26.3.6.51.84.83,0,0,0,0,0,0h0c.1.07.19.15.29.23h.01s-.01,0-.01,0c.13.19.3.36.48.51h0s.03.04.05.06c0,.01,0,.02.02.03.13.15.25.29.38.44,0,0,0,0,0,0,.1.15.18.3.32.41.02.06.05.11.1.14.06.15.16.26.27.37,0,.01,0,.03.02.03.09.2.21.37.35.54,0,.02,0,.03.02.04.01.02.03.04.04.06h0c.28.54.56,1.08.83,1.63,0,.02,0,.03.01.04,0,.04,0,.08.05.1h0c.03.13.07.26.15.37h0c.27.79.49,1.59.68,2.4,0,.03,0,.07.01.1,0,.06-.01.12.04.16,0,.03,0,.07.01.1,0,.09-.01.18.04.26,0,.05,0,.1.01.16.07.61.1,1.22-.02,1.82ZM29.18,10.02s0,0,0,0h0ZM24.08,9.77s0-.02,0-.03c0,.01,0,.02,0,.03ZM6.65,14.4c-.03.08-.03.15.04.21.07.06.15.04.22,0,.16-.1.2-.3.3-.45.01-.08-.04-.09-.09-.08-.22.02-.38.11-.46.32ZM6.23,16.78s-.02-.03-.03-.04c.01,0,.02.02.03.04ZM25.84,14.2h0s0,0,0,0c0,0,0,0,0,0ZM29.08,11.26c-.05-.03-.11-.04-.17-.03h0c.06,0,.12,0,.17.03ZM21.24,33.9h.02s0,.01,0,.01h0s-.02-.01-.02-.01ZM33.36,21.72c0,.35,0,.7,0,1.05,0,.03,0,.07-.01.1-.11.59-.23,1.19-.43,1.76-.2.56-.41,1.12-.62,1.68h0c-.24.4-.38.84-.65,1.22-.24.48-.56.92-.88,1.35-.56.75-1.22,1.4-1.91,2.03-.02.01-.04.03-.05.04-.58.43-1.16.87-1.78,1.25-1.17.73-2.37,1.41-3.72,1.77-.79.21-1.59.37-2.38.53-.06-.02-.18.07-.14-.09.16-.17.34-.31.47-.51.13-.08.25-.16.38-.25h0c.37-.34.83-.45,1.3-.5.46-.05.91-.1,1.37-.16.22-.03.44-.07.64-.2-.02-.02-.04-.04-.06-.06-.56.02-1.11.03-1.67.06-.43.02-.86.09-1.29.17-.39.07-.7.29-1.03.48,0,0-.01,0-.01,0-.17.15-.34.31-.52.46h0c-.1-.05-.19,0-.25.06-.01.01-.02.02-.03.04,0-.01.02-.02.03-.04.06-.06.15-.11.25-.05-.15.24-.38.43-.51.68-.07.02-.13.05-.2.07-.36.02-.73.04-1.09.05-.88.02-1.75-.11-2.62-.25-.03,0-.07-.01-.1-.02-.21-.06-.41-.12-.62-.17-.66-.16-1.29-.44-1.94-.66h0c-.07-.08-.18-.1-.27-.14-.78-.38-1.56-.77-2.26-1.29,0,0,0,0,0,0-.32-.14-.56-.39-.86-.55-.03-.04-.06-.07-.09-.11,0,0,0,0,0,0-.04,0-.08-.02-.09-.07,0,0,0,0,0,0-.09-.03-.16-.08-.21-.16h0c-.1-.06-.19-.12-.29-.18-.05-.04-.09-.08-.14-.12-.02-.03-.04-.06-.06-.09h0c-.59-.43-1.08-.98-1.55-1.53-.54-.62-.96-1.31-1.39-2.01,0-.05-.02-.09-.06-.12-.01-.03-.03-.06-.04-.09-.38-.78-.7-1.6-.98-2.42,0-.01,0-.02,0-.03,0-.04,0-.09-.01-.13-.21-.71-.36-1.44-.47-2.18-.11-.71-.15-1.42-.22-2.14,0-.02,0-.03-.02-.04.01-.02.03-.05.04-.07.04.02.07.05.11.07.54.4.96.92,1.35,1.47,0,.02,0,.03.02.04,0,.12.1.19.16.29.25.42.39.88.6,1.32,0,.02.01.05.02.07.06.24.12.47.18.71.15-.06.25-.11.31-.22.07-.05.14-.1.2-.16.76-.81,1.29-1.76,1.72-2.78h0s.05-.06.05-.11c.04-.03.04-.1.1-.11,0,.02,0,.04.01.05.08.52.04,1.04-.04,1.55-.22,1.43-.65,2.8-1.15,4.15-.11.3-.12.59.01.88.37.83,1.01,1.41,1.78,1.87.19.16.41.27.64.35.02,0,.05.01.07.02.1.09.22.12.34.15.04.05.1.04.15.06.24.1.48.19.74.24.03,0,.07,0,.1.01.42.15.86.2,1.3.24.68.05,1.37.07,2.05-.08.03,0,.07,0,.1-.01.2.01.39-.06.59-.1.93-.21,1.86-.34,2.8-.5.45-.08.91-.12,1.36-.18,0,.08-.05.12-.1.13.05-.01.09-.05.1-.13.03-.01.07-.03.12-.05-.11,0-.19,0-.28-.01-.4,0-.8,0-1.2.01-.1,0-.2-.01-.31-.02-.28-.03-.56-.05-.84-.08-.07-.02-.14-.03-.21-.05-.02,0-.04,0-.05,0-.03,0-.07,0-.1-.01-.66-.25-1.34-.43-2.06-.38-.17.01-.35-.02-.52-.03-.04,0-.09,0-.11-.05-.02-.07.04-.09.08-.11.09-.04.18-.07.27-.1.54-.17,1.09-.3,1.64-.4,1.5-.28,2.97-.2,4.33.55.5.27.81.25,1.21-.11.42-.38.94-.64,1.38-1.02h0c.38-.23.75-.46,1.1-.73h0c.62-.37,1.23-.74,1.85-1.11.89-.54,1.83-.88,2.9-.69.05,0,.1.02.15.03.23.1.45.03.67-.03h0c.36-.2.6-.51.84-.83.11-.26.29-.5.37-.78.04-.04.07-.08.06-.14.19-.37.29-.77.42-1.15h0c.18-.36.27-.75.48-1.09,0,0,0-.02.01-.02.08-.12.13-.32.29-.28.17.04.16.25.18.4.11.9.02,1.79-.25,2.65-.16.53-.34,1.05-.62,1.53h0s0,0,0,0c-.31.82-.69,1.61-1.24,2.29-.31.39-.69.71-1.16.89h0s0,0,0,0h0s0,0,0,0h0c-.17.1-.36.2-.52.32-.32.24-.49.57-.5.97.02.01.04.02.07.04.29-.41.63-.78,1.11-.95.6-.21,1-.64,1.37-1.12.06-.07.12-.15.18-.22h0s.02-.08.06-.1h0c.05-.14.13-.25.22-.36h0c.03-.13.1-.23.18-.33h0s0,0,0,0c0-.04.02-.08.05-.09h0s.01,0,.01,0h-.01c0-.06.02-.11.07-.15h0c.08-.22.16-.44.3-.63h0s0,0,0,0c.01-.1.06-.19.12-.26-.02.06.03.14.01.2.02-.06-.03-.14-.01-.2,0-.01,0-.02,0-.03,0-.04,0-.09.05-.11,0-.04.01-.08.05-.11h0s0,0,0,0h0c0-.18.11-.32.18-.48.5-1.29.65-2.64.72-4,.02,0,.04,0,.05,0h0c.07.23.14.45.21.68,0,.05,0,.1.01.15ZM19.77,29.59s.06,0,.09,0c-.03,0-.06,0-.09,0ZM27.11,28.43c.03.06.11.03.17.03.25,0,.44-.16.44-.38,0-.16-.05-.24-.22-.14-.13.08-.23.19-.32.3-.04.05-.11.11-.07.18ZM28.32,29.79s-.02-.03-.03-.05c0,.02.01.03.03.05ZM28.33,29.8s0,0,0,0c0,0,0,0,0,0ZM30.01,25.07s0,0,0,0h0s0,0,0,0ZM29.46,25.31s.04,0,.05,0c-.02,0-.04,0-.05,0ZM6.1,27.36h0s0,0,0,0h0ZM20.35,1.21c.09-.22.23-.34.52-.3-.16-.17-.2-.32-.08-.48.04-.03.08-.06.12-.09h0c.28-.12.57-.23.85-.35h.52c.3.11.62.15.9.31.31.18.65.31.79.68-.01.05-.02.1-.03.15-.15.1-.29.19-.47.31.25.07.47.13.69.18.08.07.21.04.26.14-.02.02-.03.03-.05.05-.09.02-.16.06-.21.14h0s-.1.02-.15.03c-.04-.02-.07-.04-.11-.06q-.36-.13-.47.23c-.03.12-.07.23-.1.34-.07.25-.33.46-.11.76.02.03-.04.07-.08.08-.14.04-.28.07-.39-.03-.1-.09-.11-.23-.06-.36.02-.06.03-.11.05-.17.14-.1.19-.28.17-.41-.01-.11-.2-.1-.32-.12,0,0-.02,0-.03,0-.19-.11-.41-.11-.62-.13-.22-.02-.29.09-.28.29.01.21.16.33.29.47.04.05.18.08.07.19-.29.02-.6.11-.76-.25-.07-.7.43-1.14,1.13-.99.15.03.3.08.46.1.08.01.2.09.23-.07.03-.13-.04-.18-.16-.21-.56-.15-1.14-.23-1.71-.33-.06,0-.14-.04-.14.09,0,.34-.11.67-.2.99-.06.22,0,.35.21.41-.01.02-.03.03-.04.05-.1.03-.2.06-.31.09-.07,0-.14,0-.21,0-.18-.16-.11-.35-.08-.54.04-.26.11-.51.16-.76.04-.21.05-.4-.24-.43ZM21.26.52c.15.23.32.46.61.53.41.1.83.18,1.24.29.17.04.22-.04.24-.17,0-.16-.11-.26-.22-.34-.24-.18-.51-.29-.79-.38-.26-.09-.52-.14-.79-.16-.24-.02-.37.1-.28.24ZM20.77.42h0s0,0,0,0c0,0,0,0,0,0h-.01ZM32.45,29.23h0s0,.01,0,.01h0ZM8.14,8.42s0,0,0,0h0s0,0,0,0ZM2.94,21.16c-.07-1.52.04-3.02.37-4.5,0-.03,0-.07.01-.1,0-.02,0-.03,0-.05.02-.09.04-.17.06-.26.21-.72.44-1.44.71-2.14.01-.03.03-.06.04-.1.04-.11.09-.21.13-.32.02-.04.03-.07.05-.11.19-.36.4-.7.54-1.09.04-.02.03-.07.04-.11.22-.19.32-.45.47-.69.62-.94,1.33-1.79,2.09-2.61.13-.09.24-.21.34-.34h0c.13-.09.25-.2.35-.33.04,0,.07-.03.08-.07.02-.02.04-.04.06-.06.73-.63,1.49-1.22,2.3-1.74.1-.04.19-.09.27-.17.12-.07.24-.14.37-.21.09-.02.16-.06.22-.12.05-.03.1-.05.15-.08.27-.11.53-.24.78-.38.04-.02.07-.03.11-.05.3-.09.58-.22.87-.35.84-.28,1.68-.54,2.55-.69,2.78-.48,5.53-.37,8.23.51.04.01.08.01.13.02.67.28,1.33.56,2,.84h0c.46.27.91.53,1.37.8.03.02.06.04.09.06.42.31.84.61,1.26.92.04.03.07.06.11.09.24.21.48.42.73.63.04.03.07.07.11.1.5.52,1.03,1.02,1.49,1.58.23.28.46.56.69.83h0c.28.42.57.85.85,1.27,0,.01,0,.02.01.03.07.19.17.36.29.52.05.09.1.18.15.27.06.16.12.32.23.46.47,1.07.87,2.17,1.11,3.32.17.8.26,1.61.34,2.42.02.92.02,1.85-.04,2.77,0,.07,0,.14-.01.21-.03.21-.06.42-.09.63,0,.05-.01.1-.02.15-.05.26-.1.52-.14.79,0,.03,0,.07-.01.1-.19.7-.37,1.41-.61,2.09,0,.03-.02.07-.03.1-.24.54-.48,1.08-.72,1.62-.02.04-.03.07-.05.11-.15.21-.27.44-.38.67-.05.04-.1.08-.09.15-.16.22-.31.44-.42.68h0c-.23.26-.43.56-.63.84-.1.13-.2.25-.3.38-.11.07-.17.18-.25.28-.04.05-.08.11-.13.16-.76.8-1.55,1.57-2.41,2.26-.02,0-.03,0-.03.02-.12.06-.23.15-.32.25-.07.05-.14.1-.21.15-.29.19-.59.38-.88.58-1.11.67-2.28,1.21-3.53,1.58-2.56.76-5.17.86-7.79.41-1.52-.26-2.96-.76-4.33-1.46-.04-.02-.08-.04-.12-.05-.24-.14-.49-.28-.73-.41-.05-.03-.1-.06-.14-.09-.35-.24-.7-.48-1.06-.71,0-.01-.02-.02-.03-.02-.13-.14-.28-.24-.44-.33-.02-.01-.03-.03-.05-.04-.21-.19-.43-.38-.64-.56-.53-.45-.99-.96-1.48-1.44h0c-.08-.16-.2-.28-.33-.4-.48-.59-.93-1.2-1.35-1.83-.2-.36-.41-.72-.61-1.09-.34-.62-.59-1.29-.87-1.94,0-.06-.01-.11-.05-.16-.14-.49-.28-.98-.42-1.46-.2-.98-.35-1.96-.39-2.96ZM3.71,22.11c.07.66.16,1.33.36,1.97,0,.06,0,.12.04.16,0,.09,0,.18.08.25,0,.04,0,.08,0,.12.07.24.12.49.24.72,0,.06,0,.11.05.16,0,.1.04.18.09.26.02.07.05.14.07.2.08.24.16.47.3.68,0,.07.03.11.07.16.11.28.23.56.41.81,0,0,0,.02.01.02.39.78.88,1.49,1.44,2.15.02.03.05.06.07.09.06.11.14.2.24.28.18.2.35.41.53.61,2.96,3.18,6.61,4.86,10.97,4.95,1.8.04,3.57-.2,5.29-.78,1.62-.55,3.11-1.34,4.43-2.42.08-.04.16-.09.22-.17.01-.01.03-.02.04-.03.04-.03.08-.07.12-.1h0c.07-.03.12-.07.15-.13.79-.65,1.5-1.37,2.13-2.18.08-.05.13-.13.17-.21.01-.02.02-.03.04-.05.06-.04.1-.09.12-.16.14-.14.26-.3.35-.48.16-.17.27-.37.38-.57.05-.04.08-.09.1-.15.09-.1.16-.2.2-.33.38-.59.69-1.23.93-1.89,1.41-3.72,1.44-7.47.1-11.21-.59-1.65-1.5-3.13-2.66-4.44-.02-.06-.05-.1-.11-.12-.13-.14-.25-.29-.38-.43-.93-.99-1.94-1.88-3.1-2.59-.06-.07-.13-.13-.22-.14-.1-.06-.21-.11-.31-.17-.11-.14-.27-.19-.42-.26-.29-.19-.61-.33-.93-.47-3.03-1.35-6.18-1.61-9.42-1.01-1.69.31-3.29.9-4.74,1.85-.17.04-.3.15-.43.26-.02.02-.04.04-.06.06-.03.01-.06.02-.08.04-.43.26-.83.57-1.21.9-.16.1-.31.22-.43.36-.07.07-.13.14-.2.2-1,.83-1.82,1.82-2.55,2.88-.09.09-.16.2-.21.32-.17.21-.31.44-.42.68-.48.78-.84,1.61-1.14,2.48-.77,2.24-.96,4.54-.72,6.89ZM6.94,31.02l.02-.02s0,0,0,0v.02ZM5.99,12.06s0,0,0,0h0s0,0,0,0ZM9.18,3.22c-.13-.18.03-.34.05-.51.19-.31.38-.62.69-.83.02,0,.04-.02.05-.03.1-.05.19-.1.29-.15.04-.01.07-.03.11-.04.21-.05.42-.1.63-.16.03,0,.07,0,.1,0,.15,0,.29,0,.44,0,.43.02.53.17.36.56-.02.05-.08.09-.04.18.24-.08.47-.17.71-.25.07-.02.18-.15.22.03h0c-.03.05-.07.09-.06.15-.11.3-.45.2-.64.39.05.07.1.13.16.2,0,.02,0,.03.01.04.01.03.03.05.04.08.08.25.17.51.25.76.05.16.15.24.33.22-.24.37-.36.41-.61.19-.08-.23-.16-.46-.24-.69-.02-.06-.05-.11-.13-.07-.25.12-.53.16-.77.31-.33.22-.33.35.03.56,0,.01.01.01.02,0,.15.16.38.07.54.2-.03.05-.07.09-.1.14-.1.05-.21.11-.31.16-.08,0-.17,0-.25,0-.16-.09-.31-.19-.38-.37-.14-.36.05-.88.4-1.05.19-.09.38-.16.57-.25.07-.03.19-.04.14-.17-.05-.11-.13-.15-.25-.1-.53.22-1.05.46-1.55.73-.06.04-.12.06-.04.15.17.22.25.49.37.74.1.2.16.44.46.4,0,.03,0,.05,0,.08v.02c-.06.06-.1.12-.14.18-.04.03-.07.06-.11.1-.22.04-.31-.11-.4-.26-.19-.31-.28-.68-.53-.96-.07-.12-.15-.15-.26-.05-.03,0-.07,0-.1-.01.02-.19-.05-.41.25-.5-.13-.06-.21-.1-.3-.14ZM9.59,2.84c.14.06.3.09.46.09.09.02.17.02.25-.02.4-.17.8-.34,1.19-.51.15-.07.17-.23.03-.32-.08-.05-.18-.09-.27-.09-.63-.02-1.19.21-1.71.54-.15.1-.15.23.04.31ZM31.63,5.01s0,0,0,0h0s0,0,0,0ZM27.77,3.36c.04.4-.29.58-.49.84-.11.14-.25.27-.35.42-.21.31-.15.45.22.51.05,0,.1.02.15.04.03,0,.07,0,.1,0-.16-.2-.1-.35.07-.51.18-.18.35-.38.53-.57.1-.11.19-.22.2-.37.04,0,.06,0,.07,0,.22.21.46.28.75.15.05-.15-.18-.17-.14-.32,0-.05,0-.09-.01-.14-.04-.06-.04-.11,0-.17,0-.07.01-.14.02-.21.06-.27.26-.32.49-.3.16.02.32.08.44.19.1.03.19.08.26.16l.06.04h0c.07.01.12.05.15.1.09.04.16.09.2.18.33.28.53.63.67,1.03.07.21,0,.37-.2.48-.06.03-.12.06-.16,0-.18-.24-.43-.17-.66-.16-.02.03-.04.06-.05.1.19.11.35.25.52.39.05.05.07.11.04.16-.03.05-.09.03-.14.01-.12-.05-.25-.05-.41-.04.11.11.27.17.28.32,0,.08-.09.14-.18.17-.18.19-.34.39-.53.57-.13.12-.12.23-.04.36.19.1.38.21.61.09-.08-.07-.13-.15-.04-.25.11-.25.32-.41.51-.58.15-.13.28-.26.35-.48.2.26.43.36.74.2-.18-.24-.44-.39-.68-.64.22,0,.38-.05.54-.13.23-.26.14-.55.07-.83-.05-.08-.09-.17-.14-.25-.67-1.19-1.82-1.6-3.1-1.26q-.14.18-.17.57c-.16-.11-.29-.03-.42.04-.04.02-.1.03-.09.08ZM6.43,6c-.07-.42-.06-.41.21-.67.16-.15.39-.23.47-.46.01-.02.02-.04.04-.05.12-.05.25-.08.32-.21.02,0,.03,0,.04-.01.05.01.08,0,.09-.05.02-.02.04-.03.06-.05.18-.1.35-.21.5-.35.2-.13.4-.26.6-.39q.33-.21.37.17c-.14.1-.29.2-.43.31-.23.12-.43.28-.63.44.13.16.25.17.38.03.1-.1.21-.18.32-.27.5-.25.85-.14,1,.31.05.14.02.29.02.43-.01.03-.03.07-.04.1-.08.13-.16.27-.29.36-.1.08-.14.08-.19-.06-.06-.17-.07-.26.14-.31.14-.04.28-.15.25-.32-.03-.17-.19-.21-.34-.24-.23-.05-.41.05-.56.2-.09.09-.25.16-.2.3.05.17.17.36.36.38.25.02.11.2.16.3.06.12-.05.14-.14.16-.23.06-.4.2-.56.36-.07.08-.14.18-.07.28.06.09.17.08.26.05.34-.1.65-.26.79-.62.02-.06.03-.12.11-.1l.02.08c0,.55-.4,1-.94,1.08-.2.03-.32-.05-.36-.24-.02-.08-.01-.17-.02-.26.04-.14.07-.28.11-.42-.09.11-.19.21-.28.32-.12.07-.23.16-.35.22-.22.1-.49,0-.57-.21-.11-.28-.14-.57.05-.84.2-.16.4-.33.6-.5.05-.04.18-.06.09-.19-.08-.11-.16-.12-.26-.04-.2.16-.42.31-.59.5-.18.15-.36.3-.55.46ZM8.39,5.74c-.04.2-.07.36-.1.52.09-.15.32-.27.1-.52ZM7.94,5.16c.1.42-.17.62-.44.81-.06.04-.12.07-.17.12-.08.07-.22.13-.14.26.08.13.22.08.33.03.25-.11.42-.3.57-.52.21-.3.18-.46-.15-.71ZM10.73,36.46s-.02-.07-.03-.11c-.21-.29-.5-.33-.82-.31-.03.08.04.09.08.12.32.26.35.76.07,1.06-.16.17-.3.15-.42-.04-.14-.22-.12-.47.05-.7.06-.07.12-.14.21-.23-.1,0-.17-.02-.26-.03.31-.75-.31-.42-.6-.51.03-.1.08-.19.17-.26.02-.2-.16-.15-.26-.2-.17.01-.34-.02-.53-.05.39-.35.41-.67.1-1.07-.21-.27-.48-.47-.79-.62-.19-.09-.4.05-.61.03-.02.08.1.07.1.14.22.03.27.12.11.29-.07.07-.09.19-.21.2,0,.04,0,.08-.05.09-.18.37-.47.65-.71.97-.05.07-.16.12-.14.23.09,0,.17.01.26.02.25.06.39-.08.52-.27.23-.33.48-.64.72-.96.11-.16.2-.13.3,0,.12.15.19.31.09.5-.1.19-.24.26-.45.24-.06,0-.18-.1-.17.08v.02s0-.02,0-.02c.26.06.51.15.79.14.2-.01.26.21.12.42,0,.02-.02.03-.03.05-.15.28-.34.52-.58.73,0,.03,0,.06,0,.09.12.02.25,0,.36.06.05,0,.1,0,.15,0,.17-.2.35-.41.53-.61.06-.06.15-.11.23-.05.07.05.09.12.03.2,0,.03,0,.07,0,.1.12.01.23.02.39.04-.13.07-.21.12-.3.16-.03.04-.06.08-.09.12-.09.22-.1.45-.07.68.05.07.09.13.14.2.2.13.43.14.66.13.12-.02.24-.05.36-.07.48-.22.61-.45.56-.98ZM23.16,39.52s0,0,0,0c0,0,0,0,0,0h0ZM20.83,39.63s0,0,0,0h0s0,0,0,0ZM24.21,37.55s-.07,0-.1,0c-.04.02-.07.04-.11.05-.23.27-.4.59-.63.96-.07-.4-.13-.73-.19-1.07-.02-.1-.04-.21-.06-.31-.07-.11-.06-.25-.09-.37-.1-.11-.2-.08-.29,0-.11.1-.21.2-.32.3-.06.06-.11.14-.22.11-.46-.11-.83.09-1.18.34-.32.23-.39.55-.19.85.29.14.61.17.92.27.18.05.35.12.38.34.02.13-.03.24-.15.31-.19.1-.37.08-.54-.03,0,0-.02,0-.02-.01-.19-.3-.39-.18-.59-.02,0,.01-.01.02-.02.01-.12.13-.06.24.03.34.67.36,1.47-.12,1.76-.68.13-.26.03-.51-.25-.6-.19-.06-.39-.1-.58-.15-.05-.01-.1-.02-.15-.04-.16-.07-.35-.1-.38-.31-.01-.11.01-.23.13-.29.19-.09.38-.07.53.07.08.07.16.15.26.04.09-.1.34-.08.24-.32-.02-.05-.01-.09.04-.1.08-.02.13.03.16.1.11.24.16.5.21.75.08.42.16.84.24,1.26.01.07-.02.17.11.17.07-.43.26-.8.52-1.14.17-.21.27-.2.39.05.12.27.21.55.26.84.03,0,.05,0,.08,0,.07-.16.29-.21.32-.4-.17-.42-.24-.87-.46-1.27-.02-.01-.04-.03-.06-.04ZM4.95,8.3h0s0,0,0,0h0ZM4.01,8.35c-.12-.27.01-.47.19-.66.26-.27.51-.56.76-.84.44-.35.77-.82,1.24-1.13.14.31.01.51-.25.68.19.03.3.12.4.23.2.21.41.43.62.63.09.09.19.19.33.05.03.38-.14.58-.48.57-.03,0-.05-.01-.08-.02-.04-.16-.16-.25-.27-.36-.03-.05-.03-.11-.11-.11,0,.04,0,.08,0,.12,0,.14,0,.28,0,.41,0,.07-.01.14-.02.2,0,.04-.02.07-.03.11,0,.04,0,.07,0,.11-.07.22-.15.45-.22.67-.22.32-.44.63-.66.95-.13.13-.26.25-.39.38-.02.02-.05.02-.07.03-.05-.17-.06-.34-.06-.51.15-.13.31-.25.45-.38.4-.38.71-.83.81-1.39.1-.28.13-.56.09-.92-.09.33-.17.6-.25.87-.03.05-.06.1-.09.16-.24.45-.49.49-.88.16-.03-.02-.05-.04-.08-.06-.34-.37-.51-.35-.79.06-.05.04-.11.11-.16,0ZM4.81,7.61c0,.07.09.03.14.04.07.04.14.08.21.12.05.08.12.12.21.15.31.23.44.19.56-.16.06-.18.09-.37.15-.55.08-.23-.1-.29-.23-.37-.13-.08-.25-.09-.37.05-.17.19-.36.37-.54.56-.07.04-.14.09-.14.16ZM29.02,3.87h0s0,0,0,0h0s0,0,0,0c0,0,0,0,0,0,0,0,0,0,0,0,0,0,0,0,0,0h0ZM29.02,3.87c.16-.1.34-.15.52-.2.12,0,.24,0,.36-.01.32.03.64.05.83.38.14.24.09.41-.16.51-.17.07-.34.05-.51.06-.09,0-.18-.02-.28-.02-.03,0-.06-.02-.09-.03-.23-.05-.45-.11-.68-.15-.17-.03-.34-.03-.51.04-.2.08-.35.23-.36.44-.01.26.18.41.39.54.19.11.32.04.48-.09.3-.24.63-.4,1.03-.27.07.16-.07.26-.1.39-.2.15-.42.26-.66.24-.26-.02-.34.11-.35.33,0,.08,0,.17,0,.26,0,.13.04.24.14.32.02.07.07.11.12.15.08.11.19.18.3.24.22.15.47.12.74.07-.21.22-.23.23-.64.27-.05,0-.1,0-.16-.01-.3-.08-.58-.21-.78-.47-.02-.03-.04-.07-.06-.1-.02-.05-.04-.1-.06-.16-.02-.2-.07-.41,0-.61q.15-.27-.13-.33c-.16-.03-.32-.09-.46-.18-.19-.12-.33-.3-.32-.53.01-.24.16-.39.38-.48.13-.05.26-.1.4-.12.25-.02.49-.05.76-.08-.09-.14-.21-.23-.15-.39ZM29.61,4.02c.1.23.3.35.53.43.12.04.15-.03.14-.14-.02-.18-.39-.52-.59-.52-.13.03-.13.14-.08.23ZM1.6,27.1c.04-.05.1-.05.16-.05.35-.14.72-.25,1.09-.33.08-.06.2-.03.26-.13-.32-.33-.66-.36-1.04-.12-.15.1-.35.13-.59.21.36-.72.71-1.37.91-2.08,0-.03-.01-.06-.02-.1-.12-.09-.24-.18-.35-.27-.07,0-.1-.11-.18-.05.06.33-.03.61-.25.67-.32.1-.65.18-.97.27-.17.05-.34.11-.5.16-.06.02-.14.03-.1.13.02.01.03.02.05.03.27.3.58.24.9.09.16-.08.34-.12.55-.19-.07.23-.13.41-.26.56h0c-.11.3-.26.58-.48.82h0s-.01.03-.02.05c-.05.09-.25.15-.17.24.11.13.25.3.48.23.18-.06.37-.1.55-.15ZM31.51,33.98c-.04-.07-.1-.16-.04-.24.06-.09.15-.08.23-.04.08.04.12.01.13-.06,0-.15.17-.3.02-.44-.11-.09-.25-.17-.4-.07,0,.01,0,.02-.01.03-.02.1-.03.2-.05.3-.02.09-.03.18-.06.32-.09-.1-.15-.17-.21-.24-.07-.04-.13-.03-.2,0-.07.21-.1.44-.23.63-.2-.35-.41-.44-.81-.35-.09.02-.18.05-.28.07-.03.02-.07.04-.1.06-.24.16-.46.33-.67.53-.01.15,0,.3-.08.45-.04.09.03.11.1.04.26-.25.27-.24.44.11.1.14.21.28.31.42.04,0,.05.02.05.05.02.03.04.06.06.09.1.1.18.21.23.33.02.01.02.03.03.04.11.13.2.26.26.42h0c.2-.13.3-.5.18-.67-.24-.34-.49-.68-.72-1.02-.06-.09-.25-.16-.1-.32.12-.13.42-.16.56-.05.18.13.24.31.16.53-.02.06-.09.12-.03.19-.01,0-.02,0-.03,0,.01.02.02.03.03.05,0-.02,0-.03,0-.05.07,0,.08-.09.13-.11.01-.05.03-.1.09-.12.04-.07.08-.14.12-.2.02-.08.04-.17.07-.25.07-.29.2-.33.42-.13.23.21.43.45.6.71.12.16.17.08.2-.06.11-.3-.02-.52-.23-.73-.07-.07-.12-.15-.17-.23ZM16.86,2.03c.1-.2.26-.35.42-.49.08-.07.15-.14.23-.2-.02-.03-.02-.05-.04-.06-.34-.1-.38-.2-.17-.48.21-.27.46-.5.79-.61.24-.07.46-.01.67.13.03.05.06.1.09.15,0,.13-.08.24-.14.35-.13.11-.27.21-.4.32-.35.14-.69.28-.99.51-.17.14-.23.32-.16.54.06.2.21.29.4.31.1.01.21,0,.31,0,.18-.01.27-.09.29-.29.04-.35.2-.64.53-.81.18,0,.16.17.22.27,0,.28-.12.49-.34.66-.34.21,0,.34.06.5.21.23.49.29.78.29.33.02.58-.11.75-.39.07.21-.09.34-.18.5-.05.04-.1.07-.15.11-.07.03-.14.05-.2.08-.3.08-.6.09-.89-.03-.09-.07-.19-.13-.28-.2-.02-.02-.05-.04-.07-.07-.08-.16-.17-.32-.25-.49-.26.14-.53.25-.83.22-.46-.05-.65-.41-.44-.82ZM17.66.84c.23.13.48.15.72.05.12-.04.12-.11.03-.19-.13-.11-.29-.14-.53-.13-.02,0-.11,0-.19.03-.05.01-.1.03-.11.09-.01.07.02.12.08.15ZM32.72,7.16c.14.08.19.17.06.29-.15.14-.2,0-.27-.09-.13-.13-.26-.25-.39-.38-.33-.33-.92-.41-1.31-.17-.19.12-.33.29-.32.53.01.29.23.43.46.53.04,0,.08,0,.12,0,0-.2-.1-.38-.04-.59.11-.42.33-.49.65-.2h0c.17.11.29.25.4.42.02,0,.02.02.02.04.19.15.18.29-.03.42-.15.1-.3.2-.45.31-.11.08-.2.17-.12.32.08.16.23.2.39.22.04,0,.07-.02.05-.06-.06-.18.1-.24.2-.32.32-.26.73-.4,1-.74.1-.12.15.12.26.12.1-.1.31.05.37-.15-.04,0-.06-.04-.06-.07-.54-.54-1.08-1.09-1.62-1.63-.18-.14-.34-.02-.55.03.4.42.85.74,1.19,1.16ZM13.82,1.96s.1-.04.15-.06c.22-.08.45-.14.69-.17.14-.05.28-.09.43-.08.13-.05.26-.13.4-.03.13.04.2.16.29.25.06.17-.06.23-.18.29,0,.02-.02.03-.04.03-.14.1-.29.09-.44.02-.14-.02-.25-.1-.36-.18-.11,0-.2-.16-.33-.06-.19.13-.19.31.02.44.04.03.08.06.12.1h0c.41.23.76.53,1.15.79.19.09.39.1.59.05.13-.11.32-.17.39-.35h0s0,0,0,0c-.45.03-1.03-.22-1.28-.55.32.01.6-.09.86-.27.26-.18.26-.34.02-.53-.06-.04-.14-.07-.16-.17.27-.08.66,0,.71-.46-.97.12-1.92.27-2.85.53-.09.02-.11.1-.16.16.01.1-.09.2,0,.29ZM24.85,2.18c.43.12.86.28,1.28.44.09.04.17.08.22.17.07.12.1.25.03.37-.07.12-.2.13-.32.12-.3-.01-.46-.2-.57-.46-.15-.36-.15-.36-.52-.28-.01,0-.02,0-.03,0-.06.06-.06.12-.02.2.08.19.16.38.18.59,0,.03.01.07.02.1.04.15.09.3.12.45.15.58.31.7.91.71.08-.02.17-.04.25-.06-.52-.22-.62-.71-.75-1.19.26.21.57.27.88.27.39,0,.49-.11.4-.48,0-.04-.02-.08-.03-.16.16.06.29.11.41.19.06.02.12.04.18.06.07-.13.31-.04.31-.25-.39-.18-.78-.36-1.17-.54-.38-.14-.76-.27-1.13-.43-.28-.12-.52-.13-.75.08,0,.06.06.05.09.08ZM37.69,25.48c-.05-.17-.1-.35-.15-.52-.34-.41-.55-.46-1.03-.2-.23.12-.45.26-.68.38-.18.1-.37.16-.54-.07-.06.17-.04.31-.04.44,0,.44.05.48.45.31.2-.15.41-.28.63-.39l.28-.13c.26-.18.6-.08.82.17.17.26,0,.59-.31.63-.34.04-.59-.1-.78-.43-.1.04-.05.15-.1.21,0,.07,0,.14,0,.21.04.1.07.21.11.31.2.25.48.29.77.31.09-.03.17-.06.26-.1.15-.12.24-.29.31-.47,0-.07,0-.14.01-.21v-.05c0-.14,0-.28,0-.42ZM4.09,31.74c.21-.16.45-.25.68-.36-.01-.02-.03-.03-.04-.05-.03,0-.05-.01-.06-.04-.02-.01-.04-.02-.06-.04-.21-.11-.43-.19-.66-.07-.02.01-.05.01-.08,0-.22-.02-.51,0-.59-.22-.07-.19.22-.25.34-.37.08-.08.17-.15.28-.18h.01c.02-.06.07-.08.12-.09.03-.05.08-.1.05-.17-.2-.13-.37-.31-.62-.34,0,.03.02.07.02.1.04.03.04.07.02.11,0,.07-.05.08-.1.09-.18.17-.38.32-.62.4-.01.01-.03.02-.04.04-.04.14-.19.2-.27.31,0,.05.01.1.02.14.2.07.4.15.6.22.06,0,.11,0,.16.04.13.01.27.02.46.03-.24.21-.51.3-.72.46.28.28.57.3.89.09.05-.06.11-.1.19-.11ZM1.96,29.23h0c.26-.35.52-.69.78-1.04.04-.13.13-.25.06-.4-.08-.06-.17-.12-.25-.18-.07,0-.12-.04-.16-.09-.03,0-.07-.01-.1-.02.01.05.03.1.04.16.04.07.02.13,0,.2-.03.09-.07.2-.16.22-.09.02-.11-.11-.17-.16-.1-.1-.19-.2-.28-.29-.03-.02-.07-.04-.1-.06-.04,0-.09,0-.11-.05h0c-.17,0-.37-.07-.47.15-.11.22-.04.49.18.72h0c.12.05.25.11.42.18-.11-.19-.21-.34-.19-.52.01-.12.04-.24.17-.26.13-.02.17.1.2.2.09.32.06.62-.21.85-.1.14-.3.27,0,.41.12.1.24.12.35-.02ZM19.97,37.36c-.07-.04-.13-.08-.2-.13-.03,0-.07-.02-.1-.02-.05,0-.11,0-.16,0-.03,0-.07.01-.1.02-.16.14-.35.26-.49.42-.09.11-.19.21-.2.36-.01.19-.07.3-.29.26-.17-.03-.13.15-.16.24-.04.1.05.12.12.11.34-.06.34.14.3.38,0,.09,0,.17.01.26,0,.19.01.39.02.58.02.05-.01.12.06.15.38-.17.52-.45.41-.86-.09-.34.08-.56.36-.72h0c.03-.08.09-.15-.08-.15-.34,0-.34,0-.31-.35,0-.07.02-.14.03-.2.02-.21.15-.24.28-.12.16.16.28.08.4-.03.03-.03.07-.05.1-.08,0-.03.01-.07.02-.1-.01,0-.02-.01-.02-.02ZM19.55,38.42s0,0,0,0h0s0,0,0,0ZM33.19,32.48s-.03-.04-.05-.06c-.07-.05-.14-.11-.21-.15-.22-.12-.47-.18-.69-.05-.25.15-.32.41-.32.71.28-.3.58-.3.91-.14.25.12.38.33.31.48-.07.15-.42.22-.62.12-.12-.06-.21-.15-.3-.25-.04-.05-.04-.14-.12-.15-.18.54-.02.84.5.96.12.03.22,0,.34,0,.22-.11.34-.29.37-.53,0-.02,0-.04,0-.05,0-.24-.02-.47-.02-.71-.03-.06-.07-.12-.1-.18ZM34.99,30.98c-.25.33-.84.34-1.09.01-.06-.08-.11-.17-.05-.26.06-.09.16-.18.28-.16.12.01.16.11.18.22.01.08-.03.17.08.27.03-.21.06-.39.08-.57.01-.21-.04-.38-.24-.48-.1,0-.2,0-.29.07-.34.4-.33.84-.14,1.29.11.24.33.37.59.42.69,0,.84-.34.72-1.01-.05.08-.09.14-.13.2ZM16.2,38.41c.07.03.12.12.19.16.03.02.09-.02.14-.04.03-.06.09-.08.14-.1.12-.15.02-.25-.09-.34-.14-.04-.28-.03-.41-.01-.18.12-.37.22-.54.35-.27.21-.23.43.1.56.11.04.23.07.35.11.12.05.23.12.25.27,0,.05-.03.08-.07.09-.15.03-.27-.02-.39-.11-.07-.06-.04-.28-.24-.15-.16.1-.32.2-.21.43.37.28,1.21-.04,1.3-.5.02-.1-.02-.19-.08-.26-.2-.08-.4-.15-.6-.24-.09-.04-.22-.12-.15-.23.07-.11.21-.03.31.01ZM37.07,27c-.13-.02-.1.09-.13.15-.19.38-.69.51-1.04.28-.1-.07-.21-.15-.15-.29.04-.12.14-.21.27-.21.15,0,.18.14.21.26.01.05,0,.12.08.17.04-.3.02-.58-.04-.86-.13-.15-.28-.16-.45-.09-.01.01-.03.02-.04.03-.15.18-.2.4-.21.63,0,.03,0,.07,0,.1.07.39.23.73.61.91.07.01.14.02.2.03.1-.03.2-.06.3-.08.26-.04.36-.25.48-.45.07-.21-.12-.37-.09-.57ZM12.63,38.49c-.43-.06-.71-.57-.54-.96.05-.11.11-.21.24-.19.11.02.22.08.25.2.04.15-.07.22-.18.27-.05.02-.11.05-.21.1.35.01.61-.07.83-.22.22-.14.13-.33,0-.49-.01,0-.03,0-.03-.02-.41-.16-.76-.03-1.09.22-.33.25-.41.55-.26.99.02.03.04.07.05.1.06.04.11.08.1.16.11.17.29.16.46.15.08-.03.17-.05.25-.08.02,0,.04-.01.05-.02.08-.05.16-.1.23-.15-.03-.09-.1-.05-.16-.06ZM28.41,36.4c-.16.02-.32.08-.49.05-.08-.02-.18-.03-.19-.12,0-.09.1-.1.17-.13.08-.03.16-.04.23,0,.1.07.16.02.21-.06.06-.1.18-.21.08-.32-.11-.13-.26-.11-.41-.04-.2.1-.27.31-.4.47-.02.03-.04.07-.06.1-.01.04-.03.08-.04.12-.1.34.06.5.41.44.11-.02.22-.05.33-.07.13-.02.24.01.33.12.03.04.03.09,0,.12-.12.09-.27.16-.39.08-.17-.11-.24-.12-.35.07-.11.2-.05.3.1.41.13.02.26-.02.38-.05.24-.19.37-.45.46-.73.11-.34-.02-.5-.38-.46ZM6.62,33.26s-.02-.01-.01-.02c-.12-.16-.28-.27-.46-.34-.07,0-.14-.02-.21-.03-.37,0-.72.03-.98.34-.02.03-.04.07-.06.1-.04.13-.05.27-.04.41.01.37.17.55.55.59.09.01.19.03.28.04.03,0,.06,0,.09,0,.04-.1-.05-.11-.1-.14-.45-.26-.31-.9,0-1.14.09-.07.18-.11.28-.03.09.07.16.17.14.29-.02.12-.13.15-.24.17-.08.02-.17-.04-.27.03.07.03.14.06.2.09.02,0,.03,0,.05,0,.11.02.22.04.33.05.37.04.47-.05.45-.42ZM34.4,31.95c-.18.14-.34.1-.5-.03,0,0-.01-.01-.02-.02-.27-.16-.49-.35-.43-.71.01-.09-.03-.19-.04-.28-.05.06-.09.11-.14.17q-.15.23-.39-.04c-.09-.05-.14-.02-.15.08-.03.36.07.7.16,1.03.14-.01.13-.3.32-.16.2.15.38.32.57.48h0s.08.02.1.06c.15.03.29.16.45.05.02-.1.05-.2.07-.31,0-.07,0-.14.01-.2,0-.04,0-.08-.01-.11h0ZM25.4,38.35c-.25-.1-.44-.28-.5-.56-.02-.09.01-.18.09-.22.1-.06.22-.07.32,0,.08.05.11.13.07.23-.02.04-.04.08,0,.12.43-.41.52-.67.2-.86-.06,0-.12,0-.18-.01-.14.07-.28.14-.41.21-.02.03-.04.06-.07.09-.09.2-.23.38-.26.61-.04.31.02.58.27.79.06.03.13.05.19.08.5.21.93-.08.95-.63-.03.02-.06.03-.09.05-.17.19-.38.2-.6.12ZM3.1,29.51c.06-.03.09.02.1.08.02,0,.05.02.07.03.14.03.28.06.42.09q-.18-.4,0-.46c.09-.06.32-.07.1-.25-.3-.15-.63-.16-.94-.24-.13,0-.07.08-.06.14.13.11.16.2-.04.27-.07.02-.14.06-.21.09h0s-.06.06-.1.06c-.07.08-.16.11-.25.14-.49.39-.48.44.08.75.02.01.04.03.07.04.03-.02.06-.04.09-.05-.07-.1-.08-.19.02-.27.19-.17.44-.27.66-.4ZM14.98,37.66h0s0,0,0,0h0ZM15.14,38.93s0-.02,0-.03c.06-.29.08-.61.46-.7.09-.02.17-.12.25-.18-.05,0-.09-.02-.14-.02q-.31-.05-.22-.49c-.19,0-.34.12-.51.15-.02.21-.26.17-.35.32-.04.06-.17.07-.11.19.01,0,.03,0,.04,0,.2-.03.29.04.21.24-.04.11-.02.24-.1.34,0,.03,0,.07-.01.1-.02.1-.03.21-.05.31.01.14,0,.28.08.4h0s.02,0,.03,0c.04,0,.07,0,.11.01.16-.08.35-.08.53-.23-.26-.07-.22-.25-.21-.43ZM12.11,37.04s0,0,0-.01q-.35-.18-.18-.53s0-.06,0-.1c-.03,0-.06,0-.09,0-.08.04-.17.05-.26.03-.05,0-.1.01-.15.02-.05.14-.18.12-.29.16-.1.03-.22.06-.31.18.34.08.25.25.12.45-.16.26-.3.53-.36.83.02.05.04.1.06.15.15.06.31.02.46.05.05-.04.1-.05.16-.05-.23-.31.02-.54.11-.81.13-.38.53-.15.72-.38ZM36.57,28.36s-.05,0-.07,0c-.06.14-.15.16-.29.12-.21-.07-.39-.19-.58-.29-.06-.03-.09-.07-.08-.14,0-.19-.09-.36-.15-.54-.02.02-.03.04-.05.05q-.13.36-.46.19s-.06-.02-.1-.03c-.04.41.16.73.31,1.06.02.04.06.02.09.02,0-.02,0-.03.01-.04.03-.16.08-.29.26-.11.1.06.21.11.31.17.08,0,.15.05.21.1.04.02.07.03.11.05.17.03.35.14.52,0,0-.07.01-.14.02-.21,0-.11-.01-.21-.02-.32,0-.03-.02-.06-.03-.1ZM14.34,37.66c-.12-.06-.24-.11-.37-.12-.1.02-.21.04-.3.07-.78.26-.97,1.01-.41,1.58.03.01.06.03.09.04.02,0,.03,0,.05,0,.11,0,.21,0,.32,0,.12-.05.24-.09.36-.14.02-.01.04-.02.06-.03,0-.03,0-.07,0-.1-.13,0-.26,0-.37-.09-.28-.18-.43-.52-.36-.82.03-.13.1-.22.24-.24.14-.02.26.05.28.18.07.28.21.19.37.11.21-.11.18-.24.06-.4,0,0,0-.02-.01-.02ZM5.06,32.35h0c.19.11-.02.23.01.34.02,0,.03,0,.04.02.04,0,.09,0,.13.02.22.11.38.06.48-.16.07-.27-.15-.25-.3-.31-.11-.02-.22-.03-.34-.05.04-.11.13-.16.21-.21.05-.13.02-.21-.11-.25-.08-.02-.15-.06-.23-.1-.11-.03-.23-.06-.34-.09.17.17.05.29-.07.4-.23.22-.47.43-.75.59-.04.04-.06.08-.03.13.4.23.68,0,.97-.22h.02c.04-.06.09-.09.16-.09.05-.05.1-.06.15-.01ZM18.12,39.01c0-.22,0-.43-.01-.65-.01-.21-.09-.25-.28-.15-.11.06-.22.13-.34.19-.04.06-.15.04-.14.17.24-.06.27.09.27.26,0,.28,0,.57,0,.85,0,.08-.06.18.07.21.02-.02.03-.05.05-.05.31-.12.43-.35.39-.67,0-.05,0-.1,0-.15ZM27.14,36.45c-.26-.06-.28.21-.42.31-.05.09-.11.17-.19.3.27-.11.35.04.42.23.11.31.23.61.35.92.06-.07.13-.13.19-.2.17-.18.15-.37.05-.58-.15-.32-.27-.65-.4-.97ZM13.05,3.43c-.02.07-.04.15-.06.22.05,0,.1.01.15.02.08-.02.15,0,.21.05.07-.01.13-.02.2-.03.03-.06.06-.13.1-.19.02-.1.1-.19.07-.31,0,0,0,0,0,0,0,0,0,0,0,0,0,0,0,0,0,0,0,0,0,0,0,0,0,0,0,0,0,0,0,0,0,0,0,0-.09.17-.23.15-.37.09-.17-.08-.25,0-.3.15ZM27.06,36.03c-.08-.04-.17-.09-.27-.13-.07-.02-.32.27-.32.37,0,.11.1.13.18.14.12.02.39-.22.4-.39ZM18.05,37.6c-.05-.02-.09-.08-.16-.07-.12.09-.24.19-.36.28,0,.02,0,.03,0,.05.05.04.1.1.16.13.2.09.33-.05.45-.17.11-.11-.1-.13-.09-.22ZM13.73,3.15s0,.02,0,.02c0,0,0,0,.01-.01,0,0-.01,0-.02-.01ZM16.7,2.98s.02-.02.03-.03c0,0-.02-.01-.02-.01,0,0-.02.02-.03.03,0,0,0,0,0,0,0,0,0,0,0,0ZM18.55,1.21c.22,0,.4,0,.59,0,.09,0,.22-.01.23.1.02.1-.12.07-.17.12-.09.07-.24.08-.23.24.11-.06.23-.06.34,0,.19.1.04.24.05.36l-.04.47s.04.1.03.16c.02.05.04.09.06.14.24.21.43,0,.63-.09-.2-.15-.23-.36-.22-.59.01-.26.13-.53.03-.8-.02-.05.02-.08.06-.08.24.01.34-.17.44-.34-.08,0-.17-.01-.25-.02-.07,0-.14,0-.21,0-.26,0-.53-.02-.79-.03-.1.02-.21,0-.3.06-.07.09-.14.17-.24.31ZM35.11,29.97c-.38,0-.6-.23-.49-.51,0-.03.01-.05.05-.05.04-.04.08-.06.14-.06.06-.05.11-.05.17,0,.25-.08.04-.29.11-.42-.19-.19-.45-.15-.57.13-.2.44-.13.86.17,1.24.11.05.21.13.33.16.26.06.54.11.76-.12.21-.23.17-.51.11-.8-.16.33-.44.43-.76.43ZM33.56,8.01c-.02.08.06.12.06.19.11.05.05.11,0,.15-.09.09-.2.16-.32.21-.03.02-.07.04-.1.06-.07.04-.14.07-.21.11-.14.07-.28.15-.42.22-.13.11-.29.19-.38.34.06.27.3.44.52.36-.12-.24.08-.28.22-.36.21-.1.42-.2.63-.3.11-.07.23-.11.32-.2.13-.14.2-.08.28.04.03,0,.05,0,.08,0,.07-.02.14-.03.21,0,.11,0,.17-.02.11-.16-.09-.2-.32-.27-.39-.46-.05-.13-.13-.19-.25-.22-.12.02-.24.06-.36.03ZM12.65,2.57c0,.07-.09.13.01.2.35.21.56.13.68-.29-.12-.03-.26-.03-.37-.1-.19-.08-.25.08-.32.19ZM27.52,17.24c-.04-.15-.19-.33-.09-.45.07-.08.26.08.4.09,0,0,.02,0,.03,0,.05.02.11.03.16.05.77.3,1.52.62,2.21,1.08.02.02.05.04.07.05l.32.26c.19.2.38.41.57.61.11.18.22.37.33.55.01.08.04.15.1.21.02.05.04.1.06.16,0,.03.02.06.02.09,0,.04.02.08.03.12.02.48-.05.95-.27,1.39-.03.04-.06.08-.1.13-.05.04-.1.07-.15.11-.13.02-.25-.02-.37-.06-.04-.06-.09-.12-.16-.15-.04-.07-.08-.14-.12-.22-.03-.08-.07-.16-.1-.24-.03-.04-.05-.08-.08-.12,0,0,.02,0,.02,0,0,0-.01,0-.02,0-.02,0-.03-.02-.03-.04-.07-.02-.09-.08-.12-.14h0s0,0,0,0h0s-.09-.07-.14-.04c-.05.03,0,.07,0,.11.13.34.2.69.26,1.04,0,.1,0,.21,0,.31-.04.12-.05.24-.04.37-.07.26-.12.52-.23.76-.12.28-.29.5-.61.57-.04,0-.07,0-.11,0-.05-.03-.1-.06-.15-.08,0-.03,0-.07,0-.1.08-.02.12-.09.16-.16.08-.05.14-.1.16-.19.07-.04.14-.08.17-.17.05-.04.08-.09.09-.16.05-.04.05-.1.06-.16.06-.08.08-.17.08-.27.02-.1.03-.2.05-.31,0-.04,0-.07,0-.11.02-.14.02-.28,0-.42,0-.18-.03-.35-.08-.52,0-.17-.08-.31-.11-.47.02,0,.04,0,.06-.01-.02,0-.04.01-.06.01-.01,0-.02-.02-.01-.03h0s-.05,0-.08,0c.05.17-.03.33-.04.5l-.08.27c-.06.09-.1.19-.11.3-.01,0-.03,0-.04.01-.05.22-.21.38-.3.58v.02c-.24.26-.46.53-.81.62-.02,0-.03,0-.04.02-.38-.04-.55-.21-.59-.59-.02-.17.01-.33.04-.49.06-.37.12-.73.13-1.1,0-.03,0-.07,0-.1.06-.19.06-.38.04-.57,0-.03,0-.07,0-.1.06-.96-.12-1.89-.39-2.81ZM30.3,20.57s0,0,0-.01c0,0,0,0,0,.01ZM30.26,20.67s0,.02-.01.03c0,0,0-.02.01-.03ZM30.26,20.65s.01-.03.02-.04c0,.01-.01.03-.02.04ZM30.37,20.78s0,.02,0,.03c0-.01,0-.02,0-.03ZM30.48,20.99s0-.02,0-.02c0,0,0,.02,0,.02ZM28.24,17.6c-.02.07.03.1.07.13.11.15.23.29.34.44.06.17.19.3.21.48-.27.02-.44-.2-.67-.25.16.24.38.41.67.46.16.03.27.1.33.25.06.14.13.28.2.42.06.12.02.17-.1.2-.36.11-.64-.02-.89-.27-.07-.12-.14-.24-.21-.36,0,.16.04.31.15.43,0,.03,0,.05.02.08.2.35.5.45.88.39.32-.05.4.06.29.36-.1.28-.29.49-.53.65-.17.12-.34.12-.49-.04-.09-.23-.18-.46-.27-.69.03.26.04.53.2.76.03.13.13.21.22.29.37.09.58-.15.79-.38.08-.1.15-.21.22-.32.05-.18.11-.36.16-.54.08.06.16.12.24.18,0,0,0,0,0,0,0,0,0,0,0,0,.03.01.06.02.1.03,0,.02,0,.04.01.05,0-.01-.01-.03-.01-.05.04.01.07.02.11.03h0c.15.03.28-.05.41-.11.05-.05.11-.1.16-.14.05-.06.05-.2.19-.11h0s-.06-.05-.04-.1c.03-.1.07-.19.1-.29h0c0-.19,0-.38-.11-.54-.03-.08-.06-.16-.14-.21.02.07.04.14.06.21.03.27.03.54-.12.78-.23.37-.57.39-.85.06-.08-.1-.07-.14.02-.23.37-.36.46-.96.23-1.41-.02-.04-.03-.11-.12-.07.08.24.04.48.04.73,0,.24-.1.45-.29.62-.08.07-.13.07-.18-.03-.19-.38-.56-.72-.27-1.21.01-.02,0-.05,0-.08.02-.14.03-.28-.08-.4,0,.14-.02.27-.03.39-.08.09-.05.3-.18.3-.12,0-.17-.16-.23-.28-.01-.03-.05-.05-.07-.07-.12-.18-.26-.34-.43-.47-.02-.05-.05-.09-.11-.1ZM30.05,20.34s0,0,0,0c0,0,0,0,0,0ZM28.15,17.58s.05.03.08.01c0-.03-.02-.06-.06-.05,0,0-.02.03-.02.03ZM13.27,16.64c.81-.22,1.49.04,1.93.74.49.77.79,1.62,1.12,2.46.24.62.48,1.25.87,1.8.44.61,1.01,1.06,1.76,1.34-.18-.59-.38-1.16-.07-1.73,0-.04.01-.08.05-.1,0-.04.02-.08.06-.1.01-.07.04-.12.1-.16.02-.02.04-.05.05-.07l.06-.08c.02-.08.06-.14.14-.17h0c.04-.1.08-.2.13-.3.04-.25-.02-.48-.1-.72-.06-.11-.13-.21-.19-.32-.03-.04-.05-.08-.08-.11-.37-.36-.71-.75-1.02-1.16v-.02c-.16-.14-.27-.31-.37-.48-.27-.37-.5-.77-.64-1.22-.06-.13-.08-.27-.09-.41,0-.09,0-.18-.01-.27,0-.07,0-.14,0-.21,0-.04,0-.08.01-.11.09-.73.56-1.26,1.29-1.45.46-.12.93-.12,1.39-.02.35.08.7.18,1.05.27.03,0,.07,0,.1.01.54.08,1.08.09,1.62.01.02-.02.03-.05.05-.07-.05-.34-.13-.67-.27-.99-.03-.05-.05-.1-.08-.14-.35-.47-.78-.85-1.27-1.16-.02,0-.04-.02-.05-.03-.22-.08-.45-.15-.67-.23-.03,0-.07-.01-.1-.02-.31,0-.63-.05-.94-.01-.05,0-.1.01-.16.02l-.18.04h-.01c-.46.15-.87.4-1.26.67-.05.08-.13.1-.21.13-.14.09-.28.11-.43.01-.08-.03-.16-.07-.22-.14-.17-.08-.34-.15-.51-.23-.07,0-.14,0-.21,0h-.16s-.07.02-.1.02l-.16.05c-.7.39-1.16.95-1.22,1.78-.02.25.03.48.13.71.26.58.94.79,1.49.47.1-.06.19-.12.29-.19.05.29.1.56.14.83.05.08.13.18.05.25-.1.09-.2-.01-.28-.08-.3-.16-.58-.37-.95-.38-.52-.01-.95.18-1.33.5-.12.11-.23.24-.38.31-.05.08-.12.14-.2.19-.08.08-.16.15-.25.23-.02.05-.06.08-.11.09,0,.02,0,.03,0,.05.14.03.26-.03.38-.07ZM19.34,20.56h0s.01.02.01.02v-.02ZM8.45,27.31c-.04-.16-.02-.31-.01-.47.05-.15.11-.3.12-.47h0c.1.02.09.12.12.19.1.32.23.63.42.91.1.14.19.3.42.4-.06-.1-.08-.14-.11-.19-.38-.4-.51-.91-.66-1.42-.01-.07-.02-.13-.04-.2.07-.25.14-.5.22-.76.06.04.05.11.06.17.16.73.36,1.46.81,2.09.05-.12-.02-.2-.06-.29-.09-.22-.18-.44-.27-.66-.19-.45-.19-.94-.34-1.39-.12-.48.19-.87.26-1.33.16.16.12.35.21.5,0,.05.02.1.03.15.03.2.05.39.08.59.08.48.08.98.2,1.45,0,.05,0,.1.01.15.06.27.1.56.41.67.09.06.17.05.26,0,.06,0,.11-.02.16-.05.03-.01.05-.03.08-.04.38-.14.65-.45.98-.67.23-.13.5-.2.64-.47-.22.11-.43.22-.65.31-.31.07-.61.13-.91-.05-.15-.09-.28-.2-.24-.39.04-.2.21-.23.38-.24.17-.01.35,0,.52-.03.25-.05.5-.11.63-.38-.03-.01-.05-.03-.06-.03-.07.03-.14.06-.21.09-.48.2-.95.17-1.39-.11-.28-.18-.34-.38-.22-.66.03-.02.07-.04.1-.06.09,0,.17,0,.26-.01.3.09.58.07.86-.07-.28,0-.54-.07-.8-.16-.05-.01-.11-.02-.16-.04l-.11-.09s-.02-.04-.05-.04l-.14-.12c-.03-.12-.06-.24-.09-.36.01-.11.06-.22.12-.32.04-.02.07-.04.11-.05.1.02.19.05.29.07.28.18.58.23.9.17-.27-.04-.51-.14-.75-.24-.34-.29-.36-.65-.22-1.04.18-.49.47-.9.82-1.32.06.24.11.44.16.65,0,.03.01.07.02.1.08.59.25,1.15.6,1.64h0c.07.16.17.3.29.42,0,.01,0,.02.02.03.07.09.14.18.2.26.15.19.3.38.45.58.02.03.04.07.06.1,0,.07.04.13.09.18.01.03.02.06.04.1.01.07.02.14.07.2,0,.03.01.07.02.1,0,.04-.01.08.03.11,0,.05,0,.1.01.15,0,.6-.2,1.11-.68,1.5.44-.17.72-.57,1.1-.81.47-.23.9-.1,1.3.18.33.22.65.47,1.04.62-.61,0-1.17.17-1.69.46-.05.04-.1.08-.15.12h0c-.19.17-.34.38-.55.53-.09.07-.18.14-.27.21h0c-.13.09-.26.19-.4.28-.09.02-.18.04-.26.1-.06,0-.11,0-.16.04-.07.02-.14.03-.21.05-.15,0-.29.03-.4.13-.02,0-.04.02-.07.03-.08.02-.15.06-.21.11-.04.02-.07.03-.11.05-.07.02-.14.04-.21.05-.19,0-.37,0-.51-.16-.05-.1-.11-.21-.16-.31h0s-.04-.01-.05-.02c0-.02,0-.05-.01-.07,0-.06,0-.1-.02-.12,0-.01-.01-.02-.02-.03,0,0,.02.02.02.03.01.03.02.07.02.12-.07-.03-.13-.05-.2-.08-.02-.01-.04-.02-.06-.04.04-.02.08-.04.12-.05-.04,0-.08.03-.12.05-.02,0-.03,0-.05,0-.03,0-.07,0-.1.01-.03,0-.06,0-.08-.01-.12-.06-.25-.07-.39-.09-.03,0-.07-.02-.1-.03-.04-.01-.07-.02-.11-.04-.09-.04-.17-.07-.26-.11-.36-.2-.62-.51-.87-.83-.02-.03-.05-.07-.07-.1-.02-.03-.04-.07-.05-.1ZM14.51,26.76c0,.09.09.12.18.11.07,0,.16-.02.15-.1,0-.09-.1-.1-.18-.11-.08,0-.16.04-.15.11ZM10.69,28.56s.02,0,.04,0c-.01,0-.02,0-.04,0ZM19.47,23.4h0s0,0,0,0h0ZM15.82,25.89h0s-.01,0-.01,0h.01ZM15.03,22.97h0s0,0,0,0h0ZM12.47,21.72c-.21-.78-.33-1.56-.27-2.37.05-.62.19-1.21.53-1.75.17-.27.39-.49.69-.62.52-.21.99.01,1.32.61.32.58.53,1.21.75,1.83.39,1.07.86,2.1,1.54,3.03.07.09.14.17.22.26.04.08.09.14.17.18.27.31.62.53,1.01.65.27.08.55.16.82-.03.04-.02.07-.03.11-.05.05,0,.08-.02.11-.06.04,0,.08,0,.1-.05.14-.06.28-.11.41-.17.09,0,.18,0,.26-.05.07,0,.14-.01.21-.02.07,0,.14,0,.21,0,.04,0,.07,0,.11,0,.02,0,.04,0,.05,0,.07.02.14.03.21.05l.1.02s.07.04.11.04c.07.07.23.08.21.19-.01.12-.16.13-.26.17-.04.02-.08.02-.12.04-.03,0-.06.02-.09.03l-.11.03c-.15.04-.33.07-.36.25-.02.11.1.16.21.19.03.01.07.03.1.04.07.02.14.04.21.05.21.05.41.09.63.07.07.04.14.04.21.02.12,0,.24.02.36.03.05.02.09.04.14.06.31.13.35.36.1.58-.1.09-.23.15-.36.2-1.14.4-2.3.52-3.49.28-1.23-.25-2.23-.89-3.07-1.8-.02-.06-.06-.11-.12-.14-.09-.11-.17-.22-.26-.33-.03-.09-.07-.16-.15-.21-.06-.09-.12-.18-.17-.27,0-.02,0-.03-.02-.04-.03-.05-.06-.11-.09-.16-.4-.75-.7-1.53-.91-2.35-.1-.39-.17-.78-.33-1.15-.04-.1-.06-.25-.19-.25-.14,0-.14.15-.17.26-.3,1.01-.05,1.95.37,2.87,0,.04,0,.08.05.1.02.03.03.07.05.1.06.17.14.34.25.49.05.13.12.25.21.35l.05.07s0,.05.02.07c1.66,2.52,4.5,3.66,7.39,2.88.57-.15,1.11-.36,1.5-.83.3-.37.23-.77-.18-1.01-.09-.05-.19-.09-.28-.15-.31-.18-.31-.29,0-.49.41-.27.83-.54,1.17-.9h0c.16-.09.29-.22.41-.36.29-.25.56-.53.78-.85.03-.02.05-.04.08-.06h0s.05-.1.08-.15c.29-.29.45-.66.67-1,0-.03.01-.06.02-.1.01,0,.02,0,.04,0v-.09c.17-.24.23-.53.33-.79,0,0,.02,0,.03.01,0,0-.02,0-.03-.01,0-.03,0-.07.01-.1.03-.02.05-.05.06-.08.02-.04.03-.07.04-.11,0,.04-.01.07-.04.11-.02.03-.04.05-.06.08-.03-.36-.14-.44-.48-.31-.25.09-.49.19-.71.35h0c-.27.1-.52.24-.74.41-.03.02-.06.04-.08.05-.13.04-.25.1-.34.2-.08,0-.13.05-.18.11-.06.04-.12.08-.17.11-.13.05-.24.13-.34.22-.02.02-.05.03-.07.05-.02,0-.03,0-.04.03-.23.12-.43.27-.63.44-.15.09-.3.18-.42.31-.09.03-.15.09-.2.16-.1.05-.18.12-.25.2-.1.05-.19.12-.27.2-.35.26-.68.54-.99.85-.05.04-.11.08-.16.12-.02,0-.03,0-.05-.01,0-.03,0-.07,0-.1.27-.24.47-.54.7-.83.04,0,.07-.03.08-.07.3-.3.61-.61.91-.91h0c.07-.04.14-.08.13-.17.07-.06.17-.06.21-.15.12-.08.23-.16.32-.27h0c.17-.1.32-.23.46-.37.06-.03.11-.06.17-.09h0c.07-.06.14-.13.21-.19h.01c.13-.1.27-.19.4-.29.05-.03.09-.07.14-.1.25-.14.5-.29.74-.47h0c.26-.14.52-.28.78-.42.14-.05.28-.11.42-.16.07,0,.15,0,.21-.04l.42.05c.3.14.48.39.63.68.02.05.04.1.06.16.05.23.1.45.16.68,0,.05,0,.1.01.15-.01.11,0,.21.04.32,0,.03,0,.07,0,.1,0,.26,0,.52-.01.78,0,.02,0,.03,0,.05-.01.05-.02.1-.03.15,0,.07-.02.14-.02.21-.06.15-.09.31-.1.47l-.47,1.25s-.04.07-.06.1c-.06.1-.12.19-.18.29-.14.31-.37.57-.54.86-.4.46-.78.93-1.29,1.28-1.67,1.12-3.5,1.63-5.51,1.46-.89-.07-1.72-.34-2.52-.7-.23-.12-.46-.25-.68-.37h0c-.18-.15-.38-.29-.58-.41-.06-.05-.13-.1-.19-.15-.3-.28-.61-.55-.91-.83l-.06-.06c-.03-.07-.08-.12-.15-.15-.02-.05-.06-.09-.12-.1-.01-.01-.03-.03-.04-.04-.01-.02-.02-.05-.04-.07,0-.05-.02-.08-.06-.1-.07-.19-.25-.28-.35-.43,0-.07-.04-.12-.1-.16-.23-.51-.51-.98-.69-1.51,0-.06,0-.11-.05-.16ZM22.3,20.48s.01-.03.02-.04h0s-.01.03-.02.04ZM25.1,21.3c.07,0,.13-.02.18-.05-.05.03-.11.05-.18.05ZM22.02,14.83c-.05.78-.26,1.53-.59,2.24-.03,0-.06,0-.09,0q-.38-.38-.68,0s-.07.07-.11.1c-.24.18-.47.35-.77.12-.18-.15-.37-.31-.55-.46.12.28.29.48.53.66.12.17-.06.16-.13.18-.46.14-.9.07-1.34-.12h0c-.11-.08-.23-.16-.34-.23-.37-.34-.57-.76-.63-1.25,0-.1,0-.21,0-.31.01-.05.02-.1.03-.15.13-.64.43-1.12,1.12-1.27.48-.11.94-.08,1.41.05.31.08.61.21.93.23.08.06.17.05.26.05.26.07.52.09.79.05.07,0,.14.02.15.1ZM19.19,16.8s0-.01,0-.02c0,0-.01,0-.02,0,0,0,0,.01,0,.02,0,.02.02.02.03,0ZM20.81,15.81c-.1-.36-.28-.65-.66-.78-.29-.1-.58-.11-.89-.03.23.56.82.96,1.4.97.13,0,.18-.02.15-.16ZM22.86,19.69h0s0,0,0,0h0ZM24.13,15.55c.29-.06.49-.44.42-.82-.01-.08-.03-.15-.06-.22-.14-.34-.39-.51-.67-.45-.27.06-.45.32-.45.71,0,.04,0,.12.03.19.09.38.43.65.74.59ZM21.22,18.62c-.19-.04-.32.07-.41.21-.23.36-.28.75-.12,1.14.12.31.41.36.64.11.21-.22.24-.51.28-.82-.02-.09-.03-.2-.06-.31-.05-.17-.14-.3-.32-.34ZM23.32,17.92h0s0,0,0,0h0ZM22.4,17.97c0,.15-.02.3.02.45.05.09.09.18.14.27.17.14.35.27.56.32.03,0,.07,0,.1,0,.07-.04.15-.08.22-.12.03-.06.05-.13.08-.19,0-.28-.09-.53-.2-.78-.12-.12-.26-.2-.41-.27-.1.02-.21.04-.31.05-.05.05-.1.1-.16.16l-.04.11ZM23.9,17.53c.38,0,.74-.29.74-.62,0-.27-.21-.44-.53-.45-.39,0-.77.31-.76.63,0,.24.25.44.55.44ZM26.2,16.76s.03-.04.04-.05c.07-.35,0-.51-.35-.64-.14-.05-.28-.07-.43-.11-.03.01-.07.02-.1.03-.06.3.08.54.26.76.15.18.33.17.58.01ZM23.33,20.54c-.21.31-.24.66-.21,1.03.03.07.05.13.08.2.08.1.17.21.25.31.06.02.13.05.19.07.07,0,.14,0,.21,0,.1-.06.2-.12.31-.18.12-.17.2-.36.26-.56,0-.03,0-.07.01-.1,0-.02,0-.03,0-.05,0-.09,0-.17-.01-.26-.07-.16-.13-.31-.2-.47-.02-.02-.03-.04-.05-.06-.19-.13-.4-.17-.62-.09h0c-.07.05-.14.11-.21.16Z"/>
  </g>
</svg>