<?xml version="1.0" encoding="UTF-8"?>
<svg id="Layer_2" data-name="Layer 2" xmlns="http://www.w3.org/2000/svg" viewBox="0 0 20.86 20.86">
  <defs>
    <style>
      .cls-1 {
        fill: #fff;
      }
    </style>
  </defs>
  <g id="Layer_1-2" data-name="Layer 1">
    <path class="cls-1" d="M10.43,0C4.67,0,0,4.67,0,10.43s4.67,10.43,10.43,10.43,10.43-4.67,10.43-10.43S16.19,0,10.43,0ZM16.53,13.24c0,.89-.72,1.61-1.61,1.61H5.94c-.89,0-1.61-.72-1.61-1.61v-5.62c0-.89.72-1.61,1.61-1.61h8.99c.89,0,1.61.72,1.61,1.61v5.62ZM11.87,10.82l-2.5,1.25c-.29.14-.63-.07-.63-.39v-2.5c0-.32.34-.53.63-.39l2.5,1.25c.32.16.32.62,0,.78Z"/>
  </g>
</svg>