<?xml version="1.0" encoding="UTF-8"?>
<svg id="Layer_2" data-name="Layer 2" xmlns="http://www.w3.org/2000/svg" viewBox="0 0 32.79 25">
  <defs>
    <style>
      .cls-1 {
        fill: #428dcb;
      }

      .cls-2 {
        fill: #2ab998;
      }

      .cls-3 {
        fill: #8ec850;
      }

      .cls-4 {
        fill: #ec7026;
      }

      .cls-5 {
        fill: #c2579b;
      }

      .cls-6 {
        fill: #4b4b4b;
      }
    </style>
  </defs>
  <g id="Layer_1-2" data-name="Layer 1">
    <g>
      <path class="cls-3" d="M.04,2.43c0-.88-.04-1.63-.04-2.26h1.88l.08.96h.04c.29-.46.92-1.13,2.18-1.13.92,0,1.68.46,1.97,1.21h.04c.25-.38.59-.67.92-.84.38-.25.84-.34,1.38-.34,1.38,0,2.43.96,2.43,3.06v3.81h-2.18v-3.48c0-1.01-.34-1.63-1.05-1.63-.5,0-.88.34-1.05.75-.04.17-.08.38-.08.54v3.77h-2.18v-3.6c0-.88-.34-1.51-1.05-1.51-.59,0-.92.42-1.05.8-.08.17-.08.38-.08.54v3.77H.04V2.43Z"/>
      <path class="cls-1" d="M13.15.08l1.09,3.48c.13.42.25.59.34.96h.04c.08-.38.21-.54.34-.96L15.83.08h2.39l-1.68,4.27c-1.01,2.81-1.47,3.81-2.18,4.61-.84.92-1.76,1.09-3.81.67l.84-1.51c.29-.04.63-.17.96-.38.34-.17.71-.5.92-.88.08-.08.13-.21.13-.34,0-.08,0-.17-.08-.38L10.68.08h2.47Z"/>
      <path class="cls-2" d="M13.11,16.88c-.71.21-2.01.54-3.31.54-1.8,0-3.1-.42-4.02-1.26-.92-.8-1.42-2.05-1.38-3.43,0-3.14,2.39-4.94,5.65-4.94,1.3,0,2.51.46,3.35-.92,0,0,.04,1.59-1.09,2.22-.8.46-1.17.46-2.26.46-1.88,0-3.27,1.01-3.27,3.06,0,1.93,1.3,3.1,3.1,3.1.5,0,.92-.04,1.09-.13v-2.14h-1.55v-1.84h3.69v5.28Z"/>
      <path class="cls-2" d="M9.8,17.7c-1.85,0-3.23-.44-4.21-1.33-.98-.85-1.52-2.18-1.47-3.65,0-3.17,2.33-5.22,5.94-5.22.27,0,.54.02.8.04.96.07,1.73.13,2.3-.82l.5-.83.03.97c0,.07.03,1.77-1.23,2.47-.86.5-1.31.5-2.4.5-1.9,0-2.98,1.01-2.98,2.77s1.1,2.82,2.81,2.82c.39,0,.65-.03.81-.05v-1.64h-1.55v-2.41h4.25v5.77l-.2.06c-1.25.37-2.39.56-3.39.56ZM10.05,8.07c-3.26,0-5.37,1.83-5.37,4.66-.04,1.31.43,2.48,1.28,3.22.88.8,2.13,1.19,3.83,1.19.89,0,1.9-.16,3.02-.47v-4.78h-3.12v1.28h1.55v2.59l-.16.08c-.26.13-.8.16-1.22.16-2.02,0-3.38-1.36-3.38-3.38s1.36-3.34,3.55-3.34c1.07,0,1.39,0,2.12-.42.45-.25.68-.69.81-1.08-.65.46-1.42.41-2.17.35-.25-.02-.5-.04-.76-.04Z"/>
      <path class="cls-5" d="M23.58,12.48c0,3.1-1.97,4.98-4.86,4.98s-4.65-2.09-4.65-4.82,1.88-4.94,4.82-4.94,4.69,2.18,4.69,4.77ZM16.42,12.6c0,1.84.92,3.14,2.43,3.14s2.39-1.38,2.39-3.22c0-1.68-.84-3.14-2.39-3.14-1.55.04-2.43,1.42-2.43,3.22Z"/>
      <path class="cls-5" d="M18.72,17.75c-2.95,0-4.93-2.05-4.93-5.1s2.1-5.23,5.1-5.23,4.97,2.08,4.97,5.06c0,3.2-2.02,5.27-5.14,5.27ZM18.89,7.99c-2.67,0-4.53,1.92-4.53,4.66s1.75,4.53,4.36,4.53c2.78,0,4.57-1.84,4.57-4.7,0-2.24-1.36-4.49-4.41-4.49ZM18.84,16.03c-1.62,0-2.71-1.38-2.71-3.42s1.09-3.46,2.7-3.51c1.58,0,2.68,1.41,2.68,3.42s-1.07,3.51-2.67,3.51ZM18.84,9.66c-1.3.04-2.15,1.19-2.15,2.94s.84,2.86,2.15,2.86,2.1-1.15,2.1-2.94c0-1.42-.65-2.86-2.1-2.86Z"/>
      <path class="cls-4" d="M26.34,17.29l-3.18-9.42h2.47l1.21,3.98c.34,1.13.63,2.18.88,3.35h.04c.25-1.13.54-2.26.88-3.35l1.26-4.02h2.39l-3.31,9.42-2.64.04h0Z"/>
      <path class="cls-4" d="M26.14,17.58l-3.38-9.99h3.08l1.28,4.18c.24.8.44,1.53.63,2.27.2-.79.41-1.55.63-2.28l1.32-4.22h3l-3.51,9.99-3.04.05ZM23.55,8.16l2.99,8.85,2.23-.04,3.11-8.86h-1.78l-1.19,3.82c-.32,1.04-.61,2.16-.87,3.33l-.05.22h-.46l-.09-.22c-.24-1.14-.53-2.15-.87-3.33l-1.15-3.78h-1.87Z"/>
      <path class="cls-6" d="M4.02,20.56v4.4h-.46v-2.35h-1.68v.71s0,.04-.04.04l-.08.04h-.13c-.08,0-.13-.04-.21-.08l-.34-.29c-.13-.13-.21-.25-.29-.38-.04-.08-.08-.17-.08-.25l.04-.13.08-.08h.04l.08-.04h.38v-1.63H.17v-.38h4.48v.38l-.63.04ZM3.56,20.56h-1.68v1.63h1.68v-1.63Z"/>
      <path class="cls-6" d="M3.39,20.14l-1.93-1.97.34-.34,1.88,2.35-.29-.04ZM7.24,20.52v1.21c0,.25-.08.5-.29.67-.04.04-.08.08-.17.08-.04,0-.08.04-.17.08-.13.04-.25.08-.38.08h-.17l-.17-.04.67.96.25.34.34.38.13.17.21.21-.34.34c-.13-.04-.29-.21-.5-.5-.34-.38-.63-.8-.88-1.21l-.29-.42-.38-.63-.08-.17-.21-.34.38-.29.38.63c.08.17.25.25.54.25.25,0,.38-.04.46-.17.04-.04.08-.13.13-.21l.04-.25v-1.17h-2.55v-.38h3.77v.38h-.71Z"/>
      <path class="cls-6" d="M9,20.52v4.4h-.46v-4.4h-.8v-.38h.67s0-.17-.13-.34c-.17-.25-.38-.5-.59-.8-.29-.34-.54-.5-.75-.5-.29,0-.46.17-.59.5l-.04.29.04.25.13.29.13.25.08.08h-.54l-.17-.21-.08-.17-.08-.21-.04-.21v-.25c0-.08.04-.13.08-.21.13-.34.34-.59.59-.71.13-.04.29-.08.46-.08.21,0,.46.08.67.25.29.21.54.46.71.75l.29.42.34.59h.88v.38h-.8,0ZM17.71,20.52v4.4h-.46v-2.39h-1.3l-.34-.38h1.63v-1.59h-1.72v1.55c-.04.08-.04.17-.08.29-.04.08-.08.17-.21.25-.08.04-.17.08-.29.13h-.38c-.08,0-.13,0-.13-.04l.59.88.25.34.46.5.21.21-.38.34c-.13-.04-.25-.21-.46-.46l-1.13-1.63-.25-.42-.17-.29-.17-.29.38-.25.29.42c.08.21.29.34.54.34l.21-.04s.08-.04.13-.08l.08-.13v-1.59h-2.18v-.38h5.61v.38l-.75-.04h0Z"/>
      <path class="cls-6" d="M21.11,20.52v1.21c0,.25-.08.5-.29.67-.04.04-.08.08-.17.08-.04,0-.08.04-.17.08-.13.04-.25.08-.38.08h-.17l-.17-.04.67.96.25.34.34.38.13.17.21.21-.34.34c-.13-.04-.29-.21-.5-.5-.34-.38-.63-.8-.88-1.21l-.29-.42-.38-.63-.08-.17-.21-.34.38-.29.38.63c.08.17.25.25.54.25.25,0,.38-.04.46-.17.04-.04.08-.13.13-.21l.04-.25v-1.17h-2.55v-.38h3.77v.38h-.71Z"/>
      <path class="cls-6" d="M24.87,20.52v1.38l.17-.17.08-.08.21-.13c.08-.04.13-.08.21-.08h.25c.38,0,.67.13.92.34.25.25.34.5.34.84s-.17.71-.46,1.13l-.21.25-.29.29-.42-.29s.08-.04.17-.08l.29-.34c.29-.34.42-.67.42-.96,0-.25-.04-.42-.17-.54-.04-.04-.13-.13-.25-.17-.08-.04-.17-.04-.29-.04-.25,0-.5.13-.71.42-.17.25-.25.46-.25.71v1.97h-.46v-1.38c-.21.21-.5.34-.84.34-.59,0-1.01-.25-1.21-.75-.08-.17-.13-.34-.13-.5,0-.21.04-.38.13-.54.13-.29.38-.5.67-.63.17-.04.34-.08.5-.08l.25.04.25.08v.38l-.08-.04-.04-.04-.08-.04h-.25c-.13,0-.25.04-.34.08-.17.08-.34.25-.42.5l-.04.21v.17c0,.42.17.67.46.8.08.04.21.08.34.08.21,0,.38-.08.54-.21.17-.17.29-.29.29-.5v-2.3h-2.81v-.38h5.95v.38l-2.68-.08h0Z"/>
      <path class="cls-6" d="M28.64,20.52v4.4h-.46v-4.4h-.88v-.38h2.26v.38h-.92,0Z"/>
      <path class="cls-6" d="M32.08,20.52v1.21c0,.25-.08.5-.29.67-.04.04-.08.08-.17.08-.04,0-.08.04-.17.08-.13.04-.25.08-.38.08h-.17l-.17-.04.67.96.25.34.34.38.13.17.21.21-.34.34c-.13-.04-.29-.21-.5-.5-.34-.38-.63-.8-.88-1.21l-.29-.42-.38-.63-.08-.17-.21-.34.38-.29.38.63c.08.17.25.25.54.25.25,0,.38-.04.46-.17.04-.04.08-.13.13-.21l.04-.25v-1.17h-2.55v-.38h3.77v.38h-.71Z"/>
    </g>
  </g>
</svg>