<?xml version="1.0" encoding="UTF-8"?>
<svg id="Layer_2" data-name="Layer 2" xmlns="http://www.w3.org/2000/svg" viewBox="0 0 60.35 30">
  <defs>
    <style>
      .cls-1 {
        fill: #005ba1;
      }

      .cls-1, .cls-2, .cls-3, .cls-4 {
        fill-rule: evenodd;
      }

      .cls-2 {
        fill: #e76120;
      }

      .cls-3 {
        fill: #009844;
      }

      .cls-4 {
        fill: #444847;
      }
    </style>
  </defs>
  <g id="Layer_1-2" data-name="Layer 1">
    <g>
      <path class="cls-4" d="M24.52,22.98v-3.11h.99c.3,0,.53.08.71.24.18.16.27.38.27.65,0,.18-.05.34-.14.48-.09.14-.21.24-.37.3-.16.06-.38.1-.68.1h-.33v1.34h-.45ZM25.43,20.27h-.46v.97h.49c.18,0,.32-.04.42-.13.1-.09.15-.21.15-.37,0-.32-.2-.48-.59-.48h0ZM27.68,20.93c.31,0,.57.1.78.3.21.2.31.45.31.76s-.1.54-.31.74c-.21.2-.47.29-.79.29s-.57-.1-.77-.3c-.21-.2-.31-.45-.31-.74s.1-.55.31-.75c.21-.2.47-.3.78-.3h0ZM27.66,21.3c-.19,0-.35.07-.48.19-.13.13-.19.29-.19.49s.06.35.19.48c.13.13.29.19.49.19s.36-.06.49-.19c.13-.12.19-.28.19-.48s-.07-.35-.2-.48c-.13-.13-.3-.19-.5-.19h0ZM31.73,20.94h.43l-.9,2.08h-.14l-.6-1.43-.6,1.43h-.13l-.91-2.08h.44l.54,1.24.52-1.24h.3l.52,1.24.54-1.24h0ZM34.11,21.99h-1.44c.01.2.08.36.2.47.12.12.28.18.47.18.27,0,.51-.08.74-.25v.39c-.12.08-.25.14-.37.18-.12.04-.27.05-.43.05-.23,0-.41-.05-.55-.14-.14-.09-.25-.22-.34-.38-.08-.16-.12-.34-.12-.55,0-.31.09-.57.27-.76.18-.19.41-.29.69-.29s.49.1.65.29c.16.19.24.44.24.76v.05h0ZM32.68,21.75h1.03c-.01-.16-.06-.29-.14-.37-.09-.09-.2-.13-.35-.13s-.26.04-.36.13c-.09.09-.15.21-.18.37h0ZM34.98,20.94v.47l.02-.04c.2-.32.39-.48.59-.48.15,0,.31.08.48.23l-.22.35c-.14-.13-.27-.2-.39-.2-.13,0-.24.06-.34.19-.1.12-.14.27-.14.44v1.08h-.41v-2.05h.41ZM36.84,19.87h2.6v.4h-1.08v2.71h-.45v-2.71h-1.07v-.4h0ZM40.1,20.93c.31,0,.57.1.78.3.21.2.31.45.31.76s-.1.54-.31.74c-.21.2-.47.29-.79.29s-.57-.1-.77-.3c-.21-.2-.31-.45-.31-.74s.1-.55.31-.75c.21-.2.47-.3.78-.3h0ZM40.08,21.3c-.19,0-.35.07-.48.19-.12.13-.19.29-.19.49s.06.35.19.48c.13.13.29.19.49.19s.36-.06.49-.19c.13-.12.19-.28.19-.48s-.07-.35-.2-.48c-.13-.13-.3-.19-.5-.19h0ZM42.96,19.87h1.76v.4h-1.32v.95h1.27v.4h-1.27v.97h1.36v.4h-1.81v-3.11h0ZM46.86,21.5v1.49h-.41v-1.14c0-.23-.03-.39-.09-.48-.06-.09-.17-.13-.32-.13-.08,0-.16.02-.23.06-.07.04-.15.11-.24.21v1.49h-.4v-2.05h.4v.27c.21-.21.41-.31.61-.31.26,0,.46.13.6.38.22-.25.44-.38.68-.38.2,0,.36.07.49.22.13.15.19.37.19.67v1.21h-.41v-1.22c0-.17-.03-.3-.1-.39-.07-.09-.17-.14-.3-.14-.17,0-.32.09-.47.26h0ZM48.67,24.03v-3.1h.71c.36,0,.65.09.85.27.2.18.3.43.3.76s-.1.56-.28.76c-.19.2-.43.3-.73.3-.13,0-.28-.03-.43-.08v1.1h-.42ZM49.37,21.32h-.29v1.26c.12.06.25.09.39.09.19,0,.34-.07.47-.2.12-.13.18-.3.18-.51,0-.13-.03-.25-.08-.35-.06-.1-.13-.18-.23-.22-.1-.05-.24-.07-.43-.07h0ZM51.96,20.93c.31,0,.57.1.78.3.21.2.31.45.31.76s-.11.54-.31.74c-.21.2-.47.29-.79.29s-.56-.1-.77-.3c-.21-.2-.31-.45-.31-.74s.1-.55.31-.75c.21-.2.47-.3.79-.3h0ZM51.94,21.3c-.2,0-.35.07-.48.19-.12.13-.19.29-.19.49s.06.35.19.48c.13.13.29.19.49.19s.36-.06.49-.19c.13-.12.19-.28.19-.48s-.07-.35-.2-.48c-.13-.13-.3-.19-.5-.19h0ZM56.01,20.94h.44l-.9,2.08h-.13l-.6-1.43-.6,1.43h-.14l-.91-2.08h.44l.53,1.24.52-1.24h.3l.52,1.24.54-1.24h0ZM58.39,21.99h-1.44c.01.2.07.36.19.47.12.12.28.18.47.18.27,0,.51-.08.74-.25v.39c-.12.08-.25.14-.37.18-.12.04-.27.05-.43.05-.23,0-.41-.05-.55-.14-.14-.09-.25-.22-.34-.38-.08-.16-.13-.34-.13-.55,0-.31.09-.57.26-.76.18-.19.41-.29.69-.29s.49.1.65.29c.16.19.24.44.24.76v.05h0ZM56.96,21.75h1.03c-.01-.16-.06-.29-.15-.37-.08-.09-.2-.13-.35-.13s-.27.04-.36.13c-.09.09-.15.21-.18.37h0ZM59.26,20.94v.47l.02-.04c.2-.32.39-.48.59-.48.15,0,.31.08.48.23l-.21.35c-.14-.13-.27-.2-.39-.2-.13,0-.24.06-.34.19-.1.12-.14.27-.14.44v1.08h-.41v-2.05h.41Z"/>
      <path class="cls-2" d="M16.05,22.32l-.69,1.19c-1.28,2.11-3.38,4.42-5.64,5.49-.24.11-.41.19-.65.29-.15.06-.59.22-.68.28,4.64-.95,8.08-3.02,10.94-6.49,2.38-2.88,4.83-7.54,4.48-12.82-.33-5.06-3.2-8.88-7.46-9.95-4.55-1.15-7.99.9-10.46,4.18-.18.23-.73,1.03-.81,1.29,3.35-1.68,7.36-2.42,10.73.03,2.94,2.14,3.83,6.43,3.06,10.18-.44,2.18-1.32,3.83-2.42,5.65-.09.15-.39.54-.43.66h0Z"/>
      <path class="cls-3" d="M4.3,29.37c-.31.22-1.54-.16-1.85-.22.61.43,1.87.78,2.77.83,1.39.08,2-.16,3.18-.41.09-.06.53-.22.68-.28.23-.1.41-.18.65-.29,2.26-1.07,4.36-3.39,5.64-5.49l.69-1.19c.08-.24.26-.56.37-.81.91-2.1,1.58-4.48,1.37-6.82-.12-1.4-.47-2.65-1.07-3.67-1.98-3.34-6.15-4.58-9.74-2.99-1.96.86-3.2,2.27-4.22,4.04-.14.24-.25.53-.38.73.16-.03.62-.32.83-.42.95-.45,1.85-.78,2.94-.96,2.81-.46,5.77.45,7.21,2.87.68,1.14.87,2.77.7,4.32-.3,2.77-1.68,5.65-3.04,7.29-.32.39-.87,1.01-1.25,1.34-.45.39-.88.74-1.46,1.09-.97.6-2.92,1.34-4.01,1.04h0Z"/>
      <path class="cls-1" d="M2.44,29.16c.32.06,1.54.44,1.85.22-.53-.16-.82-.44-1.02-.92-.57-1.32-.09-3.74.23-5.05.26-1.05.54-2.02.87-3.03l.99-2.89H1.46c-.24.38-.76,2.42-.9,3.01-.66,2.71-1.37,7.38,1.89,8.66h0Z"/>
      <path class="cls-1" d="M1.34,14.9l.29.32c.2-.18.4-.39.72-.54.68-.32,1.41-.35,2.1-.03.15.07.27.15.4.25.16.12.21.21.36.3l.29-.3c-.14-.22-.53-.5-.84-.65-.79-.4-1.67-.36-2.47,0-.28.13-.72.45-.85.66h0Z"/>
      <path class="cls-1" d="M1.85,15.45l.29.33c.3-.16.93-.88,1.98-.39.31.14.33.2.53.39l.35-.39c-.42-.3-.78-.66-1.59-.66-.66,0-1.15.28-1.56.72h0Z"/>
      <path class="cls-1" d="M2.41,16.02l.32.25s.05-.04.08-.06c.17-.12.37-.21.6-.21.44-.01.53.18.82.32l.21-.3c-.46-.57-1.59-.62-2.03,0h0Z"/>
      <path class="cls-1" d="M2.91,16.53l.57.57.47-.54c-.37-.35-.64-.32-1.04-.02h0Z"/>
      <path class="cls-4" d="M26.64,13.52c2.56-.24,1.73,2.52.6,3.14-.53.29-1.07.2-1.73.21l1.13-3.35h0ZM24.28,17.71c.8.02,2.53.11,3.15-.16,1.83-.77,2.36-3.42,1.44-4.41-.6-.65-2.05-.47-2.93-.48l-1.66,5.05h0Z"/>
      <path class="cls-4" d="M31.7,18.08c.64-.2,1.42.49.52.67-.84.16-1.5-.37-.52-.67h0ZM32.72,15.07c.76-.25.47.95.06,1.12-.39.17-.61-.04-.53-.47.07-.35.19-.56.47-.66h0ZM31.74,16.61c-.32.08-.54.19-.65.44-.16.37-.02.6.21.79-.84.32-1.11.9-.72,1.29.61.62,3.33.34,2.87-1.25-.21-.75-1.33-.45-1.53-.83.18-.43.61.09,1.51-.5.41-.27.59-.76.59-1.45h.48s.2-.73.2-.73c-1.14-.15-2.8-.17-3.2,1.06-.07.21-.1.45-.05.68.02.11.05.16.1.24l.19.25h0Z"/>
      <path class="cls-4" d="M53.25,16.93c-1.38.3-1.14-1.82.6-1.75-.08.33-.45,1.54-.6,1.75h0ZM54.14,14.31c-1.27.08-2.28.26-2.65,1.74-.44,1.74,1.09,1.85,2.44,1.63l1.65-5.01h-.89s-.54,1.64-.54,1.64h0Z"/>
      <path class="cls-4" d="M41.04,15.14c-.11.44-.28.88-.42,1.31-.1.33-.11.35-.4.47-1.03.45-.79-.73-.38-1.25.27-.35.54-.58,1.2-.53h0ZM40.24,17.46s.02.03.02.09c0,.03-.01.1-.01.17h.84s1.12-3.32,1.12-3.32c-.78-.12-1.37-.18-2.09.09-2.1.8-2.06,4.38.13,2.97h0Z"/>
      <path class="cls-4" d="M59.2,15.14c-.09.41-.29.9-.42,1.32-.2.65-.88.63-1.02.47-.31-.34.07-1.88,1.44-1.79h0ZM58.39,17.46v.26s.84,0,.84,0l1.11-3.3c-1.46-.42-2.75.18-3.27,1.09-.74,1.28-.26,3.02,1.32,1.95h0Z"/>
      <path class="cls-4" d="M47.47,17.71h.88s.57-1.69.57-1.69c.03-.07.04-.13.06-.18.08-.28.06-.3.35-.51.79-.57.9-.22.73.36l-.62,2.03h.83s.73-2.15.73-2.15c.03-.08.04-.15.05-.2.1-.47.05-.97-.4-1.06-.52-.1-.94.19-1.28.38l.09-.33-.87-.02-1.11,3.36h0Z"/>
      <path class="cls-4" d="M37.16,14.35h-.61s-.27.74-.27.74h.59c-.1.54-1.71,3.43.99,2.48l.17-.86c-.14.04-.39.18-.52.17-.59-.05.14-1.45.25-1.77h.68s.24-.75.24-.75h-.63s.24-.7.24-.7l-.9-.02-.24.7h0Z"/>
      <polygon class="cls-4" points="45.57 17.7 46.51 17.72 48.2 12.67 47.25 12.66 45.57 17.7"/>
      <polygon class="cls-4" points="41.93 17.7 42.81 17.72 44.49 12.66 43.6 12.66 41.93 17.7"/>
      <path class="cls-4" d="M29.18,17.74h.89l1.07-3.4h-.89l-1.07,3.4h0ZM31.14,12.95c.25,0,.39.23.33.52-.07.29-.32.52-.56.52s-.39-.23-.33-.52c.07-.29.32-.52.57-.52h0Z"/>
      <path class="cls-4" d="M34.1,17.74h.89l1.07-3.4h-.89l-1.07,3.4h0ZM36.06,12.95c.25,0,.39.23.33.52-.07.29-.32.52-.57.52s-.39-.23-.33-.52c.06-.29.32-.52.56-.52h0Z"/>
      <path class="cls-4" d="M54.68,17.74h.89l1.07-3.4h-.89l-1.07,3.4h0ZM56.64,12.95c.25,0,.39.23.33.52-.06.29-.32.52-.56.52s-.39-.23-.33-.52c.06-.29.32-.52.56-.52h0Z"/>
      <polygon class="cls-4" points="59.97 18.24 34.07 18.24 34.07 18.58 59.97 18.58 59.97 18.24"/>
      <polygon class="cls-4" points="29.39 18.24 24.11 18.24 24.11 18.58 29.39 18.58 29.39 18.24"/>
    </g>
  </g>
</svg>