<?xml version="1.0" encoding="UTF-8"?>
<svg id="Layer_2" data-name="Layer 2" xmlns="http://www.w3.org/2000/svg" viewBox="0 0 252.64 23.74">
  <defs>
    <style>
      .cls-1 {
        fill: #733200;
      }

      .cls-2 {
        fill: #f7931e;
      }
    </style>
  </defs>
  <g id="Layer_1-2" data-name="Layer 1">
    <g>
      <g>
        <path class="cls-1" d="M51.85,20.85h.02c.14-.8.47-2.69,1.4-6.82.02-.07.06-.11.17-.11h1.82c.09,0,.14.04.11.14l-2.5,9.14c-.03.09-.08.1-.15.1h-1.85c-.11,0-.14-.03-.17-.1-.45-1.89-1.31-5.5-1.63-7h-.02c-.29,1.52-1.28,5.15-1.76,6.96-.02.09-.06.14-.17.14h-1.81c-.09,0-.14-.04-.18-.13l-2.49-9.12c-.01-.09.03-.13.09-.13h1.99c.08,0,.14,0,.17.11,1.15,4.77,1.36,5.97,1.49,6.8h.01c.17-1,.59-2.51,1.6-6.8.02-.09.08-.11.17-.11h1.97c.11,0,.12.03.15.11.53,2.22,1.24,5.08,1.57,6.82Z"/>
        <path class="cls-1" d="M57.75,21.07l-.72,2.12c-.03.07-.08.11-.17.11h-1.75c-.11,0-.14-.06-.12-.14l3.01-8.26c.06-.16.12-.33.15-.87,0-.06.05-.1.09-.1h2.41c.08,0,.11.01.12.09l3.42,9.16c.03.07.01.13-.08.13h-1.96c-.09,0-.14-.03-.17-.1l-.77-2.13h-3.48ZM60.67,19.28c-.3-.94-.9-2.68-1.19-3.69h-.02c-.24.96-.78,2.53-1.18,3.69h2.38Z"/>
        <path class="cls-1" d="M66.26,15.71h-2.97c-.09,0-.11-.04-.09-.13l.21-1.53c.02-.1.05-.13.15-.13h7.54c.11,0,.15.04.17.13l.15,1.52c.02.1-.03.14-.12.14h-2.94v7.45c0,.1-.06.14-.14.14h-1.81c-.11.01-.15-.04-.15-.13v-7.46Z"/>
        <path class="cls-1" d="M79.25,22.99c0,.1-.03.17-.12.2-.5.17-1.25.26-2.09.26-2.92,0-5.2-1.65-5.2-4.78,0-2.91,2.11-4.88,5.44-4.88.95,0,1.57.07,1.96.24.08.03.11.09.11.17v1.56c0,.13-.08.13-.14.1-.5-.23-1.21-.31-1.96-.31-2.02,0-3.26,1.19-3.26,3.05,0,2.23,1.72,3.08,3.3,3.08.74,0,1.3-.06,1.84-.23.08-.03.12-.01.12.07v1.47Z"/>
        <path class="cls-1" d="M86.85,23.3c-.11,0-.12-.03-.12-.13v-3.84h-3.81v3.84c0,.07-.05.13-.15.13h-1.79c-.12,0-.15-.04-.15-.13v-9.11c0-.11.03-.14.14-.14h1.81c.12,0,.15.03.15.13v3.49h3.81v-3.51c0-.07.02-.11.11-.11h1.88c.06,0,.09.03.09.11v9.14c0,.1-.03.13-.12.13h-1.84Z"/>
        <path class="cls-1" d="M97.14,23.3c-.15,0-.28-.02-.28-.24v-2.15c0-.17.03-.21.1-.33l7.43-9.23h-7.21c-.23,0-.3-.05-.28-.21l.5-3.1c.03-.17.1-.21.25-.21h12c.15,0,.18.05.18.19v2.36c0,.14-.03.24-.15.41l-7.06,8.99h7.56c.18,0,.23.12.2.29l-.58,3.01c-.03.14-.08.24-.25.24h-12.43Z"/>
        <path class="cls-1" d="M127.31,15.45c0,4.8-3.09,8.09-8.04,8.09s-7.99-3.27-7.99-8.02c0-4.39,3.04-7.94,8.04-7.94s7.99,3.75,7.99,7.87ZM119.39,20.01c2.13,0,3.39-1.57,3.39-4.46,0-2.7-1.21-4.44-3.54-4.44s-3.44,1.79-3.44,4.44,1.26,4.46,3.59,4.46Z"/>
        <path class="cls-1" d="M145.19,15.45c0,4.8-3.09,8.09-8.04,8.09s-7.99-3.27-7.99-8.02c0-4.39,3.04-7.94,8.04-7.94s7.99,3.75,7.99,7.87ZM137.28,20.01c2.13,0,3.39-1.57,3.39-4.46,0-2.7-1.21-4.44-3.54-4.44s-3.44,1.79-3.44,4.44,1.26,4.46,3.59,4.46Z"/>
        <path class="cls-1" d="M157.83,23.06c0,.17-.08.24-.25.24h-3.92c-.15,0-.23-.1-.23-.24v-15.05c0-.14.05-.19.23-.19h10.55c.2,0,.25.05.28.21l.38,3.05c.03.17-.05.26-.25.26h-6.78v2.96h6.13c.18,0,.23.05.23.21v3.08c0,.14-.08.21-.23.21h-6.13v5.25Z"/>
        <path class="cls-1" d="M171.49,23.01c0,.19-.05.29-.28.29h-3.84c-.23,0-.28-.1-.28-.29v-14.98c0-.17.1-.21.25-.21h3.89c.18,0,.25.05.25.21v14.98Z"/>
        <path class="cls-1" d="M175.29,23.3c-.25,0-.28-.1-.28-.31v-14.93c0-.17.05-.24.23-.24h3.94c.15,0,.2.07.2.21v11.74h6.81c.18,0,.23.07.2.24l-.53,3.05c-.05.21-.18.24-.33.24h-10.25Z"/>
        <path class="cls-1" d="M188.8,7.82h6.05c.2,0,.28.05.33.19.63,2.77,1.63,7.63,2.01,10h.03c.45-2.17,1.51-7.16,2.18-10.02.03-.1.08-.17.23-.17h5.98c.18,0,.23.02.25.14l.5,15.1c0,.17-.1.24-.25.24h-4.04c-.15,0-.23-.02-.23-.19.03-4.56.03-10.85.1-12.45h-.08c-.5,2.41-1.81,8.71-2.74,12.43-.03.14-.13.21-.3.21h-3.77c-.18,0-.25-.02-.3-.21-.75-3.32-1.98-9.26-2.59-12.48h-.08c0,2.91.03,7.51-.15,12.48,0,.19-.05.21-.23.21h-3.64c-.2,0-.25-.02-.25-.24l.75-15.1c.03-.14.1-.14.23-.14Z"/>
        <path class="cls-1" d="M220.33,23.3c-.11,0-.12-.03-.12-.13v-3.84h-3.81v3.84c0,.07-.05.13-.15.13h-1.79c-.12,0-.15-.04-.15-.13v-9.11c0-.11.03-.14.14-.14h1.81c.12,0,.15.03.15.13v3.49h3.81v-3.51c0-.07.02-.11.11-.11h1.88c.06,0,.09.03.09.11v9.14c0,.1-.03.13-.12.13h-1.84Z"/>
        <path class="cls-1" d="M230.86,23.17c-.02.11-.05.13-.15.13h-6.13c-.09,0-.12-.04-.12-.13v-9.12c0-.09.03-.13.12-.13h5.95c.12,0,.15.01.17.11l.17,1.55c.02.07,0,.13-.11.13h-4.2v1.92h3.84c.08,0,.12.03.12.11v1.58c0,.09-.06.1-.12.1h-3.84v2.09h4.45c.12,0,.14.04.12.13l-.26,1.53Z"/>
        <path class="cls-1" d="M232.63,23.3c-.09,0-.12-.03-.12-.13v-9.09c0-.07.01-.14.11-.14,1.36-.03,1.93-.04,3.15-.04,2.5,0,3.9,1.02,3.9,2.86,0,1.19-.78,2.11-1.88,2.52.5.64,2.2,3.08,2.67,3.85.05.09.06.17-.05.17h-2.19c-.14,0-.18-.03-.21-.09-.44-.63-1.39-2.16-2-3.14-.11-.17-.18-.24-.35-.24h-1.1v3.35c0,.07-.05.11-.12.11h-1.81ZM235.72,18.15c1.13,0,1.85-.43,1.85-1.27s-.75-1.25-1.87-1.25c-.5,0-.92.01-1.15.03v2.49h1.16Z"/>
        <path class="cls-1" d="M247.92,23.17c-.01.11-.05.13-.15.13h-6.13c-.09,0-.12-.04-.12-.13v-9.12c0-.09.03-.13.12-.13h5.95c.12,0,.15.01.17.11l.17,1.55c.02.07,0,.13-.11.13h-4.2v1.92h3.84c.08,0,.12.03.12.11v1.58c0,.09-.06.1-.12.1h-3.84v2.09h4.45c.12,0,.14.04.12.13l-.26,1.53Z"/>
        <path class="cls-1" d="M250.19,22.33c0-.66.51-1.12,1.22-1.12s1.24.46,1.24,1.12-.5,1.1-1.24,1.1-1.22-.43-1.22-1.1ZM252.49,13.92c.08.04.08.11.08.16v1.02c0,1.2-.29,4.42-.35,4.84,0,.04-.02.1-.11.1h-1.4c-.06,0-.09-.04-.11-.1-.05-.4-.33-3.59-.33-4.8v-1.02s0-.11.09-.16c.23-.11.8-.2,1.05-.2.33,0,.87.06,1.07.16Z"/>
      </g>
      <g>
        <path class="cls-2" d="M8.24.93c-.58-.58-1.37-.93-2.25-.93s-1.68.36-2.25.93c-.58.58-.93,1.37-.93,2.25s.36,1.68.93,2.25c.58.58,1.37.93,2.25.93s1.68-.36,2.25-.93c.58-.58.93-1.37.93-2.25s-.36-1.68-.93-2.25Z"/>
        <path class="cls-2" d="M17.2,2.14c-.45-.45-1.07-.73-1.76-.73s-1.31.28-1.75.73c-.45.45-.73,1.07-.73,1.76s.28,1.31.73,1.76,1.07.73,1.76.73,1.31-.28,1.76-.73.73-1.07.73-1.76-.28-1.31-.73-1.76Z"/>
        <path class="cls-2" d="M19.89,8.67c-.51-.51-1.22-.83-2-.83H2.84c-.78,0-1.49.32-2,.83-.51.51-.83,1.23-.83,2.01v9.73c0,.78.32,1.49.83,2.01.51.51,1.23.83,2.01.83h15.05c.78,0,1.49-.32,2-.83.51-.51.83-1.22.83-2v-9.73c0-.78-.32-1.49-.83-2ZM14.73,16.57c-.17.3-.42.56-.75.74l-5.18,2.99c-.33.19-.68.28-1.03.28-.37,0-.72-.1-1.03-.28-.31-.18-.57-.44-.75-.75-.17-.3-.27-.65-.27-1.03v-5.98c0-.38.1-.73.28-1.03.17-.3.42-.54.7-.72l.05-.03c.31-.18.66-.28,1.03-.28.32,0,.66.08.98.25l.05.03h0s5.18,2.99,5.18,2.99c.31.18.55.42.72.7l.03.05c.18.32.28.68.28,1.03s-.09.71-.28,1.03Z"/>
        <path class="cls-2" d="M22.12,12.86v5.37l6.06,5.23c.23.2.5.29.77.29.18,0,.35-.04.5-.11.16-.07.3-.18.41-.31.17-.2.28-.46.28-.77v-14.03c0-.31-.11-.57-.28-.77-.11-.13-.26-.24-.41-.31-.15-.07-.33-.11-.5-.11-.26,0-.53.09-.77.29l-6.06,5.23h0Z"/>
      </g>
    </g>
  </g>
</svg>