<?xml version="1.0" encoding="UTF-8"?>
<svg id="Layer_2" data-name="Layer 2" xmlns="http://www.w3.org/2000/svg" viewBox="0 0 64.48 25">
  <defs>
    <style>
      .cls-1 {
        fill: #9f2a1b;
      }

      .cls-2 {
        fill: #d89225;
      }
    </style>
  </defs>
  <g id="Layer_1-2" data-name="Layer 1">
    <g>
      <g>
        <circle id="circle9" class="cls-2" cx="7.39" cy="18.39" r=".18"/>
        <path id="path11" class="cls-2" d="M7.37,16.5c-1.05.02-1.88.87-1.87,1.92.02,1.05.87,1.88,1.92,1.87,1.05-.02,1.88-.87,1.87-1.92s-.87-1.88-1.92-1.87h0ZM9.04,17.77s-.08.1-.05.17c.02.08.08.13.14.12,0,.02,0,.04,0,.05-.09,0-.37.03-.7.08-.3.05-.55.09-.67.13,0-.02-.01-.05-.02-.07.11-.03.35-.13.63-.25.31-.13.56-.26.64-.31.02.03.02.05.03.07h0ZM8.83,17.36s-.05.11,0,.18.11.11.16.08c0,.02.02.03.02.05-.09.02-.36.12-.66.25-.28.12-.51.23-.61.29-.01-.02-.02-.04-.03-.06.1-.06.31-.21.55-.4.26-.2.47-.39.53-.46.01.02.03.04.04.06ZM8.51,17.03s-.02.12.04.18c.06.06.14.07.18.04.01.02.02.03.03.05-.08.05-.31.21-.57.42-.24.19-.44.36-.52.44-.02-.02-.03-.03-.05-.05.08-.08.24-.28.42-.53.2-.27.36-.5.4-.58.02.02.04.03.06.05h0ZM7.67,18.39c0,.16-.13.29-.28.29-.16,0-.29-.13-.29-.28,0-.16.13-.29.28-.29.16,0,.29.13.29.28ZM8.12,16.78c-.02.05.02.12.09.16.07.04.15.03.18,0,.02.01.03.02.05.03-.07.06-.25.28-.44.55-.18.24-.33.46-.38.56-.02-.01-.04-.02-.06-.03.05-.1.16-.34.27-.62.13-.31.22-.58.23-.67.02.01.04.02.06.03ZM7.67,16.65c0,.05.05.11.13.13s.16,0,.17-.06c.02,0,.04.02.06.02-.05.08-.16.34-.29.65-.11.28-.2.53-.23.64-.02,0-.05-.01-.07-.02.03-.11.07-.37.1-.67.04-.33.06-.61.05-.7.03,0,.05,0,.07,0h0ZM7.21,16.64c0,.05.08.09.16.09s.15-.05.15-.1c.02,0,.04,0,.06,0-.03.09-.07.37-.11.7-.03.3-.06.56-.06.67h-.03s-.02,0-.04,0c0-.11-.03-.37-.08-.67-.05-.33-.1-.61-.13-.69.03,0,.05-.01.08-.02h0ZM6.77,16.74s.1.08.17.05c.08-.02.13-.08.12-.14.02,0,.04,0,.06-.01,0,.09.03.37.08.7.05.3.09.56.12.67-.02,0-.05.01-.07.02-.03-.11-.13-.35-.25-.63-.13-.31-.25-.56-.31-.64.03-.02.05-.02.07-.03h0ZM6.36,16.96s.11.05.18,0,.11-.11.08-.16c.02,0,.04-.02.06-.03.02.09.12.35.25.66.12.28.23.51.29.61-.02.01-.04.02-.06.03-.06-.1-.21-.31-.4-.55-.2-.26-.39-.47-.46-.54.02,0,.04-.02.06-.03h0ZM6.02,17.28s.12.02.18-.04.07-.14.04-.18c.02-.02.03-.03.05-.04.05.08.21.31.41.57.19.24.36.44.44.52-.02.02-.03.03-.05.05-.08-.08-.28-.24-.53-.42-.27-.2-.5-.36-.58-.4.02-.02.03-.04.04-.06h0ZM5.78,17.67c.05.02.12-.02.16-.09s.03-.15,0-.18c.01-.02.03-.03.04-.05.06.07.28.25.55.44.24.18.45.33.56.39-.01.02-.02.04-.03.06-.1-.06-.34-.16-.62-.27-.31-.13-.58-.22-.67-.23,0-.02.01-.04.02-.06ZM5.65,18.11c.05,0,.11-.05.13-.13.02-.08,0-.15-.06-.17,0-.02.02-.04.02-.06.08.05.34.16.64.29.28.11.53.2.64.23,0,.02-.02.05-.02.07-.11-.03-.37-.07-.67-.11-.33-.04-.61-.06-.7-.06,0-.02,0-.04.01-.06h0ZM5.63,18.57c.05,0,.09-.08.09-.16s-.05-.15-.1-.15c0-.02,0-.04,0-.06.09.03.37.07.7.11.3.04.56.06.67.06v.03s0,.02,0,.03c-.11,0-.37.03-.67.07-.33.05-.61.1-.69.13,0-.02-.01-.04-.01-.06h0ZM5.73,19.02s.08-.1.05-.17c-.02-.08-.08-.13-.14-.12,0-.02,0-.04-.01-.06.09,0,.37-.03.7-.07.3-.04.56-.09.67-.12,0,.02.01.05.02.07-.11.03-.35.13-.63.24-.31.13-.56.25-.64.3,0-.03-.02-.05-.02-.06h0ZM5.99,19.48s-.03-.03-.04-.05c.04-.03.05-.11,0-.18s-.11-.11-.16-.08c-.01-.02-.02-.04-.03-.06.09-.02.35-.12.66-.25.28-.12.52-.23.61-.29.01.02.02.04.03.06-.1.06-.31.21-.55.4-.26.2-.47.38-.54.45ZM6.27,19.76s.02-.12-.04-.18c-.06-.06-.14-.07-.18-.04-.02-.02-.03-.03-.04-.05.08-.05.31-.21.57-.41.24-.19.44-.36.52-.44.02.02.03.03.05.05-.08.08-.24.28-.42.53-.2.27-.36.5-.4.58-.02-.02-.04-.03-.05-.04h0ZM6.66,20.01c.02-.05-.02-.12-.09-.16-.07-.04-.15-.03-.18,0-.02-.01-.04-.03-.05-.04.07-.06.25-.28.45-.55.18-.24.33-.45.39-.55.02.01.04.02.06.03-.06.1-.16.34-.28.62-.13.31-.22.58-.24.67-.02-.01-.04-.02-.06-.03h0ZM7.11,20.14c0-.05-.05-.11-.13-.13s-.16,0-.17.06c-.02,0-.05-.02-.06-.03.05-.08.17-.33.29-.64.11-.28.2-.53.23-.64.02,0,.05.02.07.02-.03.11-.07.37-.11.67-.04.33-.06.61-.06.7-.03,0-.05,0-.06,0h0ZM7.57,20.15c0-.05-.08-.09-.16-.09s-.15.05-.15.1c-.02,0-.05,0-.07,0,.03-.09.07-.37.11-.7.04-.3.06-.56.06-.67h.03s.02,0,.03,0c0,.11.03.37.07.67.05.33.1.61.13.7-.02,0-.04,0-.06,0h0ZM8.02,20.05s-.1-.08-.17-.05c-.08.02-.13.08-.12.14-.02,0-.05,0-.07.01,0-.09-.02-.37-.07-.7-.04-.3-.09-.56-.12-.67.02,0,.05-.01.07-.02.03.11.13.35.24.63.13.31.25.56.3.64-.02,0-.04.02-.06.02h0ZM8.42,19.83s-.11-.05-.18,0-.11.11-.08.16c-.02.01-.05.02-.06.03-.02-.09-.12-.35-.25-.66-.12-.28-.23-.52-.28-.61.02-.01.04-.02.06-.03.06.1.21.31.4.55.2.26.39.48.45.54-.02.01-.03.02-.05.03ZM8.76,19.51s-.12-.02-.18.04-.07.14-.04.18c-.02.02-.04.03-.06.05-.05-.08-.21-.31-.41-.57-.19-.24-.35-.44-.43-.52.02-.02.03-.03.05-.05.08.08.28.24.52.43.27.2.5.36.58.4-.01.02-.02.03-.03.05h0ZM9,19.12c-.05-.02-.12.02-.16.09s-.03.15,0,.18c-.02.02-.03.04-.05.06-.06-.07-.28-.25-.55-.45-.24-.18-.45-.33-.55-.39.02-.02.03-.04.03-.06.1.05.34.16.62.27.31.12.58.22.67.23,0,.03-.02.05-.03.07h0ZM9.13,18.68c-.05,0-.11.05-.13.13-.02.08,0,.16.06.17,0,.02-.01.03-.02.05-.08-.05-.34-.16-.65-.28-.28-.11-.53-.2-.64-.22,0-.02.01-.05.02-.07.11.03.37.06.67.1.33.04.61.06.7.05,0,.03,0,.05-.01.08h0ZM8.45,18.47c-.3-.03-.56-.05-.67-.05v-.03s0-.03,0-.04c.11,0,.37-.03.67-.08.33-.05.61-.1.69-.13,0,.03,0,.05,0,.08-.05,0-.09.08-.09.16s.05.15.1.15c0,.02,0,.04,0,.05-.08-.02-.36-.07-.69-.11h0Z"/>
        <path id="path13" class="cls-2" d="M8.69,1.89c-.07-.04-.16-.23-.37-.23-.2,0-.32.26-.36.31-.04.05.03.1.08.08.13-.06.11-.23.31-.24.16,0,.2.15.32.16.11.02.09-.03.03-.08h0Z"/>
        <path id="path15" class="cls-2" d="M6.05,2c.07-.02.19-.19.31-.23.13-.05.23.04.28.11.03.05.08.1.13.11.08.01.07-.06.05-.06-.06,0-.06-.18-.17-.27-.07-.05-.18-.07-.31-.03-.13.04-.23.15-.32.22-.09.07-.14.11-.14.11,0,0,.09.06.16.04h0Z"/>
        <path id="path17" class="cls-2" d="M7.31,3.96c-.07,0-.02.14-.1.15-.06.01-.06-.14-.1-.13-.07.03,0,.16.03.18.04.04.12.11.17.02.03-.06.04-.22,0-.22Z"/>
        <path id="path19" class="cls-2" d="M6.69,4.32s-.09.18-.02.27c.06.08.13.09.14.07.02-.03-.06-.11-.1-.13-.04-.03-.02-.21-.02-.21h0Z"/>
        <path id="path21" class="cls-2" d="M8.03,4.69c.06-.02.16-.13.17-.23.02-.11-.01-.25-.03-.25-.05-.01,0,.17-.08.27-.07.09-.2.24-.07.21Z"/>
        <rect id="rect23" class="cls-2" x="11.15" y="19.56" width=".11" height=".11"/>
        <rect id="rect25" class="cls-2" x="11.1" y="19.79" width=".11" height=".1"/>
        <rect id="rect27" class="cls-2" x="11.08" y="20.02" width=".11" height=".08"/>
        <rect id="rect29" class="cls-2" x="10.99" y="17.13" width=".11" height=".1"/>
        <rect id="rect31" class="cls-2" x="11.15" y="17.13" width=".11" height=".1"/>
        <rect id="rect33" class="cls-2" x="11.18" y="17.39" width=".11" height=".1"/>
        <rect id="rect35" class="cls-2" x="10.83" y="16.9" width=".11" height=".1"/>
        <rect id="rect37" class="cls-2" x="11.36" y="17.41" width=".11" height=".1"/>
        <rect id="rect39" class="cls-2" x="11.63" y="18.04" width=".11" height=".1"/>
        <rect id="rect41" class="cls-2" x="11.83" y="17.64" width=".11" height=".1"/>
        <rect id="rect43" class="cls-2" x="11.63" y="17.85" width=".11" height=".1"/>
        <rect id="rect45" class="cls-2" x="11.83" y="17.44" width=".11" height=".1"/>
        <rect id="rect47" class="cls-2" x="11.61" y="17.42" width=".11" height=".1"/>
        <rect id="rect49" class="cls-2" x="11.36" y="17.16" width=".11" height=".1"/>
        <rect id="rect51" class="cls-2" x="11.63" y="17.66" width=".11" height=".1"/>
        <rect id="rect53" class="cls-2" x="9.06" y="19.98" width=".11" height=".07"/>
        <rect id="rect55" class="cls-2" x="9.09" y="20.2" width=".11" height=".07"/>
        <rect id="rect57" class="cls-2" x="9.28" y="19.99" width=".11" height=".07"/>
        <rect id="rect59" class="cls-2" x="8.87" y="20.22" width=".11" height=".07"/>
        <rect id="rect61" class="cls-2" x="9.27" y="20.2" width=".11" height=".07"/>
        <rect id="rect63" class="cls-2" x="9.49" y="20.2" width=".11" height=".07"/>
        <rect id="rect65" class="cls-2" x="9.64" y="19.95" width=".11" height=".07"/>
        <rect id="rect67" class="cls-2" x="9.49" y="19.46" width=".11" height=".07"/>
        <rect id="rect69" class="cls-2" x="9.28" y="19.69" width=".11" height=".07"/>
        <rect id="rect71" class="cls-2" x="9.49" y="19.69" width=".11" height=".07"/>
        <rect id="rect73" class="cls-2" x="9.47" y="19.95" width=".11" height=".07"/>
        <rect id="rect75" class="cls-2" x="9.74" y="18.96" width=".11" height=".07"/>
        <rect id="rect77" class="cls-2" x="9.89" y="19.46" width=".11" height=".07"/>
        <rect id="rect79" class="cls-2" x="9.67" y="19.69" width=".11" height=".07"/>
        <rect id="rect81" class="cls-2" x="9.69" y="19.46" width=".11" height=".07"/>
        <rect id="rect83" class="cls-2" x="9.7" y="19.24" width=".11" height=".07"/>
        <rect id="rect85" class="cls-2" x="9.54" y="17.08" width=".11" height=".1"/>
        <rect id="rect87" class="cls-2" x="9.59" y="17.55" width=".11" height=".1"/>
        <rect id="rect89" class="cls-2" x="9.54" y="16.85" width=".11" height=".1"/>
        <rect id="rect91" class="cls-2" x="9.35" y="16.85" width=".11" height=".1"/>
        <rect id="rect93" class="cls-2" x="9.56" y="17.29" width=".11" height=".1"/>
        <rect id="rect95" class="cls-2" x="4.35" y="18.07" width=".11" height=".07"/>
        <rect id="rect97" class="cls-2" x="4.35" y="17.91" width=".11" height=".07"/>
        <rect id="rect99" class="cls-2" x="4.54" y="17.34" width=".11" height=".07"/>
        <rect id="rect101" class="cls-2" x="4.51" y="17.07" width=".11" height=".07"/>
        <rect id="rect103" class="cls-2" x="4.18" y="17.34" width=".11" height=".07"/>
        <rect id="rect105" class="cls-2" x="4.51" y="16.85" width=".11" height=".07"/>
        <rect id="rect107" class="cls-2" x="4.84" y="16.85" width=".11" height=".07"/>
        <rect id="rect109" class="cls-2" x="4.18" y="17.67" width=".11" height=".07"/>
        <rect id="rect111" class="cls-2" x="4.56" y="18.08" width=".11" height=".07"/>
        <rect id="rect113" class="cls-2" x="4.35" y="16.85" width=".11" height=".07"/>
        <rect id="rect115" class="cls-2" x="5.07" y="16.83" width=".11" height=".07"/>
        <rect id="rect117" class="cls-2" x="4.67" y="16.85" width=".11" height=".07"/>
        <rect id="rect119" class="cls-2" x="4.67" y="17.07" width=".11" height=".07"/>
        <rect id="rect121" class="cls-2" x="4.18" y="17.9" width=".11" height=".07"/>
        <rect id="rect123" class="cls-2" x="3.59" y="17.36" width=".11" height=".07"/>
        <rect id="rect125" class="cls-2" x="3.61" y="17.91" width=".11" height=".07"/>
        <rect id="rect127" class="cls-2" x="4.35" y="17.07" width=".11" height=".07"/>
        <rect id="rect129" class="cls-2" x="3.77" y="17.09" width=".11" height=".07"/>
        <rect id="rect131" class="cls-2" x="3.77" y="17.67" width=".11" height=".07"/>
        <rect id="rect133" class="cls-2" x="3.77" y="17.36" width=".11" height=".07"/>
        <rect id="rect135" class="cls-2" x="3.57" y="16.9" width=".11" height=".07"/>
        <rect id="rect137" class="cls-2" x="3.37" y="17.36" width=".11" height=".07"/>
        <rect id="rect139" class="cls-2" x="3.37" y="17.09" width=".11" height=".07"/>
        <rect id="rect141" class="cls-2" x="3.37" y="16.9" width=".11" height=".07"/>
        <rect id="rect143" class="cls-2" x="3.56" y="17.67" width=".11" height=".07"/>
        <rect id="rect145" class="cls-2" x="3.59" y="17.09" width=".11" height=".07"/>
        <rect id="rect147" class="cls-2" x="4.18" y="16.86" width=".11" height=".07"/>
        <rect id="rect149" class="cls-2" x="4.17" y="17.09" width=".11" height=".07"/>
        <rect id="rect151" class="cls-2" x="4.19" y="18.08" width=".11" height=".07"/>
        <rect id="rect153" class="cls-2" x="4.35" y="17.35" width=".11" height=".07"/>
        <rect id="rect155" class="cls-2" x="4.34" y="17.67" width=".11" height=".07"/>
        <rect id="rect157" class="cls-2" x="3.95" y="17.91" width=".11" height=".07"/>
        <rect id="rect159" class="cls-2" x="3.8" y="17.91" width=".11" height=".07"/>
        <rect id="rect161" class="cls-2" x="3.94" y="16.87" width=".11" height=".07"/>
        <rect id="rect163" class="cls-2" x="3.95" y="17.67" width=".11" height=".07"/>
        <rect id="rect165" class="cls-2" x="3.77" y="16.9" width=".11" height=".07"/>
        <rect id="rect167" class="cls-2" x="3.95" y="17.35" width=".11" height=".07"/>
        <rect id="rect169" class="cls-2" x="3.95" y="17.09" width=".11" height=".07"/>
        <rect id="rect171" class="cls-2" x="3.03" y="19.45" width=".11" height=".09"/>
        <rect id="rect173" class="cls-2" x="3.22" y="19.67" width=".11" height=".09"/>
        <rect id="rect175" class="cls-2" x="2.65" y="19.88" width=".11" height=".09"/>
        <rect id="rect177" class="cls-2" x="2.65" y="19.66" width=".11" height=".09"/>
        <rect id="rect179" class="cls-2" x="2.45" y="19.65" width=".11" height=".09"/>
        <rect id="rect181" class="cls-2" x="2.65" y="20.12" width=".11" height=".09"/>
        <rect id="rect183" class="cls-2" x="4.14" y="20.16" width=".11" height=".09"/>
        <rect id="rect185" class="cls-2" x="3.78" y="20.16" width=".11" height=".09"/>
        <rect id="rect187" class="cls-2" x="3.94" y="20.15" width=".11" height=".09"/>
        <rect id="rect189" class="cls-2" x="3.94" y="19.69" width=".11" height=".09"/>
        <rect id="rect191" class="cls-2" x="3.78" y="19.94" width=".11" height=".09"/>
        <rect id="rect193" class="cls-2" x="3.75" y="19.7" width=".11" height=".09"/>
        <rect id="rect195" class="cls-2" x="3.59" y="19.94" width=".11" height=".09"/>
        <rect id="rect197" class="cls-2" x="3.94" y="19.92" width=".11" height=".09"/>
        <rect id="rect199" class="cls-2" x="2.84" y="19.45" width=".11" height=".09"/>
        <rect id="rect201" class="cls-2" x="4.35" y="20.15" width=".11" height=".09"/>
        <rect id="rect203" class="cls-2" x="3.59" y="20.16" width=".11" height=".09"/>
        <rect id="rect205" class="cls-2" x="4.14" y="19.94" width=".11" height=".09"/>
        <rect id="rect207" class="cls-2" x="4.35" y="19.94" width=".11" height=".09"/>
        <rect id="rect209" class="cls-2" x="3.06" y="19.66" width=".11" height=".09"/>
        <rect id="rect211" class="cls-2" x="3.06" y="20.15" width=".11" height=".09"/>
        <rect id="rect213" class="cls-2" x="2.89" y="20.15" width=".11" height=".09"/>
        <rect id="rect215" class="cls-2" x="3.03" y="19.92" width=".11" height=".09"/>
        <rect id="rect217" class="cls-2" x="2.84" y="19.66" width=".11" height=".09"/>
        <rect id="rect219" class="cls-2" x="2.86" y="19.89" width=".11" height=".09"/>
        <rect id="rect221" class="cls-2" x="3.24" y="20.15" width=".11" height=".09"/>
        <rect id="rect223" class="cls-2" x="3.42" y="19.92" width=".11" height=".09"/>
        <rect id="rect225" class="cls-2" x="3.22" y="19.94" width=".11" height=".09"/>
        <rect id="rect227" class="cls-2" x="3.42" y="19.67" width=".11" height=".09"/>
        <rect id="rect229" class="cls-2" x="3.56" y="19.7" width=".11" height=".09"/>
        <rect id="rect231" class="cls-2" x="3.42" y="20.15" width=".11" height=".09"/>
        <rect id="rect233" class="cls-2" x="5.36" y="19.67" width=".11" height=".09"/>
        <rect id="rect235" class="cls-2" x="4.88" y="18.91" width=".11" height=".09"/>
        <rect id="rect237" class="cls-2" x="4.67" y="18.74" width=".11" height=".09"/>
        <rect id="rect239" class="cls-2" x="4.7" y="18.96" width=".11" height=".09"/>
        <rect id="rect241" class="cls-2" x="4.91" y="19.19" width=".11" height=".09"/>
        <rect id="rect243" class="cls-2" x="5.07" y="18.91" width=".11" height=".09"/>
        <rect id="rect245" class="cls-2" x="4.88" y="18.74" width=".11" height=".09"/>
        <rect id="rect247" class="cls-2" x="5.12" y="19.14" width=".11" height=".09"/>
        <path id="path249" class="cls-2" d="M2.83,17.91s.05-.05.1-.11c.06-.06.03-.16.02-.15-.05.07-.09.07-.13.14-.02.05,0,.17.01.12Z"/>
        <path id="path251" class="cls-2" d="M3.18,18.43s0-.26-.03-.26c-.06,0-.06.2-.06.25.02.09.11.06.09,0Z"/>
        <path id="path257" class="cls-2" d="M2.62,17.5c0,.06.04.09.07.08.02-.01-.03-.06.03-.14.04-.06,0-.18-.02-.14-.03.08-.09.1-.08.2h0Z"/>
        <path id="path259" class="cls-2" d="M2.54,17.29s.06,0,.04-.06c-.01-.03.03-.06.06-.08.03-.02-.03-.04-.09,0-.06.05-.03.12-.01.14Z"/>
        <path id="path263" class="cls-2" d="M2.76,17.71c0-.08.07-.09.08-.14.02-.05,0-.13-.02-.08-.02.05-.1.08-.11.14-.02.08.04.12.05.08Z"/>
        <path id="path265" class="cls-2" d="M2.48,17.03s-.1.06-.07.13c.03.06.07.08.05-.03,0-.04.04-.07.02-.09Z"/>
        <path id="path267" class="cls-2" d="M2.91,17.93c-.07.06-.08.13-.06.17.03.07.05.08.06,0,0-.03.03-.07.07-.11.07-.06.04-.17.02-.17s-.03.06-.09.11Z"/>
        <path id="path269" class="cls-2" d="M2.96,18.16c-.04.09.02.17.05.17.04,0,.04-.1.05-.14,0-.03.03-.15.02-.15-.03,0-.09.06-.11.11Z"/>
        <path id="path271" class="cls-2" d="M2.37,16.96s-.08.11-.06.14c.05.06.04-.01.04-.05,0-.05.07-.09.02-.09h0Z"/>
        <path id="path273" class="cls-2" d="M3.36,18.47s.05,0,.03-.05c-.02-.05-.1-.07-.11-.05,0,.03.04.08.07.1h0Z"/>
        <path id="path275" class="cls-2" d="M6.03,2.87s-.03.03-.04.05c0,0,0,0,0,.01.02-.02.05-.06.05-.06Z"/>
        <path id="path277" class="cls-2" d="M11.01,17.98s-.08.05-.08.08c0,.04.08.03.1,0,.02-.03,0-.08-.02-.08Z"/>
        <path id="path279" class="cls-2" d="M10.36,17.69c.09-.04.13-.12.13-.16,0-.06-.07.01-.1-.06-.02-.05.03-.09.08-.13.05-.04-.11-.06-.24,0-.13.06-.19.26-.13.23.02,0,.08-.06.1-.05,0,0-.02.03-.03.05,0,.03.03.08.06.08.03,0,.02-.03.03-.06s.03-.06.06-.04c.06.02.02.08-.05.11-.05.02-.02.08.09.03h0Z"/>
        <path id="path283" class="cls-2" d="M14.31,3.96c-.1-.14-.18-.17-.26-.3-.07-.1-.02-.15-.03-.33-.01-.52-.47-.61-.76-.66-.22-.05-.32-.03-.34-.12-.03-.11-.12-.33-.18-.45-.13-.22-.37-.36-.48-.44-.18-.13-.45-.18-.64-.14-.17.03-.37.13-.52.25-.24.2-.22.35-.34.35-.16,0-.37.06-.56.12s-.22,0-.25-.06,0-.18-.11-.33c-.1-.14-.25-.16-.22-.36.03-.18.03-.4-.05-.57-.06-.13-.13-.08-.13-.22s-.06-.3-.14-.4c-.13-.14-.4-.15-.57-.13-.17.03-.2.02-.23-.04-.06-.11-.21-.14-.34-.11-.08.02-.12.11-.23.1-.1-.02-.08-.13-.25-.09-.09.02-.13.14-.2.08s-.11-.13-.17-.11c-.06.02-.08.11-.14.11s-.17-.13-.34-.11c-.09.01-.13.04-.16.05-.12.04-.05-.12-.29-.03-.06.02-.13.23-.19.2-.05-.02-.15-.13-.31-.06-.1.05-.09.1-.24.1-.12,0-.26-.09-.5.03-.25.12-.25.32-.23.38.05.16.03.42.07.5.04.07.03.2-.09.33-.1.11-.17.38-.25.47s-.19.04-.28,0-.24-.15-.43-.16c-.18,0-.3-.03-.45-.21-.15-.18-.32-.21-.44-.23-.09-.02-.31,0-.43.09-.05.05-.15.19-.24.16-.09-.02-.19.02-.3.06-.11.05-.22.16-.33.3-.1.13-.15.25-.17.28-.02.04-.12.18-.17.21-.08.05-.28.25-.45.26-.06,0-.17.08-.27.18-.1.1-.1.33-.13.48-.03.15-.22.31-.3.39S-.03,4.2,0,4.39c.02.14.05.25.11.28s.11,0,.17.05c.03.03.03.12,0,.14s.18.22.25.27c.07.04.14.02.17.09.03.08.13.25.16.3.06.09.03.1.13.22.1.12.2.19.27.27.08.1.11.19.13.2.05.06.21.04.36,0,.15-.03.27-.23.3-.33.02-.09.08-.16.08-.08s.05.27.04.38c0,.11-.09.1-.14.2-.05.1-.02.16-.04.25-.02.1-.3.27-.31.58,0,.07.1.13,0,.22s-.07.19-.08.49c0,.2.07.15.03.22-.12.2-.03.44.08.55.11.13.14.06.08.2-.06.13.1.45.19.57.09.12.32.2.32.42,0,.26.33.4.36.42.04.03.01.31.08.42.07.11.31.14.25.3-.09.22-.02.41-.02.71,0,.31.21,1.11.25,1.37.04.26-.19.55-.17,1.06.03.51-.11.93-.25.95s-.37-.08-.55,0c-.18.08-.22.38-.23.43-.02.05-.29.14-.35.32-.06.18.04.43.07.48.03.06-.1.12-.17.16-.09.05-.13.12-.17.23-.03.06-.1.04-.16.04-.05,0-.17.11-.18.2-.02.08-.02.17-.02.22,0,.08-.06.1-.07.15s.03.28-.04.37c-.02.03-.02.48-.02.48,0,0-.1.08-.16.17s-.04.37,0,.44c.05.08.24.06.23.14-.01.08,0,.75.08.84.07.1.2.44.25.56.04.12.16.11.22.17.06.08.17.1.26.1.19,0,.59.11.75.1.09,0,.18-.02.16,0-.27.22-.14.52-.06.66.08.14.37.24.51.27.11.03,4.22.11,4.22.11,0,0,3.41-.03,3.61-.04.2-.02.35-.05.5-.14.16-.09.34-.32.31-.55-.02-.22-.04-.31,0-.32.04,0,.33-.09.58-.17.24-.08.56-.33.59-.43.02-.05.04-.25.16-.29.1-.03.05-.17.08-.22.03-.05.14-.06.14-.21s.05-.51.08-.6c.03-.07.13-.13.18-.16.08-.05.05-.42.03-.46-.05-.07-.21-.08-.23-.27-.01-.09.02-.21.02-.31,0-.1-.11-.12-.09-.2,0-.06-.02-.2-.08-.25-.06-.05-.14-.03-.15-.07s-.03-.18-.14-.24c-.06-.03-.03-.08-.06-.17s-.35-.17-.22-.38c.13-.21,0-.49-.21-.56-.08-.03-.02-.18-.09-.27-.08-.09-.26-.28-.5-.25-.12.01-.39.01-.42-.02-.08-.07-.18-.27-.17-.47,0-.18-.16-.54-.26-.76-.06-.13-.11-.25.03-.52.14-.26.19-.82.19-1.02,0-.18-.06-1.06.02-1.07.28-.05.08-.24.22-.34.13-.09-.03-.18.11-.27.14-.09.21-.19.22-.29s.14-.27.2-.35c.05-.09-.02-.2.03-.23.12-.08.34-.27.34-.39s-.1-.19,0-.27c.11-.09.22-.32.24-.44.03-.2-.18-.09,0-.3.16-.19.17-.42.14-.56-.04-.14-.13-.12-.07-.25.03-.06.04-.17.03-.23-.02-.1-.05-.2-.14-.31-.11-.14.06-.05.05-.19s-.16-.3-.19-.38c-.02-.04-.04-.15-.06-.21-.01-.04-.11-.17-.19-.27-.05-.05-.11-.22.04-.22.2,0,.16.23.19.32.04.12.17.17.23.19.06.03.19.02.29-.04.08-.05.23-.27.3-.34s.21-.14.24-.25c.04-.13.11-.22.17-.28.09-.08.27-.17.33-.23.12-.11.16-.14.29-.28.14-.15.22-.31.25-.44.05-.18-.09-.33-.22-.52h0ZM.89,18.64s-.03-.04-.03-.09.02-.09.03-.09.03.04.03.09-.02.09-.03.09ZM13.46,18.17s.12.07.12.2-.08.2-.11.22c-.02,0-.03-.4,0-.43ZM13.21,18.19c0-.28,0-.8.05-.85.05-.04.16.98.09,1.41-.03.16-.06.53-.13.7-.03.08,0-.98,0-1.26ZM12.81,17.09s.17.41.21.72c.04.36.06,1.04.02,1.31-.04.28-.13.76-.17.8-.04.04-.05-.88-.04-1.04,0-.16,0-.88-.03-1.12-.02-.2-.02-.67.01-.67ZM9.92,2.82c.05-.1.12-.18.37-.37.09-.07.26-.19.36-.13.12.07.23,0,.29.05.11.08.08.09.12-.03.03-.09-.01-.17.14-.35.11-.13.31-.23.51-.23.2,0,.5.08.55.3.03.12-.17.27-.14.27s.08-.02.11-.04c.02-.01.07-.04.08-.07.03-.05.01-.12.08-.12.06,0,.03.1.03.12,0,.02-.02.06-.05.08-.05.02-.06.04.02.03.1-.02.08-.09.14-.08.07.02.04.22.02.3s-.08.24-.24.21c-.11-.02-.3-.08-.32.03-.02.11,0,.19-.02.25-.04.13-.08.1-.11-.02-.02-.06-.05-.08-.05,0,0,.07.01.14-.08.18-.09.04-.41.06-.5.24-.05.1,0,.26-.06.31-.09.06-.25.02-.27-.09-.02-.11.03-.3.15-.42.12-.11.08-.18.18-.28.03-.03,0-.16-.04-.16-.11,0,0,.2-.1.18-.09-.03-.2-.17-.14-.21.11-.07,0-.26-.06-.27-.07,0-.02.17-.02.29,0,.11-.07.33-.18.39-.19.11-.31.03-.41.07-.07.03-.11.04-.11.09.01.06.02.13-.04.16-.08.04-.36-.18-.25-.31.03-.03.11.01.16-.03.09-.07.06-.19.2-.21.13-.02.33-.05.41-.14.1-.11.1-.28.07-.3-.06-.03,0,.13-.09.18s-.15,0-.27.06-.35.31-.45.29c-.05,0-.09-.09-.03-.23h0ZM11.72,4.07c.1.02-.02-.06.09-.19.03-.04.14-.13.23-.11.02,0,.07.07,0,.2-.03.07-.02.24-.06.33-.05.11-.25.21-.42.24-.17.02-.29.09-.31.14-.02.06.14.11.2.13.06.03,0,.11-.12.13-.09.01-.27-.07-.29-.22-.02-.15.08-.45.16-.51.08-.06.14.08.2.1.06.02.27.02.36-.05.05-.03.06-.09.02-.1-.1-.02-.2.01-.28-.04-.08-.05-.16-.28-.18-.34-.02-.06-.04-.17.04-.19.09-.02.3-.11.36-.15.06-.04.14-.19.23-.22.06-.02.11.03.12.13,0,.09-.03.21-.11.2-.03,0-.05,0-.13.07-.13.12-.2.19-.22.29-.03.09.01.15.09.17h0ZM11.52,7.37c.13,0,.12-.07.13-.14.01-.13.22-.3.31-.3.11,0,.2.11.16.22-.06.15-.16.13-.3.28-.11.13-.08.19-.1.26-.01.03-.09.08-.09-.1,0-.06-.19-.02-.23-.03-.13-.04-.14-.28-.25-.45-.09-.14-.23-.06-.29-.3-.04-.16.03-.16-.06-.31s-.13-.19-.16-.28c-.02-.06-.08-.2.15-.38.2-.16.31-.1.35-.06.03.04.07.11.08.17,0,.11-.2.08-.31.21-.06.08-.11.15-.04.19.08.04.17-.12.23-.09s.19,0,.32-.09c.09-.06.13-.04.12.06-.01.15-.11.22-.25.29-.18.1-.25.32-.2.41.05.09.1.11.14.02.05-.12.02-.22.21-.25.17-.02.14-.16.22-.16.12,0,.12.13.07.22-.05.09-.34.23-.34.42,0,.2.07.2.15.19h0ZM11.24,8.54s-.05.07.03.31c.04.12.03.22,0,.14-.03-.1-.07-.16-.09-.3-.02-.08-.16-.11-.12-.23.03-.12.11-.21.16-.32s.09-.2.17-.32c.03-.05.13-.02.18.11.05.13-.02.27-.08.38-.09.15-.24.18-.23.25h0ZM11.07,10.12c-.1-.06-.22-.2-.2-.47.01-.11.14-.25.25-.31.08-.04.04-.16.08-.16.08,0,.09.12.06.22-.03.11-.11.14-.18.3-.07.16.12.5-.02.41ZM10.83,9.61s-.15.07-.23-.11c-.06-.13,0-.16-.04-.31-.05-.14.26-.41.31-.45.03-.02.12.17.12.24,0,.07-.25.28-.27.4-.02.13.07.18.11.22ZM10.37,10.07c-.03.1.08.12.08.15,0,.04,0,.09-.18-.08-.06-.05-.08-.14-.03-.28.05-.14.09-.2.14-.29.06-.11.08-.09.08-.09,0,0,.1.24-.04.31-.08.04-.02.14-.06.27h0ZM10.13,9.67c-.02.13-.04.31-.1.28-.06-.03-.14.18-.21.17-.07,0-.09-.13-.07-.2.02-.08.23-.27.25-.31.02-.04-.03-.17-.04-.23-.02-.06.17-.27.2-.27.05,0,.14.25.09.32-.05.07-.11.11-.13.24h0ZM10.11,10.33c-.07.02-.15-.07-.16-.14,0-.05.03-.11.08-.13.07-.03.08.11.13.13.06.03,0,.13-.05.13ZM9.66,9.33s-.11-.09-.08-.15c.05-.08.13,0,.18.05.06.07.09.24,0,.3-.06.04-.13.05-.09-.04.03-.09,0-.13-.01-.16ZM9.8,14.16s.14.36.17.46c.01.03.06.29.06.33,0,.06-.19-.1-.18-.18.06-.28-.13-.58-.06-.61h0ZM9.86,15.02s.27-.05.25,0c-.02.06-.24.17-.34.13-.04-.01.04-.09.09-.13ZM11.62,16.43c.08.03.18.19.16.27-.02.06-.09.13-.14.08-.06-.06-.02-.18-.09-.21-.05-.02-.14-.05-.16-.14,0-.03.16-.03.23,0h0ZM11.46,16.22s.08.03.07.08c-.01.04-.03.08-.07.05-.04-.03-.05-.11,0-.13ZM12.12,20.26s-.18.03-.2.03h0s0,0,0,0c.02,0-.03-.13.04-.16.11-.05.09-.2.1-.22,0-.02-.08-.07-.08-.13,0-.04.08-.21.08-.21,0,0,.14.16.17.18s.06.16.02.15-.08.22-.1.23c-.04.02.02.11-.03.12ZM12.24,16.61s-.06-.06-.02-.07c.02,0,.06,0,.09.02.08.05.18.25.03.24-.04,0,0-.14-.1-.19h0ZM12.23,16.3c-.05.11-.03-.05-.03-.09,0-.05-.04-.16-.15-.23-.05-.03-.03.03-.05.06s-.05-.09-.05-.11,0-.04.06-.02c.05.02.12.09.15.12.03.03.13.17.07.28ZM12.14,16.22s-.04.14-.06.14c-.02,0-.03-.14-.02-.18,0-.05.01-.09.04-.09.02,0,.05.09.05.13h0ZM12,16.5c.09.04.14.23.11.27-.05.05-.14.06-.13-.08,0-.09-.06-.11-.12-.15-.02-.01-.07-.08-.02-.09.04,0,.11.03.16.05ZM11.95,17.34l-.02.51h-.1v.1h.1v.12h-.1v.1h.09v.1s-.5.02-.49-.05c0-.02,0-.03,0-.05h.06v-.1h-.06v-.12h.06v-.1h-.06s-.01-.06-.02-.09h.08v-.1h-.11v.03c-.06-.11-.16-.1-.26-.15-.04-.02-.07-.04-.11-.05h.04v-.1h-.1v.07c-.07-.03-.11-.05-.11-.05,0,0-.02-.09-.04-.18h.08v-.1h-.09s0-.02,0-.02c0-.1-.06-.25-.06-.25.09-.04.22-.02.35.02h-.09v.1h.11v-.09s.08.03.12.04h-.04v.1h.11v-.07c.14.06.28.14.4.21h-.08v.1h.11v-.08c.14.09.24.16.24.16h0ZM11.44,16.77c-.09.01-.18.03-.22-.05-.02-.04-.11-.2-.14-.24-.09-.13-.04-.1.02-.1.13,0,.14.06.18.1.04.05.21.29.16.29ZM11,16.72c-.07,0-.19.04-.2-.09,0-.11-.14-.18-.14-.25,0-.03.12-.04.19-.02.09.02.22.36.14.37ZM10.67,16.58s.03.14,0,.14c-.05,0-.1,0-.14,0-.05,0-.03-.15-.14-.23-.1-.08-.17-.17-.13-.17h.19s.2.13.22.26h0ZM10.39,16.95s-.05.08-.1.09c-.06,0-.11-.08-.11-.12,0-.08.04-.11.1-.11.09,0,.13.08.11.14h0ZM10.41,16.13c-.01.05-.14.07-.17.02-.02-.03.05-.11.02-.22-.03-.11-.09-.23-.06-.23.05-.01.25.3.22.43h0ZM10.25,16.59c0,.06-.06.06-.11.06-.07,0-.14.01-.14-.08,0-.09-.16-.17-.16-.27,0-.03.08-.02.14-.02.07,0,.08.05.1.08.07.09.17.18.17.22h0ZM9.84,17.16s-.02.08-.02.13h-.06v.1h.05c-.01.16-.02.32-.02.32-.01,0-.13.11-.17.11s-.06-.24-.15-.42c0,0,0-.01,0-.02h.02v-.1h-.08s-.04-.08-.06-.11h.05v-.1h-.1s-.05-.09-.08-.13h0v-.1h-.07s-.05-.05-.06-.07h.7s0,.03.02.07h-.05v.1h.08s.01.08.02.11h-.09v.1h.09ZM9.82,18.47v.11h0s-.08.01-.08.01v.07h.08s0,.08,0,.12h-.09v.07h.1c.03.16.09.29.15.37h-.03v.07h.09c.07.1.08.18.08.18,0,0-.05.13-.11.27v-.02h-.11v.07h.09c-.02.05-.04.11-.06.15h-.08v.07h.06s-.01.05-.01.06c0,.09-.21.02-.22.11,0,.09.05.17-.03.17s-1.24.03-1.24.03c0,0,.15-.05.29-.14v.04h.11v-.07h-.06s.04-.03.06-.05c.13-.12.42-.41.57-.64h.05v-.07h0s.02-.03.03-.05c.02-.04.04-.08.06-.13v.04h.11v-.07h-.09s.03-.11.05-.17h.07v-.07h-.05c.06-.24.11-.54.13-.83,0-.03.08.05.11.23h-.08v.07h.08ZM9.39,20.64c-.05-.06-.15-.13-.1-.14.08-.02.07-.02.15.03.08.05.2.13.18.19-.02.07,0,.11-.09.11s-.19,0-.15-.05c.04-.05.06-.08.01-.14h0ZM9.02,20.63s-.12-.11-.08-.12c.05-.02.14-.02.19,0s.14.1.15.16c0,.02-.02.16-.09.17-.09,0-.21.01-.18-.05s.05-.11.02-.15ZM9.12,20.98s.09-.03.14-.03c.06,0,.04.05.04.07.01.06-.06.06-.11.06-.07,0-.08-.08-.07-.11h0ZM9.61,20.98s.08-.02.14-.02.04.03.05.05c.01.05-.06.06-.12.06-.07,0-.08-.07-.06-.09ZM9.72,20.77s.02-.08,0-.11c-.04-.06-.11-.16-.06-.16s.08.01.11.05c.04.04.13.17.13.23,0,.03-.03.05-.09.05-.03,0-.1,0-.08-.07h0ZM8.37,20.62s-.16-.13-.12-.13c.05,0,.09-.05.11-.03.04.02.25.2.25.26s-.01.13-.1.13-.16-.03-.16-.06c0-.06.06-.11,0-.15h0ZM8.05,20.68s-.13-.14-.1-.14c.06-.01.1-.02.14-.04.03-.02.16.14.18.17.03.03.03.12-.01.14-.03.02-.25.04-.21,0,.04-.05.03-.09,0-.13h0ZM6.25,20.77s-.16.06-.2.05c-.04-.01-.12-.17-.07-.2.05-.03.23-.18.28-.18.03,0,.08.03.15.03.04,0-.17.06-.19.11-.02.05.02.17.04.19h0ZM5.87,20.81s-.15.02-.2,0c-.09-.03-.16-.18-.11-.21.07-.05.51-.25.54-.23.03.02.07.03.09.05.04.02-.3.14-.34.22-.05.08.05.15.03.18h0ZM5.44,20.69s.02.08-.07.09c-.13.01-.24-.23-.18-.27.06-.05.35-.16.45-.17,0,0,.11.06.09.08-.02.01-.24.13-.28.16-.05.03-.04.1-.01.12ZM5.09,20.74s-.14.05-.19.01c-.08-.06-.12-.21-.08-.24.03-.03.19-.12.28-.12.08,0,.13.03.13.05,0,.01-.17.08-.2.13-.04.05.11.14.06.17h0ZM2.44,20.02s-.02-.04-.03-.05h.07v-.09h-.11v.05s-.03-.02-.05-.02c-.06,0,0-.23,0-.27,0,0,0,0,0,0t0,0s.39-.08.52-.3c.05-.09.27.01.42.11h-.03v.09h.11v-.03h0c.14.11.65-.03.77.13,0,.01.02.02.03.03h-.03v.09h.11v-.03c.16.07.39.09.43.28.05.25-.09.27-.14.28-.05,0-1.69.02-1.73,0-.04-.02-.2,0-.27-.13,0-.01-.01-.02-.02-.03h.05v-.09h-.09ZM4.67,20.3s.11-.13.14-.17c.02-.04-.01-.19-.03-.23-.03-.04-.13-.21-.18-.23-.06-.02-.13-.06-.17-.07-.09-.03,0-.05,0-.05.05,0,.08.02.11.03.03,0,.22.1.25.14.05.06.17.19.2.27.04.11-.05.16-.06.24,0,.07-.02.09-.09.1-.07,0-.19,0-.17-.04ZM5.12,19.44h0s-.1-.06-.18-.06c-.06,0-.12-.05-.16-.13h.03v-.09h-.08c-.09-.2-.14-.47-.07-.48,0,0,.4-.06.47-.03.02.01.03.04.03.09h-.1v.09h.11v-.03c.02.14.03.34.17.54.01.02.03.04.04.06h-.09v.09h.11v-.05c.2.31.44.71.5.76.07.05,0,.07,0,.07,0,0-.34.03-.38,0-.03-.02,0-.06-.04-.17h.09v-.09h-.11v.05l-.02-.05c-.09-.17-.21-.32-.23-.37,0-.02-.02-.06-.04-.11h.05v-.09h-.11ZM6.34,20.65s.17-.17.17-.17c.05.03.12.05.12.05,0,0-.13.08-.06.19s-.09.1-.15.11c-.06,0-.1-.13-.09-.17h0ZM6.53,21.01s.02-.09.1-.09.2-.02.2.03-.05.13-.16.13c-.08,0-.2.03-.14-.07h0ZM6.72,20.84c-.05-.02-.11-.15-.1-.2.01-.05.03-.09.06-.11,0,0,.16.04.22.04.07,0-.04.06-.03.09.01.03.03.1.05.15.02.06-.15.05-.2.03h0ZM6.95,20.93c.06-.02.3,0,.3,0,0,0-.05.16-.12.17s-.27.02-.27-.02c0-.03.03-.12.09-.15ZM7.32,20.82s-.25.03-.29,0-.12-.23-.06-.22c.14.03.25.04.32.04.05,0,.02.13.03.18ZM7.31,20.92s.28,0,.28,0c0,0-.04.16-.08.17s-.29,0-.28,0c0-.02.04-.16.08-.17h0ZM7.43,20.81s-.03-.18,0-.19c.06-.01.19-.02.22-.03.02,0,.09.19.02.23-.06.04-.2.04-.24,0h0ZM7.42,20.44c-1.13.02-2.06-.89-2.07-2.02-.02-1.13.89-2.06,2.02-2.07,1.13-.02,2.06.89,2.07,2.02.02,1.13-.89,2.06-2.02,2.07ZM4.89,17.07v.07h.09c-.1.07-.2.15-.21.19h-.07v.07h.07c0,.06-.03.14-.12.24,0,0-.01.01-.02.02h-.1v.07h.07c-.01.06.01.11.04.16h-.07v.07h.1s.02.03.02.05c.03.1.05.25-.09.26-.09,0-.32-.09-.54-.14v-.06h-.11v.04s-.03,0-.05,0v-.04h-.11v.04s-.05,0-.07.02c-.01,0-.02,0-.03,0v-.06h-.11v.03c-.09-.1-.09-.38-.19-.5-.11-.13-.17-.43-.21-.63h.09v-.08h-.1s0-.03,0-.05c-.02-.09,1.86-.18,1.97-.11s.06.19,0,.26c-.02.03-.08.07-.14.12v-.06h-.11ZM3.14,16.41c.1-.11.24-.12.32-.11.06,0,.04.06-.04.08-.09.02-.13.11-.13.16,0,.06.04.13-.04.14h-.12c-.07,0-.07-.17,0-.26h0ZM3.08,16.34s-.09.19-.1.26c0,.07-.1.06-.15.07-.06,0-.04-.13,0-.2s.06-.14.13-.15c.07-.02.17-.02.13.02ZM3.58,16.36c.06-.07.09-.09.22-.1.09,0,.06.06,0,.11-.06.05-.13.13-.13.27,0,.03-.21.05-.21-.02,0-.06.04-.17.12-.26ZM4.89,14.4c0-.16.04-.3.08-.39.03-.08.03-.16.08-.27.03-.08-.06-.79.07-.75.09.03.03.4.03.44,0,.08-.03.2,0,.31.02.11-.04.4.13.64.03.04,0,.17-.03.3,0,.02-.08.08-.12.16-.04.06-.05.14-.08.17-.09.09-.2-.05-.27.03-.05.05-.12.09-.13.03,0-.03.04-.09.09-.19.03-.06.05-.13.06-.17.04-.08.09-.16.08-.31ZM4.31,7.04c-.08.08-.12.22-.1.33.02.11.01.31-.08.36-.03.02,0,.2-.06.25-.06.05-.21-.04-.19-.11.01-.03.12-.09.13-.19.01-.09-.08-.18-.18-.3-.09-.12.08-.17.17-.17s.2.02.15-.09c-.04-.11-.24-.26-.27-.44s.14-.14.18-.16c.04,0,.01.2.08.21.07,0,.05.04.11-.06.06-.1-.13-.05-.1-.24.02-.19-.03-.34,0-.42s.09-.19.15-.19c.05,0-.02.2.04.28.09.12.14.16.16.2.03.08.04.15-.05.21-.08.05-.02.09-.11.18-.05.04.06.26-.02.34h0ZM4.11,10.08c-.05.06-.15.1-.22.11-.16.02-.05-.07.03-.2.07-.12-.08-.33.04-.37.14-.05.17.07.24.14.04.04-.02.13-.06.18-.03.05.01.1-.03.14ZM3.74,9.79c-.07.17-.19.17-.25.28-.04.06.11.12-.12.24-.07.04-.16,0-.1-.05.06-.05.06-.22-.06-.31-.07-.05-.09-.22,0-.23.09-.01.15.19.24.19.12,0,.16-.13.15-.22,0-.08-.09-.1-.15-.17-.04-.05-.05-.12-.1-.16-.14-.09-.09-.17,0-.16.16.01.23.18.3.23.09.06.16.19.09.36h0ZM3.7,10.46c-.06.06-.15.05-.23.04-.08-.02.09-.02.14-.27.03-.11.22.11.09.23ZM3.78,8.24s-.13-.13-.14-.17c-.02-.05,0-.14.07-.17.06-.03.1.09.13.18.04.13.14.14.14.22,0,.13-.08.23-.18.26-.09.03-.3.02-.36-.05-.06-.08-.02-.13.01-.13.08-.02.11.1.21.12.09.02.06-.04.12-.09.06-.05.05-.13,0-.17ZM3.56,8.86s-.06-.08,0-.11c0,0,.04-.04.13-.03.09.01.11.06.19.05.08-.02.13-.14.18-.19.06-.05.16.06.17.2,0,.08-.03.13-.14.13-.02,0-.03-.06-.08-.05-.07.02.03.15-.06.27-.08.11-.11.19-.13.09-.02-.06.03-.17-.05-.26-.05-.04-.16-.06-.22-.1ZM4.09,8.02s.08.04.07.09,0,.11-.03.13c-.06.03-.06-.05-.08-.05-.08,0-.08-.16.03-.17ZM4.1,9.46c.02-.07.03-.2,0-.22-.03-.02-.11-.14-.04-.17.03-.01.06-.01.13.07.07.08.11.32.05.38-.05.06-.16.02-.14-.06ZM3.92,5.59c-.06-.1-.42-.07-.56-.33-.06-.1-.01-.18-.02-.29-.01-.15-.12-.17-.12-.26s.14-.18.14-.18c0,0,0,.02.02.03-.05-.05-.03-.26.05-.27.15-.03.15.09.27.2.11.11.17-.02.2.08.01.03,0,.08.12.13.1.05.16.01.22.02.07.02.16.16.13.35-.01.08-.04.12-.16.19-.12.07-.17-.07-.16-.15,0-.08-.08-.17-.14-.2-.07-.03-.2,0-.33-.05-.11-.04-.05-.26-.14-.29.02.02,0,.12,0,.19-.02.13.12.33.2.36.16.08.31.09.42.16.13.07.24.23.16.39s-.28.15-.33.12c-.05-.03.11-.11.05-.22ZM2.75,5.49c-.22-.19-.26-.3-.26-.44,0-.09.07-.17.15-.13.08.05.19.2.27.23s-.03.16.04.19c.05.02.03-.03.05-.04.02-.02.02-.08.03-.12,0-.02.03,0,.04-.02.01-.03.02-.08,0-.12-.03-.07-.08,0-.21-.25-.05-.07-.16-.14-.21-.17-.08-.06-.08-.12-.09-.16-.02-.07-.16-.22-.1-.26.1-.06.14.12.23.16s.11-.01.18.03c.08.04.01.18.13.28s.18.1.21.17c0,.02-.02.06,0,.09.06.11.06.28,0,.36-.1.14-.3.14-.25.17.05.03.2.02.27.18.09.19,0,.41-.13.48-.14.07-.35,0-.31-.04.08-.06.14-.14.16-.27.03-.11-.02-.18-.19-.33h0ZM3.62,3.69s.05.16.14.17.17.03.21.09c.04.06.04.12.12.17s.23.13.25.22c.02.1-.09.2-.16.28-.07.07-.04-.13-.18-.2-.14-.08-.38-.09-.44-.23-.06-.13-.08-.34.07-.5ZM5.55,3.87c-.02-.11-.03-.23.06-.22.07.01.09.08.05.22-.04.12-.04.19-.04.22,0,.2-.1.33-.28.33-.19,0-.08-.06-.19-.17-.06-.06-.18-.11-.22-.2-.03-.08-.04-.18-.01-.28.03-.1.15,0,.28-.08.13-.07.09-.15.16-.15.07,0,.11.17.11.26,0,.09,0,.18,0,.18,0,0,.08-.05.08-.11ZM6.14,4.76s0,.18-.03.23c-.08.09-.26.08-.28.19-.02.12,0,.11-.05.18,0,.01-.07.06-.13.06-.08-.01-.11-.05-.15-.15-.03-.09-.05-.3-.14-.36-.1-.07-.31-.34-.33-.42-.02-.06.02-.07.03-.06.1.06.22.16.3.24.08.08.08-.31.25-.25.11.04.06.23.09.36.08.3.05-.09.14-.12.12-.03.09.15.08.23-.02.07.16-.18.2-.14h0ZM6.52,3.58c-.13,0-.19-.03-.35-.11-.04-.02-.02-.09.09-.06.11.02.14.05.34.05.23,0,.4-.08.52-.14.11-.05.16-.08.18-.16.02-.08-.04-.07-.14.03-.11.1-.52.16-.68.13-.18-.03-.22-.11-.32-.24-.05-.06-.05-.14.03-.15.07,0,.13.2.23.25.15.06.33.09.5.05.11-.03.22-.07.23-.14.01-.04,0-.08-.05-.1-.19-.09-.21-.02-.34-.1-.11-.08-.07-.16-.14-.36-.06-.15.08-.19.08-.19.05,0,.09,0,.09.13,0,.14-.04.23.03.34.07.11.15.01.32.12.08.05.26.1.3.09.1-.02.12-.1.23-.11.1-.01.08.06.2.09.11.03.21,0,.31-.08.08-.07.11-.05.14-.14.03-.09-.02-.1,0-.21.02-.11.26.03.14.33-.04.11-.13.2-.26.26-.13.06-.39,0-.55-.11-.16-.1-.04.08.13.14.34.11.41.07.51.02.17-.08.17-.21.3-.25.1-.03.1.1.02.22-.08.13-.18.2-.38.21-.2.01-.28,0-.4-.05-.19-.06-.22-.13-.36-.22-.08-.06-.04.05,0,.09.08.09.25.23.47.25.15.01.32.06.56-.03.23-.08.17-.24.33-.34.06-.04.11.05.14.1.04.07.03.17,0,.21-.04.05-.09.01-.08-.05.03-.1-.09-.09-.11-.03-.09.22-.36.44-.75.39-.32-.04-.44-.13-.56-.27-.07-.08-.07-.2-.14-.2-.05,0-.02.04-.08.14-.06.09-.17.16-.29.26-.1.08-.19.04-.41.16-.1.06-.28.05-.27-.06.01-.1.18-.06.27-.11.09-.03.03-.03-.04-.04ZM6.46,2.69c.1.08,0,.11.14.24.14.13.33.14.33.14,0,0-.11.06-.31.04-.15-.02-.29-.17-.33-.27-.05-.1.08-.23.18-.16ZM8,2.41c.05-.05.18-.04.18.11s0,.28-.16.36c-.21.11-.26-.08-.26-.08,0,0,.13-.02.21-.09.09-.07-.03-.22.03-.3h0ZM9.03,5.07c.15-.12.06-.48,0-.56-.08-.1.11,0,.19,0,.05,0,0-.09-.13-.14-.05-.02-.06-.07,0-.11.05-.03.16.03.31.18.09.09.04.32-.03.44-.07.12-.06.22-.19.22-.1,0-.14.14-.19.23-.06.09-.13.14-.24.13-.08-.01-.07-.06-.05-.09.02-.02.06,0,.08-.01.04-.03.02-.11,0-.17s-.13-.19-.15-.23c-.08-.11-.02-.19-.02-.19.06-.05.14.19.2.17.03-.01-.12-.27-.04-.33.02-.01.08.21.09.2.06-.04,0-.35.05-.3.05.04.09.18.11.31.01.15-.02.27,0,.26ZM9.94,8.42c-.04-.18-.1,0-.15-.21-.05-.21-.17-.07-.05-.21.04-.05.17-.02.23.11.06.12.14.43,0,.64-.13.21-.01-.15-.05-.33h0ZM9.6,8.57s.13-.03.19.08c.09.15.08.3,0,.33-.08.03-.11-.03-.09-.15.02-.16-.1-.25-.1-.25ZM9.83,7.82c-.08,0-.05-.07-.07-.11-.02-.05-.1-.07-.11-.12-.02-.05,0-.1.04-.13s.09-.07.2-.02.12.15.11.22c0,.06-.09.17-.17.17ZM9.69,7.24c-.2-.02-.03,0,0-.11.03-.1-.03-.06-.09-.14-.06-.08-.08-.24.09-.25.11,0,.19.09.24.24.02.07-.04.28-.23.26ZM8.82,13.26c.05.23.1.53.27.95.05.12.03.38.06.49.03.13-.08.09-.08.19,0,.13-.04.29.04.35.06.05.25.09.3.23.02.08-.02.15-.03.19-.02.05-.02.16,0,.19.03.06.05-.02.09-.08.04-.07.16.01.19.07.02.04.05.21.05.27,0,.07-.05.07-.08.05-.04-.02.04-.2-.02-.26-.03-.03-.09-.05-.14-.02-.08.05.09.25.02.27-.03,0-.08.03-.11,0-.02-.03,0-.16-.03-.17s-.08-.03-.09.08c-.02.12-.03.04-.03-.08,0-.14.06-.21,0-.29-.03-.03-.08-.06-.13-.19-.03-.09.04-.16-.13-.19-.05,0-.23-.05-.21-.14.02-.06.04-.12-.05-.2-.05-.05.06-.22,0-.33-.08-.13-.21-.39-.21-.69,0-.4-.04-.91-.04-.91-.03.01-.06.31-.12.65-.09.47-.21.96-.17,1.07,0,.02.03.12.02.19,0,.07-.09.22-.11.27-.03.09-.06.3-.03.36.03.04-.11.06-.12-.07,0-.09.03-.25.08-.34.03-.05.1-.13.11-.18.02-.08-.06-.23-.08-.25-.05-.08-.02-.23,0-.33.07-.33.25-1.47.28-1.57.03-.1.03-1.38.03-1.54s-.16-.46-.05-.48c.27-.04.27-.06.32-.1.07-.06.25-.31.32-.31.14,0,.24.05.23.11-.04.24.2.44.07.95-.1.39-.06.5-.21.96-.15.44-.24.62-.2.84h0ZM9.22,15.01s.06.07.09.1c.05.05.12.13.1.14-.03.01-.11,0-.14-.04-.05-.05-.07-.17-.04-.2h0ZM9.16,16.48s-.21-.19-.17-.19c.1,0,.18-.03.29.08.04.05.11.14.14.23.01.05-.03.05-.11.05s-.16.02-.14-.05c.01-.03.01-.1-.01-.13h0ZM8.78,16.44c-.09-.06-.19-.16-.14-.17.06,0,.13,0,.16.02.05.03.15.11.17.17.02.05.11.21.05.21-.11,0-.2,0-.22-.05-.01-.06.02-.15-.02-.18h0ZM8.28,16.04c.03.09-.04.16-.1.12-.04-.03-.06-.37.03-.45.07-.07.03-.16-.03-.16-.04,0-.04-.21.05-.21.07,0,.15.29.16.18.01-.08-.05-.23-.08-.34-.03-.13-.03-.28,0-.28.04,0,.05-.2.02-.22-.06-.02-.03-.42-.02-.44s.04-.3.09-.3c.05,0,.08.33.06.4-.01.05.03.08.05.16.02.05-.03.19.02.25.08.11-.01.22,0,.37s-.1.12-.03.33c.02.05.02.13.05.18s.08-.02.09-.08c0-.03.05-.15.1-.21.02-.03.09,0,.12.03.05.04.06.1.02.17-.02.05-.07.08-.11.13-.04.06.12,0,.22.02.06,0,.11.05.14.12.02.04.02.12.02.14-.01.09-.04.18-.07.21-.04.05-.11.02-.12-.02-.02-.06.09-.14.09-.23,0-.03,0-.08-.05-.11-.06-.03-.14-.01-.19.03-.04.04-.05.1-.01.14.04.04.07.07.08.12.02.09-.05.1-.15.08-.03,0-.07-.14-.06-.28,0-.13-.09-.08-.15-.2-.03-.06-.09-.02-.03.05.05.05.06.14.06.22s-.05.13-.11.15c-.02,0-.02-.1-.02-.2-.01-.09-.1-.13-.14-.09-.08.07-.01.2,0,.22h0ZM8.94,16.03s-.05-.03-.06-.08c-.02-.05-.02-.11.03-.11.03,0,.05.03.05.07,0,.03,0,.1-.02.11ZM8.32,15.86s.05.06.03.13-.02.08-.03,0-.04-.13,0-.13ZM8.39,16.3c.08,0,.13.02.18.06.16.13.11.2.07.16-.08-.08-.19-.15-.28-.15-.04,0-.03-.07.03-.07h0ZM9.42,16.3c.08,0,.14,0,.19.03.07.03.22.24.22.27.01.08-.13.06-.18.06-.12,0-.02-.17-.17-.28-.04-.02-.11-.07-.06-.07h0ZM9.52,16.01s0-.07.03-.08c.02,0,.05.07.03.09-.02.03-.06.03-.06-.02ZM7.79,15.67c.1.12.06.41-.03.45s-.64.02-.83.02c-.1,0,0-.16-.05-.24-.02-.04-.13-.17-.09-.21s.1-.2-.01-.32c-.05-.05-.02-.39,0-.44.02-.06.02-.3-.03-.39-.05-.09-.05-.82.15-1.18.09-.17-.14-1.58,0-1.75.03-.04-.02-.16.06-.17.06-.01.12.09.18.05.09-.08.18-.06.23-.05.08.02.12.09.16.11.03,0,.11-.09.14-.04.03.05.04,1.3.03,1.36s.15.92.24,1.11c.06.14,0,.35,0,.35,0,0-.02.09-.02.19,0,.07,0,.26-.05.36-.04.08-.1.27-.17.41-.04.05,0,.27.09.38ZM6.6,15.86s-.16-.13-.21.01c-.02.06,0,.14,0,.17.02.04.09.08.11.15,0,.03-.13.02-.16-.05-.02-.04-.01-.1-.02-.13-.04-.12,0-.23.01-.26.03-.08.12-.08.14-.08.07,0,.14.06.16.09.03.06.04.13.03.19,0,.03.03.09.03.13,0,.05-.06.05-.07.05-.01,0-.07,0-.05-.07,0-.03.02-.08.03-.11,0-.04,0-.09,0-.11h0ZM6.52,15.99s-.08.03-.09,0c-.02-.03-.04-.1.04-.11.03,0,.06.06.05.11ZM5.81,16.22c.07,0,.24-.03.2,0-.04.03-.13.08-.18.15-.02.03,0,.13-.03.16-.02.02-.11.03-.19.01-.08-.02.14-.32.19-.32h0ZM5.76,15.86c.07.02.07.08.07.13,0,.05-.01.09-.04.09-.03,0-.05-.05-.05-.09s0-.13.03-.13ZM6.2,16.19s.16.05.06.11-.16.16-.19.22c-.02.03-.1.03-.1-.06,0-.14.19-.27.23-.28h0ZM6.25,15.72s0,.03,0,.08c0,.06-.01.33-.05.34-.07.02-.05-.09-.02-.17.04-.11-.04-.17-.06-.23s-.01-.17-.05-.25c-.03-.08-.07-.14-.09-.14-.02,0-.06.15-.11.2-.06.05-.09.07-.1.09s-.02.06.03.06.13.02.16.04c.07.06.08.14.07.19-.01.1-.09.19-.11.2-.06.02,0-.21.01-.24s-.04-.08-.09-.11c-.03-.02-.09-.01-.15.02-.03.02-.06.08-.04.11.05.08.05.17.04.19-.03.06-.16.1-.16-.12,0-.1.04-.2.09-.21.05-.02,0-.24.05-.4.02-.07.04-.23.17-.23.05,0,.1.06.15.06s-.02-.2.02-.2c.04,0,.08-.16.13-.17.05-.01.06.08.08.11.02.03.02.32,0,.34-.02.03-.02.07.03.07.05,0,.14-.06.08.06-.02.05-.05.07-.06.1s.02.09.05.06.06-.11.1-.12c.06-.03.12-.01.13.05,0,.06,0,.09-.06.1s-.14,0-.15.03c-.01.04-.06.09-.09.09h0ZM5.5,15.5s-.02.11-.03.19c-.01.06-.01.14-.03.2-.03.09-.06.13-.05.18.05.13-.18.11-.2.05-.02-.06.03-.16.1-.16.02,0,.07-.05.04-.18-.01-.05.05-.12.06-.17.02-.06-.02-.1-.05-.1-.08,0-.21.03-.19-.05.03-.08.02-.18.05-.23.02-.04.06-.06.11-.02.05.04.14,0,.2-.08.07-.12.19-.79.11-.74-.05.03-.03.29-.07.42-.01.03-.04.1-.08.15-.11.13-.2.13-.23.11-.06-.05.03-.3.06-.3.11,0,.08.16.1.16.06,0,.06-.22.03-.31,0-.01-.02-.12-.02-.16,0-.22.03-.73.02-.75-.02-.04.03-1.01-.02-1.06s-.19-.94-.17-1.09c.01-.11-.04-.21-.07-.34-.06-.24-.02-.5.11-.6.04-.03.39-.06.55.09.09.09.31.28.33.38.02.1.07.41,0,.63-.01.04-.06.11-.06.21,0,.21-.03.55.02.86.01.07.02.14.02.19,0,.11.13.49.18.56.12.14.11.38.08.4-.05.04-.06-.18-.12-.21-.04-.03-.08-.02-.08.02.01.06.11.19.11.41,0,.09.04.19.06.3.04.15,0,.41-.09.42-.03,0-.09-.22-.1-.31,0-.06-.03-.09-.05-.14-.02-.05-.04-.11-.06-.11-.05,0,.1.42.01.5-.03.03-.13.13-.14.09-.03-.06-.06-.53-.11-.6-.06-.09.03.53-.06.66-.06.1-.32.45-.29.57h0ZM5.06,16.55c.02.09-.03.1-.15.1-.1,0-.14-.02-.14-.1,0-.05.06-.16.1-.21.05-.06.08-.11.2-.12.07,0,.18-.03.18.01,0,.03-.05.06-.1.11-.06.05-.11.16-.09.21h0ZM5.03,15.76c-.04.05-.07.18-.01.24.04.05.06.11.04.14-.05.05-.14.02-.19-.03-.03-.04-.03-.3.05-.39.06-.07.14-.07.17-.07s.07.03.14.09c.13.12.05.22.03.22-.02,0,.03-.1-.1-.21-.03-.02-.11-.04-.13,0ZM5.12,16.02s-.07-.04-.06-.08,0-.09.03-.08c.02,0,.05,0,.06.05.01.05,0,.11-.03.12ZM5.02,15.37c-.05.1-.23.3-.22.35,0,.02,0,.08,0,.14,0,.18-.06.29-.08.28-.04-.02.05-.14.02-.27-.03-.1-.19-.09-.22-.07-.08.06,0,.36-.05.34-.04-.01-.11-.18-.08-.28.03-.11.14-.19.28-.2.12-.02.13-.08.13-.17s.05-.29.19-.32c.09-.02.08.12.03.21h0ZM4.64,15.97s-.03.11-.06.08c-.03-.03-.02-.17.03-.18.08-.02.05.05.04.1h0ZM4.64,16.24c.11,0,.14.02.13.06,0,.04-.12.09-.15.15-.03.05,0,.14-.05.17-.03.02-.1.01-.22.02-.1,0-.05-.11-.01-.2.06-.17.2-.18.3-.19h0ZM5.11,9.09s.14.15.09.21c-.05.06.03.03-.06.17-.09.13-.2.09-.24-.03-.03-.08.15-.31.21-.35h0ZM4.85,8.99c-.08.05-.09-.15-.06-.24.03-.1.14-.21.22-.25.04-.02.19,0,.14.09-.05.09-.21.35-.3.39ZM7.41,4.21s.07.05.16,0c.07-.03.06-.06.17-.18.09-.09.17-.08.16-.01-.02.09-.14.3-.3.3-.05,0-.16,0-.17.03-.01.04-.15.08-.27-.02-.12-.11-.25-.27-.22-.39.02-.08.17-.17.28-.17.08,0,.09-.09.12-.07.12.11.2.15.34.14.15,0,.03.26-.16.27-.17.02-.16.06-.12.09h0ZM6.94,4.27s.09.13.35.2c.08.02.33.03.45-.06.15-.11.32-.52.44-.55.09-.02.12.58.11.67-.01.09-.22.28-.36.3-.09.01-.25,0-.2-.05.03-.03.14-.06.15-.11,0-.03-.07.01-.14,0-.08-.02-.17-.05-.15-.01.02.05.07.11.03.14s-.33.06-.38,0c-.03-.05.08-.15.04-.18-.03-.03-.06.06-.15.09-.14.05-.25,0-.23.04.03.05.1.04.16.05.06.01.09.04-.03.06-.12.01-.31.03-.4-.06s-.16-.23-.13-.38c.03-.15.05-.49.11-.49.11,0,.24.26.33.36h0ZM8.67,3.74c.02-.06.08-.07.1-.1.04-.06.02-.16.06-.2.02-.02.07-.05.09.03.02.06-.02.17.03.25.05.08.02.14,0,.22-.02.1-.13.11-.24.14-.07.02-.16.08-.21.22-.06.14-.14.02-.14-.03,0-.06-.05-.19,0-.22.05-.04.12-.03.27-.19.06-.06.01-.05.03-.13h0ZM8.45,5.4c.06-.08.02-.36.05-.36s.11.09.13.2c.06.24-.12.02-.07.12.09.21.03.34-.02.38-.1.09-.26.19-.41.17-.1-.01-.08-.04-.03-.08.05-.05.06-.14.05-.23-.02-.09-.09-.19-.08-.25.02-.09.18.16.23.15.05-.01-.06-.24,0-.26.06-.02.12.21.16.16h0ZM8.78,6.1c-.04-.08-.03-.19.09-.19.16,0,.18.14.16.22-.02.06-.08.17-.22.16-.15-.02.04-.05-.03-.19h0ZM9.12,7.2c-.04-.07,0-.21.18-.19.1.01.17.07.19.13.05.14-.02.25-.03.31-.01.06-.12.27-.1.05.02-.23-.14-.09-.25-.29h0ZM8.38,9.06s-.05-.39,0-.44c.09-.08.2.37.35.48.14.11.19.19.15.27-.06.14-.17.2-.12,0,.03-.15-.33-.27-.38-.31h0ZM8.36,10.48s.11,0,.12.02c.03.03.06.1-.02.13-.06.02-.11-.09-.1-.15h0ZM8.33,10.11c.03-.06.1,0,.11.04s.05.14.02.13-.17-.06-.13-.17h0ZM8.39,9.9c-.05-.09-.03-.35-.01-.4.03-.06-.09-.1-.11-.17-.02-.06.08-.06.17-.01.05.03.11.09.12.18,0,.1-.01.17.02.18.05.03.2.28.17.38-.03.11-.08.17-.16.08-.08-.08-.14-.16-.19-.25ZM7.46,10.37c0-.17-.07-.33-.05-.34.03-.02.14.05.19.08.06.04.15.09.19.19.05.14-.11.09-.11.14,0,.02.06.04.13.08.04.02.03.12-.06.13-.16.03-.28-.22-.28-.27h0ZM7.64,11.13s-.1.05-.11.03c0-.01.03-.25.1-.22.02.02.18.03.02.19h0ZM7.37,8.81c-.12-.06-.09-.19-.06-.16.13.11.47.3.54.37.06.06.03.22,0,.25-.14.11-.41-.2-.45-.26s.03-.16-.03-.2h0ZM7.34,9.26s.04,0,.05.04h0s.41.27.46.32c.06.05.03.31-.03.33-.05.02-.26-.12-.26-.2s.05-.08.05-.13-.23-.15-.2-.21-.03-.03-.03-.03h0s-.01.1-.02.11c-.02.03-.05.03-.16.05-.13.02-.21.27-.22.38,0,.1.05.23-.05.19-.08-.03-.22-.2-.2-.28.02-.08.16-.08.22-.18.05-.1-.02-.25.09-.26.16-.01.25-.11.3-.14h0ZM8.09,9.99c.08.05.11.17.11.24-.01.09-.02.11-.2.2-.03.02-.12.02-.09-.06.03-.08.02-.26-.01-.36-.03-.12.16-.05.19-.02ZM8.18,9.43c.07.07.05.23,0,.24-.07.02-.11-.07-.11-.12s-.06-.09-.07-.13c-.02-.09.12-.06.18,0h0ZM7.94,10.6s.06.09.04.15c-.05.13-.16.13-.17.1,0-.02.05-.01.05-.09-.01-.15.05-.17.09-.16ZM7.22,8.93c-.02.13-.31.34-.36.36-.05.03-.03.16-.08.2-.05.04-.13,0-.16-.16-.03-.16.07-.29.21-.33.12-.03.12-.09.12-.16s.09-.16.15-.16c.07,0,.13.1.11.24h0ZM7.11,10.17c.06-.05.16-.29.17-.26.06.19-.04.2-.07.33-.03.12-.28.22-.28.32,0,.1,0,.16-.04.19-.05.03-.17.04-.17-.22,0-.3.33-.29.41-.36ZM7.17,10.8c.09-.03.02-.13.06-.19.03-.03.09-.05.12-.03.06.03.09.06.06.16-.04.13-.08.27-.19.29-.07.02-.1-.21-.05-.23h0ZM7.73,11.18c.02-.14.34-.23.37-.2.06.05.03.3.03.36.01.29.12.3.12.36,0,.12-.11,1.27-.19,1.36-.09.11-.08-.09-.16-.34-.08-.25-.13-.72-.14-.94,0-.26-.06-.45-.04-.6h0ZM8.18,9s-.05.06-.15.08c-.1.02-.01-.09,0-.16,0-.06-.14-.22-.31-.29-.08-.03-.14.02-.3-.14-.06-.06-.05-.2-.15-.26-.08-.05.03-.11-.15-.24h0s0,.06,0,.09c.03.19-.08.21-.14.27-.06.06-.19.15-.18.34.01.12-.09.18-.21.05-.11-.12.02-.38.03-.46.01-.13.05-.11.16-.16.08-.03.13-.15.09-.21-.02-.02-.05-.06-.03-.09.03-.05.24-.11.31-.05.05-.04.14-.09.16-.06.02.05.01.15.03.24.02.09.09.18.17.24s.2.04.31.14c.06.05.02.16.07.2.11.11.19.11.29.15.1.05.07.25,0,.32h0ZM6.23,10.49c0,.08.13.13,0,.14-.15,0-.21-.11-.23-.27,0-.07.15-.22.2-.28.03-.03-.01-.06.02-.11.02-.03.2-.17.23-.17.07,0,.08.3,0,.33-.14.06-.22.25-.21.36h0ZM5.53,10.27c-.08,0-.17-.18-.13-.34.03-.13.1-.08.15-.13.04-.03.02-.09.04-.11.07-.07.12.01.11.03-.03.13-.14.16-.17.38-.02.08.12.16,0,.16h0ZM5.49,9.12c-.09-.03-.18.02-.18-.08,0-.09-.02-.24.05-.42.07-.17.14-.16.14-.16,0,0,.16,0,.08.27-.03.1-.19.18-.16.27.03.09.18-.02.21.08s0,.28-.04.36c-.09.14-.22.23-.23.12s-.09-.17,0-.22c.09-.06.25-.18.13-.22ZM5.41,8.26c.05.06-.2.11-.21-.22,0-.08.08-.25.16-.27.13-.03.18-.2.22-.2.06.01.14.15.11.2-.12.26-.25.23-.27.3-.02.06-.03.14,0,.18ZM5.43,7.2s-.11.04-.09.21c0,.06-.26-.04-.11-.35.15-.31.38-.37.38-.37.08-.02.16.14.18.22.02.08-.28.22-.36.29ZM5.83,8.28c.07-.06-.02-.2.14-.27.13-.05.17-.16.23-.22.05-.05.17.25.15.35-.03.15-.22.19-.31.3-.06.06,0,.14.02.21.02.07-.09.13-.18.01-.1-.13-.16-.28-.05-.37ZM5.92,9.06c.25-.25.28-.47.35-.42.09.06.11.26.1.38-.01.13-.41.27-.43.3-.01.04-.11-.17-.02-.27ZM5.89,9.78c.03-.12.18-.14.24-.26s-.06-.2.08-.22c.06,0,.08-.04.11-.04.05-.01.09.08.05.13s0,.14-.02.19c-.03.07-.27.11-.27.19s-.08.1-.05.2c.03.09.05.18,0,.15s-.17-.2-.14-.33h0ZM6.47,7.87c-.08-.16-.06-.28,0-.37.06-.09.13-.05.27-.16.1-.08.07-.18.11-.26.03-.06.09-.11.14-.13.14-.05.25,0,.27.19,0,.14-.06.2-.1.23-.05.05-.08.05-.17.07-.09.02-.26.23-.28.31-.02.07.09.2.06.23-.06.05-.22.03-.29-.11h0ZM7.48,5.34c.09-.01.21.02.25.08s.1.14.1.14c0,0,.02-.24.08-.24.07,0,.14.25.14.36,0,.11,0,.17-.13.22-.12.04-.28.11-.47,0-.09-.05.07-.09.14-.25.08-.16-.27-.3-.12-.31ZM8.13,6.96c-.02-.15-.21-.14-.31-.21-.11-.07-.23-.21-.25-.37-.01-.11-.25-.19.1-.2.21,0,.22.11.25.16s.13.25.25.33c.13.08.22.23.13.44-.05.11-.16.14-.23.09-.08-.06.09-.04.06-.24h0ZM7.39,5.7s-.04-.03-.04-.06c0-.04.02-.06.04-.06.02,0,.04.03.04.06s-.02.06-.04.06ZM7.39,6.85s-.01-.18.06-.18c.08,0,.31.24.39.31.09.08.1.31.26.36.22.06.23.17.21.23-.02.06-.13.24-.22.27-.09.03-.14-.01-.16-.06-.02-.06.03-.12,0-.22-.05-.12-.43-.3-.54-.34-.09-.03-.17-.25-.14-.29.03-.05.1-.05.15-.08h0ZM7.94,8.47c-.11-.06.05-.13.05-.21,0-.08-.05-.22-.16-.23-.11,0-.2,0-.31-.08-.1-.07-.16-.16-.17-.26-.02-.14.08-.19.14-.21.04-.01.02.1.15.13.15.03.16.06.22.13.09.11.09.22.23.25.18.05.28.22.17.32-.1.1-.24.19-.33.15h0ZM8.85,10.01s.02-.08.05-.08c.07,0,.09.14.1.16,0,.04-.04.08-.09.05-.05-.03-.06-.07-.06-.13ZM8.72,9.03s-.06-.02-.02-.08c.05-.05.06-.14.02-.22-.05-.08-.22-.24-.28-.27-.06-.02-.06-.13,0-.17.04-.03.09-.01.04-.05-.05-.03-.09-.13-.13-.22-.04-.08,0-.12,0-.12.05-.03.13.08.15.1.02.02.17.16.17.18.02.05-.02.15.02.16.09.02.06.1.21.12.14.02.13.21.11.3-.02.07-.17.23-.28.25ZM8.45,7.31c.13.09.12.17.24.38s.27.15.31.24c.03.07.02.12,0,.2-.03.12-.15.18-.21.17-.05-.02-.05-.15-.06-.25-.01-.1-.23-.12-.27-.17-.04-.05-.09-.63,0-.58h0ZM8.77,7.68s.06-.11.06-.19c0-.06-.19-.2-.32-.26-.09-.04-.05-.12-.02-.16.03-.05-.03-.25.05-.23.09.02.2.13.23.17.04.05.14.09.24.22.1.13.16.17.11.31-.06.17-.26.17-.34.15h0ZM9.2,6.89c-.15.03-.08-.08-.05-.11.03-.03.1-.15-.02-.22s-.17-.14-.09-.2c.06-.04.17-.05.32.13.18.21-.02.38-.17.41h0ZM8.99,6.77c0,.06-.13.21-.23.18-.06-.02,0-.07-.04-.19-.03-.12-.17-.11-.25-.14-.07-.03-.24-.11-.3-.28-.06-.17.12-.15.12-.15.16,0,.16.09.17.1.02.02.07.13.24.2.18.07.28.2.28.29h0ZM6.83,5.34s.03.16.05.19c.02.02.07-.14.11-.16.06-.02.03.12.04.17.01.03.2-.21.25-.2.03,0-.11.2-.13.26-.02.07.02.14.03.15.1.06.15.02.15.08,0,.08-.04.02-.12.07-.05.03-.08.08-.15.08-.06,0-.14-.03-.2-.08-.06-.04-.14-.06-.15-.26,0-.15.03-.29.11-.3h0ZM6.75,6.34c.1-.09.14-.11.2-.13.05-.02.16,0,.23,0,.09.02.07.33-.09.47-.16.14-.33.12-.4.24-.06.09-.03.22.02.27.05.05-.24,0-.27-.17-.02-.11.05-.2.13-.29.02-.03.02-.08.04-.14.02-.06.1-.2.15-.25h0ZM6.22,6.66c-.11.1-.08.16-.09.2-.02.06-.17.06-.2-.06-.03-.13.14-.54.39-.67.06-.03.27-.03.29.05.03.19-.28.38-.39.48h0ZM6.04,7.04c.1-.04.27.05.23.16-.03.12-.2.2-.23.28-.03.08-.03.19.03.25s-.11.03-.2-.06c-.06-.06-.11-.2-.08-.33s.16-.26.25-.3h0ZM5.87,6.13c-.09.26-.22.19-.47.33-.1.05-.08-.11-.06-.18.04-.12.19-.19.28-.22s.12-.16.17-.15c.03,0,.1.13.06.23h0ZM5.17,6.09c0,.09-.23-.15-.13-.26.1-.1.14-.22.22-.28.05-.04.14.05.16.18.02.13-.23.26-.24.36ZM5.05,9.85s0-.22.09-.18c.03.01.05.08.07.11.03.07-.02.09-.05.17-.02.05,0,.2-.04.22-.06.03-.14-.12-.14-.22,0-.09.06-.06.07-.1ZM6.62,14.81c.02.11.08.63.05.73-.02.09-.17-.66-.17-.92,0-.17.01-.55.09-.6v.32c0,.14.03.43.03.47ZM6.46,13.38c-.08.08-.08-.33-.08-.39.01-.28-.08-.98-.09-1.11,0-.15-.09-.57-.02-.72.05-.09,0-.38.26-.38.08,0,.19.2.26.22.07.02-.07.28-.08.36,0,.05-.04.08-.04.14,0,.09.03.15.05.24.03.14.02,1.35-.28,1.65h0ZM9.11,10.12c-.1.02-.05,0-.05,0,0,0,.09-.06.08-.17,0-.11-.04-.14-.08-.22-.04-.08-.03-.16.03-.18.13-.05.19.14.19.21,0,.1-.01.32-.16.36ZM9.27,9.28c0-.07-.11.04-.18-.06-.02-.03-.05-.14.06-.18.11-.04.28.11.31.16s-.02.17-.06.19c-.05.03-.13,0-.13-.12h0ZM9.39,8.86c-.02-.11-.11-.2-.19-.27-.08-.07-.1-.04-.12-.08-.02-.05.09-.26.16-.26,0,0,.05,0,.08.06.03.05,0,.13,0,.17,0,.04.07.04.14.1s.06.17.05.23c-.01.05-.09.16-.11.06h0ZM9.41,8.2s.08-.04.05-.11c-.03-.07-.24-.1-.3-.25-.02-.06.04-.16.16-.16.06,0,.12.03.2.12.05.05.13.15.05.31-.07.13-.19.13-.16.09ZM9.63,6.67c-.14,0-.11-.06-.16-.15-.05-.09-.13-.09-.16-.19-.02-.06.02-.11.03-.13.06-.05.13,0,.19.04.08.05.21.14.23.21.02.06.03.22-.13.22h0ZM9.44,6.08c-.11,0-.1-.08-.14-.2-.04-.11,0-.2.05-.21.08,0,.08.13.12.19.05.08.07.21-.03.21ZM6.53,5.3s-.02.19,0,.2c.03.03.07-.1.07-.1,0,0,.08-.13.11-.13.05,0,.04.05,0,.11-.03.05-.14.18-.14.25,0,.08.06.21,0,.26-.12.08-.16.05-.28-.03-.14-.09-.11-.25-.16-.32-.05-.08-.05-.08-.14-.09-.07,0-.06-.18-.05-.24,0-.06.09-.08.09-.08.08,0,.11.06.12.14.01.09.06-.02.11-.08.07-.09.04.25.08.25.04,0,.09-.15.18-.14h0ZM5.02,6.48c.08-.02.19.1.12.18-.08.1-.31.17-.28.25.02.07-.18-.06-.06-.23.13-.17.16-.19.22-.2ZM4.94,7.5c-.09.07-.12.25-.17.19-.01-.02-.06-.11-.02-.29.04-.17.14-.27.22-.24.04.02.03.29-.03.34h0ZM4.9,6.17c-.03.06-.06.2-.14.17-.03-.02-.09-.23.04-.32.05-.03.13.09.11.16ZM4.92,7.85c.09-.06.14.16.09.25s-.2.22-.24.31c-.04.09-.11-.16-.06-.24.04-.09.13-.27.21-.32ZM4.69,6.68c-.02.08,0,.19-.12.24-.06.03-.07-.05-.07-.14,0-.08,0-.2.06-.21.06-.01.15,0,.13.11h0ZM4.47,7.3s.02-.18.06-.22c.05-.05.09.05.09.08,0,.05-.07.19-.15.14ZM4.55,7.85c-.06.13-.09-.05-.09-.08-.01-.07-.03-.24.03-.26.08-.03.17.1.06.34ZM4.45,8.03c.05-.03.13.15.1.24-.04.09-.2-.06-.2-.12,0-.06.06-.1.1-.12h0ZM4.35,8.74c.01-.1.07-.13.11-.13.05,0,.08.02.08.12,0,.14-.08.25-.1.25-.03,0-.1-.13-.09-.23h0ZM4.58,9.28s.14.07.15.11.07.16.05.19c-.02.03-.1.08-.2-.04-.06-.07-.12-.19,0-.25ZM4.78,9.85c.06,0,.08.11.07.16-.02.06.07.16,0,.16-.07,0-.1-.05-.13-.12-.03-.08,0-.21.06-.2ZM4.89,10.78c.02-.06.05-.28.13-.28.11,0,.08.77.03.84-.05.06.03.78-.03.74-.09-.06-.18-.73-.18-.8,0-.08-.03-.21-.03-.3,0-.05.06-.13.09-.2h0ZM4.62,14.25c-.03.12-.07.56-.11.53-.04-.02-.02-.46.02-.56.04-.09.13-.23.17-.26.04-.03-.05.16-.08.28ZM4.51,15.09c0,.09-.02.11-.03.16,0,.08-.08.02-.08-.1,0-.04.03-.16.08-.17,0,0,.03.07.03.11ZM4.46,15.47c.09-.02.15-.34.22-.3.08.05-.03.4-.13.43-.2.06-.27.34-.3.25-.02-.08-.08-.42,0-.46.08-.03.07.1.2.07h0ZM4.31,16.32c-.21.11-.14.29-.19.29-.06,0-.16,0-.21,0-.05,0,0-.12.03-.16.02-.04.09-.17.25-.19.06,0,.15.03.13.05ZM5.2,16.59s0-.12.06-.23c.03-.06.08-.14.14-.14.06,0,.17,0,.17,0,.11-.02-.05.09-.11.15-.07.06-.03.21-.08.22-.06.02-.1,0-.19,0ZM7.75,20.82s.06-.09.04-.12c-.02-.03-.06-.12-.03-.13.05-.01.1-.02.12-.03.03-.01.15.21.09.26-.04.04-.25.04-.22.02ZM8.57,20.97s.11-.02.19-.02.06.04.07.06c.02.07-.08.06-.16.06-.1,0-.1-.05-.1-.11h0ZM8.7,20.81s.03-.09.02-.11c-.03-.06-.17-.22-.12-.22.04,0,.06-.02.12.02.03.02.16.13.16.17,0,.05.03.15-.03.16-.06.02-.17.03-.15-.02ZM9.72,18s-.02-.05.02-.05c.02,0,.06.02.05.04-.02.02-.05.03-.07.02h0ZM10,15.95s.02-.08.05-.08c.03,0,.04.06.05.09.02.05.03.16.02.18-.02.04-.05.06-.1-.07-.02-.03-.03-.07-.03-.13h0ZM10.13,15.59s-.05.01-.06-.03.05-.13.03-.2-.07-.18-.04-.18c.03,0,.12.17.11.24,0,.06,0,.14-.04.17h0ZM9.99,15.49s-.03.08-.05.06c-.03-.02,0-.19-.05-.25-.03-.03,0-.08.05-.08.04,0,.05.22.05.27ZM9.76,15.36c0,.09.03.27.11.36.02.02,0,.08,0,.09,0,.02.02,0,.04-.03.03-.05.11-.03.14.05,0,0-.09-.02-.15.05-.02.02-.07.11-.02.15.05.04.12.14.06.14-.03,0-.13.03-.14-.06-.02-.09-.02-.13-.04-.27-.02-.08-.07-.11-.12-.25-.04-.1-.12-.19-.03-.27.05-.04.16-.03.15.06ZM9.66,15.1c-.02.06-.25.01-.31-.06-.06-.08-.07-.92-.05-1.04.01-.06.03-.33.14-.35.09-.01.12.18.15.27.04.12.09,1.12.08,1.19h0ZM9.42,12.75c.02.13-.27.77-.31.77-.05,0-.07-.19.03-.89,0-.04.05-.2.04-.23-.05-.23.04-.2.08-.31.03-.11-.08-.11.01-.23.07-.09,0-1.1.17-1.14.07-.02.16.41.09,1.09-.02.22-.12.82-.1.94h0ZM9.53,10.1s-.13.03-.13-.11c0-.13.09-.24.16-.24.08,0,.09.13.06.2-.03.07-.11.11-.09.16ZM10.32,10.66s-.2-.14-.09-.24c.07-.06.17.01.18.06s-.03.13-.09.18h0ZM10.4,8.95c-.05.08-.03.18,0,.25.07.12-.03.05-.03.05,0,0-.11-.03-.13-.27-.02-.19.06-.39.14-.47.1-.11.16-.33.06-.32-.05,0,0,.24-.13.27-.11.02-.19-.11-.19-.27,0-.16,0-.2-.04-.24-.03-.03-.11-.05-.12-.08,0-.03.05-.1.14,0t.13-.02c.09-.07.18-.04.21.02.03.08-.2.28-.17.36.03.1.13-.25.26-.21.13.04.02.23.08.27.06.03.11.22.04.39-.07.17-.19.17-.26.28h0ZM10.16,4.52c-.05,0-.17-.11-.07-.19.04-.03.11-.11.19-.16.14-.08.02-.13.17-.17.19-.05.27-.1.32-.09.17.02.25.14.3.18.06.04-.11.19-.27.25-.23.08-.38,0-.45.08-.04.05-.17.11-.04.2.06.04.02.05-.07.05-.13,0-.05-.14-.1-.15ZM10.02,3.79c.03-.14.17-.19.2-.22.03-.02,0-.17.05-.16.05,0,.23.01.36-.02.15-.04.24-.22.25-.15.02.14-.08.42-.16.53-.06.09-.2.01-.31.02-.1.01-.17.04-.18.13-.02.07,0,.14-.07.12-.09-.02-.16-.12-.14-.26h0ZM10.42,4.73c.19-.18.34-.18.37-.18.08,0,.06.25.11.31.02.02-.06.11-.15.17-.09.05-.21.06-.22.09-.06.11.07.19-.01.22-.1.05-.19.02-.22-.05-.03-.08-.06-.37.13-.55ZM10.43,5.62c.02-.06.2-.15.23-.19.03-.05-.02-.09,0-.15.02-.06.13-.08.19-.11.03-.02.13-.02.2.02.1.06.06.17-.06.29-.12.11-.34.19-.32.23.02.04.04.12-.03.21s-.1.06-.15-.02c-.05-.08-.09-.17-.06-.28h0ZM10.56,6.6s.08.11.08.19-.17.25-.25.36c-.04.05-.11-.16-.08-.22.03-.06.15-.33.25-.33h0ZM10.69,7.81c.18.11.22-.19.27-.32.05-.14.12-.12.17,0,.08.17-.04.24-.06.37-.08.38-.19.13-.17.31.03.19.08.29,0,.29-.08,0-.21-.17-.2-.28,0-.11.06-.2.03-.24-.09-.09-.23-.13-.28-.34-.04-.22.13-.55.27-.55.05,0,.11.07.11.15s-.18.28-.22.38c-.03.09,0,.18.08.24h0ZM10.3,7.18c.07.02.07.1.03.22-.03.12-.06.25-.03.3.03.05-.12.03-.15-.15-.02-.18.07-.39.14-.36h0ZM11.55,5.37c-.13.05-.2.11-.19.19.01.1.08.1.11.13.03.02.02.06-.13.06-.09,0-.1-.1-.14-.2-.04-.09-.04-.15.08-.25.12-.1.39-.37.4-.42s-.08-.08,0-.12c.08-.04.27-.24.32-.2.05.03.05.17.05.22,0,.11-.07.27-.16.36-.08.1-.22.16-.35.2ZM9.95,3.62s.06-.03.03.1c-.03.12-.05.36-.05.5,0,.03-.03.04-.03.05s-.02.03-.04.05c-.14.1-.16.27-.13.26,0,0,.12-.17.18-.2.04-.02.06.05.06.09,0,.09-.02.19-.05.28-.05.14-.15.18-.18.33-.01.06-.05.25,0,.34.07.16.06.1.06-.04,0-.05-.02-.13,0-.2.02-.04.08-.14.11-.19.06-.08.09-.15.16-.14.11.01.09.25.08.33-.01.08-.03.16-.05.22-.05.2-.16.1-.2.31-.03.13-.01.28.03.27.04,0,.05-.22.28-.38.02-.01.12.01.09.16,0,.05-.09.03-.04.09.05.06-.07.12-.1.22-.04.14-.16.15-.13.17.11.09.06.39.11.3.08-.16.19-.39.29-.39.05,0,.06.15-.06.35-.16.26-.17.34-.22.34-.1,0-.12-.12-.11-.31,0-.15-.13-.18-.21-.34-.04-.07-.01-.31-.09-.56-.08-.26-.16-.25-.19-.42s.15-.4.1-.51c-.02-.06-.03-.13.02-.21.07-.11.13-.17.13-.28,0-.21.12-.55.17-.59h0ZM8.46.46c.13-.08.28-.1.43-.07.17.03.26.13.23.23-.04.14-.17.22-.34.3-.11.05-.11.1-.07.13.06.04.13,0,.18.02.16.07.21.22.24.23.06.02.08-.06.03-.14-.07-.1-.17-.17-.18-.24,0-.06.08-.14.2-.09.11.05.03.18.1.27.05.06.14.18.13.28s-.05.23-.16.31c-.11.08-.05.1-.03.11.02,0,.07-.08.13-.04.06.03.09.1.16.19.08.1.16.11.18.28.01.13-.02.22-.06.28-.15.25,0,.17.07.26.05.05.05.08.04.16-.02.14-.11.21,0,.35.04.05.05.13,0,.16-.07.04,0,.27-.05.3-.04.03-.15-.11-.14-.02,0,.09.11.11.08.19-.02.07-.11.09-.13.06-.02-.04-.06-.14-.09-.18-.03-.03-.09-.08-.05.03.02.05.03.08.06.12s.02.06.02.17c0,.11,0,.14-.05.17-.07.04-.22-.15-.23-.21,0-.06,0-.13-.05-.2-.06-.07-.14-.26-.06-.36.09-.11.11-.02.14.02.08.12.1.02.05-.07-.03-.05-.09-.04-.09-.13s0-.3.13-.43c.13-.14.16-.41.12-.49-.04-.09-.2-.33-.24-.38-.05-.05-.11-.1-.08-.27.03-.17.08-.36.03-.37s-.18-.21-.24-.19c-.06.02-.38-.08-.42-.17-.03-.08-.07-.21.11-.3s.24.06.25-.02-.05-.16-.14-.14c-.1.02-.16.02-.2.11s-.08.2-.14.2c-.07,0-.09-.09-.08-.13.02-.1.12-.24.22-.29h0ZM7.91.67s.02-.18.08-.27c.09-.12.2-.17.27-.17.11,0,.07.13.06.19-.02.05-.08.11-.15.35-.03.09-.14.18-.19.16-.05-.03-.08-.09-.07-.25h0ZM6.87.98s.05-.07.04-.11-.03-.11-.11-.2-.08-.18-.08-.23c0-.03.02-.13.12-.14s.15.02.19.05c.09.07.08.18.07.28-.02.1-.05.17-.08.23-.03.06-.02.1-.02.1h0c.09-.02.2-.02.31-.03-.01,0-.03-.03-.03-.11,0-.05,0-.09-.03-.14-.08-.1-.05-.27,0-.33.05-.05.13-.07.16-.05.08.04.08.19.08.2,0,.11.02.23,0,.28-.05.11-.09.1-.07.15h-.02.07c.06,0,.11,0,.16.01h0s.04-.03.02-.11c-.02-.09-.07-.11-.09-.21-.02-.09-.02-.18.03-.27s.09-.11.13-.11c.07,0,.15.05.16.23.01.18-.06.18-.09.3-.02.07-.02.13.03.18.02.02.02.03.01.03.06,0,.11.02.17.03.75.17.89.45.95.55.11.21.08.46.14.52.1.09.15.22.16.3.03.19-.27.27-.34.4-.05.1-.07.11-.12.1-.17-.05-.23-.42-.38-.48-.07-.03.34-.15.46-.29.13-.15.05-.07-.21.02-.19.07-.55.21-.75.07-.2-.14.02-.5.17-.6s.31-.15.54.08c.22.21.22.23.25.22.02-.01-.21-.41-.39-.47-.26-.09-.5-.06-.81.37-.17.25.07.33.11.51.05.25-.09.19-.13.23-.02.02-.05.04-.18.04-.13,0-.11.01-.18-.05-.04-.03-.25.04-.2-.21.03-.19.19-.23.08-.51-.15-.39-.48-.53-.81-.38-.17.08-.5.41-.48.42s.17-.08.37-.23c.2-.16.38-.1.53,0,.13.08.19.39-.01.53-.21.15-.36.06-.56.01-.17-.04-.33-.12-.42-.1-.12.02-.03.05.02.05s.11.01.19.05c.05.03.12.12.22.16.14.06.32.02.29.05-.08.08-.21,0-.33.38-.02.07-.08.08-.13.13,0,0,0,.01-.02.09-.03.09-.05.04-.05.13s.11.04.09.22c0,.1.05.17-.07.13-.07-.02-.09-.17-.2-.14-.04.01,0,.08.06.1.06.02.08.1.09.13.03.16-.03.23-.02.35,0,.12.03.14.15.17s.23.04.32.13.02.2-.02.27c-.05.08-.09.03-.15-.03s.02-.16-.22-.21c-.16-.04-.17-.03-.23-.08s-.05-.16-.05-.27c0-.16.09-.07.07-.21-.02-.14-.08-.08-.1-.21-.02-.13,0-.15.1-.23.09-.07.09-.13.09-.13v-.24c-.18-.18-.41-.25-.43-.53,0-.1.08-.2.21-.31.06-.05-.03-.3.05-.5.08-.18.56-.4,1.14-.5.01,0,.02,0,.03,0h0ZM6.31.4c.05-.09.21-.12.31.05.08.13.05.23.04.32-.02.09-.06.14-.1.17-.01,0-.05.02-.04-.04,0-.05-.11-.16-.16-.23-.05-.07-.09-.17-.05-.27h0ZM4.81,2.64c0-.09.06-.15.14-.11.08.04.13.17.12.27-.01.11.05.2.11.22.06.02.11-.04.12-.14,0-.06-.04-.2-.13-.33-.08-.12-.2-.09-.25-.26-.07-.28.03-.31.04-.43.01-.09.05-.25.14-.26.07,0,.16.06.15.22-.02.33.02.09.05.05.04-.08.07-.13.08-.18.02-.09-.01-.2-.09-.27-.07-.06-.06-.16-.06-.21,0-.07.04-.08.11-.12.07-.04.06-.09.01-.11-.03,0-.07.02-.11.04-.08.03-.06-.16-.06-.24,0-.12.07-.17.16-.22.12-.06.15-.02.22,0,.07.02.14,0,.19-.05.05-.05.06-.11.15-.12.06-.01.11.02.23.1.14.09.17.22.22.31.05.09.05.14.03.19,0,.02-.08.04-.11-.02-.03-.04-.07-.1-.13-.17-.05-.06-.07-.13-.16-.15-.11-.02-.12-.05-.03.03.02.02.16.16.19.25.03.09-.03.08-.05.08s-.11-.08-.16-.15c-.05-.07-.12-.1-.18-.1-.06,0-.13.1-.19.11-.06,0-.1-.02-.14,0-.04.03.11.06.14.11.03.05,0,.04-.07.12s.07.07.13.06.11-.11.12-.14c0-.03-.03-.15,0-.17.03-.02.11.09.13.14.02.05.03.18,0,.2-.03.02-.32.3-.38.45-.06.16,0,.29,0,.36,0,.08-.12.22-.15.3-.03.07-.05.3,0,.4.04.1.13.25.17.33.04.09,0,.17-.05.22-.11.11-.08-.1-.14.02-.05.11-.22.24-.32.25-.14.01-.17-.04-.2-.08s.03-.09.09-.14.05-.1.06-.17c0-.06-.08-.11-.13-.18-.05-.05-.02-.24-.02-.33ZM4.79,4.82c.09-.02.1.67-.03.73-.05.02-.05.14-.03.26.01.11-.08.06-.15.21-.05.11-.05.25-.11.21-.06-.04-.03-.14-.03-.25,0-.11-.03-.2-.12-.37-.07-.13.01-.16.1-.15.1.01.16.31.2.23.02-.05.02-.13.01-.26,0-.05-.05-.06-.13-.15-.05-.05-.03-.19-.02-.28s-.06-.05-.09-.23c-.02-.08.08-.13.11-.1.03.03.01.09.09.14.08.05.11.07.11.15,0,.12.05.15.05.15.03-.04-.02-.25.05-.27h0ZM4.75,4.63s-.11.03-.14-.13c-.04-.17-.16-.07-.19-.23-.02-.13.06-.2.1-.25.05-.06.16.15.2.29.05.17.03.27.03.32ZM4.72,3.91c-.02.06-.12.09-.12.04,0-.05.03-.12-.06-.2-.06-.05-.06-.15-.12-.17-.13-.06-.15-.12-.12-.16.03-.04.17,0,.26-.08.1-.09.05-.19.08-.24.02-.04.05-.04.06,0,.02.07.04.2,0,.28-.04.08-.1.13-.03.22.06.08.07.23.04.31ZM4.25,2.08c.13-.02.23.04.3.11.15.17.16.35.12.29-.06-.09-.18-.11-.29-.17-.06-.03-.04-.1-.06-.14-.02-.04-.1-.09-.07-.09ZM3.62,1.99c.12-.06.58.17.52.2-.07.03-.39.07-.47,0-.05-.04-.09-.19-.04-.21ZM3.56,2.87c.09.08.07.28.26.3.05,0,.14-.03.18.02.03.03.26.05.31,0,.05-.04-.03-.19-.16-.21-.14-.03-.34.02-.47-.07s-.11-.26-.07-.32-.07-.13.05-.23c.17-.13.44-.03.59.03.15.06.38.27.42.31.09.09.06.25.03.31-.04.08-.15.01-.19-.14-.03-.12-.16-.28-.23-.34-.05-.04-.15-.03-.15-.01,0,.03.14.14.2.22.14.2.25.48.07.59-.06.04-.3-.03-.24.03.07.06.03.14.08.18.13.09.19.17.16.34-.02.12-.12.17-.24.17-.06,0,.06-.33-.07-.31-.12.01-.34-.04-.39-.19-.04-.12-.1-.09-.14-.11-.04-.03-.06-.07-.02-.13.05-.08.07-.24,0-.33-.07-.07-.04-.17.04-.09h0ZM2.13,2.01c.15.02.17.23.2.05.01-.07-.11-.13-.16-.17-.03-.02,0-.08.04-.09.12-.01.19.15.26.13.23-.08.3-.29.58-.27s.25.21.26.31c0,.06.15,0,.14.3,0,.24.08.07.05.28,0,.03-.07.02-.05.05.08.19-.06.21-.11.23-.07.02-.09.07-.06.09.11.09.17.17.1.22-.05.04-.31-.03-.18.06.17.12.28.48.12.58-.1.07-.2-.14-.36-.16-.06-.01-.06.06.02.12.09.08.29.18.3.38,0,.16-.09.38-.18.41-.14.05-.11-.07-.06-.15.02-.05.08-.08.02-.13-.03-.02-.01-.09-.06-.11-.11-.06-.23.03-.38-.11-.06-.06-.07-.2-.01-.22.05,0,.1.08.18.07.08-.01.09-.23.03-.27-.14-.09-.22-.07-.3-.08-.05,0-.1-.08-.06-.08.11,0,.42-.07.52-.31.05-.12,0-.41-.11-.57-.06-.09-.12-.14-.21-.18-.07-.03-.18-.01-.15,0,.41.08.47.62.25.79-.29.22-.45.1-.36.05.17-.11.25-.25.24-.35,0-.09-.18-.22-.39-.25-.19-.03-.36-.09-.39-.3-.03-.2.12-.34.27-.32h0ZM.62,4.93s-.05-.11.05-.24c.06-.08.15-.17.08-.15-.08.03-.18.07-.2.13-.07.16-.11.08-.08-.02s.16-.23.22-.28c.07-.05.2-.05.3-.09.1-.04.27-.2.33-.21.06-.01.08.03.06.08s-.05.07-.12.15c-.07.08-.2.26-.23.31-.03.05-.1.06-.18.06-.06,0-.08.03-.13.1-.06.09-.08.16-.1.16ZM1.43,4.74s-.19.14-.25.17c-.05.02-.07-.05-.06-.06.03-.06.21-.14.26-.16.03-.02.06.05.05.05ZM1.47,5.02s-.03.08-.08.06c-.05-.02-.09-.04-.09-.08,0-.02.03-.06.06-.07.03,0,.09.05.11.08ZM1.11,4.77c-.04.07-.12-.01-.07-.05s.18-.17.23-.17c.02,0,.06.02.05.03-.03.04-.15.09-.21.19ZM.77,4.98c0-.05.04-.24.07-.26.02-.02.09-.02.09,0,.02.04-.03.09-.05.12-.02.04-.11.23-.12.14ZM1,5.51s.15-.09.02-.12c-.1-.03-.21-.22-.15-.26.04-.03.12.25.2.14.04-.05-.11-.15-.13-.23,0-.06.01-.14.09-.11.08.02.16.19.15.29-.03.17.08.04.05.06-.02.02-.04-.22.01-.19.03.02.07.17.07.2,0,.04.1-.08.15-.11.09-.04.22-.06.28-.13.06-.07.06-.18.02-.23-.04-.05-.17-.11-.22-.17-.05-.06.02-.1-.04-.14-.06-.03-.07-.13,0-.11s.25.24.29.32.2.3.19.37-.3.09-.37.12c-.07.03-.02.08-.11.12-.06.03-.11.06-.15.08-.02.01,0,.07-.11.08-.01,0-.03,0-.05,0,.04,0-.14.08-.19.02ZM1.53,4.8s.1.06.11.08c.02.04.04.11,0,.13-.03.02-.14-.1-.15-.13-.01-.03.02-.07.03-.08ZM1.22,5.71c-.07-.05.36-.4.4-.42.07-.03.17-.03.22-.03.03,0,.1,0,.11.03,0,.04-.05.08-.14.06-.09-.01-.17.06-.21.08-.09.06-.32.31-.38.27ZM1.94,5.76c-.11.28-.06-.03-.09-.03-.08.02-.09.17-.14.22-.05.05-.2.07-.28.05-.06-.02-.02-.22,0-.26.08-.18.11-.22.17-.22.12,0,.22,0,.28-.03.04-.02.05-.08.11-.14.09-.07-.05-.13-.02-.14.08-.05.09-.11.11-.21.03-.1-.02-.2-.1-.26-.08-.05-.26-.22-.27-.31s-.25-.31-.13-.24c.1.06.28.17.47.03.11-.08.15-.14.17-.22s-.05-.1-.08-.07c-.05.08-.11.19-.36.16-.13-.02-.12-.03-.03-.06.07-.03.11-.05.06-.08-.05-.04-.44-.04-.59.02-.07.03-.23.17-.32.19-.06.02-.17.04-.07-.06.11-.09.17-.15.23-.19s0-.25.05-.33c.03-.05.08-.18.45-.18.07,0-.06-.18-.16-.17-.05,0-.09-.17-.28-.17-.08,0-.19.08-.24.16-.06.09-.08.31.01.3.1,0,.13.08.13.17,0,.14-.06.24-.19.27-.1.03-.2.14-.21.24,0,.1-.04.16-.09.2-.14.1-.32.04-.35-.12-.02-.11.14-.38.29-.47.09-.05.12.03.13-.09,0-.08.06-.22.13-.24.03,0-.01-.29.02-.36.07-.14.31-.29.4-.31.09-.02.26-.04.34-.13.08-.08.09-.23.16-.23.13,0,.17.18.29.23.12.06.34.13.39.22.11.22-.13.23-.15.25-.19.21-.49.09-.51.13-.02.06,0,.06.01.06.11.02.32-.03.43.02.12.06.22.13.24.34,0,.07.2-.06.05.2-.04.06-.05.17-.05.2-.01.16-.04.3.06.48.1.17.03.21-.05.31-.13.17.04.5-.06.52-.3.05-.33.2-.37.3h0ZM1.01,3.34s.2-.05.23-.02c.04.03.05.09,0,.09-.15.02-.13-.03-.16-.04-.04,0-.08-.02-.07-.03ZM1.96,7.7s.16.07.16.13.03.2.13.19c.08-.02.24-.17.09-.3-.13-.11.03-.11-.23-.34-.09-.08-.14-.37-.02-.4s.23.19.27.23c.04.05.04.12.19.09.05,0,.06-.15-.04-.24-.09-.09-.23-.27-.27-.4-.04-.14.04-.19.11-.16.06.03.19.22.3.22.12,0,.08-.06.11-.14.02-.07-.21-.19-.3-.28-.07-.06-.11-.14-.11-.27,0-.14.1-.29.16-.33.06-.04.16.05.17.09.02.04.11.1.11.1,0,0,.02.07-.05.06-.11-.02-.13.02-.13.05,0,.05.06.14.11.18.05.04.17.12.24.19.05.05.03.29,0,.3-.09.03-.02.09-.12.13-.03.01-.17.06-.31.03-.04,0,.12.14.18.16.11.03.17.22.15.31-.02.1-.05,0-.09.12-.03.09-.3.06-.4-.02-.03-.02-.1.02,0,.12.09.11.27.17.27.28,0,.11-.07.21-.14.25s-.17.03-.19.11.09.13.09.18-.16.21-.22.22-.05-.06.03-.13c.1-.1,0-.14-.06-.23-.06-.09-.21-.11-.25-.21-.04-.11,0-.25.05-.29h0ZM2.08,9c.06-.05.06-.09.05-.16-.02-.09-.19-.22-.21-.33-.01-.08-.05-.2-.01-.19.11.02.14.2.25.28.12.08.23.27.16.37-.13.19-.36.12-.24.03h0ZM2.76,9.56s.03.19-.01.28c-.03.05-.11.15-.23.11-.07-.02.12-.1.13-.17.01-.09-.03-.19-.12-.22-.15-.06-.21-.21-.21-.25,0-.06.06-.09.13,0s.17.14.25.14c.12,0,.18-.05.19-.09.05-.14-.11-.19-.19-.24-.07-.05-.11-.16-.13-.22s-.05-.17-.01-.21c.09-.09.17.04.17.09,0,.03-.03.11.02.13.14.08.22.19.29.3.09.16,0,.28-.06.32-.06.04-.19,0-.21.03h0ZM2.98,10.7c-.15.03-.19-.07-.14-.13.06-.06.11-.06.11-.12,0-.1-.07-.11-.08-.22,0-.07.11-.06.11-.06.1.03.1.21.1.36,0,.11-.08.17-.11.17ZM3.13,8.97c.03-.06.1-.26,0-.33-.06-.04-.16-.11-.26-.12-.08,0-.14-.11-.18-.18-.06-.13.05-.29.12-.28.14.02.1.23.23.24.14.02.16-.2.12-.28-.07-.13-.34-.2-.3-.45.02-.11.07-.11.12-.1.11,0,.16.12.25.13.1,0,.13-.11.12-.22-.01-.08-.36-.29-.4-.36s.09-.23.17-.27.12.14.23.18c.11.04.12,0,.15-.04.08-.16-.27-.22-.38-.48-.04-.11.13-.23.23-.28.07-.03.18.15.26.13.05,0,.09-.11.05-.16-.11-.13-.26-.12-.3-.17-.08-.13-.16-.49,0-.5.06,0,.19.24.37.23.08,0,.1.03.1.1s.08.16.13.23c.05.08.02.28-.11.37-.13.08-.28,0-.35-.05-.02-.01-.05.09.11.15.17.06.31.38.14.5-.17.13-.35.06-.38.1-.04.05.03.05.08.08.04.02.04.07.08.11.06.07.19.06.11.26-.09.22-.4.22-.36.27.13.15.19.17.19.27,0,.09-.09.28-.25.31-.1.02-.18.02-.04.11.08.05.29.09.2.32-.09.24-.27.23-.24.17ZM3.23,12.09c0-.07-.03-.13-.06-.36-.03-.27-.05-.95.05-.98.08-.03.23.44.24.55,0,.21-.04.28-.03.32,0,.04.04.67,0,.77s-.03.18-.09.18-.09-.33-.1-.47ZM3.24,15.47c.2.04.29-.03.36-.09.09-.06.13-.15.17-.32.04-.17.04-.35.05-.41s-.06-.03-.07.16c0,.15-.04.2-.1.28-.04.05-.07.11-.11.05-.07-.11.04-.26.08-.42.03-.11-.05-.36-.11-.15-.05.16,0,.52-.14.59-.06.03-.17-.02-.11-.16s.08-.25.09-.31c.03-.1.07-.25.08-.31,0-.02,0-.11-.05-.11-.04,0-.05.13-.06.2-.02.18-.04.41-.1.35-.03-.03-.02-.25.03-.49.02-.09.05-.2.08-.33.03-.11,0-.25.03-.35.02-.07.1-.19.11-.31.02-.12.08-.22.11-.33.08-.33.11-.58.05-.98-.05-.27-.14-1.14-.08-1.25.03-.05.2-.06.28-.12.06-.05.09-.18.11-.21.07-.08.19-.11.34-.27.05-.05,0-.31.13-.33.12-.02.17.22.11.31-.03.05.2.22.22.36.02.13-.05.06-.04.33.01.22.05.8.13,1.25.03.14.07.28.11.47.04.2-.08.26-.05.52.02.11,0,.18-.06.26-.11.15-.21.22-.23.45-.02.33-.2.64-.18.37,0-.08.02-.33-.03-.27-.04.06-.05.36-.15.53s-.05.24-.05.45c0,.11-.22.2-.17.36.03.11-.21.39-.36.55-.06.06,0,.09.11.04.07-.03.2-.15.2-.13.03.04-.09.26-.25.29-.06.01-.19,0-.23.04-.07.05-.11.06-.18.13-.04.03-.09.06-.2.07-.05,0-.1.13-.14.05-.01-.03.04-.2.04-.22-.01-.09-.07-.11-.08-.07-.02.03,0,.17-.09.17-.08,0-.11-.17-.04-.25.08-.07.1-.07.19-.06.06,0,.12-.04.03-.11-.09-.07-.09-.22-.05-.27.08-.09.08-.03.27.01h0ZM2.71,16.59c.01.07-.21.07-.22.02-.02-.09.12-.24.16-.26.03-.01.13-.03.12,0,0,.03-.07.15-.06.23h0ZM2.56,15.43c.07-.13.14-.16.19-.17.11,0,.11.04.18.12.01.02-.03.03-.09.08-.09.07.04.24,0,.29-.05.05-.24.24-.25.12,0-.07-.05-.19-.08-.29-.02-.05,0-.05.06-.15h0ZM2.61,16.18c-.04.13-.15.19-.24.17-.07-.02.05-.12.08-.2.04-.1-.12-.25-.14-.1-.02.17-.1.05-.06-.08.02-.07.1-.11.19-.06.09.05.22.11.17.27h0ZM2.33,16.61c.02.07,0,.09-.08.09s-.16-.08-.07-.18c.04-.05.08-.13.23-.13.04,0,.09.09.04.09-.09.01-.13.07-.11.13ZM2.09,16.07c.06-.02.1.08.11.13.01.09-.07.05-.05.09.01.03.02.13-.02.14-.05.02-.18.03-.21-.02-.05-.08-.01-.08.07-.1.05-.01.06-.12.06-.12,0,0-.02-.1.04-.12h0ZM1.89,15.81c.08-.08.16.02.23-.03.06-.04.11-.14.15-.39.05-.25.15-.24.16-.19s-.04.15-.04.24c0,.07,0,.11-.02.15-.01.05-.07.12-.11.17-.03.04-.05.19-.15.23-.1.04-.3-.11-.22-.19ZM1.87,16.01s.1,0,.1.03c0,.03-.05.04-.03.09.02.03,0,.1-.04.05-.02-.03-.06-.15-.03-.17h0ZM1.87,16.65c.04-.16-.01-.15.14-.17.06,0-.02.06-.02.12,0,.06.06.12,0,.12-.12,0-.14,0-.12-.07ZM2.06,19.08c-.1,0-.14.03-.17-.03-.02-.04.08-.22.13-.27.06-.06.26-.05.26-.05v.08s-.04,0-.08.01c-.03,0-.06.05-.05.09,0,.09.01.17-.08.16ZM2.08,18.69c-.09.05-.14-.8-.09-.8.06,0,.26.23.26.28s-.08.47-.17.52ZM1.75,17.16c.03-.09.3,1.51.23,1.58-.08.08-.17.22-.17.22,0,0-.11-1.66-.07-1.8h0ZM.98,18.75c.03-.09.03-.25-.02-.39-.02-.05.16.05.16.2,0,.17-.16.26-.13.19ZM1.18,19.42s.01-.73.02-.94c0-.19-.02-1.02,0-1.05.04-.05.09.66.09.83,0,.17,0,1.16-.11,1.16ZM1.37,19.89c-.05.09-.05.05-.03,0,.01-.05.13-.39.13-.73,0-.29-.02-1.13-.03-1.23s-.04-.45-.13-.63c-.02-.05-.11-.17-.11-.2,0-.1.06-.09.13-.02.12.14.18.66.2.86.01.17.05.9.03,1.23-.03.34-.16.67-.19.73h0ZM1.53,20.28s.05-.16.06-.2c.03-.16.03-.48.05-.66s.02-.78,0-1.01c0-.1-.03-.76-.06-.94-.01-.07-.03-.33-.02-.4.02-.09.12.27.15.51.02.14.03.75.03.87,0,.25.07,1.34-.08,1.67-.03.07-.12.2-.14.16h0ZM1.94,19.42c-.04.08-.05.42-.06.62-.02.2-.22.24-.17.2.08-.09.09-.2.1-.37.01-.17-.05-.6.02-.7.03-.05.14,0,.18,0,.11,0,.16-.03.16.08,0,.06-.18.08-.23.17ZM2.33,20.31s-.09.1-.11.11c-.02.02.12.1.09.11-.03.01-.09.02-.11,0s-.11-.11-.11-.15.14-.09.17-.11c.03,0,.08.03.07.04ZM2.28,20.22c-.1-.02-.23-.16-.25-.25-.02-.09-.05-.16-.02-.23v-.02s.04-.04,0-.07c-.02-.02-.04-.14.01-.17.05-.03.14-.1.2-.12s.13-.02.16-.06c.02-.02.03-.06.02-.09-.02-.04-.06-.06-.1-.13-.03-.06-.03-.31.03-.4.03-.05.1-.12.12-.16.02-.03,0,0,.02-.03s.03-.11-.05-.1c-.08,0-.11,0-.1-.14,0-.04,0-.14.04-.17.05-.03,0-.14.03-.2.03-.07.06-.19.02-.22-.05-.04-.04-.23-.04-.28,0-.07-.08-.14-.13-.13-.03.02,0,.08,0,.08,0,0-.02-.03-.06-.04.06.02.15.12.15.24,0,.19-.04.11-.09.21-.04.09,0,.15-.04.18-.06.05-.16-.11-.18-.16-.01-.04,0-.15.03-.17s.03-.06.02-.13c-.01-.1,0-.17.06-.17h0s-.03-.17.01-.19c.05-.03.06-.06.06-.11s.02-.09.03-.11c.02-.01.11-.04.12-.06.02-.03.06-.07.12-.07.06,0,.08.02.15.02.05,0,.12-.01.16.03.02.02.04.08,0,.12-.05.04-.03.17-.01.17.04,0,.01-.09.09-.14.02-.02.06-.06.07-.06.05,0,.04.16.03.2-.02.05.03-.07.08-.08.06,0,.06.13.03.15-.02.02-.06.09-.06.11-.01.07,0,.11.06,0,.02-.04.07,0,.08.02.02.04.02.09-.03.12-.02.01-.03.02-.06.07-.03.05,0,.11.05.09.02,0,.03-.09.06-.1.03-.02.05.02.07.05.02.03,0,.05-.02.07-.04.03-.1.11-.06.1.02,0,.13-.04.14-.03.02.03.03.08-.04.13-.04.03-.06.04-.09.08-.02.02,0,.05.02.05.11.02.14-.06.19-.04.04.02,0,.12-.02.14-.05.04-.16.1-.11.11.05,0,.15-.04.18-.06.05-.03.03.08,0,.1-.04.04-.15.03-.17.06-.02.02.06.09.16.05.02,0,.08,0,.1,0,.05.02.09.05.15.06.02,0,.1-.02.15-.04.06-.03.14-.04.2-.03.05,0,.22.02.31.1.05.05.17.06.23.05.05,0,.19-.03.24-.14.05-.09.05-.23,0-.33-.06-.11-.1-.27.01-.36.1-.08.08-.14.09-.23.01-.08.18-.2.22-.23.04-.03.08-.08.09-.13,0-.05.07-.09.13-.07.05.02.07.06.03.11-.04.05-.1.13-.13.13-.03.01-.12.05-.11.1,0,.03.07.05.11.12.05.07.02.13-.02.14-.04.02-.09.03-.11.05-.03.01-.04.04-.03.05.04.05.07.04.08.06.02.04-.02.06-.06.06-.02,0-.05.04,0,.06.08.04.05.13,0,.14-.04.02-.05.04-.06.06,0,.02,0,.05.03.06.03,0,.03.08.01.09-.03.03-.05.04-.04.08,0,.07.04.1-.02.16-.06.06-.09.08-.17.09-.08.02-.09.05-.18.05-.1,0-.23.06-.31.04-.08-.02-.04.03,0,.06.15.14.03.31.1.39.14.19.26.38.34.4.09.02.24.07.27.1.04.04,0,.11-.02.13-.02.02-.04.09,0,.1.07.02.11-.03.14.03.03.04.08.16.12.22.05.05,0,.24-.02.25-.05.02-.15.07-.21.04-.08-.04.06-.12.05-.18,0-.05-.07-.16-.13-.22-.05-.06-.17-.25-.25-.27-.13-.03-.36-.24-.45-.23-.2.02-.53-.11-.74-.32-.07-.07-.05,0-.05.11,0,.06-.07.14-.16.13-.13-.02-.19-.14-.23-.19-.05-.06-.09-.07-.16-.08-.09-.02-.16-.25-.17-.26-.04-.02.05.3,0,.35-.04.04-.19.25-.31.28-.08.02-.21.05-.29.06-.07,0-.14.13-.06.17.05.03-.01.3.02.32.03.02.12.03.16.03.03,0,.04.06.06.11.02.04.06.07.04.08.02.02,0,.03-.14,0h0ZM2.59,20.39s-.06.08-.01.12c.05.04,0,.06-.09.05-.08,0-.11-.09-.08-.14.02-.04.08-.1.14-.11.05,0,.08.06.04.07ZM2.86,20.39s-.09.06-.08.08c.02.03.08.06.04.07-.04,0-.05.02-.09,0-.04-.02-.08-.12-.06-.15.02-.03.09-.07.12-.07.04,0,.09.05.06.06ZM3.04,21.02s-.06.01-.05-.02c0-.01,0-.03.03-.03s.06,0,.06,0c0,.02-.02.05-.05.05ZM3.1,20.52s-.03.03-.06.03c-.03,0-.12-.09-.15-.13s.13-.08.17-.08c.05,0,.13.03.11.05s-.1.05-.12.06c-.02,0,.05.07.05.08ZM3.21,21.03s-.1.01-.07-.03c.01-.02.01-.04.05-.04.04,0,.09,0,.09.01s-.02.06-.07.05ZM3.47,21.26c-.02.07-.03.17-.03.19-.01.03-.09.02-.11-.05s-.05-.22.05-.21c.03,0,.11,0,.1.07ZM3.41,21.03s-.11.02-.08-.03c.01-.02.01-.05.06-.05s.11-.01.11.01-.03.07-.08.06ZM3.39,20.65c-.06,0-.23-.16-.2-.19.03-.04.24-.12.29-.12.06,0,.15,0,.11.04-.04.03-.14.08-.17.1-.03.03.09.11.09.13,0,.02-.05.04-.11.04h0ZM3.62,21.03s-.11.02-.08-.03c.01-.02.01-.05.06-.05s.11-.01.11.01c0,.02-.03.07-.08.07h0ZM3.88,21.45s-.03.05-.09,0c-.06-.06-.1-.27-.03-.28.05,0,.11-.02.13.04.02.08-.03.18-.02.24ZM3.83,21.04s-.11.02-.08-.04c.01-.02.01-.05.06-.05s.11-.01.11.02c0,.03-.02.08-.08.08ZM3.78,20.48s.08.13.07.16c-.01.02-.11.04-.15.02-.04-.02-.13-.13-.11-.16s.17-.16.24-.17c.06,0,.1.03.09.04-.01,0-.15.07-.14.11ZM3.92,20.52s.11-.14.19-.16c.02,0,.11,0,.09.02-.02.02-.12.08-.12.11s.08.18.06.19-.11.04-.14,0c-.02-.04-.1-.11-.09-.15h0ZM4.01,21s.01-.06.06-.06.12-.01.12.02-.03.08-.09.08c-.05,0-.13.02-.09-.04ZM4.31,21.48c-.13.08-.17-.07-.18-.17s-.03-.14.02-.15c.05,0,.09.02.12.05.03.03.14.22.04.27h0ZM4.36,21.05c-.05,0-.13.02-.09-.04.01-.02.02-.06.07-.06s.13-.02.13.02c0,.03-.03.09-.1.09h0ZM4.49,20.39s-.13.06-.11.11c.05.08.14.18.09.19-.05.02-.13.02-.18.01-.05-.01-.11-.13-.11-.17s.08-.17.19-.2c.06-.01.15.02.11.06ZM4.72,20.37s.12.04.09.05c-.02.01-.13.04-.13.09s.03.16.07.19c.03.03-.07.04-.12.02-.05-.02-.12-.15-.12-.18,0-.04.11-.15.2-.17ZM4.52,21.01s.02-.06.08-.06.14-.02.14.02-.03.09-.11.09c-.06,0-.15.02-.11-.04h0ZM4.61,21.48c-.07-.03-.12-.31-.05-.32.04,0,.12-.02.16.02.04.04.05.28.07.31.01.02-.11.03-.17,0ZM4.8,21.01s.02-.07.08-.07.14-.02.14.02-.03.1-.11.1c-.06,0-.14.02-.11-.05ZM5.02,21.48c-.08-.02-.1-.23-.08-.28s.09-.05.14-.05c.05,0,.09.2.15.27.05.06-.14.07-.21.05ZM5.16,21.06c-.06,0-.14.02-.11-.05.02-.03.02-.07.08-.07s.14-.02.14.02c0,.03-.03.1-.11.1ZM5.32,21.01s.02-.07.08-.07.14-.02.14.02-.03.11-.11.1c-.06,0-.14.02-.11-.05h0ZM5.59,21.49c-.08,0-.25.04-.25-.11,0-.15-.04-.2.02-.22.04,0,.14-.02.17.02.04.04.15.3.06.31ZM5.58,21.01s.02-.08.08-.08.14-.02.14.02c0,.04-.03.11-.11.11-.06,0-.14.03-.11-.05h0ZM6.02,21.51c-.08.02-.22,0-.23-.04s-.1-.29-.05-.3c.06-.01.14,0,.23.03.08.03.09.29.05.31ZM5.98,21.08c-.08,0-.2.03-.15-.06.02-.03.02-.08.1-.08s.2-.02.2.02c0,.04-.05.12-.15.12h0ZM6.18,21.02s.02-.09.1-.09.2-.02.2.02-.05.13-.16.13c-.08,0-.2.03-.14-.06h0ZM6.44,21.53s-.21.02-.23-.01c-.02-.02,0-.31.09-.3.07.01.19,0,.22.02.04.02-.03.28-.08.29h0ZM6.83,21.5c-.08.03-.2.03-.23,0-.02-.02-.05-.24,0-.26.05-.01.16-.01.23,0,.03.01.06.24-.02.26ZM7.16,21.5c-.06.02-.16.03-.17,0-.02-.06,0-.17,0-.24,0-.04.24-.03.24,0,0,.03.01.22-.08.25h0ZM7.54,21.49s-.11.03-.17,0c-.09-.03-.08-.22-.08-.25,0-.03.23-.04.24,0,.01.07.03.19,0,.25ZM7.65,20.92s.25,0,.25,0c0,.02-.06.15-.08.17-.02.02-.21,0-.23,0-.02,0,.06-.17.06-.17h0ZM7.93,21.5s-.14.03-.23,0c-.08-.02-.1-.27-.07-.27.07-.02.24,0,.29,0,.06.02.03.24,0,.26ZM7.92,20.96s.11-.02.19-.02.06.05.06.07c0,.08-.08.06-.16.06-.11.02-.11-.08-.09-.12h0ZM8.33,21.52s-.19.03-.23.01c-.05-.02-.11-.28-.08-.3.03-.02.16-.02.22-.02.09,0,.11.28.09.3ZM8.24,20.97s.11-.02.19-.02.06.04.07.07c0,.08-.06.06-.15.06-.1,0-.11-.03-.11-.11h0ZM8.7,21.49s-.13.06-.2.04c-.05-.02-.15-.3-.06-.32.1-.02.17-.02.23,0,.05.01.05.24.04.29h0ZM8.81,21.53s-.07-.3-.04-.33c.03-.04.15-.02.19,0,.07.02,0,.11.07.25.06.13-.14.12-.22.09h0ZM8.93,21.08c-.07,0-.05-.08-.05-.11s.08-.02.14-.02c.06,0,.04.04.04.06.01.06-.07.06-.13.06ZM9.35,21.52c-.08.02-.22.03-.21-.03,0-.09-.11-.27-.06-.27.06,0,.3-.03.32.02s.02.27-.04.28ZM9.37,20.98s.09-.02.14-.02.04.04.04.06c0,.06-.05.06-.11.06-.07,0-.08-.08-.07-.11h0ZM9.74,21.5c-.07.03-.17.03-.17.02,0-.03-.09-.25-.04-.3.03-.03.22-.01.25,0,.07,0,.03.26-.04.29ZM9.86,20.99s.08-.02.13-.02.05.04.05.06c.02.05-.06.03-.11.03-.07,0-.07-.05-.07-.07ZM9.99,21.52c-.06,0-.04-.06-.04-.15,0-.07-.03-.15-.02-.16.03-.03.13-.02.18-.01.05,0,.06.17.07.27,0,.06-.04.04-.2.05h0ZM10.19,21.06c-.06,0-.07-.05-.06-.07.01-.02.08-.01.13-.01s.04.03.04.05c.01.05-.05.03-.1.03h0ZM10.3,20.69s-.07.13-.13.14-.15,0-.14-.04c.01-.05.04-.09,0-.14-.03-.05-.19-.14-.11-.16.05-.02.09-.02.18.01.09.03.21.15.19.19h0ZM10.39,20.04s-.04.04-.06.02c-.02-.03-.02-.12.02-.15.03-.03.03-.07.05-.08.03-.01.03.11,0,.11-.03,0-.03.06-.02.09h0ZM10.47,20.54c.06.04.1.19.09.26-.01.05-.07.05-.12.04-.04,0,.03-.06,0-.14-.04-.12-.12-.14-.16-.17-.02-.02.02-.05.03-.05.05,0,.1,0,.16.05ZM10.43,21.05c-.06,0-.07-.04-.06-.06,0-.02.07-.01.12-.01.05,0,.04.03.04.05.01.05-.05.03-.1.03ZM10.68,21.47s-.13.05-.16.03c-.06-.03.04-.17.02-.24-.01-.06.12-.03.16,0,.1.03.04.17-.03.22h0ZM10.62,20.99s.06-.01.11-.01c.04,0,.03.03.03.04,0,.04-.05.03-.09.03-.06,0-.06-.03-.05-.06h0ZM10.75,20.72s-.14-.19-.08-.2c.05-.02.12,0,.14.02.03.02.08.13.07.19,0,.06,0,.11-.08.11s-.02-.07-.05-.11ZM11.02,19.92v-.12h-.1c.03-.1.06-.21.09-.34,0,0,.33.11.67-.04.06-.03.07.02.06.04-.04.04-.14.05-.23.14v-.05h-.11v.07h.09c-.05.05-.09.13-.12.25-.03.13-.11.25-.17.34h0s-.11-.01-.11-.01v.09h.04c-.04.05-.08.09-.08.09,0,0-.06-.01-.1-.09h.05v-.09h-.09s0-.04-.01-.06c0,0,0-.02,0-.02h.08v-.12h-.08c0-.06.02-.11.03-.18v.09h.11ZM10.87,21.04c-.05,0-.06-.03-.06-.05s.06-.01.1,0c.04,0,.03.02.04.04.02.04-.04.02-.08.02ZM10.97,20.51s.16,0,.16.02c.02.05.07.2.05.22-.05.03-.09.05-.12.03-.05-.04-.11-.25-.09-.27ZM11.07,21.05c-.05,0-.06-.03-.06-.05,0-.02.06,0,.11,0,.04,0,.03.02.04.03.01.03-.05.02-.09.02h0ZM11.19,21.37c-.09.13-.19.12-.2.09,0-.02.09-.09.1-.16s0-.14.03-.14c.1,0,.14.13.08.22ZM11.26,21.05s-.06-.03-.05-.04c0-.02.05,0,.09,0s.03.02.03.03c0,.03-.04.02-.08.02h0ZM11.32,20.76s-.11-.25-.08-.28c.03-.02.07-.01.09.02.02.03.08.14.06.18-.02.03-.06.09-.07.08ZM11.42,21.04s-.03-.03-.03-.04.04,0,.06,0c.03,0,.02.02.02.03,0,.03-.03.02-.05.02h0ZM11.55,20.72s-.07-.17-.08-.21c-.01-.04.03-.04.05-.04.06,0,.13.16.13.18,0,.03-.09.08-.1.07h0ZM11.54,20.24s-.11.04-.24.04c-.04,0-.02-.18.02-.21.15-.11.05-.16.14-.23.04-.03.16-.24.32-.37.05-.04,0-.05,0-.05,0,0-.02-.2.01-.21.05-.02.1-.16.09-.17,0-.02-.05.06-.16.17-.14.13-.54.18-.69.04-.05-.05.02-.02.11-.2.06-.11.08-.25.07-.34,0-.12-.06-.24-.08-.25-.01,0,.04.22-.07.43-.06.12-.11.2-.2.28-.03.03,0,.11.04.1.06-.02,0,.28-.03.32-.05.05-.08.12-.09.19-.01.08-.04.14-.03.22s.05.15.02.16c-.05,0-.05.11-.05.14.01.04-.27.06-.31.02-.04-.05.05-.07.08-.09s.02-.23,0-.25c-.03-.01-.06-.08-.03-.09.07-.03.07.06.09.08.02.02.06,0,.07-.03.03-.04.03-.1,0-.19-.03-.14-.19-.23-.17-.28.01-.03.05-.12.02-.14,0,0-.06.12-.1.14-.03,0,.05.14.01.16-.03.03-.08.09-.06.13s-.06.22-.11.26c-.05.05-.15.33-.25.32-.1-.01-.26.03-.25-.02.01-.05.18-.17.2-.22.02-.05.16-.35.16-.39,0-.04-.02-.12.02-.21.05-.09.15-.01.23-.12,0,0,.18-.2.23-.35.03-.08.07-.3.09-.38.05-.13-.07.07-.11.15-.03.06-.05.16-.08.23-.03.08-.1.2-.15.25-.07.07-.18.08-.17,0,0-.01.03-.05.05-.09.01-.02.11-.2.2-.36.06-.11.22-.36.24-.4.01-.03-.18.22-.26.35-.09.14-.18.3-.21.33-.02.03-.07.04-.11.02-.05-.02-.1-.09-.08-.14,0-.01.09-.09.13-.13.04-.04.16-.14.24-.24.03-.05.22-.35.22-.36,0,0-.22.3-.28.36-.08.08-.19.19-.24.2-.06.03-.11.01-.12-.02-.02-.04.06-.05.1-.07.05-.04.17-.16.2-.19.03-.02.11-.1.15-.15.08-.09.17-.27.14-.23,0,0-.07.11-.11.16-.05.06-.14.14-.23.23-.02.02-.12.11-.16.12-.04.02-.07.03-.09.02-.04-.03-.01-.05,0-.07.02-.02.2-.12.21-.15s-.14.05-.19.05-.08-.05-.02-.08c.04-.02.15-.08.17-.11.05-.08.04-.1-.04-.07-.04.02-.05.03-.11.03-.05,0-.09-.05-.05-.08.06-.04.14-.08.19-.08.04,0,.17-.02.17-.04,0-.04-.09-.09-.17-.09-.05,0-.05.02-.09.07-.08.1-.28.02-.29-.03,0-.03.22.08.27-.03.03-.09-.02-.13-.06-.14-.03,0-.1-.02-.13-.01-.08.04,0-.05.07-.07.04-.01.11-.04.08-.07-.02-.02-.06,0-.08-.04-.02-.02-.06-.28.07-.37.06-.04.08-.06.08-.09,0-.07-.07-.11-.09-.13-.03-.02-.03-.07,0-.1.02-.03.07,0,.05-.04-.02-.04,0-.11.02-.13.03-.03.11-.09.16-.09.02,0-.05.14-.05.18,0,.03-.01.11.03.16.02.03.06.06.13.08.05.02.12.02.16,0,.02-.01.07-.06.07-.07.06-.12-.02-.18.02-.25,0-.02.07,0,.1.04s.06.09.05.19c-.02.12.02.07.05.09.04.03.05.04.06.08,0,.04-.03.03-.04.05,0,.04.02.1,0,.11-.07.03-.03.1.03.08.04-.01.03.03,0,.06-.04.03.01.18-.05.25-.03.04-.09.11-.14.14-.07.04-.18,0-.21.02-.04.02-.06.05,0,.05.05,0,.07.04.08.06.01.04,0,.08-.02.1-.04.04-.04.07,0,.06.09-.04.07-.08.14-.14.02-.02.06-.03.11-.06.03-.03.06-.04.14-.07.07-.03.05-.16.18-.21.1-.04.19-.02.23,0,.06.03.18.11.11.23-.06.11-.1.16-.14.18-.05.03-.05.14,0,.2.03.03.05.09.09.13.06.05.08.03.17-.02.06-.03.1-.07.19-.06.13,0,.23.03.34.08.05.02.12.08.17.16.02.04.02.08.03.13.02.06.05.11.05.17,0,.13-.06.16-.05.22.02.09-.02.23-.06.23-.05,0-.11.04-.11.09,0,.05,0,.1-.03.14-.03.03-.1.08-.17.17-.05.05-.04.12-.06.16-.03.05-.08.13-.08.2.03.08-.07.11-.09.15h0ZM9.9,17.95c.06,0,.05.04.03.06-.02.01-.07,0-.09-.02-.02-.02.03-.04.06-.04h0ZM11.81,20.11c0,.05.02.16,0,.17-.02.01-.03,0-.05-.06-.01-.03-.04-.19,0-.26.03-.06.05-.09.1-.1.05,0,.07.04.05.09-.02.05-.09.09-.09.15ZM11.83,20.64s-.05.04-.05-.03c0-.05-.16-.17-.09-.17,0,0,.08-.01.1.02.03.03.11.12.11.14,0,.01-.05.02-.07.05h0ZM12.09,20.58s-.06.02-.08,0-.03-.04-.03-.06c0-.02-.1-.09-.09-.11s.04-.03.04-.03c.03,0,.13.09.14.13.02.03.03.05.02.06h0ZM12.26,20.5s-.07.04-.08.03c-.03-.03-.02-.06-.04-.09s-.07-.09-.03-.09c.05,0,.09.03.13.08.03.04.06.06.02.08h0ZM12.42,20.16c-.05.12-.11-1.75-.11-1.9,0-.12-.06-1.16.03-1.22.03-.03.13.29.14.84.02.46.03,2.01-.06,2.28ZM12.47,16.11s.06.04.06.11,0,.15-.02.15c-.02,0-.03-.06-.05-.11-.01-.05-.05-.14,0-.15ZM12.72,19.34c0,.28-.06.72-.09.82-.01.05-.08-1.62-.08-1.74,0-.08,0-1.33.03-1.31.11.06.11.66.11.91,0,.14.03,1.02.02,1.32h0ZM12.67,16.78c-.03.06-.13.06-.13-.03,0-.09-.07-.19-.03-.19.05,0,.09.02.12.04.05.05.06.14.05.17ZM12.01,15.3s.1.05.13.08c.04.04,0,.3.02.34.02.05.09.1.44.28.02,0,.06.11.06.19,0,.05-.01.17-.06.17-.03,0-.05-.03-.02-.14.02-.09-.04-.16-.05-.17-.04-.02-.1-.02-.12,0-.05.03-.04.1-.02.2.01.07.08.08.05.17,0,.02-.12.05-.14-.02-.02-.03.02-.09.03-.11.02-.12,0-.23,0-.23-.04-.02-.23-.2-.23-.24,0-.05-.02-.17-.09-.2-.01,0-.02-.2-.16-.27,0-.05.14-.05.18-.04h0ZM11.49,15.4c.08-.03.19.02.24.04.13.05.18.08.19.15,0,.05-.02.28,0,.35s.05.14.06.21c.01.06,0,.13,0,.18,0,.03-.06.03-.1.02-.03,0,.04-.17,0-.33,0-.03-.07-.1-.14-.14-.12-.06-.22-.28-.23-.33-.02-.06-.07-.12-.02-.14ZM11.33,15.59c.02.12.02.23.08.28s.2.15.28.18c.06.03.05.12.03.17-.03.11-.13.19-.12-.05,0-.08-.16-.11-.2-.08-.06.05-.04.15-.09.16-.08.02-.07-.18-.02-.21.03-.02-.05-.37-.17-.44-.08-.05.04.21,0,.31-.04.11,0,.3-.14.28-.26-.03-.41-.5-.5-.54-.05-.03,0-.22-.26-.49-.05-.05.03-.41-.06-.44-.09-.03.01-.36-.08-.4-.11-.04-.03-.26-.2-.36-.03-.02-.08-.11-.12-.23-.03-.09-.03-.23-.08-.3-.17-.26-.15-.59-.1-.66.04-.06.08-.13.05-.29-.04-.2,0-.42.06-.49.06-.07-.05-.72.08-.96.03-.05-.02-.12,0-.13.06-.03.04-.12,0-.15-.08-.06-.05-.16-.06-.23-.02-.07-.08-.2,0-.25.11-.06.07.13.15.17.1.05.27.17.31.25.05.08.06.13.18.21.16.1.19.16.23.28.11.34.09.69.11.95.02.27.06.38-.02.45-.07.06.05.4,0,.47s-.08,1.13-.02,1.27c.06.16.08.57.12.66.04.09.09.29.22.35.06.03.13.09.22.05.05-.01.11.12.13.2h0ZM10.63,10.86s.09-.05.11,0c.02.05.02.11-.05.12-.07,0-.14-.06-.06-.12h0ZM11.09,12.62c0,.17-.2,1.06-.19,1.23s.23.61.22.75c-.02.13.19.43.2.52.01.09-.09.01-.16-.1-.06-.1-.14-.23-.17-.25-.05-.02.03.26.08.33.04.07.23.26.2.27-.03,0-.3-.2-.38-.35-.04-.09-.12-.4-.16-.58-.01-.05-.05-.3-.03-.61.03-.66.16-1.26.15-1.41-.01-.16.06-.8,0-.88-.03-.05-.08-.26-.01-.31.05-.04.14.03.17.08.16.24.08,1.15.08,1.31h0ZM11.28,10.57c-.06.07-.14.16-.16.22-.02.06.02.08.05.12.05.06.06.12.02.14-.06.04-.24-.06-.26-.19-.01-.11.14-.19.08-.22-.05-.03-.23.04-.33-.01-.08-.03-.14-.08-.15-.2-.01-.12.06-.27.19-.36.05-.04.14.02.11.09-.03.08-.19.11-.21.23-.02.1.07.17.18.16.11-.01.13-.07.29-.08.16-.01.24.02.19.09h0ZM11.67,9.71c-.02.09-.08.17-.19.27-.05.05-.18.14,0,.28.06.05-.02.16-.16.04-.05-.05-.09-.22-.04-.35.04-.1.1-.15.23-.23.11-.07.06-.2.14-.2.05,0,.03.09,0,.19h0ZM11.69,8.88c0,.11-.03.34-.03.34,0,0-.19-.26-.14-.45.06-.2.1-.23.15-.3.06-.08.08-.18.12-.16.06.03.07.11.09.23.02.12-.19.23-.19.34ZM11.96,9.23c-.03.08.09.16.15.21.06.06-.03.06-.13.07-.03,0-.13-.08-.14-.2s.05-.34.2-.45c.12-.09.1-.15.08-.2-.04-.09.15,0,.16.16,0,.26-.29.33-.31.41ZM12.34,7.59c-.04.09-.22.28-.27.34s.04.19.09.15c.04-.02.18-.31.3-.34.09-.03.12.07.1.19-.03.18-.22.17-.28.31-.04.09-.01.13-.01.19,0,.03-.08-.01-.1-.03-.05-.03,0-.16-.04-.17-.26-.13-.31-.3-.3-.36.01-.07.19-.34.27-.42.08-.07.13-.2.2-.21.07,0,.06.25.02.34h0ZM12.15,6.54c-.01.11.05.2.13.25s-.04.05-.08.03c-.03-.02-.19-.18-.28-.24-.06-.04.14-.11.14-.16,0-.04,0-.11-.07-.07-.08.05-.22.02-.31-.07-.13-.12-.1-.36-.06-.47.04-.09.07-.16.18-.22.03-.02.13-.03.13.06,0,.16-.1.21-.15.31-.05.09,0,.32.13.32.13,0,.09-.09.16-.09.11,0,.1.2.08.34h0ZM13.57,5.42s-.21.2-.28.21c-.05,0,.08.11-.02.11-.06,0-.13-.06-.18-.14-.05-.08-.11-.22-.19-.22-.18,0-.2-.01-.28-.06-.03-.02-.09-.04-.11-.12-.01-.04.02-.07.11-.15,0,0,.08-.08.11-.14.02-.04.1-.23.16-.3.04-.05.11-.13.13-.15.03-.02.07,0,.02.05-.05.05-.2.36-.22.39-.04.08-.14.23-.14.27,0,.08.09.06.13.05.04-.01.06-.17.11-.16.09.02.07.09.06.14-.03.15.09-.04.14-.01s-.09.27.09.12c.06-.05.08-.22.17-.17.05.03.08.07.06.1-.05.06-.19.13-.22.17-.03.04-.02.11.02.13.08.03.14-.14.25-.19.05-.04.12.03.09.07h0ZM13.15,4.85c.06.05.13.16.09.17-.03.01-.1-.09-.13-.11-.04-.04-.1-.03-.11-.04-.02-.02,0-.06.02-.07.03,0,.09.02.13.05ZM14.33,4.43c-.02.07-.09.23-.17.2-.14-.06-.05-.23-.25-.3s-.25-.02-.3-.04c-.04-.02-.02-.09-.03-.15-.01-.06-.05-.09-.08-.1-.06-.02-.09-.1-.05-.11.06-.02.19.21.26.12.03-.05-.07-.07-.05-.2.02-.07.07-.14.13-.17,0,0-.01-.01-.02-.02-.03-.04,0-.24-.03-.31,0-.02-.05-.09-.08-.11-.06-.06-.11-.07-.18-.03-.08.05-.27.36-.38.51-.11.14-.14.12.16.27.2.1.13.25.11.31s-.04.11.09.11c.07,0,.19,0,.26.03.11.05.22.11.33.26.08.11.05.2-.02.17-.07-.03-.23-.22-.26-.24-.06-.05-.13-.11-.19-.07-.05.02.02.09.07.14.07.06.28.26.19.32-.07.05-.17-.12-.22-.19-.04-.05-.09-.15-.16-.17.01.01.06.13.08.14.04.07.08.18.09.25.02.09.03.19-.04.19-.14,0-.07-.09-.16-.14-.03-.02-.3-.41-.3-.42-.01-.04.03-.07.05-.05,0,0,.2.32.27.38.13.13.04-.05.02-.13,0-.02-.08-.22-.09-.24h0c-.05-.03-.13-.13-.21-.23-.13-.16-.33-.02-.36-.09.02.02-.05.11-.08.16-.04.07-.14.26-.15.39-.03.25-.12.14-.21.2-.08.05-.13.2.03.35.13.13.35.08.47.09.11,0,.06.07.06.17,0,.1.07.2.13.28.04.06-.05.11-.16.16-.14.05-.23-.03-.27-.09-.03-.05-.01-.17-.1-.26-.09-.09-.28-.14-.37-.23-.06-.06-.05-.53-.03-.59s-.07-.23-.02-.3c.06-.07.24.08.33-.03.03-.04.13-.12.16-.16.13-.14.18-.16.2-.14-.02-.06-.16.01-.26.03-.08.02-.34.07-.36.01-.02-.06.05-.1.04-.24-.02-.15-.08-.16-.07-.26s.05-.17.23-.18c.22-.02.34.05.42.07.08.02.16.03.16-.02s-.19-.22-.32-.25c-.09-.03-.15,0-.2.03-.05.03-.19,0-.2-.06,0-.07-.05-.08-.06-.17,0-.06-.04-.22.14-.23.12,0,.17-.24.29-.29.05-.02.16-.03.29.05.56.31.69.15.8.34.02.04.07.11.11.21.05.13.02.24.03.34.06.03.03.19.14.26.14.09.14.13.22.19.07.06.11.24.09.31h0ZM13.31,3.87c-.1.02-.17-.06-.17-.06,0,0,.21-.17.3-.32.08-.11.2,0,.18.09-.02.11-.16.25-.31.28Z"/>
        <path id="path285" class="cls-2" d="M3.4,4.58h0s.02,0,.03,0h-.02Z"/>
        <path id="path289" class="cls-2" d="M5.97,2.93s-.04-.05-.09-.11c0,0,.06.1.09.11Z"/>
        <path id="path293" class="cls-2" d="M5.12,22.16c-.07,0-.11.02-.11.05,0,.02.02.04.04.08l.05.07c.07.1.13.15.18.15h.04s.04-.01.04-.01h.06s.06-.02.06-.02c.03,0,.06,0,.09.02.06.03.1.07.13.11l.21.27c.04.05.08.08.11.08.02,0,.03-.02.03-.03,0-.03-.02-.08-.07-.13l-.25-.3c-.18-.22-.39-.33-.63-.33ZM12.86,22.16c-.07,0-.11.02-.11.05,0,.02.01.04.04.08l.05.07c.07.1.13.15.18.15h.04s.04-.01.04-.01h.07s.06-.02.06-.02c.03,0,.06,0,.09.02.06.03.1.07.13.11l.21.27c.04.05.08.08.11.08.02,0,.03-.02.03-.03,0-.03-.02-.08-.07-.13l-.25-.3c-.19-.22-.4-.33-.63-.33ZM.22,23.02v.23h.49v.38s-.01.05-.03.08c-.03.05-.06.07-.09.07-.02,0-.05-.02-.09-.03-.03-.02-.06-.03-.11-.04-.07,0-.11.05-.11.16,0,.14.08.31.25.52l.23.28c.07.08.16.17.27.28.04.04.09.06.13.06.03,0,.05-.01.05-.04,0-.08-.06-.15-.17-.23l-.17-.14c-.1-.1-.15-.17-.15-.22v-.05s.04-.06.04-.06l.1-.17s.04-.08.05-.12h.08s.05.03.06.05c.06.05.09.09.12.1.04.02.11.03.2.03h.12c.06,0,.13,0,.2-.03v.48c0,.1.02.18.07.23.01.02.04.04.07.07.04.05.07.07.09.07.01,0,.02-.01.02-.03,0-.02,0-.03,0-.05v-1.67h1.66s.05.1.05.17c0,.1-.03.17-.1.21-.05.03-.13.05-.23.05h-.68c-.1,0-.2.03-.28.1-.1.08-.15.18-.15.3,0,.14.05.28.14.4l.19.25c.05.07.13.14.23.21.05.03.08.05.11.05.02,0,.03-.02.03-.04,0-.03-.01-.05-.02-.07-.02-.03-.06-.08-.15-.15l-.13-.11c-.1-.08-.15-.19-.15-.33,0-.22.12-.34.37-.37h.46l.09.14c.18.27.38.4.59.4.12,0,.22-.03.3-.08.02-.01.03-.02.04-.02.02,0,.03.02.02.04v.11s0,.11,0,.11v.09s.03.05.06.07l.16.16s.06.05.07.05c0,0,.02-.02.02-.03v-1.71h.56v.66l-.04.02h-.05s-.06,0-.06,0c-.09,0-.13.04-.13.13,0,.07.05.14.13.22l.14.16c.06.06.11.09.17.09.03,0,.05,0,.08-.02.03-.02.05-.04.05-.06,0-.02,0-.04,0-.05v-.11s0-.06.04-.07h.6v.53s.05.09.11.16.11.11.14.1c.03,0,.04-.02.03-.08v-1.66h1.27v.52l-.23-.14c-.06-.04-.13-.06-.21-.06-.09,0-.16,0-.22.02-.19.05-.28.16-.28.34,0,.13.06.26.18.4.11.13.24.19.39.19.09,0,.19-.02.29-.07l.03-.02s.02,0,.03-.01h.03s0,.14,0,.14c0,.14.03.25.1.33s.12.11.14.11.03-.03.03-.07v-1.67h.23v-.23H.22ZM8.92,23.02v.23h1.61v.46l-.88-.02h-.05s-.03.03-.03.04h0s.02.03.02.03c.19.19.29.33.3.41,0,.16-.08.23-.23.23-.06,0-.12-.02-.17-.06-.03-.02-.08-.06-.15-.14-.05-.05-.09-.13-.15-.25l-.06-.16c-.02-.05-.05-.08-.09-.08-.03,0-.05.02-.05.06v.03s.09.2.09.2c.05.11.1.21.17.29.13.17.24.28.34.33.09.05.18.07.28.07.17-.02.25-.11.25-.28,0-.09-.02-.17-.05-.23l-.09-.17v-.03s.02-.02.05-.03c.04-.01.08-.02.11-.02h.41v.79s.02.07.06.1c.13.11.2.16.21.16.02,0,.02-.03.02-.07v-1.67h.67s.05.1.05.17c0,.1-.03.17-.1.21-.05.03-.13.05-.23.05h-.11s-.04.03-.04.06c0,.02.03.08.09.17l.1.15c.18.27.38.4.59.4.12,0,.22-.03.3-.08.02-.01.03-.02.03-.02.02,0,.03.02.02.04v.11s-.01.11-.01.11v.09s.04.05.06.07l.16.16s.06.05.07.05c0,0,.02-.02.02-.03v-1.71h1.37v.44h-.45s-.17,0-.17,0c-.11,0-.2.04-.29.11-.1.08-.15.18-.15.3,0,.15.05.28.14.41l.19.26c.06.07.13.14.23.21.05.03.08.05.11.05.02,0,.03-.01.03-.03,0-.03-.01-.05-.02-.07-.01-.03-.06-.08-.15-.15l-.13-.11c-.1-.08-.15-.2-.15-.34,0-.22.13-.34.37-.37h.45v.8s0,.07.04.1l.09.08c.08.07.13.11.14.11.01,0,.02-.04.02-.11v-1.65h.19v-.23h-5.43ZM.96,23.25h.73v.58c-.09.06-.22.09-.39.08h-.21c-.07,0-.11-.02-.13-.04v-.62h0ZM3.76,23.25h.58v.56c0,.12-.06.21-.18.29-.11.07-.22.11-.35.11-.06,0-.13-.02-.2-.06-.08-.05-.13-.09-.12-.15,0-.03.02-.05.05-.05l.13-.03c.13-.05.19-.12.19-.2l-.02-.13-.03-.17c-.03-.07-.03-.13-.03-.17ZM5.44,23.25h.67v.69h-.67v-.69ZM11.63,23.25h.58v.56c0,.12-.06.21-.18.29-.11.07-.22.11-.35.11-.06,0-.13-.02-.2-.06-.08-.05-.13-.09-.13-.15,0-.03.02-.05.05-.05l.13-.03c.13-.05.19-.12.19-.2l-.02-.13-.03-.17c-.02-.07-.03-.13-.03-.17h0ZM7.31,23.79h.05c.1,0,.2.02.3.05v.24c-.08.06-.15.1-.21.13-.05.02-.13.05-.22.06-.05.01-.09.02-.11.02-.13,0-.19-.05-.19-.16.02-.21.15-.33.39-.34Z"/>
      </g>
      <g>
        <g>
          <path class="cls-1" d="M18.45,3.35s0-.04.03-.04c.19,0,.56-.01.92-.01.96,0,1.32.54,1.32,1.08,0,.79-.61,1.13-1.36,1.13h-.31v1.02s0,.04-.04.04h-.52s-.04,0-.04-.03v-3.18ZM19.05,4.98c.08,0,.15,0,.31,0,.42,0,.77-.14.77-.59,0-.36-.26-.58-.71-.58-.17,0-.31,0-.37,0v1.15Z"/>
          <path class="cls-1" d="M24.21,4.92c0,1.03-.63,1.7-1.53,1.7-.96,0-1.54-.72-1.54-1.68s.63-1.68,1.54-1.68c.97,0,1.53.74,1.53,1.66ZM22.7,6.08c.56,0,.9-.46.89-1.15,0-.69-.34-1.15-.92-1.15-.53,0-.91.41-.91,1.15,0,.64.33,1.15.94,1.15Z"/>
          <path class="cls-1" d="M24.8,6.57s-.04,0-.04-.04v-3.17s0-.04.03-.04c.39,0,.6-.01.98-.01.79,0,1.26.34,1.26.98,0,.43-.28.74-.64.87.16.23.76,1.12.9,1.37.01.03.02.05,0,.05h-.62s-.05,0-.07-.02c-.14-.22-.49-.79-.71-1.14-.03-.06-.06-.08-.11-.08h-.43v1.21s-.01.04-.04.04h-.51ZM25.79,4.8c.4,0,.66-.18.66-.5s-.26-.49-.69-.49c-.17,0-.33,0-.41,0v.98h.43Z"/>
          <path class="cls-1" d="M28.32,3.85h-1.01s-.03-.01-.03-.04l.06-.46s.01-.04.04-.04h2.47s.04,0,.05.04l.04.45s0,.04-.03.04h-1v2.68s-.01.04-.04.04h-.51s-.04,0-.04-.04v-2.68Z"/>
          <path class="cls-1" d="M30.51,5.71l-.27.82s-.02.04-.05.04h-.5s-.04-.01-.03-.05l1.02-2.91s.03-.1.04-.27c0-.02,0-.03.03-.03h.69s.03,0,.03.03l1.15,3.19s0,.04-.03.04h-.56s-.04,0-.05-.03l-.29-.83h-1.19ZM31.54,5.17c-.1-.33-.34-1.02-.44-1.37h0c-.08.33-.28.91-.43,1.37h.87Z"/>
          <path class="cls-1" d="M33.06,6.57s-.05-.01-.05-.05v-3.17s0-.04.04-.04h.53s.03.01.03.03v2.69h1.46s.04.01.03.03l-.08.47s-.02.04-.04.04h-1.92Z"/>
          <path class="cls-1" d="M37.23,6.53s0,.04-.04.04h-.53s-.03-.01-.03-.04v-3.19s0-.03.04-.03h1.92s.04,0,.04.04l.05.46s0,.04-.04.04h-1.41v.87h1.27s.04,0,.04.03v.47s-.01.03-.04.03h-1.27v1.28Z"/>
          <path class="cls-1" d="M42.09,4.92c0,1.03-.63,1.7-1.53,1.7-.96,0-1.54-.72-1.54-1.68s.63-1.68,1.54-1.68c.97,0,1.53.74,1.53,1.66ZM40.57,6.08c.56,0,.9-.46.89-1.15,0-.69-.34-1.15-.92-1.15-.53,0-.91.41-.91,1.15,0,.64.33,1.15.94,1.15Z"/>
          <path class="cls-1" d="M42.68,6.57s-.04,0-.04-.04v-3.17s0-.04.03-.04c.39,0,.6-.01.98-.01.79,0,1.26.34,1.26.98,0,.43-.28.74-.64.87.16.23.76,1.12.9,1.37.01.03.02.05,0,.05h-.62s-.05,0-.07-.02c-.14-.22-.49-.79-.71-1.14-.03-.06-.06-.08-.11-.08h-.43v1.21s-.01.04-.04.04h-.51ZM43.66,4.8c.4,0,.66-.18.66-.5s-.26-.49-.69-.49c-.17,0-.33,0-.41,0v.98h.43Z"/>
        </g>
        <g>
          <path class="cls-1" d="M18.77,8.53s.02-.07.06-.07c.32,0,.95-.03,1.57-.03,1.65,0,2.26.92,2.26,1.85,0,1.35-1.04,1.93-2.33,1.93h-.53v1.74s-.02.07-.07.07h-.89s-.07-.02-.07-.06v-5.44ZM19.8,11.31c.14,0,.25,0,.53,0,.71,0,1.32-.24,1.32-1.01,0-.62-.44-.98-1.22-.98-.3,0-.53,0-.63.02v1.97Z"/>
          <path class="cls-1" d="M24.6,11.86c0,.81.39,1.34,1.21,1.34.67,0,1.17-.32,1.17-1.36v-3.32c0-.05.02-.08.07-.08h.89c.05,0,.07.03.07.07v3.38c0,1.59-.98,2.21-2.23,2.21-1.34,0-2.2-.71-2.2-2.17v-3.41c0-.05,0-.08.07-.08h.89c.05,0,.07.02.07.07v3.34Z"/>
          <path class="cls-1" d="M29.18,8.54s0-.07.05-.08c.31,0,1.08-.03,1.65-.03,1.77,0,2.05.93,2.05,1.48,0,.6-.32.95-.53,1.1.31.16.81.53.81,1.32,0,1.07-.93,1.71-2.33,1.71-.74,0-1.32,0-1.64-.02-.04,0-.06-.03-.06-.07v-5.42ZM30.19,10.67h.64c.31,0,.64.03.77.05.18-.14.32-.34.32-.67,0-.5-.37-.75-1.07-.75-.27,0-.49,0-.67,0v1.36ZM30.19,13.17c.19,0,.4.02.65.02.8,0,1.31-.26,1.31-.83,0-.35-.17-.63-.61-.74-.15-.04-.35-.06-.58-.06h-.77v1.61Z"/>
          <path class="cls-1" d="M34.18,14.03c-.07,0-.08-.03-.08-.08v-5.41s.02-.08.07-.08h.91s.05.03.05.06v4.59h2.49c.05,0,.07.03.06.06l-.14.8c0,.06-.03.07-.08.07h-3.28Z"/>
          <path class="cls-1" d="M39.35,13.95c0,.06-.02.08-.07.08h-.89c-.05,0-.07-.03-.07-.08v-5.43c0-.06.03-.07.07-.07h.89c.05,0,.07.02.07.07v5.43Z"/>
          <path class="cls-1" d="M44.43,13.85c0,.05-.02.09-.06.11-.28.1-.7.15-1.17.15-1.57,0-2.91-.93-2.91-2.86,0-1.71,1.19-2.89,3.04-2.89.55,0,.89.05,1.1.14.03.02.05.04.05.09v.81c0,.07-.03.07-.07.05-.27-.13-.66-.19-1.1-.19-1.2,0-1.96.76-1.96,1.95,0,1.47,1.09,1.97,1.98,1.97.42,0,.73-.03,1.04-.14.03-.02.06,0,.06.04v.76Z"/>
          <path class="cls-1" d="M21.18,19.43c-.06,0-.07-.03-.07-.08v-.76s.03-.05.06-.05h1.92c.06,0,.07.02.07.07v2.77s0,.07-.05.08c-.59.23-1.18.29-1.67.29-1.99,0-2.98-1.26-2.98-2.83,0-1.76,1.26-2.91,3.13-2.91.57,0,1.07.06,1.37.2.03.02.05.05.05.1v.81c0,.05-.03.06-.07.04-.38-.2-.82-.25-1.32-.25-1.37-.02-2.1.73-2.1,1.96,0,1.1.68,1.97,1.97,1.97.29,0,.48-.03.64-.08v-1.32l-.95-.03Z"/>
          <path class="cls-1" d="M24.32,21.66c-.05,0-.07-.02-.07-.07v-5.42s0-.08.06-.08c.67-.02,1.03-.03,1.68-.03,1.36,0,2.16.59,2.16,1.67,0,.74-.48,1.26-1.09,1.49.28.39,1.3,1.91,1.54,2.33.03.05.03.09-.02.09h-1.06c-.07,0-.09-.02-.12-.04-.25-.38-.84-1.36-1.21-1.95-.06-.1-.1-.14-.2-.14h-.73v2.07c0,.05-.03.07-.07.07h-.87ZM26,18.65c.69,0,1.13-.31,1.13-.85s-.45-.84-1.17-.84c-.29,0-.56,0-.7.02v1.67h.74Z"/>
          <path class="cls-1" d="M30.26,21.58c0,.06-.02.08-.07.08h-.89c-.05,0-.07-.03-.07-.08v-5.43c0-.06.03-.07.07-.07h.89c.05,0,.07.02.07.07v5.43Z"/>
          <path class="cls-1" d="M35.06,21.59c0,.06-.03.07-.08.07h-3.38c-.06,0-.08-.03-.08-.07v-5.44s.02-.07.07-.07h3.28c.05,0,.07,0,.08.06l.09.79s0,.08-.06.08h-2.43v1.35h2.21s.06,0,.06.06v.81s-.03.05-.06.05h-2.21v1.46h2.57c.05,0,.07.03.06.07l-.13.79Z"/>
          <path class="cls-1" d="M38.18,20.64c.19-.66.61-2.1,1.42-4.49.02-.05.03-.07.08-.07h.92s.07.03.05.08l-1.94,5.44c-.02.05-.04.06-.08.06h-.98s-.07,0-.08-.05l-1.99-5.45s0-.08.05-.08h.98s.06.02.07.05c.81,2.23,1.36,3.88,1.51,4.51h.02Z"/>
          <path class="cls-1" d="M41.77,20.19l-.47,1.4c-.02.05-.04.07-.09.07h-.85c-.05,0-.07-.03-.06-.08l1.75-4.97c.03-.08.06-.17.08-.46,0-.03.02-.06.05-.06h1.18s.05,0,.06.05l1.96,5.45c0,.05,0,.08-.05.08h-.95s-.07-.02-.08-.05l-.49-1.42h-2.03ZM43.52,19.27c-.18-.56-.58-1.74-.75-2.33h0c-.14.57-.48,1.56-.73,2.33h1.49Z"/>
          <path class="cls-1" d="M46.11,21.66c-.05,0-.08,0-.08-.08v-5.44s.02-.06.06-.06h1.2c.07,0,.08.02.1.06.63,1.12,1.93,3.51,2.22,4.15h0c0-.24-.03-.52-.03-1.32v-2.83s.03-.07.08-.07h.81c.06,0,.08.03.08.08v5.42c0,.06-.03.08-.08.08h-1.08c-.06,0-.08-.02-.11-.06-.44-.87-1.99-3.61-2.33-4.43h0c.03.43.04.81.04,1.58v2.83c0,.05-.02.08-.07.08h-.82Z"/>
          <path class="cls-1" d="M55.65,21.48c0,.05-.02.09-.06.11-.28.1-.7.15-1.17.15-1.57,0-2.91-.93-2.91-2.86,0-1.71,1.19-2.89,3.04-2.89.55,0,.89.05,1.1.14.03.02.05.04.05.09v.81c0,.07-.03.07-.07.05-.27-.13-.66-.19-1.1-.19-1.2,0-1.96.76-1.96,1.95,0,1.47,1.09,1.97,1.98,1.97.42,0,.73-.03,1.04-.14.03-.02.06,0,.06.04v.76Z"/>
          <path class="cls-1" d="M60.08,21.59c0,.06-.03.07-.08.07h-3.38c-.06,0-.08-.03-.08-.07v-5.44s.02-.07.07-.07h3.28c.05,0,.07,0,.08.06l.09.79s0,.08-.06.08h-2.43v1.35h2.21s.06,0,.06.06v.81s-.03.05-.06.05h-2.21v1.46h2.57c.05,0,.07.03.06.07l-.13.79Z"/>
          <path class="cls-1" d="M60.93,21.44s-.06-.06-.06-.13v-.88s.03-.05.07-.03c.46.3,1.02.44,1.51.44.7,0,.99-.27.99-.64,0-.31-.2-.55-.85-.82l-.41-.17c-1.04-.44-1.32-.97-1.32-1.6,0-.91.69-1.6,1.97-1.6.53,0,1.02.08,1.3.22.04.03.05.05.05.11v.82s-.03.07-.08.03c-.32-.19-.79-.28-1.28-.28-.73,0-.96.31-.96.6s.2.52.87.8l.32.14c1.1.46,1.42.99,1.42,1.66,0,.99-.78,1.64-2.06,1.64-.62,0-1.14-.12-1.48-.31Z"/>
        </g>
      </g>
    </g>
  </g>
</svg>