<?xml version="1.0" encoding="UTF-8"?>
<svg id="Layer_2" data-name="Layer 2" xmlns="http://www.w3.org/2000/svg" viewBox="0 0 62.09 16.87">
  <defs>
    <style>
      .cls-1 {
        fill: #666;
      }

      .cls-2 {
        fill: #233f7f;
      }

      .cls-3 {
        fill: #f7931e;
      }
    </style>
  </defs>
  <g id="Layer_1-2" data-name="Layer 1">
    <g>
      <path class="cls-2" d="M6.85,1.02v6.23c0,.72.03,1.48.05,1.91h-1.84l-.1-.94h-.03c-.42.72-1.23,1.08-2.09,1.08C1.27,9.3,0,8.01,0,6.02c-.02-2.16,1.39-3.4,2.99-3.4.82,0,1.46.27,1.76.72h.03V1.01h2.08ZM4.78,5.48c0-.11-.02-.25-.03-.35-.12-.53-.57-.98-1.21-.98-.94,0-1.43.81-1.43,1.82,0,1.08.56,1.77,1.42,1.77.6,0,1.08-.39,1.2-.95.04-.14.05-.29.05-.46v-.84Z"/>
      <path class="cls-2" d="M13.4,7.61c0,.62.03,1.2.09,1.56h-1.87l-.12-.64h-.04c-.43.51-1.12.79-1.91.79-1.35,0-2.15-.94-2.15-1.96,0-1.66,1.56-2.46,3.91-2.45v-.09c0-.34-.19-.82-1.21-.82-.68,0-1.4.22-1.84.48l-.38-1.28c.47-.25,1.38-.56,2.59-.56,2.22,0,2.93,1.26,2.93,2.76v2.22h0ZM11.38,6.14c-1.09-.01-1.94.24-1.94,1.01,0,.51.35.76.82.76.52,0,.94-.33,1.08-.73.03-.11.04-.22.04-.34v-.69h0Z"/>
      <path class="cls-2" d="M16.56,1.01v1.76h1.49v1.46h-1.49v2.31c0,.77.19,1.13.82,1.13.29,0,.41-.01.61-.05v1.5c-.26.1-.75.18-1.34.18-.67,0-1.23-.24-1.56-.56-.38-.38-.57-.99-.57-1.9v-2.62h-.88v-1.46h.88v-1.76h2.04Z"/>
      <path class="cls-2" d="M24.35,7.61c0,.62.03,1.2.09,1.56h-1.87l-.12-.64h-.04c-.44.51-1.12.79-1.91.79-1.35,0-2.15-.94-2.15-1.96,0-1.66,1.56-2.46,3.91-2.45v-.09c0-.34-.19-.82-1.21-.82-.68,0-1.4.22-1.84.48l-.38-1.28c.46-.25,1.38-.56,2.59-.56,2.22,0,2.93,1.26,2.93,2.76v2.22ZM22.33,6.14c-1.09-.01-1.94.24-1.94,1.01,0,.51.35.76.82.76.52,0,.94-.33,1.08-.73.03-.11.04-.22.04-.34v-.69Z"/>
      <path class="cls-2" d="M34.07,8.66c0,1.23-.26,2.23-1.01,2.88-.74.6-1.73.79-2.72.79-.87,0-1.8-.17-2.4-.5l.41-1.5c.42.24,1.16.48,1.94.48.98,0,1.73-.51,1.73-1.69v-.42h-.03c-.4.53-1.04.84-1.8.84-1.65,0-2.82-1.28-2.82-3.13,0-2.05,1.39-3.36,3.03-3.36.92,0,1.49.38,1.83.9h.03l.07-.76h1.8c-.03.4-.05.94-.05,1.9v3.57h0ZM32,5.79c0-.13-.02-.26-.04-.37-.15-.52-.55-.88-1.12-.88-.75,0-1.36.66-1.36,1.82,0,.95.49,1.7,1.36,1.7.53,0,.95-.34,1.09-.81.05-.14.07-.35.07-.52v-.94h0Z"/>
      <path class="cls-2" d="M41.64,6.32c0,2.34-1.73,3.41-3.52,3.41-1.95,0-3.45-1.23-3.45-3.29s1.42-3.39,3.56-3.39,3.41,1.35,3.41,3.27M36.81,6.38c0,1.1.48,1.92,1.37,1.92.8,0,1.32-.77,1.32-1.92,0-.95-.38-1.92-1.32-1.92-1,0-1.37.98-1.37,1.92"/>
      <path class="cls-2" d="M43.66,3.19l.9,2.97c.16.54.29,1.04.38,1.56h.04c.11-.52.22-1.01.37-1.56l.86-2.97h2.18l-2.48,6.4h-2.07l-2.43-6.4h2.25Z"/>
      <path class="cls-2" d="M27.22,8.27c0,.55-.43.99-1.12.99s-1.09-.44-1.08-.99c-.01-.57.42-1.01,1.09-1.01s1.09.43,1.11,1.01"/>
      <path class="cls-3" d="M55.66,0c-3.55,0-6.44,2.88-6.44,6.44s2.88,6.44,6.44,6.44,6.44-2.88,6.44-6.44-2.88-6.44-6.44-6.44ZM53.34,9.59h-2.07V3.19h2.07v6.39ZM58.58,9.59v-3.55c0-.82-.3-1.39-1.05-1.39-.57,0-.92.38-1.05.75-.05.13-.08.31-.08.5v3.69h-2.07v-4.35c0-.8-.03-1.48-.05-2.04h1.8l.09.88h.04c.27-.4.95-1.02,2.06-1.02,1.37,0,2.39.86,2.39,2.75v3.79h-2.07Z"/>
      <g>
        <path class="cls-1" d="M2.1,15.13c0,.33-.08.59-.25.79-.17.19-.4.29-.7.29s-.54-.09-.71-.28-.25-.45-.25-.79.08-.6.25-.79c.17-.19.4-.28.71-.28s.53.09.7.28c.17.19.25.45.25.79ZM.44,15.13c0,.28.06.5.18.64.12.14.29.22.52.22s.4-.07.52-.22.18-.36.18-.64-.06-.49-.18-.64c-.12-.14-.29-.22-.52-.22s-.4.07-.53.22c-.12.15-.18.36-.18.64Z"/>
        <path class="cls-1" d="M3.25,16.2c-.1,0-.19-.02-.28-.06-.08-.04-.15-.09-.21-.17h-.02c.01.09.02.18.02.26v.64h-.24v-2.26h.19l.03.21h.01c.06-.08.13-.15.21-.18.08-.04.17-.06.28-.06.21,0,.37.07.48.21.11.14.17.34.17.59s-.06.46-.17.6c-.11.14-.27.21-.48.21ZM3.22,14.78c-.16,0-.27.05-.34.13-.07.09-.11.23-.11.42v.05c0,.22.04.37.11.47.07.09.19.14.35.14.14,0,.24-.05.32-.16s.11-.26.11-.45-.04-.34-.11-.45c-.08-.11-.18-.16-.32-.16Z"/>
        <path class="cls-1" d="M4.97,16.2c-.23,0-.41-.07-.55-.21-.13-.14-.2-.34-.2-.59s.06-.45.18-.6c.12-.15.29-.22.5-.22.2,0,.35.06.47.19.11.13.17.3.17.51v.15h-1.08c0,.18.05.32.14.42s.21.14.37.14c.17,0,.34-.04.5-.11v.21c-.08.04-.16.06-.24.08-.08.02-.17.02-.27.02ZM4.9,14.78c-.12,0-.23.04-.3.12-.08.08-.12.19-.13.34h.82c0-.15-.03-.26-.1-.34-.07-.08-.16-.12-.28-.12Z"/>
        <path class="cls-1" d="M7.01,16.17v-1.01c0-.13-.03-.22-.09-.28s-.15-.09-.27-.09c-.16,0-.28.05-.36.13-.08.09-.11.23-.11.44v.82h-.24v-1.56h.19l.04.21h.01c.05-.08.11-.14.2-.18s.18-.06.29-.06c.19,0,.33.05.42.14.09.09.14.24.14.43v1.02h-.24Z"/>
        <path class="cls-1" d="M9.44,15.08h.71v1.01c-.11.04-.22.06-.34.08-.11.02-.24.03-.4.03-.31,0-.56-.09-.73-.28s-.26-.45-.26-.79c0-.22.04-.4.13-.57s.21-.29.37-.37.35-.13.57-.13.43.04.62.12l-.09.21c-.19-.08-.37-.12-.54-.12-.25,0-.45.08-.59.23s-.21.36-.21.63.07.49.21.64.34.22.6.22c.14,0,.28-.02.42-.05v-.64h-.47v-.21h0Z"/>
        <path class="cls-1" d="M11.95,15.39c0,.25-.06.45-.19.59-.13.14-.31.21-.53.21-.14,0-.26-.03-.37-.1s-.19-.16-.25-.28-.09-.27-.09-.43c0-.25.06-.45.19-.59s.31-.21.53-.21.39.07.52.22c.13.14.2.34.2.59ZM10.77,15.39c0,.2.04.35.12.46.08.11.2.16.35.16s.27-.05.35-.16c.08-.1.12-.26.12-.46s-.04-.35-.12-.45c-.08-.1-.2-.15-.36-.15s-.27.05-.35.15c-.08.11-.12.26-.12.46Z"/>
        <path class="cls-1" d="M12.71,16.17l-.59-1.56h.25l.34.92c.08.22.12.36.13.42h.01c0-.05.04-.15.1-.31.05-.16.18-.5.37-1.03h.25l-.59,1.56h-.28Z"/>
        <path class="cls-1" d="M14.49,16.2c-.23,0-.41-.07-.55-.21-.13-.14-.2-.34-.2-.59s.06-.45.18-.6c.12-.15.29-.22.5-.22.2,0,.35.06.47.19.11.13.17.3.17.51v.15h-1.08c0,.18.05.32.14.42s.21.14.37.14c.17,0,.34-.04.5-.11v.21c-.08.04-.16.06-.24.08-.08.02-.17.02-.27.02ZM14.42,14.78c-.12,0-.23.04-.3.12-.08.08-.12.19-.13.34h.82c0-.15-.03-.26-.1-.34-.07-.08-.16-.12-.28-.12Z"/>
        <path class="cls-1" d="M16.17,14.58c.07,0,.13,0,.19.02l-.03.22c-.06-.02-.12-.02-.17-.02-.13,0-.23.05-.32.15s-.14.23-.14.38v.84h-.24v-1.56h.2l.03.29h.01c.06-.1.13-.18.21-.24.08-.06.17-.08.27-.08Z"/>
        <path class="cls-1" d="M17.72,16.17v-1.01c0-.13-.03-.22-.09-.28s-.15-.09-.27-.09c-.16,0-.28.05-.36.13-.08.09-.11.23-.11.44v.82h-.24v-1.56h.19l.04.21h.01c.05-.08.11-.14.2-.18s.18-.06.29-.06c.19,0,.33.05.42.14.09.09.14.24.14.43v1.02h-.24Z"/>
        <path class="cls-1" d="M20.42,16.17v-1.01c0-.12-.03-.22-.08-.28-.05-.06-.14-.09-.25-.09-.15,0-.26.04-.33.13s-.11.21-.11.39v.87h-.24v-1.01c0-.12-.03-.22-.08-.28-.05-.06-.14-.09-.25-.09-.15,0-.26.05-.33.13-.07.09-.1.23-.1.43v.82h-.24v-1.56h.19l.04.21h.01c.05-.08.11-.14.19-.18.08-.04.17-.06.27-.06.24,0,.4.09.48.27h.01c.05-.08.11-.14.2-.19s.19-.07.3-.07c.18,0,.31.05.4.14s.13.24.13.43v1.02h-.24Z"/>
        <path class="cls-1" d="M21.81,16.2c-.23,0-.41-.07-.55-.21-.13-.14-.2-.34-.2-.59s.06-.45.18-.6c.12-.15.29-.22.5-.22.2,0,.35.06.47.19.11.13.17.3.17.51v.15h-1.08c0,.18.05.32.14.42s.21.14.37.14c.17,0,.34-.04.5-.11v.21c-.08.04-.16.06-.24.08-.08.02-.17.02-.27.02ZM21.74,14.78c-.12,0-.23.04-.3.12-.08.08-.12.19-.13.34h.82c0-.15-.03-.26-.1-.34-.07-.08-.16-.12-.28-.12Z"/>
        <path class="cls-1" d="M23.85,16.17v-1.01c0-.13-.03-.22-.09-.28s-.15-.09-.27-.09c-.16,0-.28.05-.36.13-.08.09-.11.23-.11.44v.82h-.24v-1.56h.19l.04.21h.01c.05-.08.11-.14.2-.18s.18-.06.29-.06c.19,0,.33.05.42.14.09.09.14.24.14.43v1.02h-.24Z"/>
        <path class="cls-1" d="M25.08,16s.08,0,.12,0,.07-.01.09-.02v.18s-.06.02-.11.03c-.05,0-.09.01-.13.01-.3,0-.45-.16-.45-.48v-.93h-.22v-.11l.22-.1.1-.33h.14v.36h.45v.18h-.45v.92c0,.09.02.17.07.22.04.05.1.07.18.07Z"/>
        <path class="cls-1" d="M28.05,15.11c0,.34-.09.61-.28.79-.19.18-.45.27-.8.27h-.58v-2.08h.64c.32,0,.57.09.76.27.18.18.27.43.27.75ZM27.8,15.12c0-.27-.07-.47-.21-.61-.14-.14-.34-.21-.61-.21h-.35v1.66h.29c.29,0,.5-.07.65-.21.14-.14.22-.35.22-.63Z"/>
        <path class="cls-1" d="M29.44,16.17l-.05-.22h-.01c-.08.1-.15.16-.23.2s-.18.05-.29.05c-.15,0-.27-.04-.36-.12-.09-.08-.13-.19-.13-.34,0-.31.25-.48.76-.5h.27v-.11c0-.12-.03-.21-.08-.27-.05-.06-.14-.09-.25-.09-.13,0-.28.04-.44.12l-.07-.18c.08-.04.16-.08.25-.1.09-.02.18-.04.27-.04.19,0,.32.04.41.12.09.08.14.21.14.4v1.06h-.18ZM28.91,16c.15,0,.26-.04.35-.12s.13-.19.13-.34v-.14h-.24c-.19.02-.32.05-.4.1-.08.05-.12.13-.12.24,0,.08.03.15.08.2.05.04.12.07.21.07Z"/>
        <path class="cls-1" d="M30.6,16s.08,0,.12,0c.04,0,.07-.01.09-.02v.18s-.06.02-.11.03c-.05,0-.09.01-.13.01-.3,0-.45-.16-.45-.48v-.93h-.22v-.11l.22-.1.1-.33h.14v.36h.45v.18h-.45v.92c0,.09.02.17.07.22.04.05.1.07.18.07Z"/>
        <path class="cls-1" d="M32.09,16.17l-.05-.22h-.01c-.08.1-.15.16-.23.2s-.18.05-.29.05c-.15,0-.27-.04-.36-.12-.09-.08-.13-.19-.13-.34,0-.31.25-.48.76-.5h.27v-.11c0-.12-.03-.21-.08-.27-.05-.06-.14-.09-.25-.09-.13,0-.28.04-.44.12l-.07-.18c.08-.04.16-.08.25-.1.09-.02.18-.04.27-.04.19,0,.32.04.41.12.09.08.14.21.14.4v1.06h-.18ZM31.55,16c.15,0,.26-.04.35-.12s.13-.19.13-.34v-.14h-.24c-.19.02-.32.05-.4.1-.08.05-.12.13-.12.24,0,.08.03.15.08.2.05.04.12.07.21.07Z"/>
        <path class="cls-1" d="M33.37,15.37c0-.25.04-.49.11-.71.07-.22.18-.41.32-.58h.23c-.14.18-.24.38-.31.6-.07.22-.1.44-.1.68s.04.45.11.67c.07.22.17.41.3.59h-.23c-.14-.16-.24-.35-.32-.56-.07-.22-.11-.45-.11-.69Z"/>
        <path class="cls-1" d="M36.21,15.13c0,.33-.08.59-.25.79s-.4.29-.7.29-.54-.09-.71-.28-.25-.45-.25-.79.08-.6.25-.79.4-.28.71-.28.53.09.7.28c.17.19.26.45.26.79ZM34.55,15.13c0,.28.06.5.18.64.12.14.29.22.52.22s.4-.07.52-.22.18-.36.18-.64-.06-.49-.18-.64-.29-.22-.52-.22-.4.07-.53.22c-.12.15-.18.36-.18.64Z"/>
        <path class="cls-1" d="M37.58,15.08h.71v1.01c-.11.04-.22.06-.34.08-.11.02-.24.03-.4.03-.31,0-.56-.09-.73-.28-.18-.19-.26-.45-.26-.79,0-.22.04-.4.13-.57s.21-.29.37-.37c.16-.08.35-.13.57-.13s.43.04.62.12l-.09.21c-.19-.08-.37-.12-.54-.12-.25,0-.45.08-.59.23s-.21.36-.21.63.07.49.21.64.34.22.6.22c.14,0,.28-.02.42-.05v-.64h-.47v-.21h0Z"/>
        <path class="cls-1" d="M40.45,15.11c0,.34-.09.61-.28.79-.19.18-.45.27-.8.27h-.58v-2.08h.64c.32,0,.57.09.76.27.18.18.27.43.27.75ZM40.19,15.12c0-.27-.07-.47-.21-.61-.14-.14-.34-.21-.61-.21h-.35v1.66h.3c.29,0,.5-.07.65-.21.14-.14.22-.35.22-.63Z"/>
        <path class="cls-1" d="M41.38,15.37c0,.25-.04.48-.11.7s-.18.4-.32.56h-.23c.13-.18.23-.38.3-.59s.11-.44.11-.67-.03-.46-.1-.68c-.07-.22-.17-.42-.31-.6h.23c.14.17.24.36.32.58.07.22.11.46.11.71Z"/>
        <path class="cls-1" d="M43.85,14.7c0,.21-.07.37-.21.49-.14.11-.35.17-.62.17h-.24v.82h-.24v-2.08h.54c.52,0,.78.2.78.61ZM42.78,15.14h.22c.21,0,.37-.03.47-.1.1-.07.14-.18.14-.33,0-.14-.05-.24-.14-.31-.09-.07-.23-.1-.42-.1h-.27v.84Z"/>
        <path class="cls-1" d="M44.49,16.17h-.24v-2.21h.24v2.21Z"/>
        <path class="cls-1" d="M45.95,16.17l-.05-.22h-.01c-.08.1-.15.16-.23.2s-.18.05-.29.05c-.15,0-.27-.04-.36-.12-.09-.08-.13-.19-.13-.34,0-.31.25-.48.76-.5h.27v-.11c0-.12-.03-.21-.08-.27-.05-.06-.14-.09-.25-.09-.13,0-.28.04-.44.12l-.07-.18c.08-.04.16-.08.25-.1.09-.02.18-.04.27-.04.19,0,.32.04.41.12.09.08.13.21.13.4v1.06h-.17ZM45.41,16c.15,0,.26-.04.35-.12s.13-.19.13-.34v-.14h-.24c-.19.02-.32.05-.4.1-.08.05-.12.13-.12.24,0,.08.03.15.08.2.05.04.12.07.21.07Z"/>
        <path class="cls-1" d="M47.11,16s.08,0,.12,0c.04,0,.07-.01.09-.02v.18s-.06.02-.11.03c-.05,0-.09.01-.14.01-.3,0-.45-.16-.45-.48v-.93h-.22v-.11l.22-.1.1-.33h.14v.36h.45v.18h-.45v.92c0,.09.02.17.07.22.05.05.11.07.18.07Z"/>
        <path class="cls-1" d="M48.34,14.79h-.4v1.37h-.24v-1.37h-.28v-.11l.28-.08v-.09c0-.38.17-.57.5-.57.08,0,.18.02.29.05l-.06.19c-.09-.03-.17-.05-.23-.05-.09,0-.15.03-.2.09-.04.06-.06.15-.06.28v.1h.4v.18h0Z"/>
        <path class="cls-1" d="M49.97,15.39c0,.25-.06.45-.19.59-.13.14-.31.21-.53.21-.14,0-.26-.03-.37-.1s-.19-.16-.25-.28c-.06-.12-.09-.27-.09-.43,0-.25.06-.45.19-.59s.31-.21.53-.21.39.07.52.22c.13.14.2.34.2.59ZM48.78,15.39c0,.2.04.35.12.46.08.11.2.16.35.16s.27-.05.35-.16c.08-.1.12-.26.12-.46s-.04-.35-.12-.45c-.08-.1-.2-.15-.36-.15s-.27.05-.35.15c-.08.11-.12.26-.12.46Z"/>
        <path class="cls-1" d="M51.09,14.58c.07,0,.13,0,.19.02l-.03.22c-.06-.02-.12-.02-.17-.02-.13,0-.23.05-.32.15s-.13.23-.13.38v.84h-.24v-1.56h.2l.03.29h.01c.06-.1.13-.18.21-.24.08-.06.17-.08.27-.08Z"/>
        <path class="cls-1" d="M53.56,16.17v-1.01c0-.12-.03-.22-.08-.28-.05-.06-.14-.09-.25-.09-.15,0-.26.04-.33.13s-.11.21-.11.39v.87h-.24v-1.01c0-.12-.03-.22-.08-.28-.05-.06-.14-.09-.25-.09-.15,0-.26.05-.33.13-.07.09-.1.23-.1.43v.82h-.24v-1.56h.19l.04.21h.01c.05-.08.11-.14.19-.18.08-.04.17-.06.27-.06.24,0,.4.09.48.27h.01c.05-.08.11-.14.2-.19s.19-.07.3-.07c.18,0,.31.05.4.14s.13.24.13.43v1.02h-.24Z"/>
        <path class="cls-1" d="M55.07,16.17v-2.08h.24v2.08h-.24Z"/>
        <path class="cls-1" d="M56.92,16.17v-1.01c0-.13-.03-.22-.09-.28-.06-.06-.15-.09-.27-.09-.16,0-.28.05-.36.13-.08.09-.11.23-.11.44v.82h-.24v-1.56h.19l.04.21h.01c.05-.08.11-.14.2-.18s.18-.06.29-.06c.19,0,.33.05.42.14s.14.24.14.43v1.02h-.24Z"/>
        <path class="cls-1" d="M58.7,15.96h-.01c-.11.16-.27.24-.49.24-.21,0-.36-.07-.48-.21-.11-.14-.17-.34-.17-.59s.06-.46.17-.6.27-.21.47-.21.37.08.49.23h.02v-.11s-.02-.11-.02-.11v-.63h.24v2.21h-.19l-.03-.21ZM58.23,16c.16,0,.28-.05.35-.13.07-.09.11-.23.11-.43v-.05c0-.22-.04-.38-.11-.47-.07-.09-.19-.14-.35-.14-.14,0-.24.05-.32.16-.07.11-.11.26-.11.46s.04.35.11.45c.07.11.18.16.32.16Z"/>
        <path class="cls-1" d="M59.4,14.19c0-.05.01-.09.04-.12.03-.02.06-.04.1-.04s.07.01.1.04.04.06.04.12-.01.09-.04.12-.06.04-.1.04-.07-.01-.1-.04-.04-.07-.04-.12ZM59.66,16.17h-.24v-1.56h.24v1.56Z"/>
        <path class="cls-1" d="M61.12,16.17l-.05-.22h-.01c-.08.1-.15.16-.23.2s-.18.05-.29.05c-.15,0-.27-.04-.36-.12-.09-.08-.13-.19-.13-.34,0-.31.25-.48.76-.5h.27v-.11c0-.12-.03-.21-.08-.27-.05-.06-.14-.09-.25-.09-.13,0-.28.04-.44.12l-.07-.18c.08-.04.16-.08.25-.1.09-.02.18-.04.27-.04.19,0,.32.04.41.12.09.08.13.21.13.4v1.06h-.17ZM60.59,16c.15,0,.26-.04.35-.12s.13-.19.13-.34v-.14h-.24c-.19.02-.32.05-.4.1-.08.05-.12.13-.12.24,0,.08.03.15.08.2.05.04.12.07.21.07Z"/>
      </g>
    </g>
  </g>
</svg>