<?xml version="1.0" encoding="UTF-8"?>
<svg id="Layer_2" data-name="Layer 2" xmlns="http://www.w3.org/2000/svg" viewBox="0 0 28.27 30">
  <defs>
    <style>
      .cls-1 {
        fill: #0085b6;
      }

      .cls-2 {
        fill: #5c7132;
      }

      .cls-3 {
        fill: #e56a25;
      }
    </style>
  </defs>
  <g id="Layer_1-2" data-name="Layer 1">
    <g>
      <g>
        <polygon class="cls-3" points="12.36 5.64 12.36 5.64 12.36 5.64 12.36 5.64"/>
        <polygon class="cls-3" points="10.33 6.15 10.33 6.15 10.33 6.15 10.33 6.15"/>
        <polygon class="cls-3" points="12.87 5.44 12.87 5.44 12.87 5.44 12.87 5.44"/>
        <path class="cls-3" d="M25.02,13.67s0-.08,0-.12c-.04-.06-.04-.13-.03-.2,0-.03,0-.05-.01-.08-.04-.03-.03-.08-.03-.12,0-.03,0-.05-.01-.08-.14-.61-.31-1.21-.51-1.8h0c-.07-.08-.09-.18-.11-.28h0s-.04-.05-.03-.08c0,0-.01-.02,0-.03-.21-.41-.42-.81-.63-1.22h0s-.02-.03-.03-.04c0,0-.01-.02-.01-.03-.1-.12-.19-.26-.26-.4,0,0-.01-.02-.01-.03-.08-.08-.15-.17-.2-.28-.04-.03-.06-.06-.08-.11-.11-.08-.17-.2-.24-.31,0,0,0,0,0,0-.1-.11-.19-.22-.29-.33,0,0-.01-.01-.02-.02-.01-.02-.03-.03-.04-.05h0c-.14-.11-.26-.24-.36-.38h0s-.01,0-.01,0l-.22-.18h0s0,0,0,0c-.18-.24-.44-.4-.63-.62-.01-.01-.03-.02-.04-.04-.07-.04-.14-.09-.19-.16-.01-.01-.03-.02-.04-.03-.01-.01-.03-.03-.04-.04h0s-.03-.02-.04-.04h0s-.07-.02-.09-.06c0,0,0,0,0,0-.12-.07-.24-.15-.33-.25h0c-.38-.23-.76-.47-1.14-.7h0c-.19-.08-.38-.17-.57-.25-.08-.05-.17-.09-.25-.14-.01,0-.02,0-.03-.01-.09-.02-.17-.05-.24-.1-.03,0-.05-.01-.08-.02-.02,0-.03-.02-.05-.02-.01,0-.02,0-.03-.01-.01,0-.03,0-.04,0-.03,0-.06,0-.09.01,0,.02-.02.03-.03.05h0c-.03.13-.06.27-.08.4-.1.65,0,1.3.11,1.94.06,0,.09-.03.1-.06,0,.03-.04.05-.1.06-.01,0-.02,0-.03,0-.33-.54-.59-1.1-.65-1.74-.02-.17-.04-.35.01-.52,0-.03,0-.05,0-.08,0-.03,0-.07.01-.09.07-.15,0-.21-.14-.23-.11-.02-.21-.06-.31-.09-.02,0-.05-.01-.07-.02-.25-.05-.51-.1-.76-.15-.05,0-.09-.01-.14-.02-.13,0-.26-.03-.4-.05-.02,0-.05.01-.07.02-.02.18-.03.36-.05.55,0,.05,0,.1.01.16.05.26.11.53.19.78,0,0,0,.02,0,.03.15.25.29.5.45.74-.22-.08-.4-.2-.55-.37-.01,0-.02,0-.02-.02-.04-.01-.06-.03-.07-.07h0s-.09-.06-.14-.09c-.03.1.04.17.1.22-.06-.06-.13-.12-.1-.22h0s-.02-.02-.04-.03h0c-.03-.14-.18-.2-.22-.34h0s-.02-.03-.03-.04c0,0-.01-.01-.01-.03-.01-.02-.02-.03-.04-.05h0c-.26-.38-.4-.79-.34-1.25,0,0-.01-.02-.01-.03-.27,0-.54,0-.82,0-.04,0-.08,0-.12,0-.09.04-.18.03-.28.02-.08,0-.15,0-.23.01-.07.05-.16.04-.24.03-.03,0-.05,0-.08,0-.03.01-.06.03-.09.03-.31.04-.32.04-.18.34.11.22.23.43.34.65.08.06.13.16.19.24.02.02.03.04.05.07.06.04.12.09.16.15.05.02.08.05.11.1.23.16.42.37.67.51-.41-.13-.82-.27-1.18-.52h0c-.05,0-.09-.03-.12-.08h0c-.11-.03-.21-.1-.28-.19h0c-.05-.01-.09-.04-.11-.08-.24-.16-.44-.36-.56-.63-.05-.03-.06-.07-.07-.12-.06-.07-.09-.15-.12-.23-.01,0-.02,0-.03-.01-.22.06-.43.14-.66.17h0c-.49.19-.97.36-1.45.58,0,.03,0,.05,0,.08.18.16.37.31.55.47h0c.05,0,.1.02.12.08.03.01.05.02.08.04.05.01.1.03.12.08.08,0,.15.06.21.11.01,0,.02,0,.03.01.02.01.03.02.05.03h0c.3.15.6.29.95.46-.18,0-.31,0-.43-.03-.01,0-.02-.01-.03-.02-.39.04-.77,0-1.14-.12-.02,0-.04,0-.06-.01-.07,0-.12-.02-.18-.06-.02,0-.04-.01-.06-.02-.02,0-.03-.02-.05-.03h0c-.07-.01-.14-.03-.19-.09-.05,0-.09-.04-.12-.07-.02-.01-.04-.02-.05-.03-.02-.01-.04-.03-.07-.04-.14-.07-.24-.19-.34-.31-.05-.05-.08-.11-.17-.09,0,0-.01,0-.02,0-.02.01-.04.03-.06.04h-.02c-.04.07-.1.1-.17.12h0c-.11.12-.25.2-.39.27h0s-.03.02-.04.03h0s-.06.07-.11.08h0s-.03.02-.04.03h0s-.03.02-.04.03c-.09.07-.18.15-.28.22-.11.08-.13.15-.05.28.23.39.56.68.96.9.14.07.28.13.42.2.04.02.1.02.09.08-.01.05-.06.03-.1.04-.03,0-.05,0-.08,0-.7,0-1.27-.3-1.72-.83-.09-.11-.16-.12-.27-.02-.3.26-.57.55-.84.84-.09.14-.18.28-.31.39h0c-.05.11-.12.19-.2.27h0c-.26.42-.52.83-.78,1.25h0c-.03.11-.08.2-.15.29,0,0,0,.02-.01.02-.03.11-.08.22-.15.32h0c-.03.08-.06.17-.09.25-.04.13-.12.24.06.36.11.08.08.25.04.38,0,.03-.01.06-.02.09-.01.26.04.5.13.74.04,0,.07,0,.11,0h0s.02,0,.03,0c0,.18.07.34.14.5.09.23.26.35.5.37.23.02.46,0,.69-.06-.07-.19-.14-.38-.2-.57-.05-.13,0-.24.11-.32.17-.12.35-.2.55-.26.22-.07.35-.22.4-.44.02-.09.04-.19.06-.28,0-.05,0-.1,0-.16-.03-.18-.05-.37-.11-.54-.04-.11,0-.15.11-.15,0-.01.02-.01.03-.01.31-.16.62-.33.98-.52-.27.84-.57,1.62-.96,2.37-.01.03-.02.05-.03.08-.23.49-.47.96-.75,1.42,0,.01,0,.02-.02.03,0,.02,0,.04-.03.04h0c-.03.06-.06.13-.1.19-.3.49-.51,1.02-.63,1.58-.09.42-.1.85-.1,1.28.01.01.03.03.04.04.17-.27.34-.55.52-.82h0c.15-.13.21-.33.36-.46.27-.43.6-.82.93-1.2.8-.93,1.39-1.98,1.91-3.08.55-1.15,1.27-2.17,2.23-3.01.02-.02.04-.05.06-.08.2-.15.4-.31.61-.45.39-.26.79-.48,1.25-.59.57-.19,1.16-.22,1.75-.15,1.23.15,2.25.68,3.03,1.66.41.51.81,1.02,1.26,1.49.07.07.13.14.2.21.01,0,.02,0,.03,0h0c.22.26.51.43.77.64,1.01.65,2.13,1.12,3.12,1.8-.02-.17-.17-.23-.22-.36h0c-.42-.44-.83-.89-1.19-1.4h0c-.24-.21-.41-.47-.6-.73,0,0-.01-.01-.01-.02-.28-.32-.53-.66-.75-1.03h0c-.35-.49-.67-1-.83-1.59-.1-.36-.02-.44.35-.36.18.04.37.08.53.17.02,0,.05.02.07.02.02,0,.04,0,.04.02h0c.22.06.41.18.59.32h0c.17.05.26.22.42.28,0,0,0,0,0,0h0s0,0,0,0c.17.16.34.31.5.48.24.26.49.5.69.81h0c.12.08.18.21.26.32.02.04.04.07.07.11.04.03.06.07.06.12h0c.08.05.11.14.14.23v.02c.05.02.06.06.06.11h0c.15.18.21.4.28.62h0s.02.03.03.05c0,.02,0,.04.01.06.24.6.36,1.22.42,1.86,0,.04,0,.08,0,.12.06.17.04.36.06.54.03.29.03.58.05.87,0,.03,0,.05,0,.08.05.07.03.15.04.23h0s.03.02.02.04c0,.03.01.05.02.08.01.03.02.05.04.08h0c.14.16.29.16.46.04.01-.02.03-.05.04-.07,0-.06.03-.12.08-.16h0c.09-.46.06-.91.01-1.37ZM21.88,7.53s0,0,0,0h0ZM18.07,7.31s0,.02,0,.02c0,0,0-.02,0-.02ZM5.33,10.56s.08,0,.07.06c-.08.11-.1.26-.23.33-.05.03-.11.05-.16,0-.05-.04-.05-.1-.03-.16.06-.16.19-.23.35-.24ZM4.65,12.56s.02.02.02.03c0-.01-.01-.02-.02-.03ZM19.39,10.65h0s0,0,0,0c0,0,0,0,0,0ZM21.68,8.42h0s.09,0,.13.02c-.04-.02-.08-.03-.13-.02Z"/>
      </g>
      <g>
        <polygon class="cls-1" points="15.93 25.42 15.94 25.43 15.94 25.43 15.94 25.43 15.93 25.42"/>
        <path class="cls-1" d="M25.01,16.18c-.05-.17-.1-.34-.16-.51h0s-.03,0-.04,0c-.05,1.02-.17,2.03-.54,3-.05.12-.13.22-.13.36h0s0,0,0,0h0s-.04.05-.04.08c-.03.02-.04.05-.03.08,0,0-.01.01,0,.02-.01.04.02.11,0,.15.01-.04-.02-.11,0-.15-.05.06-.08.12-.09.2h0s0,0,0,0c-.1.15-.16.31-.23.48h0s-.05.06-.05.11h0s-.01,0-.01,0h0s-.04.04-.04.07h0s0,0,0,0c-.06.07-.11.15-.14.24h0c-.07.08-.13.17-.16.27h0s-.04.04-.05.08h0c-.04.05-.09.11-.13.16-.28.36-.57.68-1.03.84-.36.13-.61.41-.83.71-.02,0-.03-.02-.05-.03.01-.3.13-.55.38-.73.12-.09.26-.16.39-.24h0s0,0,0,0h0s0,0,0,0h0c.36-.14.64-.38.87-.67.41-.52.7-1.1.93-1.72h0s0,0,0,0c.21-.36.35-.75.47-1.15.2-.65.27-1.31.18-1.99-.01-.11,0-.27-.14-.3-.12-.03-.16.12-.22.21,0,0,0,.01,0,.02-.16.26-.23.55-.36.82h0c-.1.29-.17.59-.32.87,0,.04-.02.08-.05.1-.06.21-.19.39-.28.58-.18.23-.36.47-.63.62h0c-.17.04-.33.09-.5.02-.04,0-.07-.01-.11-.02-.8-.15-1.5.11-2.17.51-.46.28-.92.56-1.39.84h0c-.26.21-.54.38-.82.55h0c-.33.28-.72.48-1.03.76-.3.27-.53.29-.91.08-1.01-.56-2.12-.62-3.24-.41-.42.08-.83.18-1.23.3-.07.02-.13.05-.2.08-.03.01-.08.03-.06.08.01.04.05.04.08.04.13,0,.26.03.39.02.54-.04,1.04.1,1.54.28.02,0,.05,0,.07.01.01,0,.03,0,.04,0,.05.01.1.02.15.04.21.02.42.04.63.06.08,0,.15,0,.23.01.3,0,.6,0,.9-.01.06,0,.13,0,.21,0-.04.02-.07.03-.09.04,0,.06-.04.09-.08.1.04-.01.07-.04.08-.1-.34.05-.68.08-1.02.14-.7.12-1.4.22-2.1.37-.14.03-.29.08-.44.07-.03,0-.05,0-.08,0-.51.11-1.02.1-1.54.06-.33-.03-.66-.06-.97-.18-.02,0-.05,0-.07-.01-.19-.04-.38-.1-.55-.18-.04-.01-.09,0-.11-.05-.09-.02-.19-.04-.26-.11-.02,0-.04-.01-.05-.02-.17-.06-.34-.14-.48-.26-.57-.35-1.05-.78-1.33-1.41-.1-.22-.09-.43,0-.66.37-1.02.7-2.04.86-3.11.06-.39.09-.78.03-1.17,0-.01,0-.03,0-.04-.05,0-.05.06-.08.08,0,.03,0,.06-.04.08h0c-.32.76-.72,1.47-1.29,2.08-.04.05-.1.08-.15.12-.05.09-.12.13-.23.17-.05-.18-.09-.36-.13-.53,0-.02,0-.04-.01-.05-.16-.33-.26-.67-.45-.99-.04-.07-.11-.12-.12-.21-.01,0-.01-.02-.01-.03-.29-.41-.61-.8-1.01-1.1-.03-.02-.05-.04-.08-.05-.01.02-.02.04-.03.06.01,0,.02.02.01.03.05.54.08,1.07.16,1.6.09.55.2,1.1.36,1.63,0,.03,0,.06.01.1,0,0,.01.02,0,.03.22.62.45,1.23.74,1.82.01.02.02.04.03.07.04.02.05.05.05.09.32.52.64,1.04,1.04,1.5.36.41.72.82,1.17,1.14h0s.03.05.05.07c.03.03.07.06.1.09.07.05.15.09.22.14h0c.04.06.09.1.16.12,0,0,0,0,0,0,.01.03.04.05.07.05,0,0,0,0,0,0,.02.03.04.06.07.08.23.12.41.31.64.41,0,0,0,0,0,0,.53.39,1.11.68,1.7.97.07.03.15.05.2.11h0c.48.16.95.37,1.45.49.16.04.31.09.47.13.02,0,.05,0,.07.01.65.11,1.3.2,1.96.19.27,0,.55-.02.82-.04.05-.02.1-.04.15-.05.1-.19.27-.33.38-.51-.08-.04-.15,0-.19.04,0,0-.02.02-.02.03,0,0,.01-.02.02-.03.04-.04.11-.08.19-.04h0c.13-.12.26-.23.39-.35,0,0,0,0,0,0,.25-.14.49-.3.77-.36.32-.06.64-.11.97-.13.42-.02.83-.03,1.25-.05.01.02.03.03.04.05-.14.1-.31.13-.48.15-.34.04-.68.08-1.03.12-.36.04-.7.12-.98.38h0c-.1.06-.19.12-.29.18-.1.15-.23.26-.36.38-.03.12.07.05.11.07.6-.13,1.2-.24,1.79-.4,1.01-.27,1.91-.78,2.79-1.33.46-.29.9-.61,1.33-.94.01,0,.03-.02.04-.03.52-.47,1.01-.96,1.43-1.52.24-.32.48-.65.66-1.01.2-.29.31-.62.49-.92h0c.15-.42.31-.84.46-1.26.15-.43.24-.88.32-1.32,0-.02,0-.05.01-.07,0-.26,0-.52,0-.79,0-.04,0-.08,0-.11ZM14.9,22.19s-.05,0-.07,0c.02,0,.05,0,.07,0ZM20.38,21.19c.07-.09.14-.17.24-.23.13-.08.16-.02.17.1,0,.16-.14.29-.33.28-.04,0-.1.02-.13-.02-.03-.05.02-.1.05-.14ZM21.22,22.31s0,.03.02.03c0,0-.02-.02-.02-.03ZM21.25,22.35s0,0,0,0c0,0,0,0,0,0ZM22.51,18.8h0s0,0,0,0c0,0,0,0,0,0ZM22.14,18.99s-.03,0-.04,0c.01,0,.03,0,.04,0Z"/>
        <polygon class="cls-1" points="4.57 20.52 4.57 20.52 4.57 20.52 4.57 20.52"/>
      </g>
      <g>
        <path class="cls-2" d="M15.44,1.23c-.04.19-.09.38-.12.57-.02.14-.07.29.06.4.05,0,.11,0,.16,0,.08-.02.15-.04.23-.07.01-.01.02-.02.03-.03-.17-.04-.2-.15-.16-.31.06-.25.15-.49.15-.75,0-.09.06-.07.1-.06.43.07.86.13,1.29.24.09.02.14.06.12.16-.03.11-.12.06-.17.05-.12-.02-.23-.05-.34-.08-.53-.11-.9.22-.85.74.12.27.35.21.57.19.08-.08-.02-.11-.06-.15-.1-.1-.2-.2-.21-.35-.01-.15.04-.24.21-.22.16.02.32.02.47.1,0,0,.01,0,.02,0,.09.02.23,0,.24.09.01.1-.03.23-.13.31-.01.04-.02.09-.04.13-.04.1-.02.2.05.27.08.08.19.06.29.02.03,0,.08-.03.06-.06-.17-.22.03-.38.09-.57.03-.09.05-.17.08-.26q.08-.27.35-.17s.06.03.09.04c.04,0,.07-.01.11-.02h0c.04-.06.09-.09.16-.1.01-.01.02-.02.04-.04-.04-.08-.14-.05-.2-.11-.16-.04-.33-.09-.52-.14.13-.09.24-.16.35-.23,0-.04.02-.08.02-.11-.1-.28-.36-.38-.59-.51-.21-.12-.45-.15-.67-.23h-.39l-.64.26h0s-.06.05-.09.07c-.09.12-.06.23.06.36-.21-.03-.32.06-.39.23.21.02.21.17.18.32ZM16.16.21c.2.02.4.06.59.12.21.07.41.15.59.29.08.06.16.13.17.26-.01.1-.05.16-.18.13-.31-.08-.62-.14-.93-.21-.22-.05-.35-.22-.45-.4-.07-.11.03-.19.21-.18Z"/>
        <polygon class="cls-2" points="15.58 .32 15.59 .32 15.59 .32 15.59 .32 15.58 .32"/>
        <polygon class="cls-2" points="24.34 21.92 24.34 21.92 24.34 21.93 24.34 21.92"/>
        <polygon class="cls-2" points="6.1 6.32 6.11 6.32 6.11 6.31 6.1 6.32"/>
        <path class="cls-2" d="M2.5,18.09c.1.37.21.73.31,1.1.03.03.04.07.04.12.21.49.39.99.65,1.45.15.27.3.54.45.81.32.47.65.93,1.01,1.37.1.09.19.18.25.3h0c.37.36.72.74,1.11,1.08.16.14.32.28.48.42.01.01.03.02.04.03.12.07.23.15.33.25,0,0,.02,0,.02.01.26.18.53.36.79.54.04.02.07.05.11.07.18.1.37.21.55.31.03.01.06.02.09.04,1.03.53,2.11.91,3.24,1.1,1.97.33,3.92.26,5.84-.31.93-.28,1.81-.68,2.65-1.18.22-.14.44-.29.66-.43.05-.04.11-.07.16-.11.07-.07.15-.14.24-.18,0-.01.01-.02.02-.02.65-.52,1.24-1.09,1.81-1.69.03-.04.06-.08.1-.12.06-.08.11-.16.19-.21.07-.09.15-.19.22-.28.15-.22.29-.44.47-.63h0c.09-.18.2-.35.32-.51,0-.05.04-.08.07-.11.08-.17.17-.35.28-.5.01-.03.03-.05.04-.08.18-.41.36-.81.54-1.22,0-.02.01-.05.02-.07.18-.51.31-1.04.46-1.57,0-.03,0-.05.01-.08.04-.2.07-.39.11-.59,0-.04,0-.08.01-.12.02-.16.04-.31.07-.47,0-.05,0-.1,0-.15.05-.69.05-1.38.03-2.08-.06-.61-.13-1.22-.26-1.82-.18-.86-.48-1.69-.84-2.49-.08-.1-.13-.22-.17-.34-.04-.07-.07-.13-.11-.2-.09-.12-.16-.25-.22-.39,0,0,0-.01,0-.02-.21-.32-.43-.63-.64-.95h0c-.17-.21-.35-.42-.52-.63-.34-.42-.74-.79-1.11-1.19-.03-.03-.05-.05-.08-.08-.18-.16-.36-.31-.55-.47-.03-.02-.06-.05-.08-.07-.32-.23-.63-.46-.95-.69-.02-.01-.05-.03-.07-.04-.34-.2-.69-.4-1.03-.6h0c-.5-.21-1-.42-1.5-.63-.03,0-.06,0-.1-.02-2.03-.65-4.09-.74-6.17-.38-.65.11-1.28.31-1.91.52-.21.1-.43.19-.65.26-.03.01-.05.02-.08.04-.19.11-.38.21-.58.29-.04.02-.07.04-.11.06-.05.05-.1.08-.17.09-.09.05-.18.11-.27.16-.06.06-.13.1-.2.12-.6.4-1.18.84-1.72,1.31-.02.01-.03.03-.05.04,0,.03-.03.04-.06.05-.07.1-.16.18-.26.24h0c-.07.1-.15.19-.25.26-.57.62-1.11,1.26-1.57,1.96-.11.18-.18.38-.35.52,0,.03,0,.06-.03.08-.1.29-.26.55-.4.82-.01.03-.02.05-.04.08-.03.08-.07.16-.1.24-.01.02-.02.05-.03.07-.21.53-.38,1.07-.54,1.61-.02.06-.03.13-.05.19,0,.01,0,.03,0,.04,0,.03,0,.05,0,.08-.25,1.11-.33,2.24-.28,3.38.03.75.15,1.49.29,2.22ZM3.32,11.41c.22-.65.49-1.27.85-1.86.09-.18.19-.35.31-.51.03-.09.09-.17.16-.24.55-.8,1.16-1.54,1.91-2.16.05-.05.1-.1.15-.15.09-.11.2-.2.32-.27.28-.25.58-.48.91-.67.02,0,.04-.02.06-.03.01-.01.03-.03.04-.04.1-.08.19-.17.32-.19,1.09-.71,2.29-1.15,3.56-1.38,2.43-.45,4.79-.25,7.06.76.24.11.48.21.7.35.11.05.23.09.32.19.08.04.15.08.23.12.07.01.12.06.17.11.87.54,1.63,1.2,2.32,1.94.1.1.19.21.28.32.04.02.07.05.08.09.87.99,1.55,2.09,2,3.33,1,2.81.98,5.62-.08,8.41-.19.49-.42.97-.7,1.41-.03.1-.08.18-.15.25-.01.04-.03.08-.07.11-.08.15-.16.3-.28.43-.07.13-.16.25-.26.36-.02.05-.05.09-.09.12,0,.01-.02.03-.03.04-.03.06-.07.12-.13.16-.47.6-1,1.15-1.6,1.63-.02.05-.06.08-.11.1h0s-.06.05-.09.08c-.01,0-.02.02-.03.02-.04.06-.1.1-.16.13-1,.81-2.11,1.41-3.33,1.82-1.29.43-2.61.61-3.96.58-3.27-.07-6-1.32-8.23-3.71-.14-.15-.27-.3-.4-.46-.07-.06-.13-.13-.18-.21-.02-.02-.04-.05-.06-.07-.41-.5-.79-1.03-1.08-1.62,0,0,0-.01,0-.02-.13-.19-.23-.39-.31-.6-.03-.03-.06-.07-.05-.12-.1-.16-.16-.33-.22-.51-.02-.05-.04-.1-.06-.15-.04-.06-.06-.13-.07-.2-.04-.03-.04-.07-.04-.12-.09-.17-.13-.36-.18-.54,0-.03,0-.06,0-.09-.06-.05-.05-.12-.06-.19-.04-.03-.03-.08-.03-.12-.15-.48-.22-.98-.27-1.48-.18-1.76-.04-3.49.54-5.17Z"/>
        <polygon class="cls-2" points="5.2 23.26 5.21 23.25 5.21 23.25 5.2 23.26"/>
        <polygon class="cls-2" points="4.49 9.04 4.49 9.04 4.49 9.05 4.49 9.04"/>
        <path class="cls-2" d="M7.11,2.52c-.22.06-.17.23-.18.37.03,0,.05,0,.08,0,.08-.08.14-.05.19.04.19.21.26.49.4.72.07.11.14.23.3.19.03-.02.05-.05.08-.07.03-.04.06-.09.1-.13h.01s0-.05,0-.07c-.23.03-.28-.15-.35-.3-.09-.19-.15-.39-.28-.56-.05-.07-.02-.09.03-.11.38-.21.77-.39,1.16-.55.09-.04.16,0,.19.07.04.1-.05.1-.1.12-.14.07-.29.12-.43.19-.26.13-.4.52-.3.79.05.14.16.21.28.28.06,0,.13,0,.19,0,.08-.04.15-.08.23-.12.02-.04.05-.07.07-.11-.12-.1-.3-.03-.41-.15,0,0-.01,0-.02,0-.27-.16-.27-.25-.02-.42.18-.12.39-.15.57-.24.06-.03.08.01.1.05.06.17.12.34.18.51.19.16.28.13.46-.15-.13.02-.21-.05-.24-.17-.06-.19-.13-.38-.19-.57,0-.02-.02-.04-.03-.06,0,0-.01-.02,0-.03-.04-.05-.08-.1-.12-.15.14-.14.4-.06.48-.29,0-.04.02-.07.04-.1h0c-.03-.15-.12-.05-.17-.04-.18.05-.35.12-.53.18-.03-.07.01-.1.03-.14.13-.29.05-.41-.27-.42-.11,0-.22,0-.33,0-.03,0-.05,0-.08,0-.16.04-.31.08-.47.12-.03.01-.05.02-.08.03-.07.04-.15.07-.22.11-.01,0-.03.01-.04.02-.23.16-.37.39-.52.62-.02.13-.14.24-.04.38.06.03.13.06.22.1ZM7.16,1.9c.39-.24.81-.42,1.28-.4.07,0,.14.03.2.07.1.07.09.19-.03.24-.3.13-.6.25-.9.38-.06.03-.13.03-.19.02-.12,0-.23-.02-.34-.07-.14-.06-.14-.16-.03-.23Z"/>
        <polygon class="cls-2" points="23.72 3.75 23.72 3.76 23.72 3.76 23.72 3.75"/>
        <path class="cls-2" d="M20.82,2.52c.03.3-.22.43-.36.63-.08.11-.18.2-.26.31-.16.23-.11.34.16.38.04,0,.07.02.11.03.02,0,.05,0,.07,0-.12-.15-.07-.27.05-.39.14-.14.26-.29.4-.43.08-.08.15-.16.15-.28.03,0,.05,0,.05,0,.16.16.35.21.56.12.03-.11-.13-.13-.11-.24,0-.04,0-.07,0-.11-.03-.04-.03-.09,0-.13,0-.05,0-.1.01-.15.04-.2.19-.24.37-.23.12.01.24.06.33.14.08.02.14.06.19.12l.05.03h0s.09.03.11.08c.06.03.12.07.15.13.24.21.4.47.5.77.05.15,0,.28-.15.36-.04.02-.09.05-.12,0-.13-.18-.32-.13-.5-.12-.01.02-.03.05-.04.07.14.08.26.19.39.29.04.04.05.08.03.12-.02.04-.07.03-.11.01-.09-.04-.19-.04-.31-.03.08.09.21.13.21.24,0,.06-.07.1-.13.12-.13.14-.26.29-.4.42-.1.09-.09.17-.03.27.14.07.29.15.45.07-.06-.05-.1-.11-.03-.19.08-.19.24-.31.38-.43.11-.09.21-.2.26-.36.15.19.32.27.56.15-.14-.18-.33-.3-.51-.48.17,0,.29-.04.4-.09.17-.2.11-.41.05-.62-.03-.06-.07-.13-.1-.19-.5-.89-1.36-1.2-2.33-.95q-.11.14-.13.43c-.12-.08-.22-.03-.32.03-.03.02-.07.02-.07.06Z"/>
        <path class="cls-2" d="M5.24,4.15c.13-.15.29-.25.44-.38.07-.06.14-.05.19.03.07.1-.03.11-.07.14-.15.13-.3.25-.45.37-.14.2-.12.42-.04.63.06.16.26.23.43.16.09-.04.18-.11.26-.16.07-.08.14-.16.21-.24-.03.1-.05.21-.08.31,0,.06,0,.13.02.19.03.15.12.2.27.18.41-.06.71-.4.71-.81l-.02-.06c-.07-.02-.07.04-.09.08-.11.27-.33.39-.59.46-.07.02-.15.03-.2-.04-.05-.08,0-.15.05-.21.12-.12.25-.23.42-.27.06-.02.15-.03.1-.12-.04-.07.07-.21-.12-.23-.14-.01-.23-.15-.27-.28-.03-.11.09-.16.15-.23.12-.11.25-.19.42-.15.11.02.23.06.25.18.02.13-.08.21-.19.24-.16.04-.14.11-.1.23.04.11.07.1.14.05.1-.07.16-.17.22-.27.01-.03.02-.05.03-.08,0-.11.02-.22-.02-.33-.11-.33-.38-.42-.75-.23-.08.07-.17.13-.24.2-.1.11-.19.1-.29-.03.15-.12.3-.23.47-.33.11-.08.22-.15.32-.23q-.03-.29-.28-.13c-.15.1-.3.19-.45.29-.11.1-.24.19-.38.26-.02.01-.03.03-.05.04,0,.04-.03.05-.07.04-.01,0-.02,0-.03,0-.05.1-.15.12-.24.16,0,.01-.02.03-.03.04-.06.17-.23.24-.35.35-.2.19-.21.19-.16.5.14-.12.28-.23.41-.35ZM6.22,4.7c.02-.12.05-.24.07-.39.16.19-.01.28-.07.39ZM6.07,4.41c-.11.16-.24.31-.43.39-.08.04-.19.07-.25-.02-.07-.1.04-.14.1-.2.04-.03.09-.06.13-.09.2-.15.41-.29.33-.61.25.19.27.31.11.53Z"/>
        <path class="cls-2" d="M8.05,27.34s-.02-.06-.03-.08c-.15-.22-.38-.25-.62-.23-.02.06.03.07.06.09.24.2.26.57.05.8-.12.12-.22.11-.31-.03-.1-.17-.09-.35.04-.53.04-.06.09-.1.16-.17-.07,0-.13-.01-.2-.02.23-.57-.23-.32-.45-.39.02-.08.06-.15.13-.19.01-.15-.12-.11-.19-.15-.13.01-.26-.01-.39-.03.29-.27.31-.5.08-.81-.16-.21-.36-.35-.59-.46-.15-.07-.3.04-.46.02-.01.06.07.05.08.1.16.02.2.09.08.22-.05.05-.07.14-.16.15,0,.03,0,.06-.04.07-.13.28-.35.49-.54.73-.04.05-.12.09-.1.17.07,0,.13,0,.2.01.19.05.29-.06.39-.2.17-.25.36-.48.54-.72.08-.12.15-.1.23,0,.09.11.14.23.07.38-.07.14-.18.19-.34.18-.04,0-.14-.08-.13.06h0s0,0,0,0c.2.04.38.11.59.1.15,0,.19.16.09.31,0,.01-.01.02-.02.03-.11.21-.26.39-.44.55,0,.02,0,.04,0,.07.09.02.19,0,.27.04.04,0,.08,0,.11,0,.13-.15.26-.31.4-.45.04-.05.11-.09.18-.04.05.03.07.09.02.15,0,.02,0,.05,0,.07.09,0,.17.02.29.03-.1.05-.16.09-.23.12-.02.03-.04.06-.07.09-.07.16-.08.33-.05.51.03.05.07.1.1.15.15.09.32.1.49.09.09-.02.18-.04.27-.05.36-.17.46-.34.42-.74Z"/>
        <polygon class="cls-2" points="17.37 29.64 17.37 29.64 17.37 29.64 17.37 29.64"/>
        <polygon class="cls-2" points="15.62 29.72 15.62 29.72 15.62 29.72 15.62 29.72"/>
        <path class="cls-2" d="M18.16,28.16s-.05,0-.08,0c-.03.01-.05.03-.08.04-.17.2-.3.44-.47.72-.05-.3-.1-.55-.14-.8-.02-.08-.03-.16-.05-.23-.05-.08-.05-.18-.07-.28-.07-.08-.15-.06-.22,0-.08.07-.16.15-.24.23-.05.04-.08.1-.16.08-.34-.08-.62.07-.89.25-.24.17-.29.41-.14.64.22.11.46.13.69.2.14.04.26.09.28.26.01.1-.02.18-.11.23-.14.07-.28.06-.41-.02,0,0-.01,0-.02-.01-.14-.23-.29-.13-.45-.01,0,0,0,.01-.02.01-.09.1-.04.18.02.26.5.27,1.11-.09,1.32-.51.1-.2.02-.38-.19-.45-.14-.05-.29-.08-.43-.11-.04,0-.08-.01-.11-.03-.12-.05-.26-.08-.28-.24-.01-.09,0-.17.1-.22.14-.07.28-.05.4.05.06.06.12.11.2.03.07-.07.26-.06.18-.24-.02-.04,0-.07.03-.08.06-.01.1.02.12.07.08.18.12.37.16.56.06.31.12.63.18.94,0,.05-.01.13.08.12.05-.32.19-.6.39-.85.13-.16.21-.15.29.04.09.2.16.41.2.63.02,0,.04,0,.06,0,.05-.12.22-.16.24-.3-.12-.31-.18-.65-.34-.95-.01-.01-.03-.02-.04-.03Z"/>
        <polygon class="cls-2" points="3.71 6.22 3.71 6.22 3.71 6.22 3.71 6.22"/>
        <path class="cls-2" d="M3.12,6.27c.21-.31.34-.32.59-.04.02.02.04.03.06.05.29.25.48.22.66-.12.02-.04.04-.08.07-.12.06-.2.11-.4.19-.65.03.27,0,.48-.07.69-.07.42-.3.76-.6,1.04-.11.1-.23.19-.34.29,0,.13,0,.26.05.38.02,0,.04-.01.06-.02.1-.09.19-.19.29-.28.17-.24.33-.47.5-.71.05-.17.11-.34.16-.51,0-.03,0-.05,0-.08,0-.03.01-.05.02-.08,0-.05.01-.1.02-.15,0-.1,0-.21,0-.31,0-.03,0-.06,0-.09.06,0,.06.05.08.09.08.08.17.15.2.27.02,0,.04,0,.06.01.25,0,.38-.15.36-.43-.1.1-.18.03-.25-.04-.16-.16-.31-.31-.46-.48-.08-.08-.16-.15-.3-.17.19-.13.29-.27.19-.51-.35.24-.61.58-.93.85-.19.21-.38.43-.57.63-.14.14-.24.29-.14.49.04.08.08.03.12,0ZM3.71,5.59c.14-.14.28-.27.4-.42.09-.1.18-.1.28-.03.1.06.23.11.17.28-.05.13-.07.28-.11.41-.09.27-.19.29-.42.12-.06-.02-.12-.06-.15-.11-.05-.03-.11-.06-.16-.09-.04-.01-.1.02-.11-.03,0-.05.05-.09.1-.12Z"/>
        <polygon class="cls-2" points="21.76 2.9 21.76 2.9 21.76 2.9 21.76 2.9 21.77 2.9 21.77 2.9 21.76 2.9 21.76 2.9 21.76 2.9"/>
        <path class="cls-2" d="M21.88,3.19c-.2.02-.38.04-.57.06-.11,0-.2.05-.3.09-.16.07-.28.18-.29.36-.01.18.09.31.24.4.1.07.22.11.34.13q.21.04.1.25c-.05.15-.01.31,0,.46.01.04.03.08.04.12.01.03.03.05.04.08.15.19.36.29.58.35.04,0,.08,0,.12,0,.3-.03.32-.04.48-.2-.2.04-.39.06-.55-.05-.09-.05-.17-.1-.23-.18-.04-.03-.08-.06-.09-.11-.08-.06-.1-.15-.11-.24,0-.06,0-.13,0-.19.01-.16.07-.26.26-.24.19.02.35-.06.5-.18.02-.1.13-.17.08-.29-.3-.09-.55.03-.77.21-.12.1-.22.15-.36.06-.16-.09-.3-.21-.29-.4,0-.15.12-.27.27-.33.13-.05.26-.05.38-.03.17.03.34.07.51.11.02,0,.04.01.07.02.07,0,.14.01.21.02.13,0,.26,0,.38-.05.19-.08.23-.21.12-.38-.14-.24-.38-.26-.62-.28-.09,0-.18,0-.27.01-.13.04-.27.08-.39.15-.05.12.04.19.11.29ZM22.27,2.84c.15,0,.42.26.44.39,0,.08-.01.14-.1.11-.17-.06-.32-.15-.4-.32-.03-.07-.04-.16.06-.17Z"/>
        <path class="cls-2" d="M1.2,20.32s.08-.04.12-.04c.27-.11.54-.18.82-.25.06-.05.15-.03.19-.09-.24-.25-.49-.27-.78-.09-.12.07-.26.09-.44.16.27-.54.53-1.02.69-1.56,0-.02,0-.05-.01-.07-.09-.07-.18-.13-.26-.2-.05,0-.08-.08-.14-.04.05.25-.02.45-.19.5-.24.07-.48.14-.73.2-.13.04-.25.08-.38.12-.05.02-.11.02-.07.1.01,0,.02.02.03.02.21.22.43.18.68.07.12-.06.25-.09.41-.14-.05.17-.1.31-.19.42h0c-.08.23-.2.44-.36.62h0s-.01.02-.02.04c-.04.07-.18.11-.13.18.08.1.18.23.36.17.14-.04.27-.08.41-.11Z"/>
        <path class="cls-2" d="M23.63,25.48c-.03-.05-.07-.12-.03-.18.04-.07.11-.06.17-.03.06.03.09.01.1-.04,0-.11.13-.23.01-.33-.08-.07-.19-.13-.3-.05,0,0,0,.02,0,.02-.01.07-.02.15-.04.22-.01.07-.02.14-.04.24-.06-.07-.11-.13-.16-.18-.05-.03-.1-.02-.15,0-.05.16-.08.33-.17.48-.15-.26-.31-.33-.6-.26-.07.02-.14.04-.21.05-.03.02-.05.03-.08.05-.18.12-.35.25-.5.4-.01.11,0,.22-.06.33-.03.07.02.08.07.03.19-.18.2-.18.33.09.08.11.15.21.23.32.03,0,.04.01.04.04.02.02.03.04.05.07.07.07.13.15.17.25.01,0,.02.02.02.03.08.1.15.2.19.32h0c.15-.1.23-.38.14-.51-.18-.26-.37-.51-.54-.77-.04-.07-.19-.12-.08-.24.09-.1.31-.12.42-.04.14.1.18.23.12.4-.01.04-.06.09-.02.14,0,0-.02,0-.02,0,0,.01.02.03.03.04,0-.01,0-.02,0-.04.05,0,.06-.06.1-.08,0-.04.02-.08.07-.09.03-.05.06-.1.09-.15.02-.06.03-.13.05-.19.05-.22.15-.25.32-.1.17.16.32.33.45.53.09.12.13.06.15-.05.08-.23-.02-.39-.17-.55-.05-.05-.09-.11-.13-.17Z"/>
        <path class="cls-2" d="M12.97,2.14c.23.03.43-.06.62-.16.07.13.13.25.19.37.02.02.04.03.05.05.07.05.14.1.21.15.22.09.44.08.67.02.05-.02.1-.04.15-.06.04-.03.08-.05.12-.08.07-.12.19-.22.14-.38-.13.21-.32.31-.56.3-.22,0-.43-.05-.59-.22-.05-.12-.3-.22-.04-.37.16-.12.26-.28.25-.49-.05-.08-.03-.2-.17-.2-.25.13-.37.35-.4.61-.02.15-.08.21-.21.22-.08,0-.16.01-.23,0-.14-.02-.26-.08-.3-.23-.05-.16,0-.3.12-.4.22-.18.48-.28.74-.39.1-.08.2-.16.3-.24.05-.08.1-.16.11-.26-.02-.04-.04-.07-.06-.11-.15-.1-.32-.15-.5-.09-.25.08-.44.25-.59.46-.16.21-.13.28.13.36,0,0,.01.02.03.04-.06.05-.11.1-.17.15-.12.11-.24.22-.31.37-.16.31-.02.58.33.62ZM13.19.52s.05-.06.09-.07c.06-.01.13-.02.14-.02.17,0,.29.01.39.1.07.06.07.11-.02.14-.19.07-.37.06-.54-.04-.04-.02-.07-.06-.06-.11Z"/>
        <path class="cls-2" d="M24.54,5.37c.1.06.14.13.04.22-.11.11-.15,0-.2-.07-.1-.09-.2-.19-.29-.28-.25-.24-.69-.31-.99-.13-.15.09-.25.22-.24.4.01.22.17.32.35.4.03,0,.06,0,.09,0,0-.15-.07-.29-.03-.44.08-.31.25-.37.49-.15h0c.12.08.22.19.3.31.01,0,.02.01.02.03.14.11.13.22-.02.31-.12.07-.23.15-.34.23-.08.06-.15.13-.09.24.06.12.17.15.29.16.03,0,.05-.01.04-.05-.04-.14.07-.18.15-.24.24-.19.54-.3.75-.55.07-.09.11.09.19.09.08-.08.23.04.27-.11-.03,0-.04-.03-.05-.06-.41-.41-.81-.82-1.22-1.23-.13-.1-.26-.02-.41.02.3.31.63.55.89.87Z"/>
        <path class="cls-2" d="M10.37,1.47s.08-.03.12-.05c.17-.06.34-.11.52-.13.1-.04.21-.07.32-.06.1-.04.19-.1.3-.02.1.03.15.12.22.19.04.13-.04.18-.14.22,0,.01-.02.02-.03.02-.11.08-.22.07-.33.01-.11-.01-.19-.08-.27-.13-.09,0-.15-.12-.25-.05-.15.1-.14.23.01.33.03.02.06.05.09.07h0c.31.17.57.4.86.59.14.07.29.07.45.04.1-.09.24-.13.29-.26h0s0,0,0,0c-.34.02-.77-.17-.96-.41.24,0,.45-.07.64-.2.19-.13.2-.26.01-.4-.04-.03-.1-.05-.12-.13.21-.06.49,0,.53-.35-.73.09-1.44.2-2.14.39-.07.02-.08.08-.12.12,0,.07-.07.15,0,.22Z"/>
        <path class="cls-2" d="M18.63,1.63c.33.09.64.21.96.33.07.03.13.06.17.13.05.09.08.19.03.28-.05.09-.15.09-.24.09-.23,0-.34-.15-.42-.35-.11-.27-.12-.27-.39-.21,0,0-.02,0-.03,0-.05.05-.05.09-.02.15.06.14.12.29.14.44,0,.02.01.05.02.07.03.11.06.22.09.34.11.43.23.53.68.53.06-.01.13-.03.19-.04-.39-.17-.46-.54-.56-.89.2.16.43.2.66.2.29,0,.36-.08.3-.36,0-.03-.01-.06-.02-.12.12.04.22.08.31.15.05.01.09.03.14.04.05-.1.23-.03.23-.19-.29-.13-.58-.27-.87-.4-.28-.11-.57-.2-.85-.32-.21-.09-.39-.1-.56.06,0,.04.05.04.07.06Z"/>
        <path class="cls-2" d="M28.27,19.11c-.04-.13-.08-.26-.11-.39-.26-.31-.41-.34-.77-.15-.17.09-.34.19-.51.29-.14.08-.27.12-.4-.05-.05.13-.03.23-.03.33,0,.33.04.36.34.24.15-.11.31-.21.47-.29l.21-.1c.2-.14.45-.06.61.13.12.2,0,.44-.23.47-.25.03-.44-.07-.59-.32-.07.03-.04.11-.08.16,0,.05,0,.1,0,.16.03.08.05.16.08.23.15.19.36.22.58.23.07-.02.13-.05.2-.07.12-.09.18-.22.23-.36,0-.05,0-.1.01-.15v-.04c0-.1,0-.21,0-.31Z"/>
        <path class="cls-2" d="M3.07,23.81c.16-.12.34-.19.51-.27,0-.01-.02-.03-.03-.04-.02,0-.04,0-.04-.03-.01,0-.03-.02-.04-.03-.16-.08-.32-.14-.5-.05-.02,0-.04,0-.06,0-.17-.01-.38,0-.45-.17-.05-.15.17-.18.26-.28.06-.06.13-.11.21-.13h0s.05-.06.09-.07c.02-.04.06-.07.04-.12-.15-.09-.28-.23-.47-.25,0,.03.01.05.02.08.03.02.03.05.02.08,0,.05-.04.06-.07.07-.14.13-.28.24-.46.3-.01,0-.02.02-.03.03-.03.11-.14.15-.2.23,0,.04,0,.07.01.11.15.06.3.11.45.17.04,0,.09,0,.12.03.1,0,.2.02.34.03-.18.16-.38.23-.54.35.21.21.43.23.66.07.04-.04.09-.07.14-.08Z"/>
        <path class="cls-2" d="M1.47,21.93h0c.2-.26.39-.52.59-.78.03-.1.09-.19.04-.3-.06-.04-.13-.09-.19-.13-.05,0-.09-.03-.12-.06-.02,0-.05,0-.07-.01.01.04.02.08.03.12.03.05.01.1,0,.15-.03.06-.05.15-.12.17-.07.02-.09-.08-.13-.12-.07-.07-.14-.15-.21-.22-.03-.01-.05-.03-.08-.04-.03,0-.06,0-.08-.03h0c-.13,0-.27-.05-.35.11-.08.16-.03.37.14.54h0c.09.04.18.08.32.14-.08-.15-.16-.26-.14-.39,0-.09.03-.18.13-.19.1-.01.13.08.15.15.07.24.05.46-.16.64-.08.1-.22.2,0,.31.09.07.18.09.27-.01Z"/>
        <path class="cls-2" d="M14.98,28.02s-.1-.06-.15-.09c-.03,0-.05-.01-.08-.02-.04,0-.08,0-.12,0-.02,0-.05.01-.07.02-.12.1-.26.19-.37.32-.07.08-.14.16-.15.27,0,.15-.05.22-.22.2-.13-.02-.1.11-.12.18-.03.08.04.09.09.08.26-.05.26.1.22.28,0,.06,0,.13.01.19,0,.14,0,.29.01.43.02.04,0,.09.04.12.29-.13.39-.34.31-.65-.07-.26.06-.42.27-.54h0c.02-.06.07-.11-.06-.11-.25,0-.26,0-.24-.26,0-.05.02-.1.02-.15.02-.16.11-.18.21-.09.12.12.21.06.3-.02.03-.02.05-.04.08-.06,0-.03,0-.05.01-.08,0,0-.01,0-.02-.02Z"/>
        <polygon class="cls-2" points="14.67 28.82 14.67 28.82 14.67 28.83 14.67 28.82"/>
        <path class="cls-2" d="M24.9,24.36s-.02-.03-.04-.04c-.05-.04-.1-.08-.16-.11-.17-.09-.35-.14-.52-.03-.18.11-.24.31-.24.53.21-.23.44-.23.68-.11.19.09.29.25.23.36-.06.11-.31.16-.46.09-.09-.04-.16-.11-.22-.19-.03-.04-.03-.1-.09-.11-.13.4-.01.63.37.72.09.02.17,0,.25,0,.17-.08.25-.22.28-.4,0-.01,0-.03,0-.04,0-.18-.01-.35-.02-.53-.02-.04-.05-.09-.07-.13Z"/>
        <path class="cls-2" d="M26.24,23.24c-.19.25-.63.25-.82.01-.05-.06-.08-.13-.04-.2.05-.07.12-.13.21-.12.09.01.12.08.14.17,0,.06-.02.13.06.2.02-.16.04-.29.06-.43,0-.15-.03-.29-.18-.36-.07,0-.15,0-.21.06-.26.3-.25.63-.1.97.08.18.25.28.44.31.52,0,.63-.25.54-.76-.04.06-.07.11-.1.15Z"/>
        <path class="cls-2" d="M12.15,28.8c.05.03.09.09.14.12.02.01.07-.02.11-.03.02-.05.07-.06.11-.08.09-.11.01-.19-.06-.26-.1-.03-.21-.02-.31,0-.14.09-.28.17-.41.27-.2.16-.17.32.07.42.08.03.18.05.26.08.09.04.18.09.19.2,0,.04-.02.06-.05.07-.11.02-.2-.02-.29-.08-.06-.04-.03-.21-.18-.11-.12.08-.24.15-.16.32.28.21.91-.03.97-.38.01-.08-.01-.14-.06-.2-.15-.06-.3-.11-.45-.18-.06-.03-.16-.09-.11-.17.05-.08.16-.02.23.01Z"/>
        <path class="cls-2" d="M27.8,20.25c-.1-.02-.08.07-.1.11-.14.28-.51.39-.78.21-.08-.05-.15-.11-.12-.22.03-.09.1-.16.2-.16.11,0,.14.1.16.19.01.04,0,.09.06.13.03-.22.02-.43-.03-.65-.1-.11-.21-.12-.34-.07-.01,0-.02.02-.03.02-.11.14-.15.3-.15.47,0,.02,0,.05,0,.07.05.29.17.54.46.68.05,0,.1.02.15.03.07-.02.15-.05.22-.06.2-.03.27-.19.36-.33.05-.16-.09-.28-.07-.43Z"/>
        <path class="cls-2" d="M9.47,28.87c-.32-.04-.53-.43-.41-.72.04-.08.08-.16.18-.14.08.01.17.06.19.15.03.11-.05.16-.14.2-.04.02-.08.04-.16.07.26.01.45-.06.63-.17.16-.11.1-.24,0-.37-.01,0-.02,0-.02-.01-.31-.12-.57-.02-.82.16-.25.19-.31.42-.2.74.01.03.03.05.04.08.04.03.08.06.08.12.09.13.22.12.35.11.06-.02.12-.04.19-.06.01,0,.03,0,.04-.01.06-.04.12-.07.17-.11-.02-.07-.08-.04-.12-.04Z"/>
        <path class="cls-2" d="M21.31,27.3c-.12.01-.24.06-.37.03-.06-.01-.13-.02-.14-.09,0-.07.07-.08.12-.1.06-.02.12-.03.17,0,.08.05.12.02.16-.05.04-.08.14-.16.06-.24-.08-.09-.2-.08-.3-.03-.15.07-.2.23-.3.35-.02.03-.03.05-.05.08,0,.03-.02.06-.03.09-.07.25.04.38.3.33.08-.02.16-.04.25-.05.1-.01.18,0,.24.09.02.03.02.07,0,.09-.09.06-.2.12-.29.06-.12-.08-.18-.09-.26.05-.08.15-.04.23.08.31.1.02.19-.01.29-.04.18-.14.28-.34.35-.55.08-.26-.02-.37-.28-.34Z"/>
        <path class="cls-2" d="M4.96,24.95s-.01,0,0-.02c-.09-.12-.21-.2-.34-.26-.05,0-.1-.01-.16-.02-.28,0-.54.03-.74.26-.01.03-.03.05-.04.08-.03.1-.04.2-.03.31,0,.28.13.41.41.45.07,0,.14.02.21.03.02,0,.05,0,.07,0,.03-.08-.04-.08-.08-.11-.34-.2-.23-.68,0-.85.06-.05.14-.08.21-.03.07.05.12.13.11.22-.02.09-.1.11-.18.13-.06.01-.13-.03-.2.03.06.03.1.05.15.07.01,0,.03,0,.04,0,.08.01.17.03.25.04.28.03.35-.03.34-.31Z"/>
        <path class="cls-2" d="M25.8,23.97c-.13.11-.26.08-.38-.02,0,0,0,0-.02-.01-.2-.12-.36-.26-.32-.54.01-.07-.02-.14-.03-.21-.04.04-.07.08-.11.13q-.12.17-.3-.03c-.07-.04-.1-.02-.11.06-.02.27.05.52.12.77.11,0,.1-.23.24-.12.15.11.29.24.43.36h0s.06.01.07.04c.11.02.22.12.34.04.02-.08.04-.15.05-.23,0-.05,0-.1.01-.15,0-.03,0-.06-.01-.08h0Z"/>
        <path class="cls-2" d="M19.05,28.76c-.19-.07-.33-.21-.37-.42-.01-.07,0-.13.07-.17.08-.04.16-.05.24,0,.06.04.08.1.05.17-.01.03-.03.06,0,.09.32-.31.39-.5.15-.64-.04,0-.09,0-.13,0-.1.05-.21.11-.31.16-.02.02-.03.04-.05.07-.07.15-.17.28-.19.45-.03.23.01.44.2.6.05.02.1.04.14.06.37.16.69-.06.71-.48-.02.01-.05.03-.07.04-.13.14-.29.15-.45.09Z"/>
        <path class="cls-2" d="M2.32,22.14s.07.02.07.06c.02,0,.04.01.06.02.1.02.21.04.32.07q-.13-.3,0-.35c.06-.05.24-.05.07-.19-.22-.11-.47-.12-.71-.18-.09,0-.05.06-.04.1.1.08.12.15-.03.2-.05.02-.11.04-.16.06h0s-.04.04-.08.05c-.05.06-.12.08-.19.11-.37.29-.36.33.06.56.02,0,.03.02.05.03.02-.01.05-.03.07-.04-.06-.07-.06-.14.01-.2.15-.13.33-.2.49-.3Z"/>
        <polygon class="cls-2" points="11.23 28.24 11.23 28.24 11.23 28.24 11.23 28.24"/>
        <path class="cls-2" d="M11.35,29.2s0-.01,0-.02c.04-.22.06-.46.34-.53.07-.02.12-.09.19-.13-.04,0-.07-.01-.11-.02q-.23-.04-.17-.37c-.14,0-.25.09-.38.11-.01.16-.2.13-.26.24-.03.05-.13.06-.09.15.01,0,.02,0,.03,0,.15-.02.22.03.15.18-.03.08-.02.18-.07.25,0,.03,0,.05-.01.08-.01.08-.03.16-.04.24,0,.1,0,.21.06.3h0s.02,0,.02,0c.03,0,.05,0,.08,0,.12-.06.26-.06.4-.17-.19-.05-.17-.19-.16-.32Z"/>
        <path class="cls-2" d="M9.08,27.78s0,0,0,0q-.26-.14-.14-.4s0-.05,0-.07c-.02,0-.04,0-.07,0-.06.03-.13.04-.2.02-.04,0-.08,0-.12.01-.04.11-.13.09-.22.12-.08.03-.16.04-.23.13.25.06.19.18.09.34-.12.19-.22.39-.27.62.01.04.03.08.04.12.11.05.23.01.35.04.04-.03.08-.04.12-.03-.17-.23.01-.41.09-.61.1-.28.4-.11.54-.28Z"/>
        <path class="cls-2" d="M27.43,21.27s-.04,0-.05,0c-.04.1-.12.12-.22.09-.15-.05-.29-.14-.44-.21-.05-.02-.06-.05-.06-.11,0-.14-.07-.27-.11-.4-.01.01-.03.03-.04.04q-.1.27-.35.14s-.05-.01-.08-.02c-.03.31.12.55.24.8.02.03.04.01.07.01,0-.01,0-.02,0-.03.02-.12.06-.21.19-.08.08.04.16.08.23.12.06,0,.11.04.16.08.03.01.05.02.08.04.13.02.26.11.39,0,0-.05.01-.1.02-.16,0-.08,0-.16-.01-.24,0-.02-.01-.05-.02-.07Z"/>
        <path class="cls-2" d="M10.76,28.24c-.09-.04-.18-.09-.28-.09-.08.02-.15.03-.23.05-.58.2-.73.75-.3,1.18.02.01.05.02.07.03.01,0,.03,0,.04,0,.08,0,.16,0,.24,0,.09-.03.18-.07.27-.1.02,0,.03-.02.05-.02,0-.03,0-.05,0-.08-.1,0-.19,0-.27-.07-.21-.14-.32-.39-.27-.62.02-.1.08-.17.18-.18.11-.02.19.04.21.13.05.21.16.14.28.08.16-.08.14-.18.05-.3,0,0,0-.01,0-.02Z"/>
        <path class="cls-2" d="M3.8,24.26h0c.14.08-.01.17,0,.26.01,0,.02,0,.03.01.03,0,.07,0,.1.02.16.08.28.04.36-.12.05-.2-.11-.19-.23-.23-.08-.01-.16-.03-.26-.04.03-.08.1-.12.16-.16.04-.09.02-.16-.09-.19-.06-.02-.12-.05-.17-.07-.08-.02-.17-.04-.25-.07.13.13.04.22-.05.3-.17.17-.36.32-.57.44-.03.03-.04.06-.02.1.3.17.51,0,.73-.17h.01s.07-.07.12-.07c.03-.04.07-.05.11-.01Z"/>
        <path class="cls-2" d="M13.59,29.26c0-.16,0-.32-.01-.49,0-.16-.07-.19-.21-.11-.09.05-.17.1-.25.14-.03.04-.11.03-.11.13.18-.05.2.07.2.19,0,.21,0,.43,0,.64,0,.06-.05.13.06.15.01-.01.02-.03.04-.04.24-.09.32-.26.29-.51,0-.04,0-.08,0-.11Z"/>
        <path class="cls-2" d="M20.35,27.34c-.2-.05-.21.16-.31.23-.04.06-.08.13-.14.22.2-.09.26.03.31.17.08.23.17.46.26.69.05-.05.09-.1.14-.15.13-.14.11-.27.04-.43-.11-.24-.2-.49-.3-.73Z"/>
        <path class="cls-2" d="M9.79,2.57c-.02.05-.03.11-.04.17.04,0,.08,0,.12.01.06-.01.11,0,.16.04.05,0,.1-.02.15-.02.02-.05.05-.1.07-.14.01-.08.07-.14.05-.23,0,0,0,0,0,0,0,0,0,0,0,0,0,0,0,0,0,0,0,0,0,0,0,0,0,0,0,0,0,0,0,0,0,0,0,0-.07.13-.17.11-.28.07-.13-.06-.19,0-.22.11Z"/>
        <path class="cls-2" d="M20.29,27.02c-.06-.03-.13-.07-.2-.09-.05-.02-.24.2-.24.28,0,.08.07.1.14.11.09.01.29-.17.3-.29Z"/>
        <path class="cls-2" d="M13.54,28.2s-.07-.06-.12-.05c-.09.07-.18.14-.27.21,0,.01,0,.02,0,.04.04.03.07.07.12.1.15.07.25-.04.34-.12.08-.08-.08-.1-.07-.16Z"/>
        <path class="cls-2" d="M10.3,2.37s0,.01,0,.02c0,0,0,0,.01,0,0,0,0,0-.01,0Z"/>
        <path class="cls-2" d="M12.52,2.23s.02-.01.03-.02c0,0-.01-.01-.01-.01,0,0-.01.02-.02.02,0,0,0,0,0,0,0,0,0,0,0,0Z"/>
        <path class="cls-2" d="M13.92.91c.17,0,.3,0,.44,0,.07,0,.16,0,.18.08.01.08-.09.05-.13.09-.06.05-.18.06-.18.18.08-.05.17-.04.25,0,.15.07.03.18.04.27l-.03.35s.03.08.02.12c.01.04.03.07.04.11.18.15.32,0,.47-.07-.15-.11-.17-.27-.16-.44,0-.2.1-.4.02-.6-.02-.04.01-.06.05-.06.18,0,.25-.13.33-.26-.06,0-.13-.01-.19-.02-.05,0-.1,0-.16,0-.2,0-.39-.01-.59-.02-.07.02-.16,0-.23.04-.05.07-.1.13-.18.23Z"/>
        <path class="cls-2" d="M26.33,22.47c-.29,0-.45-.17-.37-.39,0-.02.01-.04.04-.03.03-.03.06-.05.11-.04.04-.03.09-.04.13,0,.19-.06.03-.21.08-.31-.14-.14-.33-.11-.43.09-.15.33-.1.65.12.93.08.04.16.1.24.12.2.04.41.08.57-.09.16-.17.13-.38.08-.6-.12.25-.33.32-.57.33Z"/>
        <path class="cls-2" d="M25.17,6.01c-.02.06.05.09.04.14.08.04.04.08,0,.11-.07.06-.15.12-.24.15-.03.01-.05.03-.08.04-.05.03-.1.05-.15.08-.1.05-.21.11-.31.16-.1.08-.22.14-.29.26.04.2.22.33.39.27-.09-.18.06-.21.16-.27.16-.08.31-.15.47-.23.08-.05.17-.08.24-.15.1-.1.15-.06.21.03.02,0,.04,0,.06,0,.05-.02.1-.02.16,0,.08,0,.13-.01.08-.12-.07-.15-.24-.2-.29-.35-.04-.1-.1-.14-.18-.16-.09.02-.18.05-.27.02Z"/>
        <path class="cls-2" d="M9.49,1.93s-.07.1.01.15c.27.16.42.1.51-.22-.09-.02-.19-.02-.27-.08-.14-.06-.18.06-.24.14Z"/>
        <path class="cls-2" d="M20.94,15.04s0,.05,0,.08c0,.15,0,.29-.03.43,0,.03,0,.05,0,.08,0,.28-.05.55-.1.83-.02.12-.04.24-.03.37.03.28.16.41.44.44,0-.01.02-.01.03-.01.27-.07.43-.28.6-.47v-.02c.08-.15.19-.27.23-.43.01,0,.02,0,.03,0,.01-.08.04-.16.09-.23l.06-.2c0-.13.06-.25.03-.38.02,0,.04,0,.06,0h0s0,.02.01.02c.02,0,.03,0,.04,0-.01,0-.03,0-.04,0,.02.12.09.23.08.35.04.13.06.26.06.39.02.1.02.21,0,.31,0,.03,0,.06,0,.08-.01.08-.02.15-.04.23,0,.07-.02.14-.06.2,0,.04,0,.09-.04.12,0,.05-.03.09-.07.12-.02.07-.07.1-.13.13,0,.07-.06.11-.12.15-.03.05-.06.1-.12.12,0,.03,0,.05,0,.08.04.02.08.04.11.06.03,0,.05,0,.08,0,.24-.05.37-.22.46-.43.08-.18.12-.38.17-.57,0-.09,0-.19.03-.28,0-.08,0-.15,0-.23-.04-.27-.1-.53-.19-.78-.01-.03-.05-.06,0-.08.04-.02.07,0,.1.03h0s0,0,0,0h0s.03.09.09.1c0,.01,0,.02.02.03,0,0,.01,0,.02,0,0,0-.01,0-.02,0,.02.03.04.06.06.09.03.06.05.12.08.18.03.05.06.11.09.16.05.02.09.06.12.11.09.03.18.06.28.05.04-.03.08-.06.12-.08.02-.03.05-.06.07-.09.16-.33.22-.68.2-1.04,0-.03-.01-.06-.02-.09,0-.02-.01-.04-.02-.07-.01-.04-.03-.08-.04-.12-.04-.05-.06-.1-.07-.16-.08-.14-.16-.27-.25-.41-.14-.15-.29-.31-.43-.46l-.24-.19s-.04-.03-.06-.04c-.52-.35-1.08-.58-1.66-.81-.04-.01-.08-.02-.12-.03,0,0-.01,0-.02,0-.11,0-.25-.13-.3-.07-.07.09.03.23.07.34.2.69.34,1.38.29,2.11ZM22.72,15.42s0,0,0,0c0,0,0,0,0,0ZM22.68,15.52s0-.01,0-.02c0,0,0,.01,0,.02ZM22.71,15.46s0,.02-.01.03c0,0,.01-.02.01-.03ZM22.78,15.61s0-.02,0-.02c0,0,0,.02,0,.02ZM22.86,15.73s0,.01,0,.02c0,0,0-.01,0-.02ZM21.26,13.27c.13.1.23.22.33.35.02.02.04.03.05.06.04.08.08.21.17.21.1,0,.08-.15.14-.22,0-.09.01-.19.02-.29.08.09.07.2.06.3,0,.02,0,.04,0,.06-.22.37.06.62.2.91.04.07.07.07.13.02.14-.12.22-.28.22-.46,0-.18.03-.37-.03-.55.07-.03.08.02.09.05.18.34.11.79-.17,1.06-.07.07-.08.1-.02.17.21.25.47.23.64-.05.11-.18.11-.38.09-.59-.02-.05-.03-.1-.05-.15.06.03.08.1.11.15.08.12.07.27.08.41h0c-.02.07-.05.14-.07.22-.01.03,0,.05.03.07h0c-.1-.06-.1.05-.14.09-.04.04-.08.07-.12.11-.1.05-.19.1-.31.08h0s-.05-.02-.08-.02c0,.01,0,.03.01.04,0,0,0-.02-.01-.04-.02,0-.05-.02-.07-.03,0,0,0,0,0,0,0,0,0,0,0,0-.06-.05-.12-.09-.18-.14-.04.14-.08.27-.12.41-.06.08-.11.16-.17.24-.16.18-.31.36-.59.29-.07-.06-.15-.12-.16-.22-.12-.17-.13-.37-.15-.57.07.17.13.34.2.51.11.12.23.12.36.03.18-.12.33-.28.4-.49.08-.23.02-.31-.22-.27-.29.04-.51-.03-.66-.29,0-.02,0-.04-.01-.06-.08-.09-.1-.2-.11-.32.05.09.1.18.16.27.19.19.4.28.67.2.09-.03.12-.07.08-.15-.05-.1-.1-.21-.15-.32-.05-.11-.13-.16-.25-.19-.21-.04-.38-.16-.5-.35.18.04.3.2.5.19-.01-.14-.11-.24-.16-.36-.09-.11-.17-.22-.26-.33-.03-.03-.07-.05-.05-.1.04,0,.07.03.08.07ZM22.53,15.26s0,0,0,0c0,0,0,0,0,0ZM21.13,13.16s.04,0,.05.03c-.02.01-.04,0-.06-.01,0,0,0-.02.01-.02Z"/>
        <path class="cls-2" d="M9.95,12.48c.61-.16,1.11.03,1.45.56.36.58.6,1.21.84,1.84.18.47.36.94.66,1.35.33.46.75.8,1.32,1.01-.14-.44-.28-.87-.05-1.3,0-.03,0-.06.04-.08,0-.03.01-.06.04-.08,0-.05.03-.09.07-.12.01-.02.03-.03.04-.05l.05-.06c.02-.06.05-.1.1-.13h0c.03-.07.06-.15.1-.22.03-.19-.02-.36-.07-.54-.05-.08-.1-.16-.14-.24-.02-.03-.04-.06-.06-.09-.28-.27-.53-.56-.76-.87h-.01c-.11-.12-.19-.24-.27-.37-.2-.28-.38-.58-.48-.91-.04-.1-.06-.2-.07-.31,0-.07,0-.13-.01-.2,0-.05,0-.1,0-.16,0-.03,0-.06.01-.09.06-.55.42-.95.97-1.09.35-.09.7-.09,1.04-.01.27.06.53.14.79.2.03,0,.05,0,.08.01.4.06.81.07,1.22,0,.01-.02.03-.04.04-.05-.04-.25-.1-.5-.21-.74-.02-.04-.04-.07-.06-.11-.26-.35-.59-.64-.96-.87-.01,0-.03-.01-.04-.02-.17-.06-.34-.12-.5-.17-.03,0-.05,0-.08-.01-.24,0-.47-.04-.71,0-.04,0-.08,0-.12.01l-.14.03h0c-.34.11-.65.3-.94.5-.04.06-.1.08-.16.09-.11.07-.21.09-.32.01-.06-.03-.12-.05-.16-.11-.13-.06-.26-.11-.39-.17-.05,0-.1,0-.16,0h-.12s-.05.01-.08.02l-.12.03c-.53.29-.87.71-.92,1.33-.01.18.02.36.1.53.2.43.7.59,1.12.35.07-.04.14-.09.22-.14.04.22.07.42.11.62.04.06.1.13.04.18-.08.07-.15,0-.21-.06-.23-.12-.43-.28-.71-.29-.39,0-.71.13-1,.38-.09.08-.17.18-.29.23-.04.06-.09.1-.15.14-.06.06-.12.12-.18.17-.02.03-.05.06-.08.07,0,.01,0,.02,0,.03.1.02.19-.03.29-.05Z"/>
        <polygon class="cls-2" points="14.51 15.42 14.51 15.42 14.51 15.43 14.51 15.42"/>
        <path class="cls-2" d="M6.37,20.56s.04.05.05.07c.18.24.38.47.65.63.06.03.13.06.19.08.03,0,.06.02.08.03.02,0,.05.01.07.02.1.01.2.02.29.07.02,0,.04,0,.06,0,.03,0,.05,0,.08,0,.01,0,.03,0,.04,0,.03-.02.06-.03.09-.04-.03,0-.06.02-.09.04.01,0,.03.02.04.03.05.02.1.04.15.06,0-.04,0-.07-.02-.09,0-.01-.01-.02-.02-.02,0,0,.01.01.02.02.01.02.02.05.02.09,0,.02,0,.04.01.05.01,0,.03.01.04.02h0c.04.08.08.15.12.23.1.12.24.13.38.12.05-.01.1-.03.16-.04.03-.01.05-.02.08-.04.04-.04.1-.07.16-.09.02,0,.03-.01.05-.02.09-.08.19-.1.3-.1.05-.01.1-.03.16-.04.03-.03.08-.03.12-.03.06-.04.13-.06.2-.07.1-.07.2-.14.3-.21h0c.07-.05.14-.11.2-.16.16-.11.27-.27.42-.39h0s.08-.06.12-.09c.39-.22.81-.34,1.27-.35-.29-.11-.53-.3-.78-.47-.3-.21-.62-.3-.97-.13-.29.18-.5.48-.83.61.36-.29.51-.67.51-1.12,0-.04,0-.08,0-.12-.03-.02-.03-.05-.02-.08,0-.03-.01-.05-.02-.08-.04-.04-.04-.1-.05-.15,0-.02-.02-.05-.03-.07-.04-.04-.07-.08-.07-.13-.01-.03-.03-.05-.04-.08-.11-.14-.23-.29-.34-.43-.05-.07-.1-.13-.15-.2,0,0-.01-.01-.01-.02-.09-.09-.16-.2-.22-.31h0c-.26-.37-.39-.79-.45-1.23,0-.03,0-.05-.01-.08-.04-.15-.07-.31-.12-.49-.26.32-.48.63-.62.99-.11.29-.09.56.17.78.18.08.36.15.56.18-.24.05-.47.01-.68-.13-.07-.02-.14-.04-.22-.05-.03.01-.06.03-.08.04-.05.07-.08.15-.09.24.02.09.05.18.07.27l.1.09s.04,0,.04.03l.08.07s.08.02.12.03c.19.06.39.12.6.12-.21.11-.43.12-.65.05-.06,0-.13,0-.19.01-.03.01-.05.03-.08.04-.09.21-.05.36.16.49.33.21.68.23,1.04.08.05-.02.1-.05.16-.07,0,0,.02,0,.05.02-.1.2-.28.25-.47.28-.13.02-.26.01-.39.02-.13.01-.26.03-.29.18-.03.14.07.22.18.29.22.13.45.09.68.03.17-.07.33-.15.49-.23-.1.2-.3.25-.48.35-.25.16-.45.4-.73.5-.02.01-.04.02-.06.03-.04.02-.07.05-.12.04-.07.03-.13.04-.19,0-.24-.09-.27-.3-.31-.51,0-.04,0-.08,0-.12-.09-.36-.09-.73-.15-1.09-.02-.15-.04-.29-.06-.44,0-.04-.01-.08-.02-.12-.06-.11-.04-.26-.16-.37-.05.35-.29.64-.2,1,.11.34.11.71.25,1.04.07.16.14.33.2.49.03.06.08.12.04.21-.34-.48-.49-1.02-.61-1.57,0-.04,0-.09-.04-.12-.05.19-.11.38-.16.57,0,.05.02.1.03.15.11.38.21.76.5,1.06.02.04.04.07.08.14-.17-.08-.24-.19-.32-.3-.14-.21-.23-.44-.31-.69-.02-.05,0-.12-.09-.14h0c0,.12-.05.23-.09.35,0,.12-.02.24,0,.35.01.03.03.05.04.08ZM11,19.99c.06,0,.13.02.13.09,0,.06-.06.07-.11.08-.06,0-.13-.01-.13-.08,0-.05.05-.08.11-.08ZM8.05,21.42s-.02,0-.03,0c0,0,.02,0,.03,0Z"/>
        <polygon class="cls-2" points="14.6 17.55 14.6 17.55 14.6 17.55 14.6 17.55"/>
        <polygon class="cls-2" points="11.86 19.42 11.86 19.42 11.86 19.42 11.86 19.42"/>
        <polygon class="cls-2" points="11.27 17.23 11.27 17.23 11.27 17.23 11.27 17.23"/>
        <path class="cls-2" d="M9.39,16.41c.14.39.35.75.52,1.13.04.03.07.07.07.12.08.12.22.18.27.32.03.02.05.04.04.07,0,.02.02.03.03.05.01.01.02.02.03.03.04,0,.07.04.09.08.05.03.09.06.11.12l.05.05c.23.21.45.41.68.62.05.04.1.07.14.11.16.09.3.19.44.3h0c.17.09.34.18.51.28.6.27,1.23.47,1.89.53,1.51.13,2.88-.26,4.13-1.09.39-.26.67-.61.97-.96.12-.22.3-.41.4-.65.04-.07.09-.14.13-.22.02-.03.03-.05.05-.08l.36-.94c.01-.12.03-.24.08-.35,0-.05.01-.11.02-.16,0-.04.02-.08.02-.11,0-.01,0-.03,0-.04,0-.2,0-.39,0-.59,0-.03,0-.05,0-.08-.02-.08-.04-.16-.03-.24,0-.04,0-.08-.01-.12-.04-.17-.08-.34-.12-.51-.01-.04-.03-.08-.04-.12-.11-.21-.24-.4-.47-.51l-.31-.04s-.1.04-.16.03c-.1.04-.21.08-.31.12-.19.11-.39.21-.58.32h0c-.17.13-.36.24-.55.35-.04.03-.07.05-.11.08-.1.07-.2.14-.3.21h0c-.05.05-.11.1-.16.15h0s-.08.05-.13.07c-.11.11-.22.2-.35.28h0c-.07.08-.15.15-.24.2-.03.07-.11.07-.16.11,0,.07-.05.1-.1.12h0c-.23.23-.45.46-.68.68,0,.03-.03.05-.06.05-.17.21-.32.44-.52.62,0,.03,0,.05,0,.08.01,0,.03,0,.04,0,.04-.03.08-.06.12-.09.23-.23.48-.45.74-.64.06-.06.12-.11.2-.15.05-.06.11-.12.19-.15.04-.05.09-.1.15-.12.09-.1.2-.17.31-.23.15-.12.3-.24.47-.33,0-.01.01-.02.03-.02.02-.01.04-.02.06-.04.08-.07.16-.13.25-.16.04-.03.09-.06.13-.09.04-.04.08-.08.13-.08.07-.08.16-.12.26-.15.02-.01.04-.03.06-.04.17-.13.36-.23.56-.31h0c.16-.12.34-.2.53-.26.26-.09.33-.04.36.24.02-.02.04-.04.05-.06.02-.03.02-.05.03-.08,0,.03-.01.05-.03.08-.01.02-.03.04-.05.06,0,.03,0,.05,0,.08,0,0,.01,0,.02,0,0,0-.02,0-.02,0-.08.2-.12.41-.24.6v.07s-.02,0-.03,0c0,.02,0,.05-.01.07-.16.25-.29.53-.5.75-.02.04-.04.07-.06.11h0s-.04.03-.06.05c-.17.24-.36.45-.58.63-.09.11-.19.2-.31.27h0c-.26.27-.57.47-.88.67-.23.15-.23.23,0,.37.07.04.14.07.21.11.3.18.36.49.13.76-.29.36-.7.51-1.13.63-2.17.59-4.29-.27-5.54-2.16-.01-.02-.01-.04-.02-.06l-.04-.05c-.07-.08-.13-.16-.16-.26-.08-.11-.14-.24-.19-.37-.01-.03-.03-.05-.04-.08-.03-.02-.04-.05-.03-.08-.32-.69-.5-1.39-.28-2.15.02-.08.03-.19.13-.19.1,0,.11.11.14.19.11.28.17.57.24.86.15.61.38,1.2.68,1.76.02.04.05.08.07.12.01,0,.02.02.02.03.04.07.09.14.13.2.06.04.09.1.11.16.06.08.13.16.19.24.04.02.07.06.09.11.63.69,1.38,1.16,2.3,1.35.89.18,1.76.09,2.62-.21.1-.03.19-.08.27-.15.19-.16.16-.34-.07-.43-.04-.01-.07-.03-.11-.04-.09,0-.18-.01-.27-.02-.06.01-.11.01-.16-.02-.16.01-.31-.02-.47-.05-.05-.01-.1-.03-.16-.04-.03,0-.05-.02-.08-.03-.08-.02-.17-.06-.16-.14.02-.14.15-.16.27-.19l.08-.02s.05-.01.07-.02c.03,0,.06-.02.09-.03.07-.03.19-.03.2-.13,0-.08-.11-.09-.16-.14-.03,0-.06,0-.08-.03h-.08c-.05-.03-.1-.04-.16-.05-.01,0-.03,0-.04,0-.03,0-.05,0-.08,0-.05,0-.1,0-.16,0-.05,0-.1,0-.16.01-.06.03-.13.04-.2.04-.1.04-.21.08-.31.13-.02.03-.05.04-.08.04-.02.03-.04.04-.08.04-.03.01-.05.02-.08.03-.2.14-.41.08-.62.02-.3-.09-.55-.25-.76-.49-.06-.03-.1-.08-.13-.13-.05-.06-.11-.13-.16-.19-.51-.69-.86-1.47-1.16-2.27-.17-.46-.32-.93-.57-1.37-.25-.45-.6-.62-.99-.46-.22.09-.39.26-.51.46-.25.4-.36.85-.39,1.31-.04.6.05,1.19.2,1.78.04.03.03.08.04.12ZM16.74,15.33h0s0,.02-.01.03c0-.01,0-.02.01-.03ZM18.96,15.93s-.08.04-.13.04c.05,0,.1-.02.13-.04Z"/>
        <path class="cls-2" d="M16.4,11.04c-.2.03-.4.02-.59-.03-.07,0-.14,0-.2-.04-.24-.02-.47-.11-.7-.17-.35-.1-.7-.12-1.06-.04-.52.12-.74.48-.84.95,0,.04-.02.08-.02.11,0,.08,0,.16,0,.23.05.37.19.69.47.94.09.06.17.11.26.17h0c.32.15.66.2,1,.09.05-.02.18,0,.1-.14-.18-.14-.31-.28-.4-.5.14.11.28.23.41.34.22.17.4.04.58-.09.03-.03.05-.05.08-.08q.22-.29.51,0s.04,0,.06,0c.24-.53.4-1.09.44-1.68-.01-.07-.06-.07-.12-.08ZM14.37,12.6s0,0,0-.01c0,0,0,0,.01,0,0,0,0,0,0,.01,0,.02-.02.02-.02,0ZM15.5,11.98c-.44,0-.88-.31-1.05-.73.23-.06.45-.05.67.02.28.1.42.32.49.59.03.1-.01.12-.11.12Z"/>
        <polygon class="cls-2" points="17.15 14.77 17.15 14.77 17.15 14.77 17.15 14.77"/>
        <path class="cls-2" d="M18.1,11.66c.22-.05.37-.33.32-.62-.01-.06-.03-.11-.05-.17-.11-.26-.29-.38-.5-.34-.21.04-.34.24-.34.54,0,.03,0,.09.02.14.07.29.32.49.56.44Z"/>
        <path class="cls-2" d="M15.91,13.96c-.14-.03-.24.05-.31.16-.17.27-.21.56-.09.86.09.23.31.27.48.09.16-.17.18-.38.21-.62-.01-.07-.02-.15-.04-.23-.04-.13-.11-.23-.24-.26Z"/>
        <polygon class="cls-2" points="17.49 13.44 17.49 13.44 17.49 13.44 17.49 13.44"/>
        <path class="cls-2" d="M16.8,13.48c0,.11-.02.23.02.34.03.07.07.14.1.21.13.11.26.2.42.24.03,0,.05,0,.08,0,.05-.03.11-.06.16-.09.02-.05.04-.1.06-.14,0-.21-.07-.4-.15-.59-.09-.09-.2-.15-.31-.2-.08.01-.16.03-.24.04-.04.04-.08.08-.12.12l-.03.08Z"/>
        <path class="cls-2" d="M17.92,13.14c.29,0,.56-.22.56-.47,0-.2-.16-.33-.4-.34-.29,0-.58.23-.57.47,0,.18.19.33.41.33Z"/>
        <path class="cls-2" d="M19.65,12.57s.02-.03.03-.04c.06-.26,0-.38-.26-.48-.1-.04-.21-.06-.32-.08-.02,0-.05.02-.07.03-.05.23.06.41.19.57.11.14.25.13.43,0Z"/>
        <path class="cls-2" d="M17.5,15.4c-.16.24-.18.5-.15.77.02.05.04.1.06.15.06.08.12.16.19.24.05.02.09.03.14.05.05,0,.1,0,.16,0,.08-.04.15-.09.23-.13.09-.13.15-.27.19-.42,0-.03,0-.05,0-.08,0-.01,0-.03,0-.04,0-.06,0-.13,0-.19-.05-.12-.1-.24-.15-.35-.01-.01-.02-.03-.04-.04-.14-.1-.3-.13-.47-.07h0c-.05.04-.11.08-.16.12Z"/>
      </g>
    </g>
  </g>
</svg>