<?xml version="1.0" encoding="UTF-8"?>
<svg id="Layer_2" data-name="Layer 2" xmlns="http://www.w3.org/2000/svg" viewBox="0 0 47.67 30">
  <defs>
    <style>
      .cls-1 {
        fill: #704d93;
      }

      .cls-2 {
        fill: #2d2f37;
      }

      .cls-3 {
        fill: #fcb408;
      }

      .cls-4 {
        fill: #0a957a;
      }

      .cls-5 {
        fill: #24a039;
      }

      .cls-6 {
        fill: #2b5b9f;
      }

      .cls-7 {
        fill: #cd328a;
      }
    </style>
  </defs>
  <g id="Layer_1-2" data-name="Layer 1">
    <g>
      <g id="_704d93ff" data-name="#704d93ff">
        <path id="path3" class="cls-1" d="M5.3.13c.34-.2.75-.13,1.1-.02.23.23.54.37.71.65.21.33.24.74.17,1.12-.09.5-.57.83-1.03.97-.79.18-1.63-.45-1.76-1.24-.03-.19,0-.38,0-.57.16-.37.44-.7.8-.91Z"/>
        <path id="path5" class="cls-1" d="M41.62,4.54c.78-.03,1.58,0,2.32.26.26.21.59.3.86.5.55.39,1.04.96,1.13,1.65.05.41.17.81.17,1.22,0,1.25-.02,2.5,0,3.75,0,.22.03.43.08.64,0,.04.02.11.03.15.47-.02.95-.06,1.42-.04.05.73.06,1.46.03,2.19-1.2.02-2.4.04-3.6.09-.33.03-.23-.55-.56-.51-.33.03-.68.13-.88.41-.32.1-.67.11-1,.13-.48,0-.97.03-1.44-.07-.51-.09-.98-.35-1.37-.69-.31-.27-.65-.53-.85-.9-.2-.36-.34-.76-.4-1.17v-.06c0-.08-.02-.13-.02-.2,0-.07,0,0,0-.15-.01-.17.05-.36.07-.51.19-1.12,1-2.1,2.05-2.53.52-.22,1.09-.28,1.65-.34.82-.07,1.62.16,2.44.13.03-.42-.02-.85-.09-1.26-.02-.11-.03-.25-.15-.31-.47-.27-1.02-.39-1.56-.34-.86.03-1.63.43-2.46.57-.07-.22-.18-.46-.23-.69-.08-.25-.15-.46-.24-.69-.05-.15-.14-.26-.16-.42.35-.19.74-.27,1.12-.4.54-.19,1.08-.41,1.65-.42M41.19,10.51c-.41.1-.75.4-1,.73-.19.24-.29.59-.14.88.18.34.49.61.86.73.77.15,1.52-.15,2.19-.51.36-.22.72-.58.67-1.04.02-.27-.26-.38-.45-.5-.63-.39-1.41-.38-2.11-.29h0Z"/>
      </g>
      <g id="_2d2f37ff" data-name="#2d2f37ff">
        <path id="path8" class="cls-1" d="M6.4.11c.41.15.78.45.94.86.19.43.13.95-.12,1.35-.38.5-1.08.79-1.69.59-.74-.24-1.34-1.11-1.02-1.88-.02.19-.03.38,0,.57.13.79.97,1.42,1.76,1.24.46-.14.94-.46,1.03-.97.06-.38.04-.79-.17-1.12-.17-.28-.48-.42-.71-.65h0Z"/>
        <path id="path10" class="cls-1" d="M43.94,4.8c.75.21,1.4.71,1.81,1.36.34.56.36,1.24.39,1.88.02,1.51-.05,3.02.02,4.53-.04-.21-.08-.43-.08-.64-.01-1.25,0-2.5,0-3.75,0-.41-.12-.81-.17-1.22-.09-.69-.57-1.26-1.13-1.65-.27-.2-.6-.28-.86-.5Z"/>
        <path id="path14" class="cls-2" d="M7.58,16c.79-.03,1.6-.05,2.35.2.38.12.68.44,1.09.44.38.06.38-.54.74-.53.97-.09,1.95-.05,2.92-.12-.16.33-.54.44-.79.68-.45.37-.77.89-.95,1.44-.04.12-.05.25-.04.38.07,1.21.06,2.42.06,3.64-.01,1.1.02,2.21-.11,3.31-.07.85-.18,1.71-.51,2.51-.26.63-.82,1.08-1.4,1.42-1.07.61-2.36.77-3.56.51-.92-.18-1.8-.63-2.42-1.35-.27-.34-.53-.72-.67-1.13.76.32,1.58.53,2.4.6.71.05,1.41-.09,2.08-.29.49-.17.99-.4,1.31-.82.56-.65.72-1.53.78-2.36-.37.15-.72.37-1.1.5-.42.16-.87.27-1.32.3-.59.04-1.18-.09-1.74-.27-.53-.19-1.06-.45-1.47-.84-.75-.71-1.29-1.67-1.41-2.71-.03-.52-.04-1.05,0-1.58.13-1.19.75-2.31,1.67-3.08.6-.46,1.31-.81,2.08-.85M7.79,17.91c-.33.08-.65.23-.91.46-.59.48-.89,1.21-1.03,1.94-.08.41.03.83.14,1.22.15.51.43.99.87,1.31.33.23.7.42,1.1.51.33.07.67.02.99-.11.89-.3,1.61-1.06,1.85-1.96.12-.65-.01-1.31-.27-1.91-.29-.58-.75-1.1-1.36-1.33-.43-.19-.92-.25-1.38-.13h0Z"/>
        <path id="path16" class="cls-2" d="M41.68,16.12c.25-.11.53-.13.8-.17.41-.06.83-.08,1.25-.04.44.04.91.09,1.29.36.58.4,1.07,1.01,1.2,1.72.06.67.03,1.34.02,2.01,0,.92-.03,1.83-.01,2.75.01.27-.02.56.1.81.3.71.91,1.21,1.34,1.82-.77-.01-1.54,0-2.31,0-.15,0-.32-.02-.42-.14-.18-.19-.32-.43-.5-.62-.12-.14-.27-.26-.33-.44-.09-.24-.06-.49-.07-.74,0-1.21,0-2.42,0-3.63,0-.5,0-1.01-.07-1.51-.02-.11-.06-.26-.18-.29-.6-.11-1.22.03-1.76.29-.38.16-.76.35-1.06.63-.14.13-.12.34-.13.51-.02.79-.01,1.59-.01,2.38.01.52-.02,1.05.05,1.57.11.65.51,1.22,1.01,1.64.16.13.32.27.47.42-.5,0-1-.06-1.49-.06-.48-.01-.99.03-1.44-.18-.43-.23-.65-.73-.69-1.2-.05-1.57,0-3.14,0-4.7,0-.55.05-1.12-.16-1.64-.19-.42-.51-.78-.9-1.04-.2-.15-.46-.27-.52-.53,1.01-.06,2.02.03,3.03-.07.2-.01.41,0,.61.05.11.11.06.29.09.43.11,0,.24.04.35-.01.16-.12.28-.27.46-.36h0Z"/>
        <path id="path18" class="cls-2" d="M17.37,16.04c.69-.09,1.4-.06,2.1-.03.68.04,1.29.39,1.83.79,1,.8,1.6,2.01,1.79,3.27.07,1-.11,2.03-.58,2.92-.47.87-1.22,1.58-2.11,2.02-.76.41-1.65.48-2.5.38-1.26-.15-2.43-.9-3.11-1.97-.54-.83-.83-1.81-.91-2.79,0-.62.19-1.22.41-1.79.35-.91.93-1.77,1.78-2.29.4-.25.84-.43,1.31-.5M18.04,17.89c-.78.21-1.46.81-1.74,1.57-.33.87-.25,1.87.12,2.72.29.58.87.97,1.48,1.16.65.16,1.36-.01,1.92-.36.55-.38.98-.98,1.06-1.65.13-.77.04-1.59-.33-2.28-.28-.42-.67-.78-1.14-.98-.44-.16-.91-.25-1.37-.17h0Z"/>
        <path id="path20" class="cls-2" d="M22.72,16.05c1.33.03,2.66-.08,3.99-.04-.05.14-.12.29-.27.34-.37.14-.71.34-.98.63-.06.07-.12.17-.11.27.05.35.19.68.3,1.01.43,1.13.8,2.28,1.35,3.36.21-.29.29-.65.41-.99.24-.67.48-1.33.71-2.01.25-.7.45-1.43.85-2.07.13-.22.33-.43.59-.46.63-.08,1.27-.02,1.9-.04.27.01.56-.05.82.07.21-.01.41-.06.62-.06,1.12,0,2.24-.01,3.35.01.05,1.33.01,2.65.02,3.98,0,.92,0,1.84,0,2.76,0,.5,0,1,.08,1.49.26.19.57.3.84.49.23.16.51.3.6.58-.96,0-1.92,0-2.88,0-.21-.02-.44.01-.61-.13-.21-.21-.23-.54-.26-.82-.04-1.91-.02-3.83,0-5.74,0-.53-.02-1.1-.32-1.56-.34-.49-.89-.85-1.48-.95-.22.03-.4.18-.57.32-.22.2-.43.41-.63.63-.62.8-.87,1.8-1.22,2.73-.45,1.28-.94,2.56-1.4,3.84-.18.53-.41,1.04-.58,1.58-.34.12-.7.03-1.05,0-.22,0-.45-.05-.61-.22-.2-.23-.3-.53-.43-.81-.42-.99-.8-2-1.21-2.99-.54-1.32-1.02-2.68-1.69-3.94-.17-.38-.42-.72-.55-1.11.04-.19.28-.11.42-.13h0Z"/>
        <path id="path22" class="cls-2" d="M1.14,22.38c.47-.04,1.02-.1,1.41.21.28.32.39.72.48,1.16-.02.39-.2.69-.41.97-.12.17-.28.28-.47.36-.26.1-.53.23-.81.16-.57-.16-1.11-.56-1.3-1.14-.14-.47.11-.94.36-1.32.17-.24.46-.35.74-.39h0Z"/>
        <path id="path24" class="cls-2" d="M30.94,22.59c.41-.1.87.04,1.16.35.33.33.58.77.6,1.24-.03.4-.26.77-.55,1.03-.35.31-.85.3-1.29.28-.44,0-.75-.39-.95-.74-.21-.34-.22-.76-.11-1.13.11-.55.63-.91,1.14-1.03h0Z"/>
      </g>
      <g id="_2b5b9fff" data-name="#2b5b9fff">
        <path id="path27" class="cls-6" d="M29.43,1.37c.44-.49,1.09-.75,1.73-.87.72-.05,1.43.11,2.15.05-.04.12-.1.23-.22.28-.62.33-1.21.74-1.69,1.26-.26.27-.43.61-.52.97-.28.91-.25,1.86-.27,2.8-.01,1.63.04,3.25.03,4.88,0,.67-.01,1.34.03,2,.56-.01,1.12-.13,1.69-.13-.02.77.05,1.54-.07,2.31-.39.07-.79.05-1.19.05-.79,0-1.59-.03-2.38,0-.12,0-.25.01-.35-.05-.08-.26-.07-.54-.15-.81-.38.11-.67.37-.96.62-.31.2-.6.3-.94.37-.37.06-.8.12-1.18.06-.39-.05-.77-.11-1.15-.21-.67-.16-1.25-.55-1.81-.93-.69-.54-1.25-1.24-1.6-2.04-.28-.67-.39-1.41-.37-2.13-.02-.72.03-1.46.31-2.13.43-.98,1.15-1.83,2.08-2.37.72-.42,1.54-.65,2.37-.74.75-.02,1.49.15,2.2.38.41.13.77.38,1.18.5,0-.38,0-.77,0-1.15-.04-1.09.39-2.16,1.08-2.99M24.92,6.88c-.46.08-.92.24-1.3.52-.4.29-.62.76-.8,1.21-.33.84-.26,1.8.07,2.63.26.56.71,1.02,1.24,1.33.39.24.84.43,1.3.38.58-.12,1.17-.31,1.63-.69.51-.42.9-.98,1.12-1.61.18-.51.12-1.07.01-1.59-.11-.64-.56-1.16-1.05-1.56-.62-.51-1.44-.74-2.23-.62h0Z"/>
      </g>
      <g id="_24a039ff" data-name="#24a039ff">
        <path id="path30" class="cls-5" d="M14.72,4.57c.72-.12,1.48-.08,2.17.14.8.26,1.41.95,1.71,1.72.18.48.18.99.19,1.5.01,1.62-.03,3.23.03,4.85.28-.02.56-.03.82-.11.18-.06.37-.05.56-.05.12.75,0,1.51.05,2.26-1.31,0-2.61,0-3.92.07-.1-2.44.04-4.89-.08-7.34-.04-.26,0-.55-.13-.8-.21-.08-.45-.05-.67-.03-.55.06-1.11.17-1.6.44-.31.18-.69.31-.91.6-.16.75-.11,1.53-.12,2.3.02.89-.04,1.79.05,2.68.48-.05.95-.23,1.44-.24.05.78-.02,1.55,0,2.33-.29.05-.58.03-.87.04-1.04,0-2.07.02-3.11-.02-.01-1.62,0-3.23.03-4.85.01-1.04-.03-2.08,0-3.12-.51.01-1.03.05-1.54.06-.05-.71-.08-1.42-.1-2.13,1.26-.01,2.53.03,3.79-.02.27-.06.33.27.48.42.55-.27,1.08-.64,1.71-.69h0Z"/>
      </g>
      <g id="_cd328aff" data-name="#cd328aff">
        <path id="path33" class="cls-7" d="M3.62,4.86c1.36,0,2.74-.03,4.1,0,.03.25,0,.51.01.77,0,.12,0,.24,0,.35.06,1.75,0,3.5.06,5.25.01.51,0,1.02.03,1.52.46-.06.91-.19,1.38-.16.14.76.05,1.53,0,2.29-1.29,0-2.58.05-3.87.02-.02-2.65-.02-5.3-.05-7.94-.52,0-1.1,0-1.63-.03-.05-.34.02-.73,0-1.08-.01-.33-.04-.67-.03-1Z"/>
      </g>
      <g id="_0a957aff" data-name="#0a957aff">
        <path id="path36" class="cls-4" d="M32.16,4.83c1.32,0,2.64.05,3.97.03.03,1.44,0,2.88.03,4.32,0,1.2.02,2.39,0,3.59.34-.06.67-.19,1.03-.16.09-.02.12.1.14.16.18.68.2,1.38.14,2.07-1.21.06-2.42.01-3.63.03-.05-2.65.02-5.29-.02-7.94-.54.03-1.08.07-1.62.12.02-.74.01-1.48-.04-2.22h0Z"/>
      </g>
      <g id="_fcb408ff" data-name="#fcb408ff">
        <path id="path39" class="cls-3" d="M25,8.47c.48-.12.98.08,1.35.39.22.19.36.46.38.76.1.63-.3,1.27-.85,1.55-.79.33-1.82-.31-1.86-1.17,0-.37.17-.71.35-1.02.14-.23.36-.43.62-.5h0Z"/>
      </g>
    </g>
  </g>
</svg>