<?xml version="1.0" encoding="UTF-8"?>
<svg id="Layer_2" data-name="Layer 2" xmlns="http://www.w3.org/2000/svg" viewBox="0 0 57.07 25">
  <defs>
    <style>
      .cls-1 {
        fill: #f7a609;
      }

      .cls-1, .cls-2, .cls-3 {
        fill-rule: evenodd;
      }

      .cls-2 {
        fill: #1ca438;
      }

      .cls-3 {
        fill: #1e1e1c;
      }
    </style>
  </defs>
  <g id="Layer_1-2" data-name="Layer 1">
    <g>
      <polygon class="cls-1" points="16.05 9.36 20.45 9.36 20.45 10.17 16.05 10.17 16.05 9.36 16.05 9.36"/>
      <polygon class="cls-2" points="16.05 10.83 20.45 10.83 20.45 11.63 16.05 11.63 16.05 10.83 16.05 10.83"/>
      <path class="cls-3" d="M6.33,12.45c-.09.03-.18.04-.27.05-.14,0-.27-.02-.4-.06v-1h2.39v.78c-.12-.15-.26-.29-.42-.41-.13-.07-.27-.1-.42-.1-.51,0-.87.34-.88.73h0ZM30.89,11.44v.45h-.74c-.54,0-.78.31-.78.6,0,.35.19.68.75,1.48l.21-.16c-.28-.33-.47-.68-.47-.93,0-.29.1-.5.48-.5h.57v1.28l.5.36v-2.57h.56l-.28-.48h-7.13l.28.48h.41v1.07h-.87l.02-.62c0-.34-.19-.93-.79-.93-.31-.01-.57.22-.59.53v.03c0,.32.26.64.9.79l-.03.18h-.28c-.09,0-.16.07-.16.16,0,0,0,0,0,0h0c0,.21.55.73.72.73.12,0,.16-.1.17-.4h.91v.65l.5.36v-2.57h.68v2.2l.5.36v-2.57h1.14v.78c0,.06-.02.1-.06.1-.1,0-.23-.14-.38-.14-.09.02-.15.1-.16.19,0,.09.1.24.3.48l.94,1.18.2-.2c-.27-.26-.51-.54-.73-.84.2-.12.34-.32.37-.56v-.98h2.33ZM23.98,11.63l-.02.45c-.32-.06-.47-.21-.47-.44,0-.17.11-.31.28-.35.09,0,.23.09.21.34h0ZM13.02,11.77v-.32h.8l-.27-.48H4.11l.27.48h.79v.84s-.01.07-.03.07c-.06,0-.18-.16-.3-.16-.11,0-.19.09-.21.2.04.19.12.38.24.53l.91,1.23.21-.21c-.26-.27-.5-.56-.72-.86.15-.11.27-.25.37-.4.14.13.31.28.5.28.11,0,.23-.02.34-.06.17.31.49.51.84.54.23,0,.46-.11.75-.32v.52l.48.36v-2.56h4.01v.27c-.3.03-.53.29-.52.59,0,.3.23.57.68.83-.26.29-.62.46-1.01.48-.26,0-.33-.07-.33-.21,0-.16.16-.32.64-.32l-.21-.5c-.17-.02-.33,0-.48.08-.03-.02-.06-.04-.08-.07l-.09-.14s0-.04,0-.05c.01-.16.15-.28.31-.27,0,0,0,0,0,0h0c.11,0,.22.01.32.03l-.22-.48c-.08-.02-.15-.03-.23-.03-.26-.02-.5.13-.58.38l-.09-.16h-1.71l.27.48h.32c-.06.11-.09.23-.08.35,0,.36.45.83.88.83.24-.03.46-.13.64-.29.08.35.58.74,1.02.74.63,0,1.47-.62,1.47-1.46-.04-.31-.2-.59-.44-.78h-.01ZM10.8,12.37c.05.1.11.18.18.27-.35.34-.66.51-.91.51-.13,0-.19-.05-.19-.17.02-.22.14-.42.33-.54.13-.05.27-.08.42-.07h.17ZM12.83,12.96c-.18-.11-.29-.31-.3-.52,0-.22.15-.42.32-.42.1,0,.17.08.17.32-.01.22-.08.44-.21.62h0ZM7.06,13.06c-.15,0-.28-.13-.27-.28,0,0,0,0,0,0v-.03c-.01-.29.21-.54.5-.56.28,0,.56.12.76.31v.07c-.27.2-.77.48-1,.48h0Z"/>
      <path class="cls-3" d="M3.22,23.36v-1.08h1.65v.67h0c-.05-.13-.14-.25-.26-.33-.1-.05-.21-.08-.32-.08-.32-.02-.6.22-.62.54,0,0,0,0,0,0v.03c0,.32.42.68.77.68.17-.02.32-.09.45-.2v.37l.38.27v-.86c.15-.15.34-.26.55-.32.07,0,.12.06.13.13-.06.24-.16.47-.29.68l.35.26c.13-.2.21-.44.23-.68,0-.4-.28-.72-.56-.72-.15.02-.29.08-.41.17v-.63h1.26l-.21-.36H1.35l.21.36h.3v1.17c0,.08.03.16.16.25.08.05,1.05.62,1.15.7.06.04.11.1.11.18-.01.06-.03.12-.06.17l.34.26c.08-.09.14-.2.16-.32,0-.12-.08-.22-.18-.28l-.94-.58c-.32-.2-.35-.3-.35-.41v-1.12h.58v.8c0,.16-.05.21-.14.21-.06,0-.12-.01-.17-.02l.16.28c.11.04.22.07.33.07.14,0,.2-.05.2-.27h0ZM34.13,22.28h.3v.58s-.01.07-.05.07c-.07,0-.17-.1-.28-.1-.07.01-.12.07-.12.14,0,.07.07.18.23.37l.71.88.15-.15c-.2-.2-.38-.41-.55-.63.15-.09.25-.24.27-.42v-.75h.71l-.21-.36h-1.83c-.23-.39-.39-.68-.58-.84-.09-.09-.22-.15-.35-.15-.1,0-.23,0-.23.09,0,.05.02.09.18.37.08-.02.16-.04.24-.04.08,0,.16.04.22.1.14.14.26.3.36.47h-1.34l.2.36h.27v.52c0,.11-.22.24-.4.24-.12-.01-.24-.07-.32-.16.11-.06.18-.17.18-.3,0-.3-.43-.71-.78-.71-.19.03-.38.07-.56.15l.2.37c.2-.09.41-.15.63-.17.11,0,.18.04.18.15,0,.19-.19.36-.59.42-.08.01-.11.04-.11.06.06.12.14.22.23.32.16-.04.32-.1.47-.18.05.09.08.2.08.3,0,.2-.19.35-.45.35s-.47-.2-.66-.59l-.15.09c.23.49.62.84.96.84.37,0,.63-.24.63-.52,0-.08-.01-.16-.05-.24h0c.11.05.23.1.36.13.05,0,.11,0,.16-.02v.61l.37.27v-1.92h.43v1.65l.37.26v-1.91h.51ZM29.57,22.28l-.21-.36h-.41c-.07-.66-.39-.96-.77-.96-.27-.02-.5.18-.53.44,0,.12.06.24.14.33l.22-.03s0-.09,0-.14c0-.16.13-.29.3-.29h0c.24,0,.45.26.46.64h-3.35l.21.36h1.4v.67h0c-.05-.13-.14-.25-.26-.33-.1-.05-.21-.08-.32-.08-.32-.02-.6.23-.62.55v.03c0,.32.42.68.76.68.17-.02.32-.09.45-.2v.37s.38.27.38.27v-.86c.15-.15.34-.26.55-.32.07,0,.12.06.13.13-.06.24-.15.47-.28.68l.35.26c.13-.21.2-.44.22-.68,0-.4-.28-.72-.56-.72-.15.02-.29.08-.41.18v-.63h1.26v1.65l.38.26v-1.92h.51ZM27.04,23.17c-.1.09-.56.37-.68.37-.08,0-.16-.09-.16-.23,0-.21.17-.39.39-.41.18.02.35.12.46.27h0ZM24.39,24.2v-1.92h.51l-.21-.36h-10.06l.21.36h.61v.63s0,.05-.02.05c-.05,0-.14-.12-.23-.12-.08,0-.15.06-.16.15.03.15.09.28.18.4l.7.92.16-.15c-.2-.2-.39-.41-.55-.64.11-.09.21-.19.29-.3.1.11.24.19.39.21.09,0,.18-.01.26-.04.14.23.39.38.66.4.22-.02.42-.11.58-.25v.39l.38.26v-1.92h3.11v.2c-.23.02-.41.21-.41.45,0,.22.18.43.53.61-.2.22-.48.35-.78.36-.2,0-.26-.06-.26-.16,0-.12.13-.25.5-.25l-.16-.37c-.13-.01-.25,0-.37.07-.02-.01-.05-.03-.07-.05v-.16s-.05.04-.07.06c0-.01,0-.02,0-.04.01-.12.12-.22.24-.21h0c.08,0,.16,0,.25.03l-.18-.34c-.06-.01-.12-.02-.18-.02-.2-.02-.38.1-.45.28l-.07-.12h-1.32l.21.36h.25c-.05.08-.07.17-.07.26,0,.27.36.62.69.62.18-.02.35-.1.48-.21.07.26.46.56.8.56.49,0,1.14-.46,1.14-1.09-.03-.23-.16-.44-.34-.58v-.24h1.65v.33h-.55c-.4,0-.58.23-.58.44,0,.27.14.51.56,1.11l.16-.12c-.21-.25-.36-.51-.36-.7s.08-.37.36-.37h.43v.96l.38.26v-1.92h.44v1.65l.37.26h0ZM19.82,22.98c.04.07.09.14.14.2-.27.26-.51.38-.71.38-.1,0-.15-.04-.15-.13.02-.17.12-.32.26-.4.1-.04.21-.06.32-.05h.13ZM21.4,23.42c-.14-.08-.22-.23-.23-.39-.01-.16.1-.3.26-.32.07,0,.13.07.13.24-.01.17-.07.33-.16.47h0ZM16.46,22.29h1.24v.58c-.1-.11-.2-.21-.32-.3-.1-.05-.22-.08-.33-.07-.39,0-.67.25-.68.55-.07.02-.14.03-.21.04-.11,0-.21-.01-.31-.04v-.74h.62ZM16.93,23.49c-.12,0-.21-.09-.21-.21v-.02c0-.22.16-.41.38-.42,0,0,0,0,0,0h0c.22,0,.43.09.59.23v.05c-.21.15-.6.36-.77.36h0ZM12.62,23.43h.67v.5l.39.26v-1.92h.42l-.21-.36h-6.84l.21.36h1.4v.67h-.01c-.05-.13-.14-.25-.26-.33-.1-.05-.21-.08-.32-.08-.32-.02-.6.22-.62.55,0,0,0,0,0,0v.03c0,.32.42.68.76.68.17-.02.32-.09.45-.2v.37l.38.27v-.86c.15-.15.34-.26.54-.32.07,0,.12.06.13.13-.06.24-.15.47-.28.68l.34.26c.13-.21.2-.44.22-.68,0-.4-.28-.72-.56-.72-.15.02-.28.08-.4.18v-.63h2.24v.35h-.56c-.33,0-.52.14-.52.46,0,.53.42.97.95.98h0c.09,0,.18-.01.27-.06l.3.6.2-.1-.33-.57c.09-.04.15-.13.16-.22,0-.16-.36-.4-.48-.4-.07,0-.12.05-.13.11,0,.12.06.15.06.21s-.13.13-.28.13c-.22,0-.39-.2-.39-.42-.02-.18.1-.35.29-.37,0,0,0,0,0,0,.01,0,.03,0,.04,0h.72s.07-.04.07-.1v-.58h.59v.78h-.12c-.05,0-.1.04-.1.09h0c0,.15.39.56.5.56.07,0,.11-.04.11-.09v-.19h0ZM13.29,22.29v.79h-.66v-.79h.66ZM8.66,23.17c-.1.09-.56.37-.69.37-.08,0-.16-.09-.16-.23,0-.21.18-.39.39-.41.18.02.35.12.46.27ZM4.87,23.17c-.11.09-.56.37-.68.37-.08,0-.16-.09-.16-.23,0-.21.17-.39.39-.41.18.02.35.12.46.27Z"/>
      <path class="cls-3" d="M8.81,4.06c4.4,0,7.97,3.57,7.98,7.97,0,4.4-3.57,7.97-7.97,7.98-4.4,0-7.97-3.57-7.98-7.97h0c0-4.41,3.57-7.98,7.97-7.98ZM8.81,4.77c4.01,0,7.26,3.25,7.26,7.26,0,4.01-3.25,7.26-7.26,7.26-4.01,0-7.26-3.25-7.26-7.26h0c0-4.01,3.25-7.26,7.26-7.26Z"/>
      <path class="cls-3" d="M27.66,4.06c4.4,0,7.97,3.57,7.98,7.97,0,4.4-3.57,7.97-7.97,7.98-4.4,0-7.97-3.57-7.98-7.97h0c0-4.4,3.57-7.97,7.97-7.98ZM27.66,4.77c4.01,0,7.26,3.25,7.26,7.26,0,4.01-3.25,7.26-7.26,7.26s-7.26-3.25-7.26-7.26h0c0-4.01,3.25-7.26,7.26-7.26Z"/>
      <path class="cls-3" d="M.52,11.62c-.46.21-.77-.45-.25-.69l2.77-1.25L20.5,1.56l1.62-.7c1.95-.73,3.86-1.26,5.56-.44,2.65,1.35,2.24,5.28.02,7.14-.41.34-.86-.16-.51-.52,3.39-3.57,1.29-7.93-4.33-5.66-.35.14-.66.26-1,.42C15.46,4.66,9.08,7.67,2.69,10.64l-2.17.98Z"/>
      <path class="cls-3" d="M34.58,11.65c-.46.22-.77-.44-.25-.69l13.78-6.37,1.62-.71c1.94-.73,3.8-1.35,5.5-.54,2.65,1.35,2.24,5.29.02,7.14-.15.14-.38.12-.52-.03-.13-.14-.12-.36,0-.5,3.37-3.65,1.29-8-4.27-5.57-.35.16-.66.26-1,.42-4.98,2.24-9.96,4.47-14.88,6.84Z"/>
    </g>
  </g>
</svg>